<?xml version="1.0" standalone="no"?>
<!DOCTYPE svg PUBLIC "-//W3C//DTD SVG 1.1//EN"
  "http://www.w3.org/Graphics/SVG/1.1/DTD/svg11.dtd">
<svg width="172mm" height="226mm" viewBox="-81 -103 172 226" xmlns="http://www.w3.org/2000/svg" version="1.1">
	<title>svgOutput</title>
	<desc>made with tinkercad</desc>
<path d="M -79.11000061035156 110.03199768066406 L -80 109.14099884033203 L -80 106.49600219726562 L -80 98.30400085449219 L -80 65.53600311279297 L -80 23 L -80 16.384000778198242 L -80 8.192000389099121 L -80 5.164059162139893 L -80 2.8580000400543213 L -78.56900024414062 1.4270000457763672 L -77.3949966430664 0.25200000405311596 L -77.14280700683594 1.1102230246251565e-16 L -76.10800170898438 -1.034000039100647 L -74.14199829101562 -3 L -74.14047241210938 -3 L -65.53600311279297 -3 L -34.858001708984375 -3 L -31.857999801635742 1.1102230246251565e-16 L -28 3.8580000400543213 L -28 8.855999946594238 L -24.854999542236328 12 L -19.857999801635742 12 L -1 12 L 0 12 L 3.1429998874664307 12 L 11 19.857999801635742 L 11 23 L 11 25.996999740600586 L 14.003000259399414 29 L 20.140836715698242 29 L 65.53600311279297 29 L 83.14199829101562 29 L 86.56193542480469 32.41993713378906 L 86.91000366210938 32.768001556396484 L 90 35.858001708984375 L 90 36.86399841308594 L 90 40.959999084472656 L 90 49.152000427246094 L 90 65.53600311279297 L 90 98.30400085449219 L 90 106.49600219726562 L 90 107.14099884033203 L 87.27100372314453 109.87100219726562 L 86.55000305175781 110.59200286865234 L 83.14199829101562 114 L 81.91999816894531 114 L 65.53600311279297 114 L 51.14400100708008 114 L 51.143001556396484 114.0009994506836 L 51.141998291015625 114 L 43.141998291015625 122 L 32.768001556396484 122 L 15.234000205993652 122 L 0 122 L -4.517000198364258 122 L -26.142000198364258 122 L -32.141998291015625 116 L -32.250999450683594 116.10900115966797 L -32.35900115966797 116 L -32.768001556396484 116 L -65.53600311279297 116 L -73.14199829101562 116 L -74.4540023803711 114.68800354003906 L -75.49199676513672 113.6500015258789 L -75.80899810791016 113.33399963378906 L -76.26599884033203 112.8759994506836 L -76.3280258178711 112.81397247314453 L -78.55000305175781 110.59200286865234 L -79.11000061035156 110.03199768066406 M -72.8239974975586 -14.020999908447266 L -72.78800201416016 -14.246947288513184 L -72.74800109863281 -14.498000144958496 L -72.78800201416016 -14.75 L -72.78800201416016 -14.75100040435791 L -72.83399963378906 -15.038999557495117 L -73.08169555664062 -15.524450302124023 L -73.08300018310547 -15.527000427246094 L -73.15899658203125 -15.60200023651123 L -73.47000122070312 -15.913999557495117 L -73.72799682617188 -16.045114517211914 L -73.95800018310547 -16.16200065612793 L -74.49600219726562 -16.246999740600586 L -74.49695587158203 -16.247480392456055 L -74.49800109863281 -16.24799919128418 L -74.5 -16.246999740600586 L -75.03900146484375 -16.16200065612793 L -75.5270004272461 -15.913999557495117 L -75.91382598876953 -15.527170181274414 L -75.91400146484375 -15.527000427246094 L -75.91799926757812 -15.519000053405762 L -76.16300201416016 -15.038999557495117 L -76.2490005493164 -14.498000144958496 L -76.22325134277344 -14.336000442504883 L -76.16532897949219 -13.971661567687988 L -76.16300201416016 -13.956999778747559 L -75.91799926757812 -13.47700023651123 L -75.91400146484375 -13.468999862670898 L -75.5270004272461 -13.081999778747559 L -75.03900146484375 -12.833999633789062 L -74.5 -12.748000144958496 L -74.49600219726562 -12.748000144958496 L -73.95800018310547 -12.833999633789062 L -73.72799682617188 -12.950884819030762 L -73.47000122070312 -13.081999778747559 L -73.08300018310547 -13.468999862670898 L -72.83428955078125 -13.956438064575195 L -72.83399963378906 -13.956999778747559 L -72.8239974975586 -14.020999908447266 M 77.14199829101562 23 L 67.98100280761719 23 L 65.53600311279297 23 L 44.858001708984375 23 L 38 16.142000198364258 L 38 11.144000053405762 L 34.85499954223633 7.999000072479248 L 6.85699987411499 7.999000072479248 L 0 1.1419999599456787 L -1 0.1420000046491624 L -1 1.1102230246251565e-16 L -1 -5.997000217437744 L -4.002999782562256 -9 L -5.230000019073486 -9 L -24.97800064086914 -9 L -65.53600311279297 -9 L -66.4689712524414 -9 L -66.57816314697266 -9 L -71.87530517578125 -9 L -72.78800201416016 -9 L -73.14199829101562 -9 L -73.72799682617188 -9.586000442504883 L -76.43000030517578 -12.288000106811523 L -77.8239974975586 -13.682000160217285 L -80 -15.857999801635742 L -80 -16.384000778198242 L -80 -32.768001556396484 L -80 -65.53600311279297 L -80 -81.91999816894531 L -80 -86.01599884033203 L -80 -87.14199829101562 L -77.8239974975586 -89.31800079345703 L -77.02999877929688 -90.11199951171875 L -73.14199829101562 -94 L -65.53600311279297 -94 L -41.14400100708008 -94 L -41.143001556396484 -94.0009994506836 L -41.141998291015625 -94 L -33.141998291015625 -102 L -32.768001556396484 -102 L -30.76799964904785 -102 L -24.97800064086914 -102 L -11.019000053405762 -102 L 0 -102 L 32.768001556396484 -102 L 36.141998291015625 -102 L 42.141998291015625 -96 L 42.250999450683594 -96.10900115966797 L 42.35900115966797 -96 L 65.53600311279297 -96 L 81.91999816894531 -96 L 83.14199829101562 -96 L 84.93399810791016 -94.20800018310547 L 86.01599884033203 -93.1259994506836 L 89.02999877929688 -90.11199951171875 L 89.3349838256836 -89.80701446533203 L 90 -89.14199829101562 L 90 -88.9990005493164 L 90 -88.08544921875 L 90 -88.0560531616211 L 90 -85.87657165527344 L 90 -82.57550811767578 L 90 -81.91999816894531 L 90 -65.53600311279297 L 90 1.1102230246251565e-16 L 90 16.384000778198242 L 90 17.142000198364258 L 86.01599884033203 21.125999450683594 L 84.14199829101562 23 L 81.91999816894531 23 L 77.14199829101562 23 M -73.05000305175781 -87.28600311279297 L -72.8340835571289 -87.7088394165039 L -72.83399963378906 -87.70899963378906 L -72.8280029296875 -87.74700164794922 L -72.74800109863281 -88.2490005493164 L -72.83399963378906 -88.79000091552734 L -73.08300018310547 -89.27799987792969 L -73.47000122070312 -89.66500091552734 L -73.72799682617188 -89.79664611816406 L -73.95800018310547 -89.91400146484375 L -74.49600219726562 -89.99800109863281 L -74.49800109863281 -89.9990005493164 L -74.4990463256836 -89.99847412109375 L -74.5 -89.99800109863281 L -75.03900146484375 -89.91300201416016 L -75.5270004272461 -89.66400146484375 L -75.91400146484375 -89.27799987792969 L -75.91799926757812 -89.2699966430664 L -76.16300201416016 -88.79000091552734 L -76.16532897949219 -88.77533721923828 L -76.2490005493164 -88.2490005493164 L -76.21953582763672 -88.06400299072266 L -76.16300201416016 -87.70899963378906 L -75.91799926757812 -87.22799682617188 L -75.91400146484375 -87.22100067138672 L -75.5270004272461 -86.83300018310547 L -75.03900146484375 -86.58499908447266 L -74.5 -86.4990005493164 L -74.49600219726562 -86.4990005493164 L -73.95800018310547 -86.58499908447266 L -73.72799682617188 -86.70188903808594 L -73.47000122070312 -86.83300018310547 L -73.08338928222656 -87.2206039428711 L -73.08300018310547 -87.22100067138672 L -73.05000305175781 -87.28600311279297 M -74.24800109863281 112.49800109863281 L -73.72799682617188 112.41614532470703 L -73.70800018310547 112.41300201416016 L -73.22000122070312 112.16400146484375 L -72.83300018310547 111.7770004272461 L -72.58399963378906 111.28900146484375 L -72.49800109863281 110.74800109863281 L -72.58399963378906 110.20800018310547 L -72.83300018310547 109.72000122070312 L -73.22000122070312 109.33300018310547 L -73.70800018310547 109.08399963378906 L -73.72799682617188 109.08081817626953 L -74.24800109863281 108.99800109863281 L -74.78900146484375 109.08399963378906 L -75.01399993896484 109.1989974975586 L -75.2770004272461 109.33300018310547 L -75.27786254882812 109.3338623046875 L -75.66400146484375 109.72000122070312 L -75.91300201416016 110.20800018310547 L -75.97415924072266 110.59200286865234 L -75.9990005493164 110.74800109863281 L -75.91300201416016 111.28900146484375 L -75.66400146484375 111.7770004272461 L -75.2770004272461 112.16400146484375 L -75.01399993896484 112.2979965209961 L -74.78900146484375 112.41300201416016 L -74.78797149658203 112.41316223144531 L -74.24800109863281 112.49800109863281 M -24.26799964904785 67.01899719238281 L -32.768001556396484 67.01899719238281 L -38.22800064086914 67.01899719238281 L -38.22800064086914 80.97799682617188 L -32.768001556396484 80.97799682617188 L -24.26799964904785 80.97799682617188 L -24.26799964904785 69.51899719238281 L -24.26799964904785 67.01899719238281 M -72.59700012207031 3.062000036239624 L -72.58399963378906 3.0380001068115234 L -72.5836410522461 3.0357298851013184 L -72.49800109863281 2.497999906539917 L -72.58399963378906 1.9570000171661377 L -72.83300018310547 1.468999981880188 L -73.22000122070312 1.0820000171661377 L -73.70800018310547 0.8330000042915345 L -73.72799682617188 0.8298518657684327 L -74.24800109863281 0.7480000257492067 L -74.78900146484375 0.8330000042915345 L -75.2770004272461 1.0820000171661377 L -75.66400146484375 1.468999981880188 L -75.91300201416016 1.9570000171661377 L -75.9990005493164 2.497999906539917 L -75.91300201416016 3.0380001068115234 L -75.9010009765625 3.062000036239624 L -75.66400146484375 3.5260000228881836 L -75.2770004272461 3.9130001068115234 L -74.78900146484375 4.1620001792907715 L -74.24800109863281 4.248000144958496 L -73.72799682617188 4.16518497467041 L -73.70800018310547 4.1620001792907715 L -73.22000122070312 3.9130001068115234 L -72.83300018310547 3.5260000228881836 L -72.59700012207031 3.062000036239624 M 82.50199890136719 -90.7490005493164 L 82.50199890136719 -90.74800109863281 L 82.58799743652344 -90.20800018310547 L 82.6369857788086 -90.11199951171875 L 82.83699798583984 -89.72000122070312 L 83.2239990234375 -89.33399963378906 L 83.71199798583984 -89.08499908447266 L 83.8219985961914 -89.06700134277344 L 84.25 -88.9990005493164 L 84.25199890136719 -88.9990005493164 L 84.79299926757812 -89.08499908447266 L 85.28099822998047 -89.33399963378906 L 85.66799926757812 -89.72100067138672 L 85.86791229248047 -90.11199951171875 L 85.91699981689453 -90.20800018310547 L 86.00299835205078 -90.74800109863281 L 85.91699981689453 -91.28900146484375 L 85.66799926757812 -91.7770004272461 L 85.28500366210938 -92.16000366210938 L 85.28099822998047 -92.16400146484375 L 84.79299926757812 -92.41300201416016 L 84.25199890136719 -92.49800109863281 L 84.25 -92.49800109863281 L 83.8219985961914 -92.43099975585938 L 83.71199798583984 -92.41300201416016 L 83.2239990234375 -92.16400146484375 L 83.22000122070312 -92.16000366210938 L 82.83699798583984 -91.7770004272461 L 82.58799743652344 -91.28900146484375 L 82.50199890136719 -90.7490005493164 M -24.26799964904785 41.479000091552734 L -24.26799964904785 32.768001556396484 L -24.26799964904785 29.768999099731445 L -24.26799964904785 27.520000457763672 L -38.22800064086914 27.520000457763672 L -38.22800064086914 32.768001556396484 L -38.22800064086914 41.479000091552734 L -24.26799964904785 41.479000091552734 M 34.27199935913086 -41.22800064086914 L 34.27199935913086 -32.768001556396484 L 34.27199935913086 -27.26799964904785 L 48.231998443603516 -27.26799964904785 L 48.231998443603516 -32.768001556396484 L 48.231998443603516 -41.22800064086914 L 34.27199935913086 -41.22800064086914 M 54.020999908447266 -6.479000091552734 L 54.020999908447266 1.1102230246251565e-16 L 54.020999908447266 7.480000019073486 L 65.53600311279297 7.480000019073486 L 67.98100280761719 7.480000019073486 L 67.98100280761719 1.1102230246251565e-16 L 67.98100280761719 -6.479000091552734 L 65.53600311279297 -6.479000091552734 L 57.36000061035156 -6.479000091552734 L 54.020999908447266 -6.479000091552734 M -18.476999282836914 29.768999099731445 L -18.476999282836914 32.768001556396484 L -18.476999282836914 41.479000091552734 L -18.476999282836914 43.72800064086914 L -4.517000198364258 43.72800064086914 L -4.517000198364258 32.768001556396484 L -4.517000198364258 29.768999099731445 L -18.476999282836914 29.768999099731445 M 83.2239990234375 16.086999893188477 L 82.927001953125 16.384000778198242 L 82.83699798583984 16.474000930786133 L 82.58799743652344 16.961999893188477 L 82.50199890136719 17.5 L 82.50199890136719 17.50200080871582 L 82.58799743652344 18.042999267578125 L 82.78648376464844 18.43199920654297 L 82.83699798583984 18.5310001373291 L 83.2239990234375 18.917999267578125 L 83.71087646484375 19.166427612304688 L 83.71199798583984 19.16699981689453 L 83.8219985961914 19.18400001525879 L 84.25199890136719 19.25200080871582 L 84.79299926757812 19.16699981689453 L 85.28099822998047 18.917999267578125 L 85.66799926757812 18.5310001373291 L 85.71851348876953 18.43199920654297 L 85.91699981689453 18.042999267578125 L 86.00299835205078 17.50200080871582 L 86.00299835205078 17.499000549316406 L 85.91699981689453 16.961999893188477 L 85.66799926757812 16.474000930786133 L 85.5780029296875 16.384000778198242 L 85.28099822998047 16.086999893188477 L 84.79299926757812 15.838000297546387 L 84.26011657714844 15.753291130065918 L 84.25199890136719 15.751999855041504 L 84.25 15.751999855041504 L 83.8219985961914 15.821000099182129 L 83.71199798583984 15.838000297546387 L 83.2239990234375 16.086999893188477 M 84.72599792480469 106.53399658203125 L 84.50199890136719 106.49800109863281 L 84.49989318847656 106.49833679199219 L 83.96199798583984 106.58399963378906 L 83.4739990234375 106.83200073242188 L 83.08699798583984 107.22000122070312 L 82.83799743652344 107.70800018310547 L 82.75199890136719 108.24800109863281 L 82.79905700683594 108.54399871826172 L 82.83799743652344 108.78900146484375 L 83.08699798583984 109.2770004272461 L 83.4739990234375 109.66400146484375 L 83.96199798583984 109.91300201416016 L 84.50199890136719 109.99800109863281 L 84.72599792480469 109.96299743652344 L 85.04299926757812 109.91300201416016 L 85.53099822998047 109.66400146484375 L 85.91799926757812 109.2770004272461 L 86.01599884033203 109.0849380493164 L 86.16699981689453 108.78900146484375 L 86.25299835205078 108.24800109863281 L 86.16699981689453 107.70800018310547 L 86.01599884033203 107.41206359863281 L 85.91799926757812 107.22000122070312 L 85.53099822998047 106.83200073242188 L 85.04299926757812 106.58399963378906 L 84.72599792480469 106.53399658203125 M 83.08699798583984 33.46900177001953 L 82.83799743652344 33.957000732421875 L 82.75199890136719 34.49800109863281 L 82.80255126953125 34.816001892089844 L 82.83799743652344 35.03900146484375 L 83.08699798583984 35.527000427246094 L 83.4739990234375 35.91400146484375 L 83.96199798583984 36.1619987487793 L 84.50199890136719 36.24800109863281 L 84.72599792480469 36.21200180053711 L 85.04299926757812 36.1619987487793 L 85.04572296142578 36.160614013671875 L 85.53099822998047 35.91400146484375 L 85.91799926757812 35.527000427246094 L 86.01599884033203 35.33493423461914 L 86.16699981689453 35.03900146484375 L 86.25299835205078 34.49800109863281 L 86.16699981689453 33.957000732421875 L 86.01599884033203 33.66106414794922 L 85.91799926757812 33.46900177001953 L 85.53099822998047 33.082000732421875 L 85.04299926757812 32.83399963378906 L 84.72599792480469 32.78300094604492 L 84.62999725341797 32.768001556396484 L 84.50199890136719 32.74800109863281 L 84.37641906738281 32.768001556396484 L 83.96199798583984 32.83399963378906 L 83.4739990234375 33.082000732421875 L 83.08699798583984 33.46900177001953 M 34.981998443603516 69.51899719238281 L 32.768001556396484 69.51899719238281 L 21.023000717163086 69.51899719238281 L 21.023000717163086 83.47799682617188 L 32.768001556396484 83.47799682617188 L 34.981998443603516 83.47799682617188 L 34.981998443603516 81.91999816894531 L 34.981998443603516 78.47899627685547 L 34.981998443603516 69.51899719238281 M -5.230000019073486 -72.26799774169922 L 0 -72.26799774169922 L 8.729999542236328 -72.26799774169922 L 8.729999542236328 -83.22799682617188 L 8.729999542236328 -86.22799682617188 L 0 -86.22799682617188 L -5.230000019073486 -86.22799682617188 L -5.230000019073486 -72.26799774169922 M -24.97800064086914 -49.51900100708008 L -11.019000053405762 -49.51900100708008 L -11.019000053405762 -58.479000091552734 L -11.019000053405762 -63.47800064086914 L -24.97800064086914 -63.47800064086914 L -24.97800064086914 -58.479000091552734 L -24.97800064086914 -49.51900100708008 M -24.26799964904785 86.76699829101562 L -32.768001556396484 86.76699829101562 L -38.22800064086914 86.76699829101562 L -38.22800064086914 100.72699737548828 L -32.768001556396484 100.72699737548828 L -24.26799964904785 100.72699737548828 L -24.26799964904785 98.30400085449219 L -24.26799964904785 89.26799774169922 L -24.26799964904785 86.76699829101562 M -18.476999282836914 89.26799774169922 L -18.476999282836914 98.30400085449219 L -18.476999282836914 100.72699737548828 L -18.476999282836914 103.22799682617188 L -4.517000198364258 103.22799682617188 L -4.517000198364258 98.30400085449219 L -4.517000198364258 89.26799774169922 L -18.476999282836914 89.26799774169922 M -50.516998291015625 -32.768001556396484 L -50.516998291015625 -38.729000091552734 L -64.47599792480469 -38.729000091552734 L -64.47599792480469 -32.768001556396484 L -64.47599792480469 -24.770000457763672 L -50.516998291015625 -24.770000457763672 L -50.516998291015625 -32.768001556396484 M -24.26799964904785 47.268001556396484 L -38.22800064086914 47.268001556396484 L -38.22800064086914 61.22800064086914 L -24.26799964904785 61.22800064086914 L -24.26799964904785 47.268001556396484 M -4.517000198364258 63.72700119018555 L -4.517000198364258 49.766998291015625 L -18.476999282836914 49.766998291015625 L -18.476999282836914 61.22800064086914 L -18.476999282836914 63.72700119018555 L -4.517000198364258 63.72700119018555 M 28.479999542236328 -69.26799774169922 L 28.479999542236328 -83.22799682617188 L 14.520999908447266 -83.22799682617188 L 14.520999908447266 -72.26799774169922 L 14.520999908447266 -69.26799774169922 L 28.479999542236328 -69.26799774169922 M -44.016998291015625 26.479000091552734 L -44.016998291015625 23 L -44.016998291015625 12.519000053405762 L -57.97700119018555 12.519000053405762 L -57.97700119018555 23 L -57.97700119018555 26.479000091552734 L -44.016998291015625 26.479000091552734 M 76.13999938964844 -29.708999633789062 L 76.13999938964844 -65.53600311279297 L 76.13999938964844 -77.12699890136719 L 65.53600311279297 -77.12699890136719 L 61.01499938964844 -77.12699890136719 L 57.36000061035156 -77.12699890136719 L 57.36000061035156 -65.53600311279297 L 57.36000061035156 -60.97800064086914 L 57.36000061035156 -41.22800064086914 L 57.36000061035156 -32.768001556396484 L 57.36000061035156 -29.708999633789062 L 65.53600311279297 -29.708999633789062 L 67.98100280761719 -29.708999633789062 L 76.13999938964844 -29.708999633789062 M 1.2740000486373901 103.22799682617188 L 1.2740000486373901 106.22699737548828 L 15.234000205993652 106.22699737548828 L 15.234000205993652 103.22799682617188 L 15.234000205993652 98.30400085449219 L 15.234000205993652 92.26799774169922 L 1.2740000486373901 92.26799774169922 L 1.2740000486373901 98.30400085449219 L 1.2740000486373901 103.22799682617188 M 14.520999908447266 -49.51900100708008 L 28.479999542236328 -49.51900100708008 L 28.479999542236328 -63.47800064086914 L 14.520999908447266 -63.47800064086914 L 14.520999908447266 -52.018001556396484 L 14.520999908447266 -49.51900100708008 M 1.2740000486373901 66.22899627685547 L 15.234000205993652 66.22899627685547 L 15.234000205993652 65.53600311279297 L 15.234000205993652 63.72700119018555 L 15.234000205993652 52.26900100708008 L 1.2740000486373901 52.26900100708008 L 1.2740000486373901 63.72700119018555 L 1.2740000486373901 65.53600311279297 L 1.2740000486373901 66.22899627685547 M -44.72800064086914 -44.52000045776367 L -32.768001556396484 -44.52000045776367 L -30.76799964904785 -44.52000045776367 L -30.76799964904785 -49.152000427246094 L -30.76799964904785 -58.479000091552734 L -32.768001556396484 -58.479000091552734 L -44.72800064086914 -58.479000091552734 L -44.72800064086914 -49.152000427246094 L -44.72800064086914 -44.52000045776367 M 1.2740000486373901 85.97699737548828 L 15.234000205993652 85.97699737548828 L 15.234000205993652 72.01799774169922 L 1.2740000486373901 72.01799774169922 L 1.2740000486373901 85.97699737548828 M 28.479999542236328 -43.72700119018555 L 14.520999908447266 -43.72700119018555 L 14.520999908447266 -32.768001556396484 L 14.520999908447266 -32.26900100708008 L 14.520999908447266 -29.767000198364258 L 28.479999542236328 -29.767000198364258 L 28.479999542236328 -32.26900100708008 L 28.479999542236328 -32.768001556396484 L 28.479999542236328 -43.72700119018555 M 21.023000717163086 98.30400085449219 L 21.023000717163086 103.22799682617188 L 32.768001556396484 103.22799682617188 L 34.981998443603516 103.22799682617188 L 34.981998443603516 98.30400085449219 L 34.981998443603516 98.22699737548828 L 34.981998443603516 89.26799774169922 L 32.768001556396484 89.26799774169922 L 21.023000717163086 89.26799774169922 L 21.023000717163086 92.26799774169922 L 21.023000717163086 98.30400085449219 M 8.729999542236328 -52.018001556396484 L 8.729999542236328 -65.53600311279297 L 8.729999542236328 -65.97699737548828 L 0 -65.97699737548828 L -5.230000019073486 -65.97699737548828 L -5.230000019073486 -65.53600311279297 L -5.230000019073486 -52.018001556396484 L 0 -52.018001556396484 L 8.729999542236328 -52.018001556396484 M 8.729999542236328 -32.768001556396484 L 8.729999542236328 -46.229000091552734 L 0 -46.229000091552734 L -5.230000019073486 -46.229000091552734 L -5.230000019073486 -44.52000045776367 L -5.230000019073486 -43.72700119018555 L -5.230000019073486 -32.768001556396484 L -5.230000019073486 -32.26900100708008 L 0 -32.26900100708008 L 8.729999542236328 -32.26900100708008 L 8.729999542236328 -32.768001556396484 M 48.231998443603516 -47.01900100708008 L 48.231998443603516 -60.97800064086914 L 34.27199935913086 -60.97800064086914 L 34.27199935913086 -47.01900100708008 L 48.231998443603516 -47.01900100708008 M 48.231998443603516 -66.76699829101562 L 48.231998443603516 -80.72699737548828 L 34.27199935913086 -80.72699737548828 L 34.27199935913086 -66.76699829101562 L 48.231998443603516 -66.76699829101562 M 48.231998443603516 -7.519999980926514 L 48.231998443603516 -21.479999542236328 L 34.27199935913086 -21.479999542236328 L 34.27199935913086 -7.519999980926514 L 48.231998443603516 -7.519999980926514 M -4.517000198364258 69.51899719238281 L -18.476999282836914 69.51899719238281 L -18.476999282836914 83.47799682617188 L -4.517000198364258 83.47799682617188 L -4.517000198364258 69.51899719238281 M 40.77199935913086 89.26799774169922 L 40.77199935913086 98.22699737548828 L 54.731998443603516 98.22699737548828 L 54.731998443603516 89.26799774169922 L 54.731998443603516 84.26699829101562 L 40.77199935913086 84.26699829101562 L 40.77199935913086 89.26799774169922 M 14.520999908447266 -9.769000053405762 L 28.479999542236328 -9.769000053405762 L 28.479999542236328 -23.729000091552734 L 14.520999908447266 -23.729000091552734 L 14.520999908447266 -9.769000053405762 M -30.76799964904785 -78.22699737548828 L -32.768001556396484 -78.22699737548828 L -44.72800064086914 -78.22699737548828 L -44.72800064086914 -65.53600311279297 L -44.72800064086914 -64.26699829101562 L -32.768001556396484 -64.26699829101562 L -30.76799964904785 -64.26699829101562 L -30.76799964904785 -65.53600311279297 L -30.76799964904785 -65.97699737548828 L -30.76799964904785 -69.26799774169922 L -30.76799964904785 -78.22699737548828 M 40.77199935913086 78.47899627685547 L 54.731998443603516 78.47899627685547 L 54.731998443603516 65.53600311279297 L 54.731998443603516 64.5199966430664 L 40.77199935913086 64.5199966430664 L 40.77199935913086 65.53600311279297 L 40.77199935913086 78.47899627685547 M 60.520999908447266 84.26699829101562 L 60.520999908447266 89.26799774169922 L 60.520999908447266 98.22699737548828 L 65.53600311279297 98.22699737548828 L 74.4800033569336 98.22699737548828 L 74.4800033569336 84.26699829101562 L 65.53600311279297 84.26699829101562 L 60.520999908447266 84.26699829101562 M 74.4800033569336 78.47899627685547 L 74.4800033569336 65.53600311279297 L 74.4800033569336 64.5199966430664 L 65.53600311279297 64.5199966430664 L 60.520999908447266 64.5199966430664 L 60.520999908447266 65.53600311279297 L 60.520999908447266 78.47899627685547 L 65.53600311279297 78.47899627685547 L 74.4800033569336 78.47899627685547 M -56.91699981689453 -78.22699737548828 L -64.47599792480469 -78.22699737548828 L -64.47599792480469 -70.66799926757812 L -64.47599792480469 -65.53600311279297 L -64.47599792480469 -64.26699829101562 L -50.516998291015625 -64.26699829101562 L -50.516998291015625 -65.53600311279297 L -50.516998291015625 -78.22699737548828 L -56.91699981689453 -78.22699737548828 M -24.97800064086914 -83.22799682617188 L -24.97800064086914 -69.26799774169922 L -11.019000053405762 -69.26799774169922 L -11.019000053405762 -83.22799682617188 L -24.97800064086914 -83.22799682617188 M -11.019000053405762 -43.72700119018555 L -24.97800064086914 -43.72700119018555 L -24.97800064086914 -32.768001556396484 L -24.97800064086914 -29.767000198364258 L -11.019000053405762 -29.767000198364258 L -11.019000053405762 -32.768001556396484 L -11.019000053405762 -43.72700119018555 M 21.023000717163086 63.72700119018555 L 32.768001556396484 63.72700119018555 L 34.981998443603516 63.72700119018555 L 34.981998443603516 49.766998291015625 L 32.768001556396484 49.766998291015625 L 21.023000717163086 49.766998291015625 L 21.023000717163086 52.26900100708008 L 21.023000717163086 63.72700119018555 M -30.76799964904785 -38.729000091552734 L -32.768001556396484 -38.729000091552734 L -44.72800064086914 -38.729000091552734 L -44.72800064086914 -32.768001556396484 L -44.72800064086914 -24.770000457763672 L -30.76799964904785 -24.770000457763672 L -30.76799964904785 -32.768001556396484 L -30.76799964904785 -38.729000091552734 M 54.731998443603516 44.76900100708008 L 40.77199935913086 44.76900100708008 L 40.77199935913086 58.729000091552734 L 54.731998443603516 58.729000091552734 L 54.731998443603516 44.76900100708008 M 60.520999908447266 58.729000091552734 L 65.53600311279297 58.729000091552734 L 74.4800033569336 58.729000091552734 L 74.4800033569336 49.152000427246094 L 74.4800033569336 44.76900100708008 L 65.53600311279297 44.76900100708008 L 60.520999908447266 44.76900100708008 L 60.520999908447266 58.729000091552734 M -64.47599792480469 -49.152000427246094 L -64.47599792480469 -44.52000045776367 L -50.516998291015625 -44.52000045776367 L -50.516998291015625 -49.152000427246094 L -50.516998291015625 -58.479000091552734 L -64.47599792480469 -58.479000091552734 L -64.47599792480469 -49.152000427246094 z" fill="none" stroke="rgb(0,0,255)" stroke-width="0.01mm" />
</svg>