<?xml version="1.0"?>
<!DOCTYPE svg PUBLIC "-//W3C//DTD SVG 1.1//EN" "http://www.w3.org/Graphics/SVG/1.1/DTD/svg11.dtd">
<svg width="161.925mm" height="116.674138mm" viewBox="0 0 161.925 116.674138" xmlns="http://www.w3.org/2000/svg" version="1.1">
<g id="Bottom_1" transform="translate(-159.410428,1.587444) scale(1,-1)">
<title>Bottom 1</title>
</g>
<g id="Line020" transform="translate(-159.410428,1.587444) scale(1,-1)">
<path id="Line020_nwe0000"  d="M 319.747928 -12.748062 L 314.748446 -7.748326 " stroke="#000000" stroke-width="0.35 px" style="stroke-width:0.35;stroke-miterlimit:4;stroke-dasharray:none;fill:none;fill-rule: evenodd "/>
<title>Line020</title>
</g>
<g id="Line021" transform="translate(-159.410428,1.587444) scale(1,-1)">
<path id="Line021_nwe0000"  d="M 319.747928 -76.49876 L 314.997874 -81.249068 " stroke="#000000" stroke-width="0.35 px" style="stroke-width:0.35;stroke-miterlimit:4;stroke-dasharray:none;fill:none;fill-rule: evenodd "/>
<title>Line021</title>
</g>
<g id="Line022" transform="translate(-159.410428,1.587444) scale(1,-1)">
<path id="Line022_nwe0000"  d="M 319.747928 -12.748062 L 319.747928 -76.49876 " stroke="#000000" stroke-width="0.35 px" style="stroke-width:0.35;stroke-miterlimit:4;stroke-dasharray:none;fill:none;fill-rule: evenodd "/>
<title>Line022</title>
</g>
<g id="Line023" transform="translate(-159.410428,1.587444) scale(1,-1)">
<path id="Line023_nwe0000"  d="M 282.998446 -7.748326 L 314.748446 -7.748326 " stroke="#000000" stroke-width="0.35 px" style="stroke-width:0.35;stroke-miterlimit:4;stroke-dasharray:none;fill:none;fill-rule: evenodd "/>
<title>Line023</title>
</g>
<g id="Line024" transform="translate(-159.410428,1.587444) scale(1,-1)">
<path id="Line024_nwe0000"  d="M 275.249668 -5.6e-05 L 282.998446 -7.748326 " stroke="#000000" stroke-width="0.35 px" style="stroke-width:0.35;stroke-miterlimit:4;stroke-dasharray:none;fill:none;fill-rule: evenodd "/>
<title>Line024</title>
</g>
<g id="Line025" transform="translate(-159.410428,1.587444) scale(1,-1)">
<path id="Line025_nwe0000"  d="M 211.749668 -5.6e-05 L 275.249668 -5.6e-05 " stroke="#000000" stroke-width="0.35 px" style="stroke-width:0.35;stroke-miterlimit:4;stroke-dasharray:none;fill:none;fill-rule: evenodd "/>
<title>Line025</title>
</g>
<g id="Line026" transform="translate(-159.410428,1.587444) scale(1,-1)">
<path id="Line026_nwe0000"  d="M 206.499234 -5.249982 L 211.749668 -5.59999999998e-05 " stroke="#000000" stroke-width="0.35 px" style="stroke-width:0.35;stroke-miterlimit:4;stroke-dasharray:none;fill:none;fill-rule: evenodd "/>
<title>Line026</title>
</g>
<g id="Line027" transform="translate(-159.410428,1.587444) scale(1,-1)">
<path id="Line027_nwe0000"  d="M 160.997928 -10.248194 L 165.998426 -5.249982 " stroke="#000000" stroke-width="0.35 px" style="stroke-width:0.35;stroke-miterlimit:4;stroke-dasharray:none;fill:none;fill-rule: evenodd "/>
<title>Line027</title>
</g>
<g id="Line028" transform="translate(-159.410428,1.587444) scale(1,-1)">
<path id="Line028_nwe0000"  d="M 160.997928 -108.498188 L 165.998426 -113.499194 " stroke="#000000" stroke-width="0.35 px" style="stroke-width:0.35;stroke-miterlimit:4;stroke-dasharray:none;fill:none;fill-rule: evenodd "/>
<title>Line028</title>
</g>
<g id="Line029" transform="translate(-159.410428,1.587444) scale(1,-1)">
<path id="Line029_nwe0000"  d="M 196.247794 -113.499194 L 201.2488 -108.498188 " stroke="#000000" stroke-width="0.35 px" style="stroke-width:0.35;stroke-miterlimit:4;stroke-dasharray:none;fill:none;fill-rule: evenodd "/>
<title>Line029</title>
</g>
<g id="Line030" transform="translate(-159.410428,1.587444) scale(1,-1)">
<path id="Line030_nwe0000"  d="M 201.2488 -99.250302 L 201.2488 -108.498188 " stroke="#000000" stroke-width="0.35 px" style="stroke-width:0.35;stroke-miterlimit:4;stroke-dasharray:none;fill:none;fill-rule: evenodd "/>
<title>Line030</title>
</g>
<g id="Line031" transform="translate(-159.410428,1.587444) scale(1,-1)">
<path id="Line031_nwe0000"  d="M 201.998354 -98.497954 L 201.2488 -99.250302 " stroke="#000000" stroke-width="0.35 px" style="stroke-width:0.35;stroke-miterlimit:4;stroke-dasharray:none;fill:none;fill-rule: evenodd "/>
<title>Line031</title>
</g>
<g id="Line032" transform="translate(-159.410428,1.587444) scale(1,-1)">
<path id="Line032_nwe0000"  d="M 235.746572 -98.497954 L 201.998354 -98.497954 " stroke="#000000" stroke-width="0.35 px" style="stroke-width:0.35;stroke-miterlimit:4;stroke-dasharray:none;fill:none;fill-rule: evenodd "/>
<title>Line032</title>
</g>
<g id="Line033" transform="translate(-159.410428,1.587444) scale(1,-1)">
<path id="Line033_nwe0000"  d="M 240.748848 -93.499996 L 235.746572 -98.497954 " stroke="#000000" stroke-width="0.35 px" style="stroke-width:0.35;stroke-miterlimit:4;stroke-dasharray:none;fill:none;fill-rule: evenodd "/>
<title>Line033</title>
</g>
<g id="Line034" transform="translate(-159.410428,1.587444) scale(1,-1)">
<path id="Line034_nwe0000"  d="M 240.748848 -86.247026 L 240.748848 -93.499996 " stroke="#000000" stroke-width="0.35 px" style="stroke-width:0.35;stroke-miterlimit:4;stroke-dasharray:none;fill:none;fill-rule: evenodd "/>
<title>Line034</title>
</g>
<g id="Line035" transform="translate(-159.410428,1.587444) scale(1,-1)">
<path id="Line035_nwe0000"  d="M 240.748848 -86.247026 L 245.74706 -81.249068 " stroke="#000000" stroke-width="0.35 px" style="stroke-width:0.35;stroke-miterlimit:4;stroke-dasharray:none;fill:none;fill-rule: evenodd "/>
<title>Line035</title>
</g>
<g id="Polyline002" transform="translate(-159.410428,1.587444) scale(1,-1)">
<path id="Polyline002_w0000"  d="M 196.247794 -113.499194 L 165.998426 -113.499194 " stroke="#000000" stroke-width="0.35 px" style="stroke-width:0.35;stroke-miterlimit:4;stroke-dasharray:none;fill:none;fill-rule: evenodd "/>
<title>Polyline002</title>
</g>
<g id="Polyline003" transform="translate(-159.410428,1.587444) scale(1,-1)">
<path id="Polyline003_w0000"  d="M 245.74706 -81.249068 L 314.997874 -81.249068 " stroke="#000000" stroke-width="0.35 px" style="stroke-width:0.35;stroke-miterlimit:4;stroke-dasharray:none;fill:none;fill-rule: evenodd "/>
<title>Polyline003</title>
</g>
<g id="Polyline004" transform="translate(-159.410428,1.587444) scale(1,-1)">
<path id="Polyline004_w0000"  d="M 165.998426 -5.249982 L 206.499234 -5.249982 " stroke="#000000" stroke-width="0.35 px" style="stroke-width:0.35;stroke-miterlimit:4;stroke-dasharray:none;fill:none;fill-rule: evenodd "/>
<title>Polyline004</title>
</g>
<g id="Polyline005" transform="translate(-159.410428,1.587444) scale(1,-1)">
<path id="Polyline005_w0000"  d="M 160.997928 -10.248194 L 160.997928 -108.498188 " stroke="#000000" stroke-width="0.35 px" style="stroke-width:0.35;stroke-miterlimit:4;stroke-dasharray:none;fill:none;fill-rule: evenodd "/>
<title>Polyline005</title>
</g>
<g id="Circle004" transform="translate(-159.410428,1.587444) scale(1,-1)">
<circle cx="314.748" cy="-12.748" r="1.75" stroke="#000000" stroke-width="0.35 px" style="stroke-width:0.35;stroke-miterlimit:4;stroke-dasharray:none;fill:none"/>
<title>Circle004</title>
</g>
<g id="Circle005" transform="translate(-159.410428,1.587444) scale(1,-1)">
<circle cx="314.748" cy="-76.509" r="1.75" stroke="#000000" stroke-width="0.35 px" style="stroke-width:0.35;stroke-miterlimit:4;stroke-dasharray:none;fill:none"/>
<title>Circle005</title>
</g>
<g id="Circle006" transform="translate(-159.410428,1.587444) scale(1,-1)">
<circle cx="165.998" cy="-108.5" r="1.75" stroke="#000000" stroke-width="0.35 px" style="stroke-width:0.35;stroke-miterlimit:4;stroke-dasharray:none;fill:none"/>
<title>Circle006</title>
</g>
<g id="Circle007" transform="translate(-159.410428,1.587444) scale(1,-1)">
<circle cx="165.998" cy="-10.25" r="1.75" stroke="#000000" stroke-width="0.35 px" style="stroke-width:0.35;stroke-miterlimit:4;stroke-dasharray:none;fill:none"/>
<title>Circle007</title>
</g>
</svg>