<?xml version="1.0"?>
<!DOCTYPE svg PUBLIC "-//W3C//DTD SVG 1.1//EN" "http://www.w3.org/Graphics/SVG/1.1/DTD/svg11.dtd">
<svg width="161.924944587mm" height="116.674136913mm" viewBox="0 0 161.924944587 116.674136913" xmlns="http://www.w3.org/2000/svg" version="1.1">
<g id="Line013" transform="translate(1.587427,1.587443) scale(1,-1)">
<path id="Line013_w0000"  d="M 158.750017674 -10.2481940141 L 158.749193672 -108.498188291 " stroke="#000000" stroke-width="0.35 px" style="stroke-width:0.35;stroke-miterlimit:4;stroke-dasharray:none;fill:none;fill-rule: evenodd "/>
<title>Line013</title>
</g>
<g id="Line012" transform="translate(1.587427,1.587443) scale(1,-1)">
<path id="Line012_w0000"  d="M 113.248766 -5.249982 L 153.749573004 -5.24998201823 " stroke="#000000" stroke-width="0.35 px" style="stroke-width:0.35;stroke-miterlimit:4;stroke-dasharray:none;fill:none;fill-rule: evenodd "/>
<title>Line012</title>
</g>
<g id="Line003" transform="translate(1.587427,1.587443) scale(1,-1)">
<path id="Line003_nwe0000"  d="M 123.500206 -113.499194 L 118.4992 -108.498188 " stroke="#000000" stroke-width="0.35 px" style="stroke-width:0.35;stroke-miterlimit:4;stroke-dasharray:none;fill:none;fill-rule: evenodd "/>
<title>Line003</title>
</g>
<g id="Line011" transform="translate(1.587427,1.587443) scale(1,-1)">
<path id="Line011_nwe0000"  d="M 78.999152 -86.247026 L 74.00094 -81.249068 " stroke="#000000" stroke-width="0.35 px" style="stroke-width:0.35;stroke-miterlimit:4;stroke-dasharray:none;fill:none;fill-rule: evenodd "/>
<title>Line011</title>
</g>
<g id="Line002" transform="translate(1.587427,1.587443) scale(1,-1)">
<path id="Line002_nwe0000"  d="M 107.998332 -5.6e-05 L 44.498332 -5.6e-05 " stroke="#000000" stroke-width="0.35 px" style="stroke-width:0.35;stroke-miterlimit:4;stroke-dasharray:none;fill:none;fill-rule: evenodd "/>
<title>Line002</title>
</g>
<g id="Line" transform="translate(1.587427,1.587443) scale(1,-1)">
<path id="Line_nwe0000"  d="M 44.498332 -5.6e-05 L 36.749554 -7.748326 " stroke="#000000" stroke-width="0.35 px" style="stroke-width:0.35;stroke-miterlimit:4;stroke-dasharray:none;fill:none;fill-rule: evenodd "/>
<title>Line</title>
</g>
<g id="Line004" transform="translate(1.587427,1.587443) scale(1,-1)">
<path id="Line004_nwe0000"  d="M 118.4992 -99.250302 L 118.4992 -108.498188 " stroke="#000000" stroke-width="0.35 px" style="stroke-width:0.35;stroke-miterlimit:4;stroke-dasharray:none;fill:none;fill-rule: evenodd "/>
<title>Line004</title>
</g>
<g id="Line008" transform="translate(1.587427,1.587443) scale(1,-1)">
<path id="Line008_nwe0000"  d="M 84.001428 -98.497954 L 117.749646 -98.497954 " stroke="#000000" stroke-width="0.35 px" style="stroke-width:0.35;stroke-miterlimit:4;stroke-dasharray:none;fill:none;fill-rule: evenodd "/>
<title>Line008</title>
</g>
<g id="Line009" transform="translate(1.587427,1.587443) scale(1,-1)">
<path id="Line009_nwe0000"  d="M 78.999152 -93.499996 L 84.001428 -98.497954 " stroke="#000000" stroke-width="0.35 px" style="stroke-width:0.35;stroke-miterlimit:4;stroke-dasharray:none;fill:none;fill-rule: evenodd "/>
<title>Line009</title>
</g>
<g id="Line010" transform="translate(1.587427,1.587443) scale(1,-1)">
<path id="Line010_nwe0000"  d="M 78.999152 -86.247026 L 78.999152 -93.499996 " stroke="#000000" stroke-width="0.35 px" style="stroke-width:0.35;stroke-miterlimit:4;stroke-dasharray:none;fill:none;fill-rule: evenodd "/>
<title>Line010</title>
</g>
<g id="Polyline005" transform="translate(1.587427,1.587443) scale(1,-1)">
<path id="Polyline005_w0000"  d="M 123.500206 -113.499194 L 153.749574 -113.499194 " stroke="#000000" stroke-width="0.35 px" style="stroke-width:0.35;stroke-miterlimit:4;stroke-dasharray:none;fill:none;fill-rule: evenodd "/>
<title>Polyline005</title>
</g>
<g id="Polyline006" transform="translate(1.587427,1.587443) scale(1,-1)">
<path id="Polyline006_w0000"  d="M 74.00094 -81.249068 L 4.750126 -81.249068 " stroke="#000000" stroke-width="0.35 px" style="stroke-width:0.35;stroke-miterlimit:4;stroke-dasharray:none;fill:none;fill-rule: evenodd "/>
<title>Polyline006</title>
</g>
<g id="Arc" transform="translate(1.587427,1.587443) scale(1,-1)">
<path id="Arc_nwe0000"  d="M 158.750017674 -10.2481940141 A 5.000018 5.000018 0 0 1 153.749573004 -5.24998201823 " stroke="#000000" stroke-width="0.35 px" style="stroke-width:0.35;stroke-miterlimit:4;stroke-dasharray:none;fill:none;fill-rule: evenodd "/>
<title>Arc</title>
</g>
<g id="Arc001" transform="translate(1.587427,1.587443) scale(1,-1)">
<path id="Arc001_nwe0000"  d="M 153.749574034 -113.499193982 A 4.999194 4.999194 0 0 1 158.749193672 -108.498188291 " stroke="#000000" stroke-width="0.35 px" style="stroke-width:0.35;stroke-miterlimit:4;stroke-dasharray:none;fill:none;fill-rule: evenodd "/>
<title>Arc001</title>
</g>
<g id="Arc002" transform="translate(1.587427,1.587443) scale(1,-1)">
<path id="Arc002_nwe0000"  d="M 4.99955398753 -7.74807201989 A 4.999928 4.999928 0 0 1 7.20000000003e-05 -12.748 " stroke="#000000" stroke-width="0.35 px" style="stroke-width:0.35;stroke-miterlimit:4;stroke-dasharray:none;fill:none;fill-rule: evenodd "/>
<title>Arc002</title>
</g>
<g id="Arc003" transform="translate(1.587427,1.587443) scale(1,-1)">
<path id="Arc003_nwe0000"  d="M 7.20016980118e-05 -76.4987599909 A 4.750054 4.750054 0 0 1 4.750126 -81.248941 " stroke="#000000" stroke-width="0.35 px" style="stroke-width:0.35;stroke-miterlimit:4;stroke-dasharray:none;fill:none;fill-rule: evenodd "/>
<title>Arc003</title>
</g>
<g id="Circle" transform="translate(1.587427,1.587443) scale(1,-1)">
<circle cx="5.0" cy="-12.748" r="1.75" stroke="#000000" stroke-width="0.35 px" style="stroke-width:0.35;stroke-miterlimit:4;stroke-dasharray:none;fill:none"/>
<title>Circle</title>
</g>
<g id="Circle001" transform="translate(1.587427,1.587443) scale(1,-1)">
<circle cx="5.0" cy="-76.509" r="1.75" stroke="#000000" stroke-width="0.35 px" style="stroke-width:0.35;stroke-miterlimit:4;stroke-dasharray:none;fill:none"/>
<title>Circle001</title>
</g>
<g id="Circle002" transform="translate(1.587427,1.587443) scale(1,-1)">
<circle cx="153.75" cy="-108.5" r="1.75" stroke="#000000" stroke-width="0.35 px" style="stroke-width:0.35;stroke-miterlimit:4;stroke-dasharray:none;fill:none"/>
<title>Circle002</title>
</g>
<g id="Circle003" transform="translate(1.587427,1.587443) scale(1,-1)">
<circle cx="153.75" cy="-10.25" r="1.75" stroke="#000000" stroke-width="0.35 px" style="stroke-width:0.35;stroke-miterlimit:4;stroke-dasharray:none;fill:none"/>
<title>Circle003</title>
</g>
<g id="Line005" transform="translate(1.587427,1.587443) scale(1,-1)">
<path id="Line005_nwe0000"  d="M 117.749646 -98.497954 L 118.4992 -99.250302 " stroke="#000000" stroke-width="0.35 px" style="stroke-width:0.35;stroke-miterlimit:4;stroke-dasharray:none;fill:none;fill-rule: evenodd "/>
<title>Line005</title>
</g>
<g id="Line006" transform="translate(1.587427,1.587443) scale(1,-1)">
<path id="Line006_nwe0000"  d="M 7.2e-05 -12.748062 L 7.2e-05 -76.49876 " stroke="#000000" stroke-width="0.35 px" style="stroke-width:0.35;stroke-miterlimit:4;stroke-dasharray:none;fill:none;fill-rule: evenodd "/>
<title>Line006</title>
</g>
<g id="Line007" transform="translate(1.587427,1.587443) scale(1,-1)">
<path id="Line007_nwe0000"  d="M 36.749554 -7.748326 L 4.999554 -7.748326 " stroke="#000000" stroke-width="0.35 px" style="stroke-width:0.35;stroke-miterlimit:4;stroke-dasharray:none;fill:none;fill-rule: evenodd "/>
<title>Line007</title>
</g>
<g id="Line001" transform="translate(1.587427,1.587443) scale(1,-1)">
<path id="Line001_nwe0000"  d="M 113.248766 -5.249982 L 107.998332 -5.59999999998e-05 " stroke="#000000" stroke-width="0.35 px" style="stroke-width:0.35;stroke-miterlimit:4;stroke-dasharray:none;fill:none;fill-rule: evenodd "/>
<title>Line001</title>
</g>
<g id="Top_1" transform="translate(1.587427,1.587443) scale(1,-1)">
<title>Bottom</title>
</g>
</svg>