<?xml version="1.0" encoding="UTF-8" standalone="no"?>
<svg
   xmlns:dc="http://purl.org/dc/elements/1.1/"
   xmlns:cc="http://creativecommons.org/ns#"
   xmlns:rdf="http://www.w3.org/1999/02/22-rdf-syntax-ns#"
   xmlns:svg="http://www.w3.org/2000/svg"
   xmlns="http://www.w3.org/2000/svg"
   xmlns:sodipodi="http://sodipodi.sourceforge.net/DTD/sodipodi-0.dtd"
   xmlns:inkscape="http://www.inkscape.org/namespaces/inkscape"
   width="172.00399780273438mm"
   height="127.00399780273438mm"
   viewBox="-92.00199890136719 -58.50199890136719 172.00399780273438 127.00399780273438"
   version="1.1"
   id="svg10187"
   sodipodi:docname="top-right.svg"
   inkscape:version="0.92.2 2405546, 2018-03-11">
  <metadata
     id="metadata10193">
    <rdf:RDF>
      <cc:Work
         rdf:about="">
        <dc:format>image/svg+xml</dc:format>
        <dc:type
           rdf:resource="http://purl.org/dc/dcmitype/StillImage" />
      </cc:Work>
    </rdf:RDF>
  </metadata>
  <defs
     id="defs10191" />
  <sodipodi:namedview
     pagecolor="#ffffff"
     bordercolor="#666666"
     borderopacity="1"
     objecttolerance="10"
     gridtolerance="10"
     guidetolerance="10"
     inkscape:pageopacity="0"
     inkscape:pageshadow="2"
     inkscape:window-width="1840"
     inkscape:window-height="1000"
     id="namedview10189"
     showgrid="false"
     inkscape:zoom="1.1312075"
     inkscape:cx="326.1313"
     inkscape:cy="221.79326"
     inkscape:window-x="40"
     inkscape:window-y="40"
     inkscape:window-maximized="0"
     inkscape:current-layer="svg10187" />
  <title
     id="title10181">svgOutput</title>
  <desc
     id="desc10183">made with tinkercad</desc>
  <path
     d="m -85.143997,67.501999 -1.966004,-1.965996 -1.286689,-1.28669 -1.174195,-1.174194 L -90.112,62.534 -91.001999,61.644001 V 57.344002 49.152 32.768002 0 v -32.768002 -8.191997 -3.683003 l 0.889999,-0.89022 2.781983,-2.782681 0.0621,-0.06212 0.457504,-0.457573 0.316407,-0.316406 2.350006,-2.349999 h 2.223999 16.383995 22.176002 l 0.108002,-0.109001 0.108997,0.109001 6,-6 h 4.375 H 0 h 23 0.0012 9.141777 l 0.625,0.625 7.375,7.375 9.99e-4,-9.99e-4 9.99e-4,9.99e-4 h 25.391003 6.607994 l 0.349953,0.349999 1.234047,1.23423 1.889755,1.89003 0.654823,0.654914 2.729424,2.729824 v 1.683003 8.191997 V 0 16.384001 24.576 28.643 l -2.206497,2.206501 -1.918503,1.918501 -2.733002,2.732997 H 65.536003 63.481998 49.521999 43.733002 29.773001 3.003 L 0,38.504002 v 6.139 l -7.8569999,7.857997 H -29.476999 -30.858 -35.855999 l -3.145,3.145001 v 4.998001 l -4.892003,4.892002 -1.965999,1.965996 H -65.536003 -85.143997 M 74.532997,31.419001 74.919998,31.032 l 0.249001,-0.487999 0.086,-0.541001 -0.086,-0.541 -0.249001,-0.487999 -0.387001,-0.387001 -0.487999,-0.247999 -0.317001,-0.05039 -0.223999,-0.03561 -0.540001,0.086 -0.487999,0.247999 -0.085,0.085 -0.302002,0.302 -0.249001,0.487999 -0.086,0.541 0.086,0.541001 0.249001,0.487999 0.387001,0.387001 0.487999,0.247999 0.540001,0.086 0.223999,-0.03561 0.317001,-0.05039 0.487999,-0.247999 M 4.2340002,-1.729 H 0 -9.7259998 V 0 0.773 12.231 H 0 4.2340002 V 5.7709999 0.773 0 -0.02 -1.729 m 0,-14.655001 V -18.979 -19.768 -21.478001 H 0 -9.7259998 V -7.5180001 H 0 4.2340002 V -13.98 -16.384001 m 39.4990018,-17.344 h -10.965 -2.995001 v 0.959999 11.290001 1.710001 h 2.995001 10.965 v -13.000002 -0.959999 M -15.517,34.731998 V 32.768002 20.771999 h -13.959999 v 11.996003 1.963996 H -15.517 M 63.481998,14.733 V 5.7709999 H 49.521999 V 14.733 19.731001 H 63.481998 V 14.733 M -9.7259998,-27.768999 H 0 4.2340002 v -4.999003 -0.959999 -5.000999 -3 H 0 -9.7259998 v 8.960998 4.999003 M -86.666,60.976002 l -0.236756,0.463997 -0.01225,0.024 -0.086,0.540001 0.086,0.540996 0.249001,0.488003 0.387001,0.386997 0.487999,0.249001 0.541,0.085 0.540001,-0.085 0.487999,-0.249001 0.387001,-0.386997 0.249,-0.488003 0.086,-0.540996 -0.086,-0.540001 -0.01224,-0.024 -0.236755,-0.463997 L -84.222,60.589001 -84.709999,60.34 -85.25,60.254002 -85.791,60.34 -86.278999,60.589001 -86.666,60.976002 M 74.532997,-42.334 l 0.387001,-0.388 0.249001,-0.487999 0.086,-0.540001 -0.086,-0.541 -0.249001,-0.487999 -0.387001,-0.387001 -0.487999,-0.249001 -0.317001,-0.04981 -0.223999,-0.03519 -0.540001,0.085 -0.487999,0.249001 -0.110001,0.11 -0.277,0.277001 -0.249001,0.487999 -0.086,0.541 0.086,0.540001 0.249001,0.487999 0.387001,0.388 0.487999,0.248001 0.540001,0.086 0.223999,-0.03561 0.317001,-0.05039 0.487999,-0.248001 M -15.517,14.733 V 0.773 h -13.959999 v 13.96 H -15.517 m -71.398001,-61.524 -0.086,0.541 0.086,0.540001 0.249001,0.487999 0.166,0.166 0.221001,0.221001 0.263,0.134193 0.224999,0.114807 0.541,0.086 0.540001,-0.086 0.487999,-0.249 0.221001,-0.221001 0.166,-0.166 0.249,-0.487999 0.086,-0.540001 -0.086,-0.541 -0.249,-0.487999 L -84.222,-47.666 -84.709999,-47.915001 -85.25,-48 l -0.541,0.085 -0.224999,0.114807 -0.263,0.134194 -0.387001,0.387001 -0.249001,0.487999 M -49.229,3.2720001 V 14.733 17.232 h 13.959999 V 14.733 3.2720001 H -49.229 m 0,29.4960019 v 4.212997 h 13.959999 V 32.768002 23.021 H -49.229 v 9.747002 m 13.959999,-65.536004 v -3.459999 H -49.229 v 3.459999 10.500002 h 13.959999 v -10.500002 m 5.792002,27.7490019 H -15.517 V -18.979 H -29.476999 V -5.0190001 M -68.977997,38.021999 V 49.152 51.981998 h 3.441994 10.518001 V 38.021999 h -10.518001 -3.441994 M -15.517,-32.768002 V -38.729 h -13.959999 v 5.960998 7.999003 H -15.517 v -7.999003 M -35.269001,-16.479 H -49.229 v 13.9599999 h 13.959999 V -16.479 M 23.983,14.733 V 5.7709999 0.773 H 10.023 V 5.7709999 14.733 h 13.748 0.212 m 19.750002,0 V 5.7709999 H 29.773001 V 14.733 19.731001 H 43.733002 V 14.733 M 10.023,-13.98 v 8.9609999 h 13.96 V -13.98 -16.384001 -18.979 h -13.96 v 2.594999 2.404001 m 19.750001,0 v 13.96 h 2.995001 10.965 v -13.96 h -10.965 -2.995001 M 10.023,-24.768999 h 13.96 v -7.999003 -0.959999 -5.000999 h -13.96 v 5.000999 0.959999 7.999003 M 49.521999,-19.768 h 13.959999 v -13.000002 -0.959999 H 55.917 49.521999 v 0.959999 13.000002 m 13.959999,5.788 H 49.521999 v 13.96 h 13.959999 v -13.96"
     id="path10185"
     inkscape:connector-curvature="0"
     style="fill:none;stroke:#0000ff;stroke-width:0.01mm"
     sodipodi:nodetypes="ccccccccccccccccccccccccccccccccccccccccccccccccccccccccccccccccccccccccccccccccccccccccccccccccccccccccccccccccccccccccccccccccccccccccccccccccccccccccccccccccccccccccccccccccccccccccccccccccccccccccccccccccccccccccccccccccccccccccccccccccccccccccccccccccccccccccccccccccccccccccccccccccccccccccccccccccccccccccccccccccccccccc" />
</svg>
