<?xml version="1.0" encoding="UTF-8" standalone="no"?>
<svg
   xmlns:dc="http://purl.org/dc/elements/1.1/"
   xmlns:cc="http://creativecommons.org/ns#"
   xmlns:rdf="http://www.w3.org/1999/02/22-rdf-syntax-ns#"
   xmlns:svg="http://www.w3.org/2000/svg"
   xmlns="http://www.w3.org/2000/svg"
   xmlns:sodipodi="http://sodipodi.sourceforge.net/DTD/sodipodi-0.dtd"
   xmlns:inkscape="http://www.inkscape.org/namespaces/inkscape"
   width="172.00399780273438mm"
   height="127.00399780273438mm"
   viewBox="-87.00199890136719 -68.50199890136719 172.00399780273438 127.00399780273438"
   version="1.1"
   id="svg6220"
   sodipodi:docname="top-left.svg"
   inkscape:version="0.92.2 2405546, 2018-03-11">
  <metadata
     id="metadata6226">
    <rdf:RDF>
      <cc:Work
         rdf:about="">
        <dc:format>image/svg+xml</dc:format>
        <dc:type
           rdf:resource="http://purl.org/dc/dcmitype/StillImage" />
      </cc:Work>
    </rdf:RDF>
  </metadata>
  <defs
     id="defs6224" />
  <sodipodi:namedview
     pagecolor="#ffffff"
     bordercolor="#666666"
     borderopacity="1"
     objecttolerance="10"
     gridtolerance="10"
     guidetolerance="10"
     inkscape:pageopacity="0"
     inkscape:pageshadow="2"
     inkscape:window-width="1840"
     inkscape:window-height="1000"
     id="namedview6222"
     showgrid="false"
     inkscape:zoom="1.1696356"
     inkscape:cx="469.4607"
     inkscape:cy="251.70863"
     inkscape:window-x="40"
     inkscape:window-y="40"
     inkscape:window-maximized="0"
     inkscape:current-layer="svg6220" />
  <title
     id="title6214">svgOutput</title>
  <desc
     id="desc6216">made with tinkercad</desc>
  <path
     d="m -12.003,25.500999 h -18.976 -34.557003 -11.711998 -1.895996 l -1.354004,-1.354 -0.004,-0.004 -1.749,-1.749001 -3.751,-3.750999 v -6.283778 -65.002513 l 3.751,-3.751267 1.749,-1.749123 0.004,-0.004 1.354225,-1.354317 h 0.393776 1.501999 3.5 3.992851 0.0091 3.76226 0.447739 18.391003 l 9.99e-4,-9.99e-4 9.99e-4,9.99e-4 1.993714,-1.993713 0.0023,-0.0023 0.003,-0.003 2.143002,-2.143002 3.857997,-3.857998 H 13.859575 30.143 l 3.857999,3.857998 2.142003,2.142002 0.108547,-0.108543 0.108532,0.108543 h 2.285919 32.855999 3.5 2.141777 l 9.99e-4,10e-4 0.003,0.003 1.104218,1.104301 1.752998,1.753125 3.997002,3.997284 V -54.5 v 5.001999 66.250002 31.999998 2.892002 l -0.357002,0.356998 -0.001,10e-4 -1.751999,1.752003 -3.748001,3.747997 H 76.503998 71.501999 45.142776 38.859001 l -5.5,-5.5 -9.99e-4,-10e-4 -0.59,-0.59 -0.767003,-0.766998 V 45.646 L 30.358088,44.00309 28.856001,42.500999 H 16.572001 11.143 0.85736364 L 0,41.643578 -7,34.643082 V 32.359001 30.504 v -2 l -3.003,-3.003001 h -2 m 92.007684,26.501 -1.6e-4,-10e-4 -0.08553,-0.536998 -0.249001,-0.487999 -0.387001,-0.387001 -0.487999,-0.249001 -0.541,-0.086 -0.002,3.16e-4 -0.428002,0.06817 -0.11,0.01752 -0.487999,0.249001 -0.387001,0.387001 -0.249001,0.487999 -0.08568,0.537998 -3.2e-4,0.002 0.086,0.540996 0.249001,0.488003 0.387001,0.386997 0.487999,0.249001 0.11,0.01732 0.430001,0.06769 0.541,-0.085 0.487999,-0.249001 0.387001,-0.386997 0.249001,-0.488003 0.086,-0.540996 -3.13e-4,-0.002 M -79.084999,18.974001 -79.160614,18.898382 -79.472,18.587 l -0.487999,-0.247999 -0.538002,-0.08568 -0.002,-3.19e-4 -0.002,3.19e-4 -0.539001,0.08568 -0.487999,0.247999 -0.387001,0.387001 -0.004,0.0078 -0.245003,0.48016 -0.086,0.541 0.086,0.541001 0.245003,0.480159 0.004,0.0078 0.387001,0.387001 0.487999,0.247999 0.539001,0.08568 0.002,3.18e-4 0.002,-3.18e-4 0.538002,-0.08568 0.487999,-0.247999 0.387001,-0.387001 0.249,-0.487999 0.01017,-0.064 0.07583,-0.477 -0.04009,-0.25222 -1.61e-4,-9.99e-4 -0.04575,-0.287781 -0.249,-0.487999 M -30.979,-9.2270002 V 0 2.5455747 4.7329998 h 2.189176 11.770825 V 0 -9.2270002 H -30.979 M 8.5209999,13.021 V 16.752001 24.732 H 22.481001 V 16.752001 13.021 10.772 H 8.5209999 v 2.249 M 2.73,-11.729 H 0 -11.23 V -9.2270002 0 2.2309999 H 0 2.73 V 0 -6.7280002 -11.729 m -83.231999,-43.770687 -0.539001,0.08469 -0.487999,0.249001 -0.387001,0.387001 -0.004,0.0078 -0.245003,0.48016 -0.086,0.541 0.086,0.540001 0.245003,0.48016 0.004,0.0078 0.387001,0.388 0.487999,0.248001 0.539001,0.08568 0.002,3.17e-4 0.002,-3.17e-4 0.538002,-0.08568 0.487999,-0.248001 0.387001,-0.388 0.03327,-0.0652 0.215728,-0.422798 0.0061,-0.038 0.07995,-0.501999 -0.086,-0.541 -0.249,-0.487999 -0.387001,-0.387001 -0.487999,-0.249001 -0.538002,-0.08468 -0.002,-3.17e-4 -0.002,3.13e-4 M 2.73,-31.478001 H 0 -11.23 V -17.518 H 0 2.73 v -13.960001 m 25.543001,-1.290001 v 0.5 h 4.495001 9.465 v -10.359996 -3.600003 h -9.465 -4.495001 v 11.459 2.000999 M 48.021999,28.021999 V 41.981998 H 61.981998 V 28.021999 H 48.021999 M 76.589996,-56.791 l -0.08584,0.540001 -1.6e-4,9.99e-4 0.086,0.540001 0.249001,0.487999 0.387001,0.387001 0.487999,0.249 0.11,0.01752 0.428002,0.06816 0.002,3.17e-4 0.541,-0.086 0.487999,-0.249 0.387001,-0.387001 0.249001,-0.487999 0.086,-0.540001 -0.086,-0.541 -0.249001,-0.487999 -0.387001,-0.387001 -0.487999,-0.249001 -0.541,-0.085 -0.002,3.17e-4 -0.428002,0.06737 -0.11,0.01732 -0.487999,0.249001 -0.387001,0.387001 -0.249001,0.487999 M -65.536003,-4.2290001 h -4.941994 V 0 8.1920004 9.7309999 h 4.941994 9.018001 V 0 -4.2290001 h -9.018001 m 9.018001,-12.1550009 V -23.98 h -9.018001 -4.941994 v 13.96 h 4.941994 9.018001 v -6.364001 m 5.789002,0 V -10.02 h 13.959999 V -16.384001 -23.98 H -50.729 v 7.595999 m 13.959999,12.1550009 H -50.729 V 0 9.7309999 h 13.959999 V 0 -4.2290001 m 0,-25.5389999 v -3.000002 -10.959999 H -50.729 v 10.959999 3.000002 h 13.959999 M -11.23,-37.769001 H 0 2.73 V -51.729 H 0 -11.23 v 3 10.959999 M -70.477997,-29.768 h 4.941994 9.018001 v -3.000002 -10.959999 h -9.018001 -4.941994 v 2.768002 8.191997 3.000002 m 53.458998,14.749 v -2.499 -11.461 H -30.979 v 11.461 2.499 h 13.960001 M 70.141998,4.7909999 V 0 -32.768002 -42.627998 H 65.536003 51.361 V -12.519 -6.7280002 0 4.7909999 h 14.175003 4.605995 m -47.660997,-0.058 V 0 v -6.7280002 -2.499 H 8.5209999 v 2.499 V 0 4.7329998 H 22.481001 m 5.792,8.2880002 v 3.731001 7.979999 2.249001 h 4.495001 9.465 V 16.752001 13.021 h -9.465 -4.495001 m -45.292,-47.790001 v -3 V -48.729 H -30.979 v 10.959999 3 h 13.960001 m 45.292,42.0010009 h 4.495001 9.465 v -2.441 V 0 -6.7280002 h -9.465 -4.495001 V 0 4.7329998 7.2319999 m 0,-19.7509999 h 4.495001 9.465 v -13.96 h -9.465 -4.495001 v 10.094999 3.865001 m -19.7520011,-2.5 H 22.481001 V -16.384001 -28.979 H 8.5209999 V -16.384001 -15.019 M 22.481001,-34.769001 V -48.729 H 8.5209999 v 13.959999 H 22.481001"
     id="path6218"
     inkscape:connector-curvature="0"
     style="fill:none;stroke:#0000ff;stroke-width:0.01mm"
     sodipodi:nodetypes="cccccccccccccccccccccccccccccccccccccccccccccccccccccccccccccccccccccccccccccccccccccccccccccccccccccccccccccccccccccccccccccccccccccccccccccccccccccccccccccccccccccccccccccccccccccccccccccccccccccccccccccccccccccccccccccccccccccccccccccccccccccccccccccccccccccccccccccccccccccccccccccccccccccccccccccccccccccccccccccccccccccccccccccccccccccccccccccccccccccccccccccccccccc" />
</svg>
