0
SECTION
2
HEADER
9
$INSUNITS
70
4
9
$ACADVER
1
AC1014
9
$HANDSEED
5
FFFF
0
ENDSEC
0
SECTION
2
TABLES
0
TABLE
2
VPORT
5
8
100
AcDbSymbolTable
0
ENDTAB
0
TABLE
2
LTYPE
5
5
100
AcDbSymbolTable
0
LTYPE
5
14
100
AcDbSymbolTableRecord
100
AcDbLinetypeTableRecord
2
BYBLOCK
70
0
0
LTYPE
5
15
100
AcDbSymbolTableRecord
100
AcDbLinetypeTableRecord
2
BYLAYER
70
0
0
ENDTAB
0
TABLE
2
LAYER
5
2
100
AcDbSymbolTable
70
2
0
LAYER
5
50
100
AcDbSymbolTableRecord
100
AcDbLayerTableRecord
2
0
70
0
6
CONTINUOUS
0
ENDTAB
0
TABLE
2
STYLE
5
3
100
AcDbSymbolTable
70
1
0
STYLE
5
11
100
AcDbSymbolTableRecord
100
AcDbTextStyleTableRecord
2
STANDARD
70
0
0
ENDTAB
0
TABLE
2
VIEW
5
6
100
AcDbSymbolTable
70
0
0
ENDTAB
0
TABLE
2
UCS
5
7
100
AcDbSymbolTable
70
0
0
ENDTAB
0
TABLE
2
APPID
5
9
100
AcDbSymbolTable
70
2
0
APPID
5
12
100
AcDbSymbolTableRecord
100
AcDbRegAppTableRecord
2
ACAD
70
0
0
ENDTAB
0
TABLE
2
DIMSTYLE
5
A
100
AcDbSymbolTable
70
1
0
ENDTAB
0
TABLE
2
BLOCK_RECORD
5
1
100
AcDbSymbolTable
70
1
0
BLOCK_RECORD
5
1F
100
AcDbSymbolTableRecord
100
AcDbBlockTableRecord
2
*MODEL_SPACE
0
BLOCK_RECORD
5
1B
100
AcDbSymbolTableRecord
100
AcDbBlockTableRecord
2
*PAPER_SPACE
0
ENDTAB
0
ENDSEC
0
SECTION
2
BLOCKS
0
BLOCK
5
20
100
AcDbEntity
100
AcDbBlockBegin
2
*MODEL_SPACE
0
ENDBLK
5
21
100
AcDbEntity
100
AcDbBlockEnd
0
BLOCK
5
1C
100
AcDbEntity
100
AcDbBlockBegin
2
*PAPER_SPACE
0
ENDBLK
5
1D
100
AcDbEntity
100
AcDbBlockEnd
0
ENDSEC
0
SECTION
2
ENTITIES
0
CIRCLE
5
100
100
AcDbEntity
8
0
100
AcDbCircle
10
119.50000000000031
20
5.5000000000003251
30
0
40
1.5000000000000002
210
0
220
0
230
1
0
CIRCLE
5
101
100
AcDbEntity
8
0
100
AcDbCircle
10
28.500000000000007
20
54
30
0
40
1.5000000000000002
210
0
220
0
230
1
0
CIRCLE
5
102
100
AcDbEntity
8
0
100
AcDbCircle
10
47.500001132488201
20
-8.9999999999998419
30
0
40
1.5000000000000002
210
0
220
0
230
1
0
CIRCLE
5
103
100
AcDbEntity
8
0
100
AcDbCircle
10
119.50000000000031
20
62.500000000000327
30
0
40
1.5000000000000002
210
0
220
0
230
1
0
ARC
5
104
100
AcDbEntity
8
0
100
AcDbCircle
10
91.850889359326771
20
-7.4999999999996891
30
0
40
6.9999999999999885
210
0
220
0
230
1
100
AcDbArc
50
270
51
334.62306647484792
0
ARC
5
105
100
AcDbEntity
8
0
100
AcDbCircle
10
104.5000000000003
20
-13.49999999999968
30
0
40
7.0000000000000018
210
0
220
-0
230
1
100
AcDbArc
50
90
51
154.62306647484766
0
LINE
5
106
100
AcDbEntity
8
0
100
AcDbLine
10
104.5000000000003
20
-6.4999999999996794
30
0
11
151.50000000000031
21
-6.4999999999996838
31
0
0
LINE
5
107
100
AcDbEntity
8
0
100
AcDbLine
10
151.50000000000031
20
-6.4999999999996838
30
0
11
151.50000000000031
21
93.500000000000341
31
0
0
LINE
5
108
100
AcDbEntity
8
0
100
AcDbLine
10
151.50000000000031
20
93.500000000000341
30
0
11
114.5000000000003
21
93.500000000000341
31
0
0
ARC
5
109
100
AcDbEntity
8
0
100
AcDbCircle
10
114.50000000000028
20
86.500000000000341
30
0
40
6.9999999999999929
210
0
220
-0
230
1
100
AcDbArc
50
89.999999999999901
51
180
0
LINE
5
110
100
AcDbEntity
8
0
100
AcDbLine
10
107.50000000000028
20
86.500000000000341
30
0
11
107.5000000000003
21
81.500000000000327
31
0
0
ARC
5
111
100
AcDbEntity
8
0
100
AcDbCircle
10
100.50000000000031
20
81.500000000000327
30
0
40
7.0000000000000018
210
-0
220
0
230
1
100
AcDbArc
50
-90
51
0
0
LINE
5
112
100
AcDbEntity
8
0
100
AcDbLine
10
100.50000000000031
20
74.500000000000327
30
0
11
80.500000000000284
21
74.500000000000327
31
0
0
ARC
5
113
100
AcDbEntity
8
0
100
AcDbCircle
10
80.500000000000313
20
67.500000000000313
30
0
40
7.0000000000000107
210
0
220
0
230
1
100
AcDbArc
50
90.000000000000242
51
180
0
LINE
5
114
100
AcDbEntity
8
0
100
AcDbLine
10
73.500000000000284
20
67.500000000000341
30
0
11
73.500000000000284
21
58.500000000000163
31
0
0
ARC
5
115
100
AcDbEntity
8
0
100
AcDbCircle
10
66.500000000000284
20
58.500000000000163
30
0
40
7.0000000000000018
210
-0
220
0
230
1
100
AcDbArc
50
-90
51
0
0
LINE
5
116
100
AcDbEntity
8
0
100
AcDbLine
10
66.500000000000284
20
51.500000000000163
30
0
11
47.49999844282911
21
51.500000000000163
31
0
0
ARC
5
117
100
AcDbEntity
8
0
100
AcDbCircle
10
47.49999844282911
20
58.500000000000163
30
0
40
6.9999999999999982
210
0
220
0
230
1
100
AcDbArc
50
205.37693352515311
51
270
0
ARC
5
118
100
AcDbEntity
8
0
100
AcDbCircle
10
34.850887802155675
20
52.500000000000007
30
0
40
6.9999999999999938
210
0
220
-0
230
1
100
AcDbArc
50
25.37693352515295
51
90.000000000000057
0
LINE
5
119
100
AcDbEntity
8
0
100
AcDbLine
10
34.850887802155668
20
59.5
30
0
11
4.4999999999999929
21
59.500000000000014
31
0
0
ARC
5
120
100
AcDbEntity
8
0
100
AcDbCircle
10
4.4999999999999982
20
52.499999999999993
30
0
40
7.0000000000000195
210
0
220
0
230
1
100
AcDbArc
50
90.000000000000057
51
180
0
LINE
5
121
100
AcDbEntity
8
0
100
AcDbLine
10
-2.5000000000000124
20
52.5
30
0
11
-2.5000000000000022
21
0.49999999999999822
31
0
0
ARC
5
122
100
AcDbEntity
8
0
100
AcDbCircle
10
4.4999999999999982
20
0.50000000000000155
30
0
40
7.0000000000000009
210
0
220
0
230
1
100
AcDbArc
50
180
51
270.00000000000006
0
LINE
5
123
100
AcDbEntity
8
0
100
AcDbLine
10
4.5000000000000027
20
-6.4999999999999964
30
0
11
28.500001132488197
21
-6.5000000000000018
31
0
0
ARC
5
124
100
AcDbEntity
8
0
100
AcDbCircle
10
28.500001132488197
20
-13.5
30
0
40
6.9999999999999973
210
0
220
-0
230
1
100
AcDbArc
50
25.376933525153753
51
90
0
ARC
5
125
100
AcDbEntity
8
0
100
AcDbCircle
10
41.14911177316155
20
-7.4999999999996989
30
0
40
6.9999999999999822
210
0
220
0
230
1
100
AcDbArc
50
205.37693352515365
51
270.00000000000006
0
LINE
5
126
100
AcDbEntity
8
0
100
AcDbLine
10
41.149111773161557
20
-14.49999999999968
30
0
11
91.850889359326771
21
-14.499999999999677
31
0
0
LWPOLYLINE
5
127
100
AcDbEntity
8
0
100
AcDbPolyline
90
4
70
1
43
0.0
10
92.500000000000298
20
46.500000000000327
10
78.500000000000298
20
46.500000000000327
10
78.500000000000298
20
32.500000000000327
10
92.500000000000298
20
32.500000000000327
0
LWPOLYLINE
5
128
100
AcDbEntity
8
0
100
AcDbPolyline
90
4
70
1
43
0.0
10
35.5
20
50.500000000000007
10
21.500000000000004
20
50.500000000000007
10
21.500000000000004
20
36.5
10
35.5
20
36.5
0
LWPOLYLINE
5
129
100
AcDbEntity
8
0
100
AcDbPolyline
90
4
70
1
43
0.0
10
111.50000000000031
20
50.500000000000327
10
97.500000000000298
20
50.500000000000327
10
97.500000000000298
20
36.500000000000327
10
111.50000000000031
20
36.500000000000327
0
LWPOLYLINE
5
130
100
AcDbEntity
8
0
100
AcDbPolyline
90
4
70
1
43
0.0
10
16.5
20
54.5
10
2.5
20
54.5
10
2.5
20
40.500000000000007
10
16.5
20
40.500000000000007
0
LWPOLYLINE
5
131
100
AcDbEntity
8
0
100
AcDbPolyline
90
4
70
1
43
0.0
10
73.500000000000298
20
42.50000000000032
10
59.500000000000298
20
42.50000000000032
10
59.500000000000298
20
28.500000000000327
10
73.500000000000298
20
28.500000000000327
0
LWPOLYLINE
5
132
100
AcDbEntity
8
0
100
AcDbPolyline
90
4
70
1
43
0.0
10
54.500001132488201
20
46.500000000000163
10
40.500001132488201
20
46.500000000000163
10
40.500001132488201
20
32.500000000000156
10
54.500001132488201
20
32.500000000000156
0
LWPOLYLINE
5
133
100
AcDbEntity
8
0
100
AcDbPolyline
90
4
70
1
43
0.0
10
92.500000000000298
20
27.50000000000032
10
78.500000000000298
20
27.50000000000032
10
78.500000000000298
20
13.500000000000323
10
92.500000000000298
20
13.50000000000032
0
LWPOLYLINE
5
134
100
AcDbEntity
8
0
100
AcDbPolyline
90
4
70
1
43
0.0
10
35.5
20
31.500000000000004
10
21.500000000000004
20
31.500000000000004
10
21.500000000000004
20
17.500000000000004
10
35.5
20
17.5
0
LWPOLYLINE
5
135
100
AcDbEntity
8
0
100
AcDbPolyline
90
4
70
1
43
0.0
10
111.50000000000031
20
31.500000000000323
10
97.500000000000298
20
31.500000000000323
10
97.500000000000298
20
17.500000000000323
10
111.50000000000031
20
17.500000000000323
0
LWPOLYLINE
5
136
100
AcDbEntity
8
0
100
AcDbPolyline
90
4
70
1
43
0.0
10
16.5
20
35.5
10
2.5
20
35.5
10
2.5
20
21.500000000000004
10
16.5
20
21.500000000000004
0
LWPOLYLINE
5
137
100
AcDbEntity
8
0
100
AcDbPolyline
90
4
70
1
43
0.0
10
73.500000000000298
20
23.500000000000327
10
59.500000000000298
20
23.500000000000327
10
59.500000000000298
20
9.5000000000003215
10
73.500000000000298
20
9.5000000000003215
0
LWPOLYLINE
5
138
100
AcDbEntity
8
0
100
AcDbPolyline
90
4
70
1
43
0.0
10
54.500001132488201
20
27.50000000000016
10
40.500001132488201
20
27.50000000000016
10
40.500001132488201
20
13.50000000000016
10
54.500001132488201
20
13.50000000000016
0
LWPOLYLINE
5
139
100
AcDbEntity
8
0
100
AcDbPolyline
90
4
70
1
43
0.0
10
111.50000000000031
20
69.500000000000327
10
97.500000000000298
20
69.500000000000327
10
97.500000000000298
20
55.500000000000327
10
111.50000000000031
20
55.500000000000327
0
LWPOLYLINE
5
140
100
AcDbEntity
8
0
100
AcDbPolyline
90
4
70
1
43
0.0
10
92.500000000000298
20
65.500000000000327
10
78.500000000000298
20
65.500000000000327
10
78.500000000000298
20
51.500000000000327
10
92.500000000000298
20
51.500000000000327
0
LWPOLYLINE
5
141
100
AcDbEntity
8
0
100
AcDbPolyline
90
4
70
1
43
0.0
10
112.5000000000003
20
74.500000000000327
10
126.50000000000031
20
74.500000000000327
10
126.50000000000031
20
88.500000000000341
10
112.5000000000003
20
88.500000000000341
0
LWPOLYLINE
5
142
100
AcDbEntity
8
0
100
AcDbPolyline
90
4
70
1
43
0.0
10
54.500001132488201
20
8.5000000000001599
10
40.500001132488201
20
8.5000000000001599
10
40.500001132488201
20
-5.4999999999998401
10
54.500001132488201
20
-5.4999999999998401
0
LWPOLYLINE
5
143
100
AcDbEntity
8
0
100
AcDbPolyline
90
4
70
1
43
0.0
10
73.500000000000298
20
4.5000000000003215
10
59.500000000000298
20
4.5000000000003215
10
59.500000000000298
20
-9.4999999999996803
10
73.500000000000298
20
-9.4999999999996803
0
LWPOLYLINE
5
144
100
AcDbEntity
8
0
100
AcDbPolyline
90
4
70
1
43
0.0
10
16.5
20
16.5
10
2.5
20
16.5
10
2.5
20
2.5
10
16.5
20
2.5
0
LWPOLYLINE
5
145
100
AcDbEntity
8
0
100
AcDbPolyline
90
4
70
1
43
0.0
10
111.50000000000031
20
12.500000000000322
10
97.500000000000298
20
12.500000000000322
10
97.500000000000298
20
-1.4999999999996794
10
111.50000000000031
20
-1.4999999999996794
0
LWPOLYLINE
5
146
100
AcDbEntity
8
0
100
AcDbPolyline
90
4
70
1
43
0.0
10
35.5
20
12.5
10
21.500000000000004
20
12.5
10
21.500000000000004
20
-1.4999999999999991
10
35.5
20
-1.4999999999999991
0
LWPOLYLINE
5
147
100
AcDbEntity
8
0
100
AcDbPolyline
90
4
70
1
43
0.0
10
92.500000000000298
20
8.5000000000003197
10
78.500000000000298
20
8.5000000000003197
10
78.500000000000298
20
-5.4999999999996785
10
92.500000000000298
20
-5.4999999999996794
0
LWPOLYLINE
5
148
100
AcDbEntity
8
0
100
AcDbPolyline
90
23
70
1
43
0.0
10
47.49999844282911
20
49.471187584231096
42
-0.28968986330277774
10
39.342395071332753
20
54.630508964670462
42
0.28968986330277752
10
34.850887802155675
20
57.471187584230933
10
4.5
20
57.471187584230947
42
0.41421356237309509
10
-0.4711875842309563
20
52.499999999999993
10
-0.47118758423094653
20
0.50000000000000033
42
0.41421356237309498
10
4.4999999999999973
20
-4.4711875842309432
10
28.500001132488194
20
-4.471187584230945
42
-0.28968986330277435
10
36.657604503984501
20
-9.6305089646702022
42
0.28968986330277446
10
41.14911177316155
20
-12.471187584230623
10
91.850889359326771
20
-12.47118758423062
42
0.28968986330278146
10
96.342396628503877
20
-9.6305089646700726
42
-0.28968986330278101
10
104.5000000000003
20
-4.471187584230595
10
149.50000000000031
20
-4.4711875842305915
10
149.50000000000031
20
91.471187584231259
10
114.50000000000028
20
91.471187584231259
42
0.41421356237309609
10
109.52881241576935
20
86.500000000000327
10
109.52881241576935
20
81.500000000000355
42
-0.4142135623730962
10
100.50000000000031
20
72.471187584231274
10
80.500000000000313
20
72.471187584231288
42
0.41421356237309503
10
75.528812415769352
20
67.500000000000313
10
75.528812415769352
20
58.500000000000163
42
-0.41421356237309503
10
66.500000000000284
20
49.471187584231103
0
LINE
5
149
100
AcDbEntity
8
0
100
AcDbLine
10
149.50000000000031
20
91.471187584231259
30
0
11
151.50000000000031
21
91.471187584231259
31
0
0
LINE
5
150
100
AcDbEntity
8
0
100
AcDbLine
10
149.50000000000031
20
-4.4711875842305986
30
0
11
151.50000000000031
21
-4.4711875842305986
31
0
0
LWPOLYLINE
5
151
100
AcDbEntity
8
0
100
AcDbPolyline
90
23
70
1
43
0.0
10
114.50000000000028
20
92.456956387154591
10
150.50000000000031
20
92.456956387154591
10
150.50000000000031
20
-5.4569563871539497
10
104.5000000000003
20
-5.4569563871539453
42
0.28968986330278113
10
97.233046532382573
20
-10.052981308780085
42
-0.28968986330278124
10
91.850889359326771
20
-13.456956387153959
10
41.14911177316155
20
-13.456956387153966
42
-0.28968986330277463
10
35.766954600105819
20
-10.052981308780227
42
0.28968986330277424
10
28.500001132488197
20
-5.4569563871542854
10
4.4999999999999991
20
-5.4569563871542837
42
-0.41421356237309492
10
-1.456956387154287
20
0.49999999999999822
10
-1.4569563871543101
20
52.499999999999993
42
-0.4142135623730952
10
4.5000000000000018
20
58.4569563871543
10
34.850887802155675
20
58.456956387154278
42
-0.28968986330277752
10
40.233044975211442
20
55.052981308780474
42
0.28968986330277763
10
47.49999844282911
20
50.456956387154442
10
66.500000000000284
20
50.456956387154442
42
0.4142135623730947
10
74.543043612846006
20
58.500000000000156
10
74.54304361284602
20
67.500000000000327
42
-0.41421356237309465
10
80.500000000000313
20
73.456956387154605
10
100.50000000000031
20
73.456956387154591
42
0.41421356237309631
10
108.54304361284605
20
81.500000000000355
10
108.54304361284603
20
86.500000000000327
42
-0.41421356237309592
0
LINE
5
152
100
AcDbEntity
8
0
100
AcDbLine
10
150.50000000000031
20
-5.4569563871539497
30
0
11
151.50000000000031
21
-5.4569563871539497
31
0
0
LINE
5
153
100
AcDbEntity
8
0
100
AcDbLine
10
150.50000000000031
20
92.456956387154591
30
0
11
151.50000000000031
21
92.456956387154591
31
0
0
LWPOLYLINE
5
154
100
AcDbEntity
8
0
100
AcDbPolyline
90
4
70
1
43
0.0
10
139.9500000000003
20
43.100000000000335
10
139.9500000000003
20
-0.99999999999968558
10
142.95000000000033
20
-0.99999999999968558
10
142.95000000000033
20
43.100000000000335
0
ENDSEC
0
SECTION
2
OBJECTS
0
DICTIONARY
5
C
100
AcDbDictionary
3
ACAD_GROUP
350
D
3
ACAD_MLINESTYLE
350
17
0
DICTIONARY
5
D
100
AcDbDictionary
0
DICTIONARY
5
1A
330
C
100
AcDbDictionary
0
DICTIONARY
5
17
100
AcDbDictionary
0
ENDSEC
0
EOF
