  0
SECTION
  2
HEADER
  9
$ACADVER
  1
AC1009
  9
$INSBASE
 10
0.0
 20
0.0
 30
0.0
  9
$EXTMIN
 10
0.0
 20
0.0
 30
0.0
  9
$EXTMAX
 10
0.0
 20
0.0
 30
0.0
  0
ENDSEC
  0
SECTION
  2
TABLES
  0
TABLE
  2
VPORT
 70
0
  0
ENDTAB
  0
TABLE
  2
LTYPE
 70
1
  0
LTYPE
  2
CONTINUOUS
 70
0
  3
Solid line
 72
65
 73
0
 40
0.0
  0
ENDTAB
  0
TABLE
  2
LAYER
 70
1
  0
LAYER
  2
0
 70
64
 62
7
  6
continuous
  0
ENDTAB
  0
TABLE
  2
STYLE
 70
1
  0
STYLE
  2
STANDARD
 70
0
 40
0
 41
1.0
 50
0.0
 71
0
 42
1
 3
ARIAL.TTF
 4

  0
ENDTAB
  0
TABLE
  2
VIEW
 70
0
  0
ENDTAB
  0
ENDSEC
  0
SECTION
  2
BLOCKS
  0
ENDSEC
  0
SECTION
  2
ENTITIES
  0
LINE
  8
Top Left
 62
0
 10
128.519928
 20
-103.479482
 30
0.0
 11
128.519928
 21
-89.519482
 31
0.0
  0
LINE
  8
Top Left
 62
0
 10
128.519928
 20
-89.519482
 30
0.0
 11
142.479928
 21
-89.519482
 31
0.0
  0
LINE
  8
Top Left
 62
0
 10
49.519832
 20
-66.230128
 30
0.0
 11
49.519832
 21
-52.270128
 31
0.0
  0
LINE
  8
Top Left
 62
0
 10
43.729554
 20
-31.729562
 30
0.0
 11
29.769554
 21
-31.729562
 31
0.0
  0
LINE
  8
Top Left
 62
0
 10
43.729554
 20
-51.478062
 30
0.0
 11
29.769554
 21
-51.478062
 31
0.0
  0
LINE
  8
Top Left
 62
0
 10
43.729554
 20
-57.26834
 30
0.0
 11
43.729554
 21
-71.22834
 31
0.0
  0
LINE
  8
Top Left
 62
0
 10
158.750076
 20
-108.498184
 30
0.0
 11
158.750076
 21
-82.999702
 31
0.0
  0
LINE
  8
Top Left
 62
0
 10
118.4992
 20
-99.250302
 30
0.0
 11
118.4992
 21
-108.498188
 31
0.0
  0
LINE
  8
Top Left
 62
0
 10
117.749646
 20
-98.497954
 30
0.0
 11
118.4992
 21
-99.250302
 31
0.0
  0
LINE
  8
Top Left
 62
0
 10
83.228332
 20
-63.72899
 30
0.0
 11
69.268332
 21
-63.72899
 31
0.0
  0
LINE
  8
Top Left
 62
0
 10
89.019626
 20
-52.270128
 30
0.0
 11
102.979626
 21
-52.270128
 31
0.0
  0
LINE
  8
Top Left
 62
0
 10
83.228332
 20
-9.768562
 30
0.0
 11
83.228332
 21
-23.728562
 31
0.0
  0
LINE
  8
Top Left
 62
0
 10
102.979626
 20
-46.478326
 30
0.0
 11
89.019626
 21
-46.478326
 31
0.0
  0
LINE
  8
Top Left
 62
0
 10
122.731428
 20
-29.229694
 30
0.0
 11
108.771428
 21
-29.229694
 31
0.0
  0
LINE
  8
Top Left
 62
0
 10
102.979626
 20
-52.270128
 30
0.0
 11
102.979626
 21
-66.230128
 31
0.0
  0
LINE
  8
Top Left
 62
0
 10
29.769554
 20
-37.518062
 30
0.0
 11
43.729554
 21
-37.518062
 31
0.0
  0
LINE
  8
Top Left
 62
0
 10
29.769554
 20
-17.769562
 30
0.0
 11
43.729554
 21
-17.769562
 31
0.0
  0
LINE
  8
Top Left
 62
0
 10
49.519832
 20
-26.728556
 30
0.0
 11
49.519832
 21
-12.768556
 31
0.0
  0
LINE
  8
Top Left
 62
0
 10
36.749554
 20
-7.748326
 30
0.0
 11
4.999554
 21
-7.748326
 31
0.0
  0
LINE
  8
Top Left
 62
0
 10
143.250809
 20
-14.869534
 30
0.0
 11
133.250473
 21
-14.869534
 31
0.0
  0
LINE
  8
Top Left
 62
0
 10
102.979626
 20
-72.269326
 30
0.0
 11
102.979626
 21
-86.229326
 31
0.0
  0
LINE
  8
Top Left
 62
0
 10
158.750072
 20
-108.498188
 30
0.0
 11
153.749574
 21
-113.499194
 31
0.0
  0
LINE
  8
Top Left
 62
0
 10
7.2e-05
 20
-12.748062
 30
0.0
 11
7.2e-05
 21
-76.49876
 31
0.0
  0
LINE
  8
Top Left
 62
0
 10
108.771428
 20
-48.978194
 30
0.0
 11
108.771428
 21
-35.018194
 31
0.0
  0
LINE
  8
Top Left
 62
0
 10
7.2e-05
 20
-76.49876
 30
0.0
 11
4.750126
 21
-81.249068
 31
0.0
  0
LINE
  8
Top Left
 62
0
 10
107.998332
 20
-5.6e-05
 30
0.0
 11
44.498332
 21
-5.6e-05
 31
0.0
  0
LINE
  8
Top Left
 62
0
 10
29.769554
 20
-51.478062
 30
0.0
 11
29.769554
 21
-37.518062
 31
0.0
  0
LINE
  8
Top Left
 62
0
 10
108.771428
 20
-15.269694
 30
0.0
 11
122.731428
 21
-15.269694
 31
0.0
  0
LINE
  8
Top Left
 62
0
 10
44.498332
 20
-5.6e-05
 30
0.0
 11
36.749554
 21
-7.748326
 31
0.0
  0
LINE
  8
Top Left
 62
0
 10
89.019626
 20
-32.518326
 30
0.0
 11
102.979626
 21
-32.518326
 31
0.0
  0
LINE
  8
Top Left
 62
0
 10
10.021054
 20
-37.518062
 30
0.0
 11
23.981054
 21
-37.518062
 31
0.0
  0
LINE
  8
Top Left
 62
0
 10
122.731428
 20
-68.729996
 30
0.0
 11
108.771428
 21
-68.729996
 31
0.0
  0
LINE
  8
Top Left
 62
0
 10
108.771428
 20
-29.229694
 30
0.0
 11
108.771428
 21
-15.269694
 31
0.0
  0
LINE
  8
Top Left
 62
0
 10
158.750072
 20
-10.248194
 30
0.0
 11
153.749574
 21
-5.249982
 31
0.0
  0
LINE
  8
Top Left
 62
0
 10
23.981054
 20
-37.518062
 30
0.0
 11
23.981054
 21
-51.478062
 31
0.0
  0
LINE
  8
Top Left
 62
0
 10
108.771428
 20
-88.478496
 30
0.0
 11
108.771428
 21
-74.518496
 31
0.0
  0
LINE
  8
Top Left
 62
0
 10
122.731428
 20
-54.769996
 30
0.0
 11
122.731428
 21
-68.729996
 31
0.0
  0
LINE
  8
Top Left
 62
0
 10
122.731428
 20
-35.018194
 30
0.0
 11
122.731428
 21
-48.978194
 31
0.0
  0
LINE
  8
Top Left
 62
0
 10
142.479928
 20
-89.519482
 30
0.0
 11
142.479928
 21
-103.479482
 31
0.0
  0
LINE
  8
Top Left
 62
0
 10
78.999152
 20
-86.247026
 30
0.0
 11
78.999152
 21
-93.499996
 31
0.0
  0
LINE
  8
Top Left
 62
0
 10
108.771428
 20
-68.729996
 30
0.0
 11
108.771428
 21
-54.769996
 31
0.0
  0
LINE
  8
Top Left
 62
0
 10
89.019626
 20
-72.269326
 30
0.0
 11
102.979626
 21
-72.269326
 31
0.0
  0
LINE
  8
Top Left
 62
0
 10
49.519832
 20
-12.768556
 30
0.0
 11
63.479832
 21
-12.768556
 31
0.0
  0
LINE
  8
Top Left
 62
0
 10
83.228332
 20
-49.76899
 30
0.0
 11
83.228332
 21
-63.72899
 31
0.0
  0
LINE
  8
Top Left
 62
0
 10
150.640234
 20
-66.28894
 30
0.0
 11
131.859472
 21
-66.28894
 31
0.0
  0
LINE
  8
Top Left
 62
0
 10
63.479832
 20
-26.728556
 30
0.0
 11
49.519832
 21
-26.728556
 31
0.0
  0
LINE
  8
Top Left
 62
0
 10
108.771428
 20
-35.018194
 30
0.0
 11
122.731428
 21
-35.018194
 31
0.0
  0
LINE
  8
Top Left
 62
0
 10
122.731428
 20
-48.978194
 30
0.0
 11
108.771428
 21
-48.978194
 31
0.0
  0
LINE
  8
Top Left
 62
0
 10
69.268332
 20
-43.979982
 30
0.0
 11
69.268332
 21
-30.019982
 31
0.0
  0
LINE
  8
Top Left
 62
0
 10
43.729554
 20
-71.22834
 30
0.0
 11
29.769554
 21
-71.22834
 31
0.0
  0
LINE
  8
Top Left
 62
0
 10
113.248764
 20
-5.249982
 30
0.0
 11
133.249176
 21
-5.249982
 31
0.0
  0
LINE
  8
Top Left
 62
0
 10
89.019626
 20
-26.728556
 30
0.0
 11
89.019626
 21
-12.768556
 31
0.0
  0
LINE
  8
Top Left
 62
0
 10
49.519832
 20
-52.270128
 30
0.0
 11
63.479832
 21
-52.270128
 31
0.0
  0
LINE
  8
Top Left
 62
0
 10
102.979626
 20
-86.229326
 30
0.0
 11
89.019626
 21
-86.229326
 31
0.0
  0
LINE
  8
Top Left
 62
0
 10
10.021054
 20
-71.22834
 30
0.0
 11
10.021054
 21
-57.26834
 31
0.0
  0
LINE
  8
Top Left
 62
0
 10
78.999152
 20
-93.499996
 30
0.0
 11
84.001428
 21
-98.497954
 31
0.0
  0
LINE
  8
Top Left
 62
0
 10
29.769554
 20
-71.22834
 30
0.0
 11
29.769554
 21
-57.26834
 31
0.0
  0
LINE
  8
Top Left
 62
0
 10
89.019626
 20
-66.230128
 30
0.0
 11
89.019626
 21
-52.270128
 31
0.0
  0
LINE
  8
Top Left
 62
0
 10
89.019626
 20
-12.768556
 30
0.0
 11
102.979626
 21
-12.768556
 31
0.0
  0
LINE
  8
Top Left
 62
0
 10
63.479832
 20
-32.518326
 30
0.0
 11
63.479832
 21
-46.478326
 31
0.0
  0
LINE
  8
Top Left
 62
0
 10
83.228332
 20
-23.728562
 30
0.0
 11
69.268332
 21
-23.728562
 31
0.0
  0
LINE
  8
Top Left
 62
0
 10
63.479832
 20
-12.768556
 30
0.0
 11
63.479832
 21
-26.728556
 31
0.0
  0
LINE
  8
Top Left
 62
0
 10
102.979626
 20
-32.518326
 30
0.0
 11
102.979626
 21
-46.478326
 31
0.0
  0
LINE
  8
Top Left
 62
0
 10
122.731428
 20
-15.269694
 30
0.0
 11
122.731428
 21
-29.229694
 31
0.0
  0
LINE
  8
Top Left
 62
0
 10
123.500206
 20
-113.499194
 30
0.0
 11
118.4992
 21
-108.498188
 31
0.0
  0
LINE
  8
Top Left
 62
0
 10
108.771428
 20
-74.518496
 30
0.0
 11
122.731428
 21
-74.518496
 31
0.0
  0
LINE
  8
Top Left
 62
0
 10
122.731428
 20
-74.518496
 30
0.0
 11
122.731428
 21
-88.478496
 31
0.0
  0
LINE
  8
Top Left
 62
0
 10
102.979626
 20
-12.768556
 30
0.0
 11
102.979626
 21
-26.728556
 31
0.0
  0
LINE
  8
Top Left
 62
0
 10
143.250809
 20
-5.249982
 30
0.0
 11
153.749573
 21
-5.249982
 31
0.0
  0
LINE
  8
Top Left
 62
0
 10
7.2e-05
 20
-12.748062
 30
0.0
 11
4.999554
 21
-7.748326
 31
0.0
  0
LINE
  8
Top Left
 62
0
 10
142.479928
 20
-103.479482
 30
0.0
 11
128.519928
 21
-103.479482
 31
0.0
  0
LINE
  8
Top Left
 62
0
 10
69.268332
 20
-63.72899
 30
0.0
 11
69.268332
 21
-49.76899
 31
0.0
  0
LINE
  8
Top Left
 62
0
 10
29.769554
 20
-57.26834
 30
0.0
 11
43.729554
 21
-57.26834
 31
0.0
  0
LINE
  8
Top Left
 62
0
 10
10.021054
 20
-57.26834
 30
0.0
 11
23.981054
 21
-57.26834
 31
0.0
  0
LINE
  8
Top Left
 62
0
 10
89.019626
 20
-86.229326
 30
0.0
 11
89.019626
 21
-72.269326
 31
0.0
  0
LINE
  8
Top Left
 62
0
 10
63.479832
 20
-66.230128
 30
0.0
 11
49.519832
 21
-66.230128
 31
0.0
  0
LINE
  8
Top Left
 62
0
 10
113.248766
 20
-5.249982
 30
0.0
 11
107.998332
 21
-5.59999999998e-05
 31
0.0
  0
LINE
  8
Top Left
 62
0
 10
49.519832
 20
-32.518326
 30
0.0
 11
63.479832
 21
-32.518326
 31
0.0
  0
LINE
  8
Top Left
 62
0
 10
102.979626
 20
-66.230128
 30
0.0
 11
89.019626
 21
-66.230128
 31
0.0
  0
LINE
  8
Top Left
 62
0
 10
29.769554
 20
-31.729562
 30
0.0
 11
29.769554
 21
-17.769562
 31
0.0
  0
LINE
  8
Top Left
 62
0
 10
69.268332
 20
-23.728562
 30
0.0
 11
69.268332
 21
-9.768562
 31
0.0
  0
LINE
  8
Top Left
 62
0
 10
84.001428
 20
-98.497954
 30
0.0
 11
117.749646
 21
-98.497954
 31
0.0
  0
LINE
  8
Top Left
 62
0
 10
78.999152
 20
-86.247026
 30
0.0
 11
74.00094
 21
-81.249068
 31
0.0
  0
LINE
  8
Top Left
 62
0
 10
149.131028
 20
-72.998068
 30
0.0
 11
158.750076
 21
-72.998068
 31
0.0
  0
LINE
  8
Top Left
 62
0
 10
10.021054
 20
-17.769562
 30
0.0
 11
10.021054
 21
-31.729563
 31
0.0
  0
LINE
  8
Top Left
 62
0
 10
23.981054
 20
-51.478062
 30
0.0
 11
10.021054
 21
-51.478062
 31
0.0
  0
LINE
  8
Top Left
 62
0
 10
10.021054
 20
-51.478062
 30
0.0
 11
10.021054
 21
-37.518062
 31
0.0
  0
LINE
  8
Top Left
 62
0
 10
23.981054
 20
-57.26834
 30
0.0
 11
23.981054
 21
-71.22834
 31
0.0
  0
LINE
  8
Top Left
 62
0
 10
23.981054
 20
-71.22834
 30
0.0
 11
10.021054
 21
-71.22834
 31
0.0
  0
LINE
  8
Top Left
 62
0
 10
43.729554
 20
-37.518062
 30
0.0
 11
43.729554
 21
-51.478062
 31
0.0
  0
LINE
  8
Top Left
 62
0
 10
43.729554
 20
-17.769562
 30
0.0
 11
43.729554
 21
-31.729562
 31
0.0
  0
LINE
  8
Top Left
 62
0
 10
63.479832
 20
-46.478326
 30
0.0
 11
49.519832
 21
-46.478326
 31
0.0
  0
LINE
  8
Top Left
 62
0
 10
49.519832
 20
-46.478326
 30
0.0
 11
49.519832
 21
-32.518326
 31
0.0
  0
LINE
  8
Top Left
 62
0
 10
63.479832
 20
-52.270128
 30
0.0
 11
63.479832
 21
-66.230128
 31
0.0
  0
LINE
  8
Top Left
 62
0
 10
69.268332
 20
-49.76899
 30
0.0
 11
83.228332
 21
-49.76899
 31
0.0
  0
LINE
  8
Top Left
 62
0
 10
83.228332
 20
-30.019982
 30
0.0
 11
83.228332
 21
-43.979982
 31
0.0
  0
LINE
  8
Top Left
 62
0
 10
83.228332
 20
-43.979982
 30
0.0
 11
69.268332
 21
-43.979982
 31
0.0
  0
LINE
  8
Top Left
 62
0
 10
69.268332
 20
-30.019982
 30
0.0
 11
83.228332
 21
-30.019982
 31
0.0
  0
LINE
  8
Top Left
 62
0
 10
69.268332
 20
-9.768562
 30
0.0
 11
83.228332
 21
-9.768562
 31
0.0
  0
LINE
  8
Top Left
 62
0
 10
102.979626
 20
-26.728556
 30
0.0
 11
89.019626
 21
-26.728556
 31
0.0
  0
LINE
  8
Top Left
 62
0
 10
89.019626
 20
-46.478326
 30
0.0
 11
89.019626
 21
-32.518326
 31
0.0
  0
LINE
  8
Top Left
 62
0
 10
122.731428
 20
-88.478496
 30
0.0
 11
108.771428
 21
-88.478496
 31
0.0
  0
LINE
  8
Top Left
 62
0
 10
108.771428
 20
-54.769996
 30
0.0
 11
122.731428
 21
-54.769996
 31
0.0
  0
LINE
  8
Top Left
 62
0
 10
133.250476
 20
-14.869534
 30
0.0
 11
133.249176
 21
-5.249982
 31
0.0
  0
LINE
  8
Top Left
 62
0
 10
143.250809
 20
-14.869534
 30
0.0
 11
143.250809
 21
-5.249982
 31
0.0
  0
LINE
  8
Top Left
 62
0
 10
158.750076
 20
-10.248194
 30
0.0
 11
158.750076
 21
-72.998068
 31
0.0
  0
POLYLINE
  8
Top Left
 62
0
 70
0
 66
1
 10
0.0
 20
0.0
 30
0.0
  0
VERTEX
  8
Top Left
 10
131.859467
 20
-18.869534
 30
0.0
  0
VERTEX
  8
Top Left
 10
131.859467
 20
-66.28894
 30
0.0
  0
SEQEND
  8
Top Left
  0
POLYLINE
  8
Top Left
 62
0
 70
0
 66
1
 10
0.0
 20
0.0
 30
0.0
  0
VERTEX
  8
Top Left
 10
149.131028
 20
-72.998068
 30
0.0
  0
VERTEX
  8
Top Left
 10
149.131028
 20
-82.9997
 30
0.0
  0
SEQEND
  8
Top Left
  0
POLYLINE
  8
Top Left
 62
0
 70
0
 66
1
 10
0.0
 20
0.0
 30
0.0
  0
VERTEX
  8
Top Left
 10
23.981054
 20
-17.769562
 30
0.0
  0
VERTEX
  8
Top Left
 10
10.021054
 20
-17.769562
 30
0.0
  0
SEQEND
  8
Top Left
  0
POLYLINE
  8
Top Left
 62
0
 70
0
 66
1
 10
0.0
 20
0.0
 30
0.0
  0
VERTEX
  8
Top Left
 10
150.640228
 20
-18.869534
 30
0.0
  0
VERTEX
  8
Top Left
 10
150.640228
 20
-66.28894
 30
0.0
  0
SEQEND
  8
Top Left
  0
POLYLINE
  8
Top Left
 62
0
 70
0
 66
1
 10
0.0
 20
0.0
 30
0.0
  0
VERTEX
  8
Top Left
 10
23.981054
 20
-31.729562
 30
0.0
  0
VERTEX
  8
Top Left
 10
10.021054
 20
-31.729563
 30
0.0
  0
SEQEND
  8
Top Left
  0
POLYLINE
  8
Top Left
 62
0
 70
0
 66
1
 10
0.0
 20
0.0
 30
0.0
  0
VERTEX
  8
Top Left
 10
158.750076
 20
-82.999702
 30
0.0
  0
VERTEX
  8
Top Left
 10
149.131028
 20
-82.9997
 30
0.0
  0
SEQEND
  8
Top Left
  0
POLYLINE
  8
Top Left
 62
0
 70
0
 66
1
 10
0.0
 20
0.0
 30
0.0
  0
VERTEX
  8
Top Left
 10
123.500206
 20
-113.499194
 30
0.0
  0
VERTEX
  8
Top Left
 10
153.749574
 20
-113.499194
 30
0.0
  0
SEQEND
  8
Top Left
  0
POLYLINE
  8
Top Left
 62
0
 70
0
 66
1
 10
0.0
 20
0.0
 30
0.0
  0
VERTEX
  8
Top Left
 10
74.00094
 20
-81.249068
 30
0.0
  0
VERTEX
  8
Top Left
 10
4.750126
 20
-81.249068
 30
0.0
  0
SEQEND
  8
Top Left
  0
POLYLINE
  8
Top Left
 62
0
 70
0
 66
1
 10
0.0
 20
0.0
 30
0.0
  0
VERTEX
  8
Top Left
 10
150.640228
 20
-18.869534
 30
0.0
  0
VERTEX
  8
Top Left
 10
131.859467
 20
-18.869534
 30
0.0
  0
SEQEND
  8
Top Left
  0
POLYLINE
  8
Top Left
 62
0
 70
0
 66
1
 10
0.0
 20
0.0
 30
0.0
  0
VERTEX
  8
Top Left
 10
23.981054
 20
-17.769562
 30
0.0
  0
VERTEX
  8
Top Left
 10
23.981054
 20
-31.729562
 30
0.0
  0
SEQEND
  8
Top Left
  0
CIRCLE
  8
Top Left
 62
0
 10
5.0
 20
-12.748
 30
0.0
 40
1.75
  0
CIRCLE
  8
Top Left
 62
0
 10
5.0
 20
-76.509
 30
0.0
 40
1.75
  0
CIRCLE
  8
Top Left
 62
0
 10
153.75
 20
-108.5
 30
0.0
 40
1.75
  0
CIRCLE
  8
Top Left
 62
0
 10
153.75
 20
-10.25
 30
0.0
 40
1.75
  0
LINE
  8
Bottom Left
 62
0
 10
239.997152
 20
-110.752974
 30
0.0
 11
239.997152
 21
-103.500004
 31
0.0
  0
LINE
  8
Bottom Left
 62
0
 10
278.747646
 20
-98.502046
 30
0.0
 11
279.4972
 21
-97.749698
 31
0.0
  0
LINE
  8
Bottom Left
 62
0
 10
197.747554
 20
-189.251674
 30
0.0
 11
165.997554
 21
-189.251674
 31
0.0
  0
LINE
  8
Bottom Left
 62
0
 10
239.997152
 20
-103.500004
 30
0.0
 11
244.999428
 21
-98.502046
 31
0.0
  0
LINE
  8
Bottom Left
 62
0
 10
279.4972
 20
-97.749698
 30
0.0
 11
279.4972
 21
-88.501812
 31
0.0
  0
LINE
  8
Bottom Left
 62
0
 10
160.998072
 20
-184.251938
 30
0.0
 11
160.998072
 21
-120.50124
 31
0.0
  0
LINE
  8
Bottom Left
 62
0
 10
239.997152
 20
-110.752974
 30
0.0
 11
234.99894
 21
-115.750932
 31
0.0
  0
LINE
  8
Bottom Left
 62
0
 10
319.748072
 20
-186.751806
 30
0.0
 11
314.747574
 21
-191.750018
 31
0.0
  0
LINE
  8
Bottom Left
 62
0
 10
314.747574
 20
-191.750018
 30
0.0
 11
274.246766
 21
-191.750018
 31
0.0
  0
LINE
  8
Bottom Left
 62
0
 10
284.498206
 20
-83.500806
 30
0.0
 11
279.4972
 21
-88.501812
 31
0.0
  0
LINE
  8
Bottom Left
 62
0
 10
268.996332
 20
-196.999944
 30
0.0
 11
205.496332
 21
-196.999944
 31
0.0
  0
LINE
  8
Bottom Left
 62
0
 10
319.748072
 20
-88.501812
 30
0.0
 11
314.747574
 21
-83.500806
 31
0.0
  0
LINE
  8
Bottom Left
 62
0
 10
244.999428
 20
-98.502046
 30
0.0
 11
278.747646
 21
-98.502046
 31
0.0
  0
LINE
  8
Bottom Left
 62
0
 10
160.998072
 20
-120.50124
 30
0.0
 11
165.748126
 21
-115.750932
 31
0.0
  0
LINE
  8
Bottom Left
 62
0
 10
274.246766
 20
-191.750018
 30
0.0
 11
268.996332
 21
-196.999944
 31
0.0
  0
LINE
  8
Bottom Left
 62
0
 10
205.496332
 20
-196.999944
 30
0.0
 11
197.747554
 21
-189.251674
 31
0.0
  0
LINE
  8
Bottom Left
 62
0
 10
160.998072
 20
-184.251938
 30
0.0
 11
165.997554
 21
-189.251674
 31
0.0
  0
POLYLINE
  8
Bottom Left
 62
0
 70
0
 66
1
 10
0.0
 20
0.0
 30
0.0
  0
VERTEX
  8
Bottom Left
 10
314.747574
 20
-83.500806
 30
0.0
  0
VERTEX
  8
Bottom Left
 10
284.498206
 20
-83.500806
 30
0.0
  0
SEQEND
  8
Bottom Left
  0
POLYLINE
  8
Bottom Left
 62
0
 70
0
 66
1
 10
0.0
 20
0.0
 30
0.0
  0
VERTEX
  8
Bottom Left
 10
165.748126
 20
-115.750932
 30
0.0
  0
VERTEX
  8
Bottom Left
 10
234.99894
 20
-115.750932
 30
0.0
  0
SEQEND
  8
Bottom Left
  0
POLYLINE
  8
Bottom Left
 62
0
 70
0
 66
1
 10
0.0
 20
0.0
 30
0.0
  0
VERTEX
  8
Bottom Left
 10
319.748072
 20
-88.501812
 30
0.0
  0
VERTEX
  8
Bottom Left
 10
319.748072
 20
-186.751806
 30
0.0
  0
SEQEND
  8
Bottom Left
  0
CIRCLE
  8
Bottom Left
 62
0
 10
165.998
 20
-184.252
 30
0.0
 40
1.75
  0
CIRCLE
  8
Bottom Left
 62
0
 10
165.998
 20
-120.491
 30
0.0
 40
1.75
  0
CIRCLE
  8
Bottom Left
 62
0
 10
314.748
 20
-88.5
 30
0.0
 40
1.75
  0
CIRCLE
  8
Bottom Left
 62
0
 10
314.748
 20
-186.75
 30
0.0
 40
1.75
  0
LINE
  8
Bottom Right
 62
0
 10
240.748848
 20
-93.499996
 30
0.0
 11
235.746572
 21
-98.497954
 31
0.0
  0
LINE
  8
Bottom Right
 62
0
 10
319.747928
 20
-12.748062
 30
0.0
 11
319.747928
 21
-76.49876
 31
0.0
  0
LINE
  8
Bottom Right
 62
0
 10
201.2488
 20
-99.250302
 30
0.0
 11
201.2488
 21
-108.498188
 31
0.0
  0
LINE
  8
Bottom Right
 62
0
 10
160.997928
 20
-10.248194
 30
0.0
 11
165.998426
 21
-5.249982
 31
0.0
  0
LINE
  8
Bottom Right
 62
0
 10
319.747928
 20
-12.748062
 30
0.0
 11
314.748446
 21
-7.748326
 31
0.0
  0
LINE
  8
Bottom Right
 62
0
 10
275.249668
 20
-5.6e-05
 30
0.0
 11
282.998446
 21
-7.748326
 31
0.0
  0
LINE
  8
Bottom Right
 62
0
 10
319.747928
 20
-76.49876
 30
0.0
 11
314.997874
 21
-81.249068
 31
0.0
  0
LINE
  8
Bottom Right
 62
0
 10
282.998446
 20
-7.748326
 30
0.0
 11
314.748446
 21
-7.748326
 31
0.0
  0
LINE
  8
Bottom Right
 62
0
 10
160.997928
 20
-108.498188
 30
0.0
 11
165.998426
 21
-113.499194
 31
0.0
  0
LINE
  8
Bottom Right
 62
0
 10
196.247794
 20
-113.499194
 30
0.0
 11
201.2488
 21
-108.498188
 31
0.0
  0
LINE
  8
Bottom Right
 62
0
 10
235.746572
 20
-98.497954
 30
0.0
 11
201.998354
 21
-98.497954
 31
0.0
  0
LINE
  8
Bottom Right
 62
0
 10
240.748848
 20
-86.247026
 30
0.0
 11
245.74706
 21
-81.249068
 31
0.0
  0
LINE
  8
Bottom Right
 62
0
 10
211.749668
 20
-5.6e-05
 30
0.0
 11
275.249668
 21
-5.6e-05
 31
0.0
  0
LINE
  8
Bottom Right
 62
0
 10
206.499234
 20
-5.249982
 30
0.0
 11
211.749668
 21
-5.59999999998e-05
 31
0.0
  0
LINE
  8
Bottom Right
 62
0
 10
201.998354
 20
-98.497954
 30
0.0
 11
201.2488
 21
-99.250302
 31
0.0
  0
LINE
  8
Bottom Right
 62
0
 10
240.748848
 20
-86.247026
 30
0.0
 11
240.748848
 21
-93.499996
 31
0.0
  0
POLYLINE
  8
Bottom Right
 62
0
 70
0
 66
1
 10
0.0
 20
0.0
 30
0.0
  0
VERTEX
  8
Bottom Right
 10
165.998426
 20
-5.249982
 30
0.0
  0
VERTEX
  8
Bottom Right
 10
206.499234
 20
-5.249982
 30
0.0
  0
SEQEND
  8
Bottom Right
  0
POLYLINE
  8
Bottom Right
 62
0
 70
0
 66
1
 10
0.0
 20
0.0
 30
0.0
  0
VERTEX
  8
Bottom Right
 10
160.997928
 20
-10.248194
 30
0.0
  0
VERTEX
  8
Bottom Right
 10
160.997928
 20
-108.498188
 30
0.0
  0
SEQEND
  8
Bottom Right
  0
POLYLINE
  8
Bottom Right
 62
0
 70
0
 66
1
 10
0.0
 20
0.0
 30
0.0
  0
VERTEX
  8
Bottom Right
 10
245.74706
 20
-81.249068
 30
0.0
  0
VERTEX
  8
Bottom Right
 10
314.997874
 20
-81.249068
 30
0.0
  0
SEQEND
  8
Bottom Right
  0
POLYLINE
  8
Bottom Right
 62
0
 70
0
 66
1
 10
0.0
 20
0.0
 30
0.0
  0
VERTEX
  8
Bottom Right
 10
196.247794
 20
-113.499194
 30
0.0
  0
VERTEX
  8
Bottom Right
 10
165.998426
 20
-113.499194
 30
0.0
  0
SEQEND
  8
Bottom Right
  0
CIRCLE
  8
Bottom Right
 62
0
 10
165.998
 20
-10.25
 30
0.0
 40
1.75
  0
CIRCLE
  8
Bottom Right
 62
0
 10
314.748
 20
-76.509
 30
0.0
 40
1.75
  0
CIRCLE
  8
Bottom Right
 62
0
 10
314.748
 20
-12.748
 30
0.0
 40
1.75
  0
CIRCLE
  8
Bottom Right
 62
0
 10
165.998
 20
-108.5
 30
0.0
 40
1.75
  0
LINE
  8
Top Right
 62
0
 10
115.020446
 20
-139.73166
 30
0.0
 11
115.020446
 21
-125.77166
 31
0.0
  0
LINE
  8
Top Right
 62
0
 10
148.728946
 20
-159.481938
 30
0.0
 11
134.768946
 21
-159.481938
 31
0.0
  0
LINE
  8
Top Right
 62
0
 10
134.768946
 20
-145.521938
 30
0.0
 11
148.728946
 21
-145.521938
 31
0.0
  0
LINE
  8
Top Right
 62
0
 10
148.728946
 20
-145.521938
 30
0.0
 11
148.728946
 21
-159.481938
 31
0.0
  0
LINE
  8
Top Right
 62
0
 10
134.768946
 20
-159.481938
 30
0.0
 11
134.768946
 21
-145.521938
 31
0.0
  0
LINE
  8
Top Right
 62
0
 10
69.730374
 20
-170.271444
 30
0.0
 11
69.730374
 21
-184.231444
 31
0.0
  0
LINE
  8
Top Right
 62
0
 10
55.770374
 20
-170.271444
 30
0.0
 11
69.730374
 21
-170.271444
 31
0.0
  0
LINE
  8
Top Right
 62
0
 10
75.521668
 20
-166.980018
 30
0.0
 11
75.521668
 21
-153.020018
 31
0.0
  0
LINE
  8
Top Right
 62
0
 10
109.230168
 20
-184.231444
 30
0.0
 11
95.270168
 21
-184.231444
 31
0.0
  0
LINE
  8
Top Right
 62
0
 10
40.2508
 20
-97.749698
 30
0.0
 11
40.2508
 21
-88.501812
 31
0.0
  0
LINE
  8
Top Right
 62
0
 10
35.249794
 20
-83.500806
 30
0.0
 11
40.2508
 21
-88.501812
 31
0.0
  0
LINE
  8
Top Right
 62
0
 10
36.018572
 20
-148.021806
 30
0.0
 11
49.978572
 21
-148.021806
 31
0.0
  0
LINE
  8
Top Right
 62
0
 10
128.980446
 20
-139.73166
 30
0.0
 11
115.020446
 21
-139.73166
 31
0.0
  0
LINE
  8
Top Right
 62
0
 10
128.980446
 20
-159.481938
 30
0.0
 11
115.020446
 21
-159.481938
 31
0.0
  0
LINE
  8
Top Right
 62
0
 10
55.770374
 20
-164.481674
 30
0.0
 11
55.770374
 21
-150.521674
 31
0.0
  0
LINE
  8
Top Right
 62
0
 10
95.270168
 20
-130.769872
 30
0.0
 11
109.230168
 21
-130.769872
 31
0.0
  0
LINE
  8
Top Right
 62
0
 10
69.730374
 20
-164.481674
 30
0.0
 11
55.770374
 21
-164.481674
 31
0.0
  0
LINE
  8
Top Right
 62
0
 10
75.521668
 20
-187.231438
 30
0.0
 11
75.521668
 21
-173.271438
 31
0.0
  0
LINE
  8
Top Right
 62
0
 10
75.521668
 20
-147.23101
 30
0.0
 11
75.521668
 21
-133.27101
 31
0.0
  0
LINE
  8
Top Right
 62
0
 10
89.481668
 20
-147.23101
 30
0.0
 11
75.521668
 21
-147.23101
 31
0.0
  0
LINE
  8
Top Right
 62
0
 10
55.770374
 20
-124.730674
 30
0.0
 11
55.770374
 21
-110.770674
 31
0.0
  0
LINE
  8
Top Right
 62
0
 10
75.521668
 20
-173.271438
 30
0.0
 11
89.481668
 21
-173.271438
 31
0.0
  0
LINE
  8
Top Right
 62
0
 10
148.728946
 20
-179.230438
 30
0.0
 11
148.728946
 21
-165.270437
 31
0.0
  0
LINE
  8
Top Right
 62
0
 10
122.000446
 20
-189.251674
 30
0.0
 11
153.750446
 21
-189.251674
 31
0.0
  0
LINE
  8
Top Right
 62
0
 10
95.270168
 20
-184.231444
 30
0.0
 11
95.270168
 21
-170.271444
 31
0.0
  0
LINE
  8
Top Right
 62
0
 10
128.980446
 20
-145.521938
 30
0.0
 11
128.980446
 21
-159.481938
 31
0.0
  0
LINE
  8
Top Right
 62
0
 10
115.020446
 20
-145.521938
 30
0.0
 11
128.980446
 21
-145.521938
 31
0.0
  0
LINE
  8
Top Right
 62
0
 10
69.730374
 20
-150.521674
 30
0.0
 11
69.730374
 21
-164.481674
 31
0.0
  0
LINE
  8
Top Right
 62
0
 10
109.230168
 20
-144.729872
 30
0.0
 11
95.270168
 21
-144.729872
 31
0.0
  0
LINE
  8
Top Right
 62
0
 10
89.481668
 20
-187.231438
 30
0.0
 11
75.521668
 21
-187.231438
 31
0.0
  0
LINE
  8
Top Right
 62
0
 10
36.018572
 20
-167.770306
 30
0.0
 11
49.978572
 21
-167.770306
 31
0.0
  0
LINE
  8
Top Right
 62
0
 10
-7.2e-05
 20
-88.501816
 30
0.0
 11
-7.2e-05
 21
-114.0003
 31
0.0
  0
LINE
  8
Top Right
 62
0
 10
148.728946
 20
-139.73166
 30
0.0
 11
134.768946
 21
-139.73166
 31
0.0
  0
LINE
  8
Top Right
 62
0
 10
148.728946
 20
-125.77166
 30
0.0
 11
148.728946
 21
-139.73166
 31
0.0
  0
LINE
  8
Top Right
 62
0
 10
5.000426
 20
-191.750018
 30
0.0
 11
45.501234
 21
-191.750018
 31
0.0
  0
LINE
  8
Top Right
 62
0
 10
41.000354
 20
-98.502046
 30
0.0
 11
40.2508
 21
-97.749698
 31
0.0
  0
LINE
  8
Top Right
 62
0
 10
30.230072
 20
-107.480518
 30
0.0
 11
16.270072
 21
-107.480518
 31
0.0
  0
LINE
  8
Top Right
 62
0
 10
69.730374
 20
-144.729872
 30
0.0
 11
55.770374
 21
-144.729872
 31
0.0
  0
LINE
  8
Top Right
 62
0
 10
16.270072
 20
-107.480518
 30
0.0
 11
16.270072
 21
-93.520518
 31
0.0
  0
LINE
  8
Top Right
 62
0
 10
49.978572
 20
-148.021806
 30
0.0
 11
49.978572
 21
-161.981806
 31
0.0
  0
LINE
  8
Top Right
 62
0
 10
9.618972
 20
-114.0003
 30
0.0
 11
-7.19999999994e-05
 21
-114.0003
 31
0.0
  0
LINE
  8
Top Right
 62
0
 10
69.730374
 20
-124.730674
 30
0.0
 11
55.770374
 21
-124.730674
 31
0.0
  0
LINE
  8
Top Right
 62
0
 10
89.481668
 20
-173.271438
 30
0.0
 11
89.481668
 21
-187.231438
 31
0.0
  0
LINE
  8
Top Right
 62
0
 10
69.730374
 20
-130.769872
 30
0.0
 11
69.730374
 21
-144.729872
 31
0.0
  0
LINE
  8
Top Right
 62
0
 10
-7.2e-05
 20
-186.751806
 30
0.0
 11
5.000426
 21
-191.750018
 31
0.0
  0
LINE
  8
Top Right
 62
0
 10
158.749928
 20
-120.50124
 30
0.0
 11
153.999874
 21
-115.750932
 31
0.0
  0
LINE
  8
Top Right
 62
0
 10
128.980446
 20
-165.270438
 30
0.0
 11
128.980446
 21
-179.230438
 31
0.0
  0
LINE
  8
Top Right
 62
0
 10
89.481668
 20
-133.27101
 30
0.0
 11
89.481668
 21
-147.23101
 31
0.0
  0
LINE
  8
Top Right
 62
0
 10
-7.2e-05
 20
-88.501812
 30
0.0
 11
5.000426
 21
-83.500806
 31
0.0
  0
LINE
  8
Top Right
 62
0
 10
16.270072
 20
-93.520518
 30
0.0
 11
30.230072
 21
-93.520518
 31
0.0
  0
LINE
  8
Top Right
 62
0
 10
158.749928
 20
-184.251938
 30
0.0
 11
158.749928
 21
-120.50124
 31
0.0
  0
LINE
  8
Top Right
 62
0
 10
109.230168
 20
-170.271444
 30
0.0
 11
109.230168
 21
-184.231444
 31
0.0
  0
LINE
  8
Top Right
 62
0
 10
115.020446
 20
-125.77166
 30
0.0
 11
128.980446
 21
-125.77166
 31
0.0
  0
LINE
  8
Top Right
 62
0
 10
134.768946
 20
-125.77166
 30
0.0
 11
148.728946
 21
-125.77166
 31
0.0
  0
LINE
  8
Top Right
 62
0
 10
134.768946
 20
-139.73166
 30
0.0
 11
134.768946
 21
-125.77166
 31
0.0
  0
LINE
  8
Top Right
 62
0
 10
30.230072
 20
-93.520518
 30
0.0
 11
30.230072
 21
-107.480518
 31
0.0
  0
LINE
  8
Top Right
 62
0
 10
115.020446
 20
-179.230438
 30
0.0
 11
115.020446
 21
-165.270438
 31
0.0
  0
LINE
  8
Top Right
 62
0
 10
49.978572
 20
-142.230004
 30
0.0
 11
36.018572
 21
-142.230004
 31
0.0
  0
LINE
  8
Top Right
 62
0
 10
79.750848
 20
-110.752974
 30
0.0
 11
84.74906
 21
-115.750932
 31
0.0
  0
LINE
  8
Top Right
 62
0
 10
55.770374
 20
-144.729872
 30
0.0
 11
55.770374
 21
-130.769872
 31
0.0
  0
LINE
  8
Top Right
 62
0
 10
89.481668
 20
-166.980018
 30
0.0
 11
75.521668
 21
-166.980018
 31
0.0
  0
LINE
  8
Top Right
 62
0
 10
79.750848
 20
-103.500004
 30
0.0
 11
74.748572
 21
-98.502046
 31
0.0
  0
LINE
  8
Top Right
 62
0
 10
79.750848
 20
-110.752974
 30
0.0
 11
79.750848
 21
-103.500004
 31
0.0
  0
LINE
  8
Top Right
 62
0
 10
49.978572
 20
-108.521504
 30
0.0
 11
49.978572
 21
-122.481504
 31
0.0
  0
LINE
  8
Top Right
 62
0
 10
45.501234
 20
-191.750018
 30
0.0
 11
50.751668
 21
-196.999944
 31
0.0
  0
LINE
  8
Top Right
 62
0
 10
69.730374
 20
-184.231444
 30
0.0
 11
55.770374
 21
-184.231444
 31
0.0
  0
LINE
  8
Top Right
 62
0
 10
74.748572
 20
-98.502046
 30
0.0
 11
41.000354
 21
-98.502046
 31
0.0
  0
LINE
  8
Top Right
 62
0
 10
49.978572
 20
-128.270004
 30
0.0
 11
49.978572
 21
-142.230004
 31
0.0
  0
LINE
  8
Top Right
 62
0
 10
55.770374
 20
-130.769872
 30
0.0
 11
69.730374
 21
-130.769872
 31
0.0
  0
LINE
  8
Top Right
 62
0
 10
109.230168
 20
-150.521674
 30
0.0
 11
109.230168
 21
-164.481674
 31
0.0
  0
LINE
  8
Top Right
 62
0
 10
50.751668
 20
-196.999944
 30
0.0
 11
114.251668
 21
-196.999944
 31
0.0
  0
LINE
  8
Top Right
 62
0
 10
95.270168
 20
-170.271444
 30
0.0
 11
109.230168
 21
-170.271444
 31
0.0
  0
LINE
  8
Top Right
 62
0
 10
158.749928
 20
-184.251938
 30
0.0
 11
153.750446
 21
-189.251674
 31
0.0
  0
LINE
  8
Top Right
 62
0
 10
69.730374
 20
-110.770674
 30
0.0
 11
69.730374
 21
-124.730674
 31
0.0
  0
LINE
  8
Top Right
 62
0
 10
115.020446
 20
-165.270438
 30
0.0
 11
128.980446
 21
-165.270438
 31
0.0
  0
LINE
  8
Top Right
 62
0
 10
114.251668
 20
-196.999944
 30
0.0
 11
122.000446
 21
-189.251674
 31
0.0
  0
LINE
  8
Top Right
 62
0
 10
95.270168
 20
-150.521674
 30
0.0
 11
109.230168
 21
-150.521674
 31
0.0
  0
LINE
  8
Top Right
 62
0
 10
95.270168
 20
-164.481674
 30
0.0
 11
95.270168
 21
-150.521674
 31
0.0
  0
LINE
  8
Top Right
 62
0
 10
75.521668
 20
-153.020018
 30
0.0
 11
89.481668
 21
-153.020018
 31
0.0
  0
LINE
  8
Top Right
 62
0
 10
36.018572
 20
-122.481504
 30
0.0
 11
36.018572
 21
-108.521504
 31
0.0
  0
LINE
  8
Top Right
 62
0
 10
128.980446
 20
-125.77166
 30
0.0
 11
128.980446
 21
-139.73166
 31
0.0
  0
LINE
  8
Top Right
 62
0
 10
115.020446
 20
-159.481938
 30
0.0
 11
115.020446
 21
-145.521938
 31
0.0
  0
LINE
  8
Top Right
 62
0
 10
128.980446
 20
-179.230438
 30
0.0
 11
115.020446
 21
-179.230438
 31
0.0
  0
LINE
  8
Top Right
 62
0
 10
109.230168
 20
-164.481674
 30
0.0
 11
95.270168
 21
-164.481674
 31
0.0
  0
LINE
  8
Top Right
 62
0
 10
95.270168
 20
-144.729872
 30
0.0
 11
95.270168
 21
-130.769872
 31
0.0
  0
LINE
  8
Top Right
 62
0
 10
109.230168
 20
-130.769872
 30
0.0
 11
109.230168
 21
-144.729872
 31
0.0
  0
LINE
  8
Top Right
 62
0
 10
75.521668
 20
-133.27101
 30
0.0
 11
89.481668
 21
-133.27101
 31
0.0
  0
LINE
  8
Top Right
 62
0
 10
89.481668
 20
-153.020018
 30
0.0
 11
89.481668
 21
-166.980018
 31
0.0
  0
LINE
  8
Top Right
 62
0
 10
55.770374
 20
-184.231444
 30
0.0
 11
55.770374
 21
-170.271444
 31
0.0
  0
LINE
  8
Top Right
 62
0
 10
55.770374
 20
-150.521674
 30
0.0
 11
69.730374
 21
-150.521674
 31
0.0
  0
LINE
  8
Top Right
 62
0
 10
55.770374
 20
-110.770674
 30
0.0
 11
69.730374
 21
-110.770674
 31
0.0
  0
LINE
  8
Top Right
 62
0
 10
36.018572
 20
-108.521504
 30
0.0
 11
49.978572
 21
-108.521504
 31
0.0
  0
LINE
  8
Top Right
 62
0
 10
49.978572
 20
-122.481504
 30
0.0
 11
36.018572
 21
-122.481504
 31
0.0
  0
LINE
  8
Top Right
 62
0
 10
36.018572
 20
-142.230004
 30
0.0
 11
36.018572
 21
-128.270004
 31
0.0
  0
LINE
  8
Top Right
 62
0
 10
36.018572
 20
-128.270004
 30
0.0
 11
49.978572
 21
-128.270004
 31
0.0
  0
LINE
  8
Top Right
 62
0
 10
36.018572
 20
-161.981806
 30
0.0
 11
36.018572
 21
-148.021806
 31
0.0
  0
LINE
  8
Top Right
 62
0
 10
49.978572
 20
-161.981806
 30
0.0
 11
36.018572
 21
-161.981806
 31
0.0
  0
LINE
  8
Top Right
 62
0
 10
36.018572
 20
-181.730306
 30
0.0
 11
36.018572
 21
-167.770306
 31
0.0
  0
LINE
  8
Top Right
 62
0
 10
49.978572
 20
-167.770306
 30
0.0
 11
49.978572
 21
-181.730306
 31
0.0
  0
LINE
  8
Top Right
 62
0
 10
49.978572
 20
-181.730306
 30
0.0
 11
36.018572
 21
-181.730306
 31
0.0
  0
LINE
  8
Top Right
 62
0
 10
-7.2e-05
 20
-186.751801
 30
0.0
 11
-7.2e-05
 21
-124.001932
 31
0.0
  0
POLYLINE
  8
Top Right
 62
0
 70
0
 66
1
 10
0.0
 20
0.0
 30
0.0
  0
VERTEX
  8
Top Right
 10
84.74906
 20
-115.750932
 30
0.0
  0
VERTEX
  8
Top Right
 10
153.999874
 20
-115.750932
 30
0.0
  0
SEQEND
  8
Top Right
  0
POLYLINE
  8
Top Right
 62
0
 70
0
 66
1
 10
0.0
 20
0.0
 30
0.0
  0
VERTEX
  8
Top Right
 10
134.768946
 20
-165.270438
 30
0.0
  0
VERTEX
  8
Top Right
 10
134.768946
 20
-179.230438
 30
0.0
  0
SEQEND
  8
Top Right
  0
POLYLINE
  8
Top Right
 62
0
 70
0
 66
1
 10
0.0
 20
0.0
 30
0.0
  0
VERTEX
  8
Top Right
 10
148.728946
 20
-165.270437
 30
0.0
  0
VERTEX
  8
Top Right
 10
134.768946
 20
-165.270438
 30
0.0
  0
SEQEND
  8
Top Right
  0
POLYLINE
  8
Top Right
 62
0
 70
0
 66
1
 10
0.0
 20
0.0
 30
0.0
  0
VERTEX
  8
Top Right
 10
9.618972
 20
-114.0003
 30
0.0
  0
VERTEX
  8
Top Right
 10
9.618972
 20
-124.00193
 30
0.0
  0
SEQEND
  8
Top Right
  0
POLYLINE
  8
Top Right
 62
0
 70
0
 66
1
 10
0.0
 20
0.0
 30
0.0
  0
VERTEX
  8
Top Right
 10
-7.2e-05
 20
-124.001932
 30
0.0
  0
VERTEX
  8
Top Right
 10
9.618972
 20
-124.00193
 30
0.0
  0
SEQEND
  8
Top Right
  0
POLYLINE
  8
Top Right
 62
0
 70
0
 66
1
 10
0.0
 20
0.0
 30
0.0
  0
VERTEX
  8
Top Right
 10
35.249794
 20
-83.500806
 30
0.0
  0
VERTEX
  8
Top Right
 10
5.000426
 20
-83.500806
 30
0.0
  0
SEQEND
  8
Top Right
  0
POLYLINE
  8
Top Right
 62
0
 70
0
 66
1
 10
0.0
 20
0.0
 30
0.0
  0
VERTEX
  8
Top Right
 10
148.728946
 20
-179.230438
 30
0.0
  0
VERTEX
  8
Top Right
 10
134.768946
 20
-179.230438
 30
0.0
  0
SEQEND
  8
Top Right
  0
CIRCLE
  8
Top Right
 62
0
 10
153.75
 20
-184.252
 30
0.0
 40
1.75
  0
CIRCLE
  8
Top Right
 62
0
 10
153.75
 20
-120.491
 30
0.0
 40
1.75
  0
CIRCLE
  8
Top Right
 62
0
 10
5.0
 20
-88.5
 30
0.0
 40
1.75
  0
CIRCLE
  8
Top Right
 62
0
 10
5.0
 20
-186.75
 30
0.0
 40
1.75
  0
ENDSEC
  0
EOF
