  0
SECTION
  2
HEADER
  9
$ACADVER
  1
AC1009
  9
$INSBASE
 10
0.0
 20
0.0
 30
0.0
  9
$EXTMIN
 10
0.0
 20
0.0
 30
0.0
  9
$EXTMAX
 10
0.0
 20
0.0
 30
0.0
  0
ENDSEC
  0
SECTION
  2
TABLES
  0
TABLE
  2
VPORT
 70
0
  0
ENDTAB
  0
TABLE
  2
LTYPE
 70
1
  0
LTYPE
  2
CONTINUOUS
 70
0
  3
Solid line
 72
65
 73
0
 40
0.0
  0
ENDTAB
  0
TABLE
  2
LAYER
 70
1
  0
LAYER
  2
0
 70
64
 62
7
  6
continuous
  0
ENDTAB
  0
TABLE
  2
STYLE
 70
1
  0
STYLE
  2
STANDARD
 70
0
 40
0
 41
1.0
 50
0.0
 71
0
 42
1
 3
ARIAL.TTF
 4

  0
ENDTAB
  0
TABLE
  2
VIEW
 70
0
  0
ENDTAB
  0
ENDSEC
  0
SECTION
  2
BLOCKS
  0
ENDSEC
  0
SECTION
  2
ENTITIES
  0
LINE
  8
Bottom Right
 62
0
 10
206.499234
 20
-5.249979
 30
0.0
 11
211.749667
 21
-5.20000000002e-05
 31
0.0
  0
LINE
  8
Bottom Right
 62
0
 10
282.998446
 20
-7.748316
 30
0.0
 11
314.748446
 21
-7.748314
 31
0.0
  0
LINE
  8
Bottom Right
 62
0
 10
240.748855
 20
-93.49999
 30
0.0
 11
235.746579
 21
-98.497948
 31
0.0
  0
LINE
  8
Bottom Right
 62
0
 10
319.747928
 20
-12.748049
 30
0.0
 11
319.747933
 21
-76.498747
 31
0.0
  0
LINE
  8
Bottom Right
 62
0
 10
201.998361
 20
-98.497951
 30
0.0
 11
201.248807
 21
-99.250299
 31
0.0
  0
LINE
  8
Bottom Right
 62
0
 10
275.249667
 20
-4.7e-05
 30
0.0
 11
282.998446
 21
-7.748316
 31
0.0
  0
LINE
  8
Bottom Right
 62
0
 10
211.749667
 20
-5.2e-05
 30
0.0
 11
275.249667
 21
-4.7e-05
 31
0.0
  0
LINE
  8
Bottom Right
 62
0
 10
196.247802
 20
-113.499191
 30
0.0
 11
201.248808
 21
-108.498185
 31
0.0
  0
LINE
  8
Bottom Right
 62
0
 10
240.748854
 20
-86.24702
 30
0.0
 11
245.747066
 21
-81.249061
 31
0.0
  0
LINE
  8
Bottom Right
 62
0
 10
201.248807
 20
-99.250299
 30
0.0
 11
201.248808
 21
-108.498185
 31
0.0
  0
LINE
  8
Bottom Right
 62
0
 10
235.746579
 20
-98.497948
 30
0.0
 11
201.998361
 21
-98.497951
 31
0.0
  0
LINE
  8
Bottom Right
 62
0
 10
240.748854
 20
-86.24702
 30
0.0
 11
240.748855
 21
-93.49999
 31
0.0
  0
LINE
  8
Top Left
 62
0
 10
117.749646
 20
-98.497954
 30
0.0
 11
118.4992
 21
-99.250302
 31
0.0
  0
LINE
  8
Top Left
 62
0
 10
89.019626
 20
-12.768556
 30
0.0
 11
102.979626
 21
-12.768556
 31
0.0
  0
LINE
  8
Top Left
 62
0
 10
69.268332
 20
-23.728562
 30
0.0
 11
69.268332
 21
-9.768562
 31
0.0
  0
LINE
  8
Top Left
 62
0
 10
29.769554
 20
-71.22834
 30
0.0
 11
29.769554
 21
-57.26834
 31
0.0
  0
LINE
  8
Top Left
 62
0
 10
102.979626
 20
-86.229326
 30
0.0
 11
89.019626
 21
-86.229326
 31
0.0
  0
LINE
  8
Top Left
 62
0
 10
108.771428
 20
-68.729996
 30
0.0
 11
108.771428
 21
-54.769996
 31
0.0
  0
LINE
  8
Top Left
 62
0
 10
102.979626
 20
-52.270128
 30
0.0
 11
102.979626
 21
-66.230128
 31
0.0
  0
LINE
  8
Top Left
 62
0
 10
49.519832
 20
-66.230128
 30
0.0
 11
49.519832
 21
-52.270128
 31
0.0
  0
LINE
  8
Top Left
 62
0
 10
89.019626
 20
-66.230128
 30
0.0
 11
89.019626
 21
-52.270128
 31
0.0
  0
LINE
  8
Top Left
 62
0
 10
102.979626
 20
-72.269326
 30
0.0
 11
102.979626
 21
-86.229326
 31
0.0
  0
LINE
  8
Top Left
 62
0
 10
108.771428
 20
-15.269694
 30
0.0
 11
122.731428
 21
-15.269694
 31
0.0
  0
LINE
  8
Top Left
 62
0
 10
69.268332
 20
-49.76899
 30
0.0
 11
83.228332
 21
-49.76899
 31
0.0
  0
LINE
  8
Top Left
 62
0
 10
63.479832
 20
-32.518326
 30
0.0
 11
63.479832
 21
-46.478326
 31
0.0
  0
LINE
  8
Top Left
 62
0
 10
108.771428
 20
-88.478496
 30
0.0
 11
108.771428
 21
-74.518496
 31
0.0
  0
LINE
  8
Top Left
 62
0
 10
43.729554
 20
-31.729562
 30
0.0
 11
29.769554
 21
-31.729562
 31
0.0
  0
LINE
  8
Top Left
 62
0
 10
150.640234
 20
-66.28894
 30
0.0
 11
131.859472
 21
-66.28894
 31
0.0
  0
LINE
  8
Top Left
 62
0
 10
10.021054
 20
-71.22834
 30
0.0
 11
10.021054
 21
-57.26834
 31
0.0
  0
LINE
  8
Top Left
 62
0
 10
102.979626
 20
-26.728556
 30
0.0
 11
89.019626
 21
-26.728556
 31
0.0
  0
LINE
  8
Top Left
 62
0
 10
102.979626
 20
-46.478326
 30
0.0
 11
89.019626
 21
-46.478326
 31
0.0
  0
LINE
  8
Top Left
 62
0
 10
29.769554
 20
-51.478062
 30
0.0
 11
29.769554
 21
-37.518062
 31
0.0
  0
LINE
  8
Top Left
 62
0
 10
10.021054
 20
-37.518062
 30
0.0
 11
23.981054
 21
-37.518062
 31
0.0
  0
LINE
  8
Top Left
 62
0
 10
63.479832
 20
-26.728556
 30
0.0
 11
49.519832
 21
-26.728556
 31
0.0
  0
LINE
  8
Top Left
 62
0
 10
89.019626
 20
-46.478326
 30
0.0
 11
89.019626
 21
-32.518326
 31
0.0
  0
LINE
  8
Top Left
 62
0
 10
128.519928
 20
-89.519482
 30
0.0
 11
142.479928
 21
-89.519482
 31
0.0
  0
LINE
  8
Top Left
 62
0
 10
122.731428
 20
-48.978194
 30
0.0
 11
108.771428
 21
-48.978194
 31
0.0
  0
LINE
  8
Top Left
 62
0
 10
84.001428
 20
-98.497954
 30
0.0
 11
117.749646
 21
-98.497954
 31
0.0
  0
LINE
  8
Top Left
 62
0
 10
89.019626
 20
-86.229326
 30
0.0
 11
89.019626
 21
-72.269326
 31
0.0
  0
LINE
  8
Top Left
 62
0
 10
63.479832
 20
-46.478326
 30
0.0
 11
49.519832
 21
-46.478326
 31
0.0
  0
LINE
  8
Top Left
 62
0
 10
83.228332
 20
-23.728562
 30
0.0
 11
69.268332
 21
-23.728562
 31
0.0
  0
LINE
  8
Top Left
 62
0
 10
108.771428
 20
-35.018194
 30
0.0
 11
122.731428
 21
-35.018194
 31
0.0
  0
LINE
  8
Top Left
 62
0
 10
36.749554
 20
-7.748326
 30
0.0
 11
4.999554
 21
-7.748326
 31
0.0
  0
LINE
  8
Top Left
 62
0
 10
43.729554
 20
-37.518062
 30
0.0
 11
43.729554
 21
-51.478062
 31
0.0
  0
LINE
  8
Top Left
 62
0
 10
49.519832
 20
-32.518326
 30
0.0
 11
63.479832
 21
-32.518326
 31
0.0
  0
LINE
  8
Top Left
 62
0
 10
102.979626
 20
-32.518326
 30
0.0
 11
102.979626
 21
-46.478326
 31
0.0
  0
LINE
  8
Top Left
 62
0
 10
23.981054
 20
-57.26834
 30
0.0
 11
23.981054
 21
-71.22834
 31
0.0
  0
LINE
  8
Top Left
 62
0
 10
108.771428
 20
-74.518496
 30
0.0
 11
122.731428
 21
-74.518496
 31
0.0
  0
LINE
  8
Top Left
 62
0
 10
128.519928
 20
-103.479482
 30
0.0
 11
128.519928
 21
-89.519482
 31
0.0
  0
LINE
  8
Top Left
 62
0
 10
108.771428
 20
-29.229694
 30
0.0
 11
108.771428
 21
-15.269694
 31
0.0
  0
LINE
  8
Top Left
 62
0
 10
89.019626
 20
-32.518326
 30
0.0
 11
102.979626
 21
-32.518326
 31
0.0
  0
LINE
  8
Top Left
 62
0
 10
122.731428
 20
-74.518496
 30
0.0
 11
122.731428
 21
-88.478496
 31
0.0
  0
LINE
  8
Top Left
 62
0
 10
89.019626
 20
-26.728556
 30
0.0
 11
89.019626
 21
-12.768556
 31
0.0
  0
LINE
  8
Top Left
 62
0
 10
89.019626
 20
-72.269326
 30
0.0
 11
102.979626
 21
-72.269326
 31
0.0
  0
LINE
  8
Top Left
 62
0
 10
102.979626
 20
-66.230128
 30
0.0
 11
89.019626
 21
-66.230128
 31
0.0
  0
LINE
  8
Top Left
 62
0
 10
122.731428
 20
-35.018194
 30
0.0
 11
122.731428
 21
-48.978194
 31
0.0
  0
LINE
  8
Top Left
 62
0
 10
108.771428
 20
-48.978194
 30
0.0
 11
108.771428
 21
-35.018194
 31
0.0
  0
LINE
  8
Top Left
 62
0
 10
83.228332
 20
-30.019982
 30
0.0
 11
83.228332
 21
-43.979982
 31
0.0
  0
LINE
  8
Top Left
 62
0
 10
10.021054
 20
-17.769562
 30
0.0
 11
10.021054
 21
-31.729563
 31
0.0
  0
LINE
  8
Top Left
 62
0
 10
142.479928
 20
-89.519482
 30
0.0
 11
142.479928
 21
-103.479482
 31
0.0
  0
LINE
  8
Top Left
 62
0
 10
49.519832
 20
-26.728556
 30
0.0
 11
49.519832
 21
-12.768556
 31
0.0
  0
LINE
  8
Top Left
 62
0
 10
69.268332
 20
-30.019982
 30
0.0
 11
83.228332
 21
-30.019982
 31
0.0
  0
LINE
  8
Top Left
 62
0
 10
43.729554
 20
-71.22834
 30
0.0
 11
29.769554
 21
-71.22834
 31
0.0
  0
LINE
  8
Top Left
 62
0
 10
102.979626
 20
-12.768556
 30
0.0
 11
102.979626
 21
-26.728556
 31
0.0
  0
LINE
  8
Top Left
 62
0
 10
113.248766
 20
-5.249982
 30
0.0
 11
107.998332
 21
-5.59999999998e-05
 31
0.0
  0
LINE
  8
Top Left
 62
0
 10
49.519832
 20
-12.768556
 30
0.0
 11
63.479832
 21
-12.768556
 31
0.0
  0
LINE
  8
Top Left
 62
0
 10
10.021054
 20
-57.26834
 30
0.0
 11
23.981054
 21
-57.26834
 31
0.0
  0
LINE
  8
Top Left
 62
0
 10
122.731428
 20
-29.229694
 30
0.0
 11
108.771428
 21
-29.229694
 31
0.0
  0
LINE
  8
Top Left
 62
0
 10
49.519832
 20
-52.270128
 30
0.0
 11
63.479832
 21
-52.270128
 31
0.0
  0
LINE
  8
Top Left
 62
0
 10
29.769554
 20
-37.518062
 30
0.0
 11
43.729554
 21
-37.518062
 31
0.0
  0
LINE
  8
Top Left
 62
0
 10
83.228332
 20
-9.768562
 30
0.0
 11
83.228332
 21
-23.728562
 31
0.0
  0
LINE
  8
Top Left
 62
0
 10
83.228332
 20
-43.979982
 30
0.0
 11
69.268332
 21
-43.979982
 31
0.0
  0
LINE
  8
Top Left
 62
0
 10
10.021054
 20
-51.478062
 30
0.0
 11
10.021054
 21
-37.518062
 31
0.0
  0
LINE
  8
Top Left
 62
0
 10
29.769554
 20
-57.26834
 30
0.0
 11
43.729554
 21
-57.26834
 31
0.0
  0
LINE
  8
Top Left
 62
0
 10
43.729554
 20
-51.478062
 30
0.0
 11
29.769554
 21
-51.478062
 31
0.0
  0
LINE
  8
Top Left
 62
0
 10
78.999152
 20
-86.247026
 30
0.0
 11
74.00094
 21
-81.249068
 31
0.0
  0
LINE
  8
Top Left
 62
0
 10
122.731428
 20
-68.729996
 30
0.0
 11
108.771428
 21
-68.729996
 31
0.0
  0
LINE
  8
Top Left
 62
0
 10
122.731428
 20
-88.478496
 30
0.0
 11
108.771428
 21
-88.478496
 31
0.0
  0
LINE
  8
Top Left
 62
0
 10
69.268332
 20
-43.979982
 30
0.0
 11
69.268332
 21
-30.019982
 31
0.0
  0
LINE
  8
Top Left
 62
0
 10
49.519832
 20
-46.478326
 30
0.0
 11
49.519832
 21
-32.518326
 31
0.0
  0
LINE
  8
Top Left
 62
0
 10
43.729554
 20
-17.769562
 30
0.0
 11
43.729554
 21
-31.729562
 31
0.0
  0
LINE
  8
Top Left
 62
0
 10
69.268332
 20
-9.768562
 30
0.0
 11
83.228332
 21
-9.768562
 31
0.0
  0
LINE
  8
Top Left
 62
0
 10
23.981054
 20
-71.22834
 30
0.0
 11
10.021054
 21
-71.22834
 31
0.0
  0
LINE
  8
Top Left
 62
0
 10
89.019626
 20
-52.270128
 30
0.0
 11
102.979626
 21
-52.270128
 31
0.0
  0
LINE
  8
Top Left
 62
0
 10
142.479928
 20
-103.479482
 30
0.0
 11
128.519928
 21
-103.479482
 31
0.0
  0
LINE
  8
Top Left
 62
0
 10
44.498332
 20
-5.6e-05
 30
0.0
 11
36.749554
 21
-7.748326
 31
0.0
  0
LINE
  8
Top Left
 62
0
 10
63.479832
 20
-12.768556
 30
0.0
 11
63.479832
 21
-26.728556
 31
0.0
  0
LINE
  8
Top Left
 62
0
 10
63.479832
 20
-66.230128
 30
0.0
 11
49.519832
 21
-66.230128
 31
0.0
  0
LINE
  8
Top Left
 62
0
 10
107.998332
 20
-5.6e-05
 30
0.0
 11
44.498332
 21
-5.6e-05
 31
0.0
  0
LINE
  8
Top Left
 62
0
 10
69.268332
 20
-63.72899
 30
0.0
 11
69.268332
 21
-49.76899
 31
0.0
  0
LINE
  8
Top Left
 62
0
 10
63.479832
 20
-52.270128
 30
0.0
 11
63.479832
 21
-66.230128
 31
0.0
  0
LINE
  8
Top Left
 62
0
 10
43.729554
 20
-57.26834
 30
0.0
 11
43.729554
 21
-71.22834
 31
0.0
  0
LINE
  8
Top Left
 62
0
 10
78.999152
 20
-93.499996
 30
0.0
 11
84.001428
 21
-98.497954
 31
0.0
  0
LINE
  8
Top Left
 62
0
 10
83.228332
 20
-49.76899
 30
0.0
 11
83.228332
 21
-63.72899
 31
0.0
  0
LINE
  8
Top Left
 62
0
 10
122.731428
 20
-15.269694
 30
0.0
 11
122.731428
 21
-29.229694
 31
0.0
  0
LINE
  8
Top Left
 62
0
 10
123.500206
 20
-113.499194
 30
0.0
 11
118.4992
 21
-108.498188
 31
0.0
  0
LINE
  8
Top Left
 62
0
 10
108.771428
 20
-54.769996
 30
0.0
 11
122.731428
 21
-54.769996
 31
0.0
  0
LINE
  8
Top Left
 62
0
 10
29.769554
 20
-31.729562
 30
0.0
 11
29.769554
 21
-17.769562
 31
0.0
  0
LINE
  8
Top Left
 62
0
 10
29.769554
 20
-17.769562
 30
0.0
 11
43.729554
 21
-17.769562
 31
0.0
  0
LINE
  8
Top Left
 62
0
 10
118.4992
 20
-99.250302
 30
0.0
 11
118.4992
 21
-108.498188
 31
0.0
  0
LINE
  8
Top Left
 62
0
 10
78.999152
 20
-86.247026
 30
0.0
 11
78.999152
 21
-93.499996
 31
0.0
  0
LINE
  8
Top Left
 62
0
 10
23.981054
 20
-37.518062
 30
0.0
 11
23.981054
 21
-51.478062
 31
0.0
  0
LINE
  8
Top Left
 62
0
 10
23.981054
 20
-51.478062
 30
0.0
 11
10.021054
 21
-51.478062
 31
0.0
  0
LINE
  8
Top Left
 62
0
 10
83.228332
 20
-63.72899
 30
0.0
 11
69.268332
 21
-63.72899
 31
0.0
  0
LINE
  8
Top Left
 62
0
 10
122.731428
 20
-54.769996
 30
0.0
 11
122.731428
 21
-68.729996
 31
0.0
  0
LINE
  8
Top Left
 62
0
 10
7.2e-05
 20
-12.748062
 30
0.0
 11
7.2e-05
 21
-76.49876
 31
0.0
  0
LINE
  8
Bottom Left
 62
0
 10
284.498333
 20
-83.500041
 30
0.0
 11
279.4972
 21
-88.50092
 31
0.0
  0
LINE
  8
Bottom Left
 62
0
 10
239.996589
 20
-110.751082
 30
0.0
 11
234.99825
 21
-115.748914
 31
0.0
  0
LINE
  8
Bottom Left
 62
0
 10
268.993586
 20
-196.998786
 30
0.0
 11
205.493586
 21
-196.997179
 31
0.0
  0
LINE
  8
Bottom Left
 62
0
 10
279.496966
 20
-97.748806
 30
0.0
 11
279.4972
 21
-88.50092
 31
0.0
  0
LINE
  8
Top Right
 62
0
 10
95.268988
 20
-184.232557
 30
0.0
 11
95.26916
 21
-170.272557
 31
0.0
  0
LINE
  8
Top Right
 62
0
 10
95.269647
 20
-130.770985
 30
0.0
 11
109.229647
 21
-130.771157
 31
0.0
  0
LINE
  8
Top Right
 62
0
 10
50.75033
 20
-197.000508
 30
0.0
 11
114.25033
 21
-197.001291
 31
0.0
  0
LINE
  8
Top Right
 62
0
 10
114.25033
 20
-197.001291
 30
0.0
 11
121.999204
 21
-189.253117
 31
0.0
  0
LINE
  8
Top Right
 62
0
 10
35.249856
 20
-83.501179
 30
0.0
 11
40.2508
 21
-88.502247
 31
0.0
  0
LINE
  8
Top Right
 62
0
 10
79.750574
 20
-110.753896
 30
0.0
 11
84.748724
 21
-115.751915
 31
0.0
  0
LINE
  8
Top Right
 62
0
 10
148.727827
 20
-179.23221
 30
0.0
 11
148.727999
 21
-165.272209
 31
0.0
  0
LINE
  8
Top Right
 62
0
 10
36.018325
 20
-108.521886
 30
0.0
 11
49.978325
 21
-108.522059
 31
0.0
  0
LINE
  8
Top Right
 62
0
 10
49.978325
 20
-108.522059
 30
0.0
 11
49.978153
 21
-122.482059
 31
0.0
  0
LINE
  8
Top Right
 62
0
 10
49.978153
 20
-122.482059
 30
0.0
 11
36.018153
 21
-122.481886
 31
0.0
  0
LINE
  8
Top Right
 62
0
 10
36.017909
 20
-142.230386
 30
0.0
 11
36.018082
 21
-128.270386
 31
0.0
  0
LINE
  8
Top Right
 62
0
 10
36.018082
 20
-128.270386
 30
0.0
 11
49.978082
 21
-128.270559
 31
0.0
  0
LINE
  8
Top Right
 62
0
 10
49.978082
 20
-128.270559
 30
0.0
 11
49.977909
 21
-142.230559
 31
0.0
  0
LINE
  8
Top Right
 62
0
 10
49.977909
 20
-142.230559
 30
0.0
 11
36.017909
 21
-142.230386
 31
0.0
  0
LINE
  8
Top Right
 62
0
 10
36.017666
 20
-161.982188
 30
0.0
 11
36.017838
 21
-148.022188
 31
0.0
  0
LINE
  8
Top Right
 62
0
 10
36.017838
 20
-148.022188
 30
0.0
 11
49.977838
 21
-148.022361
 31
0.0
  0
LINE
  8
Top Right
 62
0
 10
49.977838
 20
-148.022361
 30
0.0
 11
49.977666
 21
-161.982361
 31
0.0
  0
LINE
  8
Top Right
 62
0
 10
49.977666
 20
-161.982361
 30
0.0
 11
36.017666
 21
-161.982188
 31
0.0
  0
LINE
  8
Top Right
 62
0
 10
36.017422
 20
-181.730688
 30
0.0
 11
36.017595
 21
-167.770688
 31
0.0
  0
LINE
  8
Top Right
 62
0
 10
36.017595
 20
-167.770688
 30
0.0
 11
49.977595
 21
-167.770861
 31
0.0
  0
LINE
  8
Top Right
 62
0
 10
49.977595
 20
-167.770861
 30
0.0
 11
49.977422
 21
-181.730861
 31
0.0
  0
LINE
  8
Top Right
 62
0
 10
49.977422
 20
-181.730861
 30
0.0
 11
36.017422
 21
-181.730688
 31
0.0
  0
LINE
  8
Top Right
 62
0
 10
16.269838
 20
-107.480657
 30
0.0
 11
16.27001
 21
-93.520657
 31
0.0
  0
LINE
  8
Top Right
 62
0
 10
16.27001
 20
-93.520657
 30
0.0
 11
30.23001
 21
-93.520829
 31
0.0
  0
LINE
  8
Top Right
 62
0
 10
30.23001
 20
-93.520829
 30
0.0
 11
30.229838
 21
-107.480829
 31
0.0
  0
LINE
  8
Top Right
 62
0
 10
30.229838
 20
-107.480829
 30
0.0
 11
16.269838
 21
-107.480657
 31
0.0
  0
LINE
  8
Top Right
 62
0
 10
95.269475
 20
-144.730985
 30
0.0
 11
95.269647
 21
-130.770985
 31
0.0
  0
LINE
  8
Top Right
 62
0
 10
109.229647
 20
-130.771157
 30
0.0
 11
109.229475
 21
-144.731157
 31
0.0
  0
LINE
  8
Top Right
 62
0
 10
109.229475
 20
-144.731157
 30
0.0
 11
95.269475
 21
-144.730985
 31
0.0
  0
LINE
  8
Top Right
 62
0
 10
75.520944
 20
-147.23188
 30
0.0
 11
75.521116
 21
-133.27188
 31
0.0
  0
LINE
  8
Top Right
 62
0
 10
75.521116
 20
-133.27188
 30
0.0
 11
89.481116
 21
-133.272052
 31
0.0
  0
LINE
  8
Top Right
 62
0
 10
89.481116
 20
-133.272052
 30
0.0
 11
89.480944
 21
-147.232052
 31
0.0
  0
LINE
  8
Top Right
 62
0
 10
40.250686
 20
-97.750133
 30
0.0
 11
40.2508
 21
-88.502247
 31
0.0
  0
LINE
  8
Top Right
 62
0
 10
128.979571
 20
-159.483467
 30
0.0
 11
115.019571
 21
-159.483295
 31
0.0
  0
LINE
  8
Top Right
 62
0
 10
115.019327
 20
-179.231795
 30
0.0
 11
115.019499
 21
-165.271795
 31
0.0
  0
LINE
  8
Top Right
 62
0
 10
115.019499
 20
-165.271795
 30
0.0
 11
128.979499
 21
-165.271967
 31
0.0
  0
LINE
  8
Top Right
 62
0
 10
128.979499
 20
-165.271967
 30
0.0
 11
128.979327
 21
-179.231967
 31
0.0
  0
LINE
  8
Top Right
 62
0
 10
128.979327
 20
-179.231967
 30
0.0
 11
115.019327
 21
-179.231795
 31
0.0
  0
LINE
  8
Top Right
 62
0
 10
134.768486
 20
-125.77326
 30
0.0
 11
148.728486
 21
-125.773432
 31
0.0
  0
LINE
  8
Top Right
 62
0
 10
148.728486
 20
-125.773432
 30
0.0
 11
148.728314
 21
-139.733432
 31
0.0
  0
LINE
  8
Top Right
 62
0
 10
115.019814
 20
-139.733017
 30
0.0
 11
115.019986
 21
-125.773017
 31
0.0
  0
LINE
  8
Top Right
 62
0
 10
148.728314
 20
-139.733432
 30
0.0
 11
134.768314
 21
-139.73326
 31
0.0
  0
LINE
  8
Top Right
 62
0
 10
74.748449
 20
-98.502906
 30
0.0
 11
41.000231
 21
-98.50249
 31
0.0
  0
LINE
  8
Top Right
 62
0
 10
79.750663
 20
-103.500926
 30
0.0
 11
74.748449
 21
-98.502906
 31
0.0
  0
LINE
  8
Top Right
 62
0
 10
79.750574
 20
-110.753896
 30
0.0
 11
79.750663
 21
-103.500926
 31
0.0
  0
LINE
  8
Top Right
 62
0
 10
134.768071
 20
-159.483538
 30
0.0
 11
134.768243
 21
-145.523538
 31
0.0
  0
LINE
  8
Top Right
 62
0
 10
134.768243
 20
-145.523538
 30
0.0
 11
148.728243
 21
-145.52371
 31
0.0
  0
LINE
  8
Top Right
 62
0
 10
148.728243
 20
-145.52371
 30
0.0
 11
148.728071
 21
-159.48371
 31
0.0
  0
LINE
  8
Top Right
 62
0
 10
148.728071
 20
-159.48371
 30
0.0
 11
134.768071
 21
-159.483538
 31
0.0
  0
LINE
  8
Top Right
 62
0
 10
134.768314
 20
-139.73326
 30
0.0
 11
134.768486
 21
-125.77326
 31
0.0
  0
LINE
  8
Top Right
 62
0
 10
95.26916
 20
-170.272557
 30
0.0
 11
109.22916
 21
-170.272729
 31
0.0
  0
LINE
  8
Top Right
 62
0
 10
109.22916
 20
-170.272729
 30
0.0
 11
109.228988
 21
-184.232729
 31
0.0
  0
LINE
  8
Top Right
 62
0
 10
109.228988
 20
-184.232729
 30
0.0
 11
95.268988
 21
-184.232557
 31
0.0
  0
LINE
  8
Top Right
 62
0
 10
95.269231
 20
-164.482787
 30
0.0
 11
95.269403
 21
-150.522787
 31
0.0
  0
LINE
  8
Top Right
 62
0
 10
95.269403
 20
-150.522787
 30
0.0
 11
109.229403
 21
-150.522959
 31
0.0
  0
LINE
  8
Top Right
 62
0
 10
109.229403
 20
-150.522959
 30
0.0
 11
109.229231
 21
-164.482959
 31
0.0
  0
LINE
  8
Top Right
 62
0
 10
109.229231
 20
-164.482959
 30
0.0
 11
95.269231
 21
-164.482787
 31
0.0
  0
LINE
  8
Top Right
 62
0
 10
41.000231
 20
-98.50249
 30
0.0
 11
40.250686
 21
-97.750133
 31
0.0
  0
LINE
  8
Top Right
 62
0
 10
158.748747
 20
-184.253834
 30
0.0
 11
158.749533
 21
-120.503136
 31
0.0
  0
LINE
  8
Top Right
 62
0
 10
121.999204
 20
-189.253117
 30
0.0
 11
153.749204
 21
-189.253508
 31
0.0
  0
LINE
  8
Top Right
 62
0
 10
89.480944
 20
-147.232052
 30
0.0
 11
75.520944
 21
-147.23188
 31
0.0
  0
LINE
  8
Top Right
 62
0
 10
75.5207
 20
-166.980888
 30
0.0
 11
75.520872
 21
-153.020888
 31
0.0
  0
LINE
  8
Top Right
 62
0
 10
75.520872
 20
-153.020888
 30
0.0
 11
89.480872
 21
-153.02106
 31
0.0
  0
LINE
  8
Top Right
 62
0
 10
89.480872
 20
-153.02106
 30
0.0
 11
89.4807
 21
-166.98106
 31
0.0
  0
LINE
  8
Top Right
 62
0
 10
89.4807
 20
-166.98106
 30
0.0
 11
75.5207
 21
-166.980888
 31
0.0
  0
LINE
  8
Top Right
 62
0
 10
75.520623
 20
-173.272308
 30
0.0
 11
89.480623
 21
-173.27248
 31
0.0
  0
LINE
  8
Top Right
 62
0
 10
75.520451
 20
-187.232308
 30
0.0
 11
75.520623
 21
-173.272308
 31
0.0
  0
LINE
  8
Top Right
 62
0
 10
45.499961
 20
-191.750517
 30
0.0
 11
50.75033
 21
-197.000508
 31
0.0
  0
LINE
  8
Top Right
 62
0
 10
89.480623
 20
-173.27248
 30
0.0
 11
89.480451
 21
-187.23248
 31
0.0
  0
LINE
  8
Top Right
 62
0
 10
89.480451
 20
-187.23248
 30
0.0
 11
75.520451
 21
-187.232308
 31
0.0
  0
LINE
  8
Top Right
 62
0
 10
55.769194
 20
-184.23207
 30
0.0
 11
55.769366
 21
-170.27207
 31
0.0
  0
LINE
  8
Top Right
 62
0
 10
55.769366
 20
-170.27207
 30
0.0
 11
69.729366
 21
-170.272242
 31
0.0
  0
LINE
  8
Top Right
 62
0
 10
69.729366
 20
-170.272242
 30
0.0
 11
69.729194
 21
-184.232242
 31
0.0
  0
LINE
  8
Top Right
 62
0
 10
69.729194
 20
-184.232242
 30
0.0
 11
55.769194
 21
-184.23207
 31
0.0
  0
LINE
  8
Top Right
 62
0
 10
55.769437
 20
-164.4823
 30
0.0
 11
55.769609
 21
-150.5223
 31
0.0
  0
LINE
  8
Top Right
 62
0
 10
55.769609
 20
-150.5223
 30
0.0
 11
69.729609
 21
-150.522472
 31
0.0
  0
LINE
  8
Top Right
 62
0
 10
69.729609
 20
-150.522472
 30
0.0
 11
69.729437
 21
-164.482472
 31
0.0
  0
LINE
  8
Top Right
 62
0
 10
69.729437
 20
-164.482472
 30
0.0
 11
55.769437
 21
-164.4823
 31
0.0
  0
LINE
  8
Top Right
 62
0
 10
55.769681
 20
-144.730498
 30
0.0
 11
55.769853
 21
-130.770498
 31
0.0
  0
LINE
  8
Top Right
 62
0
 10
55.769853
 20
-130.770498
 30
0.0
 11
69.729853
 21
-130.77067
 31
0.0
  0
LINE
  8
Top Right
 62
0
 10
69.729853
 20
-130.77067
 30
0.0
 11
69.729681
 21
-144.73067
 31
0.0
  0
LINE
  8
Top Right
 62
0
 10
69.729681
 20
-144.73067
 30
0.0
 11
55.769681
 21
-144.730498
 31
0.0
  0
LINE
  8
Top Right
 62
0
 10
55.769927
 20
-124.7313
 30
0.0
 11
55.770099
 21
-110.7713
 31
0.0
  0
LINE
  8
Top Right
 62
0
 10
55.770099
 20
-110.7713
 30
0.0
 11
69.730099
 21
-110.771472
 31
0.0
  0
LINE
  8
Top Right
 62
0
 10
69.729927
 20
-124.731472
 30
0.0
 11
55.769927
 21
-124.7313
 31
0.0
  0
LINE
  8
Top Right
 62
0
 10
69.730099
 20
-110.771472
 30
0.0
 11
69.729927
 21
-124.731472
 31
0.0
  0
LINE
  8
Top Right
 62
0
 10
36.018153
 20
-122.481886
 30
0.0
 11
36.018325
 21
-108.521886
 31
0.0
  0
LINE
  8
Top Right
 62
0
 10
115.019986
 20
-125.773017
 30
0.0
 11
128.979986
 21
-125.773189
 31
0.0
  0
LINE
  8
Top Right
 62
0
 10
128.979986
 20
-125.773189
 30
0.0
 11
128.979814
 21
-139.733189
 31
0.0
  0
LINE
  8
Top Right
 62
0
 10
128.979814
 20
-139.733189
 30
0.0
 11
115.019814
 21
-139.733017
 31
0.0
  0
LINE
  8
Top Right
 62
0
 10
115.019571
 20
-159.483295
 30
0.0
 11
115.019743
 21
-145.523295
 31
0.0
  0
LINE
  8
Top Right
 62
0
 10
115.019743
 20
-145.523295
 30
0.0
 11
128.979743
 21
-145.523467
 31
0.0
  0
LINE
  8
Top Right
 62
0
 10
128.979743
 20
-145.523467
 30
0.0
 11
128.979571
 21
-159.483467
 31
0.0
  0
LINE
  8
Bottom Left
 62
0
 10
274.244153
 20
-191.748993
 30
0.0
 11
268.993586
 21
-196.998786
 31
0.0
  0
LINE
  8
Bottom Left
 62
0
 10
205.493586
 20
-196.997179
 30
0.0
 11
197.745005
 21
-189.248713
 31
0.0
  0
LINE
  8
Bottom Left
 62
0
 10
278.747393
 20
-98.501135
 30
0.0
 11
279.496966
 21
-97.748806
 31
0.0
  0
LINE
  8
Bottom Left
 62
0
 10
160.995649
 20
-184.248047
 30
0.0
 11
160.997262
 21
-120.497349
 31
0.0
  0
LINE
  8
Bottom Left
 62
0
 10
197.745005
 20
-189.248713
 30
0.0
 11
165.995005
 21
-189.24791
 31
0.0
  0
LINE
  8
Bottom Left
 62
0
 10
244.999175
 20
-98.500281
 30
0.0
 11
278.747393
 21
-98.501135
 31
0.0
  0
LINE
  8
Bottom Left
 62
0
 10
239.996772
 20
-103.498112
 30
0.0
 11
244.999175
 21
-98.500281
 31
0.0
  0
LINE
  8
Bottom Left
 62
0
 10
239.996589
 20
-110.751082
 30
0.0
 11
239.996772
 21
-103.498112
 31
0.0
  0
POLYLINE
  8
Bottom Right
 62
0
 70
0
 66
1
 10
0.0
 20
0.0
 30
0.0
  0
VERTEX
  8
Bottom Right
 10
196.247802
 20
-113.499191
 30
0.0
  0
VERTEX
  8
Bottom Right
 10
165.998434
 20
-113.499194
 30
0.0
  0
SEQEND
  8
Bottom Right
  0
POLYLINE
  8
Bottom Right
 62
0
 70
0
 66
1
 10
0.0
 20
0.0
 30
0.0
  0
VERTEX
  8
Bottom Right
 10
245.747066
 20
-81.249061
 30
0.0
  0
VERTEX
  8
Bottom Right
 10
314.99788
 20
-81.249056
 30
0.0
  0
SEQEND
  8
Bottom Right
  0
POLYLINE
  8
Bottom Right
 62
0
 70
0
 66
1
 10
0.0
 20
0.0
 30
0.0
  0
VERTEX
  8
Bottom Right
 10
160.997982
 20
-10.248194
 30
0.0
  0
VERTEX
  8
Bottom Right
 10
160.998814
 20
-108.498189
 30
0.0
  0
SEQEND
  8
Bottom Right
  0
POLYLINE
  8
Bottom Right
 62
0
 70
0
 66
1
 10
0.0
 20
0.0
 30
0.0
  0
VERTEX
  8
Bottom Right
 10
206.499234
 20
-5.249979
 30
0.0
  0
VERTEX
  8
Bottom Right
 10
165.998427
 20
-5.249982
 30
0.0
  0
SEQEND
  8
Bottom Right
  0
POLYLINE
  8
Top Left
 62
0
 70
0
 66
1
 10
0.0
 20
0.0
 30
0.0
  0
VERTEX
  8
Top Left
 10
131.859467
 20
-18.869534
 30
0.0
  0
VERTEX
  8
Top Left
 10
131.859467
 20
-66.28894
 30
0.0
  0
SEQEND
  8
Top Left
  0
POLYLINE
  8
Top Left
 62
0
 70
0
 66
1
 10
0.0
 20
0.0
 30
0.0
  0
VERTEX
  8
Top Left
 10
23.981054
 20
-31.729562
 30
0.0
  0
VERTEX
  8
Top Left
 10
10.021054
 20
-31.729563
 30
0.0
  0
SEQEND
  8
Top Left
  0
POLYLINE
  8
Top Left
 62
0
 70
0
 66
1
 10
0.0
 20
0.0
 30
0.0
  0
VERTEX
  8
Top Left
 10
23.981054
 20
-17.769562
 30
0.0
  0
VERTEX
  8
Top Left
 10
10.021054
 20
-17.769562
 30
0.0
  0
SEQEND
  8
Top Left
  0
POLYLINE
  8
Top Left
 62
0
 70
0
 66
1
 10
0.0
 20
0.0
 30
0.0
  0
VERTEX
  8
Top Left
 10
123.500206
 20
-113.499194
 30
0.0
  0
VERTEX
  8
Top Left
 10
153.749574
 20
-113.499194
 30
0.0
  0
SEQEND
  8
Top Left
  0
POLYLINE
  8
Top Left
 62
0
 70
0
 66
1
 10
0.0
 20
0.0
 30
0.0
  0
VERTEX
  8
Top Left
 10
74.00094
 20
-81.249068
 30
0.0
  0
VERTEX
  8
Top Left
 10
4.750126
 20
-81.249068
 30
0.0
  0
SEQEND
  8
Top Left
  0
POLYLINE
  8
Top Left
 62
0
 70
0
 66
1
 10
0.0
 20
0.0
 30
0.0
  0
VERTEX
  8
Top Left
 10
150.640228
 20
-18.869534
 30
0.0
  0
VERTEX
  8
Top Left
 10
150.640228
 20
-66.28894
 30
0.0
  0
SEQEND
  8
Top Left
  0
POLYLINE
  8
Top Left
 62
0
 70
0
 66
1
 10
0.0
 20
0.0
 30
0.0
  0
VERTEX
  8
Top Left
 10
23.981054
 20
-17.769562
 30
0.0
  0
VERTEX
  8
Top Left
 10
23.981054
 20
-31.729562
 30
0.0
  0
SEQEND
  8
Top Left
  0
POLYLINE
  8
Top Left
 62
0
 70
0
 66
1
 10
0.0
 20
0.0
 30
0.0
  0
VERTEX
  8
Top Left
 10
150.640228
 20
-18.869534
 30
0.0
  0
VERTEX
  8
Top Left
 10
131.859467
 20
-18.869534
 30
0.0
  0
SEQEND
  8
Top Left
  0
POLYLINE
  8
Top Right
 62
0
 70
0
 66
1
 10
0.0
 20
0.0
 30
0.0
  0
VERTEX
  8
Top Right
 10
134.767827
 20
-179.232038
 30
0.0
  0
VERTEX
  8
Top Right
 10
148.727827
 20
-179.23221
 30
0.0
  0
SEQEND
  8
Top Right
  0
POLYLINE
  8
Top Right
 62
0
 70
0
 66
1
 10
0.0
 20
0.0
 30
0.0
  0
VERTEX
  8
Top Right
 10
134.767827
 20
-179.232038
 30
0.0
  0
VERTEX
  8
Top Right
 10
134.767999
 20
-165.272038
 30
0.0
  0
SEQEND
  8
Top Right
  0
POLYLINE
  8
Top Right
 62
0
 70
0
 66
1
 10
0.0
 20
0.0
 30
0.0
  0
VERTEX
  8
Top Right
 10
35.249856
 20
-83.501179
 30
0.0
  0
VERTEX
  8
Top Right
 10
5.000488
 20
-83.500806
 30
0.0
  0
SEQEND
  8
Top Right
  0
POLYLINE
  8
Top Right
 62
0
 70
0
 66
1
 10
0.0
 20
0.0
 30
0.0
  0
VERTEX
  8
Top Right
 10
84.748724
 20
-115.751915
 30
0.0
  0
VERTEX
  8
Top Right
 10
153.999538
 20
-115.752769
 30
0.0
  0
SEQEND
  8
Top Right
  0
POLYLINE
  8
Top Right
 62
0
 70
0
 66
1
 10
0.0
 20
0.0
 30
0.0
  0
VERTEX
  8
Top Right
 10
134.767999
 20
-165.272038
 30
0.0
  0
VERTEX
  8
Top Right
 10
148.727999
 20
-165.272209
 30
0.0
  0
SEQEND
  8
Top Right
  0
POLYLINE
  8
Top Right
 62
0
 70
0
 66
1
 10
0.0
 20
0.0
 30
0.0
  0
VERTEX
  8
Top Right
 10
4.999154
 20
-191.750018
 30
0.0
  0
VERTEX
  8
Top Right
 10
45.499961
 20
-191.750517
 30
0.0
  0
SEQEND
  8
Top Right
  0
POLYLINE
  8
Bottom Left
 62
0
 70
0
 66
1
 10
0.0
 20
0.0
 30
0.0
  0
VERTEX
  8
Bottom Left
 10
319.745531
 20
-186.751932
 30
0.0
  0
VERTEX
  8
Bottom Left
 10
319.747194
 20
-88.501938
 30
0.0
  0
SEQEND
  8
Bottom Left
  0
POLYLINE
  8
Bottom Left
 62
0
 70
0
 66
1
 10
0.0
 20
0.0
 30
0.0
  0
VERTEX
  8
Bottom Left
 10
274.244153
 20
-191.748993
 30
0.0
  0
VERTEX
  8
Bottom Left
 10
314.74496
 20
-191.750018
 30
0.0
  0
SEQEND
  8
Bottom Left
  0
POLYLINE
  8
Bottom Left
 62
0
 70
0
 66
1
 10
0.0
 20
0.0
 30
0.0
  0
VERTEX
  8
Bottom Left
 10
284.498333
 20
-83.500041
 30
0.0
  0
VERTEX
  8
Bottom Left
 10
314.747701
 20
-83.500806
 30
0.0
  0
SEQEND
  8
Bottom Left
  0
POLYLINE
  8
Bottom Left
 62
0
 70
0
 66
1
 10
0.0
 20
0.0
 30
0.0
  0
VERTEX
  8
Bottom Left
 10
234.99825
 20
-115.748914
 30
0.0
  0
VERTEX
  8
Bottom Left
 10
165.747436
 20
-115.747162
 30
0.0
  0
SEQEND
  8
Bottom Left
  0
ARC
  8
Bottom Right
 62
0
 10
165.998
 20
-10.25
 30
0.0
 40
5.000018
 50
89.995112
 51
179.97931
  0
ARC
  8
Bottom Right
 62
0
 10
165.998008
 20
-108.5
 30
0.0
 40
4.999194
 50
179.979241
 51
-89.995113
  0
ARC
  8
Bottom Right
 62
0
 10
314.748
 20
-12.747988
 30
0.0
 40
4.999928
 50
4.97831306038e-06
 51
89.994894
  0
ARC
  8
Bottom Right
 62
0
 10
314.997879
 20
-76.498875
 30
0.0
 40
4.750054
 50
-89.999995
 51
0.00153699982659
  0
ARC
  8
Top Left
 62
0
 10
153.75
 20
-10.25
 30
0.0
 40
5.000018
 50
0.0206950000008
 51
90.004893
  0
ARC
  8
Top Left
 62
0
 10
5.0
 20
-12.748
 30
0.0
 40
4.999928
 50
90.005111
 51
-180.0
  0
ARC
  8
Top Left
 62
0
 10
153.75
 20
-108.5
 30
0.0
 40
4.999194
 50
-90.004882
 51
0.0207640000069
  0
ARC
  8
Top Left
 62
0
 10
4.750126
 20
-76.498887
 30
0.0
 40
4.750054
 50
179.998468
 51
-90.0
  0
ARC
  8
Top Right
 62
0
 10
4.998789
 20
-186.75
 30
0.0
 40
5.000018
 50
-179.980011
 51
-89.995813
  0
ARC
  8
Top Right
 62
0
 10
5.0
 20
-88.5
 30
0.0
 40
4.999194
 50
89.994412
 51
-179.979942
  0
ARC
  8
Top Right
 62
0
 10
153.748819
 20
-184.253834
 30
0.0
 40
4.999928
 50
-89.995595
 51
-0.000706000084265
  0
ARC
  8
Top Right
 62
0
 10
153.999479
 20
-120.50295
 30
0.0
 40
4.750054
 50
-0.00223800000375
 51
89.999294
  0
ARC
  8
Bottom Left
 62
0
 10
314.745514
 20
-186.75
 30
0.0
 40
5.000018
 50
-90.006343
 51
-0.0221450000017
  0
ARC
  8
Bottom Left
 62
0
 10
314.748
 20
-88.5
 30
0.0
 40
4.999194
 50
-0.0222139999886
 51
90.003432
  0
ARC
  8
Bottom Left
 62
0
 10
165.995577
 20
-184.248236
 30
0.0
 40
4.999928
 50
179.99855
 51
-90.006561
  0
ARC
  8
Bottom Left
 62
0
 10
165.747316
 20
-120.497343
 30
0.0
 40
4.750054
 50
89.99855
 51
-179.999918002
  0
CIRCLE
  8
Bottom Right
 62
0
 10
314.748005
 20
-76.508988
 30
0.0
 40
1.75
  0
CIRCLE
  8
Bottom Right
 62
0
 10
314.748
 20
-12.747988
 30
0.0
 40
1.75
  0
CIRCLE
  8
Bottom Right
 62
0
 10
165.998
 20
-10.25
 30
0.0
 40
1.75
  0
CIRCLE
  8
Bottom Right
 62
0
 10
165.998008
 20
-108.5
 30
0.0
 40
1.75
  0
CIRCLE
  8
Top Left
 62
0
 10
153.75
 20
-108.5
 30
0.0
 40
1.75
  0
CIRCLE
  8
Top Left
 62
0
 10
5.0
 20
-76.509
 30
0.0
 40
1.75
  0
CIRCLE
  8
Top Left
 62
0
 10
153.75
 20
-10.25
 30
0.0
 40
1.75
  0
CIRCLE
  8
Top Left
 62
0
 10
5.0
 20
-12.748
 30
0.0
 40
1.75
  0
CIRCLE
  8
Top Right
 62
0
 10
153.748819
 20
-184.253834
 30
0.0
 40
1.75
  0
CIRCLE
  8
Top Right
 62
0
 10
153.749606
 20
-120.492834
 30
0.0
 40
1.75
  0
CIRCLE
  8
Top Right
 62
0
 10
5.0
 20
-88.5
 30
0.0
 40
1.75
  0
CIRCLE
  8
Top Right
 62
0
 10
4.998789
 20
-186.75
 30
0.0
 40
1.75
  0
CIRCLE
  8
Bottom Left
 62
0
 10
165.995577
 20
-184.248236
 30
0.0
 40
1.75
  0
CIRCLE
  8
Bottom Left
 62
0
 10
165.997191
 20
-120.487236
 30
0.0
 40
1.75
  0
CIRCLE
  8
Bottom Left
 62
0
 10
314.748
 20
-88.5
 30
0.0
 40
1.75
  0
CIRCLE
  8
Bottom Left
 62
0
 10
314.745514
 20
-186.75
 30
0.0
 40
1.75
  0
POLYLINE
  8
Top Left
 62
0
 70
0
 66
1
 10
0.0
 20
0.0
 30
0.0
  0
VERTEX
  8
Top Left
 10
113.248764038
 20
-5.24998188019
 30
0.0
  0
VERTEX
  8
Top Left
 10
153.749572754
 20
-5.24998188019
 30
0.0
  0
SEQEND
  8
Top Left
  0
POLYLINE
  8
Top Right
 62
0
 70
0
 66
1
 10
0.0
 20
0.0
 30
0.0
  0
VERTEX
  8
Top Right
 10
0.000806306314189
 20
-88.5017471313
 30
0.0
  0
VERTEX
  8
Top Right
 10
-0.00122869573534
 20
-186.751739502
 30
0.0
  0
SEQEND
  8
Top Right
  0
POLYLINE
  8
Top Left
 62
0
 70
0
 66
1
 10
0.0
 20
0.0
 30
0.0
  0
VERTEX
  8
Top Left
 10
158.750015259
 20
-10.2481937408
 30
0.0
  0
VERTEX
  8
Top Left
 10
158.747024536
 20
-108.525817871
 30
0.0
  0
SEQEND
  8
Top Left
  0
ENDSEC
  0
EOF
