  0
SECTION
  2
HEADER
  9
$ACADVER
  1
AC1009
  9
$INSBASE
 10
0.0
 20
0.0
 30
0.0
  9
$EXTMIN
 10
0.0
 20
0.0
 30
0.0
  9
$EXTMAX
 10
0.0
 20
0.0
 30
0.0
  0
ENDSEC
  0
SECTION
  2
TABLES
  0
TABLE
  2
VPORT
 70
0
  0
ENDTAB
  0
TABLE
  2
LTYPE
 70
1
  0
LTYPE
  2
CONTINUOUS
 70
0
  3
Solid line
 72
65
 73
0
 40
0.0
  0
ENDTAB
  0
TABLE
  2
LAYER
 70
1
  0
LAYER
  2
0
 70
64
 62
7
  6
continuous
  0
ENDTAB
  0
TABLE
  2
STYLE
 70
1
  0
STYLE
  2
STANDARD
 70
0
 40
0
 41
1.0
 50
0.0
 71
0
 42
1
 3
ARIAL.TTF
 4

  0
ENDTAB
  0
TABLE
  2
VIEW
 70
0
  0
ENDTAB
  0
ENDSEC
  0
SECTION
  2
BLOCKS
  0
ENDSEC
  0
SECTION
  2
ENTITIES
  0
LINE
  8
Bottom Left
 62
0
 10
268.993586463
 20
-196.998786236
 30
0.0
 11
205.493586483
 21
-196.997179392
 31
0.0
  0
LINE
  8
Bottom Left
 62
0
 10
284.498332512
 20
-83.5000405416
 30
0.0
 11
279.497199965
 21
-88.5009199914
 31
0.0
  0
LINE
  8
Bottom Left
 62
0
 10
239.99658892
 20
-110.75108245
 30
0.0
 11
234.99825045
 21
-115.748913971
 31
0.0
  0
LINE
  8
Bottom Left
 62
0
 10
279.496965951
 20
-97.7488059884
 30
0.0
 11
279.497199965
 21
-88.5009199914
 31
0.0
  0
LINE
  8
Top Left
 62
0
 10
117.749646
 20
-98.497954
 30
0.0
 11
118.4992
 21
-99.250302
 31
0.0
  0
LINE
  8
Top Left
 62
0
 10
89.019626
 20
-12.768556
 30
0.0
 11
102.979626
 21
-12.768556
 31
0.0
  0
LINE
  8
Top Left
 62
0
 10
69.268332
 20
-23.728562
 30
0.0
 11
69.268332
 21
-9.768562
 31
0.0
  0
LINE
  8
Bottom Right
 62
0
 10
206.499233593
 20
-5.2499785597
 30
0.0
 11
211.749667165
 21
-5.21321793268e-05
 31
0.0
  0
CIRCLE
  8
Bottom Right
 62
0
 10
314.748005395
 20
-76.5089877455
 30
0.0
 40
1.75
  0
LINE
  8
Top Left
 62
0
 10
143.250809
 20
-14.869534
 30
0.0
 11
133.250473
 21
-14.869534
 31
0.0
  0
LINE
  8
Bottom Right
 62
0
 10
282.998445796
 20
-7.74831633075
 30
0.0
 11
314.748445796
 21
-7.74831374551
 31
0.0
  0
LINE
  8
Top Left
 62
0
 10
29.769554
 20
-71.22834
 30
0.0
 11
29.769554
 21
-57.26834
 31
0.0
  0
ARC
  8
Top Left
 62
0
 10
153.75
 20
-10.25
 30
0.0
 40
5.000018
 50
0.0206950000008
 51
90.004893
  0
LINE
  8
Top Left
 62
0
 10
102.979626
 20
-86.229326
 30
0.0
 11
89.019626
 21
-86.229326
 31
0.0
  0
POLYLINE
  8
Bottom Right
 62
0
 70
0
 66
1
 10
0.0
 20
0.0
 30
0.0
  0
VERTEX
  8
Bottom Right
 10
196.247802407
 20
-113.499191394
 30
0.0
  0
VERTEX
  8
Bottom Right
 10
165.998434407
 20
-113.499193857
 30
0.0
  0
SEQEND
  8
Bottom Right
  0
POLYLINE
  8
Top Left
 62
0
 70
0
 66
1
 10
0.0
 20
0.0
 30
0.0
  0
VERTEX
  8
Top Left
 10
131.859467
 20
-18.869534
 30
0.0
  0
VERTEX
  8
Top Left
 10
131.859467
 20
-66.28894
 30
0.0
  0
SEQEND
  8
Top Left
  0
LINE
  8
Top Left
 62
0
 10
108.771428
 20
-68.729996
 30
0.0
 11
108.771428
 21
-54.769996
 31
0.0
  0
CIRCLE
  8
Bottom Right
 62
0
 10
314.748000203
 20
-12.7479877455
 30
0.0
 40
1.75
  0
POLYLINE
  8
Top Left
 62
0
 70
0
 66
1
 10
0.0
 20
0.0
 30
0.0
  0
VERTEX
  8
Top Left
 10
158.750076
 20
-82.999702
 30
0.0
  0
VERTEX
  8
Top Left
 10
149.131028
 20
-82.9997
 30
0.0
  0
SEQEND
  8
Top Left
  0
POLYLINE
  8
Bottom Right
 62
0
 70
0
 66
1
 10
0.0
 20
0.0
 30
0.0
  0
VERTEX
  8
Bottom Right
 10
245.747065781
 20
-81.2490613639
 30
0.0
  0
VERTEX
  8
Bottom Right
 10
314.997879781
 20
-81.2490557252
 30
0.0
  0
SEQEND
  8
Bottom Right
  0
LINE
  8
Bottom Right
 62
0
 10
240.748854779
 20
-93.4999897709
 30
0.0
 11
235.746579186
 21
-98.4979481782
 31
0.0
  0
LINE
  8
Top Left
 62
0
 10
102.979626
 20
-52.270128
 30
0.0
 11
102.979626
 21
-66.230128
 31
0.0
  0
LINE
  8
Top Left
 62
0
 10
49.519832
 20
-66.230128
 30
0.0
 11
49.519832
 21
-52.270128
 31
0.0
  0
LINE
  8
Top Left
 62
0
 10
113.248764
 20
-5.249982
 30
0.0
 11
133.249176
 21
-5.249982
 31
0.0
  0
LINE
  8
Top Left
 62
0
 10
89.019626
 20
-66.230128
 30
0.0
 11
89.019626
 21
-52.270128
 31
0.0
  0
LINE
  8
Top Left
 62
0
 10
102.979626
 20
-72.269326
 30
0.0
 11
102.979626
 21
-86.229326
 31
0.0
  0
LINE
  8
Top Left
 62
0
 10
108.771428
 20
-15.269694
 30
0.0
 11
122.731428
 21
-15.269694
 31
0.0
  0
LINE
  8
Top Left
 62
0
 10
69.268332
 20
-49.76899
 30
0.0
 11
83.228332
 21
-49.76899
 31
0.0
  0
LINE
  8
Top Left
 62
0
 10
63.479832
 20
-32.518326
 30
0.0
 11
63.479832
 21
-46.478326
 31
0.0
  0
LINE
  8
Top Left
 62
0
 10
108.771428
 20
-88.478496
 30
0.0
 11
108.771428
 21
-74.518496
 31
0.0
  0
CIRCLE
  8
Top Left
 62
0
 10
153.75
 20
-108.5
 30
0.0
 40
1.75
  0
POLYLINE
  8
Bottom Left
 62
0
 70
0
 66
1
 10
0.0
 20
0.0
 30
0.0
  0
VERTEX
  8
Bottom Left
 10
319.745531446
 20
-186.751932478
 30
0.0
  0
VERTEX
  8
Bottom Left
 10
319.747193624
 20
-88.5019382117
 30
0.0
  0
SEQEND
  8
Bottom Left
  0
LINE
  8
Top Left
 62
0
 10
43.729554
 20
-31.729562
 30
0.0
 11
29.769554
 21
-31.729562
 31
0.0
  0
LINE
  8
Top Left
 62
0
 10
150.640234
 20
-66.28894
 30
0.0
 11
131.859472
 21
-66.28894
 31
0.0
  0
LINE
  8
Top Left
 62
0
 10
10.021054
 20
-71.22834
 30
0.0
 11
10.021054
 21
-57.26834
 31
0.0
  0
LINE
  8
Top Left
 62
0
 10
102.979626
 20
-26.728556
 30
0.0
 11
89.019626
 21
-26.728556
 31
0.0
  0
LINE
  8
Top Left
 62
0
 10
149.131028
 20
-72.998068
 30
0.0
 11
158.750076
 21
-72.998068
 31
0.0
  0
POLYLINE
  8
Top Left
 62
0
 70
0
 66
1
 10
0.0
 20
0.0
 30
0.0
  0
VERTEX
  8
Top Left
 10
149.131028
 20
-72.998068
 30
0.0
  0
VERTEX
  8
Top Left
 10
149.131028
 20
-82.9997
 30
0.0
  0
SEQEND
  8
Top Left
  0
LINE
  8
Top Left
 62
0
 10
102.979626
 20
-46.478326
 30
0.0
 11
89.019626
 21
-46.478326
 31
0.0
  0
POLYLINE
  8
Top Left
 62
0
 70
0
 66
1
 10
0.0
 20
0.0
 30
0.0
  0
VERTEX
  8
Top Left
 10
23.981054
 20
-31.729562
 30
0.0
  0
VERTEX
  8
Top Left
 10
10.021054
 20
-31.729563
 30
0.0
  0
SEQEND
  8
Top Left
  0
POLYLINE
  8
Top Left
 62
0
 70
0
 66
1
 10
0.0
 20
0.0
 30
0.0
  0
VERTEX
  8
Top Left
 10
23.981054
 20
-17.769562
 30
0.0
  0
VERTEX
  8
Top Left
 10
10.021054
 20
-17.769562
 30
0.0
  0
SEQEND
  8
Top Left
  0
LINE
  8
Top Left
 62
0
 10
29.769554
 20
-51.478062
 30
0.0
 11
29.769554
 21
-37.518062
 31
0.0
  0
LINE
  8
Top Left
 62
0
 10
10.021054
 20
-37.518062
 30
0.0
 11
23.981054
 21
-37.518062
 31
0.0
  0
LINE
  8
Top Left
 62
0
 10
63.479832
 20
-26.728556
 30
0.0
 11
49.519832
 21
-26.728556
 31
0.0
  0
POLYLINE
  8
Top Left
 62
0
 70
0
 66
1
 10
0.0
 20
0.0
 30
0.0
  0
VERTEX
  8
Top Left
 10
123.500206
 20
-113.499194
 30
0.0
  0
VERTEX
  8
Top Left
 10
153.749574
 20
-113.499194
 30
0.0
  0
SEQEND
  8
Top Left
  0
LINE
  8
Top Left
 62
0
 10
158.750076
 20
-10.248194
 30
0.0
 11
158.750076
 21
-72.998068
 31
0.0
  0
LINE
  8
Top Left
 62
0
 10
89.019626
 20
-46.478326
 30
0.0
 11
89.019626
 21
-32.518326
 31
0.0
  0
LINE
  8
Top Left
 62
0
 10
128.519928
 20
-89.519482
 30
0.0
 11
142.479928
 21
-89.519482
 31
0.0
  0
LINE
  8
Top Left
 62
0
 10
122.731428
 20
-48.978194
 30
0.0
 11
108.771428
 21
-48.978194
 31
0.0
  0
LINE
  8
Top Left
 62
0
 10
84.001428
 20
-98.497954
 30
0.0
 11
117.749646
 21
-98.497954
 31
0.0
  0
POLYLINE
  8
Top Left
 62
0
 70
0
 66
1
 10
0.0
 20
0.0
 30
0.0
  0
VERTEX
  8
Top Left
 10
74.00094
 20
-81.249068
 30
0.0
  0
VERTEX
  8
Top Left
 10
4.750126
 20
-81.249068
 30
0.0
  0
SEQEND
  8
Top Left
  0
ARC
  8
Top Left
 62
0
 10
5.0
 20
-12.748
 30
0.0
 40
4.999928
 50
90.005111
 51
-180.0
  0
LINE
  8
Top Left
 62
0
 10
89.019626
 20
-86.229326
 30
0.0
 11
89.019626
 21
-72.269326
 31
0.0
  0
LINE
  8
Top Left
 62
0
 10
63.479832
 20
-46.478326
 30
0.0
 11
49.519832
 21
-46.478326
 31
0.0
  0
LINE
  8
Top Left
 62
0
 10
83.228332
 20
-23.728562
 30
0.0
 11
69.268332
 21
-23.728562
 31
0.0
  0
LINE
  8
Top Left
 62
0
 10
108.771428
 20
-35.018194
 30
0.0
 11
122.731428
 21
-35.018194
 31
0.0
  0
LINE
  8
Top Left
 62
0
 10
36.749554
 20
-7.748326
 30
0.0
 11
4.999554
 21
-7.748326
 31
0.0
  0
ARC
  8
Top Left
 62
0
 10
153.75
 20
-108.5
 30
0.0
 40
4.999194
 50
-90.004882
 51
0.0207640000069
  0
LINE
  8
Top Left
 62
0
 10
43.729554
 20
-37.518062
 30
0.0
 11
43.729554
 21
-51.478062
 31
0.0
  0
LINE
  8
Top Left
 62
0
 10
49.519832
 20
-32.518326
 30
0.0
 11
63.479832
 21
-32.518326
 31
0.0
  0
POLYLINE
  8
Top Left
 62
0
 70
0
 66
1
 10
0.0
 20
0.0
 30
0.0
  0
VERTEX
  8
Top Left
 10
150.640228
 20
-18.869534
 30
0.0
  0
VERTEX
  8
Top Left
 10
150.640228
 20
-66.28894
 30
0.0
  0
SEQEND
  8
Top Left
  0
LINE
  8
Top Left
 62
0
 10
102.979626
 20
-32.518326
 30
0.0
 11
102.979626
 21
-46.478326
 31
0.0
  0
LINE
  8
Top Left
 62
0
 10
23.981054
 20
-57.26834
 30
0.0
 11
23.981054
 21
-71.22834
 31
0.0
  0
LINE
  8
Top Left
 62
0
 10
108.771428
 20
-74.518496
 30
0.0
 11
122.731428
 21
-74.518496
 31
0.0
  0
LINE
  8
Top Left
 62
0
 10
128.519928
 20
-103.479482
 30
0.0
 11
128.519928
 21
-89.519482
 31
0.0
  0
LINE
  8
Top Left
 62
0
 10
108.771428
 20
-29.229694
 30
0.0
 11
108.771428
 21
-15.269694
 31
0.0
  0
LINE
  8
Top Left
 62
0
 10
89.019626
 20
-32.518326
 30
0.0
 11
102.979626
 21
-32.518326
 31
0.0
  0
LINE
  8
Top Left
 62
0
 10
122.731428
 20
-74.518496
 30
0.0
 11
122.731428
 21
-88.478496
 31
0.0
  0
LINE
  8
Top Left
 62
0
 10
89.019626
 20
-26.728556
 30
0.0
 11
89.019626
 21
-12.768556
 31
0.0
  0
LINE
  8
Top Left
 62
0
 10
89.019626
 20
-72.269326
 30
0.0
 11
102.979626
 21
-72.269326
 31
0.0
  0
LINE
  8
Top Left
 62
0
 10
102.979626
 20
-66.230128
 30
0.0
 11
89.019626
 21
-66.230128
 31
0.0
  0
LINE
  8
Top Left
 62
0
 10
122.731428
 20
-35.018194
 30
0.0
 11
122.731428
 21
-48.978194
 31
0.0
  0
POLYLINE
  8
Top Left
 62
0
 70
0
 66
1
 10
0.0
 20
0.0
 30
0.0
  0
VERTEX
  8
Top Left
 10
23.981054
 20
-17.769562
 30
0.0
  0
VERTEX
  8
Top Left
 10
23.981054
 20
-31.729562
 30
0.0
  0
SEQEND
  8
Top Left
  0
LINE
  8
Top Left
 62
0
 10
108.771428
 20
-48.978194
 30
0.0
 11
108.771428
 21
-35.018194
 31
0.0
  0
LINE
  8
Top Left
 62
0
 10
83.228332
 20
-30.019982
 30
0.0
 11
83.228332
 21
-43.979982
 31
0.0
  0
LINE
  8
Top Left
 62
0
 10
10.021054
 20
-17.769562
 30
0.0
 11
10.021054
 21
-31.729563
 31
0.0
  0
LINE
  8
Top Left
 62
0
 10
142.479928
 20
-89.519482
 30
0.0
 11
142.479928
 21
-103.479482
 31
0.0
  0
LINE
  8
Top Left
 62
0
 10
49.519832
 20
-26.728556
 30
0.0
 11
49.519832
 21
-12.768556
 31
0.0
  0
LINE
  8
Top Left
 62
0
 10
69.268332
 20
-30.019982
 30
0.0
 11
83.228332
 21
-30.019982
 31
0.0
  0
POLYLINE
  8
Bottom Left
 62
0
 70
0
 66
1
 10
0.0
 20
0.0
 30
0.0
  0
VERTEX
  8
Bottom Left
 10
274.244153309
 20
-191.748993098
 30
0.0
  0
VERTEX
  8
Bottom Left
 10
314.7449603
 20
-191.750017938
 30
0.0
  0
SEQEND
  8
Bottom Left
  0
LINE
  8
Top Left
 62
0
 10
43.729554
 20
-71.22834
 30
0.0
 11
29.769554
 21
-71.22834
 31
0.0
  0
LINE
  8
Top Left
 62
0
 10
102.979626
 20
-12.768556
 30
0.0
 11
102.979626
 21
-26.728556
 31
0.0
  0
LINE
  8
Top Left
 62
0
 10
113.248766
 20
-5.249982
 30
0.0
 11
107.998332
 21
-5.59999999998e-05
 31
0.0
  0
LINE
  8
Top Left
 62
0
 10
49.519832
 20
-12.768556
 30
0.0
 11
63.479832
 21
-12.768556
 31
0.0
  0
LINE
  8
Top Left
 62
0
 10
10.021054
 20
-57.26834
 30
0.0
 11
23.981054
 21
-57.26834
 31
0.0
  0
LINE
  8
Top Left
 62
0
 10
122.731428
 20
-29.229694
 30
0.0
 11
108.771428
 21
-29.229694
 31
0.0
  0
LINE
  8
Top Left
 62
0
 10
49.519832
 20
-52.270128
 30
0.0
 11
63.479832
 21
-52.270128
 31
0.0
  0
LINE
  8
Top Left
 62
0
 10
29.769554
 20
-37.518062
 30
0.0
 11
43.729554
 21
-37.518062
 31
0.0
  0
LINE
  8
Top Left
 62
0
 10
83.228332
 20
-9.768562
 30
0.0
 11
83.228332
 21
-23.728562
 31
0.0
  0
ARC
  8
Top Left
 62
0
 10
4.750126
 20
-76.498887
 30
0.0
 40
4.750054
 50
179.998468
 51
-90.0
  0
LINE
  8
Top Left
 62
0
 10
83.228332
 20
-43.979982
 30
0.0
 11
69.268332
 21
-43.979982
 31
0.0
  0
LINE
  8
Top Left
 62
0
 10
10.021054
 20
-51.478062
 30
0.0
 11
10.021054
 21
-37.518062
 31
0.0
  0
LINE
  8
Top Left
 62
0
 10
29.769554
 20
-57.26834
 30
0.0
 11
43.729554
 21
-57.26834
 31
0.0
  0
CIRCLE
  8
Top Left
 62
0
 10
5.0
 20
-76.509
 30
0.0
 40
1.75
  0
CIRCLE
  8
Top Left
 62
0
 10
153.75
 20
-10.25
 30
0.0
 40
1.75
  0
CIRCLE
  8
Bottom Right
 62
0
 10
165.998
 20
-10.2499998575
 30
0.0
 40
1.75
  0
LINE
  8
Top Left
 62
0
 10
43.729554
 20
-51.478062
 30
0.0
 11
29.769554
 21
-51.478062
 31
0.0
  0
LINE
  8
Bottom Right
 62
0
 10
319.747928203
 20
-12.7480493384
 30
0.0
 11
319.747933394
 21
-76.4987473384
 31
0.0
  0
LINE
  8
Bottom Right
 62
0
 10
201.998361186
 20
-98.4979509262
 30
0.0
 11
201.248807247
 21
-99.2502989872
 31
0.0
  0
LINE
  8
Top Left
 62
0
 10
78.999152
 20
-86.247026
 30
0.0
 11
74.00094
 21
-81.249068
 31
0.0
  0
LINE
  8
Top Left
 62
0
 10
158.750076
 20
-108.498184
 30
0.0
 11
158.750076
 21
-82.999702
 31
0.0
  0
LINE
  8
Top Left
 62
0
 10
122.731428
 20
-68.729996
 30
0.0
 11
108.771428
 21
-68.729996
 31
0.0
  0
LINE
  8
Top Left
 62
0
 10
143.250809
 20
-5.249982
 30
0.0
 11
153.749573
 21
-5.249982
 31
0.0
  0
LINE
  8
Top Left
 62
0
 10
122.731428
 20
-88.478496
 30
0.0
 11
108.771428
 21
-88.478496
 31
0.0
  0
LINE
  8
Top Right
 62
0
 10
95.268987606
 20
-184.232557041
 30
0.0
 11
95.2691597355
 21
-170.272557042
 31
0.0
  0
LINE
  8
Top Left
 62
0
 10
69.268332
 20
-43.979982
 30
0.0
 11
69.268332
 21
-30.019982
 31
0.0
  0
CIRCLE
  8
Top Left
 62
0
 10
5.0
 20
-12.748
 30
0.0
 40
1.75
  0
LINE
  8
Top Left
 62
0
 10
49.519832
 20
-46.478326
 30
0.0
 11
49.519832
 21
-32.518326
 31
0.0
  0
LINE
  8
Top Left
 62
0
 10
43.729554
 20
-17.769562
 30
0.0
 11
43.729554
 21
-31.729562
 31
0.0
  0
LINE
  8
Top Left
 62
0
 10
69.268332
 20
-9.768562
 30
0.0
 11
83.228332
 21
-9.768562
 31
0.0
  0
POLYLINE
  8
Top Left
 62
0
 70
0
 66
1
 10
0.0
 20
0.0
 30
0.0
  0
VERTEX
  8
Top Left
 10
150.640228
 20
-18.869534
 30
0.0
  0
VERTEX
  8
Top Left
 10
131.859467
 20
-18.869534
 30
0.0
  0
SEQEND
  8
Top Left
  0
LINE
  8
Bottom Left
 62
0
 10
205.493586483
 20
-196.997179392
 30
0.0
 11
197.745004553
 21
-189.248713314
 31
0.0
  0
LINE
  8
Bottom Left
 62
0
 10
244.999174924
 20
-98.5002810347
 30
0.0
 11
278.747392913
 21
-98.501135021
 31
0.0
  0
LINE
  8
Bottom Left
 62
0
 10
239.996772454
 20
-103.498112452
 30
0.0
 11
244.999174924
 21
-98.5002810347
 31
0.0
  0
LINE
  8
Bottom Left
 62
0
 10
239.99658892
 20
-110.75108245
 30
0.0
 11
239.996772454
 21
-103.498112452
 31
0.0
  0
POLYLINE
  8
Bottom Left
 62
0
 70
0
 66
1
 10
0.0
 20
0.0
 30
0.0
  0
VERTEX
  8
Bottom Left
 10
284.498332512
 20
-83.5000405416
 30
0.0
  0
VERTEX
  8
Bottom Left
 10
314.747700502
 20
-83.5008059908
 30
0.0
  0
SEQEND
  8
Bottom Left
  0
POLYLINE
  8
Bottom Left
 62
0
 70
0
 66
1
 10
0.0
 20
0.0
 30
0.0
  0
VERTEX
  8
Bottom Left
 10
234.99825045
 20
-115.748913971
 30
0.0
  0
VERTEX
  8
Bottom Left
 10
165.747436472
 20
-115.747161604
 30
0.0
  0
SEQEND
  8
Bottom Left
  0
ARC
  8
Bottom Left
 62
0
 10
314.745513819
 20
-186.749999969
 30
0.0
 40
5.000018
 50
-90.0063428487
 51
-0.0221448487019
  0
ARC
  8
Bottom Left
 62
0
 10
314.748
 20
-88.5
 30
0.0
 40
4.999194
 50
-0.0222138486829
 51
90.0034321513
  0
ARC
  8
Bottom Left
 62
0
 10
165.995577078
 20
-184.248235905
 30
0.0
 40
4.999928
 50
179.998550151
 51
-90.0065608487
  0
ARC
  8
Bottom Left
 62
0
 10
165.747316271
 20
-120.497342603
 30
0.0
 40
4.750054
 50
89.9985501513
 51
-179.999917851
  0
CIRCLE
  8
Bottom Left
 62
0
 10
165.995577078
 20
-184.248235905
 30
0.0
 40
1.75
  0
CIRCLE
  8
Bottom Left
 62
0
 10
165.997190527
 20
-120.487235926
 30
0.0
 40
1.75
  0
CIRCLE
  8
Bottom Left
 62
0
 10
314.748
 20
-88.5
 30
0.0
 40
1.75
  0
CIRCLE
  8
Bottom Left
 62
0
 10
314.745513819
 20
-186.749999969
 30
0.0
 40
1.75
  0
LINE
  8
Bottom Left
 62
0
 10
278.747392913
 20
-98.501135021
 30
0.0
 11
279.496965951
 21
-97.7488059884
 31
0.0
  0
LINE
  8
Bottom Left
 62
0
 10
160.995649081
 20
-184.248047384
 30
0.0
 11
160.997262269
 21
-120.497349404
 31
0.0
  0
LINE
  8
Bottom Left
 62
0
 10
197.745004553
 20
-189.248713314
 30
0.0
 11
165.995004563
 21
-189.247909892
 31
0.0
  0
LINE
  8
Bottom Left
 62
0
 10
274.244153309
 20
-191.748993098
 30
0.0
 11
268.993586463
 21
-196.998786236
 31
0.0
  0
LINE
  8
Top Left
 62
0
 10
23.981054
 20
-71.22834
 30
0.0
 11
10.021054
 21
-71.22834
 31
0.0
  0
LINE
  8
Top Left
 62
0
 10
89.019626
 20
-52.270128
 30
0.0
 11
102.979626
 21
-52.270128
 31
0.0
  0
LINE
  8
Top Right
 62
0
 10
95.2696467975
 20
-130.770985045
 30
0.0
 11
109.229646796
 21
-130.771157175
 31
0.0
  0
LINE
  8
Top Left
 62
0
 10
142.479928
 20
-103.479482
 30
0.0
 11
128.519928
 21
-103.479482
 31
0.0
  0
CIRCLE
  8
Bottom Right
 62
0
 10
165.998008
 20
-108.499999858
 30
0.0
 40
1.75
  0
LINE
  8
Bottom Right
 62
0
 10
275.249667165
 20
-4.69616953165e-05
 30
0.0
 11
282.998445796
 21
-7.74831633075
 31
0.0
  0
LINE
  8
Bottom Right
 62
0
 10
211.749667165
 20
-5.2132179327e-05
 30
0.0
 11
275.249667165
 21
-4.69616953165e-05
 31
0.0
  0
LINE
  8
Bottom Right
 62
0
 10
196.247802407
 20
-113.499191394
 30
0.0
 11
201.248808
 21
-108.498184987
 31
0.0
  0
LINE
  8
Bottom Right
 62
0
 10
240.748854188
 20
-86.2470197709
 30
0.0
 11
245.747065781
 21
-81.2490613639
 31
0.0
  0
LINE
  8
Bottom Right
 62
0
 10
201.248807247
 20
-99.2502989872
 30
0.0
 11
201.248808
 21
-108.498184987
 31
0.0
  0
POLYLINE
  8
Bottom Right
 62
0
 70
0
 66
1
 10
0.0
 20
0.0
 30
0.0
  0
VERTEX
  8
Bottom Right
 10
160.997982326
 20
-10.2481942787
 30
0.0
  0
VERTEX
  8
Bottom Right
 10
160.998814328
 20
-108.498188556
 30
0.0
  0
SEQEND
  8
Bottom Right
  0
POLYLINE
  8
Bottom Right
 62
0
 70
0
 66
1
 10
0.0
 20
0.0
 30
0.0
  0
VERTEX
  8
Bottom Right
 10
206.499233593
 20
-5.2499785597
 30
0.0
  0
VERTEX
  8
Bottom Right
 10
165.998426589
 20
-5.2499818757
 30
0.0
  0
SEQEND
  8
Bottom Right
  0
LINE
  8
Bottom Right
 62
0
 10
235.746579186
 20
-98.4979481782
 30
0.0
 11
201.998361186
 21
-98.4979509262
 31
0.0
  0
LINE
  8
Bottom Right
 62
0
 10
240.748854188
 20
-86.2470197709
 30
0.0
 11
240.748854779
 21
-93.4999897709
 31
0.0
  0
ARC
  8
Bottom Right
 62
0
 10
165.998
 20
-10.2499998575
 30
0.0
 40
5.000018
 50
89.9951116653
 51
179.979309665
  0
ARC
  8
Bottom Right
 62
0
 10
165.998008
 20
-108.499999858
 30
0.0
 40
4.999194
 50
179.979240665
 51
-89.9951133347
  0
ARC
  8
Bottom Right
 62
0
 10
314.748000203
 20
-12.7479877455
 30
0.0
 40
4.999928
 50
4.67631085055e-06
 51
89.9948936653
  0
ARC
  8
Bottom Right
 62
0
 10
314.997879394
 20
-76.4988747252
 30
0.0
 40
4.750054
 50
-89.9999953347
 51
0.00153666520345
  0
LINE
  8
Top Left
 62
0
 10
44.498332
 20
-5.6e-05
 30
0.0
 11
36.749554
 21
-7.748326
 31
0.0
  0
LINE
  8
Top Left
 62
0
 10
63.479832
 20
-12.768556
 30
0.0
 11
63.479832
 21
-26.728556
 31
0.0
  0
LINE
  8
Top Left
 62
0
 10
63.479832
 20
-66.230128
 30
0.0
 11
49.519832
 21
-66.230128
 31
0.0
  0
LINE
  8
Top Left
 62
0
 10
107.998332
 20
-5.6e-05
 30
0.0
 11
44.498332
 21
-5.6e-05
 31
0.0
  0
LINE
  8
Top Left
 62
0
 10
69.268332
 20
-63.72899
 30
0.0
 11
69.268332
 21
-49.76899
 31
0.0
  0
LINE
  8
Top Left
 62
0
 10
63.479832
 20
-52.270128
 30
0.0
 11
63.479832
 21
-66.230128
 31
0.0
  0
LINE
  8
Top Left
 62
0
 10
43.729554
 20
-57.26834
 30
0.0
 11
43.729554
 21
-71.22834
 31
0.0
  0
LINE
  8
Top Left
 62
0
 10
78.999152
 20
-93.499996
 30
0.0
 11
84.001428
 21
-98.497954
 31
0.0
  0
LINE
  8
Top Left
 62
0
 10
83.228332
 20
-49.76899
 30
0.0
 11
83.228332
 21
-63.72899
 31
0.0
  0
LINE
  8
Top Left
 62
0
 10
133.250476
 20
-14.869534
 30
0.0
 11
133.249176
 21
-5.249982
 31
0.0
  0
LINE
  8
Top Left
 62
0
 10
143.250809
 20
-14.869534
 30
0.0
 11
143.250809
 21
-5.249982
 31
0.0
  0
LINE
  8
Top Left
 62
0
 10
122.731428
 20
-15.269694
 30
0.0
 11
122.731428
 21
-29.229694
 31
0.0
  0
LINE
  8
Top Left
 62
0
 10
123.500206
 20
-113.499194
 30
0.0
 11
118.4992
 21
-108.498188
 31
0.0
  0
LINE
  8
Top Left
 62
0
 10
108.771428
 20
-54.769996
 30
0.0
 11
122.731428
 21
-54.769996
 31
0.0
  0
LINE
  8
Top Left
 62
0
 10
29.769554
 20
-31.729562
 30
0.0
 11
29.769554
 21
-17.769562
 31
0.0
  0
LINE
  8
Top Left
 62
0
 10
29.769554
 20
-17.769562
 30
0.0
 11
43.729554
 21
-17.769562
 31
0.0
  0
LINE
  8
Top Left
 62
0
 10
118.4992
 20
-99.250302
 30
0.0
 11
118.4992
 21
-108.498188
 31
0.0
  0
LINE
  8
Top Left
 62
0
 10
78.999152
 20
-86.247026
 30
0.0
 11
78.999152
 21
-93.499996
 31
0.0
  0
LINE
  8
Top Left
 62
0
 10
23.981054
 20
-37.518062
 30
0.0
 11
23.981054
 21
-51.478062
 31
0.0
  0
LINE
  8
Top Left
 62
0
 10
23.981054
 20
-51.478062
 30
0.0
 11
10.021054
 21
-51.478062
 31
0.0
  0
LINE
  8
Top Left
 62
0
 10
83.228332
 20
-63.72899
 30
0.0
 11
69.268332
 21
-63.72899
 31
0.0
  0
LINE
  8
Top Left
 62
0
 10
122.731428
 20
-54.769996
 30
0.0
 11
122.731428
 21
-68.729996
 31
0.0
  0
LINE
  8
Top Left
 62
0
 10
7.2e-05
 20
-12.748062
 30
0.0
 11
7.2e-05
 21
-76.49876
 31
0.0
  0
LINE
  8
Top Right
 62
0
 10
50.7503301713
 20
-197.000508119
 30
0.0
 11
114.250330166
 21
-197.001291086
 31
0.0
  0
LINE
  8
Top Right
 62
0
 10
114.250330166
 20
-197.001291086
 30
0.0
 11
121.999203704
 21
-189.25311663
 31
0.0
  0
LINE
  8
Top Right
 62
0
 10
35.2498556387
 20
-83.5011789862
 30
0.0
 11
40.250799975
 21
-88.5022466492
 31
0.0
  0
LINE
  8
Top Right
 62
0
 10
79.7505736109
 20
-110.753895691
 30
0.0
 11
84.7487239847
 21
-115.751915319
 31
0.0
  0
LINE
  8
Top Right
 62
0
 10
9.618534254
 20
-124.00198895
 30
0.0
 11
-0.000513745269728
 21
-124.001870345
 31
0.0
  0
LINE
  8
Top Right
 62
0
 10
148.727827265
 20
-179.232210199
 30
0.0
 11
148.727999395
 21
-165.2722092
 31
0.0
  0
LINE
  8
Top Right
 62
0
 10
36.0183251287
 20
-108.521886463
 30
0.0
 11
49.9783251276
 21
-108.522058593
 31
0.0
  0
LINE
  8
Top Right
 62
0
 10
49.9783251276
 20
-108.522058593
 30
0.0
 11
49.9781529981
 21
-122.482058592
 31
0.0
  0
LINE
  8
Top Right
 62
0
 10
49.9781529981
 20
-122.482058592
 30
0.0
 11
36.0181529992
 21
-122.481886462
 31
0.0
  0
LINE
  8
Top Right
 62
0
 10
36.0179094964
 20
-142.230386461
 30
0.0
 11
36.0180816258
 21
-128.270386462
 31
0.0
  0
LINE
  8
Top Right
 62
0
 10
36.0180816258
 20
-128.270386462
 30
0.0
 11
49.9780816248
 21
-128.270558591
 31
0.0
  0
LINE
  8
Top Right
 62
0
 10
49.9780816248
 20
-128.270558591
 30
0.0
 11
49.9779094953
 21
-142.23055859
 31
0.0
  0
LINE
  8
Top Right
 62
0
 10
49.9779094953
 20
-142.23055859
 30
0.0
 11
36.0179094964
 21
-142.230386461
 31
0.0
  0
LINE
  8
Top Right
 62
0
 10
36.0176659528
 20
-161.982188459
 30
0.0
 11
36.0178380823
 21
-148.02218846
 31
0.0
  0
LINE
  8
Top Right
 62
0
 10
36.0178380823
 20
-148.02218846
 30
0.0
 11
49.9778380813
 21
-148.02236059
 31
0.0
  0
LINE
  8
Top Right
 62
0
 10
49.9778380813
 20
-148.02236059
 30
0.0
 11
49.9776659518
 21
-161.982360589
 31
0.0
  0
LINE
  8
Top Right
 62
0
 10
49.9776659518
 20
-161.982360589
 30
0.0
 11
36.0176659528
 21
-161.982188459
 31
0.0
  0
LINE
  8
Top Right
 62
0
 10
36.01742245
 20
-181.730688458
 30
0.0
 11
36.0175945795
 21
-167.770688459
 31
0.0
  0
LINE
  8
Top Right
 62
0
 10
36.0175945795
 20
-167.770688459
 30
0.0
 11
49.9775945784
 21
-167.770860588
 31
0.0
  0
LINE
  8
Top Right
 62
0
 10
49.9775945784
 20
-167.770860588
 30
0.0
 11
49.977422449
 21
-181.730860587
 31
0.0
  0
LINE
  8
Top Right
 62
0
 10
49.977422449
 20
-181.730860587
 30
0.0
 11
36.01742245
 21
-181.730688458
 31
0.0
  0
LINE
  8
Top Right
 62
0
 10
16.2698379657
 20
-107.480656961
 30
0.0
 11
16.2700100952
 21
-93.5206569618
 31
0.0
  0
LINE
  8
Top Right
 62
0
 10
16.2700100952
 20
-93.5206569618
 30
0.0
 11
30.2300100941
 21
-93.5208290913
 31
0.0
  0
LINE
  8
Top Right
 62
0
 10
30.2300100941
 20
-93.5208290913
 30
0.0
 11
30.2298379646
 21
-107.48082909
 31
0.0
  0
LINE
  8
Top Right
 62
0
 10
30.2298379646
 20
-107.48082909
 30
0.0
 11
16.2698379657
 21
-107.480656961
 31
0.0
  0
LINE
  8
Top Right
 62
0
 10
25.4983695168
 20
-182.130718756
 30
0.0
 11
25.4995509058
 21
-191.750270771
 31
0.0
  0
LINE
  8
Top Right
 62
0
 10
15.4980365175
 20
-182.13059545
 30
0.0
 11
15.4979179066
 21
-191.750147449
 31
0.0
  0
LINE
  8
Top Right
 62
0
 10
15.4979179066
 20
-191.750147449
 30
0.0
 11
4.9991539074
 21
-191.750017997
 31
0.0
  0
LINE
  8
Top Right
 62
0
 10
45.4999629043
 20
-191.75051738
 30
0.0
 11
25.4995509058
 21
-191.750270771
 31
0.0
  0
LINE
  8
Top Right
 62
0
 10
-7.60220000018e-05
 20
-88.5017543481
 30
0.0
 11
-0.000390423195597
 21
-114.000236346
 31
0.0
  0
LINE
  8
Top Right
 62
0
 10
95.269474668
 20
-144.730985044
 30
0.0
 11
95.2696467975
 21
-130.770985045
 31
0.0
  0
LINE
  8
Top Right
 62
0
 10
109.229646796
 20
-130.771157175
 30
0.0
 11
109.229474667
 21
-144.731157174
 31
0.0
  0
LINE
  8
Top Right
 62
0
 10
109.229474667
 20
-144.731157174
 30
0.0
 11
95.269474668
 21
-144.730985044
 31
0.0
  0
LINE
  8
Top Right
 62
0
 10
75.52094383
 20
-147.231879541
 30
0.0
 11
75.5211159595
 21
-133.271879542
 31
0.0
  0
LINE
  8
Top Right
 62
0
 10
75.5211159595
 20
-133.271879542
 30
0.0
 11
89.4811159584
 21
-133.272051672
 31
0.0
  0
LINE
  8
Top Right
 62
0
 10
89.4811159584
 20
-133.272051672
 30
0.0
 11
89.4809438289
 21
-147.232051671
 31
0.0
  0
LINE
  8
Top Right
 62
0
 10
40.2506859468
 20
-97.7501326485
 30
0.0
 11
40.250799975
 21
-88.5022466492
 31
0.0
  0
LINE
  8
Top Right
 62
0
 10
128.97957077
 20
-159.483466697
 30
0.0
 11
115.019570771
 21
-159.483294568
 31
0.0
  0
LINE
  8
Top Right
 62
0
 10
115.019327268
 20
-179.231794566
 30
0.0
 11
115.019499397
 21
-165.271794567
 31
0.0
  0
LINE
  8
Top Right
 62
0
 10
115.019499397
 20
-165.271794567
 30
0.0
 11
128.979499396
 21
-165.271966697
 31
0.0
  0
LINE
  8
Top Right
 62
0
 10
128.979499396
 20
-165.271966697
 30
0.0
 11
128.979327267
 21
-179.231966696
 31
0.0
  0
LINE
  8
Top Right
 62
0
 10
128.979327267
 20
-179.231966696
 30
0.0
 11
115.019327268
 21
-179.231794566
 31
0.0
  0
LINE
  8
Top Right
 62
0
 10
134.768486423
 20
-125.773260073
 30
0.0
 11
148.728486422
 21
-125.773432203
 31
0.0
  0
LINE
  8
Top Right
 62
0
 10
148.728486422
 20
-125.773432203
 30
0.0
 11
148.728314293
 21
-139.733432202
 31
0.0
  0
LINE
  8
Top Right
 62
0
 10
115.019814295
 20
-139.733016569
 30
0.0
 11
115.019986425
 21
-125.77301657
 31
0.0
  0
LINE
  8
Top Right
 62
0
 10
148.728314293
 20
-139.733432202
 30
0.0
 11
134.768314294
 21
-139.733260072
 31
0.0
  0
LINE
  8
Top Right
 62
0
 10
74.7484486676
 20
-98.5029060126
 30
0.0
 11
41.0002306701
 21
-98.5024898905
 31
0.0
  0
LINE
  8
Top Right
 62
0
 10
79.7506630414
 20
-103.500925691
 30
0.0
 11
74.7484486676
 21
-98.5029060126
 31
0.0
  0
LINE
  8
Top Right
 62
0
 10
79.7505736109
 20
-110.753895691
 30
0.0
 11
79.7506630414
 21
-103.500925691
 31
0.0
  0
LINE
  8
Top Right
 62
0
 10
134.768070769
 20
-159.483538071
 30
0.0
 11
134.768242899
 21
-145.523538072
 31
0.0
  0
LINE
  8
Top Right
 62
0
 10
134.768242899
 20
-145.523538072
 30
0.0
 11
148.728242898
 21
-145.523710201
 31
0.0
  0
LINE
  8
Top Right
 62
0
 10
148.728242898
 20
-145.523710201
 30
0.0
 11
148.728070768
 21
-159.4837102
 31
0.0
  0
LINE
  8
Top Right
 62
0
 10
148.728070768
 20
-159.4837102
 30
0.0
 11
134.768070769
 21
-159.483538071
 31
0.0
  0
LINE
  8
Top Right
 62
0
 10
134.768314294
 20
-139.733260072
 30
0.0
 11
134.768486423
 21
-125.773260073
 31
0.0
  0
LINE
  8
Top Right
 62
0
 10
95.2691597355
 20
-170.272557042
 30
0.0
 11
109.229159734
 21
-170.272729172
 31
0.0
  0
LINE
  8
Top Right
 62
0
 10
109.229159734
 20
-170.272729172
 30
0.0
 11
109.228987605
 21
-184.232729171
 31
0.0
  0
LINE
  8
Top Right
 62
0
 10
109.228987605
 20
-184.232729171
 30
0.0
 11
95.268987606
 21
-184.232557041
 31
0.0
  0
LINE
  8
Top Right
 62
0
 10
95.2692311245
 20
-164.482787043
 30
0.0
 11
95.269403254
 21
-150.522787044
 31
0.0
  0
LINE
  8
Top Right
 62
0
 10
95.269403254
 20
-150.522787044
 30
0.0
 11
109.229403253
 21
-150.522959173
 31
0.0
  0
LINE
  8
Top Right
 62
0
 10
109.229403253
 20
-150.522959173
 30
0.0
 11
109.229231123
 21
-164.482959172
 31
0.0
  0
LINE
  8
Top Right
 62
0
 10
109.229231123
 20
-164.482959172
 30
0.0
 11
95.2692311245
 21
-164.482787043
 31
0.0
  0
LINE
  8
Top Right
 62
0
 10
-0.00128746330552
 20
-186.751744341
 30
0.0
 11
-0.000513745269728
 21
-124.001870345
 31
0.0
  0
LINE
  8
Top Right
 62
0
 10
8.10924552927
 20
-130.711098341
 30
0.0
 11
26.8900075278
 21
-130.711329911
 31
0.0
  0
LINE
  8
Top Right
 62
0
 10
15.4980365175
 20
-182.13059545
 30
0.0
 11
25.4983725168
 21
-182.130718756
 31
0.0
  0
LINE
  8
Top Right
 62
0
 10
41.0002306701
 20
-98.5024898905
 30
0.0
 11
40.2506859468
 21
-97.7501326485
 31
0.0
  0
LINE
  8
Top Right
 62
0
 10
158.748747348
 20
-184.253833759
 30
0.0
 11
158.749533407
 21
-120.503135764
 31
0.0
  0
LINE
  8
Top Right
 62
0
 10
121.999203704
 20
-189.25311663
 30
0.0
 11
153.749203701
 21
-189.253508114
 31
0.0
  0
LINE
  8
Top Right
 62
0
 10
89.4809438289
 20
-147.232051671
 30
0.0
 11
75.52094383
 21
-147.231879541
 31
0.0
  0
LINE
  8
Top Right
 62
0
 10
75.5207003209
 20
-166.98088754
 30
0.0
 11
75.5208724504
 21
-153.020887541
 31
0.0
  0
LINE
  8
Top Right
 62
0
 10
75.5208724504
 20
-153.020887541
 30
0.0
 11
89.4808724493
 21
-153.02105967
 31
0.0
  0
LINE
  8
Top Right
 62
0
 10
89.4808724493
 20
-153.02105967
 30
0.0
 11
89.4807003198
 21
-166.981059669
 31
0.0
  0
LINE
  8
Top Right
 62
0
 10
89.4807003198
 20
-166.981059669
 30
0.0
 11
75.5207003209
 21
-166.98088754
 31
0.0
  0
LINE
  8
Top Right
 62
0
 10
75.5206227465
 20
-173.272307539
 30
0.0
 11
89.4806227454
 21
-173.272479669
 31
0.0
  0
LINE
  8
Top Right
 62
0
 10
75.520450617
 20
-187.232307538
 30
0.0
 11
75.5206227465
 21
-173.272307539
 31
0.0
  0
LINE
  8
Top Right
 62
0
 10
45.4999609043
 20
-191.75051738
 30
0.0
 11
50.7503301713
 21
-197.000508119
 31
0.0
  0
LINE
  8
Top Right
 62
0
 10
89.4806227454
 20
-173.272479669
 30
0.0
 11
89.4804506159
 21
-187.232479668
 31
0.0
  0
LINE
  8
Top Right
 62
0
 10
89.4804506159
 20
-187.232479668
 30
0.0
 11
75.520450617
 21
-187.232307538
 31
0.0
  0
LINE
  8
Top Right
 62
0
 10
55.769193609
 20
-184.232070001
 30
0.0
 11
55.7693657385
 21
-170.272070002
 31
0.0
  0
LINE
  8
Top Right
 62
0
 10
55.7693657385
 20
-170.272070002
 30
0.0
 11
69.7293657374
 21
-170.272242132
 31
0.0
  0
LINE
  8
Top Right
 62
0
 10
69.7293657374
 20
-170.272242132
 30
0.0
 11
69.7291936079
 21
-184.232242131
 31
0.0
  0
LINE
  8
Top Right
 62
0
 10
69.7291936079
 20
-184.232242131
 30
0.0
 11
55.769193609
 21
-184.232070001
 31
0.0
  0
LINE
  8
Top Right
 62
0
 10
55.7694371275
 20
-164.482300003
 30
0.0
 11
55.769609257
 21
-150.522300004
 31
0.0
  0
LINE
  8
Top Right
 62
0
 10
55.769609257
 20
-150.522300004
 30
0.0
 11
69.7296092559
 21
-150.522472133
 31
0.0
  0
LINE
  8
Top Right
 62
0
 10
69.7296092559
 20
-150.522472133
 30
0.0
 11
69.7294371264
 21
-164.482472132
 31
0.0
  0
LINE
  8
Top Right
 62
0
 10
69.7294371264
 20
-164.482472132
 30
0.0
 11
55.7694371275
 21
-164.482300003
 31
0.0
  0
LINE
  8
Top Right
 62
0
 10
55.769680671
 20
-144.730498004
 30
0.0
 11
55.7698528005
 21
-130.770498005
 31
0.0
  0
LINE
  8
Top Right
 62
0
 10
55.7698528005
 20
-130.770498005
 30
0.0
 11
69.7298527994
 21
-130.770670135
 31
0.0
  0
LINE
  8
Top Right
 62
0
 10
69.7298527994
 20
-130.770670135
 30
0.0
 11
69.7296806699
 21
-144.730670134
 31
0.0
  0
LINE
  8
Top Right
 62
0
 10
69.7296806699
 20
-144.730670134
 30
0.0
 11
55.769680671
 21
-144.730498004
 31
0.0
  0
LINE
  8
Top Right
 62
0
 10
55.769927265
 20
-124.731300006
 30
0.0
 11
55.7700993945
 21
-110.771300007
 31
0.0
  0
LINE
  8
Top Right
 62
0
 10
55.7700993945
 20
-110.771300007
 30
0.0
 11
69.7300993934
 21
-110.771472136
 31
0.0
  0
LINE
  8
Top Right
 62
0
 10
69.7299272639
 20
-124.731472135
 30
0.0
 11
55.769927265
 21
-124.731300006
 31
0.0
  0
LINE
  8
Top Right
 62
0
 10
69.7300993934
 20
-110.771472136
 30
0.0
 11
69.7299272639
 21
-124.731472135
 31
0.0
  0
LINE
  8
Top Right
 62
0
 10
36.0181529992
 20
-122.481886462
 30
0.0
 11
36.0183251287
 21
-108.521886463
 31
0.0
  0
LINE
  8
Top Right
 62
0
 10
115.019986425
 20
-125.77301657
 30
0.0
 11
128.979986424
 21
-125.7731887
 31
0.0
  0
LINE
  8
Top Right
 62
0
 10
128.979986424
 20
-125.7731887
 30
0.0
 11
128.979814294
 21
-139.733188699
 31
0.0
  0
LINE
  8
Top Right
 62
0
 10
128.979814294
 20
-139.733188699
 30
0.0
 11
115.019814295
 21
-139.733016569
 31
0.0
  0
LINE
  8
Top Right
 62
0
 10
115.019570771
 20
-159.483294568
 30
0.0
 11
115.0197429
 21
-145.523294569
 31
0.0
  0
LINE
  8
Top Right
 62
0
 10
115.0197429
 20
-145.523294569
 30
0.0
 11
128.979742899
 21
-145.523466698
 31
0.0
  0
LINE
  8
Top Right
 62
0
 10
128.979742899
 20
-145.523466698
 30
0.0
 11
128.97957077
 21
-159.483466697
 31
0.0
  0
POLYLINE
  8
Top Right
 62
0
 70
0
 66
1
 10
0.0
 20
0.0
 30
0.0
  0
VERTEX
  8
Top Right
 10
134.767827266
 20
-179.232038069
 30
0.0
  0
VERTEX
  8
Top Right
 10
148.727827265
 20
-179.232210199
 30
0.0
  0
SEQEND
  8
Top Right
  0
POLYLINE
  8
Top Right
 62
0
 70
0
 66
1
 10
0.0
 20
0.0
 30
0.0
  0
VERTEX
  8
Top Right
 10
9.618534254
 20
-124.00198895
 30
0.0
  0
VERTEX
  8
Top Right
 10
9.61865757605
 20
-114.000356951
 30
0.0
  0
SEQEND
  8
Top Right
  0
POLYLINE
  8
Top Right
 62
0
 70
0
 66
1
 10
0.0
 20
0.0
 30
0.0
  0
VERTEX
  8
Top Right
 10
26.8894278374
 20
-178.130735908
 30
0.0
  0
VERTEX
  8
Top Right
 10
26.8900125278
 20
-130.711329911
 30
0.0
  0
SEQEND
  8
Top Right
  0
POLYLINE
  8
Top Right
 62
0
 70
0
 66
1
 10
0.0
 20
0.0
 30
0.0
  0
VERTEX
  8
Top Right
 10
8.10866683886
 20
-178.130504337
 30
0.0
  0
VERTEX
  8
Top Right
 10
26.8894278374
 20
-178.130735908
 30
0.0
  0
SEQEND
  8
Top Right
  0
POLYLINE
  8
Top Right
 62
0
 70
0
 66
1
 10
0.0
 20
0.0
 30
0.0
  0
VERTEX
  8
Top Right
 10
134.767827266
 20
-179.232038069
 30
0.0
  0
VERTEX
  8
Top Right
 10
134.767999396
 20
-165.27203807
 30
0.0
  0
SEQEND
  8
Top Right
  0
POLYLINE
  8
Top Right
 62
0
 70
0
 66
1
 10
0.0
 20
0.0
 30
0.0
  0
VERTEX
  8
Top Right
 10
35.2498556387
 20
-83.5011789862
 30
0.0
  0
VERTEX
  8
Top Right
 10
5.00048764104
 20
-83.5008060056
 30
0.0
  0
SEQEND
  8
Top Right
  0
POLYLINE
  8
Top Right
 62
0
 70
0
 66
1
 10
0.0
 20
0.0
 30
0.0
  0
VERTEX
  8
Top Right
 10
84.7487239847
 20
-115.751915319
 30
0.0
  0
VERTEX
  8
Top Right
 10
153.999537979
 20
-115.752769195
 30
0.0
  0
SEQEND
  8
Top Right
  0
POLYLINE
  8
Top Right
 62
0
 70
0
 66
1
 10
0.0
 20
0.0
 30
0.0
  0
VERTEX
  8
Top Right
 10
8.10866683886
 20
-178.130504337
 30
0.0
  0
VERTEX
  8
Top Right
 10
8.10925152927
 20
-130.711098341
 30
0.0
  0
SEQEND
  8
Top Right
  0
POLYLINE
  8
Top Right
 62
0
 70
0
 66
1
 10
0.0
 20
0.0
 30
0.0
  0
VERTEX
  8
Top Right
 10
-0.000390423195597
 20
-114.000236346
 30
0.0
  0
VERTEX
  8
Top Right
 10
9.61865757605
 20
-114.000356951
 30
0.0
  0
SEQEND
  8
Top Right
  0
POLYLINE
  8
Top Right
 62
0
 70
0
 66
1
 10
0.0
 20
0.0
 30
0.0
  0
VERTEX
  8
Top Right
 10
134.767999396
 20
-165.27203807
 30
0.0
  0
VERTEX
  8
Top Right
 10
148.727999395
 20
-165.2722092
 30
0.0
  0
SEQEND
  8
Top Right
  0
ARC
  8
Top Right
 62
0
 10
4.99878855858
 20
-186.749999993
 30
0.0
 40
5.000018
 50
-179.980011468
 51
-89.995813468
  0
ARC
  8
Top Right
 62
0
 10
5.00000000001
 20
-88.5
 30
0.0
 40
4.999194
 50
89.994411532
 51
-179.979942468
  0
ARC
  8
Top Right
 62
0
 10
153.748819348
 20
-184.253834109
 30
0.0
 40
4.999928
 50
-89.995595468
 51
-0.000706468157799
  0
ARC
  8
Top Right
 62
0
 10
153.999479409
 20
-120.502950195
 30
0.0
 40
4.750054
 50
-0.00223846783115
 51
89.999293532
  0
CIRCLE
  8
Top Right
 62
0
 10
153.748819348
 20
-184.253834109
 30
0.0
 40
1.75
  0
CIRCLE
  8
Top Right
 62
0
 10
153.749605534
 20
-120.492834114
 30
0.0
 40
1.75
  0
CIRCLE
  8
Top Right
 62
0
 10
5.00000000001
 20
-88.5
 30
0.0
 40
1.75
  0
CIRCLE
  8
Top Right
 62
0
 10
4.99878855858
 20
-186.749999993
 30
0.0
 40
1.75
  0
ENDSEC
  0
EOF
