  0
SECTION
  2
HEADER
  9
$ACADVER
  1
AC1009
  9
$INSBASE
 10
0.0
 20
0.0
 30
0.0
  9
$EXTMIN
 10
0.0
 20
0.0
 30
0.0
  9
$EXTMAX
 10
0.0
 20
0.0
 30
0.0
  0
ENDSEC
  0
SECTION
  2
TABLES
  0
TABLE
  2
VPORT
 70
0
  0
ENDTAB
  0
TABLE
  2
LTYPE
 70
1
  0
LTYPE
  2
CONTINUOUS
 70
0
  3
Solid line
 72
65
 73
0
 40
0.0
  0
ENDTAB
  0
TABLE
  2
LAYER
 70
1
  0
LAYER
  2
0
 70
64
 62
7
  6
continuous
  0
ENDTAB
  0
TABLE
  2
STYLE
 70
1
  0
STYLE
  2
STANDARD
 70
0
 40
0
 41
1.0
 50
0.0
 71
0
 42
1
 3
ARIAL.TTF
 4

  0
ENDTAB
  0
TABLE
  2
VIEW
 70
0
  0
ENDTAB
  0
ENDSEC
  0
SECTION
  2
BLOCKS
  0
ENDSEC
  0
SECTION
  2
ENTITIES
  0
LINE
  8
Bottom 1
 62
0
 10
319.747928
 20
-12.748062
 30
0.0
 11
314.748446
 21
-7.748326
 31
0.0
  0
LINE
  8
Bottom 1
 62
0
 10
319.747928
 20
-76.49876
 30
0.0
 11
314.997874
 21
-81.249068
 31
0.0
  0
LINE
  8
Bottom 1
 62
0
 10
319.747928
 20
-12.748062
 30
0.0
 11
319.747928
 21
-76.49876
 31
0.0
  0
LINE
  8
Bottom 1
 62
0
 10
282.998446
 20
-7.748326
 30
0.0
 11
314.748446
 21
-7.748326
 31
0.0
  0
LINE
  8
Bottom 1
 62
0
 10
275.249668
 20
-5.6e-05
 30
0.0
 11
282.998446
 21
-7.748326
 31
0.0
  0
LINE
  8
Bottom 1
 62
0
 10
211.749668
 20
-5.6e-05
 30
0.0
 11
275.249668
 21
-5.6e-05
 31
0.0
  0
LINE
  8
Bottom 1
 62
0
 10
206.499234
 20
-5.249982
 30
0.0
 11
211.749668
 21
-5.59999999998e-05
 31
0.0
  0
LINE
  8
Bottom 1
 62
0
 10
160.997928
 20
-10.248194
 30
0.0
 11
165.998426
 21
-5.249982
 31
0.0
  0
LINE
  8
Bottom 1
 62
0
 10
160.997928
 20
-108.498188
 30
0.0
 11
165.998426
 21
-113.499194
 31
0.0
  0
LINE
  8
Bottom 1
 62
0
 10
196.247794
 20
-113.499194
 30
0.0
 11
201.2488
 21
-108.498188
 31
0.0
  0
LINE
  8
Bottom 1
 62
0
 10
201.2488
 20
-99.250302
 30
0.0
 11
201.2488
 21
-108.498188
 31
0.0
  0
LINE
  8
Bottom 1
 62
0
 10
201.998354
 20
-98.497954
 30
0.0
 11
201.2488
 21
-99.250302
 31
0.0
  0
LINE
  8
Bottom 1
 62
0
 10
235.746572
 20
-98.497954
 30
0.0
 11
201.998354
 21
-98.497954
 31
0.0
  0
LINE
  8
Bottom 1
 62
0
 10
240.748848
 20
-93.499996
 30
0.0
 11
235.746572
 21
-98.497954
 31
0.0
  0
LINE
  8
Bottom 1
 62
0
 10
240.748848
 20
-86.247026
 30
0.0
 11
240.748848
 21
-93.499996
 31
0.0
  0
LINE
  8
Bottom 1
 62
0
 10
240.748848
 20
-86.247026
 30
0.0
 11
245.74706
 21
-81.249068
 31
0.0
  0
POLYLINE
  8
Bottom 1
 62
0
 70
0
 66
1
 10
0.0
 20
0.0
 30
0.0
  0
VERTEX
  8
Bottom 1
 10
196.247794
 20
-113.499194
 30
0.0
  0
VERTEX
  8
Bottom 1
 10
165.998426
 20
-113.499194
 30
0.0
  0
SEQEND
  8
Bottom 1
  0
POLYLINE
  8
Bottom 1
 62
0
 70
0
 66
1
 10
0.0
 20
0.0
 30
0.0
  0
VERTEX
  8
Bottom 1
 10
245.74706
 20
-81.249068
 30
0.0
  0
VERTEX
  8
Bottom 1
 10
314.997874
 20
-81.249068
 30
0.0
  0
SEQEND
  8
Bottom 1
  0
POLYLINE
  8
Bottom 1
 62
0
 70
0
 66
1
 10
0.0
 20
0.0
 30
0.0
  0
VERTEX
  8
Bottom 1
 10
165.998426
 20
-5.249982
 30
0.0
  0
VERTEX
  8
Bottom 1
 10
206.499234
 20
-5.249982
 30
0.0
  0
SEQEND
  8
Bottom 1
  0
POLYLINE
  8
Bottom 1
 62
0
 70
0
 66
1
 10
0.0
 20
0.0
 30
0.0
  0
VERTEX
  8
Bottom 1
 10
160.997928
 20
-10.248194
 30
0.0
  0
VERTEX
  8
Bottom 1
 10
160.997928
 20
-108.498188
 30
0.0
  0
SEQEND
  8
Bottom 1
  0
CIRCLE
  8
Bottom 1
 62
0
 10
314.748
 20
-12.748
 30
0.0
 40
1.75
  0
CIRCLE
  8
Bottom 1
 62
0
 10
314.748
 20
-76.509
 30
0.0
 40
1.75
  0
CIRCLE
  8
Bottom 1
 62
0
 10
165.998
 20
-108.5
 30
0.0
 40
1.75
  0
CIRCLE
  8
Bottom 1
 62
0
 10
165.998
 20
-10.25
 30
0.0
 40
1.75
  0
ENDSEC
  0
EOF
