  0
SECTION
  2
HEADER
  9
$ACADVER
  1
AC1009
  9
$INSBASE
 10
0.0
 20
0.0
 30
0.0
  9
$EXTMIN
 10
0.0
 20
0.0
 30
0.0
  9
$EXTMAX
 10
0.0
 20
0.0
 30
0.0
  0
ENDSEC
  0
SECTION
  2
TABLES
  0
TABLE
  2
VPORT
 70
0
  0
ENDTAB
  0
TABLE
  2
LTYPE
 70
1
  0
LTYPE
  2
CONTINUOUS
 70
0
  3
Solid line
 72
65
 73
0
 40
0.0
  0
ENDTAB
  0
TABLE
  2
LAYER
 70
1
  0
LAYER
  2
0
 70
64
 62
7
  6
continuous
  0
ENDTAB
  0
TABLE
  2
STYLE
 70
1
  0
STYLE
  2
STANDARD
 70
0
 40
0
 41
1.0
 50
0.0
 71
0
 42
1
 3
ARIAL.TTF
 4

  0
ENDTAB
  0
TABLE
  2
VIEW
 70
0
  0
ENDTAB
  0
ENDSEC
  0
SECTION
  2
BLOCKS
  0
ENDSEC
  0
SECTION
  2
ENTITIES
  0
LINE
  8
Top 2
 62
0
 10
0.00174000000004
 20
-12.748006
 30
0.0
 11
5.001222
 21
-7.74827
 31
0.0
  0
LINE
  8
Top 2
 62
0
 10
0.00174000000004
 20
-76.498704
 30
0.0
 11
4.751794
 21
-81.249012
 31
0.0
  0
LINE
  8
Top 2
 62
0
 10
0.00174000000004
 20
-12.748006
 30
0.0
 11
0.00174000000004
 21
-76.498704
 31
0.0
  0
LINE
  8
Top 2
 62
0
 10
36.751222
 20
-7.74827
 30
0.0
 11
5.001222
 21
-7.74827
 31
0.0
  0
LINE
  8
Top 2
 62
0
 10
44.5
 20
2.84217094304e-14
 30
0.0
 11
36.751222
 21
-7.74827
 31
0.0
  0
LINE
  8
Top 2
 62
0
 10
108.0
 20
2.84217094304e-14
 30
0.0
 11
44.5
 21
2.84217094304e-14
 31
0.0
  0
LINE
  8
Top 2
 62
0
 10
113.250434
 20
-5.249926
 30
0.0
 11
108.0
 21
2.84217094304e-14
 31
0.0
  0
LINE
  8
Top 2
 62
0
 10
153.751242
 20
-5.249926
 30
0.0
 11
113.250434
 21
-5.249926
 31
0.0
  0
LINE
  8
Top 2
 62
0
 10
158.75174
 20
-10.248138
 30
0.0
 11
153.751242
 21
-5.249926
 31
0.0
  0
LINE
  8
Top 2
 62
0
 10
158.75174
 20
-108.498132
 30
0.0
 11
153.751242
 21
-113.499138
 31
0.0
  0
LINE
  8
Top 2
 62
0
 10
123.501874
 20
-113.499138
 30
0.0
 11
118.500868
 21
-108.498132
 31
0.0
  0
LINE
  8
Top 2
 62
0
 10
118.500868
 20
-99.250246
 30
0.0
 11
118.500868
 21
-108.498132
 31
0.0
  0
LINE
  8
Top 2
 62
0
 10
117.751314
 20
-98.497898
 30
0.0
 11
118.500868
 21
-99.250246
 31
0.0
  0
LINE
  8
Top 2
 62
0
 10
84.003096
 20
-98.497898
 30
0.0
 11
117.751314
 21
-98.497898
 31
0.0
  0
LINE
  8
Top 2
 62
0
 10
79.00082
 20
-93.49994
 30
0.0
 11
84.003096
 21
-98.497898
 31
0.0
  0
LINE
  8
Top 2
 62
0
 10
79.00082
 20
-86.24697
 30
0.0
 11
79.00082
 21
-93.49994
 31
0.0
  0
LINE
  8
Top 2
 62
0
 10
79.00082
 20
-86.24697
 30
0.0
 11
74.002608
 21
-81.249012
 31
0.0
  0
LINE
  8
Top 2
 62
0
 10
149.132696
 20
-82.999644
 30
0.0
 11
158.75174
 21
-82.999644
 31
0.0
  0
LINE
  8
Top 2
 62
0
 10
10.022722
 20
-17.769506
 30
0.0
 11
10.022722
 21
-31.729507
 31
0.0
  0
LINE
  8
Top 2
 62
0
 10
23.982722
 20
-37.518006
 30
0.0
 11
23.982722
 21
-51.478006
 31
0.0
  0
LINE
  8
Top 2
 62
0
 10
23.982722
 20
-51.478006
 30
0.0
 11
10.022722
 21
-51.478006
 31
0.0
  0
LINE
  8
Top 2
 62
0
 10
10.022722
 20
-51.478006
 30
0.0
 11
10.022722
 21
-37.518006
 31
0.0
  0
LINE
  8
Top 2
 62
0
 10
10.022722
 20
-37.518006
 30
0.0
 11
23.982722
 21
-37.518006
 31
0.0
  0
LINE
  8
Top 2
 62
0
 10
23.982722
 20
-57.268284
 30
0.0
 11
23.982722
 21
-71.228284
 31
0.0
  0
LINE
  8
Top 2
 62
0
 10
23.982722
 20
-71.228284
 30
0.0
 11
10.022722
 21
-71.228284
 31
0.0
  0
LINE
  8
Top 2
 62
0
 10
10.022722
 20
-71.228284
 30
0.0
 11
10.022722
 21
-57.268284
 31
0.0
  0
LINE
  8
Top 2
 62
0
 10
10.022722
 20
-57.268284
 30
0.0
 11
23.982722
 21
-57.268284
 31
0.0
  0
LINE
  8
Top 2
 62
0
 10
43.731222
 20
-57.268284
 30
0.0
 11
43.731222
 21
-71.228284
 31
0.0
  0
LINE
  8
Top 2
 62
0
 10
43.731222
 20
-71.228284
 30
0.0
 11
29.771222
 21
-71.228284
 31
0.0
  0
LINE
  8
Top 2
 62
0
 10
29.771222
 20
-71.228284
 30
0.0
 11
29.771222
 21
-57.268284
 31
0.0
  0
LINE
  8
Top 2
 62
0
 10
29.771222
 20
-57.268284
 30
0.0
 11
43.731222
 21
-57.268284
 31
0.0
  0
LINE
  8
Top 2
 62
0
 10
43.731222
 20
-37.518006
 30
0.0
 11
43.731222
 21
-51.478006
 31
0.0
  0
LINE
  8
Top 2
 62
0
 10
43.731222
 20
-51.478006
 30
0.0
 11
29.771222
 21
-51.478006
 31
0.0
  0
LINE
  8
Top 2
 62
0
 10
29.771222
 20
-51.478006
 30
0.0
 11
29.771222
 21
-37.518006
 31
0.0
  0
LINE
  8
Top 2
 62
0
 10
29.771222
 20
-37.518006
 30
0.0
 11
43.731222
 21
-37.518006
 31
0.0
  0
LINE
  8
Top 2
 62
0
 10
43.731222
 20
-17.769506
 30
0.0
 11
43.731222
 21
-31.729506
 31
0.0
  0
LINE
  8
Top 2
 62
0
 10
43.731222
 20
-31.729506
 30
0.0
 11
29.771222
 21
-31.729506
 31
0.0
  0
LINE
  8
Top 2
 62
0
 10
29.771222
 20
-31.729506
 30
0.0
 11
29.771222
 21
-17.769506
 31
0.0
  0
LINE
  8
Top 2
 62
0
 10
29.771222
 20
-17.769506
 30
0.0
 11
43.731222
 21
-17.769506
 31
0.0
  0
LINE
  8
Top 2
 62
0
 10
63.4815
 20
-12.7685
 30
0.0
 11
63.4815
 21
-26.7285
 31
0.0
  0
LINE
  8
Top 2
 62
0
 10
63.4815
 20
-26.7285
 30
0.0
 11
49.5215
 21
-26.7285
 31
0.0
  0
LINE
  8
Top 2
 62
0
 10
49.5215
 20
-26.7285
 30
0.0
 11
49.5215
 21
-12.7685
 31
0.0
  0
LINE
  8
Top 2
 62
0
 10
49.5215
 20
-12.7685
 30
0.0
 11
63.4815
 21
-12.7685
 31
0.0
  0
LINE
  8
Top 2
 62
0
 10
63.4815
 20
-32.51827
 30
0.0
 11
63.4815
 21
-46.47827
 31
0.0
  0
LINE
  8
Top 2
 62
0
 10
63.4815
 20
-46.47827
 30
0.0
 11
49.5215
 21
-46.47827
 31
0.0
  0
LINE
  8
Top 2
 62
0
 10
49.5215
 20
-46.47827
 30
0.0
 11
49.5215
 21
-32.51827
 31
0.0
  0
LINE
  8
Top 2
 62
0
 10
49.5215
 20
-32.51827
 30
0.0
 11
63.4815
 21
-32.51827
 31
0.0
  0
LINE
  8
Top 2
 62
0
 10
63.4815
 20
-52.270072
 30
0.0
 11
63.4815
 21
-66.230072
 31
0.0
  0
LINE
  8
Top 2
 62
0
 10
63.4815
 20
-66.230072
 30
0.0
 11
49.5215
 21
-66.230072
 31
0.0
  0
LINE
  8
Top 2
 62
0
 10
49.5215
 20
-66.230072
 30
0.0
 11
49.5215
 21
-52.270072
 31
0.0
  0
LINE
  8
Top 2
 62
0
 10
49.5215
 20
-52.270072
 30
0.0
 11
63.4815
 21
-52.270072
 31
0.0
  0
LINE
  8
Top 2
 62
0
 10
83.23
 20
-49.768934
 30
0.0
 11
83.23
 21
-63.728934
 31
0.0
  0
LINE
  8
Top 2
 62
0
 10
83.23
 20
-63.728934
 30
0.0
 11
69.27
 21
-63.728934
 31
0.0
  0
LINE
  8
Top 2
 62
0
 10
69.27
 20
-63.728934
 30
0.0
 11
69.27
 21
-49.768934
 31
0.0
  0
LINE
  8
Top 2
 62
0
 10
69.27
 20
-49.768934
 30
0.0
 11
83.23
 21
-49.768934
 31
0.0
  0
LINE
  8
Top 2
 62
0
 10
83.23
 20
-30.019926
 30
0.0
 11
83.23
 21
-43.979926
 31
0.0
  0
LINE
  8
Top 2
 62
0
 10
83.23
 20
-43.979926
 30
0.0
 11
69.27
 21
-43.979926
 31
0.0
  0
LINE
  8
Top 2
 62
0
 10
69.27
 20
-43.979926
 30
0.0
 11
69.27
 21
-30.019926
 31
0.0
  0
LINE
  8
Top 2
 62
0
 10
69.27
 20
-30.019926
 30
0.0
 11
83.23
 21
-30.019926
 31
0.0
  0
LINE
  8
Top 2
 62
0
 10
83.23
 20
-9.768506
 30
0.0
 11
83.23
 21
-23.728506
 31
0.0
  0
LINE
  8
Top 2
 62
0
 10
83.23
 20
-23.728506
 30
0.0
 11
69.27
 21
-23.728506
 31
0.0
  0
LINE
  8
Top 2
 62
0
 10
69.27
 20
-23.728506
 30
0.0
 11
69.27
 21
-9.768506
 31
0.0
  0
LINE
  8
Top 2
 62
0
 10
102.981294
 20
-12.7685
 30
0.0
 11
102.981294
 21
-26.7285
 31
0.0
  0
LINE
  8
Top 2
 62
0
 10
69.27
 20
-9.768506
 30
0.0
 11
83.23
 21
-9.768506
 31
0.0
  0
LINE
  8
Top 2
 62
0
 10
102.981294
 20
-26.7285
 30
0.0
 11
89.021294
 21
-26.7285
 31
0.0
  0
LINE
  8
Top 2
 62
0
 10
89.021294
 20
-26.7285
 30
0.0
 11
89.021294
 21
-12.7685
 31
0.0
  0
LINE
  8
Top 2
 62
0
 10
89.021294
 20
-12.7685
 30
0.0
 11
102.981294
 21
-12.7685
 31
0.0
  0
LINE
  8
Top 2
 62
0
 10
102.981294
 20
-32.51827
 30
0.0
 11
102.981294
 21
-46.47827
 31
0.0
  0
LINE
  8
Top 2
 62
0
 10
102.981294
 20
-46.47827
 30
0.0
 11
89.021294
 21
-46.47827
 31
0.0
  0
LINE
  8
Top 2
 62
0
 10
89.021294
 20
-46.47827
 30
0.0
 11
89.021294
 21
-32.51827
 31
0.0
  0
LINE
  8
Top 2
 62
0
 10
89.021294
 20
-32.51827
 30
0.0
 11
102.981294
 21
-32.51827
 31
0.0
  0
LINE
  8
Top 2
 62
0
 10
102.981294
 20
-52.270072
 30
0.0
 11
102.981294
 21
-66.230072
 31
0.0
  0
LINE
  8
Top 2
 62
0
 10
102.981294
 20
-66.230072
 30
0.0
 11
89.021294
 21
-66.230072
 31
0.0
  0
LINE
  8
Top 2
 62
0
 10
89.021294
 20
-66.230072
 30
0.0
 11
89.021294
 21
-52.270072
 31
0.0
  0
LINE
  8
Top 2
 62
0
 10
89.021294
 20
-52.270072
 30
0.0
 11
102.981294
 21
-52.270072
 31
0.0
  0
LINE
  8
Top 2
 62
0
 10
102.981294
 20
-72.26927
 30
0.0
 11
102.981294
 21
-86.22927
 31
0.0
  0
LINE
  8
Top 2
 62
0
 10
102.981294
 20
-86.22927
 30
0.0
 11
89.021294
 21
-86.22927
 31
0.0
  0
LINE
  8
Top 2
 62
0
 10
89.021294
 20
-86.22927
 30
0.0
 11
89.021294
 21
-72.26927
 31
0.0
  0
LINE
  8
Top 2
 62
0
 10
89.021294
 20
-72.26927
 30
0.0
 11
102.981294
 21
-72.26927
 31
0.0
  0
LINE
  8
Top 2
 62
0
 10
122.733096
 20
-74.51844
 30
0.0
 11
122.733096
 21
-88.47844
 31
0.0
  0
LINE
  8
Top 2
 62
0
 10
122.733096
 20
-88.47844
 30
0.0
 11
108.773096
 21
-88.47844
 31
0.0
  0
LINE
  8
Top 2
 62
0
 10
108.773096
 20
-88.47844
 30
0.0
 11
108.773096
 21
-74.51844
 31
0.0
  0
LINE
  8
Top 2
 62
0
 10
108.773096
 20
-74.51844
 30
0.0
 11
122.733096
 21
-74.51844
 31
0.0
  0
LINE
  8
Top 2
 62
0
 10
122.733096
 20
-54.76994
 30
0.0
 11
122.733096
 21
-68.72994
 31
0.0
  0
LINE
  8
Top 2
 62
0
 10
122.733096
 20
-68.72994
 30
0.0
 11
108.773096
 21
-68.72994
 31
0.0
  0
LINE
  8
Top 2
 62
0
 10
108.773096
 20
-68.72994
 30
0.0
 11
108.773096
 21
-54.76994
 31
0.0
  0
LINE
  8
Top 2
 62
0
 10
108.773096
 20
-54.76994
 30
0.0
 11
122.733096
 21
-54.76994
 31
0.0
  0
LINE
  8
Top 2
 62
0
 10
122.733096
 20
-35.018138
 30
0.0
 11
122.733096
 21
-48.978138
 31
0.0
  0
LINE
  8
Top 2
 62
0
 10
122.733096
 20
-48.978138
 30
0.0
 11
108.773096
 21
-48.978138
 31
0.0
  0
LINE
  8
Top 2
 62
0
 10
108.773096
 20
-48.978138
 30
0.0
 11
108.773096
 21
-35.018138
 31
0.0
  0
LINE
  8
Top 2
 62
0
 10
108.773096
 20
-35.018138
 30
0.0
 11
122.733096
 21
-35.018138
 31
0.0
  0
LINE
  8
Top 2
 62
0
 10
122.733096
 20
-15.269638
 30
0.0
 11
122.733096
 21
-29.229638
 31
0.0
  0
LINE
  8
Top 2
 62
0
 10
122.733096
 20
-29.229638
 30
0.0
 11
108.773096
 21
-29.229638
 31
0.0
  0
LINE
  8
Top 2
 62
0
 10
108.773096
 20
-15.269638
 30
0.0
 11
122.733096
 21
-15.269638
 31
0.0
  0
LINE
  8
Top 2
 62
0
 10
108.773096
 20
-29.229638
 30
0.0
 11
108.773096
 21
-15.269638
 31
0.0
  0
LINE
  8
Top 2
 62
0
 10
142.481596
 20
-89.519426
 30
0.0
 11
142.481596
 21
-103.479426
 31
0.0
  0
LINE
  8
Top 2
 62
0
 10
142.481596
 20
-103.479426
 30
0.0
 11
128.521596
 21
-103.479426
 31
0.0
  0
LINE
  8
Top 2
 62
0
 10
128.521596
 20
-103.479426
 30
0.0
 11
128.521596
 21
-89.519426
 31
0.0
  0
LINE
  8
Top 2
 62
0
 10
128.521596
 20
-89.519426
 30
0.0
 11
142.481596
 21
-89.519426
 31
0.0
  0
LINE
  8
Top 2
 62
0
 10
158.75174
 20
-108.498128
 30
0.0
 11
158.75174
 21
-82.999644
 31
0.0
  0
LINE
  8
Top 2
 62
0
 10
158.75174
 20
-10.248143
 30
0.0
 11
158.75174
 21
-72.998012
 31
0.0
  0
POLYLINE
  8
Top 2
 62
0
 70
0
 66
1
 10
0.0
 20
0.0
 30
0.0
  0
VERTEX
  8
Top 2
 10
10.022722
 20
-17.769506
 30
0.0
  0
VERTEX
  8
Top 2
 10
23.982722
 20
-17.769506
 30
0.0
  0
SEQEND
  8
Top 2
  0
POLYLINE
  8
Top 2
 62
0
 70
0
 66
1
 10
0.0
 20
0.0
 30
0.0
  0
VERTEX
  8
Top 2
 10
123.501874
 20
-113.499138
 30
0.0
  0
VERTEX
  8
Top 2
 10
153.751242
 20
-113.499138
 30
0.0
  0
SEQEND
  8
Top 2
  0
POLYLINE
  8
Top 2
 62
0
 70
0
 66
1
 10
0.0
 20
0.0
 30
0.0
  0
VERTEX
  8
Top 2
 10
10.022722
 20
-31.729507
 30
0.0
  0
VERTEX
  8
Top 2
 10
23.982722
 20
-31.729506
 30
0.0
  0
SEQEND
  8
Top 2
  0
POLYLINE
  8
Top 2
 62
0
 70
0
 66
1
 10
0.0
 20
0.0
 30
0.0
  0
VERTEX
  8
Top 2
 10
158.75174
 20
-72.998012
 30
0.0
  0
VERTEX
  8
Top 2
 10
149.132696
 20
-72.998014
 30
0.0
  0
SEQEND
  8
Top 2
  0
POLYLINE
  8
Top 2
 62
0
 70
0
 66
1
 10
0.0
 20
0.0
 30
0.0
  0
VERTEX
  8
Top 2
 10
149.132696
 20
-82.999644
 30
0.0
  0
VERTEX
  8
Top 2
 10
149.132696
 20
-72.998014
 30
0.0
  0
SEQEND
  8
Top 2
  0
POLYLINE
  8
Top 2
 62
0
 70
0
 66
1
 10
0.0
 20
0.0
 30
0.0
  0
VERTEX
  8
Top 2
 10
74.002608
 20
-81.249012
 30
0.0
  0
VERTEX
  8
Top 2
 10
4.751794
 20
-81.249012
 30
0.0
  0
SEQEND
  8
Top 2
  0
POLYLINE
  8
Top 2
 62
0
 70
0
 66
1
 10
0.0
 20
0.0
 30
0.0
  0
VERTEX
  8
Top 2
 10
23.982722
 20
-31.729506
 30
0.0
  0
VERTEX
  8
Top 2
 10
23.982722
 20
-17.769506
 30
0.0
  0
SEQEND
  8
Top 2
  0
CIRCLE
  8
Top 2
 62
0
 10
5.001668
 20
-12.747944
 30
0.0
 40
1.75
  0
CIRCLE
  8
Top 2
 62
0
 10
5.001668
 20
-76.508944
 30
0.0
 40
1.75
  0
CIRCLE
  8
Top 2
 62
0
 10
153.751668
 20
-108.499944
 30
0.0
 40
1.75
  0
CIRCLE
  8
Top 2
 62
0
 10
153.751668
 20
-10.249944
 30
0.0
 40
1.75
  0
ENDSEC
  0
EOF
