  0
SECTION
  2
HEADER
  9
$ACADVER
  1
AC1009
  9
$INSBASE
 10
0.0
 20
0.0
 30
0.0
  9
$EXTMIN
 10
0.0
 20
0.0
 30
0.0
  9
$EXTMAX
 10
0.0
 20
0.0
 30
0.0
  0
ENDSEC
  0
SECTION
  2
TABLES
  0
TABLE
  2
VPORT
 70
0
  0
ENDTAB
  0
TABLE
  2
LTYPE
 70
1
  0
LTYPE
  2
CONTINUOUS
 70
0
  3
Solid line
 72
65
 73
0
 40
0.0
  0
ENDTAB
  0
TABLE
  2
LAYER
 70
1
  0
LAYER
  2
0
 70
64
 62
7
  6
continuous
  0
ENDTAB
  0
TABLE
  2
STYLE
 70
1
  0
STYLE
  2
STANDARD
 70
0
 40
0
 41
1.0
 50
0.0
 71
0
 42
1
 3
ARIAL.TTF
 4

  0
ENDTAB
  0
TABLE
  2
VIEW
 70
0
  0
ENDTAB
  0
ENDSEC
  0
SECTION
  2
BLOCKS
  0
ENDSEC
  0
SECTION
  2
ENTITIES
  0
LINE
  8
Top 1
 62
0
 10
44.498332
 20
-5.6e-05
 30
0.0
 11
36.749554
 21
-7.748326
 31
0.0
  0
LINE
  8
Top 1
 62
0
 10
113.248766
 20
-5.249982
 30
0.0
 11
107.998332
 21
-5.59999999998e-05
 31
0.0
  0
LINE
  8
Top 1
 62
0
 10
107.998332
 20
-5.6e-05
 30
0.0
 11
44.498332
 21
-5.6e-05
 31
0.0
  0
LINE
  8
Top 1
 62
0
 10
123.500206
 20
-113.499194
 30
0.0
 11
118.4992
 21
-108.498188
 31
0.0
  0
LINE
  8
Top 1
 62
0
 10
118.4992
 20
-99.250302
 30
0.0
 11
118.4992
 21
-108.498188
 31
0.0
  0
LINE
  8
Top 1
 62
0
 10
117.749646
 20
-98.497954
 30
0.0
 11
118.4992
 21
-99.250302
 31
0.0
  0
LINE
  8
Top 1
 62
0
 10
7.2e-05
 20
-12.748062
 30
0.0
 11
7.2e-05
 21
-76.49876
 31
0.0
  0
LINE
  8
Top 1
 62
0
 10
36.749554
 20
-7.748326
 30
0.0
 11
4.999554
 21
-7.748326
 31
0.0
  0
LINE
  8
Top 1
 62
0
 10
84.001428
 20
-98.497954
 30
0.0
 11
117.749646
 21
-98.497954
 31
0.0
  0
LINE
  8
Top 1
 62
0
 10
78.999152
 20
-93.499996
 30
0.0
 11
84.001428
 21
-98.497954
 31
0.0
  0
LINE
  8
Top 1
 62
0
 10
78.999152
 20
-86.247026
 30
0.0
 11
78.999152
 21
-93.499996
 31
0.0
  0
LINE
  8
Top 1
 62
0
 10
78.999152
 20
-86.247026
 30
0.0
 11
74.00094
 21
-81.249068
 31
0.0
  0
LINE
  8
Top 1
 62
0
 10
149.131028
 20
-72.998068
 30
0.0
 11
158.750076
 21
-72.998068
 31
0.0
  0
LINE
  8
Top 1
 62
0
 10
10.021054
 20
-17.769562
 30
0.0
 11
10.021054
 21
-31.729563
 31
0.0
  0
LINE
  8
Top 1
 62
0
 10
23.981054
 20
-37.518062
 30
0.0
 11
23.981054
 21
-51.478062
 31
0.0
  0
LINE
  8
Top 1
 62
0
 10
23.981054
 20
-51.478062
 30
0.0
 11
10.021054
 21
-51.478062
 31
0.0
  0
LINE
  8
Top 1
 62
0
 10
10.021054
 20
-51.478062
 30
0.0
 11
10.021054
 21
-37.518062
 31
0.0
  0
LINE
  8
Top 1
 62
0
 10
10.021054
 20
-37.518062
 30
0.0
 11
23.981054
 21
-37.518062
 31
0.0
  0
LINE
  8
Top 1
 62
0
 10
23.981054
 20
-57.26834
 30
0.0
 11
23.981054
 21
-71.22834
 31
0.0
  0
LINE
  8
Top 1
 62
0
 10
23.981054
 20
-71.22834
 30
0.0
 11
10.021054
 21
-71.22834
 31
0.0
  0
LINE
  8
Top 1
 62
0
 10
10.021054
 20
-71.22834
 30
0.0
 11
10.021054
 21
-57.26834
 31
0.0
  0
LINE
  8
Top 1
 62
0
 10
43.729554
 20
-57.26834
 30
0.0
 11
43.729554
 21
-71.22834
 31
0.0
  0
LINE
  8
Top 1
 62
0
 10
10.021054
 20
-57.26834
 30
0.0
 11
23.981054
 21
-57.26834
 31
0.0
  0
LINE
  8
Top 1
 62
0
 10
43.729554
 20
-71.22834
 30
0.0
 11
29.769554
 21
-71.22834
 31
0.0
  0
LINE
  8
Top 1
 62
0
 10
29.769554
 20
-71.22834
 30
0.0
 11
29.769554
 21
-57.26834
 31
0.0
  0
LINE
  8
Top 1
 62
0
 10
29.769554
 20
-57.26834
 30
0.0
 11
43.729554
 21
-57.26834
 31
0.0
  0
LINE
  8
Top 1
 62
0
 10
43.729554
 20
-37.518062
 30
0.0
 11
43.729554
 21
-51.478062
 31
0.0
  0
LINE
  8
Top 1
 62
0
 10
43.729554
 20
-51.478062
 30
0.0
 11
29.769554
 21
-51.478062
 31
0.0
  0
LINE
  8
Top 1
 62
0
 10
29.769554
 20
-51.478062
 30
0.0
 11
29.769554
 21
-37.518062
 31
0.0
  0
LINE
  8
Top 1
 62
0
 10
29.769554
 20
-37.518062
 30
0.0
 11
43.729554
 21
-37.518062
 31
0.0
  0
LINE
  8
Top 1
 62
0
 10
43.729554
 20
-17.769562
 30
0.0
 11
43.729554
 21
-31.729562
 31
0.0
  0
LINE
  8
Top 1
 62
0
 10
43.729554
 20
-31.729562
 30
0.0
 11
29.769554
 21
-31.729562
 31
0.0
  0
LINE
  8
Top 1
 62
0
 10
29.769554
 20
-31.729562
 30
0.0
 11
29.769554
 21
-17.769562
 31
0.0
  0
LINE
  8
Top 1
 62
0
 10
29.769554
 20
-17.769562
 30
0.0
 11
43.729554
 21
-17.769562
 31
0.0
  0
LINE
  8
Top 1
 62
0
 10
63.479832
 20
-12.768556
 30
0.0
 11
63.479832
 21
-26.728556
 31
0.0
  0
LINE
  8
Top 1
 62
0
 10
63.479832
 20
-26.728556
 30
0.0
 11
49.519832
 21
-26.728556
 31
0.0
  0
LINE
  8
Top 1
 62
0
 10
49.519832
 20
-26.728556
 30
0.0
 11
49.519832
 21
-12.768556
 31
0.0
  0
LINE
  8
Top 1
 62
0
 10
49.519832
 20
-12.768556
 30
0.0
 11
63.479832
 21
-12.768556
 31
0.0
  0
LINE
  8
Top 1
 62
0
 10
63.479832
 20
-32.518326
 30
0.0
 11
63.479832
 21
-46.478326
 31
0.0
  0
LINE
  8
Top 1
 62
0
 10
63.479832
 20
-46.478326
 30
0.0
 11
49.519832
 21
-46.478326
 31
0.0
  0
LINE
  8
Top 1
 62
0
 10
49.519832
 20
-46.478326
 30
0.0
 11
49.519832
 21
-32.518326
 31
0.0
  0
LINE
  8
Top 1
 62
0
 10
49.519832
 20
-32.518326
 30
0.0
 11
63.479832
 21
-32.518326
 31
0.0
  0
LINE
  8
Top 1
 62
0
 10
63.479832
 20
-52.270128
 30
0.0
 11
63.479832
 21
-66.230128
 31
0.0
  0
LINE
  8
Top 1
 62
0
 10
63.479832
 20
-66.230128
 30
0.0
 11
49.519832
 21
-66.230128
 31
0.0
  0
LINE
  8
Top 1
 62
0
 10
49.519832
 20
-66.230128
 30
0.0
 11
49.519832
 21
-52.270128
 31
0.0
  0
LINE
  8
Top 1
 62
0
 10
49.519832
 20
-52.270128
 30
0.0
 11
63.479832
 21
-52.270128
 31
0.0
  0
LINE
  8
Top 1
 62
0
 10
83.228332
 20
-49.76899
 30
0.0
 11
83.228332
 21
-63.72899
 31
0.0
  0
LINE
  8
Top 1
 62
0
 10
83.228332
 20
-63.72899
 30
0.0
 11
69.268332
 21
-63.72899
 31
0.0
  0
LINE
  8
Top 1
 62
0
 10
69.268332
 20
-63.72899
 30
0.0
 11
69.268332
 21
-49.76899
 31
0.0
  0
LINE
  8
Top 1
 62
0
 10
69.268332
 20
-49.76899
 30
0.0
 11
83.228332
 21
-49.76899
 31
0.0
  0
LINE
  8
Top 1
 62
0
 10
83.228332
 20
-30.019982
 30
0.0
 11
83.228332
 21
-43.979982
 31
0.0
  0
LINE
  8
Top 1
 62
0
 10
83.228332
 20
-43.979982
 30
0.0
 11
69.268332
 21
-43.979982
 31
0.0
  0
LINE
  8
Top 1
 62
0
 10
69.268332
 20
-43.979982
 30
0.0
 11
69.268332
 21
-30.019982
 31
0.0
  0
LINE
  8
Top 1
 62
0
 10
69.268332
 20
-30.019982
 30
0.0
 11
83.228332
 21
-30.019982
 31
0.0
  0
LINE
  8
Top 1
 62
0
 10
83.228332
 20
-23.728562
 30
0.0
 11
69.268332
 21
-23.728562
 31
0.0
  0
LINE
  8
Top 1
 62
0
 10
83.228332
 20
-9.768562
 30
0.0
 11
83.228332
 21
-23.728562
 31
0.0
  0
LINE
  8
Top 1
 62
0
 10
69.268332
 20
-23.728562
 30
0.0
 11
69.268332
 21
-9.768562
 31
0.0
  0
LINE
  8
Top 1
 62
0
 10
69.268332
 20
-9.768562
 30
0.0
 11
83.228332
 21
-9.768562
 31
0.0
  0
LINE
  8
Top 1
 62
0
 10
102.979626
 20
-12.768556
 30
0.0
 11
102.979626
 21
-26.728556
 31
0.0
  0
LINE
  8
Top 1
 62
0
 10
102.979626
 20
-26.728556
 30
0.0
 11
89.019626
 21
-26.728556
 31
0.0
  0
LINE
  8
Top 1
 62
0
 10
89.019626
 20
-26.728556
 30
0.0
 11
89.019626
 21
-12.768556
 31
0.0
  0
LINE
  8
Top 1
 62
0
 10
89.019626
 20
-12.768556
 30
0.0
 11
102.979626
 21
-12.768556
 31
0.0
  0
LINE
  8
Top 1
 62
0
 10
102.979626
 20
-32.518326
 30
0.0
 11
102.979626
 21
-46.478326
 31
0.0
  0
LINE
  8
Top 1
 62
0
 10
102.979626
 20
-46.478326
 30
0.0
 11
89.019626
 21
-46.478326
 31
0.0
  0
LINE
  8
Top 1
 62
0
 10
89.019626
 20
-46.478326
 30
0.0
 11
89.019626
 21
-32.518326
 31
0.0
  0
LINE
  8
Top 1
 62
0
 10
89.019626
 20
-32.518326
 30
0.0
 11
102.979626
 21
-32.518326
 31
0.0
  0
LINE
  8
Top 1
 62
0
 10
102.979626
 20
-52.270128
 30
0.0
 11
102.979626
 21
-66.230128
 31
0.0
  0
LINE
  8
Top 1
 62
0
 10
102.979626
 20
-66.230128
 30
0.0
 11
89.019626
 21
-66.230128
 31
0.0
  0
LINE
  8
Top 1
 62
0
 10
89.019626
 20
-66.230128
 30
0.0
 11
89.019626
 21
-52.270128
 31
0.0
  0
LINE
  8
Top 1
 62
0
 10
89.019626
 20
-52.270128
 30
0.0
 11
102.979626
 21
-52.270128
 31
0.0
  0
LINE
  8
Top 1
 62
0
 10
102.979626
 20
-72.269326
 30
0.0
 11
102.979626
 21
-86.229326
 31
0.0
  0
LINE
  8
Top 1
 62
0
 10
102.979626
 20
-86.229326
 30
0.0
 11
89.019626
 21
-86.229326
 31
0.0
  0
LINE
  8
Top 1
 62
0
 10
89.019626
 20
-86.229326
 30
0.0
 11
89.019626
 21
-72.269326
 31
0.0
  0
LINE
  8
Top 1
 62
0
 10
89.019626
 20
-72.269326
 30
0.0
 11
102.979626
 21
-72.269326
 31
0.0
  0
LINE
  8
Top 1
 62
0
 10
122.731428
 20
-74.518496
 30
0.0
 11
122.731428
 21
-88.478496
 31
0.0
  0
LINE
  8
Top 1
 62
0
 10
122.731428
 20
-88.478496
 30
0.0
 11
108.771428
 21
-88.478496
 31
0.0
  0
LINE
  8
Top 1
 62
0
 10
108.771428
 20
-88.478496
 30
0.0
 11
108.771428
 21
-74.518496
 31
0.0
  0
LINE
  8
Top 1
 62
0
 10
108.771428
 20
-74.518496
 30
0.0
 11
122.731428
 21
-74.518496
 31
0.0
  0
LINE
  8
Top 1
 62
0
 10
122.731428
 20
-54.769996
 30
0.0
 11
122.731428
 21
-68.729996
 31
0.0
  0
LINE
  8
Top 1
 62
0
 10
122.731428
 20
-68.729996
 30
0.0
 11
108.771428
 21
-68.729996
 31
0.0
  0
LINE
  8
Top 1
 62
0
 10
108.771428
 20
-68.729996
 30
0.0
 11
108.771428
 21
-54.769996
 31
0.0
  0
LINE
  8
Top 1
 62
0
 10
108.771428
 20
-54.769996
 30
0.0
 11
122.731428
 21
-54.769996
 31
0.0
  0
LINE
  8
Top 1
 62
0
 10
122.731428
 20
-35.018194
 30
0.0
 11
122.731428
 21
-48.978194
 31
0.0
  0
LINE
  8
Top 1
 62
0
 10
122.731428
 20
-48.978194
 30
0.0
 11
108.771428
 21
-48.978194
 31
0.0
  0
LINE
  8
Top 1
 62
0
 10
108.771428
 20
-48.978194
 30
0.0
 11
108.771428
 21
-35.018194
 31
0.0
  0
LINE
  8
Top 1
 62
0
 10
108.771428
 20
-35.018194
 30
0.0
 11
122.731428
 21
-35.018194
 31
0.0
  0
LINE
  8
Top 1
 62
0
 10
122.731428
 20
-15.269694
 30
0.0
 11
122.731428
 21
-29.229694
 31
0.0
  0
LINE
  8
Top 1
 62
0
 10
122.731428
 20
-29.229694
 30
0.0
 11
108.771428
 21
-29.229694
 31
0.0
  0
LINE
  8
Top 1
 62
0
 10
108.771428
 20
-29.229694
 30
0.0
 11
108.771428
 21
-15.269694
 31
0.0
  0
LINE
  8
Top 1
 62
0
 10
108.771428
 20
-15.269694
 30
0.0
 11
122.731428
 21
-15.269694
 31
0.0
  0
LINE
  8
Top 1
 62
0
 10
142.479928
 20
-89.519482
 30
0.0
 11
142.479928
 21
-103.479482
 31
0.0
  0
LINE
  8
Top 1
 62
0
 10
142.479928
 20
-103.479482
 30
0.0
 11
128.519928
 21
-103.479482
 31
0.0
  0
LINE
  8
Top 1
 62
0
 10
128.519928
 20
-103.479482
 30
0.0
 11
128.519928
 21
-89.519482
 31
0.0
  0
LINE
  8
Top 1
 62
0
 10
128.519928
 20
-89.519482
 30
0.0
 11
142.479928
 21
-89.519482
 31
0.0
  0
LINE
  8
Top 1
 62
0
 10
158.750076
 20
-108.498184
 30
0.0
 11
158.750076
 21
-82.999702
 31
0.0
  0
LINE
  8
Top 1
 62
0
 10
158.750076
 20
-10.248194
 30
0.0
 11
158.750076
 21
-72.998068
 31
0.0
  0
POLYLINE
  8
Top 1
 62
0
 70
0
 66
1
 10
0.0
 20
0.0
 30
0.0
  0
VERTEX
  8
Top 1
 10
23.981054
 20
-17.769562
 30
0.0
  0
VERTEX
  8
Top 1
 10
10.021054
 20
-17.769562
 30
0.0
  0
SEQEND
  8
Top 1
  0
POLYLINE
  8
Top 1
 62
0
 70
0
 66
1
 10
0.0
 20
0.0
 30
0.0
  0
VERTEX
  8
Top 1
 10
149.131028
 20
-72.998068
 30
0.0
  0
VERTEX
  8
Top 1
 10
149.131028
 20
-82.9997
 30
0.0
  0
SEQEND
  8
Top 1
  0
POLYLINE
  8
Top 1
 62
0
 70
0
 66
1
 10
0.0
 20
0.0
 30
0.0
  0
VERTEX
  8
Top 1
 10
23.981054
 20
-17.769562
 30
0.0
  0
VERTEX
  8
Top 1
 10
23.981054
 20
-31.729562
 30
0.0
  0
SEQEND
  8
Top 1
  0
POLYLINE
  8
Top 1
 62
0
 70
0
 66
1
 10
0.0
 20
0.0
 30
0.0
  0
VERTEX
  8
Top 1
 10
123.500206
 20
-113.499194
 30
0.0
  0
VERTEX
  8
Top 1
 10
153.749574
 20
-113.499194
 30
0.0
  0
SEQEND
  8
Top 1
  0
POLYLINE
  8
Top 1
 62
0
 70
0
 66
1
 10
0.0
 20
0.0
 30
0.0
  0
VERTEX
  8
Top 1
 10
74.00094
 20
-81.249068
 30
0.0
  0
VERTEX
  8
Top 1
 10
4.750126
 20
-81.249068
 30
0.0
  0
SEQEND
  8
Top 1
  0
POLYLINE
  8
Top 1
 62
0
 70
0
 66
1
 10
0.0
 20
0.0
 30
0.0
  0
VERTEX
  8
Top 1
 10
158.750076
 20
-82.999702
 30
0.0
  0
VERTEX
  8
Top 1
 10
149.131028
 20
-82.9997
 30
0.0
  0
SEQEND
  8
Top 1
  0
POLYLINE
  8
Top 1
 62
0
 70
0
 66
1
 10
0.0
 20
0.0
 30
0.0
  0
VERTEX
  8
Top 1
 10
23.981054
 20
-31.729562
 30
0.0
  0
VERTEX
  8
Top 1
 10
10.021054
 20
-31.729563
 30
0.0
  0
SEQEND
  8
Top 1
  0
CIRCLE
  8
Top 1
 62
0
 10
5.0
 20
-12.748
 30
0.0
 40
1.75
  0
CIRCLE
  8
Top 1
 62
0
 10
5.0
 20
-76.509
 30
0.0
 40
1.75
  0
CIRCLE
  8
Top 1
 62
0
 10
153.75
 20
-108.5
 30
0.0
 40
1.75
  0
CIRCLE
  8
Top 1
 62
0
 10
153.75
 20
-10.25
 30
0.0
 40
1.75
  0
ARC
  8
Top 1
 62
0
 10
153.75
 20
-10.25
 30
0.0
 40
5.00001801823
 50
0.0206949366355
 51
90.0048930419
  0
ARC
  8
Top 1
 62
0
 10
5.0
 20
-12.748
 30
0.0
 40
4.99992800038
 50
90.0051111168
 51
-180.0
  0
ARC
  8
Top 1
 62
0
 10
153.75
 20
-108.5
 30
0.0
 40
4.99919401815
 50
-90.0048823874
 51
0.0207636905677
  0
ARC
  8
Top 1
 62
0
 10
4.750126
 20
-76.498887
 30
0.0
 40
4.7500540017
 50
179.998468109
 51
-90.0
  0
POLYLINE
  8
Top 1
 62
0
 70
0
 66
1
 10
0.0
 20
0.0
 30
0.0
  0
VERTEX
  8
Top 1
 10
153.749573
 20
-5.249982
 30
0.0
  0
VERTEX
  8
Top 1
 10
113.248766
 20
-5.249982
 30
0.0
  0
SEQEND
  8
Top 1
  0
ENDSEC
  0
EOF
