G04 #@! TF.FileFunction,Copper,L2,Bot,Signal*
%FSLAX46Y46*%
G04 Gerber Fmt 4.6, Leading zero omitted, Abs format (unit mm)*
G04 Created by KiCad (PCBNEW 4.0.7) date Thu Mar 29 21:24:39 2018*
%MOMM*%
%LPD*%
G01*
G04 APERTURE LIST*
%ADD10C,0.100000*%
%ADD11O,0.800000X1.400000*%
%ADD12R,0.300000X0.700000*%
%ADD13C,0.650000*%
%ADD14O,1.400000X0.800000*%
%ADD15C,2.500000*%
%ADD16R,1.200000X1.200000*%
%ADD17R,1.600000X1.600000*%
%ADD18C,1.600000*%
%ADD19R,0.500000X2.500000*%
%ADD20R,0.700000X0.300000*%
%ADD21R,1.752600X1.752600*%
%ADD22C,1.752600*%
%ADD23C,4.064000*%
%ADD24C,2.500000*%
%ADD25C,0.600000*%
%ADD26C,0.250000*%
G04 APERTURE END LIST*
D10*
D11*
X146370000Y-26110000D03*
D12*
X147750000Y-28020000D03*
X148250000Y-28020000D03*
X148750000Y-28020000D03*
X149250000Y-28020000D03*
X149750000Y-28020000D03*
X150250000Y-28020000D03*
X150750000Y-28020000D03*
X153250000Y-28020000D03*
X152250000Y-28020000D03*
X151750000Y-28020000D03*
X151250000Y-28020000D03*
X152750000Y-28020000D03*
D11*
X154630000Y-26110000D03*
X154990000Y-20160000D03*
X146010000Y-20160000D03*
D13*
X153300000Y-26710000D03*
X151700000Y-26710000D03*
X150900000Y-26710000D03*
X150100000Y-26710000D03*
X149300000Y-26710000D03*
X147700000Y-26710000D03*
X152900000Y-26010000D03*
X152100000Y-26010000D03*
X151300000Y-26010000D03*
X149700000Y-26010000D03*
X148900000Y-26010000D03*
X148100000Y-26010000D03*
D14*
X21110000Y-127120000D03*
X21110000Y-135380000D03*
X15160000Y-135740000D03*
X15160000Y-126760000D03*
D13*
X21710000Y-134050000D03*
X21710000Y-132450000D03*
X21710000Y-131650000D03*
X21710000Y-130850000D03*
X21710000Y-130050000D03*
X21710000Y-128450000D03*
X21010000Y-133650000D03*
X21010000Y-132850000D03*
X21010000Y-132050000D03*
X21010000Y-130450000D03*
X21010000Y-129650000D03*
X21010000Y-128850000D03*
D15*
X144750453Y-104500046D02*
X143939547Y-105959954D01*
X150289724Y-103420672D02*
X150250276Y-103999328D01*
X26250453Y-72250046D02*
X25439547Y-73709954D01*
X31789724Y-71170672D02*
X31750276Y-71749328D01*
D16*
X38750000Y-34425000D03*
X38750000Y-37575000D03*
D17*
X38750000Y-39900000D03*
D18*
X38750000Y-32100000D03*
D19*
X38750000Y-38700000D03*
X38750000Y-33300000D03*
D16*
X58500000Y-34425000D03*
X58500000Y-37575000D03*
D17*
X58500000Y-39900000D03*
D18*
X58500000Y-32100000D03*
D19*
X58500000Y-38700000D03*
X58500000Y-33300000D03*
D16*
X78250000Y-29425000D03*
X78250000Y-32575000D03*
D17*
X78250000Y-34900000D03*
D18*
X78250000Y-27100000D03*
D19*
X78250000Y-33700000D03*
X78250000Y-28300000D03*
D16*
X98000000Y-26425000D03*
X98000000Y-29575000D03*
D17*
X98000000Y-31900000D03*
D18*
X98000000Y-24100000D03*
D19*
X98000000Y-30700000D03*
X98000000Y-25300000D03*
D16*
X117750000Y-29425000D03*
X117750000Y-32575000D03*
D17*
X117750000Y-34900000D03*
D18*
X117750000Y-27100000D03*
D19*
X117750000Y-33700000D03*
X117750000Y-28300000D03*
D16*
X137500000Y-31925000D03*
X137500000Y-35075000D03*
D17*
X137500000Y-37400000D03*
D18*
X137500000Y-29600000D03*
D19*
X137500000Y-36200000D03*
X137500000Y-30800000D03*
D16*
X38750000Y-53925000D03*
X38750000Y-57075000D03*
D17*
X38750000Y-59400000D03*
D18*
X38750000Y-51600000D03*
D19*
X38750000Y-58200000D03*
X38750000Y-52800000D03*
D16*
X58500000Y-53925000D03*
X58500000Y-57075000D03*
D17*
X58500000Y-59400000D03*
D18*
X58500000Y-51600000D03*
D19*
X58500000Y-58200000D03*
X58500000Y-52800000D03*
D16*
X78250000Y-48925000D03*
X78250000Y-52075000D03*
D17*
X78250000Y-54400000D03*
D18*
X78250000Y-46600000D03*
D19*
X78250000Y-53200000D03*
X78250000Y-47800000D03*
D16*
X98000000Y-46425000D03*
X98000000Y-49575000D03*
D17*
X98000000Y-51900000D03*
D18*
X98000000Y-44100000D03*
D19*
X98000000Y-50700000D03*
X98000000Y-45300000D03*
D16*
X117750000Y-48925000D03*
X117750000Y-52075000D03*
D17*
X117750000Y-54400000D03*
D18*
X117750000Y-46600000D03*
D19*
X117750000Y-53200000D03*
X117750000Y-47800000D03*
D16*
X137500000Y-51425000D03*
X137500000Y-54575000D03*
D17*
X137500000Y-56900000D03*
D18*
X137500000Y-49100000D03*
D19*
X137500000Y-55700000D03*
X137500000Y-50300000D03*
D16*
X38750000Y-73925000D03*
X38750000Y-77075000D03*
D17*
X38750000Y-79400000D03*
D18*
X38750000Y-71600000D03*
D19*
X38750000Y-78200000D03*
X38750000Y-72800000D03*
D16*
X58500000Y-73925000D03*
X58500000Y-77075000D03*
D17*
X58500000Y-79400000D03*
D18*
X58500000Y-71600000D03*
D19*
X58500000Y-78200000D03*
X58500000Y-72800000D03*
D16*
X78250000Y-68925000D03*
X78250000Y-72075000D03*
D17*
X78250000Y-74400000D03*
D18*
X78250000Y-66600000D03*
D19*
X78250000Y-73200000D03*
X78250000Y-67800000D03*
D16*
X98000000Y-66425000D03*
X98000000Y-69575000D03*
D17*
X98000000Y-71900000D03*
D18*
X98000000Y-64100000D03*
D19*
X98000000Y-70700000D03*
X98000000Y-65300000D03*
D16*
X117750000Y-68925000D03*
X117750000Y-72075000D03*
D17*
X117750000Y-74400000D03*
D18*
X117750000Y-66600000D03*
D19*
X117750000Y-73200000D03*
X117750000Y-67800000D03*
D16*
X137500000Y-71425000D03*
X137500000Y-74575000D03*
D17*
X137500000Y-76900000D03*
D18*
X137500000Y-69100000D03*
D19*
X137500000Y-75700000D03*
X137500000Y-70300000D03*
D16*
X117750000Y-88925000D03*
X117750000Y-92075000D03*
D17*
X117750000Y-94400000D03*
D18*
X117750000Y-86600000D03*
D19*
X117750000Y-93200000D03*
X117750000Y-87800000D03*
D16*
X137500000Y-90925000D03*
X137500000Y-94075000D03*
D17*
X137500000Y-96400000D03*
D18*
X137500000Y-88600000D03*
D19*
X137500000Y-95200000D03*
X137500000Y-89800000D03*
D16*
X158250000Y-105925000D03*
X158250000Y-109075000D03*
D17*
X158250000Y-111400000D03*
D18*
X158250000Y-103600000D03*
D19*
X158250000Y-110200000D03*
X158250000Y-104800000D03*
D14*
X162140000Y-85870000D03*
D20*
X160230000Y-87250000D03*
X160230000Y-87750000D03*
X160230000Y-88250000D03*
X160230000Y-88750000D03*
X160230000Y-89250000D03*
X160230000Y-89750000D03*
X160230000Y-90250000D03*
X160230000Y-92750000D03*
X160230000Y-91750000D03*
X160230000Y-91250000D03*
X160230000Y-90750000D03*
X160230000Y-92250000D03*
D14*
X162140000Y-94130000D03*
X168090000Y-94490000D03*
X168090000Y-85510000D03*
D13*
X161540000Y-92800000D03*
X161540000Y-91200000D03*
X161540000Y-90400000D03*
X161540000Y-89600000D03*
X161540000Y-88800000D03*
X161540000Y-87200000D03*
X162240000Y-92400000D03*
X162240000Y-91600000D03*
X162240000Y-90800000D03*
X162240000Y-89200000D03*
X162240000Y-88400000D03*
X162240000Y-87600000D03*
D15*
X26250453Y-32750046D02*
X25439547Y-34209954D01*
X31789724Y-31670672D02*
X31750276Y-32249328D01*
X46000453Y-32750046D02*
X45189547Y-34209954D01*
X51539724Y-31670672D02*
X51500276Y-32249328D01*
X65750453Y-27750046D02*
X64939547Y-29209954D01*
X71289724Y-26670672D02*
X71250276Y-27249328D01*
X85500453Y-24750046D02*
X84689547Y-26209954D01*
X91039724Y-23670672D02*
X91000276Y-24249328D01*
X105250453Y-27750046D02*
X104439547Y-29209954D01*
X110789724Y-26670672D02*
X110750276Y-27249328D01*
X125000453Y-30250046D02*
X124189547Y-31709954D01*
X130539724Y-29170672D02*
X130500276Y-29749328D01*
X26250453Y-52500046D02*
X25439547Y-53959954D01*
X31789724Y-51420672D02*
X31750276Y-51999328D01*
X46000453Y-52500046D02*
X45189547Y-53959954D01*
X51539724Y-51420672D02*
X51500276Y-51999328D01*
X65750453Y-47500046D02*
X64939547Y-48959954D01*
X71289724Y-46420672D02*
X71250276Y-46999328D01*
X85500453Y-45000046D02*
X84689547Y-46459954D01*
X91039724Y-43920672D02*
X91000276Y-44499328D01*
X105250453Y-47500046D02*
X104439547Y-48959954D01*
X110789724Y-46420672D02*
X110750276Y-46999328D01*
X125000453Y-50000046D02*
X124189547Y-51459954D01*
X130539724Y-48920672D02*
X130500276Y-49499328D01*
X46000453Y-72250046D02*
X45189547Y-73709954D01*
X51539724Y-71170672D02*
X51500276Y-71749328D01*
X65750453Y-67250046D02*
X64939547Y-68709954D01*
X71289724Y-66170672D02*
X71250276Y-66749328D01*
X85500453Y-64750046D02*
X84689547Y-66209954D01*
X91039724Y-63670672D02*
X91000276Y-64249328D01*
X105250453Y-67250046D02*
X104439547Y-68709954D01*
X110789724Y-66170672D02*
X110750276Y-66749328D01*
X125000453Y-69750046D02*
X124189547Y-71209954D01*
X130539724Y-68670672D02*
X130500276Y-69249328D01*
X105250453Y-87250046D02*
X104439547Y-88709954D01*
X110789724Y-86170672D02*
X110750276Y-86749328D01*
X125000453Y-89500046D02*
X124189547Y-90959954D01*
X130539724Y-88420672D02*
X130500276Y-88999328D01*
D21*
X145880000Y-48030000D03*
D22*
X145880000Y-50570000D03*
X145880000Y-53110000D03*
X145880000Y-55650000D03*
X145880000Y-58190000D03*
X145880000Y-60730000D03*
X145880000Y-63270000D03*
X145880000Y-65810000D03*
X145880000Y-68350000D03*
X145880000Y-70890000D03*
X145880000Y-73430000D03*
X145880000Y-75970000D03*
X148420000Y-75970000D03*
X150960000Y-75970000D03*
X153500000Y-75970000D03*
X156040000Y-75970000D03*
X158580000Y-75970000D03*
X161120000Y-75970000D03*
X161120000Y-73430000D03*
X161120000Y-70890000D03*
X161120000Y-68350000D03*
X161120000Y-65810000D03*
X161120000Y-63270000D03*
X161120000Y-60730000D03*
X161120000Y-58190000D03*
X161120000Y-55650000D03*
X161120000Y-53110000D03*
X161120000Y-50570000D03*
X161120000Y-48030000D03*
X158580000Y-58190000D03*
X148420000Y-58190000D03*
D17*
X45500000Y-183850000D03*
D18*
X45500000Y-191650000D03*
D17*
X65250000Y-186350000D03*
D18*
X65250000Y-194150000D03*
D17*
X85000000Y-189350000D03*
D18*
X85000000Y-197150000D03*
D17*
X104750000Y-186350000D03*
D18*
X104750000Y-194150000D03*
D17*
X124500000Y-181350000D03*
D18*
X124500000Y-189150000D03*
D17*
X144250000Y-181350000D03*
D18*
X144250000Y-189150000D03*
D17*
X45500000Y-164350000D03*
D18*
X45500000Y-172150000D03*
D17*
X65250000Y-166850000D03*
D18*
X65250000Y-174650000D03*
D17*
X85000000Y-169350000D03*
D18*
X85000000Y-177150000D03*
D17*
X104750000Y-166850000D03*
D18*
X104750000Y-174650000D03*
D17*
X124500000Y-161850000D03*
D18*
X124500000Y-169650000D03*
D17*
X144250000Y-161850000D03*
D18*
X144250000Y-169650000D03*
D17*
X45500000Y-144350000D03*
D18*
X45500000Y-152150000D03*
D17*
X65250000Y-146850000D03*
D18*
X65250000Y-154650000D03*
D17*
X85000000Y-149350000D03*
D18*
X85000000Y-157150000D03*
D17*
X104750000Y-146850000D03*
D18*
X104750000Y-154650000D03*
D17*
X124500000Y-141850000D03*
D18*
X124500000Y-149650000D03*
D17*
X144250000Y-141850000D03*
D18*
X144250000Y-149650000D03*
D17*
X45500000Y-124850000D03*
D18*
X45500000Y-132650000D03*
D17*
X65250000Y-126850000D03*
D18*
X65250000Y-134650000D03*
D17*
X25000000Y-109850000D03*
D18*
X25000000Y-117650000D03*
D15*
X51189547Y-189540046D02*
X52000453Y-190999954D01*
X57500276Y-191500672D02*
X57539724Y-192079328D01*
X70939547Y-192040046D02*
X71750453Y-193499954D01*
X77250276Y-194000672D02*
X77289724Y-194579328D01*
X90689547Y-195040046D02*
X91500453Y-196499954D01*
X97000276Y-197000672D02*
X97039724Y-197579328D01*
X110439547Y-192040046D02*
X111250453Y-193499954D01*
X116750276Y-194000672D02*
X116789724Y-194579328D01*
X130189547Y-187040046D02*
X131000453Y-188499954D01*
X136500276Y-189000672D02*
X136539724Y-189579328D01*
X149939547Y-187040046D02*
X150750453Y-188499954D01*
X156250276Y-189000672D02*
X156289724Y-189579328D01*
X51189547Y-169790046D02*
X52000453Y-171249954D01*
X57500276Y-171750672D02*
X57539724Y-172329328D01*
X70939547Y-172290046D02*
X71750453Y-173749954D01*
X77250276Y-174250672D02*
X77289724Y-174829328D01*
X90689547Y-174790046D02*
X91500453Y-176249954D01*
X97000276Y-176750672D02*
X97039724Y-177329328D01*
X110439547Y-172290046D02*
X111250453Y-173749954D01*
X116750276Y-174250672D02*
X116789724Y-174829328D01*
X130189547Y-167290046D02*
X131000453Y-168749954D01*
X136500276Y-169250672D02*
X136539724Y-169829328D01*
X149939547Y-167290046D02*
X150750453Y-168749954D01*
X156250276Y-169250672D02*
X156289724Y-169829328D01*
X51189547Y-150040046D02*
X52000453Y-151499954D01*
X57500276Y-152000672D02*
X57539724Y-152579328D01*
X70939547Y-152540046D02*
X71750453Y-153999954D01*
X77250276Y-154500672D02*
X77289724Y-155079328D01*
X90689547Y-155040046D02*
X91500453Y-156499954D01*
X97000276Y-157000672D02*
X97039724Y-157579328D01*
X110439547Y-152540046D02*
X111250453Y-153999954D01*
X116750276Y-154500672D02*
X116789724Y-155079328D01*
X130189547Y-147540046D02*
X131000453Y-148999954D01*
X136500276Y-149500672D02*
X136539724Y-150079328D01*
X149939547Y-147540046D02*
X150750453Y-148999954D01*
X156250276Y-149500672D02*
X156289724Y-150079328D01*
X51189547Y-130290046D02*
X52000453Y-131749954D01*
X57500276Y-132250672D02*
X57539724Y-132829328D01*
X70939547Y-132540046D02*
X71750453Y-133999954D01*
X77250276Y-134500672D02*
X77289724Y-135079328D01*
X31689547Y-115290046D02*
X32500453Y-116749954D01*
X38000276Y-117250672D02*
X38039724Y-117829328D01*
D23*
X17000000Y-88500000D03*
X17250000Y-100750000D03*
X166000000Y-120500000D03*
X166000000Y-22250000D03*
X17250000Y-24750000D03*
X17250000Y-199000000D03*
X166000000Y-196500000D03*
X166250000Y-132750000D03*
D24*
X146750000Y-33000000D03*
X151500000Y-33000000D03*
X156500000Y-33000000D03*
X161250000Y-33000000D03*
D25*
X18000000Y-143000000D03*
X155750000Y-85000000D03*
X18750000Y-142250000D03*
X141500000Y-75000000D03*
X154500000Y-85000000D03*
X19000000Y-140500000D03*
X139750000Y-76900000D03*
X153250000Y-85250000D03*
X142500000Y-83500000D03*
X141750000Y-81250000D03*
X33500000Y-127750000D03*
X31500000Y-132500000D03*
X34500000Y-133000000D03*
X43750000Y-134000000D03*
X91095000Y-182250000D03*
X41250000Y-174500000D03*
X164250000Y-82000000D03*
X167000000Y-82000000D03*
X40500000Y-173750000D03*
X111000000Y-179250000D03*
X166500000Y-83000000D03*
X164250000Y-83000000D03*
X27500000Y-129000000D03*
X150345000Y-154250000D03*
X41750000Y-143250000D03*
X31750000Y-129750000D03*
X42500000Y-145250000D03*
X124500000Y-154000000D03*
X25750000Y-47250000D03*
X45595000Y-48000000D03*
X65500000Y-41750000D03*
X85095000Y-59000000D03*
X141250000Y-58250000D03*
X143000000Y-77000000D03*
X144500000Y-78250000D03*
X118432500Y-84067500D03*
X145000000Y-80750000D03*
X158000000Y-31250000D03*
X149750000Y-31250000D03*
X151750000Y-30000000D03*
D26*
X31770000Y-31960000D02*
X38610000Y-31960000D01*
X38610000Y-31960000D02*
X38750000Y-32100000D01*
X21010000Y-128850000D02*
X18400000Y-128850000D01*
X17500000Y-142500000D02*
X18000000Y-143000000D01*
X17500000Y-129750000D02*
X17500000Y-142500000D01*
X18400000Y-128850000D02*
X17500000Y-129750000D01*
X157000000Y-87750000D02*
X160230000Y-87750000D01*
X155750000Y-86500000D02*
X157000000Y-87750000D01*
X155750000Y-85000000D02*
X155750000Y-86500000D01*
X137500000Y-37400000D02*
X151150000Y-37400000D01*
X150730000Y-63270000D02*
X145880000Y-63270000D01*
X152500000Y-61500000D02*
X150730000Y-63270000D01*
X152500000Y-38750000D02*
X152500000Y-61500000D01*
X151150000Y-37400000D02*
X152500000Y-38750000D01*
X38750000Y-39900000D02*
X38750000Y-43750000D01*
X58500000Y-44250000D02*
X58500000Y-39900000D01*
X56000000Y-46750000D02*
X58500000Y-44250000D01*
X42000000Y-46750000D02*
X56000000Y-46750000D01*
X38750000Y-43750000D02*
X42000000Y-46750000D01*
X78250000Y-35250000D02*
X78250000Y-34900000D01*
X81500000Y-38250000D02*
X78250000Y-35250000D01*
X95500000Y-38250000D02*
X81500000Y-38250000D01*
X96625000Y-37125000D02*
X95500000Y-38250000D01*
X117000000Y-39500000D02*
X115000000Y-41500000D01*
X96625000Y-37125000D02*
X96750000Y-37000000D01*
X101000000Y-41500000D02*
X96625000Y-37125000D01*
X115000000Y-41500000D02*
X101000000Y-41500000D01*
X137500000Y-37400000D02*
X137500000Y-41250000D01*
X121250000Y-43750000D02*
X117000000Y-39500000D01*
X135000000Y-43750000D02*
X121250000Y-43750000D01*
X137500000Y-41250000D02*
X135000000Y-43750000D01*
X117750000Y-34900000D02*
X117750000Y-38750000D01*
X117750000Y-38750000D02*
X117000000Y-39500000D01*
X98000000Y-31900000D02*
X98000000Y-35750000D01*
X98000000Y-35750000D02*
X96750000Y-37000000D01*
X58500000Y-39900000D02*
X75650000Y-39900000D01*
X76800000Y-36600000D02*
X78250000Y-34900000D01*
X76800000Y-38750000D02*
X76800000Y-36600000D01*
X75650000Y-39900000D02*
X76800000Y-38750000D01*
X51520000Y-31960000D02*
X58360000Y-31960000D01*
X58360000Y-31960000D02*
X58500000Y-32100000D01*
X71270000Y-26960000D02*
X78110000Y-26960000D01*
X78110000Y-26960000D02*
X78250000Y-27100000D01*
X91020000Y-23960000D02*
X97860000Y-23960000D01*
X97860000Y-23960000D02*
X98000000Y-24100000D01*
X110770000Y-26960000D02*
X117610000Y-26960000D01*
X117610000Y-26960000D02*
X117750000Y-27100000D01*
X130520000Y-29460000D02*
X137360000Y-29460000D01*
X137360000Y-29460000D02*
X137500000Y-29600000D01*
X31770000Y-51710000D02*
X38640000Y-51710000D01*
X38640000Y-51710000D02*
X38750000Y-51600000D01*
X21010000Y-129650000D02*
X19100000Y-129650000D01*
X19100000Y-129650000D02*
X18250000Y-130500000D01*
X18250000Y-130500000D02*
X18250000Y-141750000D01*
X18250000Y-141750000D02*
X18750000Y-142250000D01*
X156250000Y-88250000D02*
X155750000Y-88250000D01*
X154500000Y-87000000D02*
X154500000Y-85000000D01*
X155750000Y-88250000D02*
X154500000Y-87000000D01*
X142250000Y-62750000D02*
X141500000Y-63500000D01*
X141500000Y-63500000D02*
X141500000Y-75000000D01*
X156250000Y-88250000D02*
X160230000Y-88250000D01*
X137500000Y-56900000D02*
X137500000Y-60863602D01*
X121049998Y-63299998D02*
X117125000Y-59375000D01*
X135063604Y-63299998D02*
X121049998Y-63299998D01*
X137500000Y-60863602D02*
X135063604Y-63299998D01*
X117750000Y-54400000D02*
X117750000Y-58500000D01*
X117750000Y-58500000D02*
X117125000Y-59375000D01*
X96875000Y-56875000D02*
X96750000Y-57000000D01*
X117125000Y-59375000D02*
X115750000Y-61250000D01*
X115750000Y-61250000D02*
X101250000Y-61250000D01*
X101250000Y-61250000D02*
X96875000Y-56875000D01*
X137500000Y-56900000D02*
X141400000Y-56900000D01*
X143810000Y-65810000D02*
X145880000Y-65810000D01*
X142250000Y-64250000D02*
X142500000Y-64500000D01*
X142500000Y-64500000D02*
X143810000Y-65810000D01*
X142250000Y-57750000D02*
X142250000Y-62750000D01*
X142250000Y-62750000D02*
X142250000Y-64250000D01*
X141400000Y-56900000D02*
X142250000Y-57750000D01*
X98000000Y-51900000D02*
X98000000Y-55750000D01*
X78500000Y-55250000D02*
X78250000Y-54400000D01*
X81500000Y-58250000D02*
X78500000Y-55250000D01*
X95500000Y-58250000D02*
X81500000Y-58250000D01*
X98000000Y-55750000D02*
X96750000Y-57000000D01*
X96750000Y-57000000D02*
X95500000Y-58250000D01*
X58500000Y-59400000D02*
X75650000Y-59400000D01*
X76500000Y-56400000D02*
X78250000Y-54400000D01*
X76500000Y-58550000D02*
X76500000Y-56400000D01*
X75650000Y-59400000D02*
X76500000Y-58550000D01*
X38750000Y-59400000D02*
X38750000Y-63500000D01*
X58500000Y-64000000D02*
X58500000Y-59400000D01*
X56000000Y-66500000D02*
X58500000Y-64000000D01*
X42000000Y-66500000D02*
X56000000Y-66500000D01*
X38750000Y-63500000D02*
X42000000Y-66500000D01*
X51520000Y-51710000D02*
X58390000Y-51710000D01*
X58390000Y-51710000D02*
X58500000Y-51600000D01*
X71270000Y-46710000D02*
X78140000Y-46710000D01*
X78140000Y-46710000D02*
X78250000Y-46600000D01*
X91020000Y-44210000D02*
X97890000Y-44210000D01*
X97890000Y-44210000D02*
X98000000Y-44100000D01*
X110770000Y-46710000D02*
X117640000Y-46710000D01*
X117640000Y-46710000D02*
X117750000Y-46600000D01*
X130520000Y-49210000D02*
X137390000Y-49210000D01*
X137390000Y-49210000D02*
X137500000Y-49100000D01*
X31770000Y-71460000D02*
X38610000Y-71460000D01*
X38610000Y-71460000D02*
X38750000Y-71600000D01*
X20000000Y-132850000D02*
X19900000Y-132850000D01*
X19900000Y-132850000D02*
X19000000Y-133750000D01*
X19000000Y-140500000D02*
X19000000Y-133750000D01*
X20000000Y-132850000D02*
X21010000Y-132850000D01*
X160230000Y-91750000D02*
X154500000Y-91750000D01*
X153500000Y-90750000D02*
X154500000Y-91750000D01*
X153500000Y-85500000D02*
X153500000Y-90750000D01*
X153250000Y-85250000D02*
X153500000Y-85500000D01*
X142500000Y-82000000D02*
X142500000Y-83500000D01*
X141750000Y-81250000D02*
X142500000Y-82000000D01*
X135000000Y-83250000D02*
X137500000Y-80750000D01*
X137500000Y-80750000D02*
X137500000Y-80250000D01*
X137500000Y-80250000D02*
X137500000Y-76900000D01*
X137500000Y-76900000D02*
X139750000Y-76900000D01*
X139750000Y-76900000D02*
X141400000Y-76900000D01*
X141400000Y-76900000D02*
X142250000Y-76050000D01*
X142250000Y-76050000D02*
X142250000Y-70000000D01*
X142250000Y-70000000D02*
X143900000Y-68350000D01*
X143900000Y-68350000D02*
X145880000Y-68350000D01*
X121000000Y-83250000D02*
X117000000Y-79250000D01*
X135000000Y-83250000D02*
X121000000Y-83250000D01*
X117750000Y-74400000D02*
X117750000Y-78250000D01*
X101250000Y-81000000D02*
X97000000Y-76750000D01*
X115750000Y-81000000D02*
X101250000Y-81000000D01*
X117750000Y-78250000D02*
X117000000Y-79250000D01*
X117000000Y-79250000D02*
X115750000Y-81000000D01*
X98000000Y-71900000D02*
X98000000Y-75750000D01*
X78500000Y-75250000D02*
X78250000Y-74400000D01*
X81500000Y-78250000D02*
X78500000Y-75250000D01*
X95500000Y-78250000D02*
X81500000Y-78250000D01*
X98000000Y-75750000D02*
X97000000Y-76750000D01*
X97000000Y-76750000D02*
X95500000Y-78250000D01*
X58500000Y-79400000D02*
X75650000Y-79400000D01*
X76800000Y-76100000D02*
X78250000Y-74400000D01*
X76800000Y-78250000D02*
X76800000Y-76100000D01*
X75650000Y-79400000D02*
X76800000Y-78250000D01*
X38750000Y-79400000D02*
X38750000Y-83250000D01*
X58500000Y-83750000D02*
X58500000Y-79400000D01*
X56000000Y-86250000D02*
X58500000Y-83750000D01*
X42000000Y-86250000D02*
X56000000Y-86250000D01*
X38750000Y-83250000D02*
X42000000Y-86250000D01*
X51520000Y-71460000D02*
X58360000Y-71460000D01*
X58360000Y-71460000D02*
X58500000Y-71600000D01*
X71270000Y-66460000D02*
X78110000Y-66460000D01*
X78110000Y-66460000D02*
X78250000Y-66600000D01*
X91020000Y-63960000D02*
X97860000Y-63960000D01*
X97860000Y-63960000D02*
X98000000Y-64100000D01*
X110770000Y-66460000D02*
X117610000Y-66460000D01*
X117610000Y-66460000D02*
X117750000Y-66600000D01*
X130520000Y-68960000D02*
X137360000Y-68960000D01*
X137360000Y-68960000D02*
X137500000Y-69100000D01*
X110770000Y-86460000D02*
X117610000Y-86460000D01*
X117610000Y-86460000D02*
X117750000Y-86600000D01*
X160230000Y-92250000D02*
X158500000Y-92250000D01*
X157500000Y-93250000D02*
X157500000Y-99500000D01*
X158500000Y-92250000D02*
X157500000Y-93250000D01*
X145880000Y-70890000D02*
X144610000Y-70890000D01*
X143750000Y-71750000D02*
X143750000Y-84500000D01*
X143750000Y-84500000D02*
X143750000Y-86500000D01*
X143750000Y-86500000D02*
X143750000Y-99500000D01*
X144610000Y-70890000D02*
X143750000Y-71750000D01*
X158250000Y-111400000D02*
X160350000Y-111400000D01*
X159250000Y-99500000D02*
X157500000Y-99500000D01*
X157500000Y-99500000D02*
X143750000Y-99500000D01*
X143750000Y-99500000D02*
X137500000Y-99500000D01*
X161250000Y-101500000D02*
X159250000Y-99500000D01*
X161250000Y-110500000D02*
X161250000Y-102500000D01*
X161250000Y-102500000D02*
X161250000Y-102000000D01*
X161250000Y-102000000D02*
X161250000Y-101500000D01*
X160350000Y-111400000D02*
X161250000Y-110500000D01*
X121000000Y-103500000D02*
X135000000Y-103500000D01*
X117750000Y-100250000D02*
X121000000Y-103500000D01*
X117750000Y-94400000D02*
X117750000Y-100250000D01*
X137500000Y-101000000D02*
X137500000Y-99500000D01*
X137500000Y-99500000D02*
X137500000Y-96400000D01*
X135000000Y-103500000D02*
X137500000Y-101000000D01*
X130520000Y-88710000D02*
X137390000Y-88710000D01*
X137390000Y-88710000D02*
X137500000Y-88600000D01*
X150270000Y-103710000D02*
X158140000Y-103710000D01*
X158140000Y-103710000D02*
X158250000Y-103600000D01*
X42500000Y-130750000D02*
X40000000Y-128250000D01*
X40000000Y-128250000D02*
X40000000Y-128250000D01*
X42500000Y-135250000D02*
X42500000Y-130750000D01*
X34000000Y-128250000D02*
X33500000Y-127750000D01*
X40000000Y-128250000D02*
X34000000Y-128250000D01*
X46500000Y-137000000D02*
X44250000Y-137000000D01*
X44250000Y-137000000D02*
X42500000Y-135250000D01*
X33500000Y-127750000D02*
X32000000Y-126250000D01*
X32000000Y-126250000D02*
X32000000Y-116115000D01*
X32000000Y-116115000D02*
X32095000Y-116020000D01*
X51595000Y-150770000D02*
X51595000Y-139595000D01*
X51595000Y-139595000D02*
X49000000Y-137000000D01*
X49000000Y-137000000D02*
X46500000Y-137000000D01*
X51595000Y-190270000D02*
X51595000Y-170520000D01*
X51595000Y-170520000D02*
X51595000Y-150770000D01*
X161120000Y-50570000D02*
X161320000Y-50570000D01*
X51595000Y-135250000D02*
X45000000Y-135250000D01*
X34000000Y-132500000D02*
X31500000Y-132500000D01*
X34500000Y-133000000D02*
X34000000Y-132500000D01*
X45000000Y-135250000D02*
X43750000Y-134000000D01*
X71345000Y-153270000D02*
X71345000Y-141095000D01*
X51595000Y-136345000D02*
X51595000Y-135250000D01*
X51595000Y-135250000D02*
X51595000Y-131020000D01*
X53250000Y-138000000D02*
X52250000Y-137000000D01*
X52250000Y-137000000D02*
X51595000Y-136345000D01*
X68250000Y-138000000D02*
X53250000Y-138000000D01*
X71345000Y-141095000D02*
X68250000Y-138000000D01*
X71345000Y-192770000D02*
X71345000Y-173020000D01*
X71345000Y-173020000D02*
X71345000Y-159250000D01*
X71345000Y-159250000D02*
X71345000Y-153270000D01*
X36000000Y-131650000D02*
X36400000Y-131650000D01*
X36400000Y-131650000D02*
X37250000Y-132500000D01*
X37250000Y-132500000D02*
X36400000Y-131650000D01*
X21710000Y-131650000D02*
X36000000Y-131650000D01*
X37250000Y-173750000D02*
X37250000Y-132500000D01*
X38000000Y-174500000D02*
X37250000Y-173750000D01*
X41250000Y-174500000D02*
X38000000Y-174500000D01*
X167000000Y-82000000D02*
X164250000Y-82000000D01*
X91095000Y-155770000D02*
X91095000Y-140095000D01*
X71345000Y-137095000D02*
X71345000Y-133270000D01*
X72500000Y-138250000D02*
X71345000Y-137095000D01*
X89250000Y-138250000D02*
X72500000Y-138250000D01*
X91095000Y-140095000D02*
X89250000Y-138250000D01*
X91095000Y-195770000D02*
X91095000Y-182250000D01*
X91095000Y-182250000D02*
X91095000Y-181750000D01*
X91095000Y-181750000D02*
X91095000Y-175520000D01*
X91095000Y-175520000D02*
X91095000Y-162000000D01*
X91095000Y-162000000D02*
X91095000Y-155770000D01*
X39000000Y-173750000D02*
X38750000Y-173750000D01*
X38750000Y-173750000D02*
X38000000Y-173000000D01*
X30750000Y-130500000D02*
X22060000Y-130500000D01*
X22060000Y-130500000D02*
X21710000Y-130850000D01*
X110845000Y-179250000D02*
X111000000Y-179250000D01*
X37250000Y-130500000D02*
X30750000Y-130500000D01*
X38000000Y-131250000D02*
X37250000Y-130500000D01*
X38000000Y-173000000D02*
X38000000Y-131250000D01*
X40500000Y-173750000D02*
X39000000Y-173750000D01*
X164250000Y-83000000D02*
X166500000Y-83000000D01*
X110845000Y-153270000D02*
X110845000Y-173020000D01*
X110845000Y-173020000D02*
X110845000Y-179250000D01*
X110845000Y-179250000D02*
X110845000Y-180750000D01*
X110845000Y-180750000D02*
X110845000Y-192770000D01*
X41750000Y-141250000D02*
X41750000Y-131250000D01*
X39500000Y-129000000D02*
X27500000Y-129000000D01*
X41750000Y-131250000D02*
X39500000Y-129000000D01*
X41750000Y-143250000D02*
X41750000Y-141250000D01*
X150250000Y-176750000D02*
X150345000Y-176750000D01*
X150345000Y-176750000D02*
X150250000Y-176750000D01*
X150250000Y-176750000D02*
X150345000Y-176750000D01*
X150345000Y-187770000D02*
X150345000Y-176750000D01*
X150345000Y-176750000D02*
X150345000Y-168020000D01*
X150345000Y-168020000D02*
X150345000Y-154250000D01*
X150345000Y-154250000D02*
X150345000Y-148270000D01*
X130595000Y-151500000D02*
X127000000Y-151500000D01*
X38750000Y-129750000D02*
X31750000Y-129750000D01*
X40750000Y-131750000D02*
X38750000Y-129750000D01*
X40750000Y-143750000D02*
X40750000Y-131750000D01*
X41250000Y-144250000D02*
X40750000Y-143750000D01*
X41500000Y-144250000D02*
X41250000Y-144250000D01*
X42500000Y-145250000D02*
X41500000Y-144250000D01*
X127000000Y-151500000D02*
X124500000Y-154000000D01*
X130595000Y-187770000D02*
X130595000Y-175750000D01*
X130595000Y-175750000D02*
X130595000Y-168020000D01*
X130595000Y-168020000D02*
X130595000Y-151500000D01*
X130595000Y-151500000D02*
X130595000Y-148270000D01*
X145880000Y-50570000D02*
X144570000Y-50570000D01*
X143750000Y-49750000D02*
X144570000Y-50570000D01*
X143750000Y-46500000D02*
X143750000Y-49750000D01*
X141500000Y-44250000D02*
X143750000Y-46500000D01*
X120750000Y-44250000D02*
X141500000Y-44250000D01*
X119000000Y-42500000D02*
X120750000Y-44250000D01*
X100999961Y-42496896D02*
X119000000Y-42500000D01*
X97500000Y-39000000D02*
X100999961Y-42496896D01*
X77500000Y-39000000D02*
X97500000Y-39000000D01*
X76000000Y-40500000D02*
X77500000Y-39000000D01*
X61250000Y-40500000D02*
X76000000Y-40500000D01*
X59250000Y-42500000D02*
X61250000Y-40500000D01*
X59250000Y-44500000D02*
X59250000Y-42500000D01*
X59250000Y-44500000D02*
X59250000Y-44500000D01*
X56372969Y-47373135D02*
X59250000Y-44500000D01*
X56372969Y-47373135D02*
X25750000Y-47250000D01*
X56500000Y-48000000D02*
X59750000Y-44750000D01*
X45595000Y-48000000D02*
X56500000Y-48000000D01*
X144360000Y-53110000D02*
X145880000Y-53110000D01*
X143250000Y-52000000D02*
X144360000Y-53110000D01*
X143250000Y-46700002D02*
X143250000Y-52000000D01*
X141299998Y-44750000D02*
X143250000Y-46700002D01*
X120500000Y-44750000D02*
X141299998Y-44750000D01*
X118750000Y-43000000D02*
X120500000Y-44750000D01*
X100750000Y-43000000D02*
X118750000Y-43000000D01*
X97250000Y-39500000D02*
X100750000Y-43000000D01*
X77750000Y-39500000D02*
X97250000Y-39500000D01*
X76250000Y-41000000D02*
X77750000Y-39500000D01*
X61500000Y-41000000D02*
X76250000Y-41000000D01*
X59750000Y-42750000D02*
X61500000Y-41000000D01*
X59750000Y-44750000D02*
X59750000Y-42750000D01*
X144650000Y-55650000D02*
X145880000Y-55650000D01*
X142750000Y-53750000D02*
X144650000Y-55650000D01*
X142750000Y-46836400D02*
X142750000Y-53750000D01*
X141163600Y-45250000D02*
X142750000Y-46836400D01*
X120250000Y-45250000D02*
X141163600Y-45250000D01*
X118500000Y-43500000D02*
X120250000Y-45250000D01*
X100500000Y-43500000D02*
X118500000Y-43500000D01*
X97000000Y-40000000D02*
X100500000Y-43500000D01*
X78000000Y-40000000D02*
X97000000Y-40000000D01*
X76500000Y-41500000D02*
X78000000Y-40000000D01*
X65750000Y-41500000D02*
X76500000Y-41500000D01*
X65500000Y-41750000D02*
X65750000Y-41500000D01*
X140750000Y-58250000D02*
X141250000Y-58250000D01*
X135250000Y-63750000D02*
X140750000Y-58250000D01*
X120750000Y-63750000D02*
X135250000Y-63750000D01*
X117250000Y-60250000D02*
X120750000Y-63750000D01*
X116250000Y-61750000D02*
X117250000Y-60250000D01*
X101000000Y-61750000D02*
X116250000Y-61750000D01*
X98000000Y-58750000D02*
X101000000Y-61750000D01*
X85345000Y-58750000D02*
X98000000Y-58750000D01*
X85345000Y-58750000D02*
X85095000Y-59000000D01*
X161120000Y-70890000D02*
X163390000Y-70890000D01*
X136000000Y-84000000D02*
X118500000Y-84000000D01*
X143000000Y-77000000D02*
X136000000Y-84000000D01*
X145000000Y-77750000D02*
X144500000Y-78250000D01*
X163750000Y-77750000D02*
X145000000Y-77750000D01*
X164000000Y-77500000D02*
X163750000Y-77750000D01*
X164000000Y-71500000D02*
X164000000Y-77500000D01*
X163390000Y-70890000D02*
X164000000Y-71500000D01*
X118500000Y-84000000D02*
X118432500Y-84067500D01*
X118500000Y-84000000D02*
X118432500Y-84067500D01*
X163100000Y-68350000D02*
X164500000Y-69750000D01*
X164500000Y-69750000D02*
X164500000Y-77750000D01*
X164500000Y-77750000D02*
X164000000Y-78250000D01*
X164000000Y-78250000D02*
X147500000Y-78250000D01*
X147500000Y-78250000D02*
X145000000Y-80750000D01*
X161120000Y-68350000D02*
X163100000Y-68350000D01*
X151750000Y-28020000D02*
X151750000Y-28750000D01*
X158000000Y-30250000D02*
X158000000Y-31250000D01*
X157000000Y-29250000D02*
X158000000Y-30250000D01*
X152250000Y-29250000D02*
X157000000Y-29250000D01*
X151750000Y-28750000D02*
X152250000Y-29250000D01*
X151700000Y-26710000D02*
X151700000Y-27970000D01*
X151700000Y-27970000D02*
X151750000Y-28020000D01*
X149300000Y-26710000D02*
X149300000Y-27970000D01*
X149300000Y-27970000D02*
X149250000Y-28020000D01*
X149250000Y-28020000D02*
X149250000Y-30750000D01*
X149250000Y-30750000D02*
X149750000Y-31250000D01*
X153300000Y-26710000D02*
X153300000Y-26700000D01*
X153300000Y-26700000D02*
X153500000Y-26500000D01*
X153500000Y-26500000D02*
X153500000Y-25250000D01*
X153500000Y-25250000D02*
X153250000Y-25000000D01*
X153250000Y-25000000D02*
X147750000Y-25000000D01*
X147750000Y-25000000D02*
X147500000Y-25250000D01*
X147500000Y-25250000D02*
X147500000Y-26510000D01*
X147500000Y-26510000D02*
X147700000Y-26710000D01*
X146750000Y-31250000D02*
X146750000Y-33000000D01*
X147750000Y-30250000D02*
X146750000Y-31250000D01*
X153300000Y-26710000D02*
X153300000Y-27970000D01*
X153300000Y-27970000D02*
X153250000Y-28020000D01*
X147700000Y-26710000D02*
X147700000Y-27970000D01*
X147700000Y-27970000D02*
X147750000Y-28020000D01*
X147750000Y-28020000D02*
X147750000Y-30250000D01*
X150900000Y-26710000D02*
X150900000Y-26850000D01*
X150900000Y-26850000D02*
X150250000Y-27500000D01*
X150250000Y-27500000D02*
X150250000Y-28020000D01*
X150250000Y-28020000D02*
X150250000Y-30250000D01*
X151500000Y-31500000D02*
X151500000Y-33000000D01*
X150250000Y-30250000D02*
X151500000Y-31500000D01*
X150750000Y-28020000D02*
X150750000Y-29500000D01*
X156500000Y-30750000D02*
X156500000Y-33000000D01*
X155750000Y-30000000D02*
X156500000Y-30750000D01*
X151250000Y-30000000D02*
X151750000Y-30000000D01*
X151750000Y-30000000D02*
X152250000Y-30000000D01*
X152250000Y-30000000D02*
X153500000Y-30000000D01*
X153500000Y-30000000D02*
X155750000Y-30000000D01*
X150750000Y-29500000D02*
X151250000Y-30000000D01*
M02*
