G04 #@! TF.FileFunction,Copper,L2,Bot,Signal*
%FSLAX46Y46*%
G04 Gerber Fmt 4.6, Leading zero omitted, Abs format (unit mm)*
G04 Created by KiCad (PCBNEW 4.0.7) date Tue Mar  6 17:21:56 2018*
%MOMM*%
%LPD*%
G01*
G04 APERTURE LIST*
%ADD10C,0.100000*%
%ADD11C,2.500000*%
%ADD12R,1.200000X1.200000*%
%ADD13R,1.600000X1.600000*%
%ADD14C,1.600000*%
%ADD15R,0.500000X2.500000*%
%ADD16O,0.800000X1.400000*%
%ADD17C,0.650000*%
%ADD18O,1.400000X0.800000*%
%ADD19R,1.752600X1.752600*%
%ADD20C,1.752600*%
%ADD21C,4.064000*%
%ADD22C,2.500000*%
%ADD23C,0.600000*%
%ADD24C,0.250000*%
G04 APERTURE END LIST*
D10*
D11*
X183750453Y-155000046D02*
X182939547Y-156459954D01*
X189289724Y-153920672D02*
X189250276Y-154499328D01*
X65250453Y-122750046D02*
X64439547Y-124209954D01*
X70789724Y-121670672D02*
X70750276Y-122249328D01*
D12*
X77750000Y-84925000D03*
X77750000Y-88075000D03*
D13*
X77750000Y-90400000D03*
D14*
X77750000Y-82600000D03*
D15*
X77750000Y-89200000D03*
X77750000Y-83800000D03*
D12*
X97500000Y-84925000D03*
X97500000Y-88075000D03*
D13*
X97500000Y-90400000D03*
D14*
X97500000Y-82600000D03*
D15*
X97500000Y-89200000D03*
X97500000Y-83800000D03*
D12*
X117250000Y-79925000D03*
X117250000Y-83075000D03*
D13*
X117250000Y-85400000D03*
D14*
X117250000Y-77600000D03*
D15*
X117250000Y-84200000D03*
X117250000Y-78800000D03*
D12*
X137000000Y-76925000D03*
X137000000Y-80075000D03*
D13*
X137000000Y-82400000D03*
D14*
X137000000Y-74600000D03*
D15*
X137000000Y-81200000D03*
X137000000Y-75800000D03*
D12*
X156750000Y-79925000D03*
X156750000Y-83075000D03*
D13*
X156750000Y-85400000D03*
D14*
X156750000Y-77600000D03*
D15*
X156750000Y-84200000D03*
X156750000Y-78800000D03*
D12*
X176500000Y-82425000D03*
X176500000Y-85575000D03*
D13*
X176500000Y-87900000D03*
D14*
X176500000Y-80100000D03*
D15*
X176500000Y-86700000D03*
X176500000Y-81300000D03*
D12*
X77750000Y-104425000D03*
X77750000Y-107575000D03*
D13*
X77750000Y-109900000D03*
D14*
X77750000Y-102100000D03*
D15*
X77750000Y-108700000D03*
X77750000Y-103300000D03*
D12*
X97500000Y-104425000D03*
X97500000Y-107575000D03*
D13*
X97500000Y-109900000D03*
D14*
X97500000Y-102100000D03*
D15*
X97500000Y-108700000D03*
X97500000Y-103300000D03*
D12*
X117250000Y-99425000D03*
X117250000Y-102575000D03*
D13*
X117250000Y-104900000D03*
D14*
X117250000Y-97100000D03*
D15*
X117250000Y-103700000D03*
X117250000Y-98300000D03*
D12*
X137000000Y-96925000D03*
X137000000Y-100075000D03*
D13*
X137000000Y-102400000D03*
D14*
X137000000Y-94600000D03*
D15*
X137000000Y-101200000D03*
X137000000Y-95800000D03*
D12*
X156750000Y-99425000D03*
X156750000Y-102575000D03*
D13*
X156750000Y-104900000D03*
D14*
X156750000Y-97100000D03*
D15*
X156750000Y-103700000D03*
X156750000Y-98300000D03*
D12*
X176500000Y-101925000D03*
X176500000Y-105075000D03*
D13*
X176500000Y-107400000D03*
D14*
X176500000Y-99600000D03*
D15*
X176500000Y-106200000D03*
X176500000Y-100800000D03*
D12*
X77750000Y-124425000D03*
X77750000Y-127575000D03*
D13*
X77750000Y-129900000D03*
D14*
X77750000Y-122100000D03*
D15*
X77750000Y-128700000D03*
X77750000Y-123300000D03*
D12*
X97500000Y-124425000D03*
X97500000Y-127575000D03*
D13*
X97500000Y-129900000D03*
D14*
X97500000Y-122100000D03*
D15*
X97500000Y-128700000D03*
X97500000Y-123300000D03*
D12*
X117250000Y-119425000D03*
X117250000Y-122575000D03*
D13*
X117250000Y-124900000D03*
D14*
X117250000Y-117100000D03*
D15*
X117250000Y-123700000D03*
X117250000Y-118300000D03*
D12*
X137000000Y-116925000D03*
X137000000Y-120075000D03*
D13*
X137000000Y-122400000D03*
D14*
X137000000Y-114600000D03*
D15*
X137000000Y-121200000D03*
X137000000Y-115800000D03*
D12*
X156750000Y-119425000D03*
X156750000Y-122575000D03*
D13*
X156750000Y-124900000D03*
D14*
X156750000Y-117100000D03*
D15*
X156750000Y-123700000D03*
X156750000Y-118300000D03*
D12*
X176500000Y-121925000D03*
X176500000Y-125075000D03*
D13*
X176500000Y-127400000D03*
D14*
X176500000Y-119600000D03*
D15*
X176500000Y-126200000D03*
X176500000Y-120800000D03*
D12*
X156750000Y-139425000D03*
X156750000Y-142575000D03*
D13*
X156750000Y-144900000D03*
D14*
X156750000Y-137100000D03*
D15*
X156750000Y-143700000D03*
X156750000Y-138300000D03*
D12*
X176500000Y-141425000D03*
X176500000Y-144575000D03*
D13*
X176500000Y-146900000D03*
D14*
X176500000Y-139100000D03*
D15*
X176500000Y-145700000D03*
X176500000Y-140300000D03*
D12*
X197250000Y-156425000D03*
X197250000Y-159575000D03*
D13*
X197250000Y-161900000D03*
D14*
X197250000Y-154100000D03*
D15*
X197250000Y-160700000D03*
X197250000Y-155300000D03*
D16*
X193630000Y-74860000D03*
X185370000Y-74860000D03*
X185010000Y-68910000D03*
X193990000Y-68910000D03*
D17*
X186700000Y-75460000D03*
X188300000Y-75460000D03*
X189100000Y-75460000D03*
X189900000Y-75460000D03*
X190700000Y-75460000D03*
X192300000Y-75460000D03*
X187100000Y-74760000D03*
X187900000Y-74760000D03*
X188700000Y-74760000D03*
X190300000Y-74760000D03*
X191100000Y-74760000D03*
X191900000Y-74760000D03*
D18*
X202890000Y-144630000D03*
X202890000Y-136370000D03*
X208840000Y-136010000D03*
X208840000Y-144990000D03*
D17*
X202290000Y-137700000D03*
X202290000Y-139300000D03*
X202290000Y-140100000D03*
X202290000Y-140900000D03*
X202290000Y-141700000D03*
X202290000Y-143300000D03*
X202990000Y-138100000D03*
X202990000Y-138900000D03*
X202990000Y-139700000D03*
X202990000Y-141300000D03*
X202990000Y-142100000D03*
X202990000Y-142900000D03*
D11*
X65250453Y-83250046D02*
X64439547Y-84709954D01*
X70789724Y-82170672D02*
X70750276Y-82749328D01*
X85000453Y-83250046D02*
X84189547Y-84709954D01*
X90539724Y-82170672D02*
X90500276Y-82749328D01*
X104750453Y-78250046D02*
X103939547Y-79709954D01*
X110289724Y-77170672D02*
X110250276Y-77749328D01*
X124500453Y-75250046D02*
X123689547Y-76709954D01*
X130039724Y-74170672D02*
X130000276Y-74749328D01*
X144250453Y-78250046D02*
X143439547Y-79709954D01*
X149789724Y-77170672D02*
X149750276Y-77749328D01*
X164000453Y-80750046D02*
X163189547Y-82209954D01*
X169539724Y-79670672D02*
X169500276Y-80249328D01*
X65250453Y-103000046D02*
X64439547Y-104459954D01*
X70789724Y-101920672D02*
X70750276Y-102499328D01*
X85000453Y-103000046D02*
X84189547Y-104459954D01*
X90539724Y-101920672D02*
X90500276Y-102499328D01*
X104750453Y-98000046D02*
X103939547Y-99459954D01*
X110289724Y-96920672D02*
X110250276Y-97499328D01*
X124500453Y-95500046D02*
X123689547Y-96959954D01*
X130039724Y-94420672D02*
X130000276Y-94999328D01*
X144250453Y-98000046D02*
X143439547Y-99459954D01*
X149789724Y-96920672D02*
X149750276Y-97499328D01*
X164000453Y-100500046D02*
X163189547Y-101959954D01*
X169539724Y-99420672D02*
X169500276Y-99999328D01*
X85000453Y-122750046D02*
X84189547Y-124209954D01*
X90539724Y-121670672D02*
X90500276Y-122249328D01*
X104750453Y-117750046D02*
X103939547Y-119209954D01*
X110289724Y-116670672D02*
X110250276Y-117249328D01*
X124500453Y-115250046D02*
X123689547Y-116709954D01*
X130039724Y-114170672D02*
X130000276Y-114749328D01*
X144250453Y-117750046D02*
X143439547Y-119209954D01*
X149789724Y-116670672D02*
X149750276Y-117249328D01*
X164000453Y-120250046D02*
X163189547Y-121709954D01*
X169539724Y-119170672D02*
X169500276Y-119749328D01*
X144250453Y-137750046D02*
X143439547Y-139209954D01*
X149789724Y-136670672D02*
X149750276Y-137249328D01*
X164000453Y-140000046D02*
X163189547Y-141459954D01*
X169539724Y-138920672D02*
X169500276Y-139499328D01*
D19*
X184880000Y-98530000D03*
D20*
X184880000Y-101070000D03*
X184880000Y-103610000D03*
X184880000Y-106150000D03*
X184880000Y-108690000D03*
X184880000Y-111230000D03*
X184880000Y-113770000D03*
X184880000Y-116310000D03*
X184880000Y-118850000D03*
X184880000Y-121390000D03*
X184880000Y-123930000D03*
X184880000Y-126470000D03*
X187420000Y-126470000D03*
X189960000Y-126470000D03*
X192500000Y-126470000D03*
X195040000Y-126470000D03*
X197580000Y-126470000D03*
X200120000Y-126470000D03*
X200120000Y-123930000D03*
X200120000Y-121390000D03*
X200120000Y-118850000D03*
X200120000Y-116310000D03*
X200120000Y-113770000D03*
X200120000Y-111230000D03*
X200120000Y-108690000D03*
X200120000Y-106150000D03*
X200120000Y-103610000D03*
X200120000Y-101070000D03*
X200120000Y-98530000D03*
X197580000Y-108690000D03*
X187420000Y-108690000D03*
D12*
X252500000Y-82425000D03*
X252500000Y-85575000D03*
D13*
X252500000Y-87900000D03*
D14*
X252500000Y-80100000D03*
D15*
X252500000Y-86700000D03*
X252500000Y-81300000D03*
D12*
X272250000Y-79925000D03*
X272250000Y-83075000D03*
D13*
X272250000Y-85400000D03*
D14*
X272250000Y-77600000D03*
D15*
X272250000Y-84200000D03*
X272250000Y-78800000D03*
D12*
X292000000Y-76925000D03*
X292000000Y-80075000D03*
D13*
X292000000Y-82400000D03*
D14*
X292000000Y-74600000D03*
D15*
X292000000Y-81200000D03*
X292000000Y-75800000D03*
D12*
X311750000Y-79925000D03*
X311750000Y-83075000D03*
D13*
X311750000Y-85400000D03*
D14*
X311750000Y-77600000D03*
D15*
X311750000Y-84200000D03*
X311750000Y-78800000D03*
D12*
X331500000Y-84925000D03*
X331500000Y-88075000D03*
D13*
X331500000Y-90400000D03*
D14*
X331500000Y-82600000D03*
D15*
X331500000Y-89200000D03*
X331500000Y-83800000D03*
D12*
X351250000Y-84925000D03*
X351250000Y-88075000D03*
D13*
X351250000Y-90400000D03*
D14*
X351250000Y-82600000D03*
D15*
X351250000Y-89200000D03*
X351250000Y-83800000D03*
D12*
X252500000Y-101925000D03*
X252500000Y-105075000D03*
D13*
X252500000Y-107400000D03*
D14*
X252500000Y-99600000D03*
D15*
X252500000Y-106200000D03*
X252500000Y-100800000D03*
D12*
X272250000Y-99425000D03*
X272250000Y-102575000D03*
D13*
X272250000Y-104900000D03*
D14*
X272250000Y-97100000D03*
D15*
X272250000Y-103700000D03*
X272250000Y-98300000D03*
D12*
X292000000Y-96925000D03*
X292000000Y-100075000D03*
D13*
X292000000Y-102400000D03*
D14*
X292000000Y-94600000D03*
D15*
X292000000Y-101200000D03*
X292000000Y-95800000D03*
D12*
X311750000Y-99425000D03*
X311750000Y-102575000D03*
D13*
X311750000Y-104900000D03*
D14*
X311750000Y-97100000D03*
D15*
X311750000Y-103700000D03*
X311750000Y-98300000D03*
D12*
X331500000Y-104425000D03*
X331500000Y-107575000D03*
D13*
X331500000Y-109900000D03*
D14*
X331500000Y-102100000D03*
D15*
X331500000Y-108700000D03*
X331500000Y-103300000D03*
D12*
X351250000Y-104425000D03*
X351250000Y-107575000D03*
D13*
X351250000Y-109900000D03*
D14*
X351250000Y-102100000D03*
D15*
X351250000Y-108700000D03*
X351250000Y-103300000D03*
D12*
X252500000Y-121925000D03*
X252500000Y-125075000D03*
D13*
X252500000Y-127400000D03*
D14*
X252500000Y-119600000D03*
D15*
X252500000Y-126200000D03*
X252500000Y-120800000D03*
D12*
X272250000Y-119425000D03*
X272250000Y-122575000D03*
D13*
X272250000Y-124900000D03*
D14*
X272250000Y-117100000D03*
D15*
X272250000Y-123700000D03*
X272250000Y-118300000D03*
D12*
X292000000Y-116925000D03*
X292000000Y-120075000D03*
D13*
X292000000Y-122400000D03*
D14*
X292000000Y-114600000D03*
D15*
X292000000Y-121200000D03*
X292000000Y-115800000D03*
D12*
X311750000Y-119425000D03*
X311750000Y-122575000D03*
D13*
X311750000Y-124900000D03*
D14*
X311750000Y-117100000D03*
D15*
X311750000Y-123700000D03*
X311750000Y-118300000D03*
D12*
X331500000Y-124425000D03*
X331500000Y-127575000D03*
D13*
X331500000Y-129900000D03*
D14*
X331500000Y-122100000D03*
D15*
X331500000Y-128700000D03*
X331500000Y-123300000D03*
D12*
X351250000Y-124425000D03*
X351250000Y-127575000D03*
D13*
X351250000Y-129900000D03*
D14*
X351250000Y-122100000D03*
D15*
X351250000Y-128700000D03*
X351250000Y-123300000D03*
D12*
X252500000Y-141425000D03*
X252500000Y-144575000D03*
D13*
X252500000Y-146900000D03*
D14*
X252500000Y-139100000D03*
D15*
X252500000Y-145700000D03*
X252500000Y-140300000D03*
D12*
X272250000Y-139425000D03*
X272250000Y-142575000D03*
D13*
X272250000Y-144900000D03*
D14*
X272250000Y-137100000D03*
D15*
X272250000Y-143700000D03*
X272250000Y-138300000D03*
D12*
X231750000Y-156175000D03*
X231750000Y-159325000D03*
D13*
X231750000Y-161650000D03*
D14*
X231750000Y-153850000D03*
D15*
X231750000Y-160450000D03*
X231750000Y-155050000D03*
D18*
X226360000Y-136370000D03*
X226360000Y-144630000D03*
X220410000Y-144990000D03*
X220410000Y-136010000D03*
D17*
X226960000Y-143300000D03*
X226960000Y-141700000D03*
X226960000Y-140900000D03*
X226960000Y-140100000D03*
X226960000Y-139300000D03*
X226960000Y-137700000D03*
X226260000Y-142900000D03*
X226260000Y-142100000D03*
X226260000Y-141300000D03*
X226260000Y-139700000D03*
X226260000Y-138900000D03*
X226260000Y-138100000D03*
D11*
X259000453Y-80750046D02*
X258189547Y-82209954D01*
X264539724Y-79670672D02*
X264500276Y-80249328D01*
X278750453Y-78250046D02*
X277939547Y-79709954D01*
X284289724Y-77170672D02*
X284250276Y-77749328D01*
X298500453Y-75250046D02*
X297689547Y-76709954D01*
X304039724Y-74170672D02*
X304000276Y-74749328D01*
X318250453Y-78250046D02*
X317439547Y-79709954D01*
X323789724Y-77170672D02*
X323750276Y-77749328D01*
X338000453Y-83250046D02*
X337189547Y-84709954D01*
X343539724Y-82170672D02*
X343500276Y-82749328D01*
X357750453Y-83250046D02*
X356939547Y-84709954D01*
X363289724Y-82170672D02*
X363250276Y-82749328D01*
X259000453Y-100500046D02*
X258189547Y-101959954D01*
X264539724Y-99420672D02*
X264500276Y-99999328D01*
X278750453Y-98000046D02*
X277939547Y-99459954D01*
X284289724Y-96920672D02*
X284250276Y-97499328D01*
X298500453Y-95500046D02*
X297689547Y-96959954D01*
X304039724Y-94420672D02*
X304000276Y-94999328D01*
X318250453Y-98000046D02*
X317439547Y-99459954D01*
X323789724Y-96920672D02*
X323750276Y-97499328D01*
X338000453Y-103000046D02*
X337189547Y-104459954D01*
X343539724Y-101920672D02*
X343500276Y-102499328D01*
X357750453Y-103000046D02*
X356939547Y-104459954D01*
X363289724Y-101920672D02*
X363250276Y-102499328D01*
X259000453Y-120250046D02*
X258189547Y-121709954D01*
X264539724Y-119170672D02*
X264500276Y-119749328D01*
X278750453Y-117750046D02*
X277939547Y-119209954D01*
X284289724Y-116670672D02*
X284250276Y-117249328D01*
X298500453Y-115250046D02*
X297689547Y-116709954D01*
X304039724Y-114170672D02*
X304000276Y-114749328D01*
X318250453Y-117750046D02*
X317439547Y-119209954D01*
X323789724Y-116670672D02*
X323750276Y-117249328D01*
X338000453Y-122750046D02*
X337189547Y-124209954D01*
X343539724Y-121670672D02*
X343500276Y-122249328D01*
X357750453Y-122750046D02*
X356939547Y-124209954D01*
X363289724Y-121670672D02*
X363250276Y-122249328D01*
X259000453Y-140000046D02*
X258189547Y-141459954D01*
X264539724Y-138920672D02*
X264500276Y-139499328D01*
X278750453Y-137750046D02*
X277939547Y-139209954D01*
X284289724Y-136670672D02*
X284250276Y-137249328D01*
X238250453Y-155000046D02*
X237439547Y-156459954D01*
X243789724Y-153920672D02*
X243750276Y-154499328D01*
D21*
X56000000Y-139000000D03*
X224250000Y-171000000D03*
X205000000Y-171000000D03*
X205000000Y-72750000D03*
X56250000Y-75250000D03*
X224250000Y-72750000D03*
X373000000Y-75250000D03*
X373250000Y-139000000D03*
D22*
X185750000Y-83500000D03*
X190500000Y-83500000D03*
X195500000Y-83500000D03*
X200250000Y-83500000D03*
D23*
X243500000Y-137750000D03*
X222750000Y-135000000D03*
X223250000Y-137250000D03*
X244250000Y-133000000D03*
X191250000Y-130250000D03*
X185250000Y-131250000D03*
X252500000Y-111500000D03*
X189500000Y-129500000D03*
X246750000Y-143000000D03*
X190250000Y-138500000D03*
X183750000Y-135750000D03*
X181500000Y-135250000D03*
X178500000Y-138250000D03*
X183500000Y-149250000D03*
X185750000Y-149250000D03*
X253750000Y-132500000D03*
X174000000Y-133750000D03*
X249250000Y-148500000D03*
X191000000Y-138000000D03*
X244750000Y-137750000D03*
X248250000Y-144000000D03*
X240500000Y-144000000D03*
X186750000Y-143250000D03*
X198500000Y-129750000D03*
X244500000Y-139000000D03*
X223750000Y-142000000D03*
X278345000Y-112500000D03*
X199000000Y-130500000D03*
X204000000Y-130000000D03*
X242000000Y-111500000D03*
X248500000Y-109750000D03*
X188000000Y-142500000D03*
X298095000Y-109750000D03*
X248500000Y-112750000D03*
X199500000Y-131250000D03*
X203500000Y-131000000D03*
X242000000Y-109500000D03*
X244500000Y-140500000D03*
X248750000Y-105250000D03*
X317845000Y-92500000D03*
X188500000Y-141250000D03*
X200000000Y-132000000D03*
X203000000Y-132000000D03*
X246500000Y-140000000D03*
X357250000Y-95000000D03*
X245250000Y-111250000D03*
X240000000Y-113500000D03*
X183750000Y-137500000D03*
X184500000Y-133750000D03*
X191750000Y-137000000D03*
X247000000Y-138500000D03*
X248000000Y-95000000D03*
X224000000Y-137000000D03*
X224750000Y-133000000D03*
X200500000Y-132750000D03*
X202250000Y-133250000D03*
X330500000Y-96000000D03*
X64750000Y-97750000D03*
X84595000Y-98500000D03*
X104500000Y-92250000D03*
X124095000Y-109500000D03*
X180250000Y-108750000D03*
X182000000Y-127500000D03*
X183500000Y-128750000D03*
X157432500Y-134567500D03*
X184000000Y-131250000D03*
X186750000Y-78500000D03*
X192000000Y-77750000D03*
X193000000Y-78750000D03*
X188500000Y-79250000D03*
X187500000Y-77750000D03*
X189500000Y-80000000D03*
D24*
X70770000Y-82460000D02*
X77610000Y-82460000D01*
X77610000Y-82460000D02*
X77750000Y-82600000D01*
X243500000Y-137750000D02*
X244250000Y-137000000D01*
X244250000Y-137000000D02*
X244250000Y-133000000D01*
X222750000Y-136750000D02*
X222750000Y-135000000D01*
X223250000Y-137250000D02*
X222750000Y-136750000D01*
X205250000Y-138250000D02*
X204500000Y-139000000D01*
X201500000Y-135000000D02*
X204500000Y-135000000D01*
X204500000Y-135000000D02*
X205250000Y-135750000D01*
X205250000Y-135750000D02*
X205250000Y-138250000D01*
X198500000Y-132000000D02*
X200250000Y-133750000D01*
X193000000Y-132000000D02*
X198500000Y-132000000D01*
X191250000Y-130250000D02*
X193000000Y-132000000D01*
X200250000Y-133750000D02*
X201500000Y-135000000D01*
X204500000Y-139000000D02*
X203090000Y-139000000D01*
X203090000Y-139000000D02*
X202990000Y-138900000D01*
X292000000Y-86250000D02*
X292000000Y-88250000D01*
X273250000Y-91500000D02*
X272250000Y-90500000D01*
X288750000Y-91500000D02*
X273250000Y-91500000D01*
X292000000Y-88250000D02*
X288750000Y-91500000D01*
X245750000Y-91250000D02*
X252500000Y-91250000D01*
X244250000Y-92750000D02*
X245750000Y-91250000D01*
X244250000Y-133000000D02*
X244250000Y-92750000D01*
X269000000Y-93500000D02*
X269250000Y-93500000D01*
X269250000Y-93500000D02*
X272250000Y-90500000D01*
X252500000Y-91250000D02*
X254750000Y-93500000D01*
X254750000Y-93500000D02*
X269000000Y-93500000D01*
X252500000Y-87900000D02*
X252500000Y-91250000D01*
X272250000Y-89000000D02*
X272250000Y-90500000D01*
X272250000Y-85400000D02*
X272250000Y-89000000D01*
X294500000Y-88750000D02*
X308400000Y-88750000D01*
X292000000Y-86250000D02*
X293000000Y-87250000D01*
X293000000Y-87250000D02*
X294500000Y-88750000D01*
X292000000Y-82400000D02*
X292000000Y-86250000D01*
X308400000Y-88750000D02*
X311750000Y-85400000D01*
X331500000Y-90400000D02*
X314350000Y-90400000D01*
X313200000Y-86850000D02*
X311750000Y-85400000D01*
X313200000Y-89250000D02*
X313200000Y-89000000D01*
X313200000Y-89000000D02*
X313200000Y-88750000D01*
X313200000Y-88750000D02*
X313200000Y-86850000D01*
X314350000Y-90400000D02*
X313200000Y-89250000D01*
X351250000Y-90400000D02*
X351250000Y-94250000D01*
X331500000Y-94750000D02*
X331500000Y-90400000D01*
X334250000Y-97500000D02*
X331500000Y-94750000D01*
X348000000Y-97500000D02*
X334250000Y-97500000D01*
X351250000Y-94250000D02*
X348000000Y-97500000D01*
X176500000Y-87900000D02*
X190150000Y-87900000D01*
X189730000Y-113770000D02*
X184880000Y-113770000D01*
X191500000Y-112000000D02*
X189730000Y-113770000D01*
X191500000Y-89250000D02*
X191500000Y-112000000D01*
X190150000Y-87900000D02*
X191500000Y-89250000D01*
X77750000Y-90400000D02*
X77750000Y-94250000D01*
X97500000Y-94750000D02*
X97500000Y-90400000D01*
X95000000Y-97250000D02*
X97500000Y-94750000D01*
X81000000Y-97250000D02*
X95000000Y-97250000D01*
X77750000Y-94250000D02*
X81000000Y-97250000D01*
X117250000Y-85750000D02*
X117250000Y-85400000D01*
X120500000Y-88750000D02*
X117250000Y-85750000D01*
X134500000Y-88750000D02*
X120500000Y-88750000D01*
X135625000Y-87625000D02*
X134500000Y-88750000D01*
X156000000Y-90000000D02*
X154000000Y-92000000D01*
X135625000Y-87625000D02*
X135750000Y-87500000D01*
X140000000Y-92000000D02*
X135625000Y-87625000D01*
X154000000Y-92000000D02*
X140000000Y-92000000D01*
X176500000Y-87900000D02*
X176500000Y-91750000D01*
X160250000Y-94250000D02*
X156000000Y-90000000D01*
X174000000Y-94250000D02*
X160250000Y-94250000D01*
X176500000Y-91750000D02*
X174000000Y-94250000D01*
X156750000Y-85400000D02*
X156750000Y-89250000D01*
X156750000Y-89250000D02*
X156000000Y-90000000D01*
X137000000Y-82400000D02*
X137000000Y-86250000D01*
X137000000Y-86250000D02*
X135750000Y-87500000D01*
X97500000Y-90400000D02*
X114650000Y-90400000D01*
X115800000Y-87100000D02*
X117250000Y-85400000D01*
X115800000Y-89250000D02*
X115800000Y-87100000D01*
X114650000Y-90400000D02*
X115800000Y-89250000D01*
X90520000Y-82460000D02*
X97360000Y-82460000D01*
X97360000Y-82460000D02*
X97500000Y-82600000D01*
X110270000Y-77460000D02*
X117110000Y-77460000D01*
X117110000Y-77460000D02*
X117250000Y-77600000D01*
X130020000Y-74460000D02*
X136860000Y-74460000D01*
X136860000Y-74460000D02*
X137000000Y-74600000D01*
X149770000Y-77460000D02*
X156610000Y-77460000D01*
X156610000Y-77460000D02*
X156750000Y-77600000D01*
X169520000Y-79960000D02*
X176360000Y-79960000D01*
X176360000Y-79960000D02*
X176500000Y-80100000D01*
X70770000Y-102210000D02*
X77640000Y-102210000D01*
X77640000Y-102210000D02*
X77750000Y-102100000D01*
X185250000Y-131250000D02*
X187000000Y-129500000D01*
X187000000Y-129500000D02*
X189500000Y-129500000D01*
X204500000Y-135750000D02*
X204500000Y-137500000D01*
X189500000Y-129500000D02*
X192750000Y-132750000D01*
X198000000Y-132750000D02*
X192750000Y-132750000D01*
X199500000Y-134250000D02*
X198000000Y-132750000D01*
X204250000Y-135500000D02*
X204500000Y-135750000D01*
X200750000Y-135500000D02*
X204250000Y-135500000D01*
X199500000Y-134250000D02*
X200750000Y-135500000D01*
X203900000Y-138100000D02*
X202990000Y-138100000D01*
X204500000Y-137500000D02*
X203900000Y-138100000D01*
X252500000Y-107400000D02*
X252500000Y-111500000D01*
X269000000Y-114000000D02*
X273250000Y-109750000D01*
X255000000Y-114000000D02*
X269000000Y-114000000D01*
X252500000Y-111500000D02*
X255000000Y-114000000D01*
X272250000Y-104900000D02*
X272250000Y-108750000D01*
X288750000Y-111250000D02*
X292750000Y-107250000D01*
X274750000Y-111250000D02*
X288750000Y-111250000D01*
X272250000Y-108750000D02*
X273250000Y-109750000D01*
X273250000Y-109750000D02*
X274750000Y-111250000D01*
X292000000Y-102400000D02*
X292000000Y-106500000D01*
X311750000Y-105750000D02*
X311750000Y-104900000D01*
X308500000Y-109000000D02*
X311750000Y-105750000D01*
X294500000Y-109000000D02*
X308500000Y-109000000D01*
X292000000Y-106500000D02*
X292750000Y-107250000D01*
X292750000Y-107250000D02*
X294500000Y-109000000D01*
X331500000Y-109900000D02*
X314350000Y-109900000D01*
X313500000Y-106650000D02*
X311750000Y-104900000D01*
X313500000Y-109050000D02*
X313500000Y-106650000D01*
X314350000Y-109900000D02*
X313500000Y-109050000D01*
X351250000Y-109900000D02*
X351250000Y-113750000D01*
X331500000Y-114500000D02*
X331500000Y-109900000D01*
X334000000Y-117000000D02*
X331500000Y-114500000D01*
X348000000Y-117000000D02*
X334000000Y-117000000D01*
X351250000Y-113750000D02*
X348000000Y-117000000D01*
X176500000Y-107400000D02*
X176500000Y-111363602D01*
X160049998Y-113799998D02*
X156125000Y-109875000D01*
X174063604Y-113799998D02*
X160049998Y-113799998D01*
X176500000Y-111363602D02*
X174063604Y-113799998D01*
X156750000Y-104900000D02*
X156750000Y-109000000D01*
X156750000Y-109000000D02*
X156125000Y-109875000D01*
X135875000Y-107375000D02*
X135750000Y-107500000D01*
X156125000Y-109875000D02*
X154750000Y-111750000D01*
X154750000Y-111750000D02*
X140250000Y-111750000D01*
X140250000Y-111750000D02*
X135875000Y-107375000D01*
X176500000Y-107400000D02*
X180400000Y-107400000D01*
X182810000Y-116310000D02*
X184880000Y-116310000D01*
X181250000Y-114750000D02*
X181500000Y-115000000D01*
X181500000Y-115000000D02*
X182810000Y-116310000D01*
X181250000Y-108250000D02*
X181250000Y-114750000D01*
X180400000Y-107400000D02*
X181250000Y-108250000D01*
X137000000Y-102400000D02*
X137000000Y-106250000D01*
X117500000Y-105750000D02*
X117250000Y-104900000D01*
X120500000Y-108750000D02*
X117500000Y-105750000D01*
X134500000Y-108750000D02*
X120500000Y-108750000D01*
X137000000Y-106250000D02*
X135750000Y-107500000D01*
X135750000Y-107500000D02*
X134500000Y-108750000D01*
X97500000Y-109900000D02*
X114650000Y-109900000D01*
X115500000Y-106900000D02*
X117250000Y-104900000D01*
X115500000Y-109050000D02*
X115500000Y-106900000D01*
X114650000Y-109900000D02*
X115500000Y-109050000D01*
X77750000Y-109900000D02*
X77750000Y-114000000D01*
X97500000Y-114500000D02*
X97500000Y-109900000D01*
X95000000Y-117000000D02*
X97500000Y-114500000D01*
X81000000Y-117000000D02*
X95000000Y-117000000D01*
X77750000Y-114000000D02*
X81000000Y-117000000D01*
X90520000Y-102210000D02*
X97390000Y-102210000D01*
X97390000Y-102210000D02*
X97500000Y-102100000D01*
X110270000Y-97210000D02*
X117140000Y-97210000D01*
X117140000Y-97210000D02*
X117250000Y-97100000D01*
X130020000Y-94710000D02*
X136890000Y-94710000D01*
X136890000Y-94710000D02*
X137000000Y-94600000D01*
X149770000Y-97210000D02*
X156640000Y-97210000D01*
X156640000Y-97210000D02*
X156750000Y-97100000D01*
X169520000Y-99710000D02*
X176390000Y-99710000D01*
X176390000Y-99710000D02*
X176500000Y-99600000D01*
X70770000Y-121960000D02*
X77610000Y-121960000D01*
X77610000Y-121960000D02*
X77750000Y-122100000D01*
X225600000Y-138900000D02*
X226260000Y-138900000D01*
X224750000Y-139750000D02*
X225600000Y-138900000D01*
X224750000Y-145000000D02*
X224750000Y-139750000D01*
X225750000Y-146000000D02*
X224750000Y-145000000D01*
X230250000Y-146000000D02*
X225750000Y-146000000D01*
X237750000Y-144750000D02*
X236500000Y-146000000D01*
X236500000Y-146000000D02*
X230250000Y-146000000D01*
X249250000Y-144750000D02*
X239750000Y-144750000D01*
X249500000Y-144500000D02*
X249250000Y-144750000D01*
X249500000Y-143500000D02*
X249500000Y-144500000D01*
X249250000Y-143250000D02*
X249500000Y-143500000D01*
X247000000Y-143250000D02*
X249250000Y-143250000D01*
X246750000Y-143000000D02*
X247000000Y-143250000D01*
X239750000Y-144750000D02*
X237750000Y-144750000D01*
X190250000Y-138500000D02*
X187250000Y-135750000D01*
X187250000Y-135750000D02*
X183750000Y-135750000D01*
X181500000Y-135250000D02*
X178500000Y-138250000D01*
X185750000Y-149250000D02*
X183500000Y-149250000D01*
X252500000Y-127400000D02*
X252500000Y-131250000D01*
X273125000Y-129625000D02*
X273000000Y-129500000D01*
X269000000Y-133750000D02*
X273125000Y-129625000D01*
X255000000Y-133750000D02*
X269000000Y-133750000D01*
X252500000Y-131250000D02*
X253750000Y-132500000D01*
X253750000Y-132500000D02*
X255000000Y-133750000D01*
X272250000Y-124900000D02*
X272250000Y-128750000D01*
X292875000Y-127125000D02*
X293000000Y-127250000D01*
X288750000Y-131250000D02*
X292875000Y-127125000D01*
X274750000Y-131250000D02*
X288750000Y-131250000D01*
X272250000Y-128750000D02*
X273000000Y-129500000D01*
X273000000Y-129500000D02*
X274750000Y-131250000D01*
X292000000Y-122400000D02*
X292000000Y-126250000D01*
X308500000Y-128750000D02*
X311750000Y-125500000D01*
X294500000Y-128750000D02*
X308500000Y-128750000D01*
X292000000Y-126250000D02*
X293000000Y-127250000D01*
X293000000Y-127250000D02*
X294500000Y-128750000D01*
X311750000Y-125500000D02*
X311750000Y-124900000D01*
X331500000Y-129900000D02*
X314350000Y-129900000D01*
X313200000Y-126350000D02*
X311750000Y-124900000D01*
X313200000Y-128750000D02*
X313200000Y-126350000D01*
X314350000Y-129900000D02*
X313200000Y-128750000D01*
X351250000Y-129900000D02*
X351250000Y-133750000D01*
X331500000Y-134250000D02*
X331500000Y-129900000D01*
X334250000Y-137000000D02*
X331500000Y-134250000D01*
X348000000Y-137000000D02*
X334250000Y-137000000D01*
X351250000Y-133750000D02*
X348000000Y-137000000D01*
X174000000Y-133750000D02*
X176500000Y-131250000D01*
X176500000Y-131250000D02*
X176500000Y-130750000D01*
X176500000Y-130750000D02*
X176500000Y-127400000D01*
X176500000Y-127400000D02*
X180400000Y-127400000D01*
X180400000Y-127400000D02*
X181250000Y-126550000D01*
X181250000Y-126550000D02*
X181250000Y-120500000D01*
X181250000Y-120500000D02*
X182900000Y-118850000D01*
X182900000Y-118850000D02*
X184880000Y-118850000D01*
X160000000Y-133750000D02*
X156000000Y-129750000D01*
X174000000Y-133750000D02*
X160000000Y-133750000D01*
X156750000Y-124900000D02*
X156750000Y-128750000D01*
X140250000Y-131500000D02*
X136000000Y-127250000D01*
X154750000Y-131500000D02*
X140250000Y-131500000D01*
X156750000Y-128750000D02*
X156000000Y-129750000D01*
X156000000Y-129750000D02*
X154750000Y-131500000D01*
X137000000Y-122400000D02*
X137000000Y-126250000D01*
X117500000Y-125750000D02*
X117250000Y-124900000D01*
X120500000Y-128750000D02*
X117500000Y-125750000D01*
X134500000Y-128750000D02*
X120500000Y-128750000D01*
X137000000Y-126250000D02*
X136000000Y-127250000D01*
X136000000Y-127250000D02*
X134500000Y-128750000D01*
X97500000Y-129900000D02*
X114650000Y-129900000D01*
X115800000Y-126600000D02*
X117250000Y-124900000D01*
X115800000Y-128750000D02*
X115800000Y-126600000D01*
X114650000Y-129900000D02*
X115800000Y-128750000D01*
X77750000Y-129900000D02*
X77750000Y-133750000D01*
X97500000Y-134250000D02*
X97500000Y-129900000D01*
X95000000Y-136750000D02*
X97500000Y-134250000D01*
X81000000Y-136750000D02*
X95000000Y-136750000D01*
X77750000Y-133750000D02*
X81000000Y-136750000D01*
X90520000Y-121960000D02*
X97360000Y-121960000D01*
X97360000Y-121960000D02*
X97500000Y-122100000D01*
X110270000Y-116960000D02*
X117110000Y-116960000D01*
X117110000Y-116960000D02*
X117250000Y-117100000D01*
X130020000Y-114460000D02*
X136860000Y-114460000D01*
X136860000Y-114460000D02*
X137000000Y-114600000D01*
X149770000Y-116960000D02*
X156610000Y-116960000D01*
X156610000Y-116960000D02*
X156750000Y-117100000D01*
X169520000Y-119460000D02*
X176360000Y-119460000D01*
X176360000Y-119460000D02*
X176500000Y-119600000D01*
X149770000Y-136960000D02*
X156610000Y-136960000D01*
X156610000Y-136960000D02*
X156750000Y-137100000D01*
X224000000Y-153500000D02*
X222500000Y-153500000D01*
X228000000Y-153500000D02*
X226250000Y-153500000D01*
X226250000Y-153500000D02*
X224000000Y-153500000D01*
X222400000Y-138100000D02*
X226260000Y-138100000D01*
X221750000Y-138750000D02*
X222400000Y-138100000D01*
X221750000Y-152750000D02*
X221750000Y-138750000D01*
X222500000Y-153500000D02*
X221750000Y-152750000D01*
X191000000Y-138000000D02*
X187750000Y-135000000D01*
X187750000Y-135000000D02*
X182750000Y-135000000D01*
X200250000Y-152500000D02*
X203250000Y-152500000D01*
X204400000Y-142900000D02*
X202990000Y-142900000D01*
X205250000Y-143750000D02*
X204400000Y-142900000D01*
X205250000Y-150500000D02*
X205250000Y-143750000D01*
X203250000Y-152500000D02*
X205250000Y-150500000D01*
X231750000Y-161650000D02*
X229400000Y-161650000D01*
X232250000Y-148500000D02*
X249250000Y-148500000D01*
X249250000Y-148500000D02*
X252500000Y-148500000D01*
X228000000Y-152750000D02*
X232250000Y-148500000D01*
X228000000Y-160250000D02*
X228000000Y-153500000D01*
X228000000Y-153500000D02*
X228000000Y-152750000D01*
X229400000Y-161650000D02*
X228000000Y-160250000D01*
X272250000Y-144900000D02*
X272250000Y-151000000D01*
X252500000Y-151750000D02*
X252500000Y-148500000D01*
X252500000Y-148500000D02*
X252500000Y-146900000D01*
X255000000Y-154250000D02*
X252500000Y-151750000D01*
X269000000Y-154250000D02*
X255000000Y-154250000D01*
X272250000Y-151000000D02*
X269000000Y-154250000D01*
X184880000Y-121390000D02*
X183610000Y-121390000D01*
X182750000Y-122250000D02*
X182750000Y-135000000D01*
X182750000Y-135000000D02*
X182750000Y-137000000D01*
X182750000Y-137000000D02*
X182750000Y-150000000D01*
X183610000Y-121390000D02*
X182750000Y-122250000D01*
X197250000Y-161900000D02*
X199350000Y-161900000D01*
X198250000Y-150000000D02*
X182750000Y-150000000D01*
X182750000Y-150000000D02*
X176500000Y-150000000D01*
X200250000Y-152000000D02*
X198250000Y-150000000D01*
X200250000Y-161000000D02*
X200250000Y-153000000D01*
X200250000Y-153000000D02*
X200250000Y-152500000D01*
X200250000Y-152500000D02*
X200250000Y-152000000D01*
X199350000Y-161900000D02*
X200250000Y-161000000D01*
X160000000Y-154000000D02*
X174000000Y-154000000D01*
X156750000Y-150750000D02*
X160000000Y-154000000D01*
X156750000Y-144900000D02*
X156750000Y-150750000D01*
X176500000Y-151500000D02*
X176500000Y-150000000D01*
X176500000Y-150000000D02*
X176500000Y-146900000D01*
X174000000Y-154000000D02*
X176500000Y-151500000D01*
X169520000Y-139210000D02*
X176390000Y-139210000D01*
X176390000Y-139210000D02*
X176500000Y-139100000D01*
X189270000Y-154210000D02*
X197140000Y-154210000D01*
X197140000Y-154210000D02*
X197250000Y-154100000D01*
X226960000Y-141700000D02*
X233950000Y-141700000D01*
X244750000Y-137750000D02*
X243250000Y-139250000D01*
X243250000Y-139250000D02*
X241250000Y-139250000D01*
X241250000Y-139250000D02*
X240500000Y-140000000D01*
X240500000Y-140000000D02*
X240500000Y-141750000D01*
X195250000Y-139300000D02*
X202290000Y-139300000D01*
X233710000Y-141700000D02*
X233950000Y-141700000D01*
X233950000Y-141700000D02*
X240500000Y-141700000D01*
X240500000Y-141700000D02*
X240500000Y-141750000D01*
X240500000Y-141750000D02*
X240500000Y-144000000D01*
X248250000Y-144000000D02*
X240500000Y-144000000D01*
X186750000Y-143250000D02*
X186750000Y-140250000D01*
X186750000Y-140250000D02*
X187450000Y-139300000D01*
X190500000Y-139300000D02*
X187450000Y-139300000D01*
X195290000Y-139300000D02*
X195250000Y-139300000D01*
X195250000Y-139300000D02*
X190500000Y-139300000D01*
X190500000Y-139300000D02*
X190450000Y-139300000D01*
X204000000Y-104500000D02*
X200320000Y-101070000D01*
X204000000Y-104500000D02*
X204000000Y-126250000D01*
X204000000Y-126250000D02*
X204000000Y-129250000D01*
X204000000Y-129250000D02*
X198500000Y-129750000D01*
X200120000Y-101070000D02*
X200320000Y-101070000D01*
X244500000Y-139000000D02*
X243750000Y-139750000D01*
X243750000Y-139750000D02*
X243750000Y-141250000D01*
X243750000Y-141250000D02*
X244000000Y-141500000D01*
X244000000Y-141500000D02*
X248000000Y-141500000D01*
X248000000Y-141500000D02*
X248500000Y-141000000D01*
X223750000Y-145500000D02*
X223750000Y-142000000D01*
X225000000Y-146750000D02*
X223750000Y-145500000D01*
X228750000Y-146750000D02*
X225000000Y-146750000D01*
X250250000Y-142750000D02*
X250250000Y-145000000D01*
X250250000Y-145000000D02*
X249750000Y-145500000D01*
X249750000Y-145500000D02*
X238000000Y-145500000D01*
X238000000Y-145500000D02*
X236750000Y-146750000D01*
X236750000Y-146750000D02*
X228750000Y-146750000D01*
X248500000Y-141000000D02*
X250250000Y-142750000D01*
X249000000Y-135250000D02*
X249000000Y-116250000D01*
X248500000Y-141000000D02*
X249000000Y-140500000D01*
X249000000Y-140500000D02*
X249000000Y-135250000D01*
X250250000Y-115000000D02*
X254000000Y-115000000D01*
X249000000Y-116250000D02*
X250250000Y-115000000D01*
X278045002Y-112200002D02*
X278345000Y-112500000D01*
X278045002Y-112200002D02*
X272299998Y-112200002D01*
X272299998Y-112200002D02*
X269500000Y-115000000D01*
X269500000Y-115000000D02*
X254000000Y-115000000D01*
X204000000Y-130000000D02*
X199000000Y-130500000D01*
X199000000Y-130500000D02*
X199000000Y-130500000D01*
X227500000Y-141250000D02*
X233360000Y-141250000D01*
X238850000Y-140900000D02*
X242000000Y-137750000D01*
X242000000Y-137750000D02*
X242000000Y-111500000D01*
X251000000Y-112750000D02*
X251000000Y-110500000D01*
X250250000Y-109750000D02*
X248500000Y-109750000D01*
X251000000Y-110500000D02*
X250250000Y-109750000D01*
X233710000Y-140900000D02*
X238850000Y-140900000D01*
X227500000Y-141250000D02*
X227150000Y-140900000D01*
X233360000Y-141250000D02*
X233710000Y-140900000D01*
X226960000Y-140900000D02*
X227150000Y-140900000D01*
X202190000Y-140000000D02*
X192249998Y-140000000D01*
X192249998Y-140000000D02*
X188000000Y-140000000D01*
X187500000Y-142000000D02*
X187500000Y-140500000D01*
X187500000Y-140500000D02*
X188000000Y-140000000D01*
X187500000Y-142000000D02*
X188000000Y-142500000D01*
X202190000Y-140000000D02*
X202290000Y-140100000D01*
X297845000Y-109500000D02*
X298095000Y-109750000D01*
X297845000Y-109500000D02*
X291250000Y-109500000D01*
X291250000Y-109500000D02*
X289000000Y-111750000D01*
X289000000Y-111750000D02*
X272000000Y-111750000D01*
X272000000Y-111750000D02*
X269250000Y-114500000D01*
X269250000Y-114500000D02*
X254500000Y-114500000D01*
X254500000Y-114500000D02*
X252750000Y-112750000D01*
X248500000Y-112750000D02*
X251000000Y-112750000D01*
X251000000Y-112750000D02*
X252750000Y-112750000D01*
X203500000Y-131000000D02*
X199500000Y-131250000D01*
X199500000Y-131250000D02*
X199500000Y-131250000D01*
X226960000Y-140100000D02*
X233710000Y-140100000D01*
X241000000Y-137250000D02*
X241000000Y-110500000D01*
X241000000Y-110500000D02*
X242000000Y-109500000D01*
X233710000Y-140100000D02*
X238000000Y-140100000D01*
X238000000Y-140100000D02*
X238150000Y-140100000D01*
X238400000Y-140100000D02*
X241000000Y-137500000D01*
X241000000Y-137500000D02*
X241000000Y-137250000D01*
X238150000Y-140100000D02*
X238400000Y-140100000D01*
X247750000Y-140000000D02*
X247750000Y-104750000D01*
X244500000Y-140500000D02*
X244750000Y-140750000D01*
X244750000Y-140750000D02*
X246750000Y-140750000D01*
X247000000Y-140750000D02*
X247750000Y-140000000D01*
X246750000Y-140750000D02*
X247000000Y-140750000D01*
X195250000Y-140900000D02*
X202290000Y-140900000D01*
X248250000Y-104750000D02*
X248750000Y-105250000D01*
X248250000Y-104750000D02*
X247750000Y-104750000D01*
X317345000Y-92000000D02*
X317845000Y-92500000D01*
X317345000Y-92000000D02*
X313750000Y-92000000D01*
X313750000Y-92000000D02*
X311950002Y-90200002D01*
X311950002Y-90200002D02*
X292299998Y-90200002D01*
X292299998Y-90200002D02*
X289500000Y-93000000D01*
X289500000Y-93000000D02*
X272000000Y-93000000D01*
X272000000Y-93000000D02*
X270000000Y-95000000D01*
X270000000Y-95000000D02*
X249500000Y-95000000D01*
X247750000Y-96750000D02*
X249500000Y-95000000D01*
X247750000Y-104750000D02*
X247750000Y-96750000D01*
X195290000Y-140900000D02*
X195250000Y-140900000D01*
X195250000Y-140900000D02*
X188850000Y-140900000D01*
X188850000Y-140900000D02*
X188500000Y-141250000D01*
X200000000Y-132000000D02*
X200000000Y-132000000D01*
X200000000Y-132000000D02*
X200000000Y-132000000D01*
X203000000Y-132000000D02*
X200000000Y-132000000D01*
X233750000Y-139300000D02*
X226960000Y-139300000D01*
X246250000Y-139500000D02*
X246250000Y-111250000D01*
X246500000Y-140000000D02*
X246250000Y-139500000D01*
X195250000Y-141700000D02*
X202290000Y-141700000D01*
X249000000Y-94000000D02*
X247750000Y-94000000D01*
X269500000Y-94000000D02*
X271500000Y-92000000D01*
X271500000Y-92000000D02*
X289000000Y-92000000D01*
X289000000Y-92000000D02*
X291750000Y-89250000D01*
X291750000Y-89250000D02*
X312500000Y-89250000D01*
X312500000Y-89250000D02*
X314250000Y-91000000D01*
X314250000Y-91000000D02*
X329250000Y-91000000D01*
X329250000Y-91000000D02*
X331000000Y-92750000D01*
X331000000Y-92750000D02*
X331000000Y-95049998D01*
X331000000Y-95049998D02*
X333950002Y-98000000D01*
X333950002Y-98000000D02*
X348500000Y-98000000D01*
X348500000Y-98000000D02*
X351500000Y-95000000D01*
X357250000Y-95000000D02*
X351500000Y-95000000D01*
X249000000Y-94000000D02*
X251000000Y-94000000D01*
X246250000Y-96750000D02*
X246250000Y-111250000D01*
X251000000Y-94000000D02*
X269500000Y-94000000D01*
X246250000Y-95500000D02*
X246250000Y-96750000D01*
X247750000Y-94000000D02*
X246250000Y-95500000D01*
X237750000Y-139300000D02*
X237950000Y-139300000D01*
X237750000Y-139300000D02*
X233750000Y-139300000D01*
X233750000Y-139300000D02*
X233710000Y-139300000D01*
X246250000Y-111250000D02*
X245250000Y-111250000D01*
X240000000Y-113500000D02*
X240000000Y-137000000D01*
X237950000Y-139300000D02*
X240000000Y-137250000D01*
X240000000Y-137250000D02*
X240000000Y-137000000D01*
X190050000Y-141700000D02*
X186250000Y-145500000D01*
X186250000Y-145500000D02*
X184250000Y-145500000D01*
X184250000Y-145500000D02*
X183750000Y-145000000D01*
X183750000Y-145000000D02*
X183750000Y-137500000D01*
X184500000Y-133750000D02*
X188500000Y-133750000D01*
X188500000Y-133750000D02*
X191750000Y-137000000D01*
X190050000Y-141700000D02*
X195250000Y-141700000D01*
X195250000Y-141700000D02*
X195290000Y-141700000D01*
X247000000Y-96000000D02*
X247000000Y-96750000D01*
X247000000Y-96750000D02*
X247000000Y-138500000D01*
X247000000Y-96000000D02*
X248000000Y-95000000D01*
X224000000Y-133750000D02*
X224000000Y-137000000D01*
X224750000Y-133000000D02*
X224000000Y-133750000D01*
X200500000Y-132750000D02*
X202250000Y-133250000D01*
X205000000Y-141250000D02*
X203040000Y-141250000D01*
X205750000Y-140500000D02*
X205000000Y-141250000D01*
X205000000Y-133250000D02*
X205750000Y-134000000D01*
X205750000Y-134000000D02*
X205750000Y-140500000D01*
X202250000Y-133250000D02*
X205000000Y-133250000D01*
X202250000Y-133250000D02*
X202250000Y-133250000D01*
X249250000Y-94500000D02*
X248500000Y-94500000D01*
X314049998Y-91500000D02*
X312299998Y-89750000D01*
X312299998Y-89750000D02*
X292000000Y-89750000D01*
X292000000Y-89750000D02*
X289299998Y-92450002D01*
X289299998Y-92450002D02*
X271799998Y-92450002D01*
X271799998Y-92450002D02*
X269750000Y-94500000D01*
X269750000Y-94500000D02*
X249250000Y-94500000D01*
X329000000Y-91500000D02*
X314250000Y-91500000D01*
X330500000Y-93000000D02*
X329000000Y-91500000D01*
X330500000Y-96000000D02*
X330500000Y-93000000D01*
X314250000Y-91500000D02*
X314049998Y-91500000D01*
X248500000Y-94500000D02*
X248000000Y-95000000D01*
X184880000Y-101070000D02*
X183570000Y-101070000D01*
X182750000Y-100250000D02*
X183570000Y-101070000D01*
X182750000Y-97000000D02*
X182750000Y-100250000D01*
X180500000Y-94750000D02*
X182750000Y-97000000D01*
X159750000Y-94750000D02*
X180500000Y-94750000D01*
X158000000Y-93000000D02*
X159750000Y-94750000D01*
X139999961Y-92996896D02*
X158000000Y-93000000D01*
X136500000Y-89500000D02*
X139999961Y-92996896D01*
X116500000Y-89500000D02*
X136500000Y-89500000D01*
X115000000Y-91000000D02*
X116500000Y-89500000D01*
X100250000Y-91000000D02*
X115000000Y-91000000D01*
X98250000Y-93000000D02*
X100250000Y-91000000D01*
X98250000Y-95000000D02*
X98250000Y-93000000D01*
X98250000Y-95000000D02*
X98250000Y-95000000D01*
X95372969Y-97873135D02*
X98250000Y-95000000D01*
X95372969Y-97873135D02*
X64750000Y-97750000D01*
X95500000Y-98500000D02*
X98750000Y-95250000D01*
X84595000Y-98500000D02*
X95500000Y-98500000D01*
X183360000Y-103610000D02*
X184880000Y-103610000D01*
X182250000Y-102500000D02*
X183360000Y-103610000D01*
X182250000Y-97200002D02*
X182250000Y-102500000D01*
X180299998Y-95250000D02*
X182250000Y-97200002D01*
X159500000Y-95250000D02*
X180299998Y-95250000D01*
X157750000Y-93500000D02*
X159500000Y-95250000D01*
X139750000Y-93500000D02*
X157750000Y-93500000D01*
X136250000Y-90000000D02*
X139750000Y-93500000D01*
X116750000Y-90000000D02*
X136250000Y-90000000D01*
X115250000Y-91500000D02*
X116750000Y-90000000D01*
X100500000Y-91500000D02*
X115250000Y-91500000D01*
X98750000Y-93250000D02*
X100500000Y-91500000D01*
X98750000Y-95250000D02*
X98750000Y-93250000D01*
X183650000Y-106150000D02*
X184880000Y-106150000D01*
X181750000Y-104250000D02*
X183650000Y-106150000D01*
X181750000Y-97336400D02*
X181750000Y-104250000D01*
X180163600Y-95750000D02*
X181750000Y-97336400D01*
X159250000Y-95750000D02*
X180163600Y-95750000D01*
X157500000Y-94000000D02*
X159250000Y-95750000D01*
X139500000Y-94000000D02*
X157500000Y-94000000D01*
X136000000Y-90500000D02*
X139500000Y-94000000D01*
X117000000Y-90500000D02*
X136000000Y-90500000D01*
X115500000Y-92000000D02*
X117000000Y-90500000D01*
X104750000Y-92000000D02*
X115500000Y-92000000D01*
X104500000Y-92250000D02*
X104750000Y-92000000D01*
X179750000Y-108750000D02*
X180250000Y-108750000D01*
X174250000Y-114250000D02*
X179750000Y-108750000D01*
X159750000Y-114250000D02*
X174250000Y-114250000D01*
X156250000Y-110750000D02*
X159750000Y-114250000D01*
X155250000Y-112250000D02*
X156250000Y-110750000D01*
X140000000Y-112250000D02*
X155250000Y-112250000D01*
X137000000Y-109250000D02*
X140000000Y-112250000D01*
X124345000Y-109250000D02*
X137000000Y-109250000D01*
X124345000Y-109250000D02*
X124095000Y-109500000D01*
X200120000Y-121390000D02*
X202390000Y-121390000D01*
X175000000Y-134500000D02*
X157500000Y-134500000D01*
X182000000Y-127500000D02*
X175000000Y-134500000D01*
X184000000Y-128250000D02*
X183500000Y-128750000D01*
X202750000Y-128250000D02*
X184000000Y-128250000D01*
X203000000Y-128000000D02*
X202750000Y-128250000D01*
X203000000Y-122000000D02*
X203000000Y-128000000D01*
X202390000Y-121390000D02*
X203000000Y-122000000D01*
X157500000Y-134500000D02*
X157432500Y-134567500D01*
X157500000Y-134500000D02*
X157432500Y-134567500D01*
X200120000Y-118850000D02*
X202100000Y-118850000D01*
X186500000Y-128750000D02*
X184000000Y-131250000D01*
X203000000Y-128750000D02*
X186500000Y-128750000D01*
X203500000Y-128250000D02*
X203000000Y-128750000D01*
X203500000Y-120250000D02*
X203500000Y-128250000D01*
X202100000Y-118850000D02*
X203500000Y-120250000D01*
X264520000Y-79960000D02*
X264520000Y-77270000D01*
X252500000Y-77750000D02*
X252500000Y-80100000D01*
X254250000Y-76000000D02*
X252500000Y-77750000D01*
X263250000Y-76000000D02*
X254250000Y-76000000D01*
X264520000Y-77270000D02*
X263250000Y-76000000D01*
X284270000Y-77460000D02*
X284270000Y-74770000D01*
X272250000Y-75250000D02*
X272250000Y-77600000D01*
X273750000Y-73750000D02*
X272250000Y-75250000D01*
X283250000Y-73750000D02*
X273750000Y-73750000D01*
X284270000Y-74770000D02*
X283250000Y-73750000D01*
X304020000Y-74460000D02*
X304020000Y-71770000D01*
X292000000Y-72250000D02*
X292000000Y-74600000D01*
X293500000Y-70750000D02*
X292000000Y-72250000D01*
X303000000Y-70750000D02*
X293500000Y-70750000D01*
X304020000Y-71770000D02*
X303000000Y-70750000D01*
X323770000Y-77460000D02*
X323750000Y-74750000D01*
X311750000Y-75250000D02*
X311750000Y-77600000D01*
X313250000Y-73750000D02*
X311750000Y-75250000D01*
X322750000Y-73750000D02*
X313250000Y-73750000D01*
X323750000Y-74750000D02*
X322750000Y-73750000D01*
X343520000Y-82460000D02*
X343520000Y-79520000D01*
X331500000Y-80250000D02*
X331500000Y-82600000D01*
X333250000Y-78500000D02*
X331500000Y-80250000D01*
X342500000Y-78500000D02*
X333250000Y-78500000D01*
X343520000Y-79520000D02*
X342500000Y-78500000D01*
X363270000Y-82460000D02*
X363270000Y-79770000D01*
X351250000Y-80250000D02*
X351250000Y-82600000D01*
X352750000Y-78750000D02*
X351250000Y-80250000D01*
X362250000Y-78750000D02*
X352750000Y-78750000D01*
X363270000Y-79770000D02*
X362250000Y-78750000D01*
X264520000Y-99710000D02*
X264520000Y-97020000D01*
X252500000Y-97500000D02*
X252500000Y-99600000D01*
X254000000Y-96000000D02*
X252500000Y-97500000D01*
X263500000Y-96000000D02*
X254000000Y-96000000D01*
X264520000Y-97020000D02*
X263500000Y-96000000D01*
X284270000Y-97210000D02*
X284270000Y-94770000D01*
X272250000Y-95000000D02*
X272250000Y-97100000D01*
X273500000Y-93750000D02*
X272250000Y-95000000D01*
X283250000Y-93750000D02*
X273500000Y-93750000D01*
X284270000Y-94770000D02*
X283250000Y-93750000D01*
X304020000Y-94710000D02*
X304020000Y-92020000D01*
X292000000Y-92500000D02*
X292000000Y-94600000D01*
X293500000Y-91000000D02*
X292000000Y-92500000D01*
X303000000Y-91000000D02*
X293500000Y-91000000D01*
X304020000Y-92020000D02*
X303000000Y-91000000D01*
X323770000Y-97210000D02*
X323770000Y-94520000D01*
X311750000Y-95000000D02*
X311750000Y-97100000D01*
X313250000Y-93500000D02*
X311750000Y-95000000D01*
X322750000Y-93500000D02*
X313250000Y-93500000D01*
X323770000Y-94520000D02*
X322750000Y-93500000D01*
X343520000Y-102210000D02*
X343520000Y-99520000D01*
X331500000Y-100000000D02*
X331500000Y-102100000D01*
X333000000Y-98500000D02*
X331500000Y-100000000D01*
X342500000Y-98500000D02*
X333000000Y-98500000D01*
X343520000Y-99520000D02*
X342500000Y-98500000D01*
X363270000Y-102210000D02*
X363270000Y-99520000D01*
X351250000Y-100000000D02*
X351250000Y-102100000D01*
X352750000Y-98500000D02*
X351250000Y-100000000D01*
X362250000Y-98500000D02*
X352750000Y-98500000D01*
X363270000Y-99520000D02*
X362250000Y-98500000D01*
X264520000Y-119460000D02*
X264520000Y-116770000D01*
X252500000Y-117250000D02*
X252500000Y-119600000D01*
X254000000Y-115750000D02*
X252500000Y-117250000D01*
X263500000Y-115750000D02*
X254000000Y-115750000D01*
X264520000Y-116770000D02*
X263500000Y-115750000D01*
X284270000Y-116960000D02*
X284270000Y-114270000D01*
X272250000Y-114750000D02*
X272250000Y-117100000D01*
X273750000Y-113250000D02*
X272250000Y-114750000D01*
X283250000Y-113250000D02*
X273750000Y-113250000D01*
X284270000Y-114270000D02*
X283250000Y-113250000D01*
X304020000Y-114460000D02*
X304020000Y-111770000D01*
X292000000Y-112250000D02*
X292000000Y-114600000D01*
X293500000Y-110750000D02*
X292000000Y-112250000D01*
X303000000Y-110750000D02*
X293500000Y-110750000D01*
X304020000Y-111770000D02*
X303000000Y-110750000D01*
X323770000Y-116960000D02*
X323770000Y-114270000D01*
X311750000Y-114750000D02*
X311750000Y-117100000D01*
X313250000Y-113250000D02*
X311750000Y-114750000D01*
X322750000Y-113250000D02*
X313250000Y-113250000D01*
X323770000Y-114270000D02*
X322750000Y-113250000D01*
X343520000Y-121960000D02*
X343520000Y-119270000D01*
X331500000Y-119750000D02*
X331500000Y-122100000D01*
X333000000Y-118250000D02*
X331500000Y-119750000D01*
X342500000Y-118250000D02*
X333000000Y-118250000D01*
X343520000Y-119270000D02*
X342500000Y-118250000D01*
X363270000Y-121960000D02*
X363270000Y-119270000D01*
X351250000Y-119750000D02*
X351250000Y-122100000D01*
X352750000Y-118250000D02*
X351250000Y-119750000D01*
X362250000Y-118250000D02*
X352750000Y-118250000D01*
X363270000Y-119270000D02*
X362250000Y-118250000D01*
X264520000Y-139210000D02*
X264520000Y-136520000D01*
X252500000Y-137000000D02*
X252500000Y-139100000D01*
X254000000Y-135500000D02*
X252500000Y-137000000D01*
X263500000Y-135500000D02*
X254000000Y-135500000D01*
X264520000Y-136520000D02*
X263500000Y-135500000D01*
X284270000Y-136960000D02*
X284270000Y-134270000D01*
X272250000Y-134750000D02*
X272250000Y-137100000D01*
X273750000Y-133250000D02*
X272250000Y-134750000D01*
X283250000Y-133250000D02*
X273750000Y-133250000D01*
X284270000Y-134270000D02*
X283250000Y-133250000D01*
X243770000Y-154210000D02*
X243770000Y-151520000D01*
X231750000Y-152000000D02*
X231750000Y-153850000D01*
X233250000Y-150500000D02*
X231750000Y-152000000D01*
X242750000Y-150500000D02*
X233250000Y-150500000D01*
X243770000Y-151520000D02*
X242750000Y-150500000D01*
X191250000Y-78500000D02*
X186750000Y-78500000D01*
X192000000Y-77750000D02*
X191250000Y-78500000D01*
X192500000Y-79250000D02*
X193000000Y-78750000D01*
X188500000Y-79250000D02*
X192500000Y-79250000D01*
X189900000Y-75850000D02*
X189500000Y-76250000D01*
X189500000Y-76250000D02*
X188250000Y-76250000D01*
X188250000Y-76250000D02*
X187500000Y-77000000D01*
X187500000Y-77000000D02*
X187500000Y-77750000D01*
X189900000Y-75460000D02*
X189900000Y-75850000D01*
X195500000Y-81500000D02*
X195500000Y-83500000D01*
X194750000Y-80750000D02*
X195500000Y-81500000D01*
X190250000Y-80750000D02*
X194750000Y-80750000D01*
X189500000Y-80000000D02*
X190250000Y-80750000D01*
M02*
