G04 #@! TF.FileFunction,Soldermask,Bot*
%FSLAX46Y46*%
G04 Gerber Fmt 4.6, Leading zero omitted, Abs format (unit mm)*
G04 Created by KiCad (PCBNEW 4.0.7) date Thu Mar 29 21:24:39 2018*
%MOMM*%
%LPD*%
G01*
G04 APERTURE LIST*
%ADD10C,0.100000*%
%ADD11O,0.800000X1.400000*%
%ADD12R,0.300000X0.700000*%
%ADD13O,0.950000X0.650000*%
%ADD14C,0.650000*%
%ADD15O,1.400000X0.800000*%
%ADD16O,0.650000X0.950000*%
%ADD17C,2.500000*%
%ADD18R,1.200000X1.200000*%
%ADD19R,1.600000X1.600000*%
%ADD20C,1.600000*%
%ADD21R,0.700000X0.300000*%
%ADD22R,1.752600X1.752600*%
%ADD23C,1.752600*%
%ADD24C,2.500000*%
G04 APERTURE END LIST*
D10*
D11*
X146370000Y-26110000D03*
D12*
X147750000Y-28020000D03*
X148250000Y-28020000D03*
X148750000Y-28020000D03*
X149250000Y-28020000D03*
X149750000Y-28020000D03*
X150250000Y-28020000D03*
X150750000Y-28020000D03*
X153250000Y-28020000D03*
X152250000Y-28020000D03*
X151750000Y-28020000D03*
X151250000Y-28020000D03*
X152750000Y-28020000D03*
D11*
X154630000Y-26110000D03*
X154990000Y-20160000D03*
X146010000Y-20160000D03*
D13*
X154100000Y-27360000D03*
D14*
X146900000Y-27360000D03*
X153300000Y-26710000D03*
X151700000Y-26710000D03*
X150900000Y-26710000D03*
X150100000Y-26710000D03*
X149300000Y-26710000D03*
X147700000Y-26710000D03*
X152900000Y-26010000D03*
X152100000Y-26010000D03*
X151300000Y-26010000D03*
X149700000Y-26010000D03*
X148900000Y-26010000D03*
X148100000Y-26010000D03*
D15*
X21110000Y-127120000D03*
X21110000Y-135380000D03*
X15160000Y-135740000D03*
X15160000Y-126760000D03*
D16*
X22360000Y-134850000D03*
D14*
X22360000Y-127650000D03*
X21710000Y-134050000D03*
X21710000Y-132450000D03*
X21710000Y-131650000D03*
X21710000Y-130850000D03*
X21710000Y-130050000D03*
X21710000Y-128450000D03*
X21010000Y-133650000D03*
X21010000Y-132850000D03*
X21010000Y-132050000D03*
X21010000Y-130450000D03*
X21010000Y-129650000D03*
X21010000Y-128850000D03*
D17*
X144750453Y-104500046D02*
X143939547Y-105959954D01*
X150289724Y-103420672D02*
X150250276Y-103999328D01*
X26250453Y-72250046D02*
X25439547Y-73709954D01*
X31789724Y-71170672D02*
X31750276Y-71749328D01*
D18*
X38750000Y-34425000D03*
X38750000Y-37575000D03*
D19*
X38750000Y-39900000D03*
D20*
X38750000Y-32100000D03*
D18*
X58500000Y-34425000D03*
X58500000Y-37575000D03*
D19*
X58500000Y-39900000D03*
D20*
X58500000Y-32100000D03*
D18*
X78250000Y-29425000D03*
X78250000Y-32575000D03*
D19*
X78250000Y-34900000D03*
D20*
X78250000Y-27100000D03*
D18*
X98000000Y-26425000D03*
X98000000Y-29575000D03*
D19*
X98000000Y-31900000D03*
D20*
X98000000Y-24100000D03*
D18*
X117750000Y-29425000D03*
X117750000Y-32575000D03*
D19*
X117750000Y-34900000D03*
D20*
X117750000Y-27100000D03*
D18*
X137500000Y-31925000D03*
X137500000Y-35075000D03*
D19*
X137500000Y-37400000D03*
D20*
X137500000Y-29600000D03*
D18*
X38750000Y-53925000D03*
X38750000Y-57075000D03*
D19*
X38750000Y-59400000D03*
D20*
X38750000Y-51600000D03*
D18*
X58500000Y-53925000D03*
X58500000Y-57075000D03*
D19*
X58500000Y-59400000D03*
D20*
X58500000Y-51600000D03*
D18*
X78250000Y-48925000D03*
X78250000Y-52075000D03*
D19*
X78250000Y-54400000D03*
D20*
X78250000Y-46600000D03*
D18*
X98000000Y-46425000D03*
X98000000Y-49575000D03*
D19*
X98000000Y-51900000D03*
D20*
X98000000Y-44100000D03*
D18*
X117750000Y-48925000D03*
X117750000Y-52075000D03*
D19*
X117750000Y-54400000D03*
D20*
X117750000Y-46600000D03*
D18*
X137500000Y-51425000D03*
X137500000Y-54575000D03*
D19*
X137500000Y-56900000D03*
D20*
X137500000Y-49100000D03*
D18*
X38750000Y-73925000D03*
X38750000Y-77075000D03*
D19*
X38750000Y-79400000D03*
D20*
X38750000Y-71600000D03*
D18*
X58500000Y-73925000D03*
X58500000Y-77075000D03*
D19*
X58500000Y-79400000D03*
D20*
X58500000Y-71600000D03*
D18*
X78250000Y-68925000D03*
X78250000Y-72075000D03*
D19*
X78250000Y-74400000D03*
D20*
X78250000Y-66600000D03*
D18*
X98000000Y-66425000D03*
X98000000Y-69575000D03*
D19*
X98000000Y-71900000D03*
D20*
X98000000Y-64100000D03*
D18*
X117750000Y-68925000D03*
X117750000Y-72075000D03*
D19*
X117750000Y-74400000D03*
D20*
X117750000Y-66600000D03*
D18*
X137500000Y-71425000D03*
X137500000Y-74575000D03*
D19*
X137500000Y-76900000D03*
D20*
X137500000Y-69100000D03*
D18*
X117750000Y-88925000D03*
X117750000Y-92075000D03*
D19*
X117750000Y-94400000D03*
D20*
X117750000Y-86600000D03*
D18*
X137500000Y-90925000D03*
X137500000Y-94075000D03*
D19*
X137500000Y-96400000D03*
D20*
X137500000Y-88600000D03*
D18*
X158250000Y-105925000D03*
X158250000Y-109075000D03*
D19*
X158250000Y-111400000D03*
D20*
X158250000Y-103600000D03*
D15*
X162140000Y-85870000D03*
D21*
X160230000Y-87250000D03*
X160230000Y-87750000D03*
X160230000Y-88250000D03*
X160230000Y-88750000D03*
X160230000Y-89250000D03*
X160230000Y-89750000D03*
X160230000Y-90250000D03*
X160230000Y-92750000D03*
X160230000Y-91750000D03*
X160230000Y-91250000D03*
X160230000Y-90750000D03*
X160230000Y-92250000D03*
D15*
X162140000Y-94130000D03*
X168090000Y-94490000D03*
X168090000Y-85510000D03*
D16*
X160890000Y-93600000D03*
D14*
X160890000Y-86400000D03*
X161540000Y-92800000D03*
X161540000Y-91200000D03*
X161540000Y-90400000D03*
X161540000Y-89600000D03*
X161540000Y-88800000D03*
X161540000Y-87200000D03*
X162240000Y-92400000D03*
X162240000Y-91600000D03*
X162240000Y-90800000D03*
X162240000Y-89200000D03*
X162240000Y-88400000D03*
X162240000Y-87600000D03*
D17*
X26250453Y-32750046D02*
X25439547Y-34209954D01*
X31789724Y-31670672D02*
X31750276Y-32249328D01*
X46000453Y-32750046D02*
X45189547Y-34209954D01*
X51539724Y-31670672D02*
X51500276Y-32249328D01*
X65750453Y-27750046D02*
X64939547Y-29209954D01*
X71289724Y-26670672D02*
X71250276Y-27249328D01*
X85500453Y-24750046D02*
X84689547Y-26209954D01*
X91039724Y-23670672D02*
X91000276Y-24249328D01*
X105250453Y-27750046D02*
X104439547Y-29209954D01*
X110789724Y-26670672D02*
X110750276Y-27249328D01*
X125000453Y-30250046D02*
X124189547Y-31709954D01*
X130539724Y-29170672D02*
X130500276Y-29749328D01*
X26250453Y-52500046D02*
X25439547Y-53959954D01*
X31789724Y-51420672D02*
X31750276Y-51999328D01*
X46000453Y-52500046D02*
X45189547Y-53959954D01*
X51539724Y-51420672D02*
X51500276Y-51999328D01*
X65750453Y-47500046D02*
X64939547Y-48959954D01*
X71289724Y-46420672D02*
X71250276Y-46999328D01*
X85500453Y-45000046D02*
X84689547Y-46459954D01*
X91039724Y-43920672D02*
X91000276Y-44499328D01*
X105250453Y-47500046D02*
X104439547Y-48959954D01*
X110789724Y-46420672D02*
X110750276Y-46999328D01*
X125000453Y-50000046D02*
X124189547Y-51459954D01*
X130539724Y-48920672D02*
X130500276Y-49499328D01*
X46000453Y-72250046D02*
X45189547Y-73709954D01*
X51539724Y-71170672D02*
X51500276Y-71749328D01*
X65750453Y-67250046D02*
X64939547Y-68709954D01*
X71289724Y-66170672D02*
X71250276Y-66749328D01*
X85500453Y-64750046D02*
X84689547Y-66209954D01*
X91039724Y-63670672D02*
X91000276Y-64249328D01*
X105250453Y-67250046D02*
X104439547Y-68709954D01*
X110789724Y-66170672D02*
X110750276Y-66749328D01*
X125000453Y-69750046D02*
X124189547Y-71209954D01*
X130539724Y-68670672D02*
X130500276Y-69249328D01*
X105250453Y-87250046D02*
X104439547Y-88709954D01*
X110789724Y-86170672D02*
X110750276Y-86749328D01*
X125000453Y-89500046D02*
X124189547Y-90959954D01*
X130539724Y-88420672D02*
X130500276Y-88999328D01*
D22*
X145880000Y-48030000D03*
D23*
X145880000Y-50570000D03*
X145880000Y-53110000D03*
X145880000Y-55650000D03*
X145880000Y-58190000D03*
X145880000Y-60730000D03*
X145880000Y-63270000D03*
X145880000Y-65810000D03*
X145880000Y-68350000D03*
X145880000Y-70890000D03*
X145880000Y-73430000D03*
X145880000Y-75970000D03*
X148420000Y-75970000D03*
X150960000Y-75970000D03*
X153500000Y-75970000D03*
X156040000Y-75970000D03*
X158580000Y-75970000D03*
X161120000Y-75970000D03*
X161120000Y-73430000D03*
X161120000Y-70890000D03*
X161120000Y-68350000D03*
X161120000Y-65810000D03*
X161120000Y-63270000D03*
X161120000Y-60730000D03*
X161120000Y-58190000D03*
X161120000Y-55650000D03*
X161120000Y-53110000D03*
X161120000Y-50570000D03*
X161120000Y-48030000D03*
X158580000Y-58190000D03*
X148420000Y-58190000D03*
D19*
X45500000Y-183850000D03*
D20*
X45500000Y-191650000D03*
D19*
X65250000Y-186350000D03*
D20*
X65250000Y-194150000D03*
D19*
X85000000Y-189350000D03*
D20*
X85000000Y-197150000D03*
D19*
X104750000Y-186350000D03*
D20*
X104750000Y-194150000D03*
D19*
X124500000Y-181350000D03*
D20*
X124500000Y-189150000D03*
D19*
X144250000Y-181350000D03*
D20*
X144250000Y-189150000D03*
D19*
X45500000Y-164350000D03*
D20*
X45500000Y-172150000D03*
D19*
X65250000Y-166850000D03*
D20*
X65250000Y-174650000D03*
D19*
X85000000Y-169350000D03*
D20*
X85000000Y-177150000D03*
D19*
X104750000Y-166850000D03*
D20*
X104750000Y-174650000D03*
D19*
X124500000Y-161850000D03*
D20*
X124500000Y-169650000D03*
D19*
X144250000Y-161850000D03*
D20*
X144250000Y-169650000D03*
D19*
X45500000Y-144350000D03*
D20*
X45500000Y-152150000D03*
D19*
X65250000Y-146850000D03*
D20*
X65250000Y-154650000D03*
D19*
X85000000Y-149350000D03*
D20*
X85000000Y-157150000D03*
D19*
X104750000Y-146850000D03*
D20*
X104750000Y-154650000D03*
D19*
X124500000Y-141850000D03*
D20*
X124500000Y-149650000D03*
D19*
X144250000Y-141850000D03*
D20*
X144250000Y-149650000D03*
D19*
X45500000Y-124850000D03*
D20*
X45500000Y-132650000D03*
D19*
X65250000Y-126850000D03*
D20*
X65250000Y-134650000D03*
D19*
X25000000Y-109850000D03*
D20*
X25000000Y-117650000D03*
D17*
X51189547Y-189540046D02*
X52000453Y-190999954D01*
X57500276Y-191500672D02*
X57539724Y-192079328D01*
X70939547Y-192040046D02*
X71750453Y-193499954D01*
X77250276Y-194000672D02*
X77289724Y-194579328D01*
X90689547Y-195040046D02*
X91500453Y-196499954D01*
X97000276Y-197000672D02*
X97039724Y-197579328D01*
X110439547Y-192040046D02*
X111250453Y-193499954D01*
X116750276Y-194000672D02*
X116789724Y-194579328D01*
X130189547Y-187040046D02*
X131000453Y-188499954D01*
X136500276Y-189000672D02*
X136539724Y-189579328D01*
X149939547Y-187040046D02*
X150750453Y-188499954D01*
X156250276Y-189000672D02*
X156289724Y-189579328D01*
X51189547Y-169790046D02*
X52000453Y-171249954D01*
X57500276Y-171750672D02*
X57539724Y-172329328D01*
X70939547Y-172290046D02*
X71750453Y-173749954D01*
X77250276Y-174250672D02*
X77289724Y-174829328D01*
X90689547Y-174790046D02*
X91500453Y-176249954D01*
X97000276Y-176750672D02*
X97039724Y-177329328D01*
X110439547Y-172290046D02*
X111250453Y-173749954D01*
X116750276Y-174250672D02*
X116789724Y-174829328D01*
X130189547Y-167290046D02*
X131000453Y-168749954D01*
X136500276Y-169250672D02*
X136539724Y-169829328D01*
X149939547Y-167290046D02*
X150750453Y-168749954D01*
X156250276Y-169250672D02*
X156289724Y-169829328D01*
X51189547Y-150040046D02*
X52000453Y-151499954D01*
X57500276Y-152000672D02*
X57539724Y-152579328D01*
X70939547Y-152540046D02*
X71750453Y-153999954D01*
X77250276Y-154500672D02*
X77289724Y-155079328D01*
X90689547Y-155040046D02*
X91500453Y-156499954D01*
X97000276Y-157000672D02*
X97039724Y-157579328D01*
X110439547Y-152540046D02*
X111250453Y-153999954D01*
X116750276Y-154500672D02*
X116789724Y-155079328D01*
X130189547Y-147540046D02*
X131000453Y-148999954D01*
X136500276Y-149500672D02*
X136539724Y-150079328D01*
X149939547Y-147540046D02*
X150750453Y-148999954D01*
X156250276Y-149500672D02*
X156289724Y-150079328D01*
X51189547Y-130290046D02*
X52000453Y-131749954D01*
X57500276Y-132250672D02*
X57539724Y-132829328D01*
X70939547Y-132540046D02*
X71750453Y-133999954D01*
X77250276Y-134500672D02*
X77289724Y-135079328D01*
X31689547Y-115290046D02*
X32500453Y-116749954D01*
X38000276Y-117250672D02*
X38039724Y-117829328D01*
D24*
X146750000Y-33000000D03*
X151500000Y-33000000D03*
X156500000Y-33000000D03*
X161250000Y-33000000D03*
M02*
