G04 #@! TF.FileFunction,Legend,Bot*
%FSLAX46Y46*%
G04 Gerber Fmt 4.6, Leading zero omitted, Abs format (unit mm)*
G04 Created by KiCad (PCBNEW 4.0.7) date Thu Mar 29 21:24:39 2018*
%MOMM*%
%LPD*%
G01*
G04 APERTURE LIST*
%ADD10C,0.100000*%
%ADD11C,0.300000*%
%ADD12C,0.120000*%
%ADD13C,0.200000*%
%ADD14C,0.381000*%
%ADD15C,0.150000*%
G04 APERTURE END LIST*
D10*
D11*
X100321429Y-14678571D02*
X100321429Y-15892857D01*
X100392858Y-16035714D01*
X100464286Y-16107143D01*
X100607143Y-16178571D01*
X100821429Y-16178571D01*
X100964286Y-16107143D01*
X100321429Y-15607143D02*
X100464286Y-15678571D01*
X100750000Y-15678571D01*
X100892858Y-15607143D01*
X100964286Y-15535714D01*
X101035715Y-15392857D01*
X101035715Y-14964286D01*
X100964286Y-14821429D01*
X100892858Y-14750000D01*
X100750000Y-14678571D01*
X100464286Y-14678571D01*
X100321429Y-14750000D01*
X99607143Y-15678571D02*
X99607143Y-14678571D01*
X99607143Y-14178571D02*
X99678572Y-14250000D01*
X99607143Y-14321429D01*
X99535715Y-14250000D01*
X99607143Y-14178571D01*
X99607143Y-14321429D01*
X99107143Y-14678571D02*
X98535714Y-14678571D01*
X98892857Y-14178571D02*
X98892857Y-15464286D01*
X98821429Y-15607143D01*
X98678571Y-15678571D01*
X98535714Y-15678571D01*
X98035714Y-15678571D02*
X98035714Y-14178571D01*
X97392857Y-15678571D02*
X97392857Y-14892857D01*
X97464286Y-14750000D01*
X97607143Y-14678571D01*
X97821428Y-14678571D01*
X97964286Y-14750000D01*
X98035714Y-14821429D01*
X96035714Y-14678571D02*
X96035714Y-15678571D01*
X96678571Y-14678571D02*
X96678571Y-15464286D01*
X96607143Y-15607143D01*
X96464285Y-15678571D01*
X96250000Y-15678571D01*
X96107143Y-15607143D01*
X96035714Y-15535714D01*
X95321428Y-15678571D02*
X95321428Y-14178571D01*
X95321428Y-14750000D02*
X95178571Y-14678571D01*
X94892857Y-14678571D01*
X94750000Y-14750000D01*
X94678571Y-14821429D01*
X94607142Y-14964286D01*
X94607142Y-15392857D01*
X94678571Y-15535714D01*
X94750000Y-15607143D01*
X94892857Y-15678571D01*
X95178571Y-15678571D01*
X95321428Y-15607143D01*
X93964285Y-15535714D02*
X93892857Y-15607143D01*
X93964285Y-15678571D01*
X94035714Y-15607143D01*
X93964285Y-15535714D01*
X93964285Y-15678571D01*
X92607142Y-15607143D02*
X92749999Y-15678571D01*
X93035713Y-15678571D01*
X93178571Y-15607143D01*
X93249999Y-15535714D01*
X93321428Y-15392857D01*
X93321428Y-14964286D01*
X93249999Y-14821429D01*
X93178571Y-14750000D01*
X93035713Y-14678571D01*
X92749999Y-14678571D01*
X92607142Y-14750000D01*
X91749999Y-15678571D02*
X91892857Y-15607143D01*
X91964285Y-15535714D01*
X92035714Y-15392857D01*
X92035714Y-14964286D01*
X91964285Y-14821429D01*
X91892857Y-14750000D01*
X91749999Y-14678571D01*
X91535714Y-14678571D01*
X91392857Y-14750000D01*
X91321428Y-14821429D01*
X91249999Y-14964286D01*
X91249999Y-15392857D01*
X91321428Y-15535714D01*
X91392857Y-15607143D01*
X91535714Y-15678571D01*
X91749999Y-15678571D01*
X90607142Y-15678571D02*
X90607142Y-14678571D01*
X90607142Y-14821429D02*
X90535714Y-14750000D01*
X90392856Y-14678571D01*
X90178571Y-14678571D01*
X90035714Y-14750000D01*
X89964285Y-14892857D01*
X89964285Y-15678571D01*
X89964285Y-14892857D02*
X89892856Y-14750000D01*
X89749999Y-14678571D01*
X89535714Y-14678571D01*
X89392856Y-14750000D01*
X89321428Y-14892857D01*
X89321428Y-15678571D01*
X87535714Y-14107143D02*
X88821428Y-16035714D01*
X87035713Y-14678571D02*
X87035713Y-15678571D01*
X87035713Y-14821429D02*
X86964285Y-14750000D01*
X86821427Y-14678571D01*
X86607142Y-14678571D01*
X86464285Y-14750000D01*
X86392856Y-14892857D01*
X86392856Y-15678571D01*
X85035713Y-14678571D02*
X85035713Y-15892857D01*
X85107142Y-16035714D01*
X85178570Y-16107143D01*
X85321427Y-16178571D01*
X85535713Y-16178571D01*
X85678570Y-16107143D01*
X85035713Y-15607143D02*
X85178570Y-15678571D01*
X85464284Y-15678571D01*
X85607142Y-15607143D01*
X85678570Y-15535714D01*
X85749999Y-15392857D01*
X85749999Y-14964286D01*
X85678570Y-14821429D01*
X85607142Y-14750000D01*
X85464284Y-14678571D01*
X85178570Y-14678571D01*
X85035713Y-14750000D01*
X84107141Y-15678571D02*
X84249999Y-15607143D01*
X84321427Y-15464286D01*
X84321427Y-14178571D01*
X82892856Y-14678571D02*
X82892856Y-15892857D01*
X82964285Y-16035714D01*
X83035713Y-16107143D01*
X83178570Y-16178571D01*
X83392856Y-16178571D01*
X83535713Y-16107143D01*
X82892856Y-15607143D02*
X83035713Y-15678571D01*
X83321427Y-15678571D01*
X83464285Y-15607143D01*
X83535713Y-15535714D01*
X83607142Y-15392857D01*
X83607142Y-14964286D01*
X83535713Y-14821429D01*
X83464285Y-14750000D01*
X83321427Y-14678571D01*
X83035713Y-14678571D01*
X82892856Y-14750000D01*
X82321427Y-14678571D02*
X81535713Y-14678571D01*
X82321427Y-15678571D01*
X81535713Y-15678571D01*
X81107141Y-14678571D02*
X80321427Y-14678571D01*
X81107141Y-15678571D01*
X80321427Y-15678571D01*
X78678570Y-14107143D02*
X79964284Y-16035714D01*
X77535712Y-14678571D02*
X77535712Y-15678571D01*
X77892855Y-14107143D02*
X78249998Y-15178571D01*
X77321426Y-15178571D01*
X76821427Y-14321429D02*
X76749998Y-14250000D01*
X76607141Y-14178571D01*
X76249998Y-14178571D01*
X76107141Y-14250000D01*
X76035712Y-14321429D01*
X75964284Y-14464286D01*
X75964284Y-14607143D01*
X76035712Y-14821429D01*
X76892855Y-15678571D01*
X75964284Y-15678571D01*
D12*
X153750000Y-28370000D02*
X155250000Y-28370000D01*
X155250000Y-28370000D02*
X155250000Y-21110000D01*
X145750000Y-28370000D02*
X145750000Y-21110000D01*
X145750000Y-28370000D02*
X147250000Y-28370000D01*
D13*
X39950000Y-38275000D02*
X37550000Y-38275000D01*
X39950000Y-38450000D02*
X37550000Y-38450000D01*
X39950000Y-38625000D02*
X37550000Y-38625000D01*
X37550000Y-39025000D02*
X39950000Y-39025000D01*
X39950000Y-38800000D02*
X37550000Y-38800000D01*
X39950000Y-38925000D02*
X37550000Y-38925000D01*
X39950000Y-39000000D02*
X39950000Y-33200000D01*
X39950000Y-33200000D02*
X37550000Y-33200000D01*
X37550000Y-33200000D02*
X37550000Y-39000000D01*
X59700000Y-38275000D02*
X57300000Y-38275000D01*
X59700000Y-38450000D02*
X57300000Y-38450000D01*
X59700000Y-38625000D02*
X57300000Y-38625000D01*
X57300000Y-39025000D02*
X59700000Y-39025000D01*
X59700000Y-38800000D02*
X57300000Y-38800000D01*
X59700000Y-38925000D02*
X57300000Y-38925000D01*
X59700000Y-39000000D02*
X59700000Y-33200000D01*
X59700000Y-33200000D02*
X57300000Y-33200000D01*
X57300000Y-33200000D02*
X57300000Y-39000000D01*
X79450000Y-33275000D02*
X77050000Y-33275000D01*
X79450000Y-33450000D02*
X77050000Y-33450000D01*
X79450000Y-33625000D02*
X77050000Y-33625000D01*
X77050000Y-34025000D02*
X79450000Y-34025000D01*
X79450000Y-33800000D02*
X77050000Y-33800000D01*
X79450000Y-33925000D02*
X77050000Y-33925000D01*
X79450000Y-34000000D02*
X79450000Y-28200000D01*
X79450000Y-28200000D02*
X77050000Y-28200000D01*
X77050000Y-28200000D02*
X77050000Y-34000000D01*
X99200000Y-30275000D02*
X96800000Y-30275000D01*
X99200000Y-30450000D02*
X96800000Y-30450000D01*
X99200000Y-30625000D02*
X96800000Y-30625000D01*
X96800000Y-31025000D02*
X99200000Y-31025000D01*
X99200000Y-30800000D02*
X96800000Y-30800000D01*
X99200000Y-30925000D02*
X96800000Y-30925000D01*
X99200000Y-31000000D02*
X99200000Y-25200000D01*
X99200000Y-25200000D02*
X96800000Y-25200000D01*
X96800000Y-25200000D02*
X96800000Y-31000000D01*
X118950000Y-33275000D02*
X116550000Y-33275000D01*
X118950000Y-33450000D02*
X116550000Y-33450000D01*
X118950000Y-33625000D02*
X116550000Y-33625000D01*
X116550000Y-34025000D02*
X118950000Y-34025000D01*
X118950000Y-33800000D02*
X116550000Y-33800000D01*
X118950000Y-33925000D02*
X116550000Y-33925000D01*
X118950000Y-34000000D02*
X118950000Y-28200000D01*
X118950000Y-28200000D02*
X116550000Y-28200000D01*
X116550000Y-28200000D02*
X116550000Y-34000000D01*
X138700000Y-35775000D02*
X136300000Y-35775000D01*
X138700000Y-35950000D02*
X136300000Y-35950000D01*
X138700000Y-36125000D02*
X136300000Y-36125000D01*
X136300000Y-36525000D02*
X138700000Y-36525000D01*
X138700000Y-36300000D02*
X136300000Y-36300000D01*
X138700000Y-36425000D02*
X136300000Y-36425000D01*
X138700000Y-36500000D02*
X138700000Y-30700000D01*
X138700000Y-30700000D02*
X136300000Y-30700000D01*
X136300000Y-30700000D02*
X136300000Y-36500000D01*
X39950000Y-57775000D02*
X37550000Y-57775000D01*
X39950000Y-57950000D02*
X37550000Y-57950000D01*
X39950000Y-58125000D02*
X37550000Y-58125000D01*
X37550000Y-58525000D02*
X39950000Y-58525000D01*
X39950000Y-58300000D02*
X37550000Y-58300000D01*
X39950000Y-58425000D02*
X37550000Y-58425000D01*
X39950000Y-58500000D02*
X39950000Y-52700000D01*
X39950000Y-52700000D02*
X37550000Y-52700000D01*
X37550000Y-52700000D02*
X37550000Y-58500000D01*
X59700000Y-57775000D02*
X57300000Y-57775000D01*
X59700000Y-57950000D02*
X57300000Y-57950000D01*
X59700000Y-58125000D02*
X57300000Y-58125000D01*
X57300000Y-58525000D02*
X59700000Y-58525000D01*
X59700000Y-58300000D02*
X57300000Y-58300000D01*
X59700000Y-58425000D02*
X57300000Y-58425000D01*
X59700000Y-58500000D02*
X59700000Y-52700000D01*
X59700000Y-52700000D02*
X57300000Y-52700000D01*
X57300000Y-52700000D02*
X57300000Y-58500000D01*
X79450000Y-52775000D02*
X77050000Y-52775000D01*
X79450000Y-52950000D02*
X77050000Y-52950000D01*
X79450000Y-53125000D02*
X77050000Y-53125000D01*
X77050000Y-53525000D02*
X79450000Y-53525000D01*
X79450000Y-53300000D02*
X77050000Y-53300000D01*
X79450000Y-53425000D02*
X77050000Y-53425000D01*
X79450000Y-53500000D02*
X79450000Y-47700000D01*
X79450000Y-47700000D02*
X77050000Y-47700000D01*
X77050000Y-47700000D02*
X77050000Y-53500000D01*
X99200000Y-50275000D02*
X96800000Y-50275000D01*
X99200000Y-50450000D02*
X96800000Y-50450000D01*
X99200000Y-50625000D02*
X96800000Y-50625000D01*
X96800000Y-51025000D02*
X99200000Y-51025000D01*
X99200000Y-50800000D02*
X96800000Y-50800000D01*
X99200000Y-50925000D02*
X96800000Y-50925000D01*
X99200000Y-51000000D02*
X99200000Y-45200000D01*
X99200000Y-45200000D02*
X96800000Y-45200000D01*
X96800000Y-45200000D02*
X96800000Y-51000000D01*
X118950000Y-52775000D02*
X116550000Y-52775000D01*
X118950000Y-52950000D02*
X116550000Y-52950000D01*
X118950000Y-53125000D02*
X116550000Y-53125000D01*
X116550000Y-53525000D02*
X118950000Y-53525000D01*
X118950000Y-53300000D02*
X116550000Y-53300000D01*
X118950000Y-53425000D02*
X116550000Y-53425000D01*
X118950000Y-53500000D02*
X118950000Y-47700000D01*
X118950000Y-47700000D02*
X116550000Y-47700000D01*
X116550000Y-47700000D02*
X116550000Y-53500000D01*
X138700000Y-55275000D02*
X136300000Y-55275000D01*
X138700000Y-55450000D02*
X136300000Y-55450000D01*
X138700000Y-55625000D02*
X136300000Y-55625000D01*
X136300000Y-56025000D02*
X138700000Y-56025000D01*
X138700000Y-55800000D02*
X136300000Y-55800000D01*
X138700000Y-55925000D02*
X136300000Y-55925000D01*
X138700000Y-56000000D02*
X138700000Y-50200000D01*
X138700000Y-50200000D02*
X136300000Y-50200000D01*
X136300000Y-50200000D02*
X136300000Y-56000000D01*
X39950000Y-77775000D02*
X37550000Y-77775000D01*
X39950000Y-77950000D02*
X37550000Y-77950000D01*
X39950000Y-78125000D02*
X37550000Y-78125000D01*
X37550000Y-78525000D02*
X39950000Y-78525000D01*
X39950000Y-78300000D02*
X37550000Y-78300000D01*
X39950000Y-78425000D02*
X37550000Y-78425000D01*
X39950000Y-78500000D02*
X39950000Y-72700000D01*
X39950000Y-72700000D02*
X37550000Y-72700000D01*
X37550000Y-72700000D02*
X37550000Y-78500000D01*
X59700000Y-77775000D02*
X57300000Y-77775000D01*
X59700000Y-77950000D02*
X57300000Y-77950000D01*
X59700000Y-78125000D02*
X57300000Y-78125000D01*
X57300000Y-78525000D02*
X59700000Y-78525000D01*
X59700000Y-78300000D02*
X57300000Y-78300000D01*
X59700000Y-78425000D02*
X57300000Y-78425000D01*
X59700000Y-78500000D02*
X59700000Y-72700000D01*
X59700000Y-72700000D02*
X57300000Y-72700000D01*
X57300000Y-72700000D02*
X57300000Y-78500000D01*
X79450000Y-72775000D02*
X77050000Y-72775000D01*
X79450000Y-72950000D02*
X77050000Y-72950000D01*
X79450000Y-73125000D02*
X77050000Y-73125000D01*
X77050000Y-73525000D02*
X79450000Y-73525000D01*
X79450000Y-73300000D02*
X77050000Y-73300000D01*
X79450000Y-73425000D02*
X77050000Y-73425000D01*
X79450000Y-73500000D02*
X79450000Y-67700000D01*
X79450000Y-67700000D02*
X77050000Y-67700000D01*
X77050000Y-67700000D02*
X77050000Y-73500000D01*
X99200000Y-70275000D02*
X96800000Y-70275000D01*
X99200000Y-70450000D02*
X96800000Y-70450000D01*
X99200000Y-70625000D02*
X96800000Y-70625000D01*
X96800000Y-71025000D02*
X99200000Y-71025000D01*
X99200000Y-70800000D02*
X96800000Y-70800000D01*
X99200000Y-70925000D02*
X96800000Y-70925000D01*
X99200000Y-71000000D02*
X99200000Y-65200000D01*
X99200000Y-65200000D02*
X96800000Y-65200000D01*
X96800000Y-65200000D02*
X96800000Y-71000000D01*
X118950000Y-72775000D02*
X116550000Y-72775000D01*
X118950000Y-72950000D02*
X116550000Y-72950000D01*
X118950000Y-73125000D02*
X116550000Y-73125000D01*
X116550000Y-73525000D02*
X118950000Y-73525000D01*
X118950000Y-73300000D02*
X116550000Y-73300000D01*
X118950000Y-73425000D02*
X116550000Y-73425000D01*
X118950000Y-73500000D02*
X118950000Y-67700000D01*
X118950000Y-67700000D02*
X116550000Y-67700000D01*
X116550000Y-67700000D02*
X116550000Y-73500000D01*
X138700000Y-75275000D02*
X136300000Y-75275000D01*
X138700000Y-75450000D02*
X136300000Y-75450000D01*
X138700000Y-75625000D02*
X136300000Y-75625000D01*
X136300000Y-76025000D02*
X138700000Y-76025000D01*
X138700000Y-75800000D02*
X136300000Y-75800000D01*
X138700000Y-75925000D02*
X136300000Y-75925000D01*
X138700000Y-76000000D02*
X138700000Y-70200000D01*
X138700000Y-70200000D02*
X136300000Y-70200000D01*
X136300000Y-70200000D02*
X136300000Y-76000000D01*
X118950000Y-92775000D02*
X116550000Y-92775000D01*
X118950000Y-92950000D02*
X116550000Y-92950000D01*
X118950000Y-93125000D02*
X116550000Y-93125000D01*
X116550000Y-93525000D02*
X118950000Y-93525000D01*
X118950000Y-93300000D02*
X116550000Y-93300000D01*
X118950000Y-93425000D02*
X116550000Y-93425000D01*
X118950000Y-93500000D02*
X118950000Y-87700000D01*
X118950000Y-87700000D02*
X116550000Y-87700000D01*
X116550000Y-87700000D02*
X116550000Y-93500000D01*
X138700000Y-94775000D02*
X136300000Y-94775000D01*
X138700000Y-94950000D02*
X136300000Y-94950000D01*
X138700000Y-95125000D02*
X136300000Y-95125000D01*
X136300000Y-95525000D02*
X138700000Y-95525000D01*
X138700000Y-95300000D02*
X136300000Y-95300000D01*
X138700000Y-95425000D02*
X136300000Y-95425000D01*
X138700000Y-95500000D02*
X138700000Y-89700000D01*
X138700000Y-89700000D02*
X136300000Y-89700000D01*
X136300000Y-89700000D02*
X136300000Y-95500000D01*
X159450000Y-109775000D02*
X157050000Y-109775000D01*
X159450000Y-109950000D02*
X157050000Y-109950000D01*
X159450000Y-110125000D02*
X157050000Y-110125000D01*
X157050000Y-110525000D02*
X159450000Y-110525000D01*
X159450000Y-110300000D02*
X157050000Y-110300000D01*
X159450000Y-110425000D02*
X157050000Y-110425000D01*
X159450000Y-110500000D02*
X159450000Y-104700000D01*
X159450000Y-104700000D02*
X157050000Y-104700000D01*
X157050000Y-104700000D02*
X157050000Y-110500000D01*
D12*
X159880000Y-93250000D02*
X159880000Y-94750000D01*
X159880000Y-94750000D02*
X167140000Y-94750000D01*
X159880000Y-85250000D02*
X167140000Y-85250000D01*
X159880000Y-85250000D02*
X159880000Y-86750000D01*
D14*
X48650000Y-193350000D02*
X50428000Y-193350000D01*
X59572000Y-193350000D02*
X61350000Y-193350000D01*
X61350000Y-193350000D02*
X61350000Y-191572000D01*
X61350000Y-182428000D02*
X61350000Y-180650000D01*
X61350000Y-180650000D02*
X59572000Y-180650000D01*
X50428000Y-180650000D02*
X48650000Y-180650000D01*
X48650000Y-180650000D02*
X48650000Y-182428000D01*
X48650000Y-191572000D02*
X48650000Y-193350000D01*
X68400000Y-195850000D02*
X70178000Y-195850000D01*
X79322000Y-195850000D02*
X81100000Y-195850000D01*
X81100000Y-195850000D02*
X81100000Y-194072000D01*
X81100000Y-184928000D02*
X81100000Y-183150000D01*
X81100000Y-183150000D02*
X79322000Y-183150000D01*
X70178000Y-183150000D02*
X68400000Y-183150000D01*
X68400000Y-183150000D02*
X68400000Y-184928000D01*
X68400000Y-194072000D02*
X68400000Y-195850000D01*
X88150000Y-198850000D02*
X89928000Y-198850000D01*
X99072000Y-198850000D02*
X100850000Y-198850000D01*
X100850000Y-198850000D02*
X100850000Y-197072000D01*
X100850000Y-187928000D02*
X100850000Y-186150000D01*
X100850000Y-186150000D02*
X99072000Y-186150000D01*
X89928000Y-186150000D02*
X88150000Y-186150000D01*
X88150000Y-186150000D02*
X88150000Y-187928000D01*
X88150000Y-197072000D02*
X88150000Y-198850000D01*
X107900000Y-195850000D02*
X109678000Y-195850000D01*
X118822000Y-195850000D02*
X120600000Y-195850000D01*
X120600000Y-195850000D02*
X120600000Y-194072000D01*
X120600000Y-184928000D02*
X120600000Y-183150000D01*
X120600000Y-183150000D02*
X118822000Y-183150000D01*
X109678000Y-183150000D02*
X107900000Y-183150000D01*
X107900000Y-183150000D02*
X107900000Y-184928000D01*
X107900000Y-194072000D02*
X107900000Y-195850000D01*
X127650000Y-190850000D02*
X129428000Y-190850000D01*
X138572000Y-190850000D02*
X140350000Y-190850000D01*
X140350000Y-190850000D02*
X140350000Y-189072000D01*
X140350000Y-179928000D02*
X140350000Y-178150000D01*
X140350000Y-178150000D02*
X138572000Y-178150000D01*
X129428000Y-178150000D02*
X127650000Y-178150000D01*
X127650000Y-178150000D02*
X127650000Y-179928000D01*
X127650000Y-189072000D02*
X127650000Y-190850000D01*
X147400000Y-190850000D02*
X149178000Y-190850000D01*
X158322000Y-190850000D02*
X160100000Y-190850000D01*
X160100000Y-190850000D02*
X160100000Y-189072000D01*
X160100000Y-179928000D02*
X160100000Y-178150000D01*
X160100000Y-178150000D02*
X158322000Y-178150000D01*
X149178000Y-178150000D02*
X147400000Y-178150000D01*
X147400000Y-178150000D02*
X147400000Y-179928000D01*
X147400000Y-189072000D02*
X147400000Y-190850000D01*
X48650000Y-173600000D02*
X50428000Y-173600000D01*
X59572000Y-173600000D02*
X61350000Y-173600000D01*
X61350000Y-173600000D02*
X61350000Y-171822000D01*
X61350000Y-162678000D02*
X61350000Y-160900000D01*
X61350000Y-160900000D02*
X59572000Y-160900000D01*
X50428000Y-160900000D02*
X48650000Y-160900000D01*
X48650000Y-160900000D02*
X48650000Y-162678000D01*
X48650000Y-171822000D02*
X48650000Y-173600000D01*
X68400000Y-176100000D02*
X70178000Y-176100000D01*
X79322000Y-176100000D02*
X81100000Y-176100000D01*
X81100000Y-176100000D02*
X81100000Y-174322000D01*
X81100000Y-165178000D02*
X81100000Y-163400000D01*
X81100000Y-163400000D02*
X79322000Y-163400000D01*
X70178000Y-163400000D02*
X68400000Y-163400000D01*
X68400000Y-163400000D02*
X68400000Y-165178000D01*
X68400000Y-174322000D02*
X68400000Y-176100000D01*
X88150000Y-178600000D02*
X89928000Y-178600000D01*
X99072000Y-178600000D02*
X100850000Y-178600000D01*
X100850000Y-178600000D02*
X100850000Y-176822000D01*
X100850000Y-167678000D02*
X100850000Y-165900000D01*
X100850000Y-165900000D02*
X99072000Y-165900000D01*
X89928000Y-165900000D02*
X88150000Y-165900000D01*
X88150000Y-165900000D02*
X88150000Y-167678000D01*
X88150000Y-176822000D02*
X88150000Y-178600000D01*
X107900000Y-176100000D02*
X109678000Y-176100000D01*
X118822000Y-176100000D02*
X120600000Y-176100000D01*
X120600000Y-176100000D02*
X120600000Y-174322000D01*
X120600000Y-165178000D02*
X120600000Y-163400000D01*
X120600000Y-163400000D02*
X118822000Y-163400000D01*
X109678000Y-163400000D02*
X107900000Y-163400000D01*
X107900000Y-163400000D02*
X107900000Y-165178000D01*
X107900000Y-174322000D02*
X107900000Y-176100000D01*
X127650000Y-171100000D02*
X129428000Y-171100000D01*
X138572000Y-171100000D02*
X140350000Y-171100000D01*
X140350000Y-171100000D02*
X140350000Y-169322000D01*
X140350000Y-160178000D02*
X140350000Y-158400000D01*
X140350000Y-158400000D02*
X138572000Y-158400000D01*
X129428000Y-158400000D02*
X127650000Y-158400000D01*
X127650000Y-158400000D02*
X127650000Y-160178000D01*
X127650000Y-169322000D02*
X127650000Y-171100000D01*
X147400000Y-171100000D02*
X149178000Y-171100000D01*
X158322000Y-171100000D02*
X160100000Y-171100000D01*
X160100000Y-171100000D02*
X160100000Y-169322000D01*
X160100000Y-160178000D02*
X160100000Y-158400000D01*
X160100000Y-158400000D02*
X158322000Y-158400000D01*
X149178000Y-158400000D02*
X147400000Y-158400000D01*
X147400000Y-158400000D02*
X147400000Y-160178000D01*
X147400000Y-169322000D02*
X147400000Y-171100000D01*
X48650000Y-153850000D02*
X50428000Y-153850000D01*
X59572000Y-153850000D02*
X61350000Y-153850000D01*
X61350000Y-153850000D02*
X61350000Y-152072000D01*
X61350000Y-142928000D02*
X61350000Y-141150000D01*
X61350000Y-141150000D02*
X59572000Y-141150000D01*
X50428000Y-141150000D02*
X48650000Y-141150000D01*
X48650000Y-141150000D02*
X48650000Y-142928000D01*
X48650000Y-152072000D02*
X48650000Y-153850000D01*
X68400000Y-156350000D02*
X70178000Y-156350000D01*
X79322000Y-156350000D02*
X81100000Y-156350000D01*
X81100000Y-156350000D02*
X81100000Y-154572000D01*
X81100000Y-145428000D02*
X81100000Y-143650000D01*
X81100000Y-143650000D02*
X79322000Y-143650000D01*
X70178000Y-143650000D02*
X68400000Y-143650000D01*
X68400000Y-143650000D02*
X68400000Y-145428000D01*
X68400000Y-154572000D02*
X68400000Y-156350000D01*
X88150000Y-158850000D02*
X89928000Y-158850000D01*
X99072000Y-158850000D02*
X100850000Y-158850000D01*
X100850000Y-158850000D02*
X100850000Y-157072000D01*
X100850000Y-147928000D02*
X100850000Y-146150000D01*
X100850000Y-146150000D02*
X99072000Y-146150000D01*
X89928000Y-146150000D02*
X88150000Y-146150000D01*
X88150000Y-146150000D02*
X88150000Y-147928000D01*
X88150000Y-157072000D02*
X88150000Y-158850000D01*
X107900000Y-156350000D02*
X109678000Y-156350000D01*
X118822000Y-156350000D02*
X120600000Y-156350000D01*
X120600000Y-156350000D02*
X120600000Y-154572000D01*
X120600000Y-145428000D02*
X120600000Y-143650000D01*
X120600000Y-143650000D02*
X118822000Y-143650000D01*
X109678000Y-143650000D02*
X107900000Y-143650000D01*
X107900000Y-143650000D02*
X107900000Y-145428000D01*
X107900000Y-154572000D02*
X107900000Y-156350000D01*
X127650000Y-151350000D02*
X129428000Y-151350000D01*
X138572000Y-151350000D02*
X140350000Y-151350000D01*
X140350000Y-151350000D02*
X140350000Y-149572000D01*
X140350000Y-140428000D02*
X140350000Y-138650000D01*
X140350000Y-138650000D02*
X138572000Y-138650000D01*
X129428000Y-138650000D02*
X127650000Y-138650000D01*
X127650000Y-138650000D02*
X127650000Y-140428000D01*
X127650000Y-149572000D02*
X127650000Y-151350000D01*
X147400000Y-151350000D02*
X149178000Y-151350000D01*
X158322000Y-151350000D02*
X160100000Y-151350000D01*
X160100000Y-151350000D02*
X160100000Y-149572000D01*
X160100000Y-140428000D02*
X160100000Y-138650000D01*
X160100000Y-138650000D02*
X158322000Y-138650000D01*
X149178000Y-138650000D02*
X147400000Y-138650000D01*
X147400000Y-138650000D02*
X147400000Y-140428000D01*
X147400000Y-149572000D02*
X147400000Y-151350000D01*
X48650000Y-134100000D02*
X50428000Y-134100000D01*
X59572000Y-134100000D02*
X61350000Y-134100000D01*
X61350000Y-134100000D02*
X61350000Y-132322000D01*
X61350000Y-123178000D02*
X61350000Y-121400000D01*
X61350000Y-121400000D02*
X59572000Y-121400000D01*
X50428000Y-121400000D02*
X48650000Y-121400000D01*
X48650000Y-121400000D02*
X48650000Y-123178000D01*
X48650000Y-132322000D02*
X48650000Y-134100000D01*
X68400000Y-136350000D02*
X70178000Y-136350000D01*
X79322000Y-136350000D02*
X81100000Y-136350000D01*
X81100000Y-136350000D02*
X81100000Y-134572000D01*
X81100000Y-125428000D02*
X81100000Y-123650000D01*
X81100000Y-123650000D02*
X79322000Y-123650000D01*
X70178000Y-123650000D02*
X68400000Y-123650000D01*
X68400000Y-123650000D02*
X68400000Y-125428000D01*
X68400000Y-134572000D02*
X68400000Y-136350000D01*
X29150000Y-119100000D02*
X30928000Y-119100000D01*
X40072000Y-119100000D02*
X41850000Y-119100000D01*
X41850000Y-119100000D02*
X41850000Y-117322000D01*
X41850000Y-108178000D02*
X41850000Y-106400000D01*
X41850000Y-106400000D02*
X40072000Y-106400000D01*
X30928000Y-106400000D02*
X29150000Y-106400000D01*
X29150000Y-106400000D02*
X29150000Y-108178000D01*
X29150000Y-117322000D02*
X29150000Y-119100000D01*
D15*
X150833333Y-28812381D02*
X150833333Y-29526667D01*
X150880953Y-29669524D01*
X150976191Y-29764762D01*
X151119048Y-29812381D01*
X151214286Y-29812381D01*
X149833333Y-29812381D02*
X150404762Y-29812381D01*
X150119048Y-29812381D02*
X150119048Y-28812381D01*
X150214286Y-28955238D01*
X150309524Y-29050476D01*
X150404762Y-29098095D01*
D13*
X148964286Y-113270381D02*
X148964286Y-112270381D01*
X148392857Y-113270381D02*
X148821429Y-112698952D01*
X148392857Y-112270381D02*
X148964286Y-112841810D01*
X148011905Y-112365619D02*
X147964286Y-112318000D01*
X147869048Y-112270381D01*
X147630952Y-112270381D01*
X147535714Y-112318000D01*
X147488095Y-112365619D01*
X147440476Y-112460857D01*
X147440476Y-112556095D01*
X147488095Y-112698952D01*
X148059524Y-113270381D01*
X147440476Y-113270381D01*
X146488095Y-113270381D02*
X147059524Y-113270381D01*
X146773810Y-113270381D02*
X146773810Y-112270381D01*
X146869048Y-112413238D01*
X146964286Y-112508476D01*
X147059524Y-112556095D01*
X30464286Y-81020381D02*
X30464286Y-80020381D01*
X29892857Y-81020381D02*
X30321429Y-80448952D01*
X29892857Y-80020381D02*
X30464286Y-80591810D01*
X28940476Y-81020381D02*
X29511905Y-81020381D01*
X29226191Y-81020381D02*
X29226191Y-80020381D01*
X29321429Y-80163238D01*
X29416667Y-80258476D01*
X29511905Y-80306095D01*
X28607143Y-80020381D02*
X27988095Y-80020381D01*
X28321429Y-80401333D01*
X28178571Y-80401333D01*
X28083333Y-80448952D01*
X28035714Y-80496571D01*
X27988095Y-80591810D01*
X27988095Y-80829905D01*
X28035714Y-80925143D01*
X28083333Y-80972762D01*
X28178571Y-81020381D01*
X28464286Y-81020381D01*
X28559524Y-80972762D01*
X28607143Y-80925143D01*
D15*
X37186905Y-35409524D02*
X36386905Y-35409524D01*
X36386905Y-35600000D01*
X36425000Y-35714286D01*
X36501190Y-35790477D01*
X36577381Y-35828572D01*
X36729762Y-35866667D01*
X36844048Y-35866667D01*
X36996429Y-35828572D01*
X37072619Y-35790477D01*
X37148810Y-35714286D01*
X37186905Y-35600000D01*
X37186905Y-35409524D01*
X37186905Y-36628572D02*
X37186905Y-36171429D01*
X37186905Y-36400000D02*
X36386905Y-36400000D01*
X36501190Y-36323810D01*
X36577381Y-36247619D01*
X36615476Y-36171429D01*
X56936905Y-35409524D02*
X56136905Y-35409524D01*
X56136905Y-35600000D01*
X56175000Y-35714286D01*
X56251190Y-35790477D01*
X56327381Y-35828572D01*
X56479762Y-35866667D01*
X56594048Y-35866667D01*
X56746429Y-35828572D01*
X56822619Y-35790477D01*
X56898810Y-35714286D01*
X56936905Y-35600000D01*
X56936905Y-35409524D01*
X56213095Y-36171429D02*
X56175000Y-36209524D01*
X56136905Y-36285715D01*
X56136905Y-36476191D01*
X56175000Y-36552381D01*
X56213095Y-36590477D01*
X56289286Y-36628572D01*
X56365476Y-36628572D01*
X56479762Y-36590477D01*
X56936905Y-36133334D01*
X56936905Y-36628572D01*
X76686905Y-30409524D02*
X75886905Y-30409524D01*
X75886905Y-30600000D01*
X75925000Y-30714286D01*
X76001190Y-30790477D01*
X76077381Y-30828572D01*
X76229762Y-30866667D01*
X76344048Y-30866667D01*
X76496429Y-30828572D01*
X76572619Y-30790477D01*
X76648810Y-30714286D01*
X76686905Y-30600000D01*
X76686905Y-30409524D01*
X75886905Y-31133334D02*
X75886905Y-31628572D01*
X76191667Y-31361905D01*
X76191667Y-31476191D01*
X76229762Y-31552381D01*
X76267857Y-31590477D01*
X76344048Y-31628572D01*
X76534524Y-31628572D01*
X76610714Y-31590477D01*
X76648810Y-31552381D01*
X76686905Y-31476191D01*
X76686905Y-31247619D01*
X76648810Y-31171429D01*
X76610714Y-31133334D01*
X96436905Y-27409524D02*
X95636905Y-27409524D01*
X95636905Y-27600000D01*
X95675000Y-27714286D01*
X95751190Y-27790477D01*
X95827381Y-27828572D01*
X95979762Y-27866667D01*
X96094048Y-27866667D01*
X96246429Y-27828572D01*
X96322619Y-27790477D01*
X96398810Y-27714286D01*
X96436905Y-27600000D01*
X96436905Y-27409524D01*
X95903571Y-28552381D02*
X96436905Y-28552381D01*
X95598810Y-28361905D02*
X96170238Y-28171429D01*
X96170238Y-28666667D01*
X116186905Y-30409524D02*
X115386905Y-30409524D01*
X115386905Y-30600000D01*
X115425000Y-30714286D01*
X115501190Y-30790477D01*
X115577381Y-30828572D01*
X115729762Y-30866667D01*
X115844048Y-30866667D01*
X115996429Y-30828572D01*
X116072619Y-30790477D01*
X116148810Y-30714286D01*
X116186905Y-30600000D01*
X116186905Y-30409524D01*
X115386905Y-31590477D02*
X115386905Y-31209524D01*
X115767857Y-31171429D01*
X115729762Y-31209524D01*
X115691667Y-31285715D01*
X115691667Y-31476191D01*
X115729762Y-31552381D01*
X115767857Y-31590477D01*
X115844048Y-31628572D01*
X116034524Y-31628572D01*
X116110714Y-31590477D01*
X116148810Y-31552381D01*
X116186905Y-31476191D01*
X116186905Y-31285715D01*
X116148810Y-31209524D01*
X116110714Y-31171429D01*
X135936905Y-32909524D02*
X135136905Y-32909524D01*
X135136905Y-33100000D01*
X135175000Y-33214286D01*
X135251190Y-33290477D01*
X135327381Y-33328572D01*
X135479762Y-33366667D01*
X135594048Y-33366667D01*
X135746429Y-33328572D01*
X135822619Y-33290477D01*
X135898810Y-33214286D01*
X135936905Y-33100000D01*
X135936905Y-32909524D01*
X135136905Y-34052381D02*
X135136905Y-33900000D01*
X135175000Y-33823810D01*
X135213095Y-33785715D01*
X135327381Y-33709524D01*
X135479762Y-33671429D01*
X135784524Y-33671429D01*
X135860714Y-33709524D01*
X135898810Y-33747619D01*
X135936905Y-33823810D01*
X135936905Y-33976191D01*
X135898810Y-34052381D01*
X135860714Y-34090477D01*
X135784524Y-34128572D01*
X135594048Y-34128572D01*
X135517857Y-34090477D01*
X135479762Y-34052381D01*
X135441667Y-33976191D01*
X135441667Y-33823810D01*
X135479762Y-33747619D01*
X135517857Y-33709524D01*
X135594048Y-33671429D01*
X37186905Y-54909524D02*
X36386905Y-54909524D01*
X36386905Y-55100000D01*
X36425000Y-55214286D01*
X36501190Y-55290477D01*
X36577381Y-55328572D01*
X36729762Y-55366667D01*
X36844048Y-55366667D01*
X36996429Y-55328572D01*
X37072619Y-55290477D01*
X37148810Y-55214286D01*
X37186905Y-55100000D01*
X37186905Y-54909524D01*
X36386905Y-55633334D02*
X36386905Y-56166667D01*
X37186905Y-55823810D01*
X56936905Y-54909524D02*
X56136905Y-54909524D01*
X56136905Y-55100000D01*
X56175000Y-55214286D01*
X56251190Y-55290477D01*
X56327381Y-55328572D01*
X56479762Y-55366667D01*
X56594048Y-55366667D01*
X56746429Y-55328572D01*
X56822619Y-55290477D01*
X56898810Y-55214286D01*
X56936905Y-55100000D01*
X56936905Y-54909524D01*
X56479762Y-55823810D02*
X56441667Y-55747619D01*
X56403571Y-55709524D01*
X56327381Y-55671429D01*
X56289286Y-55671429D01*
X56213095Y-55709524D01*
X56175000Y-55747619D01*
X56136905Y-55823810D01*
X56136905Y-55976191D01*
X56175000Y-56052381D01*
X56213095Y-56090477D01*
X56289286Y-56128572D01*
X56327381Y-56128572D01*
X56403571Y-56090477D01*
X56441667Y-56052381D01*
X56479762Y-55976191D01*
X56479762Y-55823810D01*
X56517857Y-55747619D01*
X56555952Y-55709524D01*
X56632143Y-55671429D01*
X56784524Y-55671429D01*
X56860714Y-55709524D01*
X56898810Y-55747619D01*
X56936905Y-55823810D01*
X56936905Y-55976191D01*
X56898810Y-56052381D01*
X56860714Y-56090477D01*
X56784524Y-56128572D01*
X56632143Y-56128572D01*
X56555952Y-56090477D01*
X56517857Y-56052381D01*
X56479762Y-55976191D01*
X76686905Y-49909524D02*
X75886905Y-49909524D01*
X75886905Y-50100000D01*
X75925000Y-50214286D01*
X76001190Y-50290477D01*
X76077381Y-50328572D01*
X76229762Y-50366667D01*
X76344048Y-50366667D01*
X76496429Y-50328572D01*
X76572619Y-50290477D01*
X76648810Y-50214286D01*
X76686905Y-50100000D01*
X76686905Y-49909524D01*
X76686905Y-50747619D02*
X76686905Y-50900000D01*
X76648810Y-50976191D01*
X76610714Y-51014286D01*
X76496429Y-51090477D01*
X76344048Y-51128572D01*
X76039286Y-51128572D01*
X75963095Y-51090477D01*
X75925000Y-51052381D01*
X75886905Y-50976191D01*
X75886905Y-50823810D01*
X75925000Y-50747619D01*
X75963095Y-50709524D01*
X76039286Y-50671429D01*
X76229762Y-50671429D01*
X76305952Y-50709524D01*
X76344048Y-50747619D01*
X76382143Y-50823810D01*
X76382143Y-50976191D01*
X76344048Y-51052381D01*
X76305952Y-51090477D01*
X76229762Y-51128572D01*
X96436905Y-47028571D02*
X95636905Y-47028571D01*
X95636905Y-47219047D01*
X95675000Y-47333333D01*
X95751190Y-47409524D01*
X95827381Y-47447619D01*
X95979762Y-47485714D01*
X96094048Y-47485714D01*
X96246429Y-47447619D01*
X96322619Y-47409524D01*
X96398810Y-47333333D01*
X96436905Y-47219047D01*
X96436905Y-47028571D01*
X96436905Y-48247619D02*
X96436905Y-47790476D01*
X96436905Y-48019047D02*
X95636905Y-48019047D01*
X95751190Y-47942857D01*
X95827381Y-47866666D01*
X95865476Y-47790476D01*
X95636905Y-48742857D02*
X95636905Y-48819048D01*
X95675000Y-48895238D01*
X95713095Y-48933333D01*
X95789286Y-48971429D01*
X95941667Y-49009524D01*
X96132143Y-49009524D01*
X96284524Y-48971429D01*
X96360714Y-48933333D01*
X96398810Y-48895238D01*
X96436905Y-48819048D01*
X96436905Y-48742857D01*
X96398810Y-48666667D01*
X96360714Y-48628571D01*
X96284524Y-48590476D01*
X96132143Y-48552381D01*
X95941667Y-48552381D01*
X95789286Y-48590476D01*
X95713095Y-48628571D01*
X95675000Y-48666667D01*
X95636905Y-48742857D01*
X116186905Y-49528571D02*
X115386905Y-49528571D01*
X115386905Y-49719047D01*
X115425000Y-49833333D01*
X115501190Y-49909524D01*
X115577381Y-49947619D01*
X115729762Y-49985714D01*
X115844048Y-49985714D01*
X115996429Y-49947619D01*
X116072619Y-49909524D01*
X116148810Y-49833333D01*
X116186905Y-49719047D01*
X116186905Y-49528571D01*
X116186905Y-50747619D02*
X116186905Y-50290476D01*
X116186905Y-50519047D02*
X115386905Y-50519047D01*
X115501190Y-50442857D01*
X115577381Y-50366666D01*
X115615476Y-50290476D01*
X116186905Y-51509524D02*
X116186905Y-51052381D01*
X116186905Y-51280952D02*
X115386905Y-51280952D01*
X115501190Y-51204762D01*
X115577381Y-51128571D01*
X115615476Y-51052381D01*
X135936905Y-52028571D02*
X135136905Y-52028571D01*
X135136905Y-52219047D01*
X135175000Y-52333333D01*
X135251190Y-52409524D01*
X135327381Y-52447619D01*
X135479762Y-52485714D01*
X135594048Y-52485714D01*
X135746429Y-52447619D01*
X135822619Y-52409524D01*
X135898810Y-52333333D01*
X135936905Y-52219047D01*
X135936905Y-52028571D01*
X135936905Y-53247619D02*
X135936905Y-52790476D01*
X135936905Y-53019047D02*
X135136905Y-53019047D01*
X135251190Y-52942857D01*
X135327381Y-52866666D01*
X135365476Y-52790476D01*
X135213095Y-53552381D02*
X135175000Y-53590476D01*
X135136905Y-53666667D01*
X135136905Y-53857143D01*
X135175000Y-53933333D01*
X135213095Y-53971429D01*
X135289286Y-54009524D01*
X135365476Y-54009524D01*
X135479762Y-53971429D01*
X135936905Y-53514286D01*
X135936905Y-54009524D01*
X37186905Y-74528571D02*
X36386905Y-74528571D01*
X36386905Y-74719047D01*
X36425000Y-74833333D01*
X36501190Y-74909524D01*
X36577381Y-74947619D01*
X36729762Y-74985714D01*
X36844048Y-74985714D01*
X36996429Y-74947619D01*
X37072619Y-74909524D01*
X37148810Y-74833333D01*
X37186905Y-74719047D01*
X37186905Y-74528571D01*
X37186905Y-75747619D02*
X37186905Y-75290476D01*
X37186905Y-75519047D02*
X36386905Y-75519047D01*
X36501190Y-75442857D01*
X36577381Y-75366666D01*
X36615476Y-75290476D01*
X36386905Y-76014286D02*
X36386905Y-76509524D01*
X36691667Y-76242857D01*
X36691667Y-76357143D01*
X36729762Y-76433333D01*
X36767857Y-76471429D01*
X36844048Y-76509524D01*
X37034524Y-76509524D01*
X37110714Y-76471429D01*
X37148810Y-76433333D01*
X37186905Y-76357143D01*
X37186905Y-76128571D01*
X37148810Y-76052381D01*
X37110714Y-76014286D01*
X56936905Y-74528571D02*
X56136905Y-74528571D01*
X56136905Y-74719047D01*
X56175000Y-74833333D01*
X56251190Y-74909524D01*
X56327381Y-74947619D01*
X56479762Y-74985714D01*
X56594048Y-74985714D01*
X56746429Y-74947619D01*
X56822619Y-74909524D01*
X56898810Y-74833333D01*
X56936905Y-74719047D01*
X56936905Y-74528571D01*
X56936905Y-75747619D02*
X56936905Y-75290476D01*
X56936905Y-75519047D02*
X56136905Y-75519047D01*
X56251190Y-75442857D01*
X56327381Y-75366666D01*
X56365476Y-75290476D01*
X56403571Y-76433333D02*
X56936905Y-76433333D01*
X56098810Y-76242857D02*
X56670238Y-76052381D01*
X56670238Y-76547619D01*
X76686905Y-69528571D02*
X75886905Y-69528571D01*
X75886905Y-69719047D01*
X75925000Y-69833333D01*
X76001190Y-69909524D01*
X76077381Y-69947619D01*
X76229762Y-69985714D01*
X76344048Y-69985714D01*
X76496429Y-69947619D01*
X76572619Y-69909524D01*
X76648810Y-69833333D01*
X76686905Y-69719047D01*
X76686905Y-69528571D01*
X76686905Y-70747619D02*
X76686905Y-70290476D01*
X76686905Y-70519047D02*
X75886905Y-70519047D01*
X76001190Y-70442857D01*
X76077381Y-70366666D01*
X76115476Y-70290476D01*
X75886905Y-71471429D02*
X75886905Y-71090476D01*
X76267857Y-71052381D01*
X76229762Y-71090476D01*
X76191667Y-71166667D01*
X76191667Y-71357143D01*
X76229762Y-71433333D01*
X76267857Y-71471429D01*
X76344048Y-71509524D01*
X76534524Y-71509524D01*
X76610714Y-71471429D01*
X76648810Y-71433333D01*
X76686905Y-71357143D01*
X76686905Y-71166667D01*
X76648810Y-71090476D01*
X76610714Y-71052381D01*
X96436905Y-67028571D02*
X95636905Y-67028571D01*
X95636905Y-67219047D01*
X95675000Y-67333333D01*
X95751190Y-67409524D01*
X95827381Y-67447619D01*
X95979762Y-67485714D01*
X96094048Y-67485714D01*
X96246429Y-67447619D01*
X96322619Y-67409524D01*
X96398810Y-67333333D01*
X96436905Y-67219047D01*
X96436905Y-67028571D01*
X96436905Y-68247619D02*
X96436905Y-67790476D01*
X96436905Y-68019047D02*
X95636905Y-68019047D01*
X95751190Y-67942857D01*
X95827381Y-67866666D01*
X95865476Y-67790476D01*
X95636905Y-68933333D02*
X95636905Y-68780952D01*
X95675000Y-68704762D01*
X95713095Y-68666667D01*
X95827381Y-68590476D01*
X95979762Y-68552381D01*
X96284524Y-68552381D01*
X96360714Y-68590476D01*
X96398810Y-68628571D01*
X96436905Y-68704762D01*
X96436905Y-68857143D01*
X96398810Y-68933333D01*
X96360714Y-68971429D01*
X96284524Y-69009524D01*
X96094048Y-69009524D01*
X96017857Y-68971429D01*
X95979762Y-68933333D01*
X95941667Y-68857143D01*
X95941667Y-68704762D01*
X95979762Y-68628571D01*
X96017857Y-68590476D01*
X96094048Y-68552381D01*
X116186905Y-69528571D02*
X115386905Y-69528571D01*
X115386905Y-69719047D01*
X115425000Y-69833333D01*
X115501190Y-69909524D01*
X115577381Y-69947619D01*
X115729762Y-69985714D01*
X115844048Y-69985714D01*
X115996429Y-69947619D01*
X116072619Y-69909524D01*
X116148810Y-69833333D01*
X116186905Y-69719047D01*
X116186905Y-69528571D01*
X116186905Y-70747619D02*
X116186905Y-70290476D01*
X116186905Y-70519047D02*
X115386905Y-70519047D01*
X115501190Y-70442857D01*
X115577381Y-70366666D01*
X115615476Y-70290476D01*
X115386905Y-71014286D02*
X115386905Y-71547619D01*
X116186905Y-71204762D01*
X135936905Y-72028571D02*
X135136905Y-72028571D01*
X135136905Y-72219047D01*
X135175000Y-72333333D01*
X135251190Y-72409524D01*
X135327381Y-72447619D01*
X135479762Y-72485714D01*
X135594048Y-72485714D01*
X135746429Y-72447619D01*
X135822619Y-72409524D01*
X135898810Y-72333333D01*
X135936905Y-72219047D01*
X135936905Y-72028571D01*
X135936905Y-73247619D02*
X135936905Y-72790476D01*
X135936905Y-73019047D02*
X135136905Y-73019047D01*
X135251190Y-72942857D01*
X135327381Y-72866666D01*
X135365476Y-72790476D01*
X135479762Y-73704762D02*
X135441667Y-73628571D01*
X135403571Y-73590476D01*
X135327381Y-73552381D01*
X135289286Y-73552381D01*
X135213095Y-73590476D01*
X135175000Y-73628571D01*
X135136905Y-73704762D01*
X135136905Y-73857143D01*
X135175000Y-73933333D01*
X135213095Y-73971429D01*
X135289286Y-74009524D01*
X135327381Y-74009524D01*
X135403571Y-73971429D01*
X135441667Y-73933333D01*
X135479762Y-73857143D01*
X135479762Y-73704762D01*
X135517857Y-73628571D01*
X135555952Y-73590476D01*
X135632143Y-73552381D01*
X135784524Y-73552381D01*
X135860714Y-73590476D01*
X135898810Y-73628571D01*
X135936905Y-73704762D01*
X135936905Y-73857143D01*
X135898810Y-73933333D01*
X135860714Y-73971429D01*
X135784524Y-74009524D01*
X135632143Y-74009524D01*
X135555952Y-73971429D01*
X135517857Y-73933333D01*
X135479762Y-73857143D01*
X116186905Y-89528571D02*
X115386905Y-89528571D01*
X115386905Y-89719047D01*
X115425000Y-89833333D01*
X115501190Y-89909524D01*
X115577381Y-89947619D01*
X115729762Y-89985714D01*
X115844048Y-89985714D01*
X115996429Y-89947619D01*
X116072619Y-89909524D01*
X116148810Y-89833333D01*
X116186905Y-89719047D01*
X116186905Y-89528571D01*
X116186905Y-90747619D02*
X116186905Y-90290476D01*
X116186905Y-90519047D02*
X115386905Y-90519047D01*
X115501190Y-90442857D01*
X115577381Y-90366666D01*
X115615476Y-90290476D01*
X116186905Y-91128571D02*
X116186905Y-91280952D01*
X116148810Y-91357143D01*
X116110714Y-91395238D01*
X115996429Y-91471429D01*
X115844048Y-91509524D01*
X115539286Y-91509524D01*
X115463095Y-91471429D01*
X115425000Y-91433333D01*
X115386905Y-91357143D01*
X115386905Y-91204762D01*
X115425000Y-91128571D01*
X115463095Y-91090476D01*
X115539286Y-91052381D01*
X115729762Y-91052381D01*
X115805952Y-91090476D01*
X115844048Y-91128571D01*
X115882143Y-91204762D01*
X115882143Y-91357143D01*
X115844048Y-91433333D01*
X115805952Y-91471429D01*
X115729762Y-91509524D01*
X135936905Y-91528571D02*
X135136905Y-91528571D01*
X135136905Y-91719047D01*
X135175000Y-91833333D01*
X135251190Y-91909524D01*
X135327381Y-91947619D01*
X135479762Y-91985714D01*
X135594048Y-91985714D01*
X135746429Y-91947619D01*
X135822619Y-91909524D01*
X135898810Y-91833333D01*
X135936905Y-91719047D01*
X135936905Y-91528571D01*
X135213095Y-92290476D02*
X135175000Y-92328571D01*
X135136905Y-92404762D01*
X135136905Y-92595238D01*
X135175000Y-92671428D01*
X135213095Y-92709524D01*
X135289286Y-92747619D01*
X135365476Y-92747619D01*
X135479762Y-92709524D01*
X135936905Y-92252381D01*
X135936905Y-92747619D01*
X135136905Y-93242857D02*
X135136905Y-93319048D01*
X135175000Y-93395238D01*
X135213095Y-93433333D01*
X135289286Y-93471429D01*
X135441667Y-93509524D01*
X135632143Y-93509524D01*
X135784524Y-93471429D01*
X135860714Y-93433333D01*
X135898810Y-93395238D01*
X135936905Y-93319048D01*
X135936905Y-93242857D01*
X135898810Y-93166667D01*
X135860714Y-93128571D01*
X135784524Y-93090476D01*
X135632143Y-93052381D01*
X135441667Y-93052381D01*
X135289286Y-93090476D01*
X135213095Y-93128571D01*
X135175000Y-93166667D01*
X135136905Y-93242857D01*
X156686905Y-106528571D02*
X155886905Y-106528571D01*
X155886905Y-106719047D01*
X155925000Y-106833333D01*
X156001190Y-106909524D01*
X156077381Y-106947619D01*
X156229762Y-106985714D01*
X156344048Y-106985714D01*
X156496429Y-106947619D01*
X156572619Y-106909524D01*
X156648810Y-106833333D01*
X156686905Y-106719047D01*
X156686905Y-106528571D01*
X155963095Y-107290476D02*
X155925000Y-107328571D01*
X155886905Y-107404762D01*
X155886905Y-107595238D01*
X155925000Y-107671428D01*
X155963095Y-107709524D01*
X156039286Y-107747619D01*
X156115476Y-107747619D01*
X156229762Y-107709524D01*
X156686905Y-107252381D01*
X156686905Y-107747619D01*
X156686905Y-108509524D02*
X156686905Y-108052381D01*
X156686905Y-108280952D02*
X155886905Y-108280952D01*
X156001190Y-108204762D01*
X156077381Y-108128571D01*
X156115476Y-108052381D01*
X158342381Y-89666667D02*
X159056667Y-89666667D01*
X159199524Y-89619047D01*
X159294762Y-89523809D01*
X159342381Y-89380952D01*
X159342381Y-89285714D01*
X158437619Y-90095238D02*
X158390000Y-90142857D01*
X158342381Y-90238095D01*
X158342381Y-90476191D01*
X158390000Y-90571429D01*
X158437619Y-90619048D01*
X158532857Y-90666667D01*
X158628095Y-90666667D01*
X158770952Y-90619048D01*
X159342381Y-90047619D01*
X159342381Y-90666667D01*
D13*
X29988095Y-41520381D02*
X29988095Y-40520381D01*
X29416666Y-41520381D02*
X29845238Y-40948952D01*
X29416666Y-40520381D02*
X29988095Y-41091810D01*
X28464285Y-41520381D02*
X29035714Y-41520381D01*
X28750000Y-41520381D02*
X28750000Y-40520381D01*
X28845238Y-40663238D01*
X28940476Y-40758476D01*
X29035714Y-40806095D01*
X49738095Y-41520381D02*
X49738095Y-40520381D01*
X49166666Y-41520381D02*
X49595238Y-40948952D01*
X49166666Y-40520381D02*
X49738095Y-41091810D01*
X48785714Y-40615619D02*
X48738095Y-40568000D01*
X48642857Y-40520381D01*
X48404761Y-40520381D01*
X48309523Y-40568000D01*
X48261904Y-40615619D01*
X48214285Y-40710857D01*
X48214285Y-40806095D01*
X48261904Y-40948952D01*
X48833333Y-41520381D01*
X48214285Y-41520381D01*
X69488095Y-36520381D02*
X69488095Y-35520381D01*
X68916666Y-36520381D02*
X69345238Y-35948952D01*
X68916666Y-35520381D02*
X69488095Y-36091810D01*
X68583333Y-35520381D02*
X67964285Y-35520381D01*
X68297619Y-35901333D01*
X68154761Y-35901333D01*
X68059523Y-35948952D01*
X68011904Y-35996571D01*
X67964285Y-36091810D01*
X67964285Y-36329905D01*
X68011904Y-36425143D01*
X68059523Y-36472762D01*
X68154761Y-36520381D01*
X68440476Y-36520381D01*
X68535714Y-36472762D01*
X68583333Y-36425143D01*
X89238095Y-33520381D02*
X89238095Y-32520381D01*
X88666666Y-33520381D02*
X89095238Y-32948952D01*
X88666666Y-32520381D02*
X89238095Y-33091810D01*
X87809523Y-32853714D02*
X87809523Y-33520381D01*
X88047619Y-32472762D02*
X88285714Y-33187048D01*
X87666666Y-33187048D01*
X108988095Y-36520381D02*
X108988095Y-35520381D01*
X108416666Y-36520381D02*
X108845238Y-35948952D01*
X108416666Y-35520381D02*
X108988095Y-36091810D01*
X107511904Y-35520381D02*
X107988095Y-35520381D01*
X108035714Y-35996571D01*
X107988095Y-35948952D01*
X107892857Y-35901333D01*
X107654761Y-35901333D01*
X107559523Y-35948952D01*
X107511904Y-35996571D01*
X107464285Y-36091810D01*
X107464285Y-36329905D01*
X107511904Y-36425143D01*
X107559523Y-36472762D01*
X107654761Y-36520381D01*
X107892857Y-36520381D01*
X107988095Y-36472762D01*
X108035714Y-36425143D01*
X128738095Y-39020381D02*
X128738095Y-38020381D01*
X128166666Y-39020381D02*
X128595238Y-38448952D01*
X128166666Y-38020381D02*
X128738095Y-38591810D01*
X127309523Y-38020381D02*
X127500000Y-38020381D01*
X127595238Y-38068000D01*
X127642857Y-38115619D01*
X127738095Y-38258476D01*
X127785714Y-38448952D01*
X127785714Y-38829905D01*
X127738095Y-38925143D01*
X127690476Y-38972762D01*
X127595238Y-39020381D01*
X127404761Y-39020381D01*
X127309523Y-38972762D01*
X127261904Y-38925143D01*
X127214285Y-38829905D01*
X127214285Y-38591810D01*
X127261904Y-38496571D01*
X127309523Y-38448952D01*
X127404761Y-38401333D01*
X127595238Y-38401333D01*
X127690476Y-38448952D01*
X127738095Y-38496571D01*
X127785714Y-38591810D01*
X29988095Y-61270381D02*
X29988095Y-60270381D01*
X29416666Y-61270381D02*
X29845238Y-60698952D01*
X29416666Y-60270381D02*
X29988095Y-60841810D01*
X29083333Y-60270381D02*
X28416666Y-60270381D01*
X28845238Y-61270381D01*
X49738095Y-61270381D02*
X49738095Y-60270381D01*
X49166666Y-61270381D02*
X49595238Y-60698952D01*
X49166666Y-60270381D02*
X49738095Y-60841810D01*
X48595238Y-60698952D02*
X48690476Y-60651333D01*
X48738095Y-60603714D01*
X48785714Y-60508476D01*
X48785714Y-60460857D01*
X48738095Y-60365619D01*
X48690476Y-60318000D01*
X48595238Y-60270381D01*
X48404761Y-60270381D01*
X48309523Y-60318000D01*
X48261904Y-60365619D01*
X48214285Y-60460857D01*
X48214285Y-60508476D01*
X48261904Y-60603714D01*
X48309523Y-60651333D01*
X48404761Y-60698952D01*
X48595238Y-60698952D01*
X48690476Y-60746571D01*
X48738095Y-60794190D01*
X48785714Y-60889429D01*
X48785714Y-61079905D01*
X48738095Y-61175143D01*
X48690476Y-61222762D01*
X48595238Y-61270381D01*
X48404761Y-61270381D01*
X48309523Y-61222762D01*
X48261904Y-61175143D01*
X48214285Y-61079905D01*
X48214285Y-60889429D01*
X48261904Y-60794190D01*
X48309523Y-60746571D01*
X48404761Y-60698952D01*
X69488095Y-56270381D02*
X69488095Y-55270381D01*
X68916666Y-56270381D02*
X69345238Y-55698952D01*
X68916666Y-55270381D02*
X69488095Y-55841810D01*
X68440476Y-56270381D02*
X68250000Y-56270381D01*
X68154761Y-56222762D01*
X68107142Y-56175143D01*
X68011904Y-56032286D01*
X67964285Y-55841810D01*
X67964285Y-55460857D01*
X68011904Y-55365619D01*
X68059523Y-55318000D01*
X68154761Y-55270381D01*
X68345238Y-55270381D01*
X68440476Y-55318000D01*
X68488095Y-55365619D01*
X68535714Y-55460857D01*
X68535714Y-55698952D01*
X68488095Y-55794190D01*
X68440476Y-55841810D01*
X68345238Y-55889429D01*
X68154761Y-55889429D01*
X68059523Y-55841810D01*
X68011904Y-55794190D01*
X67964285Y-55698952D01*
X89714286Y-53770381D02*
X89714286Y-52770381D01*
X89142857Y-53770381D02*
X89571429Y-53198952D01*
X89142857Y-52770381D02*
X89714286Y-53341810D01*
X88190476Y-53770381D02*
X88761905Y-53770381D01*
X88476191Y-53770381D02*
X88476191Y-52770381D01*
X88571429Y-52913238D01*
X88666667Y-53008476D01*
X88761905Y-53056095D01*
X87571429Y-52770381D02*
X87476190Y-52770381D01*
X87380952Y-52818000D01*
X87333333Y-52865619D01*
X87285714Y-52960857D01*
X87238095Y-53151333D01*
X87238095Y-53389429D01*
X87285714Y-53579905D01*
X87333333Y-53675143D01*
X87380952Y-53722762D01*
X87476190Y-53770381D01*
X87571429Y-53770381D01*
X87666667Y-53722762D01*
X87714286Y-53675143D01*
X87761905Y-53579905D01*
X87809524Y-53389429D01*
X87809524Y-53151333D01*
X87761905Y-52960857D01*
X87714286Y-52865619D01*
X87666667Y-52818000D01*
X87571429Y-52770381D01*
X109464286Y-56270381D02*
X109464286Y-55270381D01*
X108892857Y-56270381D02*
X109321429Y-55698952D01*
X108892857Y-55270381D02*
X109464286Y-55841810D01*
X107940476Y-56270381D02*
X108511905Y-56270381D01*
X108226191Y-56270381D02*
X108226191Y-55270381D01*
X108321429Y-55413238D01*
X108416667Y-55508476D01*
X108511905Y-55556095D01*
X106988095Y-56270381D02*
X107559524Y-56270381D01*
X107273810Y-56270381D02*
X107273810Y-55270381D01*
X107369048Y-55413238D01*
X107464286Y-55508476D01*
X107559524Y-55556095D01*
X129214286Y-58770381D02*
X129214286Y-57770381D01*
X128642857Y-58770381D02*
X129071429Y-58198952D01*
X128642857Y-57770381D02*
X129214286Y-58341810D01*
X127690476Y-58770381D02*
X128261905Y-58770381D01*
X127976191Y-58770381D02*
X127976191Y-57770381D01*
X128071429Y-57913238D01*
X128166667Y-58008476D01*
X128261905Y-58056095D01*
X127309524Y-57865619D02*
X127261905Y-57818000D01*
X127166667Y-57770381D01*
X126928571Y-57770381D01*
X126833333Y-57818000D01*
X126785714Y-57865619D01*
X126738095Y-57960857D01*
X126738095Y-58056095D01*
X126785714Y-58198952D01*
X127357143Y-58770381D01*
X126738095Y-58770381D01*
X50214286Y-81020381D02*
X50214286Y-80020381D01*
X49642857Y-81020381D02*
X50071429Y-80448952D01*
X49642857Y-80020381D02*
X50214286Y-80591810D01*
X48690476Y-81020381D02*
X49261905Y-81020381D01*
X48976191Y-81020381D02*
X48976191Y-80020381D01*
X49071429Y-80163238D01*
X49166667Y-80258476D01*
X49261905Y-80306095D01*
X47833333Y-80353714D02*
X47833333Y-81020381D01*
X48071429Y-79972762D02*
X48309524Y-80687048D01*
X47690476Y-80687048D01*
X69964286Y-76020381D02*
X69964286Y-75020381D01*
X69392857Y-76020381D02*
X69821429Y-75448952D01*
X69392857Y-75020381D02*
X69964286Y-75591810D01*
X68440476Y-76020381D02*
X69011905Y-76020381D01*
X68726191Y-76020381D02*
X68726191Y-75020381D01*
X68821429Y-75163238D01*
X68916667Y-75258476D01*
X69011905Y-75306095D01*
X67535714Y-75020381D02*
X68011905Y-75020381D01*
X68059524Y-75496571D01*
X68011905Y-75448952D01*
X67916667Y-75401333D01*
X67678571Y-75401333D01*
X67583333Y-75448952D01*
X67535714Y-75496571D01*
X67488095Y-75591810D01*
X67488095Y-75829905D01*
X67535714Y-75925143D01*
X67583333Y-75972762D01*
X67678571Y-76020381D01*
X67916667Y-76020381D01*
X68011905Y-75972762D01*
X68059524Y-75925143D01*
X89714286Y-73520381D02*
X89714286Y-72520381D01*
X89142857Y-73520381D02*
X89571429Y-72948952D01*
X89142857Y-72520381D02*
X89714286Y-73091810D01*
X88190476Y-73520381D02*
X88761905Y-73520381D01*
X88476191Y-73520381D02*
X88476191Y-72520381D01*
X88571429Y-72663238D01*
X88666667Y-72758476D01*
X88761905Y-72806095D01*
X87333333Y-72520381D02*
X87523810Y-72520381D01*
X87619048Y-72568000D01*
X87666667Y-72615619D01*
X87761905Y-72758476D01*
X87809524Y-72948952D01*
X87809524Y-73329905D01*
X87761905Y-73425143D01*
X87714286Y-73472762D01*
X87619048Y-73520381D01*
X87428571Y-73520381D01*
X87333333Y-73472762D01*
X87285714Y-73425143D01*
X87238095Y-73329905D01*
X87238095Y-73091810D01*
X87285714Y-72996571D01*
X87333333Y-72948952D01*
X87428571Y-72901333D01*
X87619048Y-72901333D01*
X87714286Y-72948952D01*
X87761905Y-72996571D01*
X87809524Y-73091810D01*
X109464286Y-76020381D02*
X109464286Y-75020381D01*
X108892857Y-76020381D02*
X109321429Y-75448952D01*
X108892857Y-75020381D02*
X109464286Y-75591810D01*
X107940476Y-76020381D02*
X108511905Y-76020381D01*
X108226191Y-76020381D02*
X108226191Y-75020381D01*
X108321429Y-75163238D01*
X108416667Y-75258476D01*
X108511905Y-75306095D01*
X107607143Y-75020381D02*
X106940476Y-75020381D01*
X107369048Y-76020381D01*
X129214286Y-78520381D02*
X129214286Y-77520381D01*
X128642857Y-78520381D02*
X129071429Y-77948952D01*
X128642857Y-77520381D02*
X129214286Y-78091810D01*
X127690476Y-78520381D02*
X128261905Y-78520381D01*
X127976191Y-78520381D02*
X127976191Y-77520381D01*
X128071429Y-77663238D01*
X128166667Y-77758476D01*
X128261905Y-77806095D01*
X127119048Y-77948952D02*
X127214286Y-77901333D01*
X127261905Y-77853714D01*
X127309524Y-77758476D01*
X127309524Y-77710857D01*
X127261905Y-77615619D01*
X127214286Y-77568000D01*
X127119048Y-77520381D01*
X126928571Y-77520381D01*
X126833333Y-77568000D01*
X126785714Y-77615619D01*
X126738095Y-77710857D01*
X126738095Y-77758476D01*
X126785714Y-77853714D01*
X126833333Y-77901333D01*
X126928571Y-77948952D01*
X127119048Y-77948952D01*
X127214286Y-77996571D01*
X127261905Y-78044190D01*
X127309524Y-78139429D01*
X127309524Y-78329905D01*
X127261905Y-78425143D01*
X127214286Y-78472762D01*
X127119048Y-78520381D01*
X126928571Y-78520381D01*
X126833333Y-78472762D01*
X126785714Y-78425143D01*
X126738095Y-78329905D01*
X126738095Y-78139429D01*
X126785714Y-78044190D01*
X126833333Y-77996571D01*
X126928571Y-77948952D01*
X109464286Y-96020381D02*
X109464286Y-95020381D01*
X108892857Y-96020381D02*
X109321429Y-95448952D01*
X108892857Y-95020381D02*
X109464286Y-95591810D01*
X107940476Y-96020381D02*
X108511905Y-96020381D01*
X108226191Y-96020381D02*
X108226191Y-95020381D01*
X108321429Y-95163238D01*
X108416667Y-95258476D01*
X108511905Y-95306095D01*
X107464286Y-96020381D02*
X107273810Y-96020381D01*
X107178571Y-95972762D01*
X107130952Y-95925143D01*
X107035714Y-95782286D01*
X106988095Y-95591810D01*
X106988095Y-95210857D01*
X107035714Y-95115619D01*
X107083333Y-95068000D01*
X107178571Y-95020381D01*
X107369048Y-95020381D01*
X107464286Y-95068000D01*
X107511905Y-95115619D01*
X107559524Y-95210857D01*
X107559524Y-95448952D01*
X107511905Y-95544190D01*
X107464286Y-95591810D01*
X107369048Y-95639429D01*
X107178571Y-95639429D01*
X107083333Y-95591810D01*
X107035714Y-95544190D01*
X106988095Y-95448952D01*
X129214286Y-98270381D02*
X129214286Y-97270381D01*
X128642857Y-98270381D02*
X129071429Y-97698952D01*
X128642857Y-97270381D02*
X129214286Y-97841810D01*
X128261905Y-97365619D02*
X128214286Y-97318000D01*
X128119048Y-97270381D01*
X127880952Y-97270381D01*
X127785714Y-97318000D01*
X127738095Y-97365619D01*
X127690476Y-97460857D01*
X127690476Y-97556095D01*
X127738095Y-97698952D01*
X128309524Y-98270381D01*
X127690476Y-98270381D01*
X127071429Y-97270381D02*
X126976190Y-97270381D01*
X126880952Y-97318000D01*
X126833333Y-97365619D01*
X126785714Y-97460857D01*
X126738095Y-97651333D01*
X126738095Y-97889429D01*
X126785714Y-98079905D01*
X126833333Y-98175143D01*
X126880952Y-98222762D01*
X126976190Y-98270381D01*
X127071429Y-98270381D01*
X127166667Y-98222762D01*
X127214286Y-98175143D01*
X127261905Y-98079905D01*
X127309524Y-97889429D01*
X127309524Y-97651333D01*
X127261905Y-97460857D01*
X127214286Y-97365619D01*
X127166667Y-97318000D01*
X127071429Y-97270381D01*
M02*
