G04 #@! TF.FileFunction,Profile,NP*
%FSLAX46Y46*%
G04 Gerber Fmt 4.6, Leading zero omitted, Abs format (unit mm)*
G04 Created by KiCad (PCBNEW 4.0.7) date Thu Mar 29 21:24:39 2018*
%MOMM*%
%LPD*%
G01*
G04 APERTURE LIST*
%ADD10C,0.100000*%
G04 APERTURE END LIST*
D10*
X12250000Y-100750000D02*
X12250000Y-199000000D01*
X12250000Y-88500000D02*
G75*
G03X17000000Y-93250000I4750000J0D01*
G01*
X17250000Y-19750000D02*
G75*
G03X12250000Y-24750000I0J-5000000D01*
G01*
X171000000Y-196500000D02*
G75*
G02X166000000Y-201500000I-5000000J0D01*
G01*
X166250000Y-128000000D02*
G75*
G02X171000000Y-132750000I0J-4750000D01*
G01*
X12250000Y-100750000D02*
G75*
G02X17250000Y-95750000I5000000J0D01*
G01*
X166000000Y-125500000D02*
G75*
G03X171000000Y-120500000I0J5000000D01*
G01*
X17250000Y-204000000D02*
G75*
G02X12250000Y-199000000I0J5000000D01*
G01*
X171000000Y-22250000D02*
G75*
G03X166000000Y-17250000I-5000000J0D01*
G01*
X92000000Y-123000000D02*
X97000000Y-128000000D01*
X97000000Y-128000000D02*
X161250000Y-128000000D01*
X92000000Y-123000000D02*
X92000000Y-115750000D01*
X92000000Y-115750000D02*
X87000000Y-110750000D01*
X87000000Y-110750000D02*
X53250000Y-110750000D01*
X53250000Y-110750000D02*
X52500000Y-110000000D01*
X52500000Y-110000000D02*
X52500000Y-100750000D01*
X47500000Y-95750000D02*
X52500000Y-100750000D01*
X47500000Y-95750000D02*
X17500000Y-95750000D01*
X17250000Y-95750000D02*
X17500000Y-95750000D01*
X17250000Y-204000000D02*
X57750000Y-204000000D01*
X57750000Y-204000000D02*
X63000000Y-209250000D01*
X63000000Y-209250000D02*
X126500000Y-209250000D01*
X126500000Y-209250000D02*
X134250000Y-201500000D01*
X134250000Y-201500000D02*
X166000000Y-201500000D01*
X171000000Y-196500000D02*
X171000000Y-132750000D01*
X166250000Y-128000000D02*
X161250000Y-128000000D01*
X17000000Y-93250000D02*
X22000000Y-93250000D01*
X12250000Y-24750000D02*
X12250000Y-88500000D01*
X49000000Y-19750000D02*
X17250000Y-19750000D01*
X56750000Y-12000000D02*
X49000000Y-19750000D01*
X120250000Y-12000000D02*
X56750000Y-12000000D01*
X125500000Y-17250000D02*
X120250000Y-12000000D01*
X166000000Y-17250000D02*
X125500000Y-17250000D01*
X171000000Y-120500000D02*
X171000000Y-22250000D01*
X166000000Y-125500000D02*
X165750000Y-125500000D01*
X135750000Y-125500000D02*
X165750000Y-125500000D01*
X135750000Y-125500000D02*
X130750000Y-120500000D01*
X130750000Y-111250000D02*
X130750000Y-120500000D01*
X130000000Y-110500000D02*
X130750000Y-111250000D01*
X96250000Y-110500000D02*
X130000000Y-110500000D01*
X91250000Y-105500000D02*
X96250000Y-110500000D01*
X91250000Y-98250000D02*
X91250000Y-105500000D01*
X86250000Y-93250000D02*
X22000000Y-93250000D01*
X91250000Y-98250000D02*
X86250000Y-93250000D01*
M02*
