G04 #@! TF.FileFunction,Profile,NP*
%FSLAX46Y46*%
G04 Gerber Fmt 4.6, Leading zero omitted, Abs format (unit mm)*
G04 Created by KiCad (PCBNEW 4.0.7) date Tue Mar  6 17:21:56 2018*
%MOMM*%
%LPD*%
G01*
G04 APERTURE LIST*
%ADD10C,0.100000*%
G04 APERTURE END LIST*
D10*
X299000000Y-148750000D02*
X304000000Y-143750000D01*
X304000000Y-143750000D02*
X368250000Y-143750000D01*
X299000000Y-148750000D02*
X299000000Y-156000000D01*
X299000000Y-156000000D02*
X294000000Y-161000000D01*
X294000000Y-161000000D02*
X260250000Y-161000000D01*
X260250000Y-161000000D02*
X259500000Y-161750000D01*
X259500000Y-161750000D02*
X259500000Y-171000000D01*
X254500000Y-176000000D02*
X259500000Y-171000000D01*
X254500000Y-176000000D02*
X224500000Y-176000000D01*
X219250000Y-171000000D02*
X224250000Y-176000000D01*
X224250000Y-176000000D02*
X224500000Y-176000000D01*
X219250000Y-171000000D02*
X219250000Y-72750000D01*
X219250000Y-72750000D02*
X224250000Y-67750000D01*
X224250000Y-67750000D02*
X264750000Y-67750000D01*
X264750000Y-67750000D02*
X270000000Y-62500000D01*
X270000000Y-62500000D02*
X333500000Y-62500000D01*
X333500000Y-62500000D02*
X341250000Y-70250000D01*
X341250000Y-70250000D02*
X373000000Y-70250000D01*
X378000000Y-75250000D02*
X378000000Y-139000000D01*
X378000000Y-139000000D02*
X373250000Y-143750000D01*
X373250000Y-143750000D02*
X368250000Y-143750000D01*
X378000000Y-75250000D02*
X373000000Y-70250000D01*
X51250000Y-75250000D02*
X56250000Y-70250000D01*
X56000000Y-143750000D02*
X61000000Y-143750000D01*
X51250000Y-139000000D02*
X56000000Y-143750000D01*
X51250000Y-75250000D02*
X51250000Y-139000000D01*
X88000000Y-70250000D02*
X56250000Y-70250000D01*
X95750000Y-62500000D02*
X88000000Y-70250000D01*
X159250000Y-62500000D02*
X95750000Y-62500000D01*
X164500000Y-67750000D02*
X159250000Y-62500000D01*
X205000000Y-67750000D02*
X164500000Y-67750000D01*
X210000000Y-72750000D02*
X205000000Y-67750000D01*
X210000000Y-171000000D02*
X210000000Y-72750000D01*
X205000000Y-176000000D02*
X204750000Y-176000000D01*
X210000000Y-171000000D02*
X205000000Y-176000000D01*
X174750000Y-176000000D02*
X204750000Y-176000000D01*
X174750000Y-176000000D02*
X169750000Y-171000000D01*
X169750000Y-161750000D02*
X169750000Y-171000000D01*
X169000000Y-161000000D02*
X169750000Y-161750000D01*
X135250000Y-161000000D02*
X169000000Y-161000000D01*
X130250000Y-156000000D02*
X135250000Y-161000000D01*
X130250000Y-148750000D02*
X130250000Y-156000000D01*
X125250000Y-143750000D02*
X61000000Y-143750000D01*
X130250000Y-148750000D02*
X125250000Y-143750000D01*
M02*
