G04 #@! TF.FileFunction,Legend,Top*
%FSLAX46Y46*%
G04 Gerber Fmt 4.6, Leading zero omitted, Abs format (unit mm)*
G04 Created by KiCad (PCBNEW 4.0.7) date Thu Mar 29 21:24:39 2018*
%MOMM*%
%LPD*%
G01*
G04 APERTURE LIST*
%ADD10C,0.100000*%
%ADD11C,0.300000*%
%ADD12C,0.120000*%
%ADD13C,0.381000*%
%ADD14C,0.200000*%
%ADD15C,0.150000*%
%ADD16C,0.203200*%
G04 APERTURE END LIST*
D10*
D11*
X82928571Y-205928571D02*
X82928571Y-207142857D01*
X82857142Y-207285714D01*
X82785714Y-207357143D01*
X82642857Y-207428571D01*
X82428571Y-207428571D01*
X82285714Y-207357143D01*
X82928571Y-206857143D02*
X82785714Y-206928571D01*
X82500000Y-206928571D01*
X82357142Y-206857143D01*
X82285714Y-206785714D01*
X82214285Y-206642857D01*
X82214285Y-206214286D01*
X82285714Y-206071429D01*
X82357142Y-206000000D01*
X82500000Y-205928571D01*
X82785714Y-205928571D01*
X82928571Y-206000000D01*
X83642857Y-206928571D02*
X83642857Y-205928571D01*
X83642857Y-205428571D02*
X83571428Y-205500000D01*
X83642857Y-205571429D01*
X83714285Y-205500000D01*
X83642857Y-205428571D01*
X83642857Y-205571429D01*
X84142857Y-205928571D02*
X84714286Y-205928571D01*
X84357143Y-205428571D02*
X84357143Y-206714286D01*
X84428571Y-206857143D01*
X84571429Y-206928571D01*
X84714286Y-206928571D01*
X85214286Y-206928571D02*
X85214286Y-205428571D01*
X85857143Y-206928571D02*
X85857143Y-206142857D01*
X85785714Y-206000000D01*
X85642857Y-205928571D01*
X85428572Y-205928571D01*
X85285714Y-206000000D01*
X85214286Y-206071429D01*
X87214286Y-205928571D02*
X87214286Y-206928571D01*
X86571429Y-205928571D02*
X86571429Y-206714286D01*
X86642857Y-206857143D01*
X86785715Y-206928571D01*
X87000000Y-206928571D01*
X87142857Y-206857143D01*
X87214286Y-206785714D01*
X87928572Y-206928571D02*
X87928572Y-205428571D01*
X87928572Y-206000000D02*
X88071429Y-205928571D01*
X88357143Y-205928571D01*
X88500000Y-206000000D01*
X88571429Y-206071429D01*
X88642858Y-206214286D01*
X88642858Y-206642857D01*
X88571429Y-206785714D01*
X88500000Y-206857143D01*
X88357143Y-206928571D01*
X88071429Y-206928571D01*
X87928572Y-206857143D01*
X89285715Y-206785714D02*
X89357143Y-206857143D01*
X89285715Y-206928571D01*
X89214286Y-206857143D01*
X89285715Y-206785714D01*
X89285715Y-206928571D01*
X90642858Y-206857143D02*
X90500001Y-206928571D01*
X90214287Y-206928571D01*
X90071429Y-206857143D01*
X90000001Y-206785714D01*
X89928572Y-206642857D01*
X89928572Y-206214286D01*
X90000001Y-206071429D01*
X90071429Y-206000000D01*
X90214287Y-205928571D01*
X90500001Y-205928571D01*
X90642858Y-206000000D01*
X91500001Y-206928571D02*
X91357143Y-206857143D01*
X91285715Y-206785714D01*
X91214286Y-206642857D01*
X91214286Y-206214286D01*
X91285715Y-206071429D01*
X91357143Y-206000000D01*
X91500001Y-205928571D01*
X91714286Y-205928571D01*
X91857143Y-206000000D01*
X91928572Y-206071429D01*
X92000001Y-206214286D01*
X92000001Y-206642857D01*
X91928572Y-206785714D01*
X91857143Y-206857143D01*
X91714286Y-206928571D01*
X91500001Y-206928571D01*
X92642858Y-206928571D02*
X92642858Y-205928571D01*
X92642858Y-206071429D02*
X92714286Y-206000000D01*
X92857144Y-205928571D01*
X93071429Y-205928571D01*
X93214286Y-206000000D01*
X93285715Y-206142857D01*
X93285715Y-206928571D01*
X93285715Y-206142857D02*
X93357144Y-206000000D01*
X93500001Y-205928571D01*
X93714286Y-205928571D01*
X93857144Y-206000000D01*
X93928572Y-206142857D01*
X93928572Y-206928571D01*
X95714286Y-205357143D02*
X94428572Y-207285714D01*
X96214287Y-205928571D02*
X96214287Y-206928571D01*
X96214287Y-206071429D02*
X96285715Y-206000000D01*
X96428573Y-205928571D01*
X96642858Y-205928571D01*
X96785715Y-206000000D01*
X96857144Y-206142857D01*
X96857144Y-206928571D01*
X98214287Y-205928571D02*
X98214287Y-207142857D01*
X98142858Y-207285714D01*
X98071430Y-207357143D01*
X97928573Y-207428571D01*
X97714287Y-207428571D01*
X97571430Y-207357143D01*
X98214287Y-206857143D02*
X98071430Y-206928571D01*
X97785716Y-206928571D01*
X97642858Y-206857143D01*
X97571430Y-206785714D01*
X97500001Y-206642857D01*
X97500001Y-206214286D01*
X97571430Y-206071429D01*
X97642858Y-206000000D01*
X97785716Y-205928571D01*
X98071430Y-205928571D01*
X98214287Y-206000000D01*
X99142859Y-206928571D02*
X99000001Y-206857143D01*
X98928573Y-206714286D01*
X98928573Y-205428571D01*
X100357144Y-205928571D02*
X100357144Y-207142857D01*
X100285715Y-207285714D01*
X100214287Y-207357143D01*
X100071430Y-207428571D01*
X99857144Y-207428571D01*
X99714287Y-207357143D01*
X100357144Y-206857143D02*
X100214287Y-206928571D01*
X99928573Y-206928571D01*
X99785715Y-206857143D01*
X99714287Y-206785714D01*
X99642858Y-206642857D01*
X99642858Y-206214286D01*
X99714287Y-206071429D01*
X99785715Y-206000000D01*
X99928573Y-205928571D01*
X100214287Y-205928571D01*
X100357144Y-206000000D01*
X100928573Y-205928571D02*
X101714287Y-205928571D01*
X100928573Y-206928571D01*
X101714287Y-206928571D01*
X102142859Y-205928571D02*
X102928573Y-205928571D01*
X102142859Y-206928571D01*
X102928573Y-206928571D01*
X104571430Y-205357143D02*
X103285716Y-207285714D01*
X105714288Y-205928571D02*
X105714288Y-206928571D01*
X105357145Y-205357143D02*
X105000002Y-206428571D01*
X105928574Y-206428571D01*
X106428573Y-205571429D02*
X106500002Y-205500000D01*
X106642859Y-205428571D01*
X107000002Y-205428571D01*
X107142859Y-205500000D01*
X107214288Y-205571429D01*
X107285716Y-205714286D01*
X107285716Y-205857143D01*
X107214288Y-206071429D01*
X106357145Y-206928571D01*
X107285716Y-206928571D01*
D12*
X23370000Y-134500000D02*
X23370000Y-136000000D01*
X23370000Y-136000000D02*
X16110000Y-136000000D01*
X23370000Y-126500000D02*
X16110000Y-126500000D01*
X23370000Y-126500000D02*
X23370000Y-128000000D01*
D13*
X141400000Y-102150000D02*
X143178000Y-102150000D01*
X152322000Y-102150000D02*
X154100000Y-102150000D01*
X154100000Y-102150000D02*
X154100000Y-103928000D01*
X154100000Y-113072000D02*
X154100000Y-114850000D01*
X154100000Y-114850000D02*
X152322000Y-114850000D01*
X143178000Y-114850000D02*
X141400000Y-114850000D01*
X141400000Y-114850000D02*
X141400000Y-113072000D01*
X141400000Y-103928000D02*
X141400000Y-102150000D01*
X22900000Y-69900000D02*
X24678000Y-69900000D01*
X33822000Y-69900000D02*
X35600000Y-69900000D01*
X35600000Y-69900000D02*
X35600000Y-71678000D01*
X35600000Y-80822000D02*
X35600000Y-82600000D01*
X35600000Y-82600000D02*
X33822000Y-82600000D01*
X24678000Y-82600000D02*
X22900000Y-82600000D01*
X22900000Y-82600000D02*
X22900000Y-80822000D01*
X22900000Y-71678000D02*
X22900000Y-69900000D01*
X22900000Y-30400000D02*
X24678000Y-30400000D01*
X33822000Y-30400000D02*
X35600000Y-30400000D01*
X35600000Y-30400000D02*
X35600000Y-32178000D01*
X35600000Y-41322000D02*
X35600000Y-43100000D01*
X35600000Y-43100000D02*
X33822000Y-43100000D01*
X24678000Y-43100000D02*
X22900000Y-43100000D01*
X22900000Y-43100000D02*
X22900000Y-41322000D01*
X22900000Y-32178000D02*
X22900000Y-30400000D01*
X42650000Y-30400000D02*
X44428000Y-30400000D01*
X53572000Y-30400000D02*
X55350000Y-30400000D01*
X55350000Y-30400000D02*
X55350000Y-32178000D01*
X55350000Y-41322000D02*
X55350000Y-43100000D01*
X55350000Y-43100000D02*
X53572000Y-43100000D01*
X44428000Y-43100000D02*
X42650000Y-43100000D01*
X42650000Y-43100000D02*
X42650000Y-41322000D01*
X42650000Y-32178000D02*
X42650000Y-30400000D01*
X62400000Y-25400000D02*
X64178000Y-25400000D01*
X73322000Y-25400000D02*
X75100000Y-25400000D01*
X75100000Y-25400000D02*
X75100000Y-27178000D01*
X75100000Y-36322000D02*
X75100000Y-38100000D01*
X75100000Y-38100000D02*
X73322000Y-38100000D01*
X64178000Y-38100000D02*
X62400000Y-38100000D01*
X62400000Y-38100000D02*
X62400000Y-36322000D01*
X62400000Y-27178000D02*
X62400000Y-25400000D01*
X82150000Y-22400000D02*
X83928000Y-22400000D01*
X93072000Y-22400000D02*
X94850000Y-22400000D01*
X94850000Y-22400000D02*
X94850000Y-24178000D01*
X94850000Y-33322000D02*
X94850000Y-35100000D01*
X94850000Y-35100000D02*
X93072000Y-35100000D01*
X83928000Y-35100000D02*
X82150000Y-35100000D01*
X82150000Y-35100000D02*
X82150000Y-33322000D01*
X82150000Y-24178000D02*
X82150000Y-22400000D01*
X101900000Y-25400000D02*
X103678000Y-25400000D01*
X112822000Y-25400000D02*
X114600000Y-25400000D01*
X114600000Y-25400000D02*
X114600000Y-27178000D01*
X114600000Y-36322000D02*
X114600000Y-38100000D01*
X114600000Y-38100000D02*
X112822000Y-38100000D01*
X103678000Y-38100000D02*
X101900000Y-38100000D01*
X101900000Y-38100000D02*
X101900000Y-36322000D01*
X101900000Y-27178000D02*
X101900000Y-25400000D01*
X121650000Y-27900000D02*
X123428000Y-27900000D01*
X132572000Y-27900000D02*
X134350000Y-27900000D01*
X134350000Y-27900000D02*
X134350000Y-29678000D01*
X134350000Y-38822000D02*
X134350000Y-40600000D01*
X134350000Y-40600000D02*
X132572000Y-40600000D01*
X123428000Y-40600000D02*
X121650000Y-40600000D01*
X121650000Y-40600000D02*
X121650000Y-38822000D01*
X121650000Y-29678000D02*
X121650000Y-27900000D01*
X22900000Y-50150000D02*
X24678000Y-50150000D01*
X33822000Y-50150000D02*
X35600000Y-50150000D01*
X35600000Y-50150000D02*
X35600000Y-51928000D01*
X35600000Y-61072000D02*
X35600000Y-62850000D01*
X35600000Y-62850000D02*
X33822000Y-62850000D01*
X24678000Y-62850000D02*
X22900000Y-62850000D01*
X22900000Y-62850000D02*
X22900000Y-61072000D01*
X22900000Y-51928000D02*
X22900000Y-50150000D01*
X42650000Y-50150000D02*
X44428000Y-50150000D01*
X53572000Y-50150000D02*
X55350000Y-50150000D01*
X55350000Y-50150000D02*
X55350000Y-51928000D01*
X55350000Y-61072000D02*
X55350000Y-62850000D01*
X55350000Y-62850000D02*
X53572000Y-62850000D01*
X44428000Y-62850000D02*
X42650000Y-62850000D01*
X42650000Y-62850000D02*
X42650000Y-61072000D01*
X42650000Y-51928000D02*
X42650000Y-50150000D01*
X62400000Y-45150000D02*
X64178000Y-45150000D01*
X73322000Y-45150000D02*
X75100000Y-45150000D01*
X75100000Y-45150000D02*
X75100000Y-46928000D01*
X75100000Y-56072000D02*
X75100000Y-57850000D01*
X75100000Y-57850000D02*
X73322000Y-57850000D01*
X64178000Y-57850000D02*
X62400000Y-57850000D01*
X62400000Y-57850000D02*
X62400000Y-56072000D01*
X62400000Y-46928000D02*
X62400000Y-45150000D01*
X82150000Y-42650000D02*
X83928000Y-42650000D01*
X93072000Y-42650000D02*
X94850000Y-42650000D01*
X94850000Y-42650000D02*
X94850000Y-44428000D01*
X94850000Y-53572000D02*
X94850000Y-55350000D01*
X94850000Y-55350000D02*
X93072000Y-55350000D01*
X83928000Y-55350000D02*
X82150000Y-55350000D01*
X82150000Y-55350000D02*
X82150000Y-53572000D01*
X82150000Y-44428000D02*
X82150000Y-42650000D01*
X101900000Y-45150000D02*
X103678000Y-45150000D01*
X112822000Y-45150000D02*
X114600000Y-45150000D01*
X114600000Y-45150000D02*
X114600000Y-46928000D01*
X114600000Y-56072000D02*
X114600000Y-57850000D01*
X114600000Y-57850000D02*
X112822000Y-57850000D01*
X103678000Y-57850000D02*
X101900000Y-57850000D01*
X101900000Y-57850000D02*
X101900000Y-56072000D01*
X101900000Y-46928000D02*
X101900000Y-45150000D01*
X121650000Y-47650000D02*
X123428000Y-47650000D01*
X132572000Y-47650000D02*
X134350000Y-47650000D01*
X134350000Y-47650000D02*
X134350000Y-49428000D01*
X134350000Y-58572000D02*
X134350000Y-60350000D01*
X134350000Y-60350000D02*
X132572000Y-60350000D01*
X123428000Y-60350000D02*
X121650000Y-60350000D01*
X121650000Y-60350000D02*
X121650000Y-58572000D01*
X121650000Y-49428000D02*
X121650000Y-47650000D01*
X42650000Y-69900000D02*
X44428000Y-69900000D01*
X53572000Y-69900000D02*
X55350000Y-69900000D01*
X55350000Y-69900000D02*
X55350000Y-71678000D01*
X55350000Y-80822000D02*
X55350000Y-82600000D01*
X55350000Y-82600000D02*
X53572000Y-82600000D01*
X44428000Y-82600000D02*
X42650000Y-82600000D01*
X42650000Y-82600000D02*
X42650000Y-80822000D01*
X42650000Y-71678000D02*
X42650000Y-69900000D01*
X62400000Y-64900000D02*
X64178000Y-64900000D01*
X73322000Y-64900000D02*
X75100000Y-64900000D01*
X75100000Y-64900000D02*
X75100000Y-66678000D01*
X75100000Y-75822000D02*
X75100000Y-77600000D01*
X75100000Y-77600000D02*
X73322000Y-77600000D01*
X64178000Y-77600000D02*
X62400000Y-77600000D01*
X62400000Y-77600000D02*
X62400000Y-75822000D01*
X62400000Y-66678000D02*
X62400000Y-64900000D01*
X82150000Y-62400000D02*
X83928000Y-62400000D01*
X93072000Y-62400000D02*
X94850000Y-62400000D01*
X94850000Y-62400000D02*
X94850000Y-64178000D01*
X94850000Y-73322000D02*
X94850000Y-75100000D01*
X94850000Y-75100000D02*
X93072000Y-75100000D01*
X83928000Y-75100000D02*
X82150000Y-75100000D01*
X82150000Y-75100000D02*
X82150000Y-73322000D01*
X82150000Y-64178000D02*
X82150000Y-62400000D01*
X101900000Y-64900000D02*
X103678000Y-64900000D01*
X112822000Y-64900000D02*
X114600000Y-64900000D01*
X114600000Y-64900000D02*
X114600000Y-66678000D01*
X114600000Y-75822000D02*
X114600000Y-77600000D01*
X114600000Y-77600000D02*
X112822000Y-77600000D01*
X103678000Y-77600000D02*
X101900000Y-77600000D01*
X101900000Y-77600000D02*
X101900000Y-75822000D01*
X101900000Y-66678000D02*
X101900000Y-64900000D01*
X121650000Y-67400000D02*
X123428000Y-67400000D01*
X132572000Y-67400000D02*
X134350000Y-67400000D01*
X134350000Y-67400000D02*
X134350000Y-69178000D01*
X134350000Y-78322000D02*
X134350000Y-80100000D01*
X134350000Y-80100000D02*
X132572000Y-80100000D01*
X123428000Y-80100000D02*
X121650000Y-80100000D01*
X121650000Y-80100000D02*
X121650000Y-78322000D01*
X121650000Y-69178000D02*
X121650000Y-67400000D01*
X101900000Y-84900000D02*
X103678000Y-84900000D01*
X112822000Y-84900000D02*
X114600000Y-84900000D01*
X114600000Y-84900000D02*
X114600000Y-86678000D01*
X114600000Y-95822000D02*
X114600000Y-97600000D01*
X114600000Y-97600000D02*
X112822000Y-97600000D01*
X103678000Y-97600000D02*
X101900000Y-97600000D01*
X101900000Y-97600000D02*
X101900000Y-95822000D01*
X101900000Y-86678000D02*
X101900000Y-84900000D01*
X121650000Y-87150000D02*
X123428000Y-87150000D01*
X132572000Y-87150000D02*
X134350000Y-87150000D01*
X134350000Y-87150000D02*
X134350000Y-88928000D01*
X134350000Y-98072000D02*
X134350000Y-99850000D01*
X134350000Y-99850000D02*
X132572000Y-99850000D01*
X123428000Y-99850000D02*
X121650000Y-99850000D01*
X121650000Y-99850000D02*
X121650000Y-98072000D01*
X121650000Y-88928000D02*
X121650000Y-87150000D01*
X162390000Y-46760000D02*
X144610000Y-46760000D01*
X144610000Y-46760000D02*
X144610000Y-77240000D01*
X144610000Y-77240000D02*
X162390000Y-77240000D01*
X162390000Y-77240000D02*
X162390000Y-46760000D01*
X147150000Y-46760000D02*
X147150000Y-49300000D01*
X147150000Y-49300000D02*
X144610000Y-49300000D01*
D14*
X46700000Y-185475000D02*
X44300000Y-185475000D01*
X46700000Y-185300000D02*
X44300000Y-185300000D01*
X46700000Y-185125000D02*
X44300000Y-185125000D01*
X44300000Y-184725000D02*
X46700000Y-184725000D01*
X46700000Y-184950000D02*
X44300000Y-184950000D01*
X46700000Y-184825000D02*
X44300000Y-184825000D01*
X46700000Y-184750000D02*
X46700000Y-190550000D01*
X46700000Y-190550000D02*
X44300000Y-190550000D01*
X44300000Y-190550000D02*
X44300000Y-184750000D01*
X66450000Y-187975000D02*
X64050000Y-187975000D01*
X66450000Y-187800000D02*
X64050000Y-187800000D01*
X66450000Y-187625000D02*
X64050000Y-187625000D01*
X64050000Y-187225000D02*
X66450000Y-187225000D01*
X66450000Y-187450000D02*
X64050000Y-187450000D01*
X66450000Y-187325000D02*
X64050000Y-187325000D01*
X66450000Y-187250000D02*
X66450000Y-193050000D01*
X66450000Y-193050000D02*
X64050000Y-193050000D01*
X64050000Y-193050000D02*
X64050000Y-187250000D01*
X86200000Y-190975000D02*
X83800000Y-190975000D01*
X86200000Y-190800000D02*
X83800000Y-190800000D01*
X86200000Y-190625000D02*
X83800000Y-190625000D01*
X83800000Y-190225000D02*
X86200000Y-190225000D01*
X86200000Y-190450000D02*
X83800000Y-190450000D01*
X86200000Y-190325000D02*
X83800000Y-190325000D01*
X86200000Y-190250000D02*
X86200000Y-196050000D01*
X86200000Y-196050000D02*
X83800000Y-196050000D01*
X83800000Y-196050000D02*
X83800000Y-190250000D01*
X105950000Y-187975000D02*
X103550000Y-187975000D01*
X105950000Y-187800000D02*
X103550000Y-187800000D01*
X105950000Y-187625000D02*
X103550000Y-187625000D01*
X103550000Y-187225000D02*
X105950000Y-187225000D01*
X105950000Y-187450000D02*
X103550000Y-187450000D01*
X105950000Y-187325000D02*
X103550000Y-187325000D01*
X105950000Y-187250000D02*
X105950000Y-193050000D01*
X105950000Y-193050000D02*
X103550000Y-193050000D01*
X103550000Y-193050000D02*
X103550000Y-187250000D01*
X125700000Y-182975000D02*
X123300000Y-182975000D01*
X125700000Y-182800000D02*
X123300000Y-182800000D01*
X125700000Y-182625000D02*
X123300000Y-182625000D01*
X123300000Y-182225000D02*
X125700000Y-182225000D01*
X125700000Y-182450000D02*
X123300000Y-182450000D01*
X125700000Y-182325000D02*
X123300000Y-182325000D01*
X125700000Y-182250000D02*
X125700000Y-188050000D01*
X125700000Y-188050000D02*
X123300000Y-188050000D01*
X123300000Y-188050000D02*
X123300000Y-182250000D01*
X145450000Y-182975000D02*
X143050000Y-182975000D01*
X145450000Y-182800000D02*
X143050000Y-182800000D01*
X145450000Y-182625000D02*
X143050000Y-182625000D01*
X143050000Y-182225000D02*
X145450000Y-182225000D01*
X145450000Y-182450000D02*
X143050000Y-182450000D01*
X145450000Y-182325000D02*
X143050000Y-182325000D01*
X145450000Y-182250000D02*
X145450000Y-188050000D01*
X145450000Y-188050000D02*
X143050000Y-188050000D01*
X143050000Y-188050000D02*
X143050000Y-182250000D01*
X46700000Y-165975000D02*
X44300000Y-165975000D01*
X46700000Y-165800000D02*
X44300000Y-165800000D01*
X46700000Y-165625000D02*
X44300000Y-165625000D01*
X44300000Y-165225000D02*
X46700000Y-165225000D01*
X46700000Y-165450000D02*
X44300000Y-165450000D01*
X46700000Y-165325000D02*
X44300000Y-165325000D01*
X46700000Y-165250000D02*
X46700000Y-171050000D01*
X46700000Y-171050000D02*
X44300000Y-171050000D01*
X44300000Y-171050000D02*
X44300000Y-165250000D01*
X66450000Y-168475000D02*
X64050000Y-168475000D01*
X66450000Y-168300000D02*
X64050000Y-168300000D01*
X66450000Y-168125000D02*
X64050000Y-168125000D01*
X64050000Y-167725000D02*
X66450000Y-167725000D01*
X66450000Y-167950000D02*
X64050000Y-167950000D01*
X66450000Y-167825000D02*
X64050000Y-167825000D01*
X66450000Y-167750000D02*
X66450000Y-173550000D01*
X66450000Y-173550000D02*
X64050000Y-173550000D01*
X64050000Y-173550000D02*
X64050000Y-167750000D01*
X86200000Y-170975000D02*
X83800000Y-170975000D01*
X86200000Y-170800000D02*
X83800000Y-170800000D01*
X86200000Y-170625000D02*
X83800000Y-170625000D01*
X83800000Y-170225000D02*
X86200000Y-170225000D01*
X86200000Y-170450000D02*
X83800000Y-170450000D01*
X86200000Y-170325000D02*
X83800000Y-170325000D01*
X86200000Y-170250000D02*
X86200000Y-176050000D01*
X86200000Y-176050000D02*
X83800000Y-176050000D01*
X83800000Y-176050000D02*
X83800000Y-170250000D01*
X105950000Y-168475000D02*
X103550000Y-168475000D01*
X105950000Y-168300000D02*
X103550000Y-168300000D01*
X105950000Y-168125000D02*
X103550000Y-168125000D01*
X103550000Y-167725000D02*
X105950000Y-167725000D01*
X105950000Y-167950000D02*
X103550000Y-167950000D01*
X105950000Y-167825000D02*
X103550000Y-167825000D01*
X105950000Y-167750000D02*
X105950000Y-173550000D01*
X105950000Y-173550000D02*
X103550000Y-173550000D01*
X103550000Y-173550000D02*
X103550000Y-167750000D01*
X125700000Y-163475000D02*
X123300000Y-163475000D01*
X125700000Y-163300000D02*
X123300000Y-163300000D01*
X125700000Y-163125000D02*
X123300000Y-163125000D01*
X123300000Y-162725000D02*
X125700000Y-162725000D01*
X125700000Y-162950000D02*
X123300000Y-162950000D01*
X125700000Y-162825000D02*
X123300000Y-162825000D01*
X125700000Y-162750000D02*
X125700000Y-168550000D01*
X125700000Y-168550000D02*
X123300000Y-168550000D01*
X123300000Y-168550000D02*
X123300000Y-162750000D01*
X145450000Y-163475000D02*
X143050000Y-163475000D01*
X145450000Y-163300000D02*
X143050000Y-163300000D01*
X145450000Y-163125000D02*
X143050000Y-163125000D01*
X143050000Y-162725000D02*
X145450000Y-162725000D01*
X145450000Y-162950000D02*
X143050000Y-162950000D01*
X145450000Y-162825000D02*
X143050000Y-162825000D01*
X145450000Y-162750000D02*
X145450000Y-168550000D01*
X145450000Y-168550000D02*
X143050000Y-168550000D01*
X143050000Y-168550000D02*
X143050000Y-162750000D01*
X46700000Y-145975000D02*
X44300000Y-145975000D01*
X46700000Y-145800000D02*
X44300000Y-145800000D01*
X46700000Y-145625000D02*
X44300000Y-145625000D01*
X44300000Y-145225000D02*
X46700000Y-145225000D01*
X46700000Y-145450000D02*
X44300000Y-145450000D01*
X46700000Y-145325000D02*
X44300000Y-145325000D01*
X46700000Y-145250000D02*
X46700000Y-151050000D01*
X46700000Y-151050000D02*
X44300000Y-151050000D01*
X44300000Y-151050000D02*
X44300000Y-145250000D01*
X66450000Y-148475000D02*
X64050000Y-148475000D01*
X66450000Y-148300000D02*
X64050000Y-148300000D01*
X66450000Y-148125000D02*
X64050000Y-148125000D01*
X64050000Y-147725000D02*
X66450000Y-147725000D01*
X66450000Y-147950000D02*
X64050000Y-147950000D01*
X66450000Y-147825000D02*
X64050000Y-147825000D01*
X66450000Y-147750000D02*
X66450000Y-153550000D01*
X66450000Y-153550000D02*
X64050000Y-153550000D01*
X64050000Y-153550000D02*
X64050000Y-147750000D01*
X86200000Y-150975000D02*
X83800000Y-150975000D01*
X86200000Y-150800000D02*
X83800000Y-150800000D01*
X86200000Y-150625000D02*
X83800000Y-150625000D01*
X83800000Y-150225000D02*
X86200000Y-150225000D01*
X86200000Y-150450000D02*
X83800000Y-150450000D01*
X86200000Y-150325000D02*
X83800000Y-150325000D01*
X86200000Y-150250000D02*
X86200000Y-156050000D01*
X86200000Y-156050000D02*
X83800000Y-156050000D01*
X83800000Y-156050000D02*
X83800000Y-150250000D01*
X105950000Y-148475000D02*
X103550000Y-148475000D01*
X105950000Y-148300000D02*
X103550000Y-148300000D01*
X105950000Y-148125000D02*
X103550000Y-148125000D01*
X103550000Y-147725000D02*
X105950000Y-147725000D01*
X105950000Y-147950000D02*
X103550000Y-147950000D01*
X105950000Y-147825000D02*
X103550000Y-147825000D01*
X105950000Y-147750000D02*
X105950000Y-153550000D01*
X105950000Y-153550000D02*
X103550000Y-153550000D01*
X103550000Y-153550000D02*
X103550000Y-147750000D01*
X125700000Y-143475000D02*
X123300000Y-143475000D01*
X125700000Y-143300000D02*
X123300000Y-143300000D01*
X125700000Y-143125000D02*
X123300000Y-143125000D01*
X123300000Y-142725000D02*
X125700000Y-142725000D01*
X125700000Y-142950000D02*
X123300000Y-142950000D01*
X125700000Y-142825000D02*
X123300000Y-142825000D01*
X125700000Y-142750000D02*
X125700000Y-148550000D01*
X125700000Y-148550000D02*
X123300000Y-148550000D01*
X123300000Y-148550000D02*
X123300000Y-142750000D01*
X145450000Y-143475000D02*
X143050000Y-143475000D01*
X145450000Y-143300000D02*
X143050000Y-143300000D01*
X145450000Y-143125000D02*
X143050000Y-143125000D01*
X143050000Y-142725000D02*
X145450000Y-142725000D01*
X145450000Y-142950000D02*
X143050000Y-142950000D01*
X145450000Y-142825000D02*
X143050000Y-142825000D01*
X145450000Y-142750000D02*
X145450000Y-148550000D01*
X145450000Y-148550000D02*
X143050000Y-148550000D01*
X143050000Y-148550000D02*
X143050000Y-142750000D01*
X46700000Y-126475000D02*
X44300000Y-126475000D01*
X46700000Y-126300000D02*
X44300000Y-126300000D01*
X46700000Y-126125000D02*
X44300000Y-126125000D01*
X44300000Y-125725000D02*
X46700000Y-125725000D01*
X46700000Y-125950000D02*
X44300000Y-125950000D01*
X46700000Y-125825000D02*
X44300000Y-125825000D01*
X46700000Y-125750000D02*
X46700000Y-131550000D01*
X46700000Y-131550000D02*
X44300000Y-131550000D01*
X44300000Y-131550000D02*
X44300000Y-125750000D01*
X66450000Y-128475000D02*
X64050000Y-128475000D01*
X66450000Y-128300000D02*
X64050000Y-128300000D01*
X66450000Y-128125000D02*
X64050000Y-128125000D01*
X64050000Y-127725000D02*
X66450000Y-127725000D01*
X66450000Y-127950000D02*
X64050000Y-127950000D01*
X66450000Y-127825000D02*
X64050000Y-127825000D01*
X66450000Y-127750000D02*
X66450000Y-133550000D01*
X66450000Y-133550000D02*
X64050000Y-133550000D01*
X64050000Y-133550000D02*
X64050000Y-127750000D01*
X26200000Y-111475000D02*
X23800000Y-111475000D01*
X26200000Y-111300000D02*
X23800000Y-111300000D01*
X26200000Y-111125000D02*
X23800000Y-111125000D01*
X23800000Y-110725000D02*
X26200000Y-110725000D01*
X26200000Y-110950000D02*
X23800000Y-110950000D01*
X26200000Y-110825000D02*
X23800000Y-110825000D01*
X26200000Y-110750000D02*
X26200000Y-116550000D01*
X26200000Y-116550000D02*
X23800000Y-116550000D01*
X23800000Y-116550000D02*
X23800000Y-110750000D01*
D15*
X23812381Y-131583333D02*
X24526667Y-131583333D01*
X24669524Y-131630953D01*
X24764762Y-131726191D01*
X24812381Y-131869048D01*
X24812381Y-131964286D01*
X23812381Y-131202381D02*
X23812381Y-130583333D01*
X24193333Y-130916667D01*
X24193333Y-130773809D01*
X24240952Y-130678571D01*
X24288571Y-130630952D01*
X24383810Y-130583333D01*
X24621905Y-130583333D01*
X24717143Y-130630952D01*
X24764762Y-130678571D01*
X24812381Y-130773809D01*
X24812381Y-131059524D01*
X24764762Y-131154762D01*
X24717143Y-131202381D01*
D16*
X151179524Y-63161143D02*
X152207619Y-63161143D01*
X152328571Y-63088571D01*
X152389048Y-63016000D01*
X152449524Y-62870857D01*
X152449524Y-62580571D01*
X152389048Y-62435429D01*
X152328571Y-62362857D01*
X152207619Y-62290286D01*
X151179524Y-62290286D01*
X152449524Y-60766286D02*
X152449524Y-61637143D01*
X152449524Y-61201715D02*
X151179524Y-61201715D01*
X151360952Y-61346858D01*
X151481905Y-61492000D01*
X151542381Y-61637143D01*
D15*
X43936905Y-188721429D02*
X43136905Y-188721429D01*
X43136905Y-188530953D01*
X43175000Y-188416667D01*
X43251190Y-188340476D01*
X43327381Y-188302381D01*
X43479762Y-188264286D01*
X43594048Y-188264286D01*
X43746429Y-188302381D01*
X43822619Y-188340476D01*
X43898810Y-188416667D01*
X43936905Y-188530953D01*
X43936905Y-188721429D01*
X43213095Y-187959524D02*
X43175000Y-187921429D01*
X43136905Y-187845238D01*
X43136905Y-187654762D01*
X43175000Y-187578572D01*
X43213095Y-187540476D01*
X43289286Y-187502381D01*
X43365476Y-187502381D01*
X43479762Y-187540476D01*
X43936905Y-187997619D01*
X43936905Y-187502381D01*
X43213095Y-187197619D02*
X43175000Y-187159524D01*
X43136905Y-187083333D01*
X43136905Y-186892857D01*
X43175000Y-186816667D01*
X43213095Y-186778571D01*
X43289286Y-186740476D01*
X43365476Y-186740476D01*
X43479762Y-186778571D01*
X43936905Y-187235714D01*
X43936905Y-186740476D01*
X63686905Y-191221429D02*
X62886905Y-191221429D01*
X62886905Y-191030953D01*
X62925000Y-190916667D01*
X63001190Y-190840476D01*
X63077381Y-190802381D01*
X63229762Y-190764286D01*
X63344048Y-190764286D01*
X63496429Y-190802381D01*
X63572619Y-190840476D01*
X63648810Y-190916667D01*
X63686905Y-191030953D01*
X63686905Y-191221429D01*
X62963095Y-190459524D02*
X62925000Y-190421429D01*
X62886905Y-190345238D01*
X62886905Y-190154762D01*
X62925000Y-190078572D01*
X62963095Y-190040476D01*
X63039286Y-190002381D01*
X63115476Y-190002381D01*
X63229762Y-190040476D01*
X63686905Y-190497619D01*
X63686905Y-190002381D01*
X62886905Y-189735714D02*
X62886905Y-189240476D01*
X63191667Y-189507143D01*
X63191667Y-189392857D01*
X63229762Y-189316667D01*
X63267857Y-189278571D01*
X63344048Y-189240476D01*
X63534524Y-189240476D01*
X63610714Y-189278571D01*
X63648810Y-189316667D01*
X63686905Y-189392857D01*
X63686905Y-189621429D01*
X63648810Y-189697619D01*
X63610714Y-189735714D01*
X83436905Y-194221429D02*
X82636905Y-194221429D01*
X82636905Y-194030953D01*
X82675000Y-193916667D01*
X82751190Y-193840476D01*
X82827381Y-193802381D01*
X82979762Y-193764286D01*
X83094048Y-193764286D01*
X83246429Y-193802381D01*
X83322619Y-193840476D01*
X83398810Y-193916667D01*
X83436905Y-194030953D01*
X83436905Y-194221429D01*
X82713095Y-193459524D02*
X82675000Y-193421429D01*
X82636905Y-193345238D01*
X82636905Y-193154762D01*
X82675000Y-193078572D01*
X82713095Y-193040476D01*
X82789286Y-193002381D01*
X82865476Y-193002381D01*
X82979762Y-193040476D01*
X83436905Y-193497619D01*
X83436905Y-193002381D01*
X82903571Y-192316667D02*
X83436905Y-192316667D01*
X82598810Y-192507143D02*
X83170238Y-192697619D01*
X83170238Y-192202381D01*
X103186905Y-191221429D02*
X102386905Y-191221429D01*
X102386905Y-191030953D01*
X102425000Y-190916667D01*
X102501190Y-190840476D01*
X102577381Y-190802381D01*
X102729762Y-190764286D01*
X102844048Y-190764286D01*
X102996429Y-190802381D01*
X103072619Y-190840476D01*
X103148810Y-190916667D01*
X103186905Y-191030953D01*
X103186905Y-191221429D01*
X102463095Y-190459524D02*
X102425000Y-190421429D01*
X102386905Y-190345238D01*
X102386905Y-190154762D01*
X102425000Y-190078572D01*
X102463095Y-190040476D01*
X102539286Y-190002381D01*
X102615476Y-190002381D01*
X102729762Y-190040476D01*
X103186905Y-190497619D01*
X103186905Y-190002381D01*
X102386905Y-189278571D02*
X102386905Y-189659524D01*
X102767857Y-189697619D01*
X102729762Y-189659524D01*
X102691667Y-189583333D01*
X102691667Y-189392857D01*
X102729762Y-189316667D01*
X102767857Y-189278571D01*
X102844048Y-189240476D01*
X103034524Y-189240476D01*
X103110714Y-189278571D01*
X103148810Y-189316667D01*
X103186905Y-189392857D01*
X103186905Y-189583333D01*
X103148810Y-189659524D01*
X103110714Y-189697619D01*
X122936905Y-186221429D02*
X122136905Y-186221429D01*
X122136905Y-186030953D01*
X122175000Y-185916667D01*
X122251190Y-185840476D01*
X122327381Y-185802381D01*
X122479762Y-185764286D01*
X122594048Y-185764286D01*
X122746429Y-185802381D01*
X122822619Y-185840476D01*
X122898810Y-185916667D01*
X122936905Y-186030953D01*
X122936905Y-186221429D01*
X122213095Y-185459524D02*
X122175000Y-185421429D01*
X122136905Y-185345238D01*
X122136905Y-185154762D01*
X122175000Y-185078572D01*
X122213095Y-185040476D01*
X122289286Y-185002381D01*
X122365476Y-185002381D01*
X122479762Y-185040476D01*
X122936905Y-185497619D01*
X122936905Y-185002381D01*
X122136905Y-184316667D02*
X122136905Y-184469048D01*
X122175000Y-184545238D01*
X122213095Y-184583333D01*
X122327381Y-184659524D01*
X122479762Y-184697619D01*
X122784524Y-184697619D01*
X122860714Y-184659524D01*
X122898810Y-184621429D01*
X122936905Y-184545238D01*
X122936905Y-184392857D01*
X122898810Y-184316667D01*
X122860714Y-184278571D01*
X122784524Y-184240476D01*
X122594048Y-184240476D01*
X122517857Y-184278571D01*
X122479762Y-184316667D01*
X122441667Y-184392857D01*
X122441667Y-184545238D01*
X122479762Y-184621429D01*
X122517857Y-184659524D01*
X122594048Y-184697619D01*
X142686905Y-186221429D02*
X141886905Y-186221429D01*
X141886905Y-186030953D01*
X141925000Y-185916667D01*
X142001190Y-185840476D01*
X142077381Y-185802381D01*
X142229762Y-185764286D01*
X142344048Y-185764286D01*
X142496429Y-185802381D01*
X142572619Y-185840476D01*
X142648810Y-185916667D01*
X142686905Y-186030953D01*
X142686905Y-186221429D01*
X141963095Y-185459524D02*
X141925000Y-185421429D01*
X141886905Y-185345238D01*
X141886905Y-185154762D01*
X141925000Y-185078572D01*
X141963095Y-185040476D01*
X142039286Y-185002381D01*
X142115476Y-185002381D01*
X142229762Y-185040476D01*
X142686905Y-185497619D01*
X142686905Y-185002381D01*
X141886905Y-184735714D02*
X141886905Y-184202381D01*
X142686905Y-184545238D01*
X43936905Y-169221429D02*
X43136905Y-169221429D01*
X43136905Y-169030953D01*
X43175000Y-168916667D01*
X43251190Y-168840476D01*
X43327381Y-168802381D01*
X43479762Y-168764286D01*
X43594048Y-168764286D01*
X43746429Y-168802381D01*
X43822619Y-168840476D01*
X43898810Y-168916667D01*
X43936905Y-169030953D01*
X43936905Y-169221429D01*
X43213095Y-168459524D02*
X43175000Y-168421429D01*
X43136905Y-168345238D01*
X43136905Y-168154762D01*
X43175000Y-168078572D01*
X43213095Y-168040476D01*
X43289286Y-168002381D01*
X43365476Y-168002381D01*
X43479762Y-168040476D01*
X43936905Y-168497619D01*
X43936905Y-168002381D01*
X43479762Y-167545238D02*
X43441667Y-167621429D01*
X43403571Y-167659524D01*
X43327381Y-167697619D01*
X43289286Y-167697619D01*
X43213095Y-167659524D01*
X43175000Y-167621429D01*
X43136905Y-167545238D01*
X43136905Y-167392857D01*
X43175000Y-167316667D01*
X43213095Y-167278571D01*
X43289286Y-167240476D01*
X43327381Y-167240476D01*
X43403571Y-167278571D01*
X43441667Y-167316667D01*
X43479762Y-167392857D01*
X43479762Y-167545238D01*
X43517857Y-167621429D01*
X43555952Y-167659524D01*
X43632143Y-167697619D01*
X43784524Y-167697619D01*
X43860714Y-167659524D01*
X43898810Y-167621429D01*
X43936905Y-167545238D01*
X43936905Y-167392857D01*
X43898810Y-167316667D01*
X43860714Y-167278571D01*
X43784524Y-167240476D01*
X43632143Y-167240476D01*
X43555952Y-167278571D01*
X43517857Y-167316667D01*
X43479762Y-167392857D01*
X63686905Y-171721429D02*
X62886905Y-171721429D01*
X62886905Y-171530953D01*
X62925000Y-171416667D01*
X63001190Y-171340476D01*
X63077381Y-171302381D01*
X63229762Y-171264286D01*
X63344048Y-171264286D01*
X63496429Y-171302381D01*
X63572619Y-171340476D01*
X63648810Y-171416667D01*
X63686905Y-171530953D01*
X63686905Y-171721429D01*
X62963095Y-170959524D02*
X62925000Y-170921429D01*
X62886905Y-170845238D01*
X62886905Y-170654762D01*
X62925000Y-170578572D01*
X62963095Y-170540476D01*
X63039286Y-170502381D01*
X63115476Y-170502381D01*
X63229762Y-170540476D01*
X63686905Y-170997619D01*
X63686905Y-170502381D01*
X63686905Y-170121429D02*
X63686905Y-169969048D01*
X63648810Y-169892857D01*
X63610714Y-169854762D01*
X63496429Y-169778571D01*
X63344048Y-169740476D01*
X63039286Y-169740476D01*
X62963095Y-169778571D01*
X62925000Y-169816667D01*
X62886905Y-169892857D01*
X62886905Y-170045238D01*
X62925000Y-170121429D01*
X62963095Y-170159524D01*
X63039286Y-170197619D01*
X63229762Y-170197619D01*
X63305952Y-170159524D01*
X63344048Y-170121429D01*
X63382143Y-170045238D01*
X63382143Y-169892857D01*
X63344048Y-169816667D01*
X63305952Y-169778571D01*
X63229762Y-169740476D01*
X83436905Y-174221429D02*
X82636905Y-174221429D01*
X82636905Y-174030953D01*
X82675000Y-173916667D01*
X82751190Y-173840476D01*
X82827381Y-173802381D01*
X82979762Y-173764286D01*
X83094048Y-173764286D01*
X83246429Y-173802381D01*
X83322619Y-173840476D01*
X83398810Y-173916667D01*
X83436905Y-174030953D01*
X83436905Y-174221429D01*
X82636905Y-173497619D02*
X82636905Y-173002381D01*
X82941667Y-173269048D01*
X82941667Y-173154762D01*
X82979762Y-173078572D01*
X83017857Y-173040476D01*
X83094048Y-173002381D01*
X83284524Y-173002381D01*
X83360714Y-173040476D01*
X83398810Y-173078572D01*
X83436905Y-173154762D01*
X83436905Y-173383334D01*
X83398810Y-173459524D01*
X83360714Y-173497619D01*
X82636905Y-172507143D02*
X82636905Y-172430952D01*
X82675000Y-172354762D01*
X82713095Y-172316667D01*
X82789286Y-172278571D01*
X82941667Y-172240476D01*
X83132143Y-172240476D01*
X83284524Y-172278571D01*
X83360714Y-172316667D01*
X83398810Y-172354762D01*
X83436905Y-172430952D01*
X83436905Y-172507143D01*
X83398810Y-172583333D01*
X83360714Y-172621429D01*
X83284524Y-172659524D01*
X83132143Y-172697619D01*
X82941667Y-172697619D01*
X82789286Y-172659524D01*
X82713095Y-172621429D01*
X82675000Y-172583333D01*
X82636905Y-172507143D01*
X103186905Y-171721429D02*
X102386905Y-171721429D01*
X102386905Y-171530953D01*
X102425000Y-171416667D01*
X102501190Y-171340476D01*
X102577381Y-171302381D01*
X102729762Y-171264286D01*
X102844048Y-171264286D01*
X102996429Y-171302381D01*
X103072619Y-171340476D01*
X103148810Y-171416667D01*
X103186905Y-171530953D01*
X103186905Y-171721429D01*
X102386905Y-170997619D02*
X102386905Y-170502381D01*
X102691667Y-170769048D01*
X102691667Y-170654762D01*
X102729762Y-170578572D01*
X102767857Y-170540476D01*
X102844048Y-170502381D01*
X103034524Y-170502381D01*
X103110714Y-170540476D01*
X103148810Y-170578572D01*
X103186905Y-170654762D01*
X103186905Y-170883334D01*
X103148810Y-170959524D01*
X103110714Y-170997619D01*
X103186905Y-169740476D02*
X103186905Y-170197619D01*
X103186905Y-169969048D02*
X102386905Y-169969048D01*
X102501190Y-170045238D01*
X102577381Y-170121429D01*
X102615476Y-170197619D01*
X122936905Y-166721429D02*
X122136905Y-166721429D01*
X122136905Y-166530953D01*
X122175000Y-166416667D01*
X122251190Y-166340476D01*
X122327381Y-166302381D01*
X122479762Y-166264286D01*
X122594048Y-166264286D01*
X122746429Y-166302381D01*
X122822619Y-166340476D01*
X122898810Y-166416667D01*
X122936905Y-166530953D01*
X122936905Y-166721429D01*
X122136905Y-165997619D02*
X122136905Y-165502381D01*
X122441667Y-165769048D01*
X122441667Y-165654762D01*
X122479762Y-165578572D01*
X122517857Y-165540476D01*
X122594048Y-165502381D01*
X122784524Y-165502381D01*
X122860714Y-165540476D01*
X122898810Y-165578572D01*
X122936905Y-165654762D01*
X122936905Y-165883334D01*
X122898810Y-165959524D01*
X122860714Y-165997619D01*
X122213095Y-165197619D02*
X122175000Y-165159524D01*
X122136905Y-165083333D01*
X122136905Y-164892857D01*
X122175000Y-164816667D01*
X122213095Y-164778571D01*
X122289286Y-164740476D01*
X122365476Y-164740476D01*
X122479762Y-164778571D01*
X122936905Y-165235714D01*
X122936905Y-164740476D01*
X142686905Y-166721429D02*
X141886905Y-166721429D01*
X141886905Y-166530953D01*
X141925000Y-166416667D01*
X142001190Y-166340476D01*
X142077381Y-166302381D01*
X142229762Y-166264286D01*
X142344048Y-166264286D01*
X142496429Y-166302381D01*
X142572619Y-166340476D01*
X142648810Y-166416667D01*
X142686905Y-166530953D01*
X142686905Y-166721429D01*
X141886905Y-165997619D02*
X141886905Y-165502381D01*
X142191667Y-165769048D01*
X142191667Y-165654762D01*
X142229762Y-165578572D01*
X142267857Y-165540476D01*
X142344048Y-165502381D01*
X142534524Y-165502381D01*
X142610714Y-165540476D01*
X142648810Y-165578572D01*
X142686905Y-165654762D01*
X142686905Y-165883334D01*
X142648810Y-165959524D01*
X142610714Y-165997619D01*
X141886905Y-165235714D02*
X141886905Y-164740476D01*
X142191667Y-165007143D01*
X142191667Y-164892857D01*
X142229762Y-164816667D01*
X142267857Y-164778571D01*
X142344048Y-164740476D01*
X142534524Y-164740476D01*
X142610714Y-164778571D01*
X142648810Y-164816667D01*
X142686905Y-164892857D01*
X142686905Y-165121429D01*
X142648810Y-165197619D01*
X142610714Y-165235714D01*
X43936905Y-149221429D02*
X43136905Y-149221429D01*
X43136905Y-149030953D01*
X43175000Y-148916667D01*
X43251190Y-148840476D01*
X43327381Y-148802381D01*
X43479762Y-148764286D01*
X43594048Y-148764286D01*
X43746429Y-148802381D01*
X43822619Y-148840476D01*
X43898810Y-148916667D01*
X43936905Y-149030953D01*
X43936905Y-149221429D01*
X43136905Y-148497619D02*
X43136905Y-148002381D01*
X43441667Y-148269048D01*
X43441667Y-148154762D01*
X43479762Y-148078572D01*
X43517857Y-148040476D01*
X43594048Y-148002381D01*
X43784524Y-148002381D01*
X43860714Y-148040476D01*
X43898810Y-148078572D01*
X43936905Y-148154762D01*
X43936905Y-148383334D01*
X43898810Y-148459524D01*
X43860714Y-148497619D01*
X43403571Y-147316667D02*
X43936905Y-147316667D01*
X43098810Y-147507143D02*
X43670238Y-147697619D01*
X43670238Y-147202381D01*
X63686905Y-151721429D02*
X62886905Y-151721429D01*
X62886905Y-151530953D01*
X62925000Y-151416667D01*
X63001190Y-151340476D01*
X63077381Y-151302381D01*
X63229762Y-151264286D01*
X63344048Y-151264286D01*
X63496429Y-151302381D01*
X63572619Y-151340476D01*
X63648810Y-151416667D01*
X63686905Y-151530953D01*
X63686905Y-151721429D01*
X62886905Y-150997619D02*
X62886905Y-150502381D01*
X63191667Y-150769048D01*
X63191667Y-150654762D01*
X63229762Y-150578572D01*
X63267857Y-150540476D01*
X63344048Y-150502381D01*
X63534524Y-150502381D01*
X63610714Y-150540476D01*
X63648810Y-150578572D01*
X63686905Y-150654762D01*
X63686905Y-150883334D01*
X63648810Y-150959524D01*
X63610714Y-150997619D01*
X62886905Y-149778571D02*
X62886905Y-150159524D01*
X63267857Y-150197619D01*
X63229762Y-150159524D01*
X63191667Y-150083333D01*
X63191667Y-149892857D01*
X63229762Y-149816667D01*
X63267857Y-149778571D01*
X63344048Y-149740476D01*
X63534524Y-149740476D01*
X63610714Y-149778571D01*
X63648810Y-149816667D01*
X63686905Y-149892857D01*
X63686905Y-150083333D01*
X63648810Y-150159524D01*
X63610714Y-150197619D01*
X83436905Y-154221429D02*
X82636905Y-154221429D01*
X82636905Y-154030953D01*
X82675000Y-153916667D01*
X82751190Y-153840476D01*
X82827381Y-153802381D01*
X82979762Y-153764286D01*
X83094048Y-153764286D01*
X83246429Y-153802381D01*
X83322619Y-153840476D01*
X83398810Y-153916667D01*
X83436905Y-154030953D01*
X83436905Y-154221429D01*
X82636905Y-153497619D02*
X82636905Y-153002381D01*
X82941667Y-153269048D01*
X82941667Y-153154762D01*
X82979762Y-153078572D01*
X83017857Y-153040476D01*
X83094048Y-153002381D01*
X83284524Y-153002381D01*
X83360714Y-153040476D01*
X83398810Y-153078572D01*
X83436905Y-153154762D01*
X83436905Y-153383334D01*
X83398810Y-153459524D01*
X83360714Y-153497619D01*
X82636905Y-152316667D02*
X82636905Y-152469048D01*
X82675000Y-152545238D01*
X82713095Y-152583333D01*
X82827381Y-152659524D01*
X82979762Y-152697619D01*
X83284524Y-152697619D01*
X83360714Y-152659524D01*
X83398810Y-152621429D01*
X83436905Y-152545238D01*
X83436905Y-152392857D01*
X83398810Y-152316667D01*
X83360714Y-152278571D01*
X83284524Y-152240476D01*
X83094048Y-152240476D01*
X83017857Y-152278571D01*
X82979762Y-152316667D01*
X82941667Y-152392857D01*
X82941667Y-152545238D01*
X82979762Y-152621429D01*
X83017857Y-152659524D01*
X83094048Y-152697619D01*
X103186905Y-151721429D02*
X102386905Y-151721429D01*
X102386905Y-151530953D01*
X102425000Y-151416667D01*
X102501190Y-151340476D01*
X102577381Y-151302381D01*
X102729762Y-151264286D01*
X102844048Y-151264286D01*
X102996429Y-151302381D01*
X103072619Y-151340476D01*
X103148810Y-151416667D01*
X103186905Y-151530953D01*
X103186905Y-151721429D01*
X102386905Y-150997619D02*
X102386905Y-150502381D01*
X102691667Y-150769048D01*
X102691667Y-150654762D01*
X102729762Y-150578572D01*
X102767857Y-150540476D01*
X102844048Y-150502381D01*
X103034524Y-150502381D01*
X103110714Y-150540476D01*
X103148810Y-150578572D01*
X103186905Y-150654762D01*
X103186905Y-150883334D01*
X103148810Y-150959524D01*
X103110714Y-150997619D01*
X102386905Y-150235714D02*
X102386905Y-149702381D01*
X103186905Y-150045238D01*
X122936905Y-146721429D02*
X122136905Y-146721429D01*
X122136905Y-146530953D01*
X122175000Y-146416667D01*
X122251190Y-146340476D01*
X122327381Y-146302381D01*
X122479762Y-146264286D01*
X122594048Y-146264286D01*
X122746429Y-146302381D01*
X122822619Y-146340476D01*
X122898810Y-146416667D01*
X122936905Y-146530953D01*
X122936905Y-146721429D01*
X122136905Y-145997619D02*
X122136905Y-145502381D01*
X122441667Y-145769048D01*
X122441667Y-145654762D01*
X122479762Y-145578572D01*
X122517857Y-145540476D01*
X122594048Y-145502381D01*
X122784524Y-145502381D01*
X122860714Y-145540476D01*
X122898810Y-145578572D01*
X122936905Y-145654762D01*
X122936905Y-145883334D01*
X122898810Y-145959524D01*
X122860714Y-145997619D01*
X122479762Y-145045238D02*
X122441667Y-145121429D01*
X122403571Y-145159524D01*
X122327381Y-145197619D01*
X122289286Y-145197619D01*
X122213095Y-145159524D01*
X122175000Y-145121429D01*
X122136905Y-145045238D01*
X122136905Y-144892857D01*
X122175000Y-144816667D01*
X122213095Y-144778571D01*
X122289286Y-144740476D01*
X122327381Y-144740476D01*
X122403571Y-144778571D01*
X122441667Y-144816667D01*
X122479762Y-144892857D01*
X122479762Y-145045238D01*
X122517857Y-145121429D01*
X122555952Y-145159524D01*
X122632143Y-145197619D01*
X122784524Y-145197619D01*
X122860714Y-145159524D01*
X122898810Y-145121429D01*
X122936905Y-145045238D01*
X122936905Y-144892857D01*
X122898810Y-144816667D01*
X122860714Y-144778571D01*
X122784524Y-144740476D01*
X122632143Y-144740476D01*
X122555952Y-144778571D01*
X122517857Y-144816667D01*
X122479762Y-144892857D01*
X142686905Y-146721429D02*
X141886905Y-146721429D01*
X141886905Y-146530953D01*
X141925000Y-146416667D01*
X142001190Y-146340476D01*
X142077381Y-146302381D01*
X142229762Y-146264286D01*
X142344048Y-146264286D01*
X142496429Y-146302381D01*
X142572619Y-146340476D01*
X142648810Y-146416667D01*
X142686905Y-146530953D01*
X142686905Y-146721429D01*
X141886905Y-145997619D02*
X141886905Y-145502381D01*
X142191667Y-145769048D01*
X142191667Y-145654762D01*
X142229762Y-145578572D01*
X142267857Y-145540476D01*
X142344048Y-145502381D01*
X142534524Y-145502381D01*
X142610714Y-145540476D01*
X142648810Y-145578572D01*
X142686905Y-145654762D01*
X142686905Y-145883334D01*
X142648810Y-145959524D01*
X142610714Y-145997619D01*
X142686905Y-145121429D02*
X142686905Y-144969048D01*
X142648810Y-144892857D01*
X142610714Y-144854762D01*
X142496429Y-144778571D01*
X142344048Y-144740476D01*
X142039286Y-144740476D01*
X141963095Y-144778571D01*
X141925000Y-144816667D01*
X141886905Y-144892857D01*
X141886905Y-145045238D01*
X141925000Y-145121429D01*
X141963095Y-145159524D01*
X142039286Y-145197619D01*
X142229762Y-145197619D01*
X142305952Y-145159524D01*
X142344048Y-145121429D01*
X142382143Y-145045238D01*
X142382143Y-144892857D01*
X142344048Y-144816667D01*
X142305952Y-144778571D01*
X142229762Y-144740476D01*
X43936905Y-129721429D02*
X43136905Y-129721429D01*
X43136905Y-129530953D01*
X43175000Y-129416667D01*
X43251190Y-129340476D01*
X43327381Y-129302381D01*
X43479762Y-129264286D01*
X43594048Y-129264286D01*
X43746429Y-129302381D01*
X43822619Y-129340476D01*
X43898810Y-129416667D01*
X43936905Y-129530953D01*
X43936905Y-129721429D01*
X43403571Y-128578572D02*
X43936905Y-128578572D01*
X43098810Y-128769048D02*
X43670238Y-128959524D01*
X43670238Y-128464286D01*
X43136905Y-128007143D02*
X43136905Y-127930952D01*
X43175000Y-127854762D01*
X43213095Y-127816667D01*
X43289286Y-127778571D01*
X43441667Y-127740476D01*
X43632143Y-127740476D01*
X43784524Y-127778571D01*
X43860714Y-127816667D01*
X43898810Y-127854762D01*
X43936905Y-127930952D01*
X43936905Y-128007143D01*
X43898810Y-128083333D01*
X43860714Y-128121429D01*
X43784524Y-128159524D01*
X43632143Y-128197619D01*
X43441667Y-128197619D01*
X43289286Y-128159524D01*
X43213095Y-128121429D01*
X43175000Y-128083333D01*
X43136905Y-128007143D01*
X63686905Y-131721429D02*
X62886905Y-131721429D01*
X62886905Y-131530953D01*
X62925000Y-131416667D01*
X63001190Y-131340476D01*
X63077381Y-131302381D01*
X63229762Y-131264286D01*
X63344048Y-131264286D01*
X63496429Y-131302381D01*
X63572619Y-131340476D01*
X63648810Y-131416667D01*
X63686905Y-131530953D01*
X63686905Y-131721429D01*
X63153571Y-130578572D02*
X63686905Y-130578572D01*
X62848810Y-130769048D02*
X63420238Y-130959524D01*
X63420238Y-130464286D01*
X63686905Y-129740476D02*
X63686905Y-130197619D01*
X63686905Y-129969048D02*
X62886905Y-129969048D01*
X63001190Y-130045238D01*
X63077381Y-130121429D01*
X63115476Y-130197619D01*
X23436905Y-114721429D02*
X22636905Y-114721429D01*
X22636905Y-114530953D01*
X22675000Y-114416667D01*
X22751190Y-114340476D01*
X22827381Y-114302381D01*
X22979762Y-114264286D01*
X23094048Y-114264286D01*
X23246429Y-114302381D01*
X23322619Y-114340476D01*
X23398810Y-114416667D01*
X23436905Y-114530953D01*
X23436905Y-114721429D01*
X22903571Y-113578572D02*
X23436905Y-113578572D01*
X22598810Y-113769048D02*
X23170238Y-113959524D01*
X23170238Y-113464286D01*
X22713095Y-113197619D02*
X22675000Y-113159524D01*
X22636905Y-113083333D01*
X22636905Y-112892857D01*
X22675000Y-112816667D01*
X22713095Y-112778571D01*
X22789286Y-112740476D01*
X22865476Y-112740476D01*
X22979762Y-112778571D01*
X23436905Y-113235714D01*
X23436905Y-112740476D01*
D14*
X53785714Y-183134381D02*
X53785714Y-182134381D01*
X54357143Y-183134381D02*
X53928571Y-182562952D01*
X54357143Y-182134381D02*
X53785714Y-182705810D01*
X54738095Y-182229619D02*
X54785714Y-182182000D01*
X54880952Y-182134381D01*
X55119048Y-182134381D01*
X55214286Y-182182000D01*
X55261905Y-182229619D01*
X55309524Y-182324857D01*
X55309524Y-182420095D01*
X55261905Y-182562952D01*
X54690476Y-183134381D01*
X55309524Y-183134381D01*
X55690476Y-182229619D02*
X55738095Y-182182000D01*
X55833333Y-182134381D01*
X56071429Y-182134381D01*
X56166667Y-182182000D01*
X56214286Y-182229619D01*
X56261905Y-182324857D01*
X56261905Y-182420095D01*
X56214286Y-182562952D01*
X55642857Y-183134381D01*
X56261905Y-183134381D01*
X73535714Y-185634381D02*
X73535714Y-184634381D01*
X74107143Y-185634381D02*
X73678571Y-185062952D01*
X74107143Y-184634381D02*
X73535714Y-185205810D01*
X74488095Y-184729619D02*
X74535714Y-184682000D01*
X74630952Y-184634381D01*
X74869048Y-184634381D01*
X74964286Y-184682000D01*
X75011905Y-184729619D01*
X75059524Y-184824857D01*
X75059524Y-184920095D01*
X75011905Y-185062952D01*
X74440476Y-185634381D01*
X75059524Y-185634381D01*
X75392857Y-184634381D02*
X76011905Y-184634381D01*
X75678571Y-185015333D01*
X75821429Y-185015333D01*
X75916667Y-185062952D01*
X75964286Y-185110571D01*
X76011905Y-185205810D01*
X76011905Y-185443905D01*
X75964286Y-185539143D01*
X75916667Y-185586762D01*
X75821429Y-185634381D01*
X75535714Y-185634381D01*
X75440476Y-185586762D01*
X75392857Y-185539143D01*
X93285714Y-188634381D02*
X93285714Y-187634381D01*
X93857143Y-188634381D02*
X93428571Y-188062952D01*
X93857143Y-187634381D02*
X93285714Y-188205810D01*
X94238095Y-187729619D02*
X94285714Y-187682000D01*
X94380952Y-187634381D01*
X94619048Y-187634381D01*
X94714286Y-187682000D01*
X94761905Y-187729619D01*
X94809524Y-187824857D01*
X94809524Y-187920095D01*
X94761905Y-188062952D01*
X94190476Y-188634381D01*
X94809524Y-188634381D01*
X95666667Y-187967714D02*
X95666667Y-188634381D01*
X95428571Y-187586762D02*
X95190476Y-188301048D01*
X95809524Y-188301048D01*
X113035714Y-185634381D02*
X113035714Y-184634381D01*
X113607143Y-185634381D02*
X113178571Y-185062952D01*
X113607143Y-184634381D02*
X113035714Y-185205810D01*
X113988095Y-184729619D02*
X114035714Y-184682000D01*
X114130952Y-184634381D01*
X114369048Y-184634381D01*
X114464286Y-184682000D01*
X114511905Y-184729619D01*
X114559524Y-184824857D01*
X114559524Y-184920095D01*
X114511905Y-185062952D01*
X113940476Y-185634381D01*
X114559524Y-185634381D01*
X115464286Y-184634381D02*
X114988095Y-184634381D01*
X114940476Y-185110571D01*
X114988095Y-185062952D01*
X115083333Y-185015333D01*
X115321429Y-185015333D01*
X115416667Y-185062952D01*
X115464286Y-185110571D01*
X115511905Y-185205810D01*
X115511905Y-185443905D01*
X115464286Y-185539143D01*
X115416667Y-185586762D01*
X115321429Y-185634381D01*
X115083333Y-185634381D01*
X114988095Y-185586762D01*
X114940476Y-185539143D01*
X132785714Y-180634381D02*
X132785714Y-179634381D01*
X133357143Y-180634381D02*
X132928571Y-180062952D01*
X133357143Y-179634381D02*
X132785714Y-180205810D01*
X133738095Y-179729619D02*
X133785714Y-179682000D01*
X133880952Y-179634381D01*
X134119048Y-179634381D01*
X134214286Y-179682000D01*
X134261905Y-179729619D01*
X134309524Y-179824857D01*
X134309524Y-179920095D01*
X134261905Y-180062952D01*
X133690476Y-180634381D01*
X134309524Y-180634381D01*
X135166667Y-179634381D02*
X134976190Y-179634381D01*
X134880952Y-179682000D01*
X134833333Y-179729619D01*
X134738095Y-179872476D01*
X134690476Y-180062952D01*
X134690476Y-180443905D01*
X134738095Y-180539143D01*
X134785714Y-180586762D01*
X134880952Y-180634381D01*
X135071429Y-180634381D01*
X135166667Y-180586762D01*
X135214286Y-180539143D01*
X135261905Y-180443905D01*
X135261905Y-180205810D01*
X135214286Y-180110571D01*
X135166667Y-180062952D01*
X135071429Y-180015333D01*
X134880952Y-180015333D01*
X134785714Y-180062952D01*
X134738095Y-180110571D01*
X134690476Y-180205810D01*
X152535714Y-180634381D02*
X152535714Y-179634381D01*
X153107143Y-180634381D02*
X152678571Y-180062952D01*
X153107143Y-179634381D02*
X152535714Y-180205810D01*
X153488095Y-179729619D02*
X153535714Y-179682000D01*
X153630952Y-179634381D01*
X153869048Y-179634381D01*
X153964286Y-179682000D01*
X154011905Y-179729619D01*
X154059524Y-179824857D01*
X154059524Y-179920095D01*
X154011905Y-180062952D01*
X153440476Y-180634381D01*
X154059524Y-180634381D01*
X154392857Y-179634381D02*
X155059524Y-179634381D01*
X154630952Y-180634381D01*
X53785714Y-163384381D02*
X53785714Y-162384381D01*
X54357143Y-163384381D02*
X53928571Y-162812952D01*
X54357143Y-162384381D02*
X53785714Y-162955810D01*
X54738095Y-162479619D02*
X54785714Y-162432000D01*
X54880952Y-162384381D01*
X55119048Y-162384381D01*
X55214286Y-162432000D01*
X55261905Y-162479619D01*
X55309524Y-162574857D01*
X55309524Y-162670095D01*
X55261905Y-162812952D01*
X54690476Y-163384381D01*
X55309524Y-163384381D01*
X55880952Y-162812952D02*
X55785714Y-162765333D01*
X55738095Y-162717714D01*
X55690476Y-162622476D01*
X55690476Y-162574857D01*
X55738095Y-162479619D01*
X55785714Y-162432000D01*
X55880952Y-162384381D01*
X56071429Y-162384381D01*
X56166667Y-162432000D01*
X56214286Y-162479619D01*
X56261905Y-162574857D01*
X56261905Y-162622476D01*
X56214286Y-162717714D01*
X56166667Y-162765333D01*
X56071429Y-162812952D01*
X55880952Y-162812952D01*
X55785714Y-162860571D01*
X55738095Y-162908190D01*
X55690476Y-163003429D01*
X55690476Y-163193905D01*
X55738095Y-163289143D01*
X55785714Y-163336762D01*
X55880952Y-163384381D01*
X56071429Y-163384381D01*
X56166667Y-163336762D01*
X56214286Y-163289143D01*
X56261905Y-163193905D01*
X56261905Y-163003429D01*
X56214286Y-162908190D01*
X56166667Y-162860571D01*
X56071429Y-162812952D01*
X73535714Y-165884381D02*
X73535714Y-164884381D01*
X74107143Y-165884381D02*
X73678571Y-165312952D01*
X74107143Y-164884381D02*
X73535714Y-165455810D01*
X74488095Y-164979619D02*
X74535714Y-164932000D01*
X74630952Y-164884381D01*
X74869048Y-164884381D01*
X74964286Y-164932000D01*
X75011905Y-164979619D01*
X75059524Y-165074857D01*
X75059524Y-165170095D01*
X75011905Y-165312952D01*
X74440476Y-165884381D01*
X75059524Y-165884381D01*
X75535714Y-165884381D02*
X75726190Y-165884381D01*
X75821429Y-165836762D01*
X75869048Y-165789143D01*
X75964286Y-165646286D01*
X76011905Y-165455810D01*
X76011905Y-165074857D01*
X75964286Y-164979619D01*
X75916667Y-164932000D01*
X75821429Y-164884381D01*
X75630952Y-164884381D01*
X75535714Y-164932000D01*
X75488095Y-164979619D01*
X75440476Y-165074857D01*
X75440476Y-165312952D01*
X75488095Y-165408190D01*
X75535714Y-165455810D01*
X75630952Y-165503429D01*
X75821429Y-165503429D01*
X75916667Y-165455810D01*
X75964286Y-165408190D01*
X76011905Y-165312952D01*
X93285714Y-168384381D02*
X93285714Y-167384381D01*
X93857143Y-168384381D02*
X93428571Y-167812952D01*
X93857143Y-167384381D02*
X93285714Y-167955810D01*
X94190476Y-167384381D02*
X94809524Y-167384381D01*
X94476190Y-167765333D01*
X94619048Y-167765333D01*
X94714286Y-167812952D01*
X94761905Y-167860571D01*
X94809524Y-167955810D01*
X94809524Y-168193905D01*
X94761905Y-168289143D01*
X94714286Y-168336762D01*
X94619048Y-168384381D01*
X94333333Y-168384381D01*
X94238095Y-168336762D01*
X94190476Y-168289143D01*
X95428571Y-167384381D02*
X95523810Y-167384381D01*
X95619048Y-167432000D01*
X95666667Y-167479619D01*
X95714286Y-167574857D01*
X95761905Y-167765333D01*
X95761905Y-168003429D01*
X95714286Y-168193905D01*
X95666667Y-168289143D01*
X95619048Y-168336762D01*
X95523810Y-168384381D01*
X95428571Y-168384381D01*
X95333333Y-168336762D01*
X95285714Y-168289143D01*
X95238095Y-168193905D01*
X95190476Y-168003429D01*
X95190476Y-167765333D01*
X95238095Y-167574857D01*
X95285714Y-167479619D01*
X95333333Y-167432000D01*
X95428571Y-167384381D01*
X113035714Y-165884381D02*
X113035714Y-164884381D01*
X113607143Y-165884381D02*
X113178571Y-165312952D01*
X113607143Y-164884381D02*
X113035714Y-165455810D01*
X113940476Y-164884381D02*
X114559524Y-164884381D01*
X114226190Y-165265333D01*
X114369048Y-165265333D01*
X114464286Y-165312952D01*
X114511905Y-165360571D01*
X114559524Y-165455810D01*
X114559524Y-165693905D01*
X114511905Y-165789143D01*
X114464286Y-165836762D01*
X114369048Y-165884381D01*
X114083333Y-165884381D01*
X113988095Y-165836762D01*
X113940476Y-165789143D01*
X115511905Y-165884381D02*
X114940476Y-165884381D01*
X115226190Y-165884381D02*
X115226190Y-164884381D01*
X115130952Y-165027238D01*
X115035714Y-165122476D01*
X114940476Y-165170095D01*
X132785714Y-160884381D02*
X132785714Y-159884381D01*
X133357143Y-160884381D02*
X132928571Y-160312952D01*
X133357143Y-159884381D02*
X132785714Y-160455810D01*
X133690476Y-159884381D02*
X134309524Y-159884381D01*
X133976190Y-160265333D01*
X134119048Y-160265333D01*
X134214286Y-160312952D01*
X134261905Y-160360571D01*
X134309524Y-160455810D01*
X134309524Y-160693905D01*
X134261905Y-160789143D01*
X134214286Y-160836762D01*
X134119048Y-160884381D01*
X133833333Y-160884381D01*
X133738095Y-160836762D01*
X133690476Y-160789143D01*
X134690476Y-159979619D02*
X134738095Y-159932000D01*
X134833333Y-159884381D01*
X135071429Y-159884381D01*
X135166667Y-159932000D01*
X135214286Y-159979619D01*
X135261905Y-160074857D01*
X135261905Y-160170095D01*
X135214286Y-160312952D01*
X134642857Y-160884381D01*
X135261905Y-160884381D01*
X152535714Y-160884381D02*
X152535714Y-159884381D01*
X153107143Y-160884381D02*
X152678571Y-160312952D01*
X153107143Y-159884381D02*
X152535714Y-160455810D01*
X153440476Y-159884381D02*
X154059524Y-159884381D01*
X153726190Y-160265333D01*
X153869048Y-160265333D01*
X153964286Y-160312952D01*
X154011905Y-160360571D01*
X154059524Y-160455810D01*
X154059524Y-160693905D01*
X154011905Y-160789143D01*
X153964286Y-160836762D01*
X153869048Y-160884381D01*
X153583333Y-160884381D01*
X153488095Y-160836762D01*
X153440476Y-160789143D01*
X154392857Y-159884381D02*
X155011905Y-159884381D01*
X154678571Y-160265333D01*
X154821429Y-160265333D01*
X154916667Y-160312952D01*
X154964286Y-160360571D01*
X155011905Y-160455810D01*
X155011905Y-160693905D01*
X154964286Y-160789143D01*
X154916667Y-160836762D01*
X154821429Y-160884381D01*
X154535714Y-160884381D01*
X154440476Y-160836762D01*
X154392857Y-160789143D01*
X53785714Y-143634381D02*
X53785714Y-142634381D01*
X54357143Y-143634381D02*
X53928571Y-143062952D01*
X54357143Y-142634381D02*
X53785714Y-143205810D01*
X54690476Y-142634381D02*
X55309524Y-142634381D01*
X54976190Y-143015333D01*
X55119048Y-143015333D01*
X55214286Y-143062952D01*
X55261905Y-143110571D01*
X55309524Y-143205810D01*
X55309524Y-143443905D01*
X55261905Y-143539143D01*
X55214286Y-143586762D01*
X55119048Y-143634381D01*
X54833333Y-143634381D01*
X54738095Y-143586762D01*
X54690476Y-143539143D01*
X56166667Y-142967714D02*
X56166667Y-143634381D01*
X55928571Y-142586762D02*
X55690476Y-143301048D01*
X56309524Y-143301048D01*
X73535714Y-146134381D02*
X73535714Y-145134381D01*
X74107143Y-146134381D02*
X73678571Y-145562952D01*
X74107143Y-145134381D02*
X73535714Y-145705810D01*
X74440476Y-145134381D02*
X75059524Y-145134381D01*
X74726190Y-145515333D01*
X74869048Y-145515333D01*
X74964286Y-145562952D01*
X75011905Y-145610571D01*
X75059524Y-145705810D01*
X75059524Y-145943905D01*
X75011905Y-146039143D01*
X74964286Y-146086762D01*
X74869048Y-146134381D01*
X74583333Y-146134381D01*
X74488095Y-146086762D01*
X74440476Y-146039143D01*
X75964286Y-145134381D02*
X75488095Y-145134381D01*
X75440476Y-145610571D01*
X75488095Y-145562952D01*
X75583333Y-145515333D01*
X75821429Y-145515333D01*
X75916667Y-145562952D01*
X75964286Y-145610571D01*
X76011905Y-145705810D01*
X76011905Y-145943905D01*
X75964286Y-146039143D01*
X75916667Y-146086762D01*
X75821429Y-146134381D01*
X75583333Y-146134381D01*
X75488095Y-146086762D01*
X75440476Y-146039143D01*
X93285714Y-148634381D02*
X93285714Y-147634381D01*
X93857143Y-148634381D02*
X93428571Y-148062952D01*
X93857143Y-147634381D02*
X93285714Y-148205810D01*
X94190476Y-147634381D02*
X94809524Y-147634381D01*
X94476190Y-148015333D01*
X94619048Y-148015333D01*
X94714286Y-148062952D01*
X94761905Y-148110571D01*
X94809524Y-148205810D01*
X94809524Y-148443905D01*
X94761905Y-148539143D01*
X94714286Y-148586762D01*
X94619048Y-148634381D01*
X94333333Y-148634381D01*
X94238095Y-148586762D01*
X94190476Y-148539143D01*
X95666667Y-147634381D02*
X95476190Y-147634381D01*
X95380952Y-147682000D01*
X95333333Y-147729619D01*
X95238095Y-147872476D01*
X95190476Y-148062952D01*
X95190476Y-148443905D01*
X95238095Y-148539143D01*
X95285714Y-148586762D01*
X95380952Y-148634381D01*
X95571429Y-148634381D01*
X95666667Y-148586762D01*
X95714286Y-148539143D01*
X95761905Y-148443905D01*
X95761905Y-148205810D01*
X95714286Y-148110571D01*
X95666667Y-148062952D01*
X95571429Y-148015333D01*
X95380952Y-148015333D01*
X95285714Y-148062952D01*
X95238095Y-148110571D01*
X95190476Y-148205810D01*
X113035714Y-146134381D02*
X113035714Y-145134381D01*
X113607143Y-146134381D02*
X113178571Y-145562952D01*
X113607143Y-145134381D02*
X113035714Y-145705810D01*
X113940476Y-145134381D02*
X114559524Y-145134381D01*
X114226190Y-145515333D01*
X114369048Y-145515333D01*
X114464286Y-145562952D01*
X114511905Y-145610571D01*
X114559524Y-145705810D01*
X114559524Y-145943905D01*
X114511905Y-146039143D01*
X114464286Y-146086762D01*
X114369048Y-146134381D01*
X114083333Y-146134381D01*
X113988095Y-146086762D01*
X113940476Y-146039143D01*
X114892857Y-145134381D02*
X115559524Y-145134381D01*
X115130952Y-146134381D01*
X132785714Y-141134381D02*
X132785714Y-140134381D01*
X133357143Y-141134381D02*
X132928571Y-140562952D01*
X133357143Y-140134381D02*
X132785714Y-140705810D01*
X133690476Y-140134381D02*
X134309524Y-140134381D01*
X133976190Y-140515333D01*
X134119048Y-140515333D01*
X134214286Y-140562952D01*
X134261905Y-140610571D01*
X134309524Y-140705810D01*
X134309524Y-140943905D01*
X134261905Y-141039143D01*
X134214286Y-141086762D01*
X134119048Y-141134381D01*
X133833333Y-141134381D01*
X133738095Y-141086762D01*
X133690476Y-141039143D01*
X134880952Y-140562952D02*
X134785714Y-140515333D01*
X134738095Y-140467714D01*
X134690476Y-140372476D01*
X134690476Y-140324857D01*
X134738095Y-140229619D01*
X134785714Y-140182000D01*
X134880952Y-140134381D01*
X135071429Y-140134381D01*
X135166667Y-140182000D01*
X135214286Y-140229619D01*
X135261905Y-140324857D01*
X135261905Y-140372476D01*
X135214286Y-140467714D01*
X135166667Y-140515333D01*
X135071429Y-140562952D01*
X134880952Y-140562952D01*
X134785714Y-140610571D01*
X134738095Y-140658190D01*
X134690476Y-140753429D01*
X134690476Y-140943905D01*
X134738095Y-141039143D01*
X134785714Y-141086762D01*
X134880952Y-141134381D01*
X135071429Y-141134381D01*
X135166667Y-141086762D01*
X135214286Y-141039143D01*
X135261905Y-140943905D01*
X135261905Y-140753429D01*
X135214286Y-140658190D01*
X135166667Y-140610571D01*
X135071429Y-140562952D01*
X152535714Y-141134381D02*
X152535714Y-140134381D01*
X153107143Y-141134381D02*
X152678571Y-140562952D01*
X153107143Y-140134381D02*
X152535714Y-140705810D01*
X153440476Y-140134381D02*
X154059524Y-140134381D01*
X153726190Y-140515333D01*
X153869048Y-140515333D01*
X153964286Y-140562952D01*
X154011905Y-140610571D01*
X154059524Y-140705810D01*
X154059524Y-140943905D01*
X154011905Y-141039143D01*
X153964286Y-141086762D01*
X153869048Y-141134381D01*
X153583333Y-141134381D01*
X153488095Y-141086762D01*
X153440476Y-141039143D01*
X154535714Y-141134381D02*
X154726190Y-141134381D01*
X154821429Y-141086762D01*
X154869048Y-141039143D01*
X154964286Y-140896286D01*
X155011905Y-140705810D01*
X155011905Y-140324857D01*
X154964286Y-140229619D01*
X154916667Y-140182000D01*
X154821429Y-140134381D01*
X154630952Y-140134381D01*
X154535714Y-140182000D01*
X154488095Y-140229619D01*
X154440476Y-140324857D01*
X154440476Y-140562952D01*
X154488095Y-140658190D01*
X154535714Y-140705810D01*
X154630952Y-140753429D01*
X154821429Y-140753429D01*
X154916667Y-140705810D01*
X154964286Y-140658190D01*
X155011905Y-140562952D01*
X53785714Y-123884381D02*
X53785714Y-122884381D01*
X54357143Y-123884381D02*
X53928571Y-123312952D01*
X54357143Y-122884381D02*
X53785714Y-123455810D01*
X55214286Y-123217714D02*
X55214286Y-123884381D01*
X54976190Y-122836762D02*
X54738095Y-123551048D01*
X55357143Y-123551048D01*
X55928571Y-122884381D02*
X56023810Y-122884381D01*
X56119048Y-122932000D01*
X56166667Y-122979619D01*
X56214286Y-123074857D01*
X56261905Y-123265333D01*
X56261905Y-123503429D01*
X56214286Y-123693905D01*
X56166667Y-123789143D01*
X56119048Y-123836762D01*
X56023810Y-123884381D01*
X55928571Y-123884381D01*
X55833333Y-123836762D01*
X55785714Y-123789143D01*
X55738095Y-123693905D01*
X55690476Y-123503429D01*
X55690476Y-123265333D01*
X55738095Y-123074857D01*
X55785714Y-122979619D01*
X55833333Y-122932000D01*
X55928571Y-122884381D01*
X73535714Y-126134381D02*
X73535714Y-125134381D01*
X74107143Y-126134381D02*
X73678571Y-125562952D01*
X74107143Y-125134381D02*
X73535714Y-125705810D01*
X74964286Y-125467714D02*
X74964286Y-126134381D01*
X74726190Y-125086762D02*
X74488095Y-125801048D01*
X75107143Y-125801048D01*
X76011905Y-126134381D02*
X75440476Y-126134381D01*
X75726190Y-126134381D02*
X75726190Y-125134381D01*
X75630952Y-125277238D01*
X75535714Y-125372476D01*
X75440476Y-125420095D01*
X34285714Y-108884381D02*
X34285714Y-107884381D01*
X34857143Y-108884381D02*
X34428571Y-108312952D01*
X34857143Y-107884381D02*
X34285714Y-108455810D01*
X35714286Y-108217714D02*
X35714286Y-108884381D01*
X35476190Y-107836762D02*
X35238095Y-108551048D01*
X35857143Y-108551048D01*
X36190476Y-107979619D02*
X36238095Y-107932000D01*
X36333333Y-107884381D01*
X36571429Y-107884381D01*
X36666667Y-107932000D01*
X36714286Y-107979619D01*
X36761905Y-108074857D01*
X36761905Y-108170095D01*
X36714286Y-108312952D01*
X36142857Y-108884381D01*
X36761905Y-108884381D01*
D15*
X145988096Y-34700000D02*
X145892858Y-34652381D01*
X145750001Y-34652381D01*
X145607143Y-34700000D01*
X145511905Y-34795238D01*
X145464286Y-34890476D01*
X145416667Y-35080952D01*
X145416667Y-35223810D01*
X145464286Y-35414286D01*
X145511905Y-35509524D01*
X145607143Y-35604762D01*
X145750001Y-35652381D01*
X145845239Y-35652381D01*
X145988096Y-35604762D01*
X146035715Y-35557143D01*
X146035715Y-35223810D01*
X145845239Y-35223810D01*
X146464286Y-35652381D02*
X146464286Y-34652381D01*
X147035715Y-35652381D01*
X147035715Y-34652381D01*
X147511905Y-35652381D02*
X147511905Y-34652381D01*
X147750000Y-34652381D01*
X147892858Y-34700000D01*
X147988096Y-34795238D01*
X148035715Y-34890476D01*
X148083334Y-35080952D01*
X148083334Y-35223810D01*
X148035715Y-35414286D01*
X147988096Y-35509524D01*
X147892858Y-35604762D01*
X147750000Y-35652381D01*
X147511905Y-35652381D01*
X150619048Y-35652381D02*
X150619048Y-34652381D01*
X150857143Y-34652381D01*
X151000001Y-34700000D01*
X151095239Y-34795238D01*
X151142858Y-34890476D01*
X151190477Y-35080952D01*
X151190477Y-35223810D01*
X151142858Y-35414286D01*
X151095239Y-35509524D01*
X151000001Y-35604762D01*
X150857143Y-35652381D01*
X150619048Y-35652381D01*
X151619048Y-35271429D02*
X152380953Y-35271429D01*
X152000001Y-35652381D02*
X152000001Y-34890476D01*
X155619048Y-35652381D02*
X155619048Y-34652381D01*
X155857143Y-34652381D01*
X156000001Y-34700000D01*
X156095239Y-34795238D01*
X156142858Y-34890476D01*
X156190477Y-35080952D01*
X156190477Y-35223810D01*
X156142858Y-35414286D01*
X156095239Y-35509524D01*
X156000001Y-35604762D01*
X155857143Y-35652381D01*
X155619048Y-35652381D01*
X156619048Y-35271429D02*
X157380953Y-35271429D01*
X160011905Y-35271429D02*
X160773810Y-35271429D01*
X160392858Y-35652381D02*
X160392858Y-34890476D01*
X161726191Y-34652381D02*
X161250000Y-34652381D01*
X161202381Y-35128571D01*
X161250000Y-35080952D01*
X161345238Y-35033333D01*
X161583334Y-35033333D01*
X161678572Y-35080952D01*
X161726191Y-35128571D01*
X161773810Y-35223810D01*
X161773810Y-35461905D01*
X161726191Y-35557143D01*
X161678572Y-35604762D01*
X161583334Y-35652381D01*
X161345238Y-35652381D01*
X161250000Y-35604762D01*
X161202381Y-35557143D01*
X162107143Y-34985714D02*
X162345238Y-35652381D01*
X162583334Y-34985714D01*
M02*
