G04 #@! TF.FileFunction,Legend,Top*
%FSLAX46Y46*%
G04 Gerber Fmt 4.6, Leading zero omitted, Abs format (unit mm)*
G04 Created by KiCad (PCBNEW 4.0.7) date Tue Mar  6 17:21:56 2018*
%MOMM*%
%LPD*%
G01*
G04 APERTURE LIST*
%ADD10C,0.100000*%
%ADD11C,0.381000*%
%ADD12C,0.120000*%
%ADD13C,0.150000*%
%ADD14C,0.203200*%
G04 APERTURE END LIST*
D10*
D11*
X180400000Y-152650000D02*
X182178000Y-152650000D01*
X191322000Y-152650000D02*
X193100000Y-152650000D01*
X193100000Y-152650000D02*
X193100000Y-154428000D01*
X193100000Y-163572000D02*
X193100000Y-165350000D01*
X193100000Y-165350000D02*
X191322000Y-165350000D01*
X182178000Y-165350000D02*
X180400000Y-165350000D01*
X180400000Y-165350000D02*
X180400000Y-163572000D01*
X180400000Y-154428000D02*
X180400000Y-152650000D01*
X61900000Y-120400000D02*
X63678000Y-120400000D01*
X72822000Y-120400000D02*
X74600000Y-120400000D01*
X74600000Y-120400000D02*
X74600000Y-122178000D01*
X74600000Y-131322000D02*
X74600000Y-133100000D01*
X74600000Y-133100000D02*
X72822000Y-133100000D01*
X63678000Y-133100000D02*
X61900000Y-133100000D01*
X61900000Y-133100000D02*
X61900000Y-131322000D01*
X61900000Y-122178000D02*
X61900000Y-120400000D01*
D12*
X186250000Y-77120000D02*
X184750000Y-77120000D01*
X184750000Y-77120000D02*
X184750000Y-69860000D01*
X194250000Y-77120000D02*
X194250000Y-69860000D01*
X194250000Y-77120000D02*
X192750000Y-77120000D01*
X200630000Y-137250000D02*
X200630000Y-135750000D01*
X200630000Y-135750000D02*
X207890000Y-135750000D01*
X200630000Y-145250000D02*
X207890000Y-145250000D01*
X200630000Y-145250000D02*
X200630000Y-143750000D01*
D11*
X61900000Y-80900000D02*
X63678000Y-80900000D01*
X72822000Y-80900000D02*
X74600000Y-80900000D01*
X74600000Y-80900000D02*
X74600000Y-82678000D01*
X74600000Y-91822000D02*
X74600000Y-93600000D01*
X74600000Y-93600000D02*
X72822000Y-93600000D01*
X63678000Y-93600000D02*
X61900000Y-93600000D01*
X61900000Y-93600000D02*
X61900000Y-91822000D01*
X61900000Y-82678000D02*
X61900000Y-80900000D01*
X81650000Y-80900000D02*
X83428000Y-80900000D01*
X92572000Y-80900000D02*
X94350000Y-80900000D01*
X94350000Y-80900000D02*
X94350000Y-82678000D01*
X94350000Y-91822000D02*
X94350000Y-93600000D01*
X94350000Y-93600000D02*
X92572000Y-93600000D01*
X83428000Y-93600000D02*
X81650000Y-93600000D01*
X81650000Y-93600000D02*
X81650000Y-91822000D01*
X81650000Y-82678000D02*
X81650000Y-80900000D01*
X101400000Y-75900000D02*
X103178000Y-75900000D01*
X112322000Y-75900000D02*
X114100000Y-75900000D01*
X114100000Y-75900000D02*
X114100000Y-77678000D01*
X114100000Y-86822000D02*
X114100000Y-88600000D01*
X114100000Y-88600000D02*
X112322000Y-88600000D01*
X103178000Y-88600000D02*
X101400000Y-88600000D01*
X101400000Y-88600000D02*
X101400000Y-86822000D01*
X101400000Y-77678000D02*
X101400000Y-75900000D01*
X121150000Y-72900000D02*
X122928000Y-72900000D01*
X132072000Y-72900000D02*
X133850000Y-72900000D01*
X133850000Y-72900000D02*
X133850000Y-74678000D01*
X133850000Y-83822000D02*
X133850000Y-85600000D01*
X133850000Y-85600000D02*
X132072000Y-85600000D01*
X122928000Y-85600000D02*
X121150000Y-85600000D01*
X121150000Y-85600000D02*
X121150000Y-83822000D01*
X121150000Y-74678000D02*
X121150000Y-72900000D01*
X140900000Y-75900000D02*
X142678000Y-75900000D01*
X151822000Y-75900000D02*
X153600000Y-75900000D01*
X153600000Y-75900000D02*
X153600000Y-77678000D01*
X153600000Y-86822000D02*
X153600000Y-88600000D01*
X153600000Y-88600000D02*
X151822000Y-88600000D01*
X142678000Y-88600000D02*
X140900000Y-88600000D01*
X140900000Y-88600000D02*
X140900000Y-86822000D01*
X140900000Y-77678000D02*
X140900000Y-75900000D01*
X160650000Y-78400000D02*
X162428000Y-78400000D01*
X171572000Y-78400000D02*
X173350000Y-78400000D01*
X173350000Y-78400000D02*
X173350000Y-80178000D01*
X173350000Y-89322000D02*
X173350000Y-91100000D01*
X173350000Y-91100000D02*
X171572000Y-91100000D01*
X162428000Y-91100000D02*
X160650000Y-91100000D01*
X160650000Y-91100000D02*
X160650000Y-89322000D01*
X160650000Y-80178000D02*
X160650000Y-78400000D01*
X61900000Y-100650000D02*
X63678000Y-100650000D01*
X72822000Y-100650000D02*
X74600000Y-100650000D01*
X74600000Y-100650000D02*
X74600000Y-102428000D01*
X74600000Y-111572000D02*
X74600000Y-113350000D01*
X74600000Y-113350000D02*
X72822000Y-113350000D01*
X63678000Y-113350000D02*
X61900000Y-113350000D01*
X61900000Y-113350000D02*
X61900000Y-111572000D01*
X61900000Y-102428000D02*
X61900000Y-100650000D01*
X81650000Y-100650000D02*
X83428000Y-100650000D01*
X92572000Y-100650000D02*
X94350000Y-100650000D01*
X94350000Y-100650000D02*
X94350000Y-102428000D01*
X94350000Y-111572000D02*
X94350000Y-113350000D01*
X94350000Y-113350000D02*
X92572000Y-113350000D01*
X83428000Y-113350000D02*
X81650000Y-113350000D01*
X81650000Y-113350000D02*
X81650000Y-111572000D01*
X81650000Y-102428000D02*
X81650000Y-100650000D01*
X101400000Y-95650000D02*
X103178000Y-95650000D01*
X112322000Y-95650000D02*
X114100000Y-95650000D01*
X114100000Y-95650000D02*
X114100000Y-97428000D01*
X114100000Y-106572000D02*
X114100000Y-108350000D01*
X114100000Y-108350000D02*
X112322000Y-108350000D01*
X103178000Y-108350000D02*
X101400000Y-108350000D01*
X101400000Y-108350000D02*
X101400000Y-106572000D01*
X101400000Y-97428000D02*
X101400000Y-95650000D01*
X121150000Y-93150000D02*
X122928000Y-93150000D01*
X132072000Y-93150000D02*
X133850000Y-93150000D01*
X133850000Y-93150000D02*
X133850000Y-94928000D01*
X133850000Y-104072000D02*
X133850000Y-105850000D01*
X133850000Y-105850000D02*
X132072000Y-105850000D01*
X122928000Y-105850000D02*
X121150000Y-105850000D01*
X121150000Y-105850000D02*
X121150000Y-104072000D01*
X121150000Y-94928000D02*
X121150000Y-93150000D01*
X140900000Y-95650000D02*
X142678000Y-95650000D01*
X151822000Y-95650000D02*
X153600000Y-95650000D01*
X153600000Y-95650000D02*
X153600000Y-97428000D01*
X153600000Y-106572000D02*
X153600000Y-108350000D01*
X153600000Y-108350000D02*
X151822000Y-108350000D01*
X142678000Y-108350000D02*
X140900000Y-108350000D01*
X140900000Y-108350000D02*
X140900000Y-106572000D01*
X140900000Y-97428000D02*
X140900000Y-95650000D01*
X160650000Y-98150000D02*
X162428000Y-98150000D01*
X171572000Y-98150000D02*
X173350000Y-98150000D01*
X173350000Y-98150000D02*
X173350000Y-99928000D01*
X173350000Y-109072000D02*
X173350000Y-110850000D01*
X173350000Y-110850000D02*
X171572000Y-110850000D01*
X162428000Y-110850000D02*
X160650000Y-110850000D01*
X160650000Y-110850000D02*
X160650000Y-109072000D01*
X160650000Y-99928000D02*
X160650000Y-98150000D01*
X81650000Y-120400000D02*
X83428000Y-120400000D01*
X92572000Y-120400000D02*
X94350000Y-120400000D01*
X94350000Y-120400000D02*
X94350000Y-122178000D01*
X94350000Y-131322000D02*
X94350000Y-133100000D01*
X94350000Y-133100000D02*
X92572000Y-133100000D01*
X83428000Y-133100000D02*
X81650000Y-133100000D01*
X81650000Y-133100000D02*
X81650000Y-131322000D01*
X81650000Y-122178000D02*
X81650000Y-120400000D01*
X101400000Y-115400000D02*
X103178000Y-115400000D01*
X112322000Y-115400000D02*
X114100000Y-115400000D01*
X114100000Y-115400000D02*
X114100000Y-117178000D01*
X114100000Y-126322000D02*
X114100000Y-128100000D01*
X114100000Y-128100000D02*
X112322000Y-128100000D01*
X103178000Y-128100000D02*
X101400000Y-128100000D01*
X101400000Y-128100000D02*
X101400000Y-126322000D01*
X101400000Y-117178000D02*
X101400000Y-115400000D01*
X121150000Y-112900000D02*
X122928000Y-112900000D01*
X132072000Y-112900000D02*
X133850000Y-112900000D01*
X133850000Y-112900000D02*
X133850000Y-114678000D01*
X133850000Y-123822000D02*
X133850000Y-125600000D01*
X133850000Y-125600000D02*
X132072000Y-125600000D01*
X122928000Y-125600000D02*
X121150000Y-125600000D01*
X121150000Y-125600000D02*
X121150000Y-123822000D01*
X121150000Y-114678000D02*
X121150000Y-112900000D01*
X140900000Y-115400000D02*
X142678000Y-115400000D01*
X151822000Y-115400000D02*
X153600000Y-115400000D01*
X153600000Y-115400000D02*
X153600000Y-117178000D01*
X153600000Y-126322000D02*
X153600000Y-128100000D01*
X153600000Y-128100000D02*
X151822000Y-128100000D01*
X142678000Y-128100000D02*
X140900000Y-128100000D01*
X140900000Y-128100000D02*
X140900000Y-126322000D01*
X140900000Y-117178000D02*
X140900000Y-115400000D01*
X160650000Y-117900000D02*
X162428000Y-117900000D01*
X171572000Y-117900000D02*
X173350000Y-117900000D01*
X173350000Y-117900000D02*
X173350000Y-119678000D01*
X173350000Y-128822000D02*
X173350000Y-130600000D01*
X173350000Y-130600000D02*
X171572000Y-130600000D01*
X162428000Y-130600000D02*
X160650000Y-130600000D01*
X160650000Y-130600000D02*
X160650000Y-128822000D01*
X160650000Y-119678000D02*
X160650000Y-117900000D01*
X140900000Y-135400000D02*
X142678000Y-135400000D01*
X151822000Y-135400000D02*
X153600000Y-135400000D01*
X153600000Y-135400000D02*
X153600000Y-137178000D01*
X153600000Y-146322000D02*
X153600000Y-148100000D01*
X153600000Y-148100000D02*
X151822000Y-148100000D01*
X142678000Y-148100000D02*
X140900000Y-148100000D01*
X140900000Y-148100000D02*
X140900000Y-146322000D01*
X140900000Y-137178000D02*
X140900000Y-135400000D01*
X160650000Y-137650000D02*
X162428000Y-137650000D01*
X171572000Y-137650000D02*
X173350000Y-137650000D01*
X173350000Y-137650000D02*
X173350000Y-139428000D01*
X173350000Y-148572000D02*
X173350000Y-150350000D01*
X173350000Y-150350000D02*
X171572000Y-150350000D01*
X162428000Y-150350000D02*
X160650000Y-150350000D01*
X160650000Y-150350000D02*
X160650000Y-148572000D01*
X160650000Y-139428000D02*
X160650000Y-137650000D01*
X201390000Y-97260000D02*
X183610000Y-97260000D01*
X183610000Y-97260000D02*
X183610000Y-127740000D01*
X183610000Y-127740000D02*
X201390000Y-127740000D01*
X201390000Y-127740000D02*
X201390000Y-97260000D01*
X186150000Y-97260000D02*
X186150000Y-99800000D01*
X186150000Y-99800000D02*
X183610000Y-99800000D01*
D12*
X228620000Y-143750000D02*
X228620000Y-145250000D01*
X228620000Y-145250000D02*
X221360000Y-145250000D01*
X228620000Y-135750000D02*
X221360000Y-135750000D01*
X228620000Y-135750000D02*
X228620000Y-137250000D01*
D11*
X255650000Y-78400000D02*
X257428000Y-78400000D01*
X266572000Y-78400000D02*
X268350000Y-78400000D01*
X268350000Y-78400000D02*
X268350000Y-80178000D01*
X268350000Y-89322000D02*
X268350000Y-91100000D01*
X268350000Y-91100000D02*
X266572000Y-91100000D01*
X257428000Y-91100000D02*
X255650000Y-91100000D01*
X255650000Y-91100000D02*
X255650000Y-89322000D01*
X255650000Y-80178000D02*
X255650000Y-78400000D01*
X275400000Y-75900000D02*
X277178000Y-75900000D01*
X286322000Y-75900000D02*
X288100000Y-75900000D01*
X288100000Y-75900000D02*
X288100000Y-77678000D01*
X288100000Y-86822000D02*
X288100000Y-88600000D01*
X288100000Y-88600000D02*
X286322000Y-88600000D01*
X277178000Y-88600000D02*
X275400000Y-88600000D01*
X275400000Y-88600000D02*
X275400000Y-86822000D01*
X275400000Y-77678000D02*
X275400000Y-75900000D01*
X295150000Y-72900000D02*
X296928000Y-72900000D01*
X306072000Y-72900000D02*
X307850000Y-72900000D01*
X307850000Y-72900000D02*
X307850000Y-74678000D01*
X307850000Y-83822000D02*
X307850000Y-85600000D01*
X307850000Y-85600000D02*
X306072000Y-85600000D01*
X296928000Y-85600000D02*
X295150000Y-85600000D01*
X295150000Y-85600000D02*
X295150000Y-83822000D01*
X295150000Y-74678000D02*
X295150000Y-72900000D01*
X314900000Y-75900000D02*
X316678000Y-75900000D01*
X325822000Y-75900000D02*
X327600000Y-75900000D01*
X327600000Y-75900000D02*
X327600000Y-77678000D01*
X327600000Y-86822000D02*
X327600000Y-88600000D01*
X327600000Y-88600000D02*
X325822000Y-88600000D01*
X316678000Y-88600000D02*
X314900000Y-88600000D01*
X314900000Y-88600000D02*
X314900000Y-86822000D01*
X314900000Y-77678000D02*
X314900000Y-75900000D01*
X334650000Y-80900000D02*
X336428000Y-80900000D01*
X345572000Y-80900000D02*
X347350000Y-80900000D01*
X347350000Y-80900000D02*
X347350000Y-82678000D01*
X347350000Y-91822000D02*
X347350000Y-93600000D01*
X347350000Y-93600000D02*
X345572000Y-93600000D01*
X336428000Y-93600000D02*
X334650000Y-93600000D01*
X334650000Y-93600000D02*
X334650000Y-91822000D01*
X334650000Y-82678000D02*
X334650000Y-80900000D01*
X354400000Y-80900000D02*
X356178000Y-80900000D01*
X365322000Y-80900000D02*
X367100000Y-80900000D01*
X367100000Y-80900000D02*
X367100000Y-82678000D01*
X367100000Y-91822000D02*
X367100000Y-93600000D01*
X367100000Y-93600000D02*
X365322000Y-93600000D01*
X356178000Y-93600000D02*
X354400000Y-93600000D01*
X354400000Y-93600000D02*
X354400000Y-91822000D01*
X354400000Y-82678000D02*
X354400000Y-80900000D01*
X255650000Y-98150000D02*
X257428000Y-98150000D01*
X266572000Y-98150000D02*
X268350000Y-98150000D01*
X268350000Y-98150000D02*
X268350000Y-99928000D01*
X268350000Y-109072000D02*
X268350000Y-110850000D01*
X268350000Y-110850000D02*
X266572000Y-110850000D01*
X257428000Y-110850000D02*
X255650000Y-110850000D01*
X255650000Y-110850000D02*
X255650000Y-109072000D01*
X255650000Y-99928000D02*
X255650000Y-98150000D01*
X275400000Y-95650000D02*
X277178000Y-95650000D01*
X286322000Y-95650000D02*
X288100000Y-95650000D01*
X288100000Y-95650000D02*
X288100000Y-97428000D01*
X288100000Y-106572000D02*
X288100000Y-108350000D01*
X288100000Y-108350000D02*
X286322000Y-108350000D01*
X277178000Y-108350000D02*
X275400000Y-108350000D01*
X275400000Y-108350000D02*
X275400000Y-106572000D01*
X275400000Y-97428000D02*
X275400000Y-95650000D01*
X295150000Y-93150000D02*
X296928000Y-93150000D01*
X306072000Y-93150000D02*
X307850000Y-93150000D01*
X307850000Y-93150000D02*
X307850000Y-94928000D01*
X307850000Y-104072000D02*
X307850000Y-105850000D01*
X307850000Y-105850000D02*
X306072000Y-105850000D01*
X296928000Y-105850000D02*
X295150000Y-105850000D01*
X295150000Y-105850000D02*
X295150000Y-104072000D01*
X295150000Y-94928000D02*
X295150000Y-93150000D01*
X314900000Y-95650000D02*
X316678000Y-95650000D01*
X325822000Y-95650000D02*
X327600000Y-95650000D01*
X327600000Y-95650000D02*
X327600000Y-97428000D01*
X327600000Y-106572000D02*
X327600000Y-108350000D01*
X327600000Y-108350000D02*
X325822000Y-108350000D01*
X316678000Y-108350000D02*
X314900000Y-108350000D01*
X314900000Y-108350000D02*
X314900000Y-106572000D01*
X314900000Y-97428000D02*
X314900000Y-95650000D01*
X334650000Y-100650000D02*
X336428000Y-100650000D01*
X345572000Y-100650000D02*
X347350000Y-100650000D01*
X347350000Y-100650000D02*
X347350000Y-102428000D01*
X347350000Y-111572000D02*
X347350000Y-113350000D01*
X347350000Y-113350000D02*
X345572000Y-113350000D01*
X336428000Y-113350000D02*
X334650000Y-113350000D01*
X334650000Y-113350000D02*
X334650000Y-111572000D01*
X334650000Y-102428000D02*
X334650000Y-100650000D01*
X354400000Y-100650000D02*
X356178000Y-100650000D01*
X365322000Y-100650000D02*
X367100000Y-100650000D01*
X367100000Y-100650000D02*
X367100000Y-102428000D01*
X367100000Y-111572000D02*
X367100000Y-113350000D01*
X367100000Y-113350000D02*
X365322000Y-113350000D01*
X356178000Y-113350000D02*
X354400000Y-113350000D01*
X354400000Y-113350000D02*
X354400000Y-111572000D01*
X354400000Y-102428000D02*
X354400000Y-100650000D01*
X255650000Y-117900000D02*
X257428000Y-117900000D01*
X266572000Y-117900000D02*
X268350000Y-117900000D01*
X268350000Y-117900000D02*
X268350000Y-119678000D01*
X268350000Y-128822000D02*
X268350000Y-130600000D01*
X268350000Y-130600000D02*
X266572000Y-130600000D01*
X257428000Y-130600000D02*
X255650000Y-130600000D01*
X255650000Y-130600000D02*
X255650000Y-128822000D01*
X255650000Y-119678000D02*
X255650000Y-117900000D01*
X275400000Y-115400000D02*
X277178000Y-115400000D01*
X286322000Y-115400000D02*
X288100000Y-115400000D01*
X288100000Y-115400000D02*
X288100000Y-117178000D01*
X288100000Y-126322000D02*
X288100000Y-128100000D01*
X288100000Y-128100000D02*
X286322000Y-128100000D01*
X277178000Y-128100000D02*
X275400000Y-128100000D01*
X275400000Y-128100000D02*
X275400000Y-126322000D01*
X275400000Y-117178000D02*
X275400000Y-115400000D01*
X295150000Y-112900000D02*
X296928000Y-112900000D01*
X306072000Y-112900000D02*
X307850000Y-112900000D01*
X307850000Y-112900000D02*
X307850000Y-114678000D01*
X307850000Y-123822000D02*
X307850000Y-125600000D01*
X307850000Y-125600000D02*
X306072000Y-125600000D01*
X296928000Y-125600000D02*
X295150000Y-125600000D01*
X295150000Y-125600000D02*
X295150000Y-123822000D01*
X295150000Y-114678000D02*
X295150000Y-112900000D01*
X314900000Y-115400000D02*
X316678000Y-115400000D01*
X325822000Y-115400000D02*
X327600000Y-115400000D01*
X327600000Y-115400000D02*
X327600000Y-117178000D01*
X327600000Y-126322000D02*
X327600000Y-128100000D01*
X327600000Y-128100000D02*
X325822000Y-128100000D01*
X316678000Y-128100000D02*
X314900000Y-128100000D01*
X314900000Y-128100000D02*
X314900000Y-126322000D01*
X314900000Y-117178000D02*
X314900000Y-115400000D01*
X334650000Y-120400000D02*
X336428000Y-120400000D01*
X345572000Y-120400000D02*
X347350000Y-120400000D01*
X347350000Y-120400000D02*
X347350000Y-122178000D01*
X347350000Y-131322000D02*
X347350000Y-133100000D01*
X347350000Y-133100000D02*
X345572000Y-133100000D01*
X336428000Y-133100000D02*
X334650000Y-133100000D01*
X334650000Y-133100000D02*
X334650000Y-131322000D01*
X334650000Y-122178000D02*
X334650000Y-120400000D01*
X354400000Y-120400000D02*
X356178000Y-120400000D01*
X365322000Y-120400000D02*
X367100000Y-120400000D01*
X367100000Y-120400000D02*
X367100000Y-122178000D01*
X367100000Y-131322000D02*
X367100000Y-133100000D01*
X367100000Y-133100000D02*
X365322000Y-133100000D01*
X356178000Y-133100000D02*
X354400000Y-133100000D01*
X354400000Y-133100000D02*
X354400000Y-131322000D01*
X354400000Y-122178000D02*
X354400000Y-120400000D01*
X255650000Y-137650000D02*
X257428000Y-137650000D01*
X266572000Y-137650000D02*
X268350000Y-137650000D01*
X268350000Y-137650000D02*
X268350000Y-139428000D01*
X268350000Y-148572000D02*
X268350000Y-150350000D01*
X268350000Y-150350000D02*
X266572000Y-150350000D01*
X257428000Y-150350000D02*
X255650000Y-150350000D01*
X255650000Y-150350000D02*
X255650000Y-148572000D01*
X255650000Y-139428000D02*
X255650000Y-137650000D01*
X275400000Y-135400000D02*
X277178000Y-135400000D01*
X286322000Y-135400000D02*
X288100000Y-135400000D01*
X288100000Y-135400000D02*
X288100000Y-137178000D01*
X288100000Y-146322000D02*
X288100000Y-148100000D01*
X288100000Y-148100000D02*
X286322000Y-148100000D01*
X277178000Y-148100000D02*
X275400000Y-148100000D01*
X275400000Y-148100000D02*
X275400000Y-146322000D01*
X275400000Y-137178000D02*
X275400000Y-135400000D01*
X234900000Y-152650000D02*
X236678000Y-152650000D01*
X245822000Y-152650000D02*
X247600000Y-152650000D01*
X247600000Y-152650000D02*
X247600000Y-154428000D01*
X247600000Y-163572000D02*
X247600000Y-165350000D01*
X247600000Y-165350000D02*
X245822000Y-165350000D01*
X236678000Y-165350000D02*
X234900000Y-165350000D01*
X234900000Y-165350000D02*
X234900000Y-163572000D01*
X234900000Y-154428000D02*
X234900000Y-152650000D01*
D13*
X189166667Y-77562381D02*
X189166667Y-78276667D01*
X189119047Y-78419524D01*
X189023809Y-78514762D01*
X188880952Y-78562381D01*
X188785714Y-78562381D01*
X190166667Y-78562381D02*
X189595238Y-78562381D01*
X189880952Y-78562381D02*
X189880952Y-77562381D01*
X189785714Y-77705238D01*
X189690476Y-77800476D01*
X189595238Y-77848095D01*
X199092381Y-140833333D02*
X199806667Y-140833333D01*
X199949524Y-140880953D01*
X200044762Y-140976191D01*
X200092381Y-141119048D01*
X200092381Y-141214286D01*
X199187619Y-140404762D02*
X199140000Y-140357143D01*
X199092381Y-140261905D01*
X199092381Y-140023809D01*
X199140000Y-139928571D01*
X199187619Y-139880952D01*
X199282857Y-139833333D01*
X199378095Y-139833333D01*
X199520952Y-139880952D01*
X200092381Y-140452381D01*
X200092381Y-139833333D01*
D14*
X190179524Y-113661143D02*
X191207619Y-113661143D01*
X191328571Y-113588571D01*
X191389048Y-113516000D01*
X191449524Y-113370857D01*
X191449524Y-113080571D01*
X191389048Y-112935429D01*
X191328571Y-112862857D01*
X191207619Y-112790286D01*
X190179524Y-112790286D01*
X191449524Y-111266286D02*
X191449524Y-112137143D01*
X191449524Y-111701715D02*
X190179524Y-111701715D01*
X190360952Y-111846858D01*
X190481905Y-111992000D01*
X190542381Y-112137143D01*
D13*
X229062381Y-140833333D02*
X229776667Y-140833333D01*
X229919524Y-140880953D01*
X230014762Y-140976191D01*
X230062381Y-141119048D01*
X230062381Y-141214286D01*
X229062381Y-140452381D02*
X229062381Y-139833333D01*
X229443333Y-140166667D01*
X229443333Y-140023809D01*
X229490952Y-139928571D01*
X229538571Y-139880952D01*
X229633810Y-139833333D01*
X229871905Y-139833333D01*
X229967143Y-139880952D01*
X230014762Y-139928571D01*
X230062381Y-140023809D01*
X230062381Y-140309524D01*
X230014762Y-140404762D01*
X229967143Y-140452381D01*
X184511905Y-85771429D02*
X185273810Y-85771429D01*
X184892858Y-86152381D02*
X184892858Y-85390476D01*
X186226191Y-85152381D02*
X185750000Y-85152381D01*
X185702381Y-85628571D01*
X185750000Y-85580952D01*
X185845238Y-85533333D01*
X186083334Y-85533333D01*
X186178572Y-85580952D01*
X186226191Y-85628571D01*
X186273810Y-85723810D01*
X186273810Y-85961905D01*
X186226191Y-86057143D01*
X186178572Y-86104762D01*
X186083334Y-86152381D01*
X185845238Y-86152381D01*
X185750000Y-86104762D01*
X185702381Y-86057143D01*
X186607143Y-85485714D02*
X186845238Y-86152381D01*
X187083334Y-85485714D01*
X189619048Y-86152381D02*
X189619048Y-85152381D01*
X189857143Y-85152381D01*
X190000001Y-85200000D01*
X190095239Y-85295238D01*
X190142858Y-85390476D01*
X190190477Y-85580952D01*
X190190477Y-85723810D01*
X190142858Y-85914286D01*
X190095239Y-86009524D01*
X190000001Y-86104762D01*
X189857143Y-86152381D01*
X189619048Y-86152381D01*
X190619048Y-85771429D02*
X191380953Y-85771429D01*
X191000001Y-86152381D02*
X191000001Y-85390476D01*
X194619048Y-86152381D02*
X194619048Y-85152381D01*
X194857143Y-85152381D01*
X195000001Y-85200000D01*
X195095239Y-85295238D01*
X195142858Y-85390476D01*
X195190477Y-85580952D01*
X195190477Y-85723810D01*
X195142858Y-85914286D01*
X195095239Y-86009524D01*
X195000001Y-86104762D01*
X194857143Y-86152381D01*
X194619048Y-86152381D01*
X195619048Y-85771429D02*
X196380953Y-85771429D01*
X199488096Y-85200000D02*
X199392858Y-85152381D01*
X199250001Y-85152381D01*
X199107143Y-85200000D01*
X199011905Y-85295238D01*
X198964286Y-85390476D01*
X198916667Y-85580952D01*
X198916667Y-85723810D01*
X198964286Y-85914286D01*
X199011905Y-86009524D01*
X199107143Y-86104762D01*
X199250001Y-86152381D01*
X199345239Y-86152381D01*
X199488096Y-86104762D01*
X199535715Y-86057143D01*
X199535715Y-85723810D01*
X199345239Y-85723810D01*
X199964286Y-86152381D02*
X199964286Y-85152381D01*
X200535715Y-86152381D01*
X200535715Y-85152381D01*
X201011905Y-86152381D02*
X201011905Y-85152381D01*
X201250000Y-85152381D01*
X201392858Y-85200000D01*
X201488096Y-85295238D01*
X201535715Y-85390476D01*
X201583334Y-85580952D01*
X201583334Y-85723810D01*
X201535715Y-85914286D01*
X201488096Y-86009524D01*
X201392858Y-86104762D01*
X201250000Y-86152381D01*
X201011905Y-86152381D01*
M02*
