M48
;DRILL file {KiCad 4.0.7} date Tue Mar  6 17:21:01 2018
;FORMAT={-:-/ absolute / inch / decimal}
FMAT,2
INCH,TZ
T1C0.016
T2C0.020
T3C0.028
T4C0.043
T5C0.059
T6C0.026
T7C0.067
T8C0.138
T9C0.157
%
G90
G05
M72
T1
X2.5492Y-3.8484
X3.3305Y-3.878
X4.1142Y-3.6319
X4.8856Y-4.311
X6.1981Y-5.2979
X6.8504Y-5.2657
X7.0276Y-5.4429
X7.0965Y-4.2815
X7.1457Y-5.3248
X7.1654Y-5.0197
X7.2244Y-5.0689
X7.2244Y-5.876
X7.2343Y-5.3445
X7.2343Y-5.4134
X7.2441Y-5.1673
X7.2638Y-5.2657
X7.2933Y-5.1673
X7.313Y-5.876
X7.3504Y-2.9709
X7.3524Y-3.0906
X7.3524Y-5.6398
X7.3661Y-2.9433
X7.3819Y-3.061
X7.3976Y-2.9433
X7.4016Y-5.6102
X7.4134Y-2.9709
X7.4213Y-3.1201
X7.4213Y-5.561
X7.4291Y-2.9433
X7.4449Y-2.9709
X7.4606Y-3.1496
X7.4606Y-5.0984
X7.4764Y-2.9709
X7.4902Y-5.4528
X7.4921Y-2.9433
X7.5079Y-2.9709
X7.5197Y-5.4331
X7.5236Y-2.9433
X7.5295Y-5.128
X7.5492Y-5.3937
X7.5551Y-2.9433
X7.5591Y-3.061
X7.5709Y-2.9709
X7.5984Y-3.1004
X7.815Y-5.1083
X7.8346Y-5.1378
X7.8543Y-5.1673
X7.874Y-5.1969
X7.8937Y-5.2264
X7.9626Y-5.2461
X7.9642Y-5.4213
X7.9642Y-5.4843
X7.9642Y-5.5157
X7.9642Y-5.5472
X7.9642Y-5.5787
X7.9642Y-5.6417
X7.9917Y-5.437
X7.9917Y-5.4685
X7.9917Y-5.5
X7.9917Y-5.563
X7.9917Y-5.5945
X7.9917Y-5.626
X7.9921Y-5.1969
X8.0118Y-5.1575
X8.0315Y-5.1181
X8.7697Y-5.315
X8.7894Y-5.4035
X8.8091Y-5.5906
X8.8189Y-5.3937
X8.8484Y-5.2362
X8.9079Y-5.437
X8.9079Y-5.4685
X8.9079Y-5.5
X8.9079Y-5.563
X8.9079Y-5.5945
X8.9079Y-5.626
X8.9354Y-5.4213
X8.9354Y-5.4843
X8.9354Y-5.5157
X8.9354Y-5.5472
X8.9354Y-5.5787
X8.9354Y-5.6417
X9.4488Y-4.4685
X9.4685Y-5.6693
X9.5276Y-4.311
X9.5276Y-4.3898
X9.5866Y-5.4232
X9.6161Y-5.2362
X9.626Y-5.4724
X9.626Y-5.5315
X9.6358Y-5.4232
X9.6555Y-4.3799
X9.7047Y-5.5118
X9.7146Y-5.6299
X9.7244Y-5.4528
X9.7638Y-3.7402
X9.7736Y-5.6693
X9.7835Y-4.3209
X9.7835Y-4.439
X9.7933Y-4.1437
X9.813Y-5.8465
X9.9409Y-4.3898
X9.9902Y-5.2165
X10.9585Y-4.4291
X11.736Y-4.3209
X12.5136Y-3.6417
X13.0118Y-3.7795
X14.065Y-3.7402
T3
X3.061Y-3.252
X3.061Y-3.5591
X3.061Y-4.0197
X3.061Y-4.3268
X3.061Y-4.8071
X3.061Y-5.1142
X3.8386Y-3.252
X3.8386Y-3.5591
X3.8386Y-4.0197
X3.8386Y-4.3268
X3.8386Y-4.8071
X3.8386Y-5.1142
X4.6161Y-3.0551
X4.6161Y-3.3622
X4.6161Y-3.8228
X4.6161Y-4.1299
X4.6161Y-4.6102
X4.6161Y-4.9173
X5.3937Y-2.937
X5.3937Y-3.2441
X5.3937Y-3.7244
X5.3937Y-4.0315
X5.3937Y-4.5118
X5.3937Y-4.8189
X6.1713Y-3.0551
X6.1713Y-3.3622
X6.1713Y-3.8228
X6.1713Y-4.1299
X6.1713Y-4.6102
X6.1713Y-4.9173
X6.1713Y-5.3976
X6.1713Y-5.7047
X6.9488Y-3.1535
X6.9488Y-3.4606
X6.9488Y-3.9213
X6.9488Y-4.2283
X6.9488Y-4.7087
X6.9488Y-5.0157
X6.9488Y-5.4764
X6.9488Y-5.7835
X7.7657Y-6.0669
X7.7657Y-6.374
X9.124Y-6.0571
X9.124Y-6.3642
X9.9409Y-3.1535
X9.9409Y-3.4606
X9.9409Y-3.9213
X9.9409Y-4.2283
X9.9409Y-4.7087
X9.9409Y-5.0157
X9.9409Y-5.4764
X9.9409Y-5.7835
X10.7185Y-3.0551
X10.7185Y-3.3622
X10.7185Y-3.8228
X10.7185Y-4.1299
X10.7185Y-4.6102
X10.7185Y-4.9173
X10.7185Y-5.3976
X10.7185Y-5.7047
X11.4961Y-2.937
X11.4961Y-3.2441
X11.4961Y-3.7244
X11.4961Y-4.0315
X11.4961Y-4.5118
X11.4961Y-4.8189
X12.2736Y-3.0551
X12.2736Y-3.3622
X12.2736Y-3.8228
X12.2736Y-4.1299
X12.2736Y-4.6102
X12.2736Y-4.9173
X13.0512Y-3.252
X13.0512Y-3.5591
X13.0512Y-4.0197
X13.0512Y-4.3268
X13.0512Y-4.8071
X13.0512Y-5.1142
X13.8287Y-3.252
X13.8287Y-3.5591
X13.8287Y-4.0197
X13.8287Y-4.3268
X13.8287Y-4.8071
X13.8287Y-5.1142
T4
X7.2787Y-3.8791
X7.2787Y-3.9791
X7.2787Y-4.0791
X7.2787Y-4.1791
X7.2787Y-4.2791
X7.2787Y-4.3791
X7.2787Y-4.4791
X7.2787Y-4.5791
X7.2787Y-4.6791
X7.2787Y-4.7791
X7.2787Y-4.8791
X7.2787Y-4.9791
X7.3787Y-4.2791
X7.3787Y-4.9791
X7.4787Y-4.9791
X7.5787Y-4.9791
X7.6787Y-4.9791
X7.7787Y-4.2791
X7.7787Y-4.9791
X7.8787Y-3.8791
X7.8787Y-3.9791
X7.8787Y-4.0791
X7.8787Y-4.1791
X7.8787Y-4.2791
X7.8787Y-4.3791
X7.8787Y-4.4791
X7.8787Y-4.5791
X7.8787Y-4.6791
X7.8787Y-4.7791
X7.8787Y-4.8791
X7.8787Y-4.9791
T5
X7.313Y-3.2874
X7.5Y-3.2874
X7.6969Y-3.2874
X7.8839Y-3.2874
T6
X7.6024Y-2.9965
X7.9386Y-5.6732
X8.961Y-5.3898
T7
X2.487Y-3.435
X2.487Y-4.2126
X2.487Y-4.9902
X2.887Y-3.435
X2.887Y-4.2126
X2.887Y-4.9902
X3.2646Y-3.435
X3.2646Y-4.2126
X3.2646Y-4.9902
X3.6646Y-3.435
X3.6646Y-4.2126
X3.6646Y-4.9902
X4.0421Y-3.2382
X4.0421Y-4.0157
X4.0421Y-4.7933
X4.4421Y-3.2382
X4.4421Y-4.0157
X4.4421Y-4.7933
X4.8197Y-3.1201
X4.8197Y-3.9173
X4.8197Y-4.6949
X5.2197Y-3.1201
X5.2197Y-3.9173
X5.2197Y-4.6949
X5.5972Y-3.2382
X5.5972Y-4.0157
X5.5972Y-4.7933
X5.5972Y-5.5807
X5.9972Y-3.2382
X5.9972Y-4.0157
X5.9972Y-4.7933
X5.9972Y-5.5807
X6.3748Y-3.3366
X6.3748Y-4.1142
X6.3748Y-4.8917
X6.3748Y-5.6693
X6.7748Y-3.3366
X6.7748Y-4.1142
X6.7748Y-4.8917
X6.7748Y-5.6693
X7.1524Y-6.2598
X7.5524Y-6.2598
X9.298Y-6.2598
X9.698Y-6.2598
X10.115Y-3.3366
X10.115Y-4.1142
X10.115Y-4.8917
X10.115Y-5.6693
X10.515Y-3.3366
X10.515Y-4.1142
X10.515Y-4.8917
X10.515Y-5.6693
X10.8925Y-3.2382
X10.8925Y-4.0157
X10.8925Y-4.7933
X10.8925Y-5.5807
X11.2925Y-3.2382
X11.2925Y-4.0157
X11.2925Y-4.7933
X11.2925Y-5.5807
X11.6701Y-3.1201
X11.6701Y-3.9173
X11.6701Y-4.6949
X12.0701Y-3.1201
X12.0701Y-3.9173
X12.0701Y-4.6949
X12.4476Y-3.2382
X12.4476Y-4.0157
X12.4476Y-4.7933
X12.8476Y-3.2382
X12.8476Y-4.0157
X12.8476Y-4.7933
X13.2252Y-3.435
X13.2252Y-4.2126
X13.2252Y-4.9902
X13.6252Y-3.435
X13.6252Y-4.2126
X13.6252Y-4.9902
X14.0028Y-3.435
X14.0028Y-4.2126
X14.0028Y-4.9902
X14.4028Y-3.435
X14.4028Y-4.2126
X14.4028Y-4.9902
T8
X2.2047Y-5.4724
X2.2146Y-2.9626
X8.0709Y-2.8642
X8.0709Y-6.7323
X8.8287Y-2.8642
X8.8287Y-6.7323
X14.685Y-2.9626
X14.6949Y-5.4724
T9
X2.687Y-3.435
X2.687Y-4.2126
X2.687Y-4.9902
X3.4646Y-3.435
X3.4646Y-4.2126
X3.4646Y-4.9902
X4.2421Y-3.2382
X4.2421Y-4.0157
X4.2421Y-4.7933
X5.0197Y-3.1201
X5.0197Y-3.9173
X5.0197Y-4.6949
X5.7972Y-3.2382
X5.7972Y-4.0157
X5.7972Y-4.7933
X5.7972Y-5.5807
X6.5748Y-3.3366
X6.5748Y-4.1142
X6.5748Y-4.8917
X6.5748Y-5.6693
X7.3524Y-6.2598
X9.498Y-6.2598
X10.315Y-3.3366
X10.315Y-4.1142
X10.315Y-4.8917
X10.315Y-5.6693
X11.0925Y-3.2382
X11.0925Y-4.0157
X11.0925Y-4.7933
X11.0925Y-5.5807
X11.8701Y-3.1201
X11.8701Y-3.9173
X11.8701Y-4.6949
X12.6476Y-3.2382
X12.6476Y-4.0157
X12.6476Y-4.7933
X13.4252Y-3.435
X13.4252Y-4.2126
X13.4252Y-4.9902
X14.2028Y-3.435
X14.2028Y-4.2126
X14.2028Y-4.9902
T2
X7.2839Y-2.7248G85X7.2839Y-2.7012
G05
X7.298Y-2.9591G85X7.298Y-2.9354
G05
X7.6232Y-2.9591G85X7.6232Y-2.9354
G05
X7.6374Y-2.7248G85X7.6374Y-2.7012
G05
X7.976Y-5.3689G85X7.9996Y-5.3689
G05
X7.976Y-5.6941G85X7.9996Y-5.6941
G05
X8.2102Y-5.3547G85X8.2339Y-5.3547
G05
X8.2102Y-5.7083G85X8.2339Y-5.7083
G05
X8.6894Y-5.3547G85X8.6657Y-5.3547
G05
X8.6894Y-5.7083G85X8.6657Y-5.7083
G05
X8.9236Y-5.3689G85X8.9Y-5.3689
G05
X8.9236Y-5.6941G85X8.9Y-5.6941
G05
T5
X2.5689Y-3.2776G85X2.537Y-3.335
G05
X2.5689Y-4.0551G85X2.537Y-4.1126
G05
X2.5689Y-4.8327G85X2.537Y-4.8902
G05
X2.787Y-3.2351G85X2.7854Y-3.2578
G05
X2.787Y-4.0126G85X2.7854Y-4.0354
G05
X2.787Y-4.7902G85X2.7854Y-4.813
G05
X3.3465Y-3.2776G85X3.3145Y-3.335
G05
X3.3465Y-4.0551G85X3.3145Y-4.1126
G05
X3.3465Y-4.8327G85X3.3145Y-4.8902
G05
X3.5646Y-3.2351G85X3.563Y-3.2578
G05
X3.5646Y-4.0126G85X3.563Y-4.0354
G05
X3.5646Y-4.7902G85X3.563Y-4.813
G05
X4.124Y-3.0807G85X4.0921Y-3.1382
G05
X4.124Y-3.8583G85X4.0921Y-3.9157
G05
X4.124Y-4.6358G85X4.0921Y-4.6933
G05
X4.3421Y-3.0382G85X4.3406Y-3.061
G05
X4.3421Y-3.8158G85X4.3406Y-3.8386
G05
X4.3421Y-4.5933G85X4.3406Y-4.6161
G05
X4.9016Y-2.9626G85X4.8697Y-3.0201
G05
X4.9016Y-3.7598G85X4.8697Y-3.8173
G05
X4.9016Y-4.5374G85X4.8697Y-4.5949
G05
X5.1197Y-2.9201G85X5.1181Y-2.9429
G05
X5.1197Y-3.7173G85X5.1181Y-3.7401
G05
X5.1197Y-4.4949G85X5.1181Y-4.5177
G05
X5.6792Y-3.0807G85X5.6472Y-3.1382
G05
X5.6792Y-3.8583G85X5.6472Y-3.9157
G05
X5.6792Y-4.6358G85X5.6472Y-4.6933
G05
X5.6792Y-5.4232G85X5.6472Y-5.4807
G05
X5.8972Y-3.0382G85X5.8957Y-3.061
G05
X5.8972Y-3.8158G85X5.8957Y-3.8386
G05
X5.8972Y-4.5933G85X5.8957Y-4.6161
G05
X5.8972Y-5.3807G85X5.8957Y-5.4035
G05
X6.4567Y-3.1791G85X6.4248Y-3.2366
G05
X6.4567Y-3.9567G85X6.4248Y-4.0142
G05
X6.4567Y-4.7343G85X6.4248Y-4.7917
G05
X6.4567Y-5.5118G85X6.4248Y-5.5693
G05
X6.6748Y-3.1366G85X6.6732Y-3.1594
G05
X6.6748Y-3.9142G85X6.6732Y-3.937
G05
X6.6748Y-4.6918G85X6.6732Y-4.7145
G05
X6.6748Y-5.4693G85X6.6732Y-5.4921
G05
X7.2343Y-6.1024G85X7.2023Y-6.1598
G05
X7.4524Y-6.0599G85X7.4508Y-6.0827
G05
X9.3799Y-6.1024G85X9.348Y-6.1598
G05
X9.598Y-6.0599G85X9.5965Y-6.0827
G05
X10.1969Y-3.1791G85X10.1649Y-3.2366
G05
X10.1969Y-3.9567G85X10.1649Y-4.0142
G05
X10.1969Y-4.7343G85X10.1649Y-4.7917
G05
X10.1969Y-5.5118G85X10.1649Y-5.5693
G05
X10.4149Y-3.1366G85X10.4134Y-3.1594
G05
X10.4149Y-3.9142G85X10.4134Y-3.937
G05
X10.4149Y-4.6918G85X10.4134Y-4.7145
G05
X10.4149Y-5.4693G85X10.4134Y-5.4921
G05
X10.9744Y-3.0807G85X10.9425Y-3.1382
G05
X10.9744Y-3.8583G85X10.9425Y-3.9157
G05
X10.9744Y-4.6358G85X10.9425Y-4.6933
G05
X10.9744Y-5.4232G85X10.9425Y-5.4807
G05
X11.1925Y-3.0382G85X11.191Y-3.061
G05
X11.1925Y-3.8158G85X11.191Y-3.8386
G05
X11.1925Y-4.5933G85X11.191Y-4.6161
G05
X11.1925Y-5.3807G85X11.191Y-5.4035
G05
X11.752Y-2.9626G85X11.7201Y-3.0201
G05
X11.752Y-3.7598G85X11.7201Y-3.8173
G05
X11.752Y-4.5374G85X11.7201Y-4.5949
G05
X11.9701Y-2.9201G85X11.9685Y-2.9429
G05
X11.9701Y-3.7173G85X11.9685Y-3.7401
G05
X11.9701Y-4.4949G85X11.9685Y-4.5177
G05
X12.5295Y-3.0807G85X12.4976Y-3.1382
G05
X12.5295Y-3.8583G85X12.4976Y-3.9157
G05
X12.5295Y-4.6358G85X12.4976Y-4.6933
G05
X12.7476Y-3.0382G85X12.7461Y-3.061
G05
X12.7476Y-3.8158G85X12.7461Y-3.8386
G05
X12.7476Y-4.5933G85X12.7461Y-4.6161
G05
X13.3071Y-3.2776G85X13.2752Y-3.335
G05
X13.3071Y-4.0551G85X13.2752Y-4.1126
G05
X13.3071Y-4.8327G85X13.2752Y-4.8902
G05
X13.5252Y-3.2351G85X13.5236Y-3.2578
G05
X13.5252Y-4.0126G85X13.5236Y-4.0354
G05
X13.5252Y-4.7902G85X13.5236Y-4.813
G05
X14.0847Y-3.2776G85X14.0527Y-3.335
G05
X14.0847Y-4.0551G85X14.0527Y-4.1126
G05
X14.0847Y-4.8327G85X14.0527Y-4.8902
G05
X14.3027Y-3.2351G85X14.3012Y-3.2578
G05
X14.3027Y-4.0126G85X14.3012Y-4.0354
G05
X14.3027Y-4.7902G85X14.3012Y-4.813
G05
T6
X7.3248Y-2.9965G85X7.313Y-2.9965
G05
X7.9386Y-5.3957G85X7.9386Y-5.3839
G05
X8.961Y-5.6673G85X8.961Y-5.6791
G05
T0
M30
