M48
;DRILL file {KiCad 4.0.7} date Thu Mar 29 21:24:32 2018
;FORMAT={-:-/ absolute / inch / decimal}
FMAT,2
INCH,TZ
T1C0.016
T2C0.020
T3C0.028
T4C0.043
T5C0.059
T6C0.026
T7C0.067
T8C0.138
T9C0.157
%
G90
G05
M72
T1
X0.7087Y-5.6299
X0.7382Y-5.6004
X0.748Y-5.5315
X0.8272Y-5.0728
X0.8272Y-5.1043
X0.8272Y-5.1358
X0.8272Y-5.1988
X0.8272Y-5.2303
X0.8272Y-5.2618
X0.8547Y-5.0571
X0.8547Y-5.1201
X0.8547Y-5.1516
X0.8547Y-5.1831
X0.8547Y-5.2146
X0.8547Y-5.2776
X1.0138Y-1.8602
X1.0827Y-5.0787
X1.2402Y-5.2165
X1.25Y-5.1083
X1.3189Y-5.0295
X1.3583Y-5.2362
X1.5945Y-6.8406
X1.624Y-6.8701
X1.6437Y-5.6398
X1.6732Y-5.7185
X1.7224Y-5.2756
X1.7951Y-1.8898
X2.5787Y-1.6437
X3.3502Y-2.3228
X3.5864Y-7.1752
X4.3701Y-7.0571
X4.6627Y-3.3097
X4.9016Y-6.063
X5.502Y-3.0276
X5.561Y-2.2933
X5.5709Y-2.9528
X5.5807Y-3.1988
X5.6102Y-3.2874
X5.6299Y-3.0315
X5.689Y-3.0807
X5.7087Y-3.1791
X5.815Y-1.0516
X5.8307Y-1.024
X5.8622Y-1.024
X5.878Y-1.0516
X5.8937Y-1.024
X5.8957Y-1.2303
X5.9094Y-1.0516
X5.9191Y-6.0728
X5.9409Y-1.0516
X5.9567Y-1.024
X5.9724Y-1.0516
X5.9744Y-1.1811
X5.9882Y-1.024
X6.0197Y-1.024
X6.0335Y-3.3563
X6.0354Y-1.0516
X6.0827Y-3.3465
X6.1319Y-3.3465
X6.2205Y-1.2303
X6.3598Y-3.4331
X6.3598Y-3.4961
X6.3598Y-3.5276
X6.3598Y-3.5591
X6.3598Y-3.5906
X6.3598Y-3.6535
X6.3874Y-3.4488
X6.3874Y-3.4803
X6.3874Y-3.5118
X6.3874Y-3.5748
X6.3874Y-3.6063
X6.3874Y-3.6378
X6.4665Y-3.2283
X6.4665Y-3.2677
X6.5551Y-3.2677
X6.5748Y-3.2283
T3
X0.9843Y-4.3248
X0.9843Y-4.6319
X1.5256Y-1.2638
X1.5256Y-1.5709
X1.5256Y-2.0315
X1.5256Y-2.3386
X1.5256Y-2.8189
X1.5256Y-3.126
X1.7913Y-4.9154
X1.7913Y-5.2224
X1.7913Y-5.6831
X1.7913Y-5.9902
X1.7913Y-6.4705
X1.7913Y-6.7776
X1.7913Y-7.2382
X1.7913Y-7.5453
X2.3031Y-1.2638
X2.3031Y-1.5709
X2.3031Y-2.0315
X2.3031Y-2.3386
X2.3031Y-2.8189
X2.3031Y-3.126
X2.5689Y-4.9941
X2.5689Y-5.3012
X2.5689Y-5.7815
X2.5689Y-6.0886
X2.5689Y-6.5689
X2.5689Y-6.876
X2.5689Y-7.3366
X2.5689Y-7.6437
X3.0807Y-1.0669
X3.0807Y-1.374
X3.0807Y-1.8346
X3.0807Y-2.1417
X3.0807Y-2.622
X3.0807Y-2.9291
X3.3465Y-5.8799
X3.3465Y-6.187
X3.3465Y-6.6673
X3.3465Y-6.9744
X3.3465Y-7.4547
X3.3465Y-7.7618
X3.8583Y-0.9488
X3.8583Y-1.2559
X3.8583Y-1.7362
X3.8583Y-2.0433
X3.8583Y-2.5236
X3.8583Y-2.8307
X4.124Y-5.7815
X4.124Y-6.0886
X4.124Y-6.5689
X4.124Y-6.876
X4.124Y-7.3366
X4.124Y-7.6437
X4.6358Y-1.0669
X4.6358Y-1.374
X4.6358Y-1.8346
X4.6358Y-2.1417
X4.6358Y-2.622
X4.6358Y-2.9291
X4.6358Y-3.4094
X4.6358Y-3.7165
X4.9016Y-5.5846
X4.9016Y-5.8917
X4.9016Y-6.372
X4.9016Y-6.6791
X4.9016Y-7.1398
X4.9016Y-7.4469
X5.4134Y-1.1654
X5.4134Y-1.4724
X5.4134Y-1.9331
X5.4134Y-2.2402
X5.4134Y-2.7205
X5.4134Y-3.0276
X5.4134Y-3.4882
X5.4134Y-3.7953
X5.6791Y-5.5846
X5.6791Y-5.8917
X5.6791Y-6.372
X5.6791Y-6.6791
X5.6791Y-7.1398
X5.6791Y-7.4469
X6.2303Y-4.0787
X6.2303Y-4.3858
T4
X5.7433Y-1.8909
X5.7433Y-1.9909
X5.7433Y-2.0909
X5.7433Y-2.1909
X5.7433Y-2.2909
X5.7433Y-2.3909
X5.7433Y-2.4909
X5.7433Y-2.5909
X5.7433Y-2.6909
X5.7433Y-2.7909
X5.7433Y-2.8909
X5.7433Y-2.9909
X5.8433Y-2.2909
X5.8433Y-2.9909
X5.9433Y-2.9909
X6.0433Y-2.9909
X6.1433Y-2.9909
X6.2433Y-2.2909
X6.2433Y-2.9909
X6.3433Y-1.8909
X6.3433Y-1.9909
X6.3433Y-2.0909
X6.3433Y-2.1909
X6.3433Y-2.2909
X6.3433Y-2.3909
X6.3433Y-2.4909
X6.3433Y-2.5909
X6.3433Y-2.6909
X6.3433Y-2.7909
X6.3433Y-2.8909
X6.3433Y-2.9909
T5
X5.7776Y-1.2992
X5.9646Y-1.2992
X6.1614Y-1.2992
X6.3484Y-1.2992
T6
X0.8803Y-5.0256
X5.7835Y-1.0772
X6.3343Y-3.4016
T7
X0.9516Y-1.4469
X0.9516Y-2.2244
X0.9516Y-3.002
X1.1976Y-4.439
X1.3516Y-1.4469
X1.3516Y-2.2244
X1.3516Y-3.002
X1.5976Y-4.439
X1.7291Y-1.4469
X1.7291Y-2.2244
X1.7291Y-3.002
X1.9654Y-5.0295
X1.9654Y-5.8071
X1.9654Y-6.5846
X1.9654Y-7.3622
X2.1291Y-1.4469
X2.1291Y-2.2244
X2.1291Y-3.002
X2.3654Y-5.0295
X2.3654Y-5.8071
X2.3654Y-6.5846
X2.3654Y-7.3622
X2.5067Y-1.25
X2.5067Y-2.0276
X2.5067Y-2.8051
X2.7429Y-5.1181
X2.7429Y-5.9055
X2.7429Y-6.6831
X2.7429Y-7.4606
X2.9067Y-1.25
X2.9067Y-2.0276
X2.9067Y-2.8051
X3.1429Y-5.1181
X3.1429Y-5.9055
X3.1429Y-6.6831
X3.1429Y-7.4606
X3.2843Y-1.1319
X3.2843Y-1.9291
X3.2843Y-2.7067
X3.5205Y-6.0039
X3.5205Y-6.7815
X3.5205Y-7.5787
X3.6843Y-1.1319
X3.6843Y-1.9291
X3.6843Y-2.7067
X3.9205Y-6.0039
X3.9205Y-6.7815
X3.9205Y-7.5787
X4.0618Y-1.25
X4.0618Y-2.0276
X4.0618Y-2.8051
X4.0618Y-3.5925
X4.298Y-5.9055
X4.298Y-6.6831
X4.298Y-7.4606
X4.4618Y-1.25
X4.4618Y-2.0276
X4.4618Y-2.8051
X4.4618Y-3.5925
X4.698Y-5.9055
X4.698Y-6.6831
X4.698Y-7.4606
X4.8394Y-1.3484
X4.8394Y-2.126
X4.8394Y-2.9035
X4.8394Y-3.6811
X5.0756Y-5.7087
X5.0756Y-6.4862
X5.0756Y-7.2638
X5.2394Y-1.3484
X5.2394Y-2.126
X5.2394Y-2.9035
X5.2394Y-3.6811
X5.4756Y-5.7087
X5.4756Y-6.4862
X5.4756Y-7.2638
X5.6169Y-4.2717
X5.8531Y-5.7087
X5.8531Y-6.4862
X5.8531Y-7.2638
X6.0169Y-4.2717
X6.2531Y-5.7087
X6.2531Y-6.4862
X6.2531Y-7.2638
T8
X0.6693Y-3.4843
X0.6791Y-0.9744
X0.6791Y-3.9665
X0.6791Y-7.8346
X6.5354Y-0.876
X6.5354Y-4.7441
X6.5354Y-7.7362
X6.5453Y-5.2264
T9
X1.1516Y-1.4469
X1.1516Y-2.2244
X1.1516Y-3.002
X1.3976Y-4.439
X1.9291Y-1.4469
X1.9291Y-2.2244
X1.9291Y-3.002
X2.1654Y-5.0295
X2.1654Y-5.8071
X2.1654Y-6.5846
X2.1654Y-7.3622
X2.7067Y-1.25
X2.7067Y-2.0276
X2.7067Y-2.8051
X2.9429Y-5.1181
X2.9429Y-5.9055
X2.9429Y-6.6831
X2.9429Y-7.4606
X3.4843Y-1.1319
X3.4843Y-1.9291
X3.4843Y-2.7067
X3.7205Y-6.0039
X3.7205Y-6.7815
X3.7205Y-7.5787
X4.2618Y-1.25
X4.2618Y-2.0276
X4.2618Y-2.8051
X4.2618Y-3.5925
X4.498Y-5.9055
X4.498Y-6.6831
X4.498Y-7.4606
X5.0394Y-1.3484
X5.0394Y-2.126
X5.0394Y-2.9035
X5.0394Y-3.6811
X5.2756Y-5.7087
X5.2756Y-6.4862
X5.2756Y-7.2638
X5.8169Y-4.2717
X6.0531Y-5.7087
X6.0531Y-6.4862
X6.0531Y-7.2638
T2
X0.6087Y-4.9906G85X0.585Y-4.9906
G05
X0.6087Y-5.3441G85X0.585Y-5.3441
G05
X0.8429Y-5.0047G85X0.8193Y-5.0047
G05
X0.8429Y-5.3299G85X0.8193Y-5.3299
G05
X5.7484Y-0.7819G85X5.7484Y-0.8055
G05
X5.7626Y-1.0161G85X5.7626Y-1.0398
G05
X6.0878Y-1.0161G85X6.0878Y-1.0398
G05
X6.102Y-0.7819G85X6.102Y-0.8055
G05
X6.3953Y-3.3807G85X6.3717Y-3.3807
G05
X6.3953Y-3.7059G85X6.3717Y-3.7059
G05
X6.6295Y-3.3665G85X6.6059Y-3.3665
G05
X6.6295Y-3.7201G85X6.6059Y-3.7201
G05
T5
X1.0335Y-1.2894G85X1.0016Y-1.3468
G05
X1.0335Y-2.0669G85X1.0016Y-2.1244
G05
X1.0335Y-2.8445G85X1.0016Y-2.902
G05
X1.2516Y-1.2469G85X1.25Y-1.2697
G05
X1.2516Y-2.0244G85X1.25Y-2.0472
G05
X1.2516Y-2.802G85X1.25Y-2.8248
G05
X1.2476Y-4.539G85X1.2795Y-4.5965
G05
X1.4961Y-4.6162G85X1.4976Y-4.6389
G05
X1.811Y-1.2894G85X1.7791Y-1.3468
G05
X1.811Y-2.0669G85X1.7791Y-2.1244
G05
X1.811Y-2.8445G85X1.7791Y-2.902
G05
X2.0291Y-1.2469G85X2.0276Y-1.2697
G05
X2.0291Y-2.0244G85X2.0276Y-2.0472
G05
X2.0291Y-2.802G85X2.0276Y-2.8248
G05
X2.0153Y-5.1295G85X2.0473Y-5.187
G05
X2.0153Y-5.9071G85X2.0473Y-5.9646
G05
X2.0153Y-6.6846G85X2.0473Y-6.7421
G05
X2.0153Y-7.4622G85X2.0473Y-7.5197
G05
X2.2638Y-5.2067G85X2.2653Y-5.2295
G05
X2.2638Y-5.9843G85X2.2653Y-6.0071
G05
X2.2638Y-6.7618G85X2.2653Y-6.7846
G05
X2.2638Y-7.5394G85X2.2653Y-7.5622
G05
X2.5886Y-1.0925G85X2.5567Y-1.15
G05
X2.5886Y-1.8701G85X2.5567Y-1.9276
G05
X2.5886Y-2.6476G85X2.5567Y-2.7051
G05
X2.8067Y-1.05G85X2.8051Y-1.0728
G05
X2.8067Y-1.8276G85X2.8051Y-1.8504
G05
X2.8067Y-2.6051G85X2.8051Y-2.6279
G05
X2.7929Y-5.2181G85X2.8248Y-5.2756
G05
X2.7929Y-6.0055G85X2.8248Y-6.063
G05
X2.7929Y-6.7831G85X2.8248Y-6.8405
G05
X2.7929Y-7.5606G85X2.8248Y-7.6181
G05
X3.0413Y-5.2953G85X3.0429Y-5.3181
G05
X3.0413Y-6.0827G85X3.0429Y-6.1055
G05
X3.0413Y-6.8603G85X3.0429Y-6.883
G05
X3.0413Y-7.6378G85X3.0429Y-7.6606
G05
X3.3662Y-0.9744G85X3.3342Y-1.0319
G05
X3.3662Y-1.7717G85X3.3342Y-1.8291
G05
X3.3662Y-2.5492G85X3.3342Y-2.6067
G05
X3.5842Y-0.9319G85X3.5827Y-0.9547
G05
X3.5842Y-1.7292G85X3.5827Y-1.7519
G05
X3.5842Y-2.5067G85X3.5827Y-2.5295
G05
X3.5705Y-6.1039G85X3.6024Y-6.1614
G05
X3.5705Y-6.8815G85X3.6024Y-6.939
G05
X3.5705Y-7.6787G85X3.6024Y-7.7362
G05
X3.8189Y-6.1811G85X3.8205Y-6.2039
G05
X3.8189Y-6.9587G85X3.8205Y-6.9815
G05
X3.8189Y-7.7559G85X3.8205Y-7.7787
G05
X4.1437Y-1.0925G85X4.1118Y-1.15
G05
X4.1437Y-1.8701G85X4.1118Y-1.9276
G05
X4.1437Y-2.6476G85X4.1118Y-2.7051
G05
X4.1437Y-3.435G85X4.1118Y-3.4925
G05
X4.3618Y-1.05G85X4.3602Y-1.0728
G05
X4.3618Y-1.8276G85X4.3602Y-1.8504
G05
X4.3618Y-2.6051G85X4.3602Y-2.6279
G05
X4.3618Y-3.3925G85X4.3602Y-3.4153
G05
X4.348Y-6.0055G85X4.3799Y-6.063
G05
X4.348Y-6.7831G85X4.3799Y-6.8405
G05
X4.348Y-7.5606G85X4.3799Y-7.6181
G05
X4.5965Y-6.0827G85X4.598Y-6.1055
G05
X4.5965Y-6.8603G85X4.598Y-6.883
G05
X4.5965Y-7.6378G85X4.598Y-7.6606
G05
X4.9213Y-1.1909G85X4.8894Y-1.2484
G05
X4.9213Y-1.9685G85X4.8894Y-2.026
G05
X4.9213Y-2.7461G85X4.8894Y-2.8035
G05
X4.9213Y-3.5236G85X4.8894Y-3.5811
G05
X5.1394Y-1.1485G85X5.1378Y-1.1712
G05
X5.1394Y-1.926G85X5.1378Y-1.9488
G05
X5.1394Y-2.7036G85X5.1378Y-2.7264
G05
X5.1394Y-3.4811G85X5.1378Y-3.5039
G05
X5.1256Y-5.8087G85X5.1575Y-5.8661
G05
X5.1256Y-6.5862G85X5.1575Y-6.6437
G05
X5.1256Y-7.3638G85X5.1575Y-7.4213
G05
X5.374Y-5.8859G85X5.3756Y-5.9086
G05
X5.374Y-6.6634G85X5.3756Y-6.6862
G05
X5.374Y-7.441G85X5.3756Y-7.4638
G05
X5.6988Y-4.1142G85X5.6669Y-4.1717
G05
X5.9169Y-4.0717G85X5.9154Y-4.0945
G05
X5.9031Y-5.8087G85X5.9351Y-5.8661
G05
X5.9031Y-6.5862G85X5.9351Y-6.6437
G05
X5.9031Y-7.3638G85X5.9351Y-7.4213
G05
X6.1516Y-5.8859G85X6.1531Y-5.9086
G05
X6.1516Y-6.6634G85X6.1531Y-6.6862
G05
X6.1516Y-7.441G85X6.1531Y-7.4638
G05
T6
X0.8803Y-5.3031G85X0.8803Y-5.315
G05
X6.061Y-1.0772G85X6.0728Y-1.0772
G05
X6.3343Y-3.6791G85X6.3343Y-3.6909
G05
T0
M30
