G04 #@! TF.GenerationSoftware,KiCad,Pcbnew,5.1.2*
G04 #@! TF.CreationDate,2019-06-06T09:12:49+02:00*
G04 #@! TF.ProjectId,pcb,7063622e-6b69-4636-9164-5f7063625858,rev?*
G04 #@! TF.SameCoordinates,Original*
G04 #@! TF.FileFunction,Soldermask,Bot*
G04 #@! TF.FilePolarity,Negative*
%FSLAX46Y46*%
G04 Gerber Fmt 4.6, Leading zero omitted, Abs format (unit mm)*
G04 Created by KiCad (PCBNEW 5.1.2) date 2019-06-06 09:12:49*
%MOMM*%
%LPD*%
G04 APERTURE LIST*
%ADD10C,0.100000*%
G04 APERTURE END LIST*
D10*
G36*
X138773000Y-151817000D02*
G01*
X137071000Y-151817000D01*
X137071000Y-150115000D01*
X138773000Y-150115000D01*
X138773000Y-151817000D01*
X138773000Y-151817000D01*
G37*
G36*
X185255000Y-151563000D02*
G01*
X183553000Y-151563000D01*
X183553000Y-149861000D01*
X185255000Y-149861000D01*
X185255000Y-151563000D01*
X185255000Y-151563000D01*
G37*
G36*
X132465840Y-141776480D02*
G01*
X132644789Y-141809080D01*
X132860546Y-141894397D01*
X132883108Y-141903318D01*
X132883109Y-141903319D01*
X132883110Y-141903319D01*
X133098463Y-142042237D01*
X133282577Y-142220501D01*
X133282579Y-142220503D01*
X133391846Y-142378451D01*
X134264813Y-143950089D01*
X134341166Y-144126320D01*
X134395213Y-144376831D01*
X134399351Y-144633072D01*
X134386019Y-144706247D01*
X134353419Y-144885196D01*
X134274462Y-145084870D01*
X134261561Y-145117497D01*
X134259180Y-145123517D01*
X134120262Y-145338870D01*
X134027494Y-145434682D01*
X133941996Y-145522986D01*
X133873003Y-145570714D01*
X133731239Y-145668785D01*
X133629357Y-145712926D01*
X133496086Y-145770667D01*
X133245575Y-145824714D01*
X132989334Y-145828852D01*
X132916159Y-145815520D01*
X132737210Y-145782920D01*
X132498889Y-145688682D01*
X132283537Y-145549763D01*
X132099423Y-145371499D01*
X132099421Y-145371497D01*
X131990154Y-145213549D01*
X131117187Y-143641910D01*
X131040834Y-143465679D01*
X130986787Y-143215168D01*
X130982649Y-142958928D01*
X130995981Y-142885753D01*
X131028581Y-142706804D01*
X131113898Y-142491047D01*
X131122819Y-142468485D01*
X131132934Y-142452804D01*
X131261738Y-142253130D01*
X131440002Y-142069016D01*
X131440004Y-142069014D01*
X131541024Y-141999130D01*
X131650761Y-141923215D01*
X131752643Y-141879074D01*
X131885914Y-141821333D01*
X132136425Y-141767286D01*
X132392665Y-141763148D01*
X132465840Y-141776480D01*
X132465840Y-141776480D01*
G37*
G36*
X196219840Y-141522480D02*
G01*
X196398789Y-141555080D01*
X196614546Y-141640397D01*
X196637108Y-141649318D01*
X196637109Y-141649319D01*
X196637110Y-141649319D01*
X196852463Y-141788237D01*
X197036577Y-141966501D01*
X197036579Y-141966503D01*
X197145846Y-142124451D01*
X198018813Y-143696089D01*
X198095166Y-143872320D01*
X198149213Y-144122831D01*
X198153351Y-144379072D01*
X198140019Y-144452247D01*
X198107419Y-144631196D01*
X198013180Y-144869517D01*
X197874262Y-145084870D01*
X197695998Y-145268984D01*
X197695996Y-145268986D01*
X197596688Y-145337686D01*
X197485239Y-145414785D01*
X197383357Y-145458926D01*
X197250086Y-145516667D01*
X196999575Y-145570714D01*
X196743334Y-145574852D01*
X196670159Y-145561520D01*
X196491210Y-145528920D01*
X196252889Y-145434682D01*
X196037537Y-145295763D01*
X195853423Y-145117499D01*
X195853421Y-145117497D01*
X195744154Y-144959549D01*
X194871187Y-143387910D01*
X194794834Y-143211679D01*
X194740787Y-142961168D01*
X194736649Y-142704928D01*
X194749981Y-142631753D01*
X194782581Y-142452804D01*
X194867898Y-142237047D01*
X194876819Y-142214485D01*
X194876820Y-142214483D01*
X195015738Y-141999130D01*
X195194002Y-141815016D01*
X195194004Y-141815014D01*
X195293312Y-141746314D01*
X195404761Y-141669215D01*
X195506643Y-141625074D01*
X195639914Y-141567333D01*
X195890425Y-141513286D01*
X196146665Y-141509148D01*
X196219840Y-141522480D01*
X196219840Y-141522480D01*
G37*
G36*
X138170228Y-142347703D02*
G01*
X138325100Y-142411853D01*
X138464481Y-142504985D01*
X138583015Y-142623519D01*
X138676147Y-142762900D01*
X138740297Y-142917772D01*
X138773000Y-143082184D01*
X138773000Y-143249816D01*
X138740297Y-143414228D01*
X138676147Y-143569100D01*
X138583015Y-143708481D01*
X138464481Y-143827015D01*
X138325100Y-143920147D01*
X138170228Y-143984297D01*
X138005816Y-144017000D01*
X137838184Y-144017000D01*
X137673772Y-143984297D01*
X137518900Y-143920147D01*
X137379519Y-143827015D01*
X137260985Y-143708481D01*
X137167853Y-143569100D01*
X137103703Y-143414228D01*
X137071000Y-143249816D01*
X137071000Y-143082184D01*
X137103703Y-142917772D01*
X137167853Y-142762900D01*
X137260985Y-142623519D01*
X137379519Y-142504985D01*
X137518900Y-142411853D01*
X137673772Y-142347703D01*
X137838184Y-142315000D01*
X138005816Y-142315000D01*
X138170228Y-142347703D01*
X138170228Y-142347703D01*
G37*
G36*
X126913521Y-140690120D02*
G01*
X127162748Y-140747545D01*
X127163251Y-140747661D01*
X127396958Y-140852816D01*
X127425685Y-140873288D01*
X127605660Y-141001544D01*
X127781335Y-141188131D01*
X127917235Y-141405405D01*
X128008135Y-141645017D01*
X128039916Y-141834429D01*
X128055908Y-142069014D01*
X128088058Y-142540606D01*
X128082276Y-142732572D01*
X128042090Y-142906983D01*
X128024735Y-142982303D01*
X127919580Y-143216010D01*
X127895489Y-143249815D01*
X127770852Y-143424712D01*
X127584265Y-143600387D01*
X127366991Y-143736287D01*
X127127379Y-143827187D01*
X126874638Y-143869594D01*
X126874634Y-143869594D01*
X126618479Y-143861880D01*
X126368753Y-143804340D01*
X126368749Y-143804339D01*
X126135042Y-143699184D01*
X126054673Y-143641910D01*
X125926340Y-143550456D01*
X125750665Y-143363869D01*
X125708499Y-143296455D01*
X125614765Y-143146595D01*
X125523865Y-142906983D01*
X125492084Y-142717571D01*
X125477858Y-142508900D01*
X125443942Y-142011392D01*
X125449724Y-141819428D01*
X125507264Y-141569701D01*
X125507265Y-141569697D01*
X125612420Y-141335990D01*
X125649791Y-141283550D01*
X125761148Y-141127288D01*
X125947735Y-140951613D01*
X126072958Y-140873289D01*
X126165009Y-140815713D01*
X126404621Y-140724813D01*
X126657362Y-140682406D01*
X126657366Y-140682406D01*
X126913521Y-140690120D01*
X126913521Y-140690120D01*
G37*
G36*
X184652228Y-142093703D02*
G01*
X184807100Y-142157853D01*
X184946481Y-142250985D01*
X185065015Y-142369519D01*
X185158147Y-142508900D01*
X185222297Y-142663772D01*
X185255000Y-142828184D01*
X185255000Y-142995816D01*
X185222297Y-143160228D01*
X185158147Y-143315100D01*
X185065015Y-143454481D01*
X184946481Y-143573015D01*
X184807100Y-143666147D01*
X184652228Y-143730297D01*
X184487816Y-143763000D01*
X184320184Y-143763000D01*
X184155772Y-143730297D01*
X184000900Y-143666147D01*
X183861519Y-143573015D01*
X183742985Y-143454481D01*
X183649853Y-143315100D01*
X183585703Y-143160228D01*
X183553000Y-142995816D01*
X183553000Y-142828184D01*
X183585703Y-142663772D01*
X183649853Y-142508900D01*
X183742985Y-142369519D01*
X183861519Y-142250985D01*
X184000900Y-142157853D01*
X184155772Y-142093703D01*
X184320184Y-142061000D01*
X184487816Y-142061000D01*
X184652228Y-142093703D01*
X184652228Y-142093703D01*
G37*
G36*
X190667521Y-140436120D02*
G01*
X190917247Y-140493660D01*
X190917251Y-140493661D01*
X191150958Y-140598816D01*
X191203398Y-140636187D01*
X191359660Y-140747544D01*
X191458775Y-140852816D01*
X191535335Y-140934131D01*
X191671235Y-141151405D01*
X191762135Y-141391017D01*
X191793916Y-141580429D01*
X191815928Y-141903318D01*
X191842058Y-142286606D01*
X191836276Y-142478572D01*
X191802878Y-142623520D01*
X191778735Y-142728303D01*
X191673580Y-142962010D01*
X191659121Y-142982299D01*
X191524852Y-143170712D01*
X191371495Y-143315100D01*
X191338265Y-143346387D01*
X191120991Y-143482287D01*
X190881379Y-143573187D01*
X190628638Y-143615594D01*
X190628634Y-143615594D01*
X190372479Y-143607880D01*
X190122753Y-143550340D01*
X190122749Y-143550339D01*
X189889042Y-143445184D01*
X189808673Y-143387910D01*
X189680340Y-143296456D01*
X189504665Y-143109869D01*
X189487349Y-143082184D01*
X189368765Y-142892595D01*
X189277865Y-142652983D01*
X189248601Y-142478571D01*
X189246084Y-142463572D01*
X189197942Y-141757392D01*
X189203724Y-141565428D01*
X189261264Y-141315701D01*
X189261265Y-141315697D01*
X189366420Y-141081990D01*
X189423749Y-141001544D01*
X189515148Y-140873288D01*
X189701735Y-140697613D01*
X189726048Y-140682406D01*
X189919009Y-140561713D01*
X190158621Y-140470813D01*
X190411362Y-140428406D01*
X190411366Y-140428406D01*
X190667521Y-140436120D01*
X190667521Y-140436120D01*
G37*
G36*
X138773000Y-132767000D02*
G01*
X137071000Y-132767000D01*
X137071000Y-131065000D01*
X138773000Y-131065000D01*
X138773000Y-132767000D01*
X138773000Y-132767000D01*
G37*
G36*
X185255000Y-132767000D02*
G01*
X183553000Y-132767000D01*
X183553000Y-131065000D01*
X185255000Y-131065000D01*
X185255000Y-132767000D01*
X185255000Y-132767000D01*
G37*
G36*
X219545000Y-128703000D02*
G01*
X217843000Y-128703000D01*
X217843000Y-127001000D01*
X219545000Y-127001000D01*
X219545000Y-128703000D01*
X219545000Y-128703000D01*
G37*
G36*
X104737000Y-128703000D02*
G01*
X103035000Y-128703000D01*
X103035000Y-127001000D01*
X104737000Y-127001000D01*
X104737000Y-128703000D01*
X104737000Y-128703000D01*
G37*
G36*
X211459840Y-122726480D02*
G01*
X211638789Y-122759080D01*
X211854546Y-122844397D01*
X211877108Y-122853318D01*
X211877109Y-122853319D01*
X211877110Y-122853319D01*
X212092463Y-122992237D01*
X212276577Y-123170501D01*
X212276579Y-123170503D01*
X212385846Y-123328451D01*
X213258813Y-124900089D01*
X213335166Y-125076320D01*
X213389213Y-125326831D01*
X213393351Y-125583072D01*
X213380019Y-125656247D01*
X213347419Y-125835196D01*
X213253180Y-126073517D01*
X213114262Y-126288870D01*
X212935998Y-126472984D01*
X212935996Y-126472986D01*
X212836688Y-126541686D01*
X212725239Y-126618785D01*
X212623357Y-126662926D01*
X212490086Y-126720667D01*
X212239575Y-126774714D01*
X211983334Y-126778852D01*
X211910159Y-126765520D01*
X211731210Y-126732920D01*
X211492889Y-126638682D01*
X211277537Y-126499763D01*
X211093423Y-126321499D01*
X211093421Y-126321497D01*
X210984154Y-126163549D01*
X210111187Y-124591910D01*
X210034834Y-124415679D01*
X209980787Y-124165168D01*
X209976649Y-123908928D01*
X209989981Y-123835753D01*
X210022581Y-123656804D01*
X210116820Y-123418483D01*
X210255738Y-123203130D01*
X210434002Y-123019016D01*
X210434004Y-123019014D01*
X210533312Y-122950314D01*
X210644761Y-122873215D01*
X210746643Y-122829074D01*
X210879914Y-122771333D01*
X211130425Y-122717286D01*
X211386665Y-122713148D01*
X211459840Y-122726480D01*
X211459840Y-122726480D01*
G37*
G36*
X117479840Y-122726480D02*
G01*
X117658789Y-122759080D01*
X117874546Y-122844397D01*
X117897108Y-122853318D01*
X117897109Y-122853319D01*
X117897110Y-122853319D01*
X118112463Y-122992237D01*
X118296577Y-123170501D01*
X118296579Y-123170503D01*
X118405846Y-123328451D01*
X119278813Y-124900089D01*
X119355166Y-125076320D01*
X119409213Y-125326831D01*
X119413351Y-125583072D01*
X119400019Y-125656247D01*
X119367419Y-125835196D01*
X119273180Y-126073517D01*
X119134262Y-126288870D01*
X118955998Y-126472984D01*
X118955996Y-126472986D01*
X118856688Y-126541686D01*
X118745239Y-126618785D01*
X118643357Y-126662926D01*
X118510086Y-126720667D01*
X118259575Y-126774714D01*
X118003334Y-126778852D01*
X117930159Y-126765520D01*
X117751210Y-126732920D01*
X117512889Y-126638682D01*
X117297537Y-126499763D01*
X117113423Y-126321499D01*
X117113421Y-126321497D01*
X117004154Y-126163549D01*
X116131187Y-124591910D01*
X116054834Y-124415679D01*
X116000787Y-124165168D01*
X115996649Y-123908928D01*
X116009981Y-123835753D01*
X116042581Y-123656804D01*
X116136820Y-123418483D01*
X116275738Y-123203130D01*
X116454002Y-123019016D01*
X116454004Y-123019014D01*
X116553312Y-122950314D01*
X116664761Y-122873215D01*
X116766643Y-122829074D01*
X116899914Y-122771333D01*
X117150425Y-122717286D01*
X117406665Y-122713148D01*
X117479840Y-122726480D01*
X117479840Y-122726480D01*
G37*
G36*
X184652228Y-123297703D02*
G01*
X184807100Y-123361853D01*
X184946481Y-123454985D01*
X185065015Y-123573519D01*
X185158147Y-123712900D01*
X185222297Y-123867772D01*
X185255000Y-124032184D01*
X185255000Y-124199816D01*
X185222297Y-124364228D01*
X185158147Y-124519100D01*
X185065015Y-124658481D01*
X184946481Y-124777015D01*
X184807100Y-124870147D01*
X184652228Y-124934297D01*
X184487816Y-124967000D01*
X184320184Y-124967000D01*
X184155772Y-124934297D01*
X184000900Y-124870147D01*
X183861519Y-124777015D01*
X183742985Y-124658481D01*
X183649853Y-124519100D01*
X183585703Y-124364228D01*
X183553000Y-124199816D01*
X183553000Y-124032184D01*
X183585703Y-123867772D01*
X183649853Y-123712900D01*
X183742985Y-123573519D01*
X183861519Y-123454985D01*
X184000900Y-123361853D01*
X184155772Y-123297703D01*
X184320184Y-123265000D01*
X184487816Y-123265000D01*
X184652228Y-123297703D01*
X184652228Y-123297703D01*
G37*
G36*
X138170228Y-123297703D02*
G01*
X138325100Y-123361853D01*
X138464481Y-123454985D01*
X138583015Y-123573519D01*
X138676147Y-123712900D01*
X138740297Y-123867772D01*
X138773000Y-124032184D01*
X138773000Y-124199816D01*
X138740297Y-124364228D01*
X138676147Y-124519100D01*
X138583015Y-124658481D01*
X138464481Y-124777015D01*
X138325100Y-124870147D01*
X138170228Y-124934297D01*
X138005816Y-124967000D01*
X137838184Y-124967000D01*
X137673772Y-124934297D01*
X137518900Y-124870147D01*
X137379519Y-124777015D01*
X137260985Y-124658481D01*
X137167853Y-124519100D01*
X137103703Y-124364228D01*
X137071000Y-124199816D01*
X137071000Y-124032184D01*
X137103703Y-123867772D01*
X137167853Y-123712900D01*
X137260985Y-123573519D01*
X137379519Y-123454985D01*
X137518900Y-123361853D01*
X137673772Y-123297703D01*
X137838184Y-123265000D01*
X138005816Y-123265000D01*
X138170228Y-123297703D01*
X138170228Y-123297703D01*
G37*
G36*
X205907521Y-121640120D02*
G01*
X206157247Y-121697660D01*
X206157251Y-121697661D01*
X206390958Y-121802816D01*
X206443398Y-121840187D01*
X206599660Y-121951544D01*
X206718050Y-122077288D01*
X206775335Y-122138131D01*
X206911235Y-122355405D01*
X207002135Y-122595017D01*
X207033916Y-122784429D01*
X207049908Y-123019014D01*
X207082058Y-123490606D01*
X207077052Y-123656804D01*
X207076276Y-123682571D01*
X207018735Y-123932303D01*
X206913580Y-124166010D01*
X206889489Y-124199815D01*
X206764852Y-124374712D01*
X206611495Y-124519100D01*
X206578265Y-124550387D01*
X206360991Y-124686287D01*
X206121379Y-124777187D01*
X205868638Y-124819594D01*
X205868634Y-124819594D01*
X205612479Y-124811880D01*
X205362753Y-124754340D01*
X205362749Y-124754339D01*
X205129042Y-124649184D01*
X205048673Y-124591910D01*
X204920340Y-124500456D01*
X204744665Y-124313869D01*
X204608765Y-124096595D01*
X204517865Y-123856983D01*
X204486084Y-123667571D01*
X204474019Y-123490598D01*
X204437942Y-122961392D01*
X204443724Y-122769428D01*
X204501264Y-122519701D01*
X204501265Y-122519697D01*
X204606420Y-122285990D01*
X204649977Y-122224870D01*
X204755148Y-122077288D01*
X204941735Y-121901613D01*
X205159009Y-121765713D01*
X205398621Y-121674813D01*
X205651362Y-121632406D01*
X205651366Y-121632406D01*
X205907521Y-121640120D01*
X205907521Y-121640120D01*
G37*
G36*
X111927521Y-121640120D02*
G01*
X112177247Y-121697660D01*
X112177251Y-121697661D01*
X112410958Y-121802816D01*
X112463398Y-121840187D01*
X112619660Y-121951544D01*
X112738050Y-122077288D01*
X112795335Y-122138131D01*
X112931235Y-122355405D01*
X113022135Y-122595017D01*
X113053916Y-122784429D01*
X113069908Y-123019014D01*
X113102058Y-123490606D01*
X113097052Y-123656804D01*
X113096276Y-123682571D01*
X113038735Y-123932303D01*
X112933580Y-124166010D01*
X112909489Y-124199815D01*
X112784852Y-124374712D01*
X112631495Y-124519100D01*
X112598265Y-124550387D01*
X112380991Y-124686287D01*
X112141379Y-124777187D01*
X111888638Y-124819594D01*
X111888634Y-124819594D01*
X111632479Y-124811880D01*
X111382753Y-124754340D01*
X111382749Y-124754339D01*
X111149042Y-124649184D01*
X111068673Y-124591910D01*
X110940340Y-124500456D01*
X110764665Y-124313869D01*
X110628765Y-124096595D01*
X110537865Y-123856983D01*
X110506084Y-123667571D01*
X110494019Y-123490598D01*
X110457942Y-122961392D01*
X110463724Y-122769428D01*
X110521264Y-122519701D01*
X110521265Y-122519697D01*
X110626420Y-122285990D01*
X110669977Y-122224870D01*
X110775148Y-122077288D01*
X110961735Y-121901613D01*
X111179009Y-121765713D01*
X111418621Y-121674813D01*
X111671362Y-121632406D01*
X111671366Y-121632406D01*
X111927521Y-121640120D01*
X111927521Y-121640120D01*
G37*
G36*
X98302840Y-118662480D02*
G01*
X98481789Y-118695080D01*
X98697546Y-118780397D01*
X98720108Y-118789318D01*
X98720109Y-118789319D01*
X98720110Y-118789319D01*
X98935463Y-118928237D01*
X99119577Y-119106501D01*
X99119579Y-119106503D01*
X99228846Y-119264451D01*
X100101813Y-120836089D01*
X100178166Y-121012320D01*
X100232213Y-121262831D01*
X100236351Y-121519072D01*
X100223019Y-121592247D01*
X100190419Y-121771196D01*
X100096180Y-122009517D01*
X99957262Y-122224870D01*
X99778998Y-122408984D01*
X99778996Y-122408986D01*
X99679688Y-122477686D01*
X99568239Y-122554785D01*
X99475379Y-122595017D01*
X99333086Y-122656667D01*
X99082575Y-122710714D01*
X98826334Y-122714852D01*
X98753159Y-122701520D01*
X98574210Y-122668920D01*
X98335889Y-122574682D01*
X98120537Y-122435763D01*
X97936423Y-122257499D01*
X97936421Y-122257497D01*
X97827154Y-122099549D01*
X96954187Y-120527910D01*
X96877834Y-120351679D01*
X96823787Y-120101168D01*
X96819649Y-119844928D01*
X96832981Y-119771753D01*
X96865581Y-119592804D01*
X96959820Y-119354483D01*
X97098738Y-119139130D01*
X97277002Y-118955016D01*
X97277004Y-118955014D01*
X97376312Y-118886314D01*
X97487761Y-118809215D01*
X97589643Y-118765074D01*
X97722914Y-118707333D01*
X97973425Y-118653286D01*
X98229665Y-118649148D01*
X98302840Y-118662480D01*
X98302840Y-118662480D01*
G37*
G36*
X230509840Y-118662480D02*
G01*
X230688789Y-118695080D01*
X230904546Y-118780397D01*
X230927108Y-118789318D01*
X230927109Y-118789319D01*
X230927110Y-118789319D01*
X231142463Y-118928237D01*
X231326577Y-119106501D01*
X231326579Y-119106503D01*
X231435846Y-119264451D01*
X232308813Y-120836089D01*
X232385166Y-121012320D01*
X232439213Y-121262831D01*
X232443351Y-121519072D01*
X232430019Y-121592247D01*
X232397419Y-121771196D01*
X232303180Y-122009517D01*
X232164262Y-122224870D01*
X231985998Y-122408984D01*
X231985996Y-122408986D01*
X231886688Y-122477686D01*
X231775239Y-122554785D01*
X231682379Y-122595017D01*
X231540086Y-122656667D01*
X231289575Y-122710714D01*
X231033334Y-122714852D01*
X230960159Y-122701520D01*
X230781210Y-122668920D01*
X230542889Y-122574682D01*
X230327537Y-122435763D01*
X230143423Y-122257499D01*
X230143421Y-122257497D01*
X230034154Y-122099549D01*
X229161187Y-120527910D01*
X229084834Y-120351679D01*
X229030787Y-120101168D01*
X229026649Y-119844928D01*
X229039981Y-119771753D01*
X229072581Y-119592804D01*
X229166820Y-119354483D01*
X229305738Y-119139130D01*
X229484002Y-118955016D01*
X229484004Y-118955014D01*
X229583312Y-118886314D01*
X229694761Y-118809215D01*
X229796643Y-118765074D01*
X229929914Y-118707333D01*
X230180425Y-118653286D01*
X230436665Y-118649148D01*
X230509840Y-118662480D01*
X230509840Y-118662480D01*
G37*
G36*
X218942228Y-119233703D02*
G01*
X219097100Y-119297853D01*
X219236481Y-119390985D01*
X219355015Y-119509519D01*
X219448147Y-119648900D01*
X219512297Y-119803772D01*
X219545000Y-119968184D01*
X219545000Y-120135816D01*
X219512297Y-120300228D01*
X219448147Y-120455100D01*
X219355015Y-120594481D01*
X219236481Y-120713015D01*
X219097100Y-120806147D01*
X218942228Y-120870297D01*
X218777816Y-120903000D01*
X218610184Y-120903000D01*
X218445772Y-120870297D01*
X218290900Y-120806147D01*
X218151519Y-120713015D01*
X218032985Y-120594481D01*
X217939853Y-120455100D01*
X217875703Y-120300228D01*
X217843000Y-120135816D01*
X217843000Y-119968184D01*
X217875703Y-119803772D01*
X217939853Y-119648900D01*
X218032985Y-119509519D01*
X218151519Y-119390985D01*
X218290900Y-119297853D01*
X218445772Y-119233703D01*
X218610184Y-119201000D01*
X218777816Y-119201000D01*
X218942228Y-119233703D01*
X218942228Y-119233703D01*
G37*
G36*
X104134228Y-119233703D02*
G01*
X104289100Y-119297853D01*
X104428481Y-119390985D01*
X104547015Y-119509519D01*
X104640147Y-119648900D01*
X104704297Y-119803772D01*
X104737000Y-119968184D01*
X104737000Y-120135816D01*
X104704297Y-120300228D01*
X104640147Y-120455100D01*
X104547015Y-120594481D01*
X104428481Y-120713015D01*
X104289100Y-120806147D01*
X104134228Y-120870297D01*
X103969816Y-120903000D01*
X103802184Y-120903000D01*
X103637772Y-120870297D01*
X103482900Y-120806147D01*
X103343519Y-120713015D01*
X103224985Y-120594481D01*
X103131853Y-120455100D01*
X103067703Y-120300228D01*
X103035000Y-120135816D01*
X103035000Y-119968184D01*
X103067703Y-119803772D01*
X103131853Y-119648900D01*
X103224985Y-119509519D01*
X103343519Y-119390985D01*
X103482900Y-119297853D01*
X103637772Y-119233703D01*
X103802184Y-119201000D01*
X103969816Y-119201000D01*
X104134228Y-119233703D01*
X104134228Y-119233703D01*
G37*
G36*
X92750521Y-117576120D02*
G01*
X93000247Y-117633660D01*
X93000251Y-117633661D01*
X93233958Y-117738816D01*
X93286398Y-117776187D01*
X93442660Y-117887544D01*
X93561050Y-118013288D01*
X93618335Y-118074131D01*
X93754235Y-118291405D01*
X93845135Y-118531017D01*
X93876916Y-118720429D01*
X93892908Y-118955014D01*
X93925058Y-119426606D01*
X93920052Y-119592804D01*
X93919276Y-119618571D01*
X93861735Y-119868303D01*
X93756580Y-120102010D01*
X93732489Y-120135815D01*
X93607852Y-120310712D01*
X93454495Y-120455100D01*
X93421265Y-120486387D01*
X93203991Y-120622287D01*
X92964379Y-120713187D01*
X92711638Y-120755594D01*
X92711634Y-120755594D01*
X92455479Y-120747880D01*
X92205753Y-120690340D01*
X92205749Y-120690339D01*
X91972042Y-120585184D01*
X91891673Y-120527910D01*
X91763340Y-120436456D01*
X91587665Y-120249869D01*
X91451765Y-120032595D01*
X91360865Y-119792983D01*
X91329084Y-119603571D01*
X91317019Y-119426598D01*
X91280942Y-118897392D01*
X91286724Y-118705428D01*
X91344264Y-118455701D01*
X91344265Y-118455697D01*
X91449420Y-118221990D01*
X91486791Y-118169550D01*
X91598148Y-118013288D01*
X91784735Y-117837613D01*
X91875247Y-117781000D01*
X92002009Y-117701713D01*
X92241621Y-117610813D01*
X92494362Y-117568406D01*
X92494366Y-117568406D01*
X92750521Y-117576120D01*
X92750521Y-117576120D01*
G37*
G36*
X224957521Y-117576120D02*
G01*
X225207247Y-117633660D01*
X225207251Y-117633661D01*
X225440958Y-117738816D01*
X225493398Y-117776187D01*
X225649660Y-117887544D01*
X225768050Y-118013288D01*
X225825335Y-118074131D01*
X225961235Y-118291405D01*
X226052135Y-118531017D01*
X226083916Y-118720429D01*
X226099908Y-118955014D01*
X226132058Y-119426606D01*
X226127052Y-119592804D01*
X226126276Y-119618571D01*
X226068735Y-119868303D01*
X225963580Y-120102010D01*
X225939489Y-120135815D01*
X225814852Y-120310712D01*
X225661495Y-120455100D01*
X225628265Y-120486387D01*
X225410991Y-120622287D01*
X225171379Y-120713187D01*
X224918638Y-120755594D01*
X224918634Y-120755594D01*
X224662479Y-120747880D01*
X224412753Y-120690340D01*
X224412749Y-120690339D01*
X224179042Y-120585184D01*
X224098673Y-120527910D01*
X223970340Y-120436456D01*
X223794665Y-120249869D01*
X223658765Y-120032595D01*
X223567865Y-119792983D01*
X223536084Y-119603571D01*
X223524019Y-119426598D01*
X223487942Y-118897392D01*
X223493724Y-118705428D01*
X223551264Y-118455701D01*
X223551265Y-118455697D01*
X223656420Y-118221990D01*
X223693791Y-118169550D01*
X223805148Y-118013288D01*
X223991735Y-117837613D01*
X224082247Y-117781000D01*
X224209009Y-117701713D01*
X224448621Y-117610813D01*
X224701362Y-117568406D01*
X224701366Y-117568406D01*
X224957521Y-117576120D01*
X224957521Y-117576120D01*
G37*
G36*
X295491000Y-117781000D02*
G01*
X293789000Y-117781000D01*
X293789000Y-116079000D01*
X295491000Y-116079000D01*
X295491000Y-117781000D01*
X295491000Y-117781000D01*
G37*
G36*
X28791000Y-117273000D02*
G01*
X27089000Y-117273000D01*
X27089000Y-115571000D01*
X28791000Y-115571000D01*
X28791000Y-117273000D01*
X28791000Y-117273000D01*
G37*
G36*
X276441000Y-113717000D02*
G01*
X274739000Y-113717000D01*
X274739000Y-112015000D01*
X276441000Y-112015000D01*
X276441000Y-113717000D01*
X276441000Y-113717000D01*
G37*
G36*
X47587000Y-113717000D02*
G01*
X45885000Y-113717000D01*
X45885000Y-112015000D01*
X47587000Y-112015000D01*
X47587000Y-113717000D01*
X47587000Y-113717000D01*
G37*
G36*
X123787000Y-113717000D02*
G01*
X122085000Y-113717000D01*
X122085000Y-112015000D01*
X123787000Y-112015000D01*
X123787000Y-113717000D01*
X123787000Y-113717000D01*
G37*
G36*
X200495000Y-113717000D02*
G01*
X198793000Y-113717000D01*
X198793000Y-112015000D01*
X200495000Y-112015000D01*
X200495000Y-113717000D01*
X200495000Y-113717000D01*
G37*
G36*
X306455840Y-107740480D02*
G01*
X306634789Y-107773080D01*
X306850546Y-107858397D01*
X306873108Y-107867318D01*
X306873109Y-107867319D01*
X306873110Y-107867319D01*
X307088463Y-108006237D01*
X307272577Y-108184501D01*
X307272579Y-108184503D01*
X307381846Y-108342451D01*
X308254813Y-109914089D01*
X308331166Y-110090320D01*
X308385213Y-110340831D01*
X308389351Y-110597072D01*
X308376019Y-110670247D01*
X308343419Y-110849196D01*
X308264462Y-111048870D01*
X308251561Y-111081497D01*
X308249180Y-111087517D01*
X308110262Y-111302870D01*
X308017494Y-111398682D01*
X307931996Y-111486986D01*
X307863003Y-111534714D01*
X307721239Y-111632785D01*
X307619357Y-111676926D01*
X307486086Y-111734667D01*
X307235575Y-111788714D01*
X306979334Y-111792852D01*
X306906159Y-111779520D01*
X306727210Y-111746920D01*
X306488889Y-111652682D01*
X306273537Y-111513763D01*
X306089423Y-111335499D01*
X306089421Y-111335497D01*
X305980154Y-111177549D01*
X305107187Y-109605910D01*
X305030834Y-109429679D01*
X304976787Y-109179168D01*
X304972649Y-108922928D01*
X304985981Y-108849753D01*
X305018581Y-108670804D01*
X305103898Y-108455047D01*
X305112819Y-108432485D01*
X305122934Y-108416804D01*
X305251738Y-108217130D01*
X305430002Y-108033016D01*
X305430004Y-108033014D01*
X305548558Y-107951000D01*
X305640761Y-107887215D01*
X305742643Y-107843074D01*
X305875914Y-107785333D01*
X306126425Y-107731286D01*
X306382665Y-107727148D01*
X306455840Y-107740480D01*
X306455840Y-107740480D01*
G37*
G36*
X22483840Y-107486480D02*
G01*
X22662789Y-107519080D01*
X22838805Y-107588682D01*
X22901108Y-107613318D01*
X22901109Y-107613319D01*
X22901110Y-107613319D01*
X23116463Y-107752237D01*
X23300577Y-107930501D01*
X23300579Y-107930503D01*
X23409846Y-108088451D01*
X24282813Y-109660089D01*
X24359166Y-109836320D01*
X24413213Y-110086831D01*
X24417351Y-110343072D01*
X24404019Y-110416247D01*
X24371419Y-110595196D01*
X24277180Y-110833517D01*
X24138262Y-111048870D01*
X23959998Y-111232984D01*
X23959996Y-111232986D01*
X23860688Y-111301686D01*
X23749239Y-111378785D01*
X23647357Y-111422926D01*
X23514086Y-111480667D01*
X23263575Y-111534714D01*
X23007334Y-111538852D01*
X22934159Y-111525520D01*
X22755210Y-111492920D01*
X22516889Y-111398682D01*
X22301537Y-111259763D01*
X22117423Y-111081499D01*
X22117421Y-111081497D01*
X22008154Y-110923549D01*
X21135187Y-109351910D01*
X21058834Y-109175679D01*
X21004787Y-108925168D01*
X21000649Y-108668928D01*
X21013981Y-108595753D01*
X21046581Y-108416804D01*
X21131898Y-108201047D01*
X21140819Y-108178485D01*
X21140820Y-108178483D01*
X21279738Y-107963130D01*
X21458002Y-107779016D01*
X21458004Y-107779014D01*
X21557312Y-107710314D01*
X21668761Y-107633215D01*
X21817472Y-107568785D01*
X21903914Y-107531333D01*
X22154425Y-107477286D01*
X22410665Y-107473148D01*
X22483840Y-107486480D01*
X22483840Y-107486480D01*
G37*
G36*
X294888228Y-108311703D02*
G01*
X295043100Y-108375853D01*
X295182481Y-108468985D01*
X295301015Y-108587519D01*
X295394147Y-108726900D01*
X295458297Y-108881772D01*
X295491000Y-109046184D01*
X295491000Y-109213816D01*
X295458297Y-109378228D01*
X295394147Y-109533100D01*
X295301015Y-109672481D01*
X295182481Y-109791015D01*
X295043100Y-109884147D01*
X294888228Y-109948297D01*
X294723816Y-109981000D01*
X294556184Y-109981000D01*
X294391772Y-109948297D01*
X294236900Y-109884147D01*
X294097519Y-109791015D01*
X293978985Y-109672481D01*
X293885853Y-109533100D01*
X293821703Y-109378228D01*
X293789000Y-109213816D01*
X293789000Y-109046184D01*
X293821703Y-108881772D01*
X293885853Y-108726900D01*
X293978985Y-108587519D01*
X294097519Y-108468985D01*
X294236900Y-108375853D01*
X294391772Y-108311703D01*
X294556184Y-108279000D01*
X294723816Y-108279000D01*
X294888228Y-108311703D01*
X294888228Y-108311703D01*
G37*
G36*
X257391000Y-109907000D02*
G01*
X255689000Y-109907000D01*
X255689000Y-108205000D01*
X257391000Y-108205000D01*
X257391000Y-109907000D01*
X257391000Y-109907000D01*
G37*
G36*
X300903521Y-106654120D02*
G01*
X301152748Y-106711545D01*
X301153251Y-106711661D01*
X301386958Y-106816816D01*
X301415685Y-106837288D01*
X301595660Y-106965544D01*
X301771335Y-107152131D01*
X301907235Y-107369405D01*
X301998135Y-107609017D01*
X302029916Y-107798429D01*
X302049687Y-108088450D01*
X302078058Y-108504606D01*
X302072276Y-108696572D01*
X302032264Y-108870228D01*
X302014735Y-108946303D01*
X301909580Y-109180010D01*
X301885489Y-109213815D01*
X301760852Y-109388712D01*
X301574265Y-109564387D01*
X301356991Y-109700287D01*
X301117379Y-109791187D01*
X300864638Y-109833594D01*
X300864634Y-109833594D01*
X300608479Y-109825880D01*
X300358753Y-109768340D01*
X300358749Y-109768339D01*
X300125042Y-109663184D01*
X300044673Y-109605910D01*
X299916340Y-109514456D01*
X299740665Y-109327869D01*
X299698499Y-109260455D01*
X299604765Y-109110595D01*
X299513865Y-108870983D01*
X299482084Y-108681571D01*
X299470019Y-108504598D01*
X299433942Y-107975392D01*
X299439724Y-107783428D01*
X299497264Y-107533701D01*
X299497265Y-107533697D01*
X299602420Y-107299990D01*
X299645977Y-107238870D01*
X299751148Y-107091288D01*
X299937735Y-106915613D01*
X300062958Y-106837289D01*
X300155009Y-106779713D01*
X300394621Y-106688813D01*
X300647362Y-106646406D01*
X300647366Y-106646406D01*
X300903521Y-106654120D01*
X300903521Y-106654120D01*
G37*
G36*
X66637000Y-109653000D02*
G01*
X64935000Y-109653000D01*
X64935000Y-107951000D01*
X66637000Y-107951000D01*
X66637000Y-109653000D01*
X66637000Y-109653000D01*
G37*
G36*
X104737000Y-109653000D02*
G01*
X103035000Y-109653000D01*
X103035000Y-107951000D01*
X104737000Y-107951000D01*
X104737000Y-109653000D01*
X104737000Y-109653000D01*
G37*
G36*
X219545000Y-109653000D02*
G01*
X217843000Y-109653000D01*
X217843000Y-107951000D01*
X219545000Y-107951000D01*
X219545000Y-109653000D01*
X219545000Y-109653000D01*
G37*
G36*
X16931521Y-106400120D02*
G01*
X17181247Y-106457660D01*
X17181251Y-106457661D01*
X17414958Y-106562816D01*
X17467398Y-106600187D01*
X17623660Y-106711544D01*
X17722775Y-106816816D01*
X17799335Y-106898131D01*
X17935235Y-107115405D01*
X18026135Y-107355017D01*
X18057916Y-107544429D01*
X18075591Y-107803703D01*
X18106058Y-108250606D01*
X18100276Y-108442572D01*
X18066878Y-108587520D01*
X18042735Y-108692303D01*
X17937580Y-108926010D01*
X17923121Y-108946299D01*
X17788852Y-109134712D01*
X17655297Y-109260456D01*
X17602265Y-109310387D01*
X17384991Y-109446287D01*
X17145379Y-109537187D01*
X16892638Y-109579594D01*
X16892634Y-109579594D01*
X16636479Y-109571880D01*
X16386753Y-109514340D01*
X16386749Y-109514339D01*
X16153042Y-109409184D01*
X16072673Y-109351910D01*
X15944340Y-109260456D01*
X15768665Y-109073869D01*
X15738159Y-109025097D01*
X15632765Y-108856595D01*
X15541865Y-108616983D01*
X15512601Y-108442571D01*
X15510084Y-108427572D01*
X15461942Y-107721392D01*
X15467724Y-107529428D01*
X15525264Y-107279701D01*
X15525265Y-107279697D01*
X15630420Y-107045990D01*
X15687749Y-106965544D01*
X15779148Y-106837288D01*
X15965735Y-106661613D01*
X15990048Y-106646406D01*
X16183009Y-106525713D01*
X16422621Y-106434813D01*
X16675362Y-106392406D01*
X16675366Y-106392406D01*
X16931521Y-106400120D01*
X16931521Y-106400120D01*
G37*
G36*
X28188228Y-107803703D02*
G01*
X28343100Y-107867853D01*
X28482481Y-107960985D01*
X28601015Y-108079519D01*
X28694147Y-108218900D01*
X28758297Y-108373772D01*
X28791000Y-108538184D01*
X28791000Y-108705816D01*
X28758297Y-108870228D01*
X28694147Y-109025100D01*
X28601015Y-109164481D01*
X28482481Y-109283015D01*
X28343100Y-109376147D01*
X28188228Y-109440297D01*
X28023816Y-109473000D01*
X27856184Y-109473000D01*
X27691772Y-109440297D01*
X27536900Y-109376147D01*
X27397519Y-109283015D01*
X27278985Y-109164481D01*
X27185853Y-109025100D01*
X27121703Y-108870228D01*
X27089000Y-108705816D01*
X27089000Y-108538184D01*
X27121703Y-108373772D01*
X27185853Y-108218900D01*
X27278985Y-108079519D01*
X27397519Y-107960985D01*
X27536900Y-107867853D01*
X27691772Y-107803703D01*
X27856184Y-107771000D01*
X28023816Y-107771000D01*
X28188228Y-107803703D01*
X28188228Y-107803703D01*
G37*
G36*
X117479840Y-103676480D02*
G01*
X117658789Y-103709080D01*
X117834805Y-103778682D01*
X117897108Y-103803318D01*
X117897109Y-103803319D01*
X117897110Y-103803319D01*
X118112463Y-103942237D01*
X118296577Y-104120501D01*
X118296579Y-104120503D01*
X118405846Y-104278451D01*
X119278813Y-105850089D01*
X119355166Y-106026320D01*
X119409213Y-106276831D01*
X119413351Y-106533072D01*
X119400019Y-106606247D01*
X119367419Y-106785196D01*
X119273180Y-107023517D01*
X119134262Y-107238870D01*
X118955998Y-107422984D01*
X118955996Y-107422986D01*
X118883485Y-107473148D01*
X118745239Y-107568785D01*
X118652379Y-107609017D01*
X118510086Y-107670667D01*
X118259575Y-107724714D01*
X118003334Y-107728852D01*
X117930159Y-107715520D01*
X117751210Y-107682920D01*
X117512889Y-107588682D01*
X117297537Y-107449763D01*
X117113423Y-107271499D01*
X117113421Y-107271497D01*
X117004154Y-107113549D01*
X116131187Y-105541910D01*
X116054834Y-105365679D01*
X116000787Y-105115168D01*
X115996649Y-104858928D01*
X116011302Y-104778499D01*
X116042581Y-104606804D01*
X116136820Y-104368483D01*
X116275738Y-104153130D01*
X116454002Y-103969016D01*
X116454004Y-103969014D01*
X116572558Y-103887000D01*
X116664761Y-103823215D01*
X116813472Y-103758785D01*
X116899914Y-103721333D01*
X117150425Y-103667286D01*
X117406665Y-103663148D01*
X117479840Y-103676480D01*
X117479840Y-103676480D01*
G37*
G36*
X287405840Y-103676480D02*
G01*
X287584789Y-103709080D01*
X287760805Y-103778682D01*
X287823108Y-103803318D01*
X287823109Y-103803319D01*
X287823110Y-103803319D01*
X288038463Y-103942237D01*
X288222577Y-104120501D01*
X288222579Y-104120503D01*
X288331846Y-104278451D01*
X289204813Y-105850089D01*
X289281166Y-106026320D01*
X289335213Y-106276831D01*
X289339351Y-106533072D01*
X289326019Y-106606247D01*
X289293419Y-106785196D01*
X289199180Y-107023517D01*
X289060262Y-107238870D01*
X288881998Y-107422984D01*
X288881996Y-107422986D01*
X288809485Y-107473148D01*
X288671239Y-107568785D01*
X288578379Y-107609017D01*
X288436086Y-107670667D01*
X288185575Y-107724714D01*
X287929334Y-107728852D01*
X287856159Y-107715520D01*
X287677210Y-107682920D01*
X287438889Y-107588682D01*
X287223537Y-107449763D01*
X287039423Y-107271499D01*
X287039421Y-107271497D01*
X286930154Y-107113549D01*
X286057187Y-105541910D01*
X285980834Y-105365679D01*
X285926787Y-105115168D01*
X285922649Y-104858928D01*
X285937302Y-104778499D01*
X285968581Y-104606804D01*
X286062820Y-104368483D01*
X286201738Y-104153130D01*
X286380002Y-103969016D01*
X286380004Y-103969014D01*
X286498558Y-103887000D01*
X286590761Y-103823215D01*
X286739472Y-103758785D01*
X286825914Y-103721333D01*
X287076425Y-103667286D01*
X287332665Y-103663148D01*
X287405840Y-103676480D01*
X287405840Y-103676480D01*
G37*
G36*
X41279840Y-103676480D02*
G01*
X41458789Y-103709080D01*
X41634805Y-103778682D01*
X41697108Y-103803318D01*
X41697109Y-103803319D01*
X41697110Y-103803319D01*
X41912463Y-103942237D01*
X42096577Y-104120501D01*
X42096579Y-104120503D01*
X42205846Y-104278451D01*
X43078813Y-105850089D01*
X43155166Y-106026320D01*
X43209213Y-106276831D01*
X43213351Y-106533072D01*
X43200019Y-106606247D01*
X43167419Y-106785196D01*
X43073180Y-107023517D01*
X42934262Y-107238870D01*
X42755998Y-107422984D01*
X42755996Y-107422986D01*
X42683485Y-107473148D01*
X42545239Y-107568785D01*
X42452379Y-107609017D01*
X42310086Y-107670667D01*
X42059575Y-107724714D01*
X41803334Y-107728852D01*
X41730159Y-107715520D01*
X41551210Y-107682920D01*
X41312889Y-107588682D01*
X41097537Y-107449763D01*
X40913423Y-107271499D01*
X40913421Y-107271497D01*
X40804154Y-107113549D01*
X39931187Y-105541910D01*
X39854834Y-105365679D01*
X39800787Y-105115168D01*
X39796649Y-104858928D01*
X39811302Y-104778499D01*
X39842581Y-104606804D01*
X39936820Y-104368483D01*
X40075738Y-104153130D01*
X40254002Y-103969016D01*
X40254004Y-103969014D01*
X40372558Y-103887000D01*
X40464761Y-103823215D01*
X40613472Y-103758785D01*
X40699914Y-103721333D01*
X40950425Y-103667286D01*
X41206665Y-103663148D01*
X41279840Y-103676480D01*
X41279840Y-103676480D01*
G37*
G36*
X211459840Y-103676480D02*
G01*
X211638789Y-103709080D01*
X211814805Y-103778682D01*
X211877108Y-103803318D01*
X211877109Y-103803319D01*
X211877110Y-103803319D01*
X212092463Y-103942237D01*
X212276577Y-104120501D01*
X212276579Y-104120503D01*
X212385846Y-104278451D01*
X213258813Y-105850089D01*
X213335166Y-106026320D01*
X213389213Y-106276831D01*
X213393351Y-106533072D01*
X213380019Y-106606247D01*
X213347419Y-106785196D01*
X213253180Y-107023517D01*
X213114262Y-107238870D01*
X212935998Y-107422984D01*
X212935996Y-107422986D01*
X212863485Y-107473148D01*
X212725239Y-107568785D01*
X212632379Y-107609017D01*
X212490086Y-107670667D01*
X212239575Y-107724714D01*
X211983334Y-107728852D01*
X211910159Y-107715520D01*
X211731210Y-107682920D01*
X211492889Y-107588682D01*
X211277537Y-107449763D01*
X211093423Y-107271499D01*
X211093421Y-107271497D01*
X210984154Y-107113549D01*
X210111187Y-105541910D01*
X210034834Y-105365679D01*
X209980787Y-105115168D01*
X209976649Y-104858928D01*
X209991302Y-104778499D01*
X210022581Y-104606804D01*
X210116820Y-104368483D01*
X210255738Y-104153130D01*
X210434002Y-103969016D01*
X210434004Y-103969014D01*
X210552558Y-103887000D01*
X210644761Y-103823215D01*
X210793472Y-103758785D01*
X210879914Y-103721333D01*
X211130425Y-103667286D01*
X211386665Y-103663148D01*
X211459840Y-103676480D01*
X211459840Y-103676480D01*
G37*
G36*
X151367142Y-104628242D02*
G01*
X151515101Y-104689529D01*
X151648255Y-104778499D01*
X151761501Y-104891745D01*
X151850471Y-105024899D01*
X151911758Y-105172858D01*
X151943000Y-105329925D01*
X151943000Y-105490075D01*
X151911758Y-105647142D01*
X151850471Y-105795101D01*
X151761501Y-105928255D01*
X151648255Y-106041501D01*
X151515101Y-106130471D01*
X151367142Y-106191758D01*
X151210075Y-106223000D01*
X151049925Y-106223000D01*
X150892858Y-106191758D01*
X150744899Y-106130471D01*
X150611745Y-106041501D01*
X150498499Y-105928255D01*
X150409529Y-105795101D01*
X150348242Y-105647142D01*
X150317000Y-105490075D01*
X150317000Y-105329925D01*
X150348242Y-105172858D01*
X150409529Y-105024899D01*
X150498499Y-104891745D01*
X150611745Y-104778499D01*
X150744899Y-104689529D01*
X150892858Y-104628242D01*
X151049925Y-104597000D01*
X151210075Y-104597000D01*
X151367142Y-104628242D01*
X151367142Y-104628242D01*
G37*
G36*
X171687142Y-104628242D02*
G01*
X171835101Y-104689529D01*
X171968255Y-104778499D01*
X172081501Y-104891745D01*
X172170471Y-105024899D01*
X172231758Y-105172858D01*
X172263000Y-105329925D01*
X172263000Y-105490075D01*
X172231758Y-105647142D01*
X172170471Y-105795101D01*
X172081501Y-105928255D01*
X171968255Y-106041501D01*
X171835101Y-106130471D01*
X171687142Y-106191758D01*
X171530075Y-106223000D01*
X171369925Y-106223000D01*
X171212858Y-106191758D01*
X171064899Y-106130471D01*
X170931745Y-106041501D01*
X170818499Y-105928255D01*
X170729529Y-105795101D01*
X170668242Y-105647142D01*
X170637000Y-105490075D01*
X170637000Y-105329925D01*
X170668242Y-105172858D01*
X170729529Y-105024899D01*
X170818499Y-104891745D01*
X170931745Y-104778499D01*
X171064899Y-104689529D01*
X171212858Y-104628242D01*
X171369925Y-104597000D01*
X171530075Y-104597000D01*
X171687142Y-104628242D01*
X171687142Y-104628242D01*
G37*
G36*
X275838228Y-104247703D02*
G01*
X275993100Y-104311853D01*
X276132481Y-104404985D01*
X276251015Y-104523519D01*
X276344147Y-104662900D01*
X276408297Y-104817772D01*
X276441000Y-104982184D01*
X276441000Y-105149816D01*
X276408297Y-105314228D01*
X276344147Y-105469100D01*
X276251015Y-105608481D01*
X276132481Y-105727015D01*
X275993100Y-105820147D01*
X275838228Y-105884297D01*
X275673816Y-105917000D01*
X275506184Y-105917000D01*
X275341772Y-105884297D01*
X275186900Y-105820147D01*
X275047519Y-105727015D01*
X274928985Y-105608481D01*
X274835853Y-105469100D01*
X274771703Y-105314228D01*
X274739000Y-105149816D01*
X274739000Y-104982184D01*
X274771703Y-104817772D01*
X274835853Y-104662900D01*
X274928985Y-104523519D01*
X275047519Y-104404985D01*
X275186900Y-104311853D01*
X275341772Y-104247703D01*
X275506184Y-104215000D01*
X275673816Y-104215000D01*
X275838228Y-104247703D01*
X275838228Y-104247703D01*
G37*
G36*
X199892228Y-104247703D02*
G01*
X200047100Y-104311853D01*
X200186481Y-104404985D01*
X200305015Y-104523519D01*
X200398147Y-104662900D01*
X200462297Y-104817772D01*
X200495000Y-104982184D01*
X200495000Y-105149816D01*
X200462297Y-105314228D01*
X200398147Y-105469100D01*
X200305015Y-105608481D01*
X200186481Y-105727015D01*
X200047100Y-105820147D01*
X199892228Y-105884297D01*
X199727816Y-105917000D01*
X199560184Y-105917000D01*
X199395772Y-105884297D01*
X199240900Y-105820147D01*
X199101519Y-105727015D01*
X198982985Y-105608481D01*
X198889853Y-105469100D01*
X198825703Y-105314228D01*
X198793000Y-105149816D01*
X198793000Y-104982184D01*
X198825703Y-104817772D01*
X198889853Y-104662900D01*
X198982985Y-104523519D01*
X199101519Y-104404985D01*
X199240900Y-104311853D01*
X199395772Y-104247703D01*
X199560184Y-104215000D01*
X199727816Y-104215000D01*
X199892228Y-104247703D01*
X199892228Y-104247703D01*
G37*
G36*
X123184228Y-104247703D02*
G01*
X123339100Y-104311853D01*
X123478481Y-104404985D01*
X123597015Y-104523519D01*
X123690147Y-104662900D01*
X123754297Y-104817772D01*
X123787000Y-104982184D01*
X123787000Y-105149816D01*
X123754297Y-105314228D01*
X123690147Y-105469100D01*
X123597015Y-105608481D01*
X123478481Y-105727015D01*
X123339100Y-105820147D01*
X123184228Y-105884297D01*
X123019816Y-105917000D01*
X122852184Y-105917000D01*
X122687772Y-105884297D01*
X122532900Y-105820147D01*
X122393519Y-105727015D01*
X122274985Y-105608481D01*
X122181853Y-105469100D01*
X122117703Y-105314228D01*
X122085000Y-105149816D01*
X122085000Y-104982184D01*
X122117703Y-104817772D01*
X122181853Y-104662900D01*
X122274985Y-104523519D01*
X122393519Y-104404985D01*
X122532900Y-104311853D01*
X122687772Y-104247703D01*
X122852184Y-104215000D01*
X123019816Y-104215000D01*
X123184228Y-104247703D01*
X123184228Y-104247703D01*
G37*
G36*
X46984228Y-104247703D02*
G01*
X47139100Y-104311853D01*
X47278481Y-104404985D01*
X47397015Y-104523519D01*
X47490147Y-104662900D01*
X47554297Y-104817772D01*
X47587000Y-104982184D01*
X47587000Y-105149816D01*
X47554297Y-105314228D01*
X47490147Y-105469100D01*
X47397015Y-105608481D01*
X47278481Y-105727015D01*
X47139100Y-105820147D01*
X46984228Y-105884297D01*
X46819816Y-105917000D01*
X46652184Y-105917000D01*
X46487772Y-105884297D01*
X46332900Y-105820147D01*
X46193519Y-105727015D01*
X46074985Y-105608481D01*
X45981853Y-105469100D01*
X45917703Y-105314228D01*
X45885000Y-105149816D01*
X45885000Y-104982184D01*
X45917703Y-104817772D01*
X45981853Y-104662900D01*
X46074985Y-104523519D01*
X46193519Y-104404985D01*
X46332900Y-104311853D01*
X46487772Y-104247703D01*
X46652184Y-104215000D01*
X46819816Y-104215000D01*
X46984228Y-104247703D01*
X46984228Y-104247703D01*
G37*
G36*
X205907521Y-102590120D02*
G01*
X206157247Y-102647660D01*
X206157251Y-102647661D01*
X206390958Y-102752816D01*
X206443030Y-102789925D01*
X206599660Y-102901544D01*
X206718050Y-103027288D01*
X206775335Y-103088131D01*
X206911235Y-103305405D01*
X207002135Y-103545017D01*
X207033916Y-103734429D01*
X207049908Y-103969014D01*
X207082058Y-104440606D01*
X207077347Y-104597000D01*
X207076276Y-104632571D01*
X207018735Y-104882303D01*
X206913580Y-105116010D01*
X206889489Y-105149815D01*
X206764852Y-105324712D01*
X206578265Y-105500387D01*
X206360991Y-105636287D01*
X206121379Y-105727187D01*
X205868638Y-105769594D01*
X205868634Y-105769594D01*
X205612479Y-105761880D01*
X205362753Y-105704340D01*
X205362749Y-105704339D01*
X205129042Y-105599184D01*
X205048673Y-105541910D01*
X204920340Y-105450456D01*
X204744665Y-105263869D01*
X204687739Y-105172857D01*
X204608765Y-105046595D01*
X204517865Y-104806983D01*
X204486084Y-104617571D01*
X204474019Y-104440598D01*
X204437942Y-103911392D01*
X204443724Y-103719428D01*
X204501264Y-103469701D01*
X204501265Y-103469697D01*
X204606420Y-103235990D01*
X204649977Y-103174870D01*
X204755148Y-103027288D01*
X204941735Y-102851613D01*
X205040359Y-102789926D01*
X205159009Y-102715713D01*
X205398621Y-102624813D01*
X205651362Y-102582406D01*
X205651366Y-102582406D01*
X205907521Y-102590120D01*
X205907521Y-102590120D01*
G37*
G36*
X281853521Y-102590120D02*
G01*
X282103247Y-102647660D01*
X282103251Y-102647661D01*
X282336958Y-102752816D01*
X282389030Y-102789925D01*
X282545660Y-102901544D01*
X282664050Y-103027288D01*
X282721335Y-103088131D01*
X282857235Y-103305405D01*
X282948135Y-103545017D01*
X282979916Y-103734429D01*
X282995908Y-103969014D01*
X283028058Y-104440606D01*
X283023347Y-104597000D01*
X283022276Y-104632571D01*
X282964735Y-104882303D01*
X282859580Y-105116010D01*
X282835489Y-105149815D01*
X282710852Y-105324712D01*
X282524265Y-105500387D01*
X282306991Y-105636287D01*
X282067379Y-105727187D01*
X281814638Y-105769594D01*
X281814634Y-105769594D01*
X281558479Y-105761880D01*
X281308753Y-105704340D01*
X281308749Y-105704339D01*
X281075042Y-105599184D01*
X280994673Y-105541910D01*
X280866340Y-105450456D01*
X280690665Y-105263869D01*
X280633739Y-105172857D01*
X280554765Y-105046595D01*
X280463865Y-104806983D01*
X280432084Y-104617571D01*
X280420019Y-104440598D01*
X280383942Y-103911392D01*
X280389724Y-103719428D01*
X280447264Y-103469701D01*
X280447265Y-103469697D01*
X280552420Y-103235990D01*
X280595977Y-103174870D01*
X280701148Y-103027288D01*
X280887735Y-102851613D01*
X280986359Y-102789926D01*
X281105009Y-102715713D01*
X281344621Y-102624813D01*
X281597362Y-102582406D01*
X281597366Y-102582406D01*
X281853521Y-102590120D01*
X281853521Y-102590120D01*
G37*
G36*
X35727521Y-102590120D02*
G01*
X35977247Y-102647660D01*
X35977251Y-102647661D01*
X36210958Y-102752816D01*
X36263030Y-102789925D01*
X36419660Y-102901544D01*
X36538050Y-103027288D01*
X36595335Y-103088131D01*
X36731235Y-103305405D01*
X36822135Y-103545017D01*
X36853916Y-103734429D01*
X36869908Y-103969014D01*
X36902058Y-104440606D01*
X36897347Y-104597000D01*
X36896276Y-104632571D01*
X36838735Y-104882303D01*
X36733580Y-105116010D01*
X36709489Y-105149815D01*
X36584852Y-105324712D01*
X36398265Y-105500387D01*
X36180991Y-105636287D01*
X35941379Y-105727187D01*
X35688638Y-105769594D01*
X35688634Y-105769594D01*
X35432479Y-105761880D01*
X35182753Y-105704340D01*
X35182749Y-105704339D01*
X34949042Y-105599184D01*
X34868673Y-105541910D01*
X34740340Y-105450456D01*
X34564665Y-105263869D01*
X34507739Y-105172857D01*
X34428765Y-105046595D01*
X34337865Y-104806983D01*
X34306084Y-104617571D01*
X34294019Y-104440598D01*
X34257942Y-103911392D01*
X34263724Y-103719428D01*
X34321264Y-103469701D01*
X34321265Y-103469697D01*
X34426420Y-103235990D01*
X34469977Y-103174870D01*
X34575148Y-103027288D01*
X34761735Y-102851613D01*
X34860359Y-102789926D01*
X34979009Y-102715713D01*
X35218621Y-102624813D01*
X35471362Y-102582406D01*
X35471366Y-102582406D01*
X35727521Y-102590120D01*
X35727521Y-102590120D01*
G37*
G36*
X111927521Y-102590120D02*
G01*
X112177247Y-102647660D01*
X112177251Y-102647661D01*
X112410958Y-102752816D01*
X112463030Y-102789925D01*
X112619660Y-102901544D01*
X112738050Y-103027288D01*
X112795335Y-103088131D01*
X112931235Y-103305405D01*
X113022135Y-103545017D01*
X113053916Y-103734429D01*
X113069908Y-103969014D01*
X113102058Y-104440606D01*
X113097347Y-104597000D01*
X113096276Y-104632571D01*
X113038735Y-104882303D01*
X112933580Y-105116010D01*
X112909489Y-105149815D01*
X112784852Y-105324712D01*
X112598265Y-105500387D01*
X112380991Y-105636287D01*
X112141379Y-105727187D01*
X111888638Y-105769594D01*
X111888634Y-105769594D01*
X111632479Y-105761880D01*
X111382753Y-105704340D01*
X111382749Y-105704339D01*
X111149042Y-105599184D01*
X111068673Y-105541910D01*
X110940340Y-105450456D01*
X110764665Y-105263869D01*
X110707739Y-105172857D01*
X110628765Y-105046595D01*
X110537865Y-104806983D01*
X110506084Y-104617571D01*
X110494019Y-104440598D01*
X110457942Y-103911392D01*
X110463724Y-103719428D01*
X110521264Y-103469701D01*
X110521265Y-103469697D01*
X110626420Y-103235990D01*
X110669977Y-103174870D01*
X110775148Y-103027288D01*
X110961735Y-102851613D01*
X111060359Y-102789926D01*
X111179009Y-102715713D01*
X111418621Y-102624813D01*
X111671362Y-102582406D01*
X111671366Y-102582406D01*
X111927521Y-102590120D01*
X111927521Y-102590120D01*
G37*
G36*
X238341000Y-105589000D02*
G01*
X236639000Y-105589000D01*
X236639000Y-103887000D01*
X238341000Y-103887000D01*
X238341000Y-105589000D01*
X238341000Y-105589000D01*
G37*
G36*
X85687000Y-105589000D02*
G01*
X83985000Y-105589000D01*
X83985000Y-103887000D01*
X85687000Y-103887000D01*
X85687000Y-105589000D01*
X85687000Y-105589000D01*
G37*
G36*
X268355840Y-99866480D02*
G01*
X268534789Y-99899080D01*
X268750546Y-99984397D01*
X268773108Y-99993318D01*
X268773109Y-99993319D01*
X268773110Y-99993319D01*
X268988463Y-100132237D01*
X269172577Y-100310501D01*
X269172579Y-100310503D01*
X269281846Y-100468451D01*
X270154813Y-102040089D01*
X270231166Y-102216320D01*
X270285213Y-102466831D01*
X270289351Y-102723072D01*
X270277171Y-102789925D01*
X270243419Y-102975196D01*
X270191243Y-103107143D01*
X270151561Y-103207497D01*
X270149180Y-103213517D01*
X270010262Y-103428870D01*
X269838115Y-103606666D01*
X269831996Y-103612986D01*
X269763003Y-103660714D01*
X269621239Y-103758785D01*
X269519357Y-103802926D01*
X269386086Y-103860667D01*
X269135575Y-103914714D01*
X268879334Y-103918852D01*
X268806159Y-103905520D01*
X268627210Y-103872920D01*
X268388889Y-103778682D01*
X268173537Y-103639763D01*
X267989423Y-103461499D01*
X267989421Y-103461497D01*
X267880154Y-103303549D01*
X267007187Y-101731910D01*
X266930834Y-101555679D01*
X266876787Y-101305168D01*
X266872649Y-101048928D01*
X266888577Y-100961501D01*
X266918581Y-100796804D01*
X267003898Y-100581047D01*
X267012819Y-100558485D01*
X267022934Y-100542804D01*
X267151738Y-100343130D01*
X267330002Y-100159016D01*
X267330004Y-100159014D01*
X267431024Y-100089130D01*
X267540761Y-100013215D01*
X267698441Y-99944899D01*
X267775914Y-99911333D01*
X268026425Y-99857286D01*
X268282665Y-99853148D01*
X268355840Y-99866480D01*
X268355840Y-99866480D01*
G37*
G36*
X151367142Y-102088242D02*
G01*
X151515101Y-102149529D01*
X151648255Y-102238499D01*
X151761501Y-102351745D01*
X151850471Y-102484899D01*
X151911758Y-102632858D01*
X151943000Y-102789925D01*
X151943000Y-102950075D01*
X151911758Y-103107142D01*
X151850471Y-103255101D01*
X151761501Y-103388255D01*
X151648255Y-103501501D01*
X151515101Y-103590471D01*
X151367142Y-103651758D01*
X151210075Y-103683000D01*
X151049925Y-103683000D01*
X150892858Y-103651758D01*
X150744899Y-103590471D01*
X150611745Y-103501501D01*
X150498499Y-103388255D01*
X150409529Y-103255101D01*
X150348242Y-103107142D01*
X150317000Y-102950075D01*
X150317000Y-102789925D01*
X150348242Y-102632858D01*
X150409529Y-102484899D01*
X150498499Y-102351745D01*
X150611745Y-102238499D01*
X150744899Y-102149529D01*
X150892858Y-102088242D01*
X151049925Y-102057000D01*
X151210075Y-102057000D01*
X151367142Y-102088242D01*
X151367142Y-102088242D01*
G37*
G36*
X171687142Y-102088242D02*
G01*
X171835101Y-102149529D01*
X171968255Y-102238499D01*
X172081501Y-102351745D01*
X172170471Y-102484899D01*
X172231758Y-102632858D01*
X172263000Y-102789925D01*
X172263000Y-102950075D01*
X172231758Y-103107142D01*
X172170471Y-103255101D01*
X172081501Y-103388255D01*
X171968255Y-103501501D01*
X171835101Y-103590471D01*
X171687142Y-103651758D01*
X171530075Y-103683000D01*
X171369925Y-103683000D01*
X171212858Y-103651758D01*
X171064899Y-103590471D01*
X170931745Y-103501501D01*
X170818499Y-103388255D01*
X170729529Y-103255101D01*
X170668242Y-103107142D01*
X170637000Y-102950075D01*
X170637000Y-102789925D01*
X170668242Y-102632858D01*
X170729529Y-102484899D01*
X170818499Y-102351745D01*
X170931745Y-102238499D01*
X171064899Y-102149529D01*
X171212858Y-102088242D01*
X171369925Y-102057000D01*
X171530075Y-102057000D01*
X171687142Y-102088242D01*
X171687142Y-102088242D01*
G37*
G36*
X98429840Y-99612480D02*
G01*
X98608789Y-99645080D01*
X98824546Y-99730397D01*
X98847108Y-99739318D01*
X98847109Y-99739319D01*
X98847110Y-99739319D01*
X99062463Y-99878237D01*
X99246577Y-100056501D01*
X99246579Y-100056503D01*
X99355846Y-100214451D01*
X100228813Y-101786089D01*
X100305166Y-101962320D01*
X100359213Y-102212831D01*
X100363351Y-102469072D01*
X100360467Y-102484900D01*
X100317419Y-102721196D01*
X100223180Y-102959517D01*
X100084262Y-103174870D01*
X99905998Y-103358984D01*
X99905996Y-103358986D01*
X99806688Y-103427686D01*
X99695239Y-103504785D01*
X99602379Y-103545017D01*
X99460086Y-103606667D01*
X99209575Y-103660714D01*
X98953334Y-103664852D01*
X98880159Y-103651520D01*
X98701210Y-103618920D01*
X98462889Y-103524682D01*
X98247537Y-103385763D01*
X98063423Y-103207499D01*
X98063421Y-103207497D01*
X97954154Y-103049549D01*
X97081187Y-101477910D01*
X97004834Y-101301679D01*
X96950787Y-101051168D01*
X96946649Y-100794928D01*
X96959981Y-100721753D01*
X96992581Y-100542804D01*
X97077898Y-100327047D01*
X97086819Y-100304485D01*
X97086820Y-100304483D01*
X97225738Y-100089130D01*
X97404002Y-99905016D01*
X97404004Y-99905014D01*
X97538828Y-99811745D01*
X97614761Y-99759215D01*
X97754900Y-99698499D01*
X97849914Y-99657333D01*
X98100425Y-99603286D01*
X98356665Y-99599148D01*
X98429840Y-99612480D01*
X98429840Y-99612480D01*
G37*
G36*
X60329840Y-99612480D02*
G01*
X60508789Y-99645080D01*
X60724546Y-99730397D01*
X60747108Y-99739318D01*
X60747109Y-99739319D01*
X60747110Y-99739319D01*
X60962463Y-99878237D01*
X61146577Y-100056501D01*
X61146579Y-100056503D01*
X61255846Y-100214451D01*
X62128813Y-101786089D01*
X62205166Y-101962320D01*
X62259213Y-102212831D01*
X62263351Y-102469072D01*
X62260467Y-102484900D01*
X62217419Y-102721196D01*
X62123180Y-102959517D01*
X61984262Y-103174870D01*
X61805998Y-103358984D01*
X61805996Y-103358986D01*
X61706688Y-103427686D01*
X61595239Y-103504785D01*
X61502379Y-103545017D01*
X61360086Y-103606667D01*
X61109575Y-103660714D01*
X60853334Y-103664852D01*
X60780159Y-103651520D01*
X60601210Y-103618920D01*
X60362889Y-103524682D01*
X60147537Y-103385763D01*
X59963423Y-103207499D01*
X59963421Y-103207497D01*
X59854154Y-103049549D01*
X58981187Y-101477910D01*
X58904834Y-101301679D01*
X58850787Y-101051168D01*
X58846649Y-100794928D01*
X58859981Y-100721753D01*
X58892581Y-100542804D01*
X58977898Y-100327047D01*
X58986819Y-100304485D01*
X58986820Y-100304483D01*
X59125738Y-100089130D01*
X59304002Y-99905016D01*
X59304004Y-99905014D01*
X59438828Y-99811745D01*
X59514761Y-99759215D01*
X59654900Y-99698499D01*
X59749914Y-99657333D01*
X60000425Y-99603286D01*
X60256665Y-99599148D01*
X60329840Y-99612480D01*
X60329840Y-99612480D01*
G37*
G36*
X230509840Y-99612480D02*
G01*
X230688789Y-99645080D01*
X230904546Y-99730397D01*
X230927108Y-99739318D01*
X230927109Y-99739319D01*
X230927110Y-99739319D01*
X231142463Y-99878237D01*
X231326577Y-100056501D01*
X231326579Y-100056503D01*
X231435846Y-100214451D01*
X232308813Y-101786089D01*
X232385166Y-101962320D01*
X232439213Y-102212831D01*
X232443351Y-102469072D01*
X232440467Y-102484900D01*
X232397419Y-102721196D01*
X232303180Y-102959517D01*
X232164262Y-103174870D01*
X231985998Y-103358984D01*
X231985996Y-103358986D01*
X231886688Y-103427686D01*
X231775239Y-103504785D01*
X231682379Y-103545017D01*
X231540086Y-103606667D01*
X231289575Y-103660714D01*
X231033334Y-103664852D01*
X230960159Y-103651520D01*
X230781210Y-103618920D01*
X230542889Y-103524682D01*
X230327537Y-103385763D01*
X230143423Y-103207499D01*
X230143421Y-103207497D01*
X230034154Y-103049549D01*
X229161187Y-101477910D01*
X229084834Y-101301679D01*
X229030787Y-101051168D01*
X229026649Y-100794928D01*
X229039981Y-100721753D01*
X229072581Y-100542804D01*
X229157898Y-100327047D01*
X229166819Y-100304485D01*
X229166820Y-100304483D01*
X229305738Y-100089130D01*
X229484002Y-99905016D01*
X229484004Y-99905014D01*
X229618828Y-99811745D01*
X229694761Y-99759215D01*
X229834900Y-99698499D01*
X229929914Y-99657333D01*
X230180425Y-99603286D01*
X230436665Y-99599148D01*
X230509840Y-99612480D01*
X230509840Y-99612480D01*
G37*
G36*
X256788228Y-100437703D02*
G01*
X256943100Y-100501853D01*
X257082481Y-100594985D01*
X257201015Y-100713519D01*
X257294147Y-100852900D01*
X257358297Y-101007772D01*
X257391000Y-101172184D01*
X257391000Y-101339816D01*
X257358297Y-101504228D01*
X257294147Y-101659100D01*
X257201015Y-101798481D01*
X257082481Y-101917015D01*
X256943100Y-102010147D01*
X256788228Y-102074297D01*
X256623816Y-102107000D01*
X256456184Y-102107000D01*
X256291772Y-102074297D01*
X256136900Y-102010147D01*
X255997519Y-101917015D01*
X255878985Y-101798481D01*
X255785853Y-101659100D01*
X255721703Y-101504228D01*
X255689000Y-101339816D01*
X255689000Y-101172184D01*
X255721703Y-101007772D01*
X255785853Y-100852900D01*
X255878985Y-100713519D01*
X255997519Y-100594985D01*
X256136900Y-100501853D01*
X256291772Y-100437703D01*
X256456184Y-100405000D01*
X256623816Y-100405000D01*
X256788228Y-100437703D01*
X256788228Y-100437703D01*
G37*
G36*
X262803521Y-98780120D02*
G01*
X263052748Y-98837545D01*
X263053251Y-98837661D01*
X263286958Y-98942816D01*
X263315685Y-98963288D01*
X263495660Y-99091544D01*
X263671335Y-99278131D01*
X263807235Y-99495405D01*
X263898135Y-99735017D01*
X263929916Y-99924429D01*
X263952106Y-100249926D01*
X263978058Y-100630606D01*
X263972276Y-100822572D01*
X263932090Y-100996983D01*
X263914735Y-101072303D01*
X263809580Y-101306010D01*
X263785489Y-101339815D01*
X263660852Y-101514712D01*
X263474265Y-101690387D01*
X263256991Y-101826287D01*
X263017379Y-101917187D01*
X262764638Y-101959594D01*
X262764634Y-101959594D01*
X262508479Y-101951880D01*
X262258753Y-101894340D01*
X262258749Y-101894339D01*
X262025042Y-101789184D01*
X261944673Y-101731910D01*
X261816340Y-101640456D01*
X261640665Y-101453869D01*
X261598499Y-101386455D01*
X261504765Y-101236595D01*
X261413865Y-100996983D01*
X261382084Y-100807571D01*
X261367858Y-100598900D01*
X261333942Y-100101392D01*
X261339724Y-99909428D01*
X261397264Y-99659701D01*
X261397265Y-99659697D01*
X261502420Y-99425990D01*
X261576697Y-99321762D01*
X261651148Y-99217288D01*
X261837735Y-99041613D01*
X261865685Y-99024131D01*
X262055009Y-98905713D01*
X262294621Y-98814813D01*
X262547362Y-98772406D01*
X262547366Y-98772406D01*
X262803521Y-98780120D01*
X262803521Y-98780120D01*
G37*
G36*
X218942228Y-100183703D02*
G01*
X219097100Y-100247853D01*
X219236481Y-100340985D01*
X219355015Y-100459519D01*
X219448147Y-100598900D01*
X219512297Y-100753772D01*
X219545000Y-100918184D01*
X219545000Y-101085816D01*
X219512297Y-101250228D01*
X219448147Y-101405100D01*
X219355015Y-101544481D01*
X219236481Y-101663015D01*
X219097100Y-101756147D01*
X218942228Y-101820297D01*
X218777816Y-101853000D01*
X218610184Y-101853000D01*
X218445772Y-101820297D01*
X218290900Y-101756147D01*
X218151519Y-101663015D01*
X218032985Y-101544481D01*
X217939853Y-101405100D01*
X217875703Y-101250228D01*
X217843000Y-101085816D01*
X217843000Y-100918184D01*
X217875703Y-100753772D01*
X217939853Y-100598900D01*
X218032985Y-100459519D01*
X218151519Y-100340985D01*
X218290900Y-100247853D01*
X218445772Y-100183703D01*
X218610184Y-100151000D01*
X218777816Y-100151000D01*
X218942228Y-100183703D01*
X218942228Y-100183703D01*
G37*
G36*
X66034228Y-100183703D02*
G01*
X66189100Y-100247853D01*
X66328481Y-100340985D01*
X66447015Y-100459519D01*
X66540147Y-100598900D01*
X66604297Y-100753772D01*
X66637000Y-100918184D01*
X66637000Y-101085816D01*
X66604297Y-101250228D01*
X66540147Y-101405100D01*
X66447015Y-101544481D01*
X66328481Y-101663015D01*
X66189100Y-101756147D01*
X66034228Y-101820297D01*
X65869816Y-101853000D01*
X65702184Y-101853000D01*
X65537772Y-101820297D01*
X65382900Y-101756147D01*
X65243519Y-101663015D01*
X65124985Y-101544481D01*
X65031853Y-101405100D01*
X64967703Y-101250228D01*
X64935000Y-101085816D01*
X64935000Y-100918184D01*
X64967703Y-100753772D01*
X65031853Y-100598900D01*
X65124985Y-100459519D01*
X65243519Y-100340985D01*
X65382900Y-100247853D01*
X65537772Y-100183703D01*
X65702184Y-100151000D01*
X65869816Y-100151000D01*
X66034228Y-100183703D01*
X66034228Y-100183703D01*
G37*
G36*
X104134228Y-100183703D02*
G01*
X104289100Y-100247853D01*
X104428481Y-100340985D01*
X104547015Y-100459519D01*
X104640147Y-100598900D01*
X104704297Y-100753772D01*
X104737000Y-100918184D01*
X104737000Y-101085816D01*
X104704297Y-101250228D01*
X104640147Y-101405100D01*
X104547015Y-101544481D01*
X104428481Y-101663015D01*
X104289100Y-101756147D01*
X104134228Y-101820297D01*
X103969816Y-101853000D01*
X103802184Y-101853000D01*
X103637772Y-101820297D01*
X103482900Y-101756147D01*
X103343519Y-101663015D01*
X103224985Y-101544481D01*
X103131853Y-101405100D01*
X103067703Y-101250228D01*
X103035000Y-101085816D01*
X103035000Y-100918184D01*
X103067703Y-100753772D01*
X103131853Y-100598900D01*
X103224985Y-100459519D01*
X103343519Y-100340985D01*
X103482900Y-100247853D01*
X103637772Y-100183703D01*
X103802184Y-100151000D01*
X103969816Y-100151000D01*
X104134228Y-100183703D01*
X104134228Y-100183703D01*
G37*
G36*
X54777521Y-98526120D02*
G01*
X55027247Y-98583660D01*
X55027251Y-98583661D01*
X55260958Y-98688816D01*
X55313398Y-98726187D01*
X55469660Y-98837544D01*
X55568775Y-98942816D01*
X55645335Y-99024131D01*
X55781235Y-99241405D01*
X55872135Y-99481017D01*
X55903916Y-99670429D01*
X55922627Y-99944899D01*
X55952058Y-100376606D01*
X55946276Y-100568572D01*
X55912878Y-100713520D01*
X55888735Y-100818303D01*
X55783580Y-101052010D01*
X55769121Y-101072299D01*
X55634852Y-101260712D01*
X55481495Y-101405100D01*
X55448265Y-101436387D01*
X55230991Y-101572287D01*
X54991379Y-101663187D01*
X54738638Y-101705594D01*
X54738634Y-101705594D01*
X54482479Y-101697880D01*
X54232753Y-101640340D01*
X54232749Y-101640339D01*
X53999042Y-101535184D01*
X53918673Y-101477910D01*
X53790340Y-101386456D01*
X53614665Y-101199869D01*
X53559553Y-101111757D01*
X53478765Y-100982595D01*
X53387865Y-100742983D01*
X53358361Y-100567142D01*
X53356084Y-100553572D01*
X53307942Y-99847392D01*
X53313724Y-99655428D01*
X53371264Y-99405701D01*
X53371265Y-99405697D01*
X53476420Y-99171990D01*
X53533749Y-99091544D01*
X53625148Y-98963288D01*
X53811735Y-98787613D01*
X53902247Y-98731000D01*
X54029009Y-98651713D01*
X54268621Y-98560813D01*
X54521362Y-98518406D01*
X54521366Y-98518406D01*
X54777521Y-98526120D01*
X54777521Y-98526120D01*
G37*
G36*
X92877521Y-98526120D02*
G01*
X93127247Y-98583660D01*
X93127251Y-98583661D01*
X93360958Y-98688816D01*
X93413398Y-98726187D01*
X93569660Y-98837544D01*
X93668775Y-98942816D01*
X93745335Y-99024131D01*
X93881235Y-99241405D01*
X93972135Y-99481017D01*
X94003916Y-99670429D01*
X94022627Y-99944899D01*
X94052058Y-100376606D01*
X94046276Y-100568572D01*
X94012878Y-100713520D01*
X93988735Y-100818303D01*
X93883580Y-101052010D01*
X93869121Y-101072299D01*
X93734852Y-101260712D01*
X93581495Y-101405100D01*
X93548265Y-101436387D01*
X93330991Y-101572287D01*
X93091379Y-101663187D01*
X92838638Y-101705594D01*
X92838634Y-101705594D01*
X92582479Y-101697880D01*
X92332753Y-101640340D01*
X92332749Y-101640339D01*
X92099042Y-101535184D01*
X92018673Y-101477910D01*
X91890340Y-101386456D01*
X91714665Y-101199869D01*
X91659553Y-101111757D01*
X91578765Y-100982595D01*
X91487865Y-100742983D01*
X91458361Y-100567142D01*
X91456084Y-100553572D01*
X91407942Y-99847392D01*
X91413724Y-99655428D01*
X91471264Y-99405701D01*
X91471265Y-99405697D01*
X91576420Y-99171990D01*
X91633749Y-99091544D01*
X91725148Y-98963288D01*
X91911735Y-98787613D01*
X92002247Y-98731000D01*
X92129009Y-98651713D01*
X92368621Y-98560813D01*
X92621362Y-98518406D01*
X92621366Y-98518406D01*
X92877521Y-98526120D01*
X92877521Y-98526120D01*
G37*
G36*
X224957521Y-98526120D02*
G01*
X225207247Y-98583660D01*
X225207251Y-98583661D01*
X225440958Y-98688816D01*
X225493398Y-98726187D01*
X225649660Y-98837544D01*
X225748775Y-98942816D01*
X225825335Y-99024131D01*
X225961235Y-99241405D01*
X226052135Y-99481017D01*
X226083916Y-99670429D01*
X226102627Y-99944899D01*
X226132058Y-100376606D01*
X226126276Y-100568572D01*
X226092878Y-100713520D01*
X226068735Y-100818303D01*
X225963580Y-101052010D01*
X225949121Y-101072299D01*
X225814852Y-101260712D01*
X225661495Y-101405100D01*
X225628265Y-101436387D01*
X225410991Y-101572287D01*
X225171379Y-101663187D01*
X224918638Y-101705594D01*
X224918634Y-101705594D01*
X224662479Y-101697880D01*
X224412753Y-101640340D01*
X224412749Y-101640339D01*
X224179042Y-101535184D01*
X224098673Y-101477910D01*
X223970340Y-101386456D01*
X223794665Y-101199869D01*
X223739553Y-101111757D01*
X223658765Y-100982595D01*
X223567865Y-100742983D01*
X223538361Y-100567142D01*
X223536084Y-100553572D01*
X223487942Y-99847392D01*
X223493724Y-99655428D01*
X223551264Y-99405701D01*
X223551265Y-99405697D01*
X223656420Y-99171990D01*
X223713749Y-99091544D01*
X223805148Y-98963288D01*
X223991735Y-98787613D01*
X224082247Y-98731000D01*
X224209009Y-98651713D01*
X224448621Y-98560813D01*
X224701362Y-98518406D01*
X224701366Y-98518406D01*
X224957521Y-98526120D01*
X224957521Y-98526120D01*
G37*
G36*
X171687142Y-99548242D02*
G01*
X171835101Y-99609529D01*
X171968255Y-99698499D01*
X172081501Y-99811745D01*
X172170471Y-99944899D01*
X172231758Y-100092858D01*
X172263000Y-100249925D01*
X172263000Y-100410075D01*
X172231758Y-100567142D01*
X172170471Y-100715101D01*
X172081501Y-100848255D01*
X171968255Y-100961501D01*
X171835101Y-101050471D01*
X171687142Y-101111758D01*
X171530075Y-101143000D01*
X171369925Y-101143000D01*
X171212858Y-101111758D01*
X171064899Y-101050471D01*
X170931745Y-100961501D01*
X170818499Y-100848255D01*
X170729529Y-100715101D01*
X170668242Y-100567142D01*
X170637000Y-100410075D01*
X170637000Y-100249925D01*
X170668242Y-100092858D01*
X170729529Y-99944899D01*
X170818499Y-99811745D01*
X170931745Y-99698499D01*
X171064899Y-99609529D01*
X171212858Y-99548242D01*
X171369925Y-99517000D01*
X171530075Y-99517000D01*
X171687142Y-99548242D01*
X171687142Y-99548242D01*
G37*
G36*
X151367142Y-99548242D02*
G01*
X151515101Y-99609529D01*
X151648255Y-99698499D01*
X151761501Y-99811745D01*
X151850471Y-99944899D01*
X151911758Y-100092858D01*
X151943000Y-100249925D01*
X151943000Y-100410075D01*
X151911758Y-100567142D01*
X151850471Y-100715101D01*
X151761501Y-100848255D01*
X151648255Y-100961501D01*
X151515101Y-101050471D01*
X151367142Y-101111758D01*
X151210075Y-101143000D01*
X151049925Y-101143000D01*
X150892858Y-101111758D01*
X150744899Y-101050471D01*
X150611745Y-100961501D01*
X150498499Y-100848255D01*
X150409529Y-100715101D01*
X150348242Y-100567142D01*
X150317000Y-100410075D01*
X150317000Y-100249925D01*
X150348242Y-100092858D01*
X150409529Y-99944899D01*
X150498499Y-99811745D01*
X150611745Y-99698499D01*
X150744899Y-99609529D01*
X150892858Y-99548242D01*
X151049925Y-99517000D01*
X151210075Y-99517000D01*
X151367142Y-99548242D01*
X151367142Y-99548242D01*
G37*
G36*
X79379840Y-95548480D02*
G01*
X79558789Y-95581080D01*
X79774546Y-95666397D01*
X79797108Y-95675318D01*
X79797109Y-95675319D01*
X79797110Y-95675319D01*
X80012463Y-95814237D01*
X80081932Y-95881499D01*
X80196579Y-95992503D01*
X80305846Y-96150451D01*
X81178813Y-97722089D01*
X81255166Y-97898320D01*
X81309213Y-98148831D01*
X81313351Y-98405072D01*
X81300019Y-98478247D01*
X81267419Y-98657196D01*
X81173180Y-98895517D01*
X81034262Y-99110870D01*
X80855998Y-99294984D01*
X80855996Y-99294986D01*
X80756688Y-99363686D01*
X80645239Y-99440785D01*
X80552379Y-99481017D01*
X80410086Y-99542667D01*
X80159575Y-99596714D01*
X79903334Y-99600852D01*
X79830159Y-99587520D01*
X79651210Y-99554920D01*
X79412889Y-99460682D01*
X79197537Y-99321763D01*
X79013423Y-99143499D01*
X79013421Y-99143497D01*
X78904154Y-98985549D01*
X78031187Y-97413910D01*
X77954834Y-97237679D01*
X77900787Y-96987168D01*
X77896649Y-96730928D01*
X77909981Y-96657753D01*
X77942581Y-96478804D01*
X78036820Y-96240483D01*
X78175738Y-96025130D01*
X78354002Y-95841016D01*
X78354004Y-95841014D01*
X78459180Y-95768255D01*
X78564761Y-95695215D01*
X78703510Y-95635101D01*
X78799914Y-95593333D01*
X79050425Y-95539286D01*
X79306665Y-95535148D01*
X79379840Y-95548480D01*
X79379840Y-95548480D01*
G37*
G36*
X249305840Y-95548480D02*
G01*
X249484789Y-95581080D01*
X249700546Y-95666397D01*
X249723108Y-95675318D01*
X249723109Y-95675319D01*
X249723110Y-95675319D01*
X249938463Y-95814237D01*
X250007932Y-95881499D01*
X250122579Y-95992503D01*
X250231846Y-96150451D01*
X251104813Y-97722089D01*
X251181166Y-97898320D01*
X251235213Y-98148831D01*
X251239351Y-98405072D01*
X251226019Y-98478247D01*
X251193419Y-98657196D01*
X251099180Y-98895517D01*
X250960262Y-99110870D01*
X250781998Y-99294984D01*
X250781996Y-99294986D01*
X250682688Y-99363686D01*
X250571239Y-99440785D01*
X250478379Y-99481017D01*
X250336086Y-99542667D01*
X250085575Y-99596714D01*
X249829334Y-99600852D01*
X249756159Y-99587520D01*
X249577210Y-99554920D01*
X249338889Y-99460682D01*
X249123537Y-99321763D01*
X248939423Y-99143499D01*
X248939421Y-99143497D01*
X248830154Y-98985549D01*
X247957187Y-97413910D01*
X247880834Y-97237679D01*
X247826787Y-96987168D01*
X247822649Y-96730928D01*
X247835981Y-96657753D01*
X247868581Y-96478804D01*
X247962820Y-96240483D01*
X248101738Y-96025130D01*
X248280002Y-95841016D01*
X248280004Y-95841014D01*
X248385180Y-95768255D01*
X248490761Y-95695215D01*
X248629510Y-95635101D01*
X248725914Y-95593333D01*
X248976425Y-95539286D01*
X249232665Y-95535148D01*
X249305840Y-95548480D01*
X249305840Y-95548480D01*
G37*
G36*
X28791000Y-98731000D02*
G01*
X27089000Y-98731000D01*
X27089000Y-97029000D01*
X28791000Y-97029000D01*
X28791000Y-98731000D01*
X28791000Y-98731000D01*
G37*
G36*
X295491000Y-98731000D02*
G01*
X293789000Y-98731000D01*
X293789000Y-97029000D01*
X295491000Y-97029000D01*
X295491000Y-98731000D01*
X295491000Y-98731000D01*
G37*
G36*
X171687142Y-97008242D02*
G01*
X171835101Y-97069529D01*
X171968255Y-97158499D01*
X172081501Y-97271745D01*
X172170471Y-97404899D01*
X172231758Y-97552858D01*
X172263000Y-97709925D01*
X172263000Y-97870075D01*
X172231758Y-98027142D01*
X172170471Y-98175101D01*
X172081501Y-98308255D01*
X171968255Y-98421501D01*
X171835101Y-98510471D01*
X171687142Y-98571758D01*
X171530075Y-98603000D01*
X171369925Y-98603000D01*
X171212858Y-98571758D01*
X171064899Y-98510471D01*
X170931745Y-98421501D01*
X170818499Y-98308255D01*
X170729529Y-98175101D01*
X170668242Y-98027142D01*
X170637000Y-97870075D01*
X170637000Y-97709925D01*
X170668242Y-97552858D01*
X170729529Y-97404899D01*
X170818499Y-97271745D01*
X170931745Y-97158499D01*
X171064899Y-97069529D01*
X171212858Y-97008242D01*
X171369925Y-96977000D01*
X171530075Y-96977000D01*
X171687142Y-97008242D01*
X171687142Y-97008242D01*
G37*
G36*
X151367142Y-97008242D02*
G01*
X151515101Y-97069529D01*
X151648255Y-97158499D01*
X151761501Y-97271745D01*
X151850471Y-97404899D01*
X151911758Y-97552858D01*
X151943000Y-97709925D01*
X151943000Y-97870075D01*
X151911758Y-98027142D01*
X151850471Y-98175101D01*
X151761501Y-98308255D01*
X151648255Y-98421501D01*
X151515101Y-98510471D01*
X151367142Y-98571758D01*
X151210075Y-98603000D01*
X151049925Y-98603000D01*
X150892858Y-98571758D01*
X150744899Y-98510471D01*
X150611745Y-98421501D01*
X150498499Y-98308255D01*
X150409529Y-98175101D01*
X150348242Y-98027142D01*
X150317000Y-97870075D01*
X150317000Y-97709925D01*
X150348242Y-97552858D01*
X150409529Y-97404899D01*
X150498499Y-97271745D01*
X150611745Y-97158499D01*
X150744899Y-97069529D01*
X150892858Y-97008242D01*
X151049925Y-96977000D01*
X151210075Y-96977000D01*
X151367142Y-97008242D01*
X151367142Y-97008242D01*
G37*
G36*
X85084228Y-96119703D02*
G01*
X85239100Y-96183853D01*
X85378481Y-96276985D01*
X85497015Y-96395519D01*
X85590147Y-96534900D01*
X85654297Y-96689772D01*
X85687000Y-96854184D01*
X85687000Y-97021816D01*
X85654297Y-97186228D01*
X85590147Y-97341100D01*
X85497015Y-97480481D01*
X85378481Y-97599015D01*
X85239100Y-97692147D01*
X85084228Y-97756297D01*
X84919816Y-97789000D01*
X84752184Y-97789000D01*
X84587772Y-97756297D01*
X84432900Y-97692147D01*
X84293519Y-97599015D01*
X84174985Y-97480481D01*
X84081853Y-97341100D01*
X84017703Y-97186228D01*
X83985000Y-97021816D01*
X83985000Y-96854184D01*
X84017703Y-96689772D01*
X84081853Y-96534900D01*
X84174985Y-96395519D01*
X84293519Y-96276985D01*
X84432900Y-96183853D01*
X84587772Y-96119703D01*
X84752184Y-96087000D01*
X84919816Y-96087000D01*
X85084228Y-96119703D01*
X85084228Y-96119703D01*
G37*
G36*
X237738228Y-96119703D02*
G01*
X237893100Y-96183853D01*
X238032481Y-96276985D01*
X238151015Y-96395519D01*
X238244147Y-96534900D01*
X238308297Y-96689772D01*
X238341000Y-96854184D01*
X238341000Y-97021816D01*
X238308297Y-97186228D01*
X238244147Y-97341100D01*
X238151015Y-97480481D01*
X238032481Y-97599015D01*
X237893100Y-97692147D01*
X237738228Y-97756297D01*
X237573816Y-97789000D01*
X237406184Y-97789000D01*
X237241772Y-97756297D01*
X237086900Y-97692147D01*
X236947519Y-97599015D01*
X236828985Y-97480481D01*
X236735853Y-97341100D01*
X236671703Y-97186228D01*
X236639000Y-97021816D01*
X236639000Y-96854184D01*
X236671703Y-96689772D01*
X236735853Y-96534900D01*
X236828985Y-96395519D01*
X236947519Y-96276985D01*
X237086900Y-96183853D01*
X237241772Y-96119703D01*
X237406184Y-96087000D01*
X237573816Y-96087000D01*
X237738228Y-96119703D01*
X237738228Y-96119703D01*
G37*
G36*
X243753521Y-94462120D02*
G01*
X244003247Y-94519660D01*
X244003251Y-94519661D01*
X244236958Y-94624816D01*
X244289398Y-94662187D01*
X244445660Y-94773544D01*
X244564050Y-94899288D01*
X244621335Y-94960131D01*
X244757235Y-95177405D01*
X244848135Y-95417017D01*
X244879916Y-95606429D01*
X244911041Y-96063000D01*
X244928058Y-96312606D01*
X244923052Y-96478804D01*
X244922276Y-96504571D01*
X244864735Y-96754303D01*
X244759580Y-96988010D01*
X244745161Y-97008243D01*
X244610852Y-97196712D01*
X244457495Y-97341100D01*
X244424265Y-97372387D01*
X244206991Y-97508287D01*
X243967379Y-97599187D01*
X243714638Y-97641594D01*
X243714634Y-97641594D01*
X243458479Y-97633880D01*
X243208753Y-97576340D01*
X243208749Y-97576339D01*
X242975042Y-97471184D01*
X242894673Y-97413910D01*
X242766340Y-97322456D01*
X242590665Y-97135869D01*
X242523821Y-97029000D01*
X242454765Y-96918595D01*
X242363865Y-96678983D01*
X242332084Y-96489571D01*
X242320019Y-96312598D01*
X242283942Y-95783392D01*
X242289724Y-95591428D01*
X242347264Y-95341701D01*
X242347265Y-95341697D01*
X242452420Y-95107990D01*
X242520215Y-95012858D01*
X242601148Y-94899288D01*
X242787735Y-94723613D01*
X242878247Y-94667000D01*
X243005009Y-94587713D01*
X243244621Y-94496813D01*
X243497362Y-94454406D01*
X243497366Y-94454406D01*
X243753521Y-94462120D01*
X243753521Y-94462120D01*
G37*
G36*
X73827521Y-94462120D02*
G01*
X74077247Y-94519660D01*
X74077251Y-94519661D01*
X74310958Y-94624816D01*
X74363398Y-94662187D01*
X74519660Y-94773544D01*
X74638050Y-94899288D01*
X74695335Y-94960131D01*
X74831235Y-95177405D01*
X74922135Y-95417017D01*
X74953916Y-95606429D01*
X74985041Y-96063000D01*
X75002058Y-96312606D01*
X74997052Y-96478804D01*
X74996276Y-96504571D01*
X74938735Y-96754303D01*
X74833580Y-96988010D01*
X74819161Y-97008243D01*
X74684852Y-97196712D01*
X74531495Y-97341100D01*
X74498265Y-97372387D01*
X74280991Y-97508287D01*
X74041379Y-97599187D01*
X73788638Y-97641594D01*
X73788634Y-97641594D01*
X73532479Y-97633880D01*
X73282753Y-97576340D01*
X73282749Y-97576339D01*
X73049042Y-97471184D01*
X72968673Y-97413910D01*
X72840340Y-97322456D01*
X72664665Y-97135869D01*
X72597821Y-97029000D01*
X72528765Y-96918595D01*
X72437865Y-96678983D01*
X72406084Y-96489571D01*
X72394019Y-96312598D01*
X72357942Y-95783392D01*
X72363724Y-95591428D01*
X72421264Y-95341701D01*
X72421265Y-95341697D01*
X72526420Y-95107990D01*
X72594215Y-95012858D01*
X72675148Y-94899288D01*
X72861735Y-94723613D01*
X72952247Y-94667000D01*
X73079009Y-94587713D01*
X73318621Y-94496813D01*
X73571362Y-94454406D01*
X73571366Y-94454406D01*
X73827521Y-94462120D01*
X73827521Y-94462120D01*
G37*
G36*
X171687142Y-94468242D02*
G01*
X171835101Y-94529529D01*
X171968255Y-94618499D01*
X172081501Y-94731745D01*
X172170471Y-94864899D01*
X172231758Y-95012858D01*
X172263000Y-95169925D01*
X172263000Y-95330075D01*
X172231758Y-95487142D01*
X172170471Y-95635101D01*
X172081501Y-95768255D01*
X171968255Y-95881501D01*
X171835101Y-95970471D01*
X171687142Y-96031758D01*
X171530075Y-96063000D01*
X171369925Y-96063000D01*
X171212858Y-96031758D01*
X171064899Y-95970471D01*
X170931745Y-95881501D01*
X170818499Y-95768255D01*
X170729529Y-95635101D01*
X170668242Y-95487142D01*
X170637000Y-95330075D01*
X170637000Y-95169925D01*
X170668242Y-95012858D01*
X170729529Y-94864899D01*
X170818499Y-94731745D01*
X170931745Y-94618499D01*
X171064899Y-94529529D01*
X171212858Y-94468242D01*
X171369925Y-94437000D01*
X171530075Y-94437000D01*
X171687142Y-94468242D01*
X171687142Y-94468242D01*
G37*
G36*
X151367142Y-94468242D02*
G01*
X151515101Y-94529529D01*
X151648255Y-94618499D01*
X151761501Y-94731745D01*
X151850471Y-94864899D01*
X151911758Y-95012858D01*
X151943000Y-95169925D01*
X151943000Y-95330075D01*
X151911758Y-95487142D01*
X151850471Y-95635101D01*
X151761501Y-95768255D01*
X151648255Y-95881501D01*
X151515101Y-95970471D01*
X151367142Y-96031758D01*
X151210075Y-96063000D01*
X151049925Y-96063000D01*
X150892858Y-96031758D01*
X150744899Y-95970471D01*
X150611745Y-95881501D01*
X150498499Y-95768255D01*
X150409529Y-95635101D01*
X150348242Y-95487142D01*
X150317000Y-95330075D01*
X150317000Y-95169925D01*
X150348242Y-95012858D01*
X150409529Y-94864899D01*
X150498499Y-94731745D01*
X150611745Y-94618499D01*
X150744899Y-94529529D01*
X150892858Y-94468242D01*
X151049925Y-94437000D01*
X151210075Y-94437000D01*
X151367142Y-94468242D01*
X151367142Y-94468242D01*
G37*
G36*
X276441000Y-94667000D02*
G01*
X274739000Y-94667000D01*
X274739000Y-92965000D01*
X276441000Y-92965000D01*
X276441000Y-94667000D01*
X276441000Y-94667000D01*
G37*
G36*
X200495000Y-94667000D02*
G01*
X198793000Y-94667000D01*
X198793000Y-92965000D01*
X200495000Y-92965000D01*
X200495000Y-94667000D01*
X200495000Y-94667000D01*
G37*
G36*
X123787000Y-94413000D02*
G01*
X122085000Y-94413000D01*
X122085000Y-92711000D01*
X123787000Y-92711000D01*
X123787000Y-94413000D01*
X123787000Y-94413000D01*
G37*
G36*
X151367142Y-91928242D02*
G01*
X151515101Y-91989529D01*
X151648255Y-92078499D01*
X151761501Y-92191745D01*
X151850471Y-92324899D01*
X151911758Y-92472858D01*
X151943000Y-92629925D01*
X151943000Y-92790075D01*
X151911758Y-92947142D01*
X151850471Y-93095101D01*
X151761501Y-93228255D01*
X151648255Y-93341501D01*
X151515101Y-93430471D01*
X151367142Y-93491758D01*
X151210075Y-93523000D01*
X151049925Y-93523000D01*
X150892858Y-93491758D01*
X150744899Y-93430471D01*
X150611745Y-93341501D01*
X150498499Y-93228255D01*
X150409529Y-93095101D01*
X150348242Y-92947142D01*
X150317000Y-92790075D01*
X150317000Y-92629925D01*
X150348242Y-92472858D01*
X150409529Y-92324899D01*
X150498499Y-92191745D01*
X150611745Y-92078499D01*
X150744899Y-91989529D01*
X150892858Y-91928242D01*
X151049925Y-91897000D01*
X151210075Y-91897000D01*
X151367142Y-91928242D01*
X151367142Y-91928242D01*
G37*
G36*
X171687142Y-91928242D02*
G01*
X171835101Y-91989529D01*
X171968255Y-92078499D01*
X172081501Y-92191745D01*
X172170471Y-92324899D01*
X172231758Y-92472858D01*
X172263000Y-92629925D01*
X172263000Y-92790075D01*
X172231758Y-92947142D01*
X172170471Y-93095101D01*
X172081501Y-93228255D01*
X171968255Y-93341501D01*
X171835101Y-93430471D01*
X171687142Y-93491758D01*
X171530075Y-93523000D01*
X171369925Y-93523000D01*
X171212858Y-93491758D01*
X171064899Y-93430471D01*
X170931745Y-93341501D01*
X170818499Y-93228255D01*
X170729529Y-93095101D01*
X170668242Y-92947142D01*
X170637000Y-92790075D01*
X170637000Y-92629925D01*
X170668242Y-92472858D01*
X170729529Y-92324899D01*
X170818499Y-92191745D01*
X170931745Y-92078499D01*
X171064899Y-91989529D01*
X171212858Y-91928242D01*
X171369925Y-91897000D01*
X171530075Y-91897000D01*
X171687142Y-91928242D01*
X171687142Y-91928242D01*
G37*
G36*
X22483840Y-88690480D02*
G01*
X22662789Y-88723080D01*
X22878546Y-88808397D01*
X22901108Y-88817318D01*
X22901109Y-88817319D01*
X22901110Y-88817319D01*
X23116463Y-88956237D01*
X23300577Y-89134501D01*
X23300579Y-89134503D01*
X23409846Y-89292451D01*
X24282813Y-90864089D01*
X24359166Y-91040320D01*
X24413213Y-91290831D01*
X24417351Y-91547072D01*
X24404019Y-91620247D01*
X24371419Y-91799196D01*
X24277180Y-92037517D01*
X24138262Y-92252870D01*
X23959998Y-92436984D01*
X23959996Y-92436986D01*
X23860688Y-92505686D01*
X23749239Y-92582785D01*
X23647357Y-92626926D01*
X23514086Y-92684667D01*
X23263575Y-92738714D01*
X23007334Y-92742852D01*
X22934159Y-92729520D01*
X22755210Y-92696920D01*
X22516889Y-92602682D01*
X22301537Y-92463763D01*
X22117423Y-92285499D01*
X22117421Y-92285497D01*
X22008154Y-92127549D01*
X21135187Y-90555910D01*
X21058834Y-90379679D01*
X21004787Y-90129168D01*
X21000649Y-89872928D01*
X21013981Y-89799753D01*
X21046581Y-89620804D01*
X21140820Y-89382483D01*
X21279738Y-89167130D01*
X21458002Y-88983016D01*
X21458004Y-88983014D01*
X21576558Y-88901000D01*
X21668761Y-88837215D01*
X21770643Y-88793074D01*
X21903914Y-88735333D01*
X22154425Y-88681286D01*
X22410665Y-88677148D01*
X22483840Y-88690480D01*
X22483840Y-88690480D01*
G37*
G36*
X306455840Y-88690480D02*
G01*
X306634789Y-88723080D01*
X306850546Y-88808397D01*
X306873108Y-88817318D01*
X306873109Y-88817319D01*
X306873110Y-88817319D01*
X307088463Y-88956237D01*
X307272577Y-89134501D01*
X307272579Y-89134503D01*
X307381846Y-89292451D01*
X308254813Y-90864089D01*
X308331166Y-91040320D01*
X308385213Y-91290831D01*
X308389351Y-91547072D01*
X308376019Y-91620247D01*
X308343419Y-91799196D01*
X308249180Y-92037517D01*
X308110262Y-92252870D01*
X307931998Y-92436984D01*
X307931996Y-92436986D01*
X307832688Y-92505686D01*
X307721239Y-92582785D01*
X307619357Y-92626926D01*
X307486086Y-92684667D01*
X307235575Y-92738714D01*
X306979334Y-92742852D01*
X306906159Y-92729520D01*
X306727210Y-92696920D01*
X306488889Y-92602682D01*
X306273537Y-92463763D01*
X306089423Y-92285499D01*
X306089421Y-92285497D01*
X305980154Y-92127549D01*
X305107187Y-90555910D01*
X305030834Y-90379679D01*
X304976787Y-90129168D01*
X304972649Y-89872928D01*
X304985981Y-89799753D01*
X305018581Y-89620804D01*
X305112820Y-89382483D01*
X305251738Y-89167130D01*
X305430002Y-88983016D01*
X305430004Y-88983014D01*
X305548558Y-88901000D01*
X305640761Y-88837215D01*
X305742643Y-88793074D01*
X305875914Y-88735333D01*
X306126425Y-88681286D01*
X306382665Y-88677148D01*
X306455840Y-88690480D01*
X306455840Y-88690480D01*
G37*
G36*
X151367142Y-89388242D02*
G01*
X151515101Y-89449529D01*
X151648255Y-89538499D01*
X151761501Y-89651745D01*
X151850471Y-89784899D01*
X151911758Y-89932858D01*
X151943000Y-90089925D01*
X151943000Y-90250075D01*
X151911758Y-90407142D01*
X151850471Y-90555101D01*
X151761501Y-90688255D01*
X151648255Y-90801501D01*
X151515101Y-90890471D01*
X151367142Y-90951758D01*
X151210075Y-90983000D01*
X151049925Y-90983000D01*
X150892858Y-90951758D01*
X150744899Y-90890471D01*
X150611745Y-90801501D01*
X150498499Y-90688255D01*
X150409529Y-90555101D01*
X150348242Y-90407142D01*
X150317000Y-90250075D01*
X150317000Y-90089925D01*
X150348242Y-89932858D01*
X150409529Y-89784899D01*
X150498499Y-89651745D01*
X150611745Y-89538499D01*
X150744899Y-89449529D01*
X150892858Y-89388242D01*
X151049925Y-89357000D01*
X151210075Y-89357000D01*
X151367142Y-89388242D01*
X151367142Y-89388242D01*
G37*
G36*
X171687142Y-89388242D02*
G01*
X171835101Y-89449529D01*
X171968255Y-89538499D01*
X172081501Y-89651745D01*
X172170471Y-89784899D01*
X172231758Y-89932858D01*
X172263000Y-90089925D01*
X172263000Y-90250075D01*
X172231758Y-90407142D01*
X172170471Y-90555101D01*
X172081501Y-90688255D01*
X171968255Y-90801501D01*
X171835101Y-90890471D01*
X171687142Y-90951758D01*
X171530075Y-90983000D01*
X171369925Y-90983000D01*
X171212858Y-90951758D01*
X171064899Y-90890471D01*
X170931745Y-90801501D01*
X170818499Y-90688255D01*
X170729529Y-90555101D01*
X170668242Y-90407142D01*
X170637000Y-90250075D01*
X170637000Y-90089925D01*
X170668242Y-89932858D01*
X170729529Y-89784899D01*
X170818499Y-89651745D01*
X170931745Y-89538499D01*
X171064899Y-89449529D01*
X171212858Y-89388242D01*
X171369925Y-89357000D01*
X171530075Y-89357000D01*
X171687142Y-89388242D01*
X171687142Y-89388242D01*
G37*
G36*
X28188228Y-89261703D02*
G01*
X28343100Y-89325853D01*
X28482481Y-89418985D01*
X28601015Y-89537519D01*
X28694147Y-89676900D01*
X28758297Y-89831772D01*
X28791000Y-89996184D01*
X28791000Y-90163816D01*
X28758297Y-90328228D01*
X28694147Y-90483100D01*
X28601015Y-90622481D01*
X28482481Y-90741015D01*
X28343100Y-90834147D01*
X28188228Y-90898297D01*
X28023816Y-90931000D01*
X27856184Y-90931000D01*
X27691772Y-90898297D01*
X27536900Y-90834147D01*
X27397519Y-90741015D01*
X27278985Y-90622481D01*
X27185853Y-90483100D01*
X27121703Y-90328228D01*
X27089000Y-90163816D01*
X27089000Y-89996184D01*
X27121703Y-89831772D01*
X27185853Y-89676900D01*
X27278985Y-89537519D01*
X27397519Y-89418985D01*
X27536900Y-89325853D01*
X27691772Y-89261703D01*
X27856184Y-89229000D01*
X28023816Y-89229000D01*
X28188228Y-89261703D01*
X28188228Y-89261703D01*
G37*
G36*
X294888228Y-89261703D02*
G01*
X295043100Y-89325853D01*
X295182481Y-89418985D01*
X295301015Y-89537519D01*
X295394147Y-89676900D01*
X295458297Y-89831772D01*
X295491000Y-89996184D01*
X295491000Y-90163816D01*
X295458297Y-90328228D01*
X295394147Y-90483100D01*
X295301015Y-90622481D01*
X295182481Y-90741015D01*
X295043100Y-90834147D01*
X294888228Y-90898297D01*
X294723816Y-90931000D01*
X294556184Y-90931000D01*
X294391772Y-90898297D01*
X294236900Y-90834147D01*
X294097519Y-90741015D01*
X293978985Y-90622481D01*
X293885853Y-90483100D01*
X293821703Y-90328228D01*
X293789000Y-90163816D01*
X293789000Y-89996184D01*
X293821703Y-89831772D01*
X293885853Y-89676900D01*
X293978985Y-89537519D01*
X294097519Y-89418985D01*
X294236900Y-89325853D01*
X294391772Y-89261703D01*
X294556184Y-89229000D01*
X294723816Y-89229000D01*
X294888228Y-89261703D01*
X294888228Y-89261703D01*
G37*
G36*
X104737000Y-90857000D02*
G01*
X103035000Y-90857000D01*
X103035000Y-89155000D01*
X104737000Y-89155000D01*
X104737000Y-90857000D01*
X104737000Y-90857000D01*
G37*
G36*
X257391000Y-90857000D02*
G01*
X255689000Y-90857000D01*
X255689000Y-89155000D01*
X257391000Y-89155000D01*
X257391000Y-90857000D01*
X257391000Y-90857000D01*
G37*
G36*
X16931521Y-87604120D02*
G01*
X17181247Y-87661660D01*
X17181251Y-87661661D01*
X17414958Y-87766816D01*
X17467398Y-87804187D01*
X17623660Y-87915544D01*
X17742050Y-88041288D01*
X17799335Y-88102131D01*
X17935235Y-88319405D01*
X18026135Y-88559017D01*
X18057916Y-88748429D01*
X18073908Y-88983014D01*
X18106058Y-89454606D01*
X18100276Y-89646572D01*
X18060090Y-89820983D01*
X18042735Y-89896303D01*
X17937580Y-90130010D01*
X17913489Y-90163815D01*
X17788852Y-90338712D01*
X17635495Y-90483100D01*
X17602265Y-90514387D01*
X17384991Y-90650287D01*
X17145379Y-90741187D01*
X16892638Y-90783594D01*
X16892634Y-90783594D01*
X16636479Y-90775880D01*
X16386753Y-90718340D01*
X16386749Y-90718339D01*
X16153042Y-90613184D01*
X16072673Y-90555910D01*
X15944340Y-90464456D01*
X15768665Y-90277869D01*
X15632765Y-90060595D01*
X15541865Y-89820983D01*
X15510084Y-89631571D01*
X15497674Y-89449529D01*
X15461942Y-88925392D01*
X15467724Y-88733428D01*
X15525264Y-88483701D01*
X15525265Y-88483697D01*
X15630420Y-88249990D01*
X15702919Y-88148257D01*
X15779148Y-88041288D01*
X15965735Y-87865613D01*
X16183009Y-87729713D01*
X16422621Y-87638813D01*
X16675362Y-87596406D01*
X16675366Y-87596406D01*
X16931521Y-87604120D01*
X16931521Y-87604120D01*
G37*
G36*
X300903521Y-87604120D02*
G01*
X301153247Y-87661660D01*
X301153251Y-87661661D01*
X301386958Y-87766816D01*
X301439398Y-87804187D01*
X301595660Y-87915544D01*
X301714050Y-88041288D01*
X301771335Y-88102131D01*
X301907235Y-88319405D01*
X301998135Y-88559017D01*
X302029916Y-88748429D01*
X302045908Y-88983014D01*
X302078058Y-89454606D01*
X302072276Y-89646572D01*
X302032090Y-89820983D01*
X302014735Y-89896303D01*
X301909580Y-90130010D01*
X301885489Y-90163815D01*
X301760852Y-90338712D01*
X301607495Y-90483100D01*
X301574265Y-90514387D01*
X301356991Y-90650287D01*
X301117379Y-90741187D01*
X300864638Y-90783594D01*
X300864634Y-90783594D01*
X300608479Y-90775880D01*
X300358753Y-90718340D01*
X300358749Y-90718339D01*
X300125042Y-90613184D01*
X300044673Y-90555910D01*
X299916340Y-90464456D01*
X299740665Y-90277869D01*
X299604765Y-90060595D01*
X299513865Y-89820983D01*
X299482084Y-89631571D01*
X299469674Y-89449529D01*
X299433942Y-88925392D01*
X299439724Y-88733428D01*
X299497264Y-88483701D01*
X299497265Y-88483697D01*
X299602420Y-88249990D01*
X299674919Y-88148257D01*
X299751148Y-88041288D01*
X299937735Y-87865613D01*
X300155009Y-87729713D01*
X300394621Y-87638813D01*
X300647362Y-87596406D01*
X300647366Y-87596406D01*
X300903521Y-87604120D01*
X300903521Y-87604120D01*
G37*
G36*
X66637000Y-90603000D02*
G01*
X64935000Y-90603000D01*
X64935000Y-88901000D01*
X66637000Y-88901000D01*
X66637000Y-90603000D01*
X66637000Y-90603000D01*
G37*
G36*
X219545000Y-90603000D02*
G01*
X217843000Y-90603000D01*
X217843000Y-88901000D01*
X219545000Y-88901000D01*
X219545000Y-90603000D01*
X219545000Y-90603000D01*
G37*
G36*
X47587000Y-90349000D02*
G01*
X45885000Y-90349000D01*
X45885000Y-88647000D01*
X47587000Y-88647000D01*
X47587000Y-90349000D01*
X47587000Y-90349000D01*
G37*
G36*
X287405840Y-84626480D02*
G01*
X287584789Y-84659080D01*
X287760805Y-84728682D01*
X287823108Y-84753318D01*
X287823109Y-84753319D01*
X287823110Y-84753319D01*
X288038463Y-84892237D01*
X288157872Y-85007852D01*
X288222579Y-85070503D01*
X288331846Y-85228451D01*
X289204813Y-86800089D01*
X289281166Y-86976320D01*
X289335213Y-87226831D01*
X289339351Y-87483072D01*
X289327171Y-87549925D01*
X289293419Y-87735196D01*
X289199180Y-87973517D01*
X289060262Y-88188870D01*
X288881998Y-88372984D01*
X288881996Y-88372986D01*
X288782688Y-88441686D01*
X288671239Y-88518785D01*
X288578379Y-88559017D01*
X288436086Y-88620667D01*
X288185575Y-88674714D01*
X287929334Y-88678852D01*
X287856159Y-88665520D01*
X287677210Y-88632920D01*
X287438889Y-88538682D01*
X287223537Y-88399763D01*
X287039423Y-88221499D01*
X287039421Y-88221497D01*
X286930154Y-88063549D01*
X286057187Y-86491910D01*
X285980834Y-86315679D01*
X285926787Y-86065168D01*
X285922649Y-85808928D01*
X285938577Y-85721501D01*
X285968581Y-85556804D01*
X286053898Y-85341047D01*
X286062819Y-85318485D01*
X286062820Y-85318483D01*
X286201738Y-85103130D01*
X286380002Y-84919016D01*
X286380004Y-84919014D01*
X286498558Y-84837000D01*
X286590761Y-84773215D01*
X286748441Y-84704899D01*
X286825914Y-84671333D01*
X287076425Y-84617286D01*
X287332665Y-84613148D01*
X287405840Y-84626480D01*
X287405840Y-84626480D01*
G37*
G36*
X211459840Y-84626480D02*
G01*
X211638789Y-84659080D01*
X211814805Y-84728682D01*
X211877108Y-84753318D01*
X211877109Y-84753319D01*
X211877110Y-84753319D01*
X212092463Y-84892237D01*
X212211872Y-85007852D01*
X212276579Y-85070503D01*
X212385846Y-85228451D01*
X213258813Y-86800089D01*
X213335166Y-86976320D01*
X213389213Y-87226831D01*
X213393351Y-87483072D01*
X213381171Y-87549925D01*
X213347419Y-87735196D01*
X213253180Y-87973517D01*
X213114262Y-88188870D01*
X212935998Y-88372984D01*
X212935996Y-88372986D01*
X212836688Y-88441686D01*
X212725239Y-88518785D01*
X212632379Y-88559017D01*
X212490086Y-88620667D01*
X212239575Y-88674714D01*
X211983334Y-88678852D01*
X211910159Y-88665520D01*
X211731210Y-88632920D01*
X211492889Y-88538682D01*
X211277537Y-88399763D01*
X211093423Y-88221499D01*
X211093421Y-88221497D01*
X210984154Y-88063549D01*
X210111187Y-86491910D01*
X210034834Y-86315679D01*
X209980787Y-86065168D01*
X209976649Y-85808928D01*
X209992577Y-85721501D01*
X210022581Y-85556804D01*
X210107898Y-85341047D01*
X210116819Y-85318485D01*
X210116820Y-85318483D01*
X210255738Y-85103130D01*
X210434002Y-84919016D01*
X210434004Y-84919014D01*
X210552558Y-84837000D01*
X210644761Y-84773215D01*
X210802441Y-84704899D01*
X210879914Y-84671333D01*
X211130425Y-84617286D01*
X211386665Y-84613148D01*
X211459840Y-84626480D01*
X211459840Y-84626480D01*
G37*
G36*
X41279840Y-84626480D02*
G01*
X41458789Y-84659080D01*
X41634805Y-84728682D01*
X41697108Y-84753318D01*
X41697109Y-84753319D01*
X41697110Y-84753319D01*
X41912463Y-84892237D01*
X42031872Y-85007852D01*
X42096579Y-85070503D01*
X42205846Y-85228451D01*
X43078813Y-86800089D01*
X43155166Y-86976320D01*
X43209213Y-87226831D01*
X43213351Y-87483072D01*
X43201171Y-87549925D01*
X43167419Y-87735196D01*
X43073180Y-87973517D01*
X42934262Y-88188870D01*
X42755998Y-88372984D01*
X42755996Y-88372986D01*
X42656688Y-88441686D01*
X42545239Y-88518785D01*
X42452379Y-88559017D01*
X42310086Y-88620667D01*
X42059575Y-88674714D01*
X41803334Y-88678852D01*
X41730159Y-88665520D01*
X41551210Y-88632920D01*
X41312889Y-88538682D01*
X41097537Y-88399763D01*
X40913423Y-88221499D01*
X40913421Y-88221497D01*
X40804154Y-88063549D01*
X39931187Y-86491910D01*
X39854834Y-86315679D01*
X39800787Y-86065168D01*
X39796649Y-85808928D01*
X39812577Y-85721501D01*
X39842581Y-85556804D01*
X39927898Y-85341047D01*
X39936819Y-85318485D01*
X39936820Y-85318483D01*
X40075738Y-85103130D01*
X40254002Y-84919016D01*
X40254004Y-84919014D01*
X40372558Y-84837000D01*
X40464761Y-84773215D01*
X40622441Y-84704899D01*
X40699914Y-84671333D01*
X40950425Y-84617286D01*
X41206665Y-84613148D01*
X41279840Y-84626480D01*
X41279840Y-84626480D01*
G37*
G36*
X117479840Y-84626480D02*
G01*
X117658789Y-84659080D01*
X117834805Y-84728682D01*
X117897108Y-84753318D01*
X117897109Y-84753319D01*
X117897110Y-84753319D01*
X118112463Y-84892237D01*
X118231872Y-85007852D01*
X118296579Y-85070503D01*
X118405846Y-85228451D01*
X119278813Y-86800089D01*
X119355166Y-86976320D01*
X119409213Y-87226831D01*
X119413351Y-87483072D01*
X119401171Y-87549925D01*
X119367419Y-87735196D01*
X119273180Y-87973517D01*
X119134262Y-88188870D01*
X118955998Y-88372984D01*
X118955996Y-88372986D01*
X118856688Y-88441686D01*
X118745239Y-88518785D01*
X118652379Y-88559017D01*
X118510086Y-88620667D01*
X118259575Y-88674714D01*
X118003334Y-88678852D01*
X117930159Y-88665520D01*
X117751210Y-88632920D01*
X117512889Y-88538682D01*
X117297537Y-88399763D01*
X117113423Y-88221499D01*
X117113421Y-88221497D01*
X117004154Y-88063549D01*
X116131187Y-86491910D01*
X116054834Y-86315679D01*
X116000787Y-86065168D01*
X115996649Y-85808928D01*
X116012577Y-85721501D01*
X116042581Y-85556804D01*
X116127898Y-85341047D01*
X116136819Y-85318485D01*
X116136820Y-85318483D01*
X116275738Y-85103130D01*
X116454002Y-84919016D01*
X116454004Y-84919014D01*
X116572558Y-84837000D01*
X116664761Y-84773215D01*
X116822441Y-84704899D01*
X116899914Y-84671333D01*
X117150425Y-84617286D01*
X117406665Y-84613148D01*
X117479840Y-84626480D01*
X117479840Y-84626480D01*
G37*
G36*
X171687142Y-86848242D02*
G01*
X171835101Y-86909529D01*
X171968255Y-86998499D01*
X172081501Y-87111745D01*
X172170471Y-87244899D01*
X172231758Y-87392858D01*
X172263000Y-87549925D01*
X172263000Y-87710075D01*
X172231758Y-87867142D01*
X172170471Y-88015101D01*
X172081501Y-88148255D01*
X171968255Y-88261501D01*
X171835101Y-88350471D01*
X171687142Y-88411758D01*
X171530075Y-88443000D01*
X171369925Y-88443000D01*
X171212858Y-88411758D01*
X171064899Y-88350471D01*
X170931745Y-88261501D01*
X170818499Y-88148255D01*
X170729529Y-88015101D01*
X170668242Y-87867142D01*
X170637000Y-87710075D01*
X170637000Y-87549925D01*
X170668242Y-87392858D01*
X170729529Y-87244899D01*
X170818499Y-87111745D01*
X170931745Y-86998499D01*
X171064899Y-86909529D01*
X171212858Y-86848242D01*
X171369925Y-86817000D01*
X171530075Y-86817000D01*
X171687142Y-86848242D01*
X171687142Y-86848242D01*
G37*
G36*
X151367142Y-86848242D02*
G01*
X151515101Y-86909529D01*
X151648255Y-86998499D01*
X151761501Y-87111745D01*
X151850471Y-87244899D01*
X151911758Y-87392858D01*
X151943000Y-87549925D01*
X151943000Y-87710075D01*
X151911758Y-87867142D01*
X151850471Y-88015101D01*
X151761501Y-88148255D01*
X151648255Y-88261501D01*
X151515101Y-88350471D01*
X151367142Y-88411758D01*
X151210075Y-88443000D01*
X151049925Y-88443000D01*
X150892858Y-88411758D01*
X150744899Y-88350471D01*
X150611745Y-88261501D01*
X150498499Y-88148255D01*
X150409529Y-88015101D01*
X150348242Y-87867142D01*
X150317000Y-87710075D01*
X150317000Y-87549925D01*
X150348242Y-87392858D01*
X150409529Y-87244899D01*
X150498499Y-87111745D01*
X150611745Y-86998499D01*
X150744899Y-86909529D01*
X150892858Y-86848242D01*
X151049925Y-86817000D01*
X151210075Y-86817000D01*
X151367142Y-86848242D01*
X151367142Y-86848242D01*
G37*
G36*
X275838228Y-85197703D02*
G01*
X275993100Y-85261853D01*
X276132481Y-85354985D01*
X276251015Y-85473519D01*
X276344147Y-85612900D01*
X276408297Y-85767772D01*
X276441000Y-85932184D01*
X276441000Y-86099816D01*
X276408297Y-86264228D01*
X276344147Y-86419100D01*
X276251015Y-86558481D01*
X276132481Y-86677015D01*
X275993100Y-86770147D01*
X275838228Y-86834297D01*
X275673816Y-86867000D01*
X275506184Y-86867000D01*
X275341772Y-86834297D01*
X275186900Y-86770147D01*
X275047519Y-86677015D01*
X274928985Y-86558481D01*
X274835853Y-86419100D01*
X274771703Y-86264228D01*
X274739000Y-86099816D01*
X274739000Y-85932184D01*
X274771703Y-85767772D01*
X274835853Y-85612900D01*
X274928985Y-85473519D01*
X275047519Y-85354985D01*
X275186900Y-85261853D01*
X275341772Y-85197703D01*
X275506184Y-85165000D01*
X275673816Y-85165000D01*
X275838228Y-85197703D01*
X275838228Y-85197703D01*
G37*
G36*
X199892228Y-85197703D02*
G01*
X200047100Y-85261853D01*
X200186481Y-85354985D01*
X200305015Y-85473519D01*
X200398147Y-85612900D01*
X200462297Y-85767772D01*
X200495000Y-85932184D01*
X200495000Y-86099816D01*
X200462297Y-86264228D01*
X200398147Y-86419100D01*
X200305015Y-86558481D01*
X200186481Y-86677015D01*
X200047100Y-86770147D01*
X199892228Y-86834297D01*
X199727816Y-86867000D01*
X199560184Y-86867000D01*
X199395772Y-86834297D01*
X199240900Y-86770147D01*
X199101519Y-86677015D01*
X198982985Y-86558481D01*
X198889853Y-86419100D01*
X198825703Y-86264228D01*
X198793000Y-86099816D01*
X198793000Y-85932184D01*
X198825703Y-85767772D01*
X198889853Y-85612900D01*
X198982985Y-85473519D01*
X199101519Y-85354985D01*
X199240900Y-85261853D01*
X199395772Y-85197703D01*
X199560184Y-85165000D01*
X199727816Y-85165000D01*
X199892228Y-85197703D01*
X199892228Y-85197703D01*
G37*
G36*
X238341000Y-86793000D02*
G01*
X236639000Y-86793000D01*
X236639000Y-85091000D01*
X238341000Y-85091000D01*
X238341000Y-86793000D01*
X238341000Y-86793000D01*
G37*
G36*
X205907521Y-83540120D02*
G01*
X206157247Y-83597660D01*
X206157251Y-83597661D01*
X206390958Y-83702816D01*
X206443398Y-83740187D01*
X206599660Y-83851544D01*
X206718050Y-83977288D01*
X206775335Y-84038131D01*
X206911235Y-84255405D01*
X207002135Y-84495017D01*
X207033916Y-84684429D01*
X207056106Y-85009926D01*
X207082058Y-85390606D01*
X207076276Y-85582572D01*
X207044265Y-85721501D01*
X207018735Y-85832303D01*
X206913580Y-86066010D01*
X206889489Y-86099815D01*
X206764852Y-86274712D01*
X206611495Y-86419100D01*
X206578265Y-86450387D01*
X206360991Y-86586287D01*
X206121379Y-86677187D01*
X205868638Y-86719594D01*
X205868634Y-86719594D01*
X205612479Y-86711880D01*
X205362753Y-86654340D01*
X205362749Y-86654339D01*
X205129042Y-86549184D01*
X205048673Y-86491910D01*
X204920340Y-86400456D01*
X204744665Y-86213869D01*
X204714159Y-86165097D01*
X204608765Y-85996595D01*
X204517865Y-85756983D01*
X204486084Y-85567571D01*
X204471858Y-85358900D01*
X204437942Y-84861392D01*
X204443724Y-84669428D01*
X204501264Y-84419701D01*
X204501265Y-84419697D01*
X204606420Y-84185990D01*
X204649977Y-84124870D01*
X204755148Y-83977288D01*
X204941735Y-83801613D01*
X205159009Y-83665713D01*
X205398621Y-83574813D01*
X205651362Y-83532406D01*
X205651366Y-83532406D01*
X205907521Y-83540120D01*
X205907521Y-83540120D01*
G37*
G36*
X35727521Y-83540120D02*
G01*
X35977247Y-83597660D01*
X35977251Y-83597661D01*
X36210958Y-83702816D01*
X36263398Y-83740187D01*
X36419660Y-83851544D01*
X36538050Y-83977288D01*
X36595335Y-84038131D01*
X36731235Y-84255405D01*
X36822135Y-84495017D01*
X36853916Y-84684429D01*
X36876106Y-85009926D01*
X36902058Y-85390606D01*
X36896276Y-85582572D01*
X36864265Y-85721501D01*
X36838735Y-85832303D01*
X36733580Y-86066010D01*
X36709489Y-86099815D01*
X36584852Y-86274712D01*
X36431495Y-86419100D01*
X36398265Y-86450387D01*
X36180991Y-86586287D01*
X35941379Y-86677187D01*
X35688638Y-86719594D01*
X35688634Y-86719594D01*
X35432479Y-86711880D01*
X35182753Y-86654340D01*
X35182749Y-86654339D01*
X34949042Y-86549184D01*
X34868673Y-86491910D01*
X34740340Y-86400456D01*
X34564665Y-86213869D01*
X34534159Y-86165097D01*
X34428765Y-85996595D01*
X34337865Y-85756983D01*
X34306084Y-85567571D01*
X34291858Y-85358900D01*
X34257942Y-84861392D01*
X34263724Y-84669428D01*
X34321264Y-84419701D01*
X34321265Y-84419697D01*
X34426420Y-84185990D01*
X34469977Y-84124870D01*
X34575148Y-83977288D01*
X34761735Y-83801613D01*
X34979009Y-83665713D01*
X35218621Y-83574813D01*
X35471362Y-83532406D01*
X35471366Y-83532406D01*
X35727521Y-83540120D01*
X35727521Y-83540120D01*
G37*
G36*
X111927521Y-83540120D02*
G01*
X112177247Y-83597660D01*
X112177251Y-83597661D01*
X112410958Y-83702816D01*
X112463398Y-83740187D01*
X112619660Y-83851544D01*
X112738050Y-83977288D01*
X112795335Y-84038131D01*
X112931235Y-84255405D01*
X113022135Y-84495017D01*
X113053916Y-84684429D01*
X113076106Y-85009926D01*
X113102058Y-85390606D01*
X113096276Y-85582572D01*
X113064265Y-85721501D01*
X113038735Y-85832303D01*
X112933580Y-86066010D01*
X112909489Y-86099815D01*
X112784852Y-86274712D01*
X112631495Y-86419100D01*
X112598265Y-86450387D01*
X112380991Y-86586287D01*
X112141379Y-86677187D01*
X111888638Y-86719594D01*
X111888634Y-86719594D01*
X111632479Y-86711880D01*
X111382753Y-86654340D01*
X111382749Y-86654339D01*
X111149042Y-86549184D01*
X111068673Y-86491910D01*
X110940340Y-86400456D01*
X110764665Y-86213869D01*
X110734159Y-86165097D01*
X110628765Y-85996595D01*
X110537865Y-85756983D01*
X110506084Y-85567571D01*
X110491858Y-85358900D01*
X110457942Y-84861392D01*
X110463724Y-84669428D01*
X110521264Y-84419701D01*
X110521265Y-84419697D01*
X110626420Y-84185990D01*
X110669977Y-84124870D01*
X110775148Y-83977288D01*
X110961735Y-83801613D01*
X111179009Y-83665713D01*
X111418621Y-83574813D01*
X111671362Y-83532406D01*
X111671366Y-83532406D01*
X111927521Y-83540120D01*
X111927521Y-83540120D01*
G37*
G36*
X281853521Y-83540120D02*
G01*
X282103247Y-83597660D01*
X282103251Y-83597661D01*
X282336958Y-83702816D01*
X282389398Y-83740187D01*
X282545660Y-83851544D01*
X282664050Y-83977288D01*
X282721335Y-84038131D01*
X282857235Y-84255405D01*
X282948135Y-84495017D01*
X282979916Y-84684429D01*
X283002106Y-85009926D01*
X283028058Y-85390606D01*
X283022276Y-85582572D01*
X282990265Y-85721501D01*
X282964735Y-85832303D01*
X282859580Y-86066010D01*
X282835489Y-86099815D01*
X282710852Y-86274712D01*
X282557495Y-86419100D01*
X282524265Y-86450387D01*
X282306991Y-86586287D01*
X282067379Y-86677187D01*
X281814638Y-86719594D01*
X281814634Y-86719594D01*
X281558479Y-86711880D01*
X281308753Y-86654340D01*
X281308749Y-86654339D01*
X281075042Y-86549184D01*
X280994673Y-86491910D01*
X280866340Y-86400456D01*
X280690665Y-86213869D01*
X280660159Y-86165097D01*
X280554765Y-85996595D01*
X280463865Y-85756983D01*
X280432084Y-85567571D01*
X280417858Y-85358900D01*
X280383942Y-84861392D01*
X280389724Y-84669428D01*
X280447264Y-84419701D01*
X280447265Y-84419697D01*
X280552420Y-84185990D01*
X280595977Y-84124870D01*
X280701148Y-83977288D01*
X280887735Y-83801613D01*
X281105009Y-83665713D01*
X281344621Y-83574813D01*
X281597362Y-83532406D01*
X281597366Y-83532406D01*
X281853521Y-83540120D01*
X281853521Y-83540120D01*
G37*
G36*
X123184228Y-84943703D02*
G01*
X123339100Y-85007853D01*
X123478481Y-85100985D01*
X123597015Y-85219519D01*
X123690147Y-85358900D01*
X123754297Y-85513772D01*
X123787000Y-85678184D01*
X123787000Y-85845816D01*
X123754297Y-86010228D01*
X123690147Y-86165100D01*
X123597015Y-86304481D01*
X123478481Y-86423015D01*
X123339100Y-86516147D01*
X123184228Y-86580297D01*
X123019816Y-86613000D01*
X122852184Y-86613000D01*
X122687772Y-86580297D01*
X122532900Y-86516147D01*
X122393519Y-86423015D01*
X122274985Y-86304481D01*
X122181853Y-86165100D01*
X122117703Y-86010228D01*
X122085000Y-85845816D01*
X122085000Y-85678184D01*
X122117703Y-85513772D01*
X122181853Y-85358900D01*
X122274985Y-85219519D01*
X122393519Y-85100985D01*
X122532900Y-85007853D01*
X122687772Y-84943703D01*
X122852184Y-84911000D01*
X123019816Y-84911000D01*
X123184228Y-84943703D01*
X123184228Y-84943703D01*
G37*
G36*
X85687000Y-86539000D02*
G01*
X83985000Y-86539000D01*
X83985000Y-84837000D01*
X85687000Y-84837000D01*
X85687000Y-86539000D01*
X85687000Y-86539000D01*
G37*
G36*
X171687142Y-84308242D02*
G01*
X171835101Y-84369529D01*
X171968255Y-84458499D01*
X172081501Y-84571745D01*
X172170471Y-84704899D01*
X172231758Y-84852858D01*
X172263000Y-85009925D01*
X172263000Y-85170075D01*
X172231758Y-85327142D01*
X172170471Y-85475101D01*
X172081501Y-85608255D01*
X171968255Y-85721501D01*
X171835101Y-85810471D01*
X171687142Y-85871758D01*
X171530075Y-85903000D01*
X171369925Y-85903000D01*
X171212858Y-85871758D01*
X171064899Y-85810471D01*
X170931745Y-85721501D01*
X170818499Y-85608255D01*
X170729529Y-85475101D01*
X170668242Y-85327142D01*
X170637000Y-85170075D01*
X170637000Y-85009925D01*
X170668242Y-84852858D01*
X170729529Y-84704899D01*
X170818499Y-84571745D01*
X170931745Y-84458499D01*
X171064899Y-84369529D01*
X171212858Y-84308242D01*
X171369925Y-84277000D01*
X171530075Y-84277000D01*
X171687142Y-84308242D01*
X171687142Y-84308242D01*
G37*
G36*
X151367142Y-84308242D02*
G01*
X151515101Y-84369529D01*
X151648255Y-84458499D01*
X151761501Y-84571745D01*
X151850471Y-84704899D01*
X151911758Y-84852858D01*
X151943000Y-85009925D01*
X151943000Y-85170075D01*
X151911758Y-85327142D01*
X151850471Y-85475101D01*
X151761501Y-85608255D01*
X151648255Y-85721501D01*
X151515101Y-85810471D01*
X151367142Y-85871758D01*
X151210075Y-85903000D01*
X151049925Y-85903000D01*
X150892858Y-85871758D01*
X150744899Y-85810471D01*
X150611745Y-85721501D01*
X150498499Y-85608255D01*
X150409529Y-85475101D01*
X150348242Y-85327142D01*
X150317000Y-85170075D01*
X150317000Y-85009925D01*
X150348242Y-84852858D01*
X150409529Y-84704899D01*
X150498499Y-84571745D01*
X150611745Y-84458499D01*
X150744899Y-84369529D01*
X150892858Y-84308242D01*
X151049925Y-84277000D01*
X151210075Y-84277000D01*
X151367142Y-84308242D01*
X151367142Y-84308242D01*
G37*
G36*
X268355840Y-80816480D02*
G01*
X268534789Y-80849080D01*
X268750546Y-80934397D01*
X268773108Y-80943318D01*
X268773109Y-80943319D01*
X268773110Y-80943319D01*
X268988463Y-81082237D01*
X269172577Y-81260501D01*
X269172579Y-81260503D01*
X269281846Y-81418451D01*
X270154813Y-82990089D01*
X270231166Y-83166320D01*
X270285213Y-83416831D01*
X270289351Y-83673072D01*
X270276019Y-83746247D01*
X270243419Y-83925196D01*
X270164462Y-84124870D01*
X270151561Y-84157497D01*
X270149180Y-84163517D01*
X270010262Y-84378870D01*
X269933163Y-84458499D01*
X269831996Y-84562986D01*
X269763003Y-84610714D01*
X269621239Y-84708785D01*
X269519357Y-84752926D01*
X269386086Y-84810667D01*
X269135575Y-84864714D01*
X268879334Y-84868852D01*
X268806159Y-84855520D01*
X268627210Y-84822920D01*
X268388889Y-84728682D01*
X268173537Y-84589763D01*
X267989423Y-84411499D01*
X267989421Y-84411497D01*
X267880154Y-84253549D01*
X267007187Y-82681910D01*
X266930834Y-82505679D01*
X266876787Y-82255168D01*
X266872649Y-81998928D01*
X266887302Y-81918499D01*
X266918581Y-81746804D01*
X267003898Y-81531047D01*
X267012819Y-81508485D01*
X267022934Y-81492804D01*
X267151738Y-81293130D01*
X267330002Y-81109016D01*
X267330004Y-81109014D01*
X267434125Y-81036985D01*
X267540761Y-80963215D01*
X267642643Y-80919074D01*
X267775914Y-80861333D01*
X268026425Y-80807286D01*
X268282665Y-80803148D01*
X268355840Y-80816480D01*
X268355840Y-80816480D01*
G37*
G36*
X230509840Y-80562480D02*
G01*
X230688789Y-80595080D01*
X230864805Y-80664682D01*
X230927108Y-80689318D01*
X230927109Y-80689319D01*
X230927110Y-80689319D01*
X231142463Y-80828237D01*
X231326577Y-81006501D01*
X231326579Y-81006503D01*
X231435846Y-81164451D01*
X232308813Y-82736089D01*
X232385166Y-82912320D01*
X232439213Y-83162831D01*
X232443351Y-83419072D01*
X232430019Y-83492247D01*
X232397419Y-83671196D01*
X232303180Y-83909517D01*
X232164262Y-84124870D01*
X232016966Y-84277000D01*
X231985996Y-84308986D01*
X231898479Y-84369529D01*
X231775239Y-84454785D01*
X231682379Y-84495017D01*
X231540086Y-84556667D01*
X231289575Y-84610714D01*
X231033334Y-84614852D01*
X230960159Y-84601520D01*
X230781210Y-84568920D01*
X230542889Y-84474682D01*
X230327537Y-84335763D01*
X230143423Y-84157499D01*
X230143421Y-84157497D01*
X230034154Y-83999549D01*
X229161187Y-82427910D01*
X229084834Y-82251679D01*
X229030787Y-82001168D01*
X229026649Y-81744928D01*
X229039981Y-81671753D01*
X229072581Y-81492804D01*
X229157898Y-81277047D01*
X229166819Y-81254485D01*
X229166820Y-81254483D01*
X229305738Y-81039130D01*
X229484002Y-80855016D01*
X229484004Y-80855014D01*
X229583312Y-80786314D01*
X229694761Y-80709215D01*
X229843472Y-80644785D01*
X229929914Y-80607333D01*
X230180425Y-80553286D01*
X230436665Y-80549148D01*
X230509840Y-80562480D01*
X230509840Y-80562480D01*
G37*
G36*
X98302840Y-80562480D02*
G01*
X98481789Y-80595080D01*
X98657805Y-80664682D01*
X98720108Y-80689318D01*
X98720109Y-80689319D01*
X98720110Y-80689319D01*
X98935463Y-80828237D01*
X99119577Y-81006501D01*
X99119579Y-81006503D01*
X99228846Y-81164451D01*
X100101813Y-82736089D01*
X100178166Y-82912320D01*
X100232213Y-83162831D01*
X100236351Y-83419072D01*
X100223019Y-83492247D01*
X100190419Y-83671196D01*
X100096180Y-83909517D01*
X99957262Y-84124870D01*
X99809966Y-84277000D01*
X99778996Y-84308986D01*
X99691479Y-84369529D01*
X99568239Y-84454785D01*
X99475379Y-84495017D01*
X99333086Y-84556667D01*
X99082575Y-84610714D01*
X98826334Y-84614852D01*
X98753159Y-84601520D01*
X98574210Y-84568920D01*
X98335889Y-84474682D01*
X98120537Y-84335763D01*
X97936423Y-84157499D01*
X97936421Y-84157497D01*
X97827154Y-83999549D01*
X96954187Y-82427910D01*
X96877834Y-82251679D01*
X96823787Y-82001168D01*
X96819649Y-81744928D01*
X96832981Y-81671753D01*
X96865581Y-81492804D01*
X96950898Y-81277047D01*
X96959819Y-81254485D01*
X96959820Y-81254483D01*
X97098738Y-81039130D01*
X97277002Y-80855016D01*
X97277004Y-80855014D01*
X97376312Y-80786314D01*
X97487761Y-80709215D01*
X97636472Y-80644785D01*
X97722914Y-80607333D01*
X97973425Y-80553286D01*
X98229665Y-80549148D01*
X98302840Y-80562480D01*
X98302840Y-80562480D01*
G37*
G36*
X60329840Y-80562480D02*
G01*
X60508789Y-80595080D01*
X60684805Y-80664682D01*
X60747108Y-80689318D01*
X60747109Y-80689319D01*
X60747110Y-80689319D01*
X60962463Y-80828237D01*
X61146577Y-81006501D01*
X61146579Y-81006503D01*
X61255846Y-81164451D01*
X62128813Y-82736089D01*
X62205166Y-82912320D01*
X62259213Y-83162831D01*
X62263351Y-83419072D01*
X62250019Y-83492247D01*
X62217419Y-83671196D01*
X62123180Y-83909517D01*
X61984262Y-84124870D01*
X61836966Y-84277000D01*
X61805996Y-84308986D01*
X61718479Y-84369529D01*
X61595239Y-84454785D01*
X61502379Y-84495017D01*
X61360086Y-84556667D01*
X61109575Y-84610714D01*
X60853334Y-84614852D01*
X60780159Y-84601520D01*
X60601210Y-84568920D01*
X60362889Y-84474682D01*
X60147537Y-84335763D01*
X59963423Y-84157499D01*
X59963421Y-84157497D01*
X59854154Y-83999549D01*
X58981187Y-82427910D01*
X58904834Y-82251679D01*
X58850787Y-82001168D01*
X58846649Y-81744928D01*
X58859981Y-81671753D01*
X58892581Y-81492804D01*
X58977898Y-81277047D01*
X58986819Y-81254485D01*
X58986820Y-81254483D01*
X59125738Y-81039130D01*
X59304002Y-80855016D01*
X59304004Y-80855014D01*
X59403312Y-80786314D01*
X59514761Y-80709215D01*
X59663472Y-80644785D01*
X59749914Y-80607333D01*
X60000425Y-80553286D01*
X60256665Y-80549148D01*
X60329840Y-80562480D01*
X60329840Y-80562480D01*
G37*
G36*
X171687142Y-81768242D02*
G01*
X171835101Y-81829529D01*
X171968255Y-81918499D01*
X172081501Y-82031745D01*
X172170471Y-82164899D01*
X172231758Y-82312858D01*
X172263000Y-82469925D01*
X172263000Y-82630075D01*
X172231758Y-82787142D01*
X172170471Y-82935101D01*
X172081501Y-83068255D01*
X171968255Y-83181501D01*
X171835101Y-83270471D01*
X171687142Y-83331758D01*
X171530075Y-83363000D01*
X171369925Y-83363000D01*
X171212858Y-83331758D01*
X171064899Y-83270471D01*
X170931745Y-83181501D01*
X170818499Y-83068255D01*
X170729529Y-82935101D01*
X170668242Y-82787142D01*
X170637000Y-82630075D01*
X170637000Y-82469925D01*
X170668242Y-82312858D01*
X170729529Y-82164899D01*
X170818499Y-82031745D01*
X170931745Y-81918499D01*
X171064899Y-81829529D01*
X171212858Y-81768242D01*
X171369925Y-81737000D01*
X171530075Y-81737000D01*
X171687142Y-81768242D01*
X171687142Y-81768242D01*
G37*
G36*
X151367142Y-81768242D02*
G01*
X151515101Y-81829529D01*
X151648255Y-81918499D01*
X151761501Y-82031745D01*
X151850471Y-82164899D01*
X151911758Y-82312858D01*
X151943000Y-82469925D01*
X151943000Y-82630075D01*
X151911758Y-82787142D01*
X151850471Y-82935101D01*
X151761501Y-83068255D01*
X151648255Y-83181501D01*
X151515101Y-83270471D01*
X151367142Y-83331758D01*
X151210075Y-83363000D01*
X151049925Y-83363000D01*
X150892858Y-83331758D01*
X150744899Y-83270471D01*
X150611745Y-83181501D01*
X150498499Y-83068255D01*
X150409529Y-82935101D01*
X150348242Y-82787142D01*
X150317000Y-82630075D01*
X150317000Y-82469925D01*
X150348242Y-82312858D01*
X150409529Y-82164899D01*
X150498499Y-82031745D01*
X150611745Y-81918499D01*
X150744899Y-81829529D01*
X150892858Y-81768242D01*
X151049925Y-81737000D01*
X151210075Y-81737000D01*
X151367142Y-81768242D01*
X151367142Y-81768242D01*
G37*
G36*
X104134228Y-81387703D02*
G01*
X104289100Y-81451853D01*
X104428481Y-81544985D01*
X104547015Y-81663519D01*
X104640147Y-81802900D01*
X104704297Y-81957772D01*
X104737000Y-82122184D01*
X104737000Y-82289816D01*
X104704297Y-82454228D01*
X104640147Y-82609100D01*
X104547015Y-82748481D01*
X104428481Y-82867015D01*
X104289100Y-82960147D01*
X104134228Y-83024297D01*
X103969816Y-83057000D01*
X103802184Y-83057000D01*
X103637772Y-83024297D01*
X103482900Y-82960147D01*
X103343519Y-82867015D01*
X103224985Y-82748481D01*
X103131853Y-82609100D01*
X103067703Y-82454228D01*
X103035000Y-82289816D01*
X103035000Y-82122184D01*
X103067703Y-81957772D01*
X103131853Y-81802900D01*
X103224985Y-81663519D01*
X103343519Y-81544985D01*
X103482900Y-81451853D01*
X103637772Y-81387703D01*
X103802184Y-81355000D01*
X103969816Y-81355000D01*
X104134228Y-81387703D01*
X104134228Y-81387703D01*
G37*
G36*
X256788228Y-81387703D02*
G01*
X256943100Y-81451853D01*
X257082481Y-81544985D01*
X257201015Y-81663519D01*
X257294147Y-81802900D01*
X257358297Y-81957772D01*
X257391000Y-82122184D01*
X257391000Y-82289816D01*
X257358297Y-82454228D01*
X257294147Y-82609100D01*
X257201015Y-82748481D01*
X257082481Y-82867015D01*
X256943100Y-82960147D01*
X256788228Y-83024297D01*
X256623816Y-83057000D01*
X256456184Y-83057000D01*
X256291772Y-83024297D01*
X256136900Y-82960147D01*
X255997519Y-82867015D01*
X255878985Y-82748481D01*
X255785853Y-82609100D01*
X255721703Y-82454228D01*
X255689000Y-82289816D01*
X255689000Y-82122184D01*
X255721703Y-81957772D01*
X255785853Y-81802900D01*
X255878985Y-81663519D01*
X255997519Y-81544985D01*
X256136900Y-81451853D01*
X256291772Y-81387703D01*
X256456184Y-81355000D01*
X256623816Y-81355000D01*
X256788228Y-81387703D01*
X256788228Y-81387703D01*
G37*
G36*
X262803521Y-79730120D02*
G01*
X263052748Y-79787545D01*
X263053251Y-79787661D01*
X263286958Y-79892816D01*
X263315685Y-79913288D01*
X263495660Y-80041544D01*
X263671335Y-80228131D01*
X263807235Y-80445405D01*
X263898135Y-80685017D01*
X263929916Y-80874429D01*
X263949687Y-81164450D01*
X263978058Y-81580606D01*
X263972276Y-81772572D01*
X263932264Y-81946228D01*
X263914735Y-82022303D01*
X263809580Y-82256010D01*
X263785489Y-82289815D01*
X263660852Y-82464712D01*
X263474265Y-82640387D01*
X263256991Y-82776287D01*
X263017379Y-82867187D01*
X262764638Y-82909594D01*
X262764634Y-82909594D01*
X262508479Y-82901880D01*
X262258753Y-82844340D01*
X262258749Y-82844339D01*
X262025042Y-82739184D01*
X261944673Y-82681910D01*
X261816340Y-82590456D01*
X261640665Y-82403869D01*
X261583739Y-82312857D01*
X261504765Y-82186595D01*
X261413865Y-81946983D01*
X261382084Y-81757571D01*
X261367858Y-81548900D01*
X261333942Y-81051392D01*
X261339724Y-80859428D01*
X261397264Y-80609701D01*
X261397265Y-80609697D01*
X261502420Y-80375990D01*
X261576697Y-80271762D01*
X261651148Y-80167288D01*
X261837735Y-79991613D01*
X261865685Y-79974131D01*
X262055009Y-79855713D01*
X262294621Y-79764813D01*
X262547362Y-79722406D01*
X262547366Y-79722406D01*
X262803521Y-79730120D01*
X262803521Y-79730120D01*
G37*
G36*
X218942228Y-81133703D02*
G01*
X219097100Y-81197853D01*
X219236481Y-81290985D01*
X219355015Y-81409519D01*
X219448147Y-81548900D01*
X219512297Y-81703772D01*
X219545000Y-81868184D01*
X219545000Y-82035816D01*
X219512297Y-82200228D01*
X219448147Y-82355100D01*
X219355015Y-82494481D01*
X219236481Y-82613015D01*
X219097100Y-82706147D01*
X218942228Y-82770297D01*
X218777816Y-82803000D01*
X218610184Y-82803000D01*
X218445772Y-82770297D01*
X218290900Y-82706147D01*
X218151519Y-82613015D01*
X218032985Y-82494481D01*
X217939853Y-82355100D01*
X217875703Y-82200228D01*
X217843000Y-82035816D01*
X217843000Y-81868184D01*
X217875703Y-81703772D01*
X217939853Y-81548900D01*
X218032985Y-81409519D01*
X218151519Y-81290985D01*
X218290900Y-81197853D01*
X218445772Y-81133703D01*
X218610184Y-81101000D01*
X218777816Y-81101000D01*
X218942228Y-81133703D01*
X218942228Y-81133703D01*
G37*
G36*
X66034228Y-81133703D02*
G01*
X66189100Y-81197853D01*
X66328481Y-81290985D01*
X66447015Y-81409519D01*
X66540147Y-81548900D01*
X66604297Y-81703772D01*
X66637000Y-81868184D01*
X66637000Y-82035816D01*
X66604297Y-82200228D01*
X66540147Y-82355100D01*
X66447015Y-82494481D01*
X66328481Y-82613015D01*
X66189100Y-82706147D01*
X66034228Y-82770297D01*
X65869816Y-82803000D01*
X65702184Y-82803000D01*
X65537772Y-82770297D01*
X65382900Y-82706147D01*
X65243519Y-82613015D01*
X65124985Y-82494481D01*
X65031853Y-82355100D01*
X64967703Y-82200228D01*
X64935000Y-82035816D01*
X64935000Y-81868184D01*
X64967703Y-81703772D01*
X65031853Y-81548900D01*
X65124985Y-81409519D01*
X65243519Y-81290985D01*
X65382900Y-81197853D01*
X65537772Y-81133703D01*
X65702184Y-81101000D01*
X65869816Y-81101000D01*
X66034228Y-81133703D01*
X66034228Y-81133703D01*
G37*
G36*
X54777521Y-79476120D02*
G01*
X55027247Y-79533660D01*
X55027251Y-79533661D01*
X55260958Y-79638816D01*
X55313398Y-79676187D01*
X55469660Y-79787544D01*
X55568775Y-79892816D01*
X55645335Y-79974131D01*
X55781235Y-80191405D01*
X55872135Y-80431017D01*
X55903916Y-80620429D01*
X55921591Y-80879703D01*
X55952058Y-81326606D01*
X55946276Y-81518572D01*
X55912878Y-81663520D01*
X55888735Y-81768303D01*
X55783580Y-82002010D01*
X55759489Y-82035815D01*
X55634852Y-82210712D01*
X55481495Y-82355100D01*
X55448265Y-82386387D01*
X55230991Y-82522287D01*
X54991379Y-82613187D01*
X54738638Y-82655594D01*
X54738634Y-82655594D01*
X54482479Y-82647880D01*
X54232753Y-82590340D01*
X54232749Y-82590339D01*
X53999042Y-82485184D01*
X53918673Y-82427910D01*
X53790340Y-82336456D01*
X53614665Y-82149869D01*
X53584159Y-82101097D01*
X53478765Y-81932595D01*
X53387865Y-81692983D01*
X53358601Y-81518571D01*
X53356084Y-81503572D01*
X53307942Y-80797392D01*
X53313724Y-80605428D01*
X53371264Y-80355701D01*
X53371265Y-80355697D01*
X53476420Y-80121990D01*
X53533749Y-80041544D01*
X53625148Y-79913288D01*
X53811735Y-79737613D01*
X53902247Y-79681000D01*
X54029009Y-79601713D01*
X54268621Y-79510813D01*
X54521362Y-79468406D01*
X54521366Y-79468406D01*
X54777521Y-79476120D01*
X54777521Y-79476120D01*
G37*
G36*
X92750521Y-79476120D02*
G01*
X93000247Y-79533660D01*
X93000251Y-79533661D01*
X93233958Y-79638816D01*
X93286398Y-79676187D01*
X93442660Y-79787544D01*
X93541775Y-79892816D01*
X93618335Y-79974131D01*
X93754235Y-80191405D01*
X93845135Y-80431017D01*
X93876916Y-80620429D01*
X93894591Y-80879703D01*
X93925058Y-81326606D01*
X93919276Y-81518572D01*
X93885878Y-81663520D01*
X93861735Y-81768303D01*
X93756580Y-82002010D01*
X93732489Y-82035815D01*
X93607852Y-82210712D01*
X93454495Y-82355100D01*
X93421265Y-82386387D01*
X93203991Y-82522287D01*
X92964379Y-82613187D01*
X92711638Y-82655594D01*
X92711634Y-82655594D01*
X92455479Y-82647880D01*
X92205753Y-82590340D01*
X92205749Y-82590339D01*
X91972042Y-82485184D01*
X91891673Y-82427910D01*
X91763340Y-82336456D01*
X91587665Y-82149869D01*
X91557159Y-82101097D01*
X91451765Y-81932595D01*
X91360865Y-81692983D01*
X91331601Y-81518571D01*
X91329084Y-81503572D01*
X91280942Y-80797392D01*
X91286724Y-80605428D01*
X91344264Y-80355701D01*
X91344265Y-80355697D01*
X91449420Y-80121990D01*
X91506749Y-80041544D01*
X91598148Y-79913288D01*
X91784735Y-79737613D01*
X91875247Y-79681000D01*
X92002009Y-79601713D01*
X92241621Y-79510813D01*
X92494362Y-79468406D01*
X92494366Y-79468406D01*
X92750521Y-79476120D01*
X92750521Y-79476120D01*
G37*
G36*
X224957521Y-79476120D02*
G01*
X225207247Y-79533660D01*
X225207251Y-79533661D01*
X225440958Y-79638816D01*
X225493398Y-79676187D01*
X225649660Y-79787544D01*
X225748775Y-79892816D01*
X225825335Y-79974131D01*
X225961235Y-80191405D01*
X226052135Y-80431017D01*
X226083916Y-80620429D01*
X226101591Y-80879703D01*
X226132058Y-81326606D01*
X226126276Y-81518572D01*
X226092878Y-81663520D01*
X226068735Y-81768303D01*
X225963580Y-82002010D01*
X225939489Y-82035815D01*
X225814852Y-82210712D01*
X225661495Y-82355100D01*
X225628265Y-82386387D01*
X225410991Y-82522287D01*
X225171379Y-82613187D01*
X224918638Y-82655594D01*
X224918634Y-82655594D01*
X224662479Y-82647880D01*
X224412753Y-82590340D01*
X224412749Y-82590339D01*
X224179042Y-82485184D01*
X224098673Y-82427910D01*
X223970340Y-82336456D01*
X223794665Y-82149869D01*
X223764159Y-82101097D01*
X223658765Y-81932595D01*
X223567865Y-81692983D01*
X223538601Y-81518571D01*
X223536084Y-81503572D01*
X223487942Y-80797392D01*
X223493724Y-80605428D01*
X223551264Y-80355701D01*
X223551265Y-80355697D01*
X223656420Y-80121990D01*
X223713749Y-80041544D01*
X223805148Y-79913288D01*
X223991735Y-79737613D01*
X224082247Y-79681000D01*
X224209009Y-79601713D01*
X224448621Y-79510813D01*
X224701362Y-79468406D01*
X224701366Y-79468406D01*
X224957521Y-79476120D01*
X224957521Y-79476120D01*
G37*
G36*
X46984228Y-80879703D02*
G01*
X47139100Y-80943853D01*
X47278481Y-81036985D01*
X47397015Y-81155519D01*
X47490147Y-81294900D01*
X47554297Y-81449772D01*
X47587000Y-81614184D01*
X47587000Y-81781816D01*
X47554297Y-81946228D01*
X47490147Y-82101100D01*
X47397015Y-82240481D01*
X47278481Y-82359015D01*
X47139100Y-82452147D01*
X46984228Y-82516297D01*
X46819816Y-82549000D01*
X46652184Y-82549000D01*
X46487772Y-82516297D01*
X46332900Y-82452147D01*
X46193519Y-82359015D01*
X46074985Y-82240481D01*
X45981853Y-82101100D01*
X45917703Y-81946228D01*
X45885000Y-81781816D01*
X45885000Y-81614184D01*
X45917703Y-81449772D01*
X45981853Y-81294900D01*
X46074985Y-81155519D01*
X46193519Y-81036985D01*
X46332900Y-80943853D01*
X46487772Y-80879703D01*
X46652184Y-80847000D01*
X46819816Y-80847000D01*
X46984228Y-80879703D01*
X46984228Y-80879703D01*
G37*
G36*
X171687142Y-79228242D02*
G01*
X171835101Y-79289529D01*
X171968255Y-79378499D01*
X172081501Y-79491745D01*
X172170471Y-79624899D01*
X172231758Y-79772858D01*
X172263000Y-79929925D01*
X172263000Y-80090075D01*
X172231758Y-80247142D01*
X172170471Y-80395101D01*
X172081501Y-80528255D01*
X171968255Y-80641501D01*
X171835101Y-80730471D01*
X171687142Y-80791758D01*
X171530075Y-80823000D01*
X171369925Y-80823000D01*
X171212858Y-80791758D01*
X171064899Y-80730471D01*
X170931745Y-80641501D01*
X170818499Y-80528255D01*
X170729529Y-80395101D01*
X170668242Y-80247142D01*
X170637000Y-80090075D01*
X170637000Y-79929925D01*
X170668242Y-79772858D01*
X170729529Y-79624899D01*
X170818499Y-79491745D01*
X170931745Y-79378499D01*
X171064899Y-79289529D01*
X171212858Y-79228242D01*
X171369925Y-79197000D01*
X171530075Y-79197000D01*
X171687142Y-79228242D01*
X171687142Y-79228242D01*
G37*
G36*
X151367142Y-79228242D02*
G01*
X151515101Y-79289529D01*
X151648255Y-79378499D01*
X151761501Y-79491745D01*
X151850471Y-79624899D01*
X151911758Y-79772858D01*
X151943000Y-79929925D01*
X151943000Y-80090075D01*
X151911758Y-80247142D01*
X151850471Y-80395101D01*
X151761501Y-80528255D01*
X151648255Y-80641501D01*
X151515101Y-80730471D01*
X151367142Y-80791758D01*
X151210075Y-80823000D01*
X151049925Y-80823000D01*
X150892858Y-80791758D01*
X150744899Y-80730471D01*
X150611745Y-80641501D01*
X150498499Y-80528255D01*
X150409529Y-80395101D01*
X150348242Y-80247142D01*
X150317000Y-80090075D01*
X150317000Y-79929925D01*
X150348242Y-79772858D01*
X150409529Y-79624899D01*
X150498499Y-79491745D01*
X150611745Y-79378499D01*
X150744899Y-79289529D01*
X150892858Y-79228242D01*
X151049925Y-79197000D01*
X151210075Y-79197000D01*
X151367142Y-79228242D01*
X151367142Y-79228242D01*
G37*
G36*
X249305840Y-76752480D02*
G01*
X249484789Y-76785080D01*
X249700546Y-76870397D01*
X249723108Y-76879318D01*
X249723109Y-76879319D01*
X249723110Y-76879319D01*
X249938463Y-77018237D01*
X250122577Y-77196501D01*
X250122579Y-77196503D01*
X250231846Y-77354451D01*
X251104813Y-78926089D01*
X251181166Y-79102320D01*
X251235213Y-79352831D01*
X251239351Y-79609072D01*
X251226247Y-79681000D01*
X251193419Y-79861196D01*
X251114462Y-80060870D01*
X251101561Y-80093497D01*
X251099180Y-80099517D01*
X250960262Y-80314870D01*
X250788115Y-80492666D01*
X250781996Y-80498986D01*
X250713003Y-80546714D01*
X250571239Y-80644785D01*
X250478379Y-80685017D01*
X250336086Y-80746667D01*
X250085575Y-80800714D01*
X249829334Y-80804852D01*
X249756159Y-80791520D01*
X249577210Y-80758920D01*
X249338889Y-80664682D01*
X249123537Y-80525763D01*
X248939423Y-80347499D01*
X248939421Y-80347497D01*
X248830154Y-80189549D01*
X247957187Y-78617910D01*
X247880834Y-78441679D01*
X247826787Y-78191168D01*
X247822649Y-77934928D01*
X247835981Y-77861753D01*
X247868581Y-77682804D01*
X247953898Y-77467047D01*
X247962819Y-77444485D01*
X247972934Y-77428804D01*
X248101738Y-77229130D01*
X248280002Y-77045016D01*
X248280004Y-77045014D01*
X248414828Y-76951745D01*
X248490761Y-76899215D01*
X248630900Y-76838499D01*
X248725914Y-76797333D01*
X248976425Y-76743286D01*
X249232665Y-76739148D01*
X249305840Y-76752480D01*
X249305840Y-76752480D01*
G37*
G36*
X79379840Y-76498480D02*
G01*
X79558789Y-76531080D01*
X79774546Y-76616397D01*
X79797108Y-76625318D01*
X79797109Y-76625319D01*
X79797110Y-76625319D01*
X80012463Y-76764237D01*
X80196577Y-76942501D01*
X80196579Y-76942503D01*
X80305846Y-77100451D01*
X81178813Y-78672089D01*
X81255166Y-78848320D01*
X81309213Y-79098831D01*
X81313351Y-79355072D01*
X81300019Y-79428247D01*
X81267419Y-79607196D01*
X81173180Y-79845517D01*
X81034262Y-80060870D01*
X80855998Y-80244984D01*
X80855996Y-80244986D01*
X80756688Y-80313686D01*
X80645239Y-80390785D01*
X80552379Y-80431017D01*
X80410086Y-80492667D01*
X80159575Y-80546714D01*
X79903334Y-80550852D01*
X79830159Y-80537520D01*
X79651210Y-80504920D01*
X79412889Y-80410682D01*
X79197537Y-80271763D01*
X79013423Y-80093499D01*
X79013421Y-80093497D01*
X78904154Y-79935549D01*
X78031187Y-78363910D01*
X77954834Y-78187679D01*
X77900787Y-77937168D01*
X77896649Y-77680928D01*
X77909981Y-77607753D01*
X77942581Y-77428804D01*
X78027898Y-77213047D01*
X78036819Y-77190485D01*
X78036820Y-77190483D01*
X78175738Y-76975130D01*
X78354002Y-76791016D01*
X78354004Y-76791014D01*
X78502563Y-76688243D01*
X78564761Y-76645215D01*
X78666643Y-76601074D01*
X78799914Y-76543333D01*
X79050425Y-76489286D01*
X79306665Y-76485148D01*
X79379840Y-76498480D01*
X79379840Y-76498480D01*
G37*
G36*
X295237000Y-79681000D02*
G01*
X293535000Y-79681000D01*
X293535000Y-77979000D01*
X295237000Y-77979000D01*
X295237000Y-79681000D01*
X295237000Y-79681000D01*
G37*
G36*
X28791000Y-79681000D02*
G01*
X27089000Y-79681000D01*
X27089000Y-77979000D01*
X28791000Y-77979000D01*
X28791000Y-79681000D01*
X28791000Y-79681000D01*
G37*
G36*
X237738228Y-77323703D02*
G01*
X237893100Y-77387853D01*
X238032481Y-77480985D01*
X238151015Y-77599519D01*
X238244147Y-77738900D01*
X238308297Y-77893772D01*
X238341000Y-78058184D01*
X238341000Y-78225816D01*
X238308297Y-78390228D01*
X238244147Y-78545100D01*
X238151015Y-78684481D01*
X238032481Y-78803015D01*
X237893100Y-78896147D01*
X237738228Y-78960297D01*
X237573816Y-78993000D01*
X237406184Y-78993000D01*
X237241772Y-78960297D01*
X237086900Y-78896147D01*
X236947519Y-78803015D01*
X236828985Y-78684481D01*
X236735853Y-78545100D01*
X236671703Y-78390228D01*
X236639000Y-78225816D01*
X236639000Y-78058184D01*
X236671703Y-77893772D01*
X236735853Y-77738900D01*
X236828985Y-77599519D01*
X236947519Y-77480985D01*
X237086900Y-77387853D01*
X237241772Y-77323703D01*
X237406184Y-77291000D01*
X237573816Y-77291000D01*
X237738228Y-77323703D01*
X237738228Y-77323703D01*
G37*
G36*
X243753521Y-75666120D02*
G01*
X244002748Y-75723545D01*
X244003251Y-75723661D01*
X244236958Y-75828816D01*
X244265685Y-75849288D01*
X244445660Y-75977544D01*
X244621335Y-76164131D01*
X244757235Y-76381405D01*
X244848135Y-76621017D01*
X244879916Y-76810429D01*
X244895908Y-77045014D01*
X244928058Y-77516606D01*
X244922276Y-77708572D01*
X244882090Y-77882983D01*
X244864735Y-77958303D01*
X244759580Y-78192010D01*
X244735489Y-78225815D01*
X244610852Y-78400712D01*
X244424265Y-78576387D01*
X244206991Y-78712287D01*
X243967379Y-78803187D01*
X243714638Y-78845594D01*
X243714634Y-78845594D01*
X243458479Y-78837880D01*
X243208753Y-78780340D01*
X243208749Y-78780339D01*
X242975042Y-78675184D01*
X242894673Y-78617910D01*
X242766340Y-78526456D01*
X242590665Y-78339869D01*
X242535553Y-78251757D01*
X242454765Y-78122595D01*
X242363865Y-77882983D01*
X242332084Y-77693571D01*
X242325672Y-77599519D01*
X242283942Y-76987392D01*
X242289724Y-76795428D01*
X242347264Y-76545701D01*
X242347265Y-76545697D01*
X242452420Y-76311990D01*
X242489791Y-76259550D01*
X242601148Y-76103288D01*
X242787735Y-75927613D01*
X242912958Y-75849289D01*
X243005009Y-75791713D01*
X243244621Y-75700813D01*
X243497362Y-75658406D01*
X243497366Y-75658406D01*
X243753521Y-75666120D01*
X243753521Y-75666120D01*
G37*
G36*
X85084228Y-77069703D02*
G01*
X85239100Y-77133853D01*
X85378481Y-77226985D01*
X85497015Y-77345519D01*
X85590147Y-77484900D01*
X85654297Y-77639772D01*
X85687000Y-77804184D01*
X85687000Y-77971816D01*
X85654297Y-78136228D01*
X85590147Y-78291100D01*
X85497015Y-78430481D01*
X85378481Y-78549015D01*
X85239100Y-78642147D01*
X85084228Y-78706297D01*
X84919816Y-78739000D01*
X84752184Y-78739000D01*
X84587772Y-78706297D01*
X84432900Y-78642147D01*
X84293519Y-78549015D01*
X84174985Y-78430481D01*
X84081853Y-78291100D01*
X84017703Y-78136228D01*
X83985000Y-77971816D01*
X83985000Y-77804184D01*
X84017703Y-77639772D01*
X84081853Y-77484900D01*
X84174985Y-77345519D01*
X84293519Y-77226985D01*
X84432900Y-77133853D01*
X84587772Y-77069703D01*
X84752184Y-77037000D01*
X84919816Y-77037000D01*
X85084228Y-77069703D01*
X85084228Y-77069703D01*
G37*
G36*
X73827521Y-75412120D02*
G01*
X74077247Y-75469660D01*
X74077251Y-75469661D01*
X74310958Y-75574816D01*
X74363398Y-75612187D01*
X74519660Y-75723544D01*
X74618775Y-75828816D01*
X74695335Y-75910131D01*
X74831235Y-76127405D01*
X74922135Y-76367017D01*
X74953916Y-76556429D01*
X74982460Y-76975130D01*
X75002058Y-77262606D01*
X74996276Y-77454572D01*
X74962878Y-77599520D01*
X74938735Y-77704303D01*
X74833580Y-77938010D01*
X74819121Y-77958299D01*
X74684852Y-78146712D01*
X74531495Y-78291100D01*
X74498265Y-78322387D01*
X74280991Y-78458287D01*
X74041379Y-78549187D01*
X73788638Y-78591594D01*
X73788634Y-78591594D01*
X73532479Y-78583880D01*
X73282753Y-78526340D01*
X73282749Y-78526339D01*
X73049042Y-78421184D01*
X72968673Y-78363910D01*
X72840340Y-78272456D01*
X72664665Y-78085869D01*
X72597821Y-77979000D01*
X72528765Y-77868595D01*
X72437865Y-77628983D01*
X72408601Y-77454571D01*
X72406084Y-77439572D01*
X72357942Y-76733392D01*
X72363724Y-76541428D01*
X72421264Y-76291701D01*
X72421265Y-76291697D01*
X72526420Y-76057990D01*
X72583749Y-75977544D01*
X72675148Y-75849288D01*
X72861735Y-75673613D01*
X72952247Y-75617000D01*
X73079009Y-75537713D01*
X73318621Y-75446813D01*
X73571362Y-75404406D01*
X73571366Y-75404406D01*
X73827521Y-75412120D01*
X73827521Y-75412120D01*
G37*
G36*
X151367142Y-76688242D02*
G01*
X151515101Y-76749529D01*
X151648255Y-76838499D01*
X151761501Y-76951745D01*
X151850471Y-77084899D01*
X151911758Y-77232858D01*
X151943000Y-77389925D01*
X151943000Y-77550075D01*
X151911758Y-77707142D01*
X151850471Y-77855101D01*
X151761501Y-77988255D01*
X151648255Y-78101501D01*
X151515101Y-78190471D01*
X151367142Y-78251758D01*
X151210075Y-78283000D01*
X151049925Y-78283000D01*
X150892858Y-78251758D01*
X150744899Y-78190471D01*
X150611745Y-78101501D01*
X150498499Y-77988255D01*
X150409529Y-77855101D01*
X150348242Y-77707142D01*
X150317000Y-77550075D01*
X150317000Y-77389925D01*
X150348242Y-77232858D01*
X150409529Y-77084899D01*
X150498499Y-76951745D01*
X150611745Y-76838499D01*
X150744899Y-76749529D01*
X150892858Y-76688242D01*
X151049925Y-76657000D01*
X151210075Y-76657000D01*
X151367142Y-76688242D01*
X151367142Y-76688242D01*
G37*
G36*
X171687142Y-76688242D02*
G01*
X171835101Y-76749529D01*
X171968255Y-76838499D01*
X172081501Y-76951745D01*
X172170471Y-77084899D01*
X172231758Y-77232858D01*
X172263000Y-77389925D01*
X172263000Y-77550075D01*
X172231758Y-77707142D01*
X172170471Y-77855101D01*
X172081501Y-77988255D01*
X171968255Y-78101501D01*
X171835101Y-78190471D01*
X171687142Y-78251758D01*
X171530075Y-78283000D01*
X171369925Y-78283000D01*
X171212858Y-78251758D01*
X171064899Y-78190471D01*
X170931745Y-78101501D01*
X170818499Y-77988255D01*
X170729529Y-77855101D01*
X170668242Y-77707142D01*
X170637000Y-77550075D01*
X170637000Y-77389925D01*
X170668242Y-77232858D01*
X170729529Y-77084899D01*
X170818499Y-76951745D01*
X170931745Y-76838499D01*
X171064899Y-76749529D01*
X171212858Y-76688242D01*
X171369925Y-76657000D01*
X171530075Y-76657000D01*
X171687142Y-76688242D01*
X171687142Y-76688242D01*
G37*
G36*
X171687142Y-74148242D02*
G01*
X171835101Y-74209529D01*
X171968255Y-74298499D01*
X172081501Y-74411745D01*
X172170471Y-74544899D01*
X172231758Y-74692858D01*
X172263000Y-74849925D01*
X172263000Y-75010075D01*
X172231758Y-75167142D01*
X172170471Y-75315101D01*
X172081501Y-75448255D01*
X171968255Y-75561501D01*
X171835101Y-75650471D01*
X171687142Y-75711758D01*
X171530075Y-75743000D01*
X171369925Y-75743000D01*
X171212858Y-75711758D01*
X171064899Y-75650471D01*
X170931745Y-75561501D01*
X170818499Y-75448255D01*
X170729529Y-75315101D01*
X170668242Y-75167142D01*
X170637000Y-75010075D01*
X170637000Y-74849925D01*
X170668242Y-74692858D01*
X170729529Y-74544899D01*
X170818499Y-74411745D01*
X170931745Y-74298499D01*
X171064899Y-74209529D01*
X171212858Y-74148242D01*
X171369925Y-74117000D01*
X171530075Y-74117000D01*
X171687142Y-74148242D01*
X171687142Y-74148242D01*
G37*
G36*
X276441000Y-75617000D02*
G01*
X274739000Y-75617000D01*
X274739000Y-73915000D01*
X276441000Y-73915000D01*
X276441000Y-75617000D01*
X276441000Y-75617000D01*
G37*
G36*
X138773000Y-75617000D02*
G01*
X137071000Y-75617000D01*
X137071000Y-73915000D01*
X138773000Y-73915000D01*
X138773000Y-75617000D01*
X138773000Y-75617000D01*
G37*
G36*
X47587000Y-75617000D02*
G01*
X45885000Y-75617000D01*
X45885000Y-73915000D01*
X47587000Y-73915000D01*
X47587000Y-75617000D01*
X47587000Y-75617000D01*
G37*
G36*
X185255000Y-75363000D02*
G01*
X183553000Y-75363000D01*
X183553000Y-73661000D01*
X185255000Y-73661000D01*
X185255000Y-75363000D01*
X185255000Y-75363000D01*
G37*
G36*
X306201840Y-69640480D02*
G01*
X306380789Y-69673080D01*
X306596546Y-69758397D01*
X306619108Y-69767318D01*
X306619109Y-69767319D01*
X306619110Y-69767319D01*
X306834463Y-69906237D01*
X307018577Y-70084501D01*
X307018579Y-70084503D01*
X307127846Y-70242451D01*
X308000813Y-71814089D01*
X308077166Y-71990320D01*
X308131213Y-72240831D01*
X308135351Y-72497072D01*
X308122019Y-72570247D01*
X308089419Y-72749196D01*
X307995180Y-72987517D01*
X307856262Y-73202870D01*
X307677998Y-73386984D01*
X307677996Y-73386986D01*
X307578688Y-73455686D01*
X307467239Y-73532785D01*
X307365357Y-73576926D01*
X307232086Y-73634667D01*
X306981575Y-73688714D01*
X306725334Y-73692852D01*
X306652159Y-73679520D01*
X306473210Y-73646920D01*
X306234889Y-73552682D01*
X306019537Y-73413763D01*
X305835423Y-73235499D01*
X305835421Y-73235497D01*
X305726154Y-73077549D01*
X304853187Y-71505910D01*
X304776834Y-71329679D01*
X304722787Y-71079168D01*
X304718649Y-70822928D01*
X304731981Y-70749753D01*
X304764581Y-70570804D01*
X304858820Y-70332483D01*
X304997738Y-70117130D01*
X305176002Y-69933016D01*
X305176004Y-69933014D01*
X305294558Y-69851000D01*
X305386761Y-69787215D01*
X305488643Y-69743074D01*
X305621914Y-69685333D01*
X305872425Y-69631286D01*
X306128665Y-69627148D01*
X306201840Y-69640480D01*
X306201840Y-69640480D01*
G37*
G36*
X22483840Y-69640480D02*
G01*
X22662789Y-69673080D01*
X22878546Y-69758397D01*
X22901108Y-69767318D01*
X22901109Y-69767319D01*
X22901110Y-69767319D01*
X23116463Y-69906237D01*
X23300577Y-70084501D01*
X23300579Y-70084503D01*
X23409846Y-70242451D01*
X24282813Y-71814089D01*
X24359166Y-71990320D01*
X24413213Y-72240831D01*
X24417351Y-72497072D01*
X24404019Y-72570247D01*
X24371419Y-72749196D01*
X24277180Y-72987517D01*
X24138262Y-73202870D01*
X23959998Y-73386984D01*
X23959996Y-73386986D01*
X23860688Y-73455686D01*
X23749239Y-73532785D01*
X23647357Y-73576926D01*
X23514086Y-73634667D01*
X23263575Y-73688714D01*
X23007334Y-73692852D01*
X22934159Y-73679520D01*
X22755210Y-73646920D01*
X22516889Y-73552682D01*
X22301537Y-73413763D01*
X22117423Y-73235499D01*
X22117421Y-73235497D01*
X22008154Y-73077549D01*
X21135187Y-71505910D01*
X21058834Y-71329679D01*
X21004787Y-71079168D01*
X21000649Y-70822928D01*
X21013981Y-70749753D01*
X21046581Y-70570804D01*
X21140820Y-70332483D01*
X21279738Y-70117130D01*
X21458002Y-69933016D01*
X21458004Y-69933014D01*
X21576558Y-69851000D01*
X21668761Y-69787215D01*
X21770643Y-69743074D01*
X21903914Y-69685333D01*
X22154425Y-69631286D01*
X22410665Y-69627148D01*
X22483840Y-69640480D01*
X22483840Y-69640480D01*
G37*
G36*
X171687142Y-71608242D02*
G01*
X171835101Y-71669529D01*
X171968255Y-71758499D01*
X172081501Y-71871745D01*
X172170471Y-72004899D01*
X172231758Y-72152858D01*
X172263000Y-72309925D01*
X172263000Y-72470075D01*
X172231758Y-72627142D01*
X172170471Y-72775101D01*
X172081501Y-72908255D01*
X171968255Y-73021501D01*
X171835101Y-73110471D01*
X171687142Y-73171758D01*
X171530075Y-73203000D01*
X171369925Y-73203000D01*
X171212858Y-73171758D01*
X171064899Y-73110471D01*
X170931745Y-73021501D01*
X170818499Y-72908255D01*
X170729529Y-72775101D01*
X170668242Y-72627142D01*
X170637000Y-72470075D01*
X170637000Y-72309925D01*
X170668242Y-72152858D01*
X170729529Y-72004899D01*
X170818499Y-71871745D01*
X170931745Y-71758499D01*
X171064899Y-71669529D01*
X171212858Y-71608242D01*
X171369925Y-71577000D01*
X171530075Y-71577000D01*
X171687142Y-71608242D01*
X171687142Y-71608242D01*
G37*
G36*
X294634228Y-70211703D02*
G01*
X294789100Y-70275853D01*
X294928481Y-70368985D01*
X295047015Y-70487519D01*
X295140147Y-70626900D01*
X295204297Y-70781772D01*
X295237000Y-70946184D01*
X295237000Y-71113816D01*
X295204297Y-71278228D01*
X295140147Y-71433100D01*
X295047015Y-71572481D01*
X294928481Y-71691015D01*
X294789100Y-71784147D01*
X294634228Y-71848297D01*
X294469816Y-71881000D01*
X294302184Y-71881000D01*
X294137772Y-71848297D01*
X293982900Y-71784147D01*
X293843519Y-71691015D01*
X293724985Y-71572481D01*
X293631853Y-71433100D01*
X293567703Y-71278228D01*
X293535000Y-71113816D01*
X293535000Y-70946184D01*
X293567703Y-70781772D01*
X293631853Y-70626900D01*
X293724985Y-70487519D01*
X293843519Y-70368985D01*
X293982900Y-70275853D01*
X294137772Y-70211703D01*
X294302184Y-70179000D01*
X294469816Y-70179000D01*
X294634228Y-70211703D01*
X294634228Y-70211703D01*
G37*
G36*
X28188228Y-70211703D02*
G01*
X28343100Y-70275853D01*
X28482481Y-70368985D01*
X28601015Y-70487519D01*
X28694147Y-70626900D01*
X28758297Y-70781772D01*
X28791000Y-70946184D01*
X28791000Y-71113816D01*
X28758297Y-71278228D01*
X28694147Y-71433100D01*
X28601015Y-71572481D01*
X28482481Y-71691015D01*
X28343100Y-71784147D01*
X28188228Y-71848297D01*
X28023816Y-71881000D01*
X27856184Y-71881000D01*
X27691772Y-71848297D01*
X27536900Y-71784147D01*
X27397519Y-71691015D01*
X27278985Y-71572481D01*
X27185853Y-71433100D01*
X27121703Y-71278228D01*
X27089000Y-71113816D01*
X27089000Y-70946184D01*
X27121703Y-70781772D01*
X27185853Y-70626900D01*
X27278985Y-70487519D01*
X27397519Y-70368985D01*
X27536900Y-70275853D01*
X27691772Y-70211703D01*
X27856184Y-70179000D01*
X28023816Y-70179000D01*
X28188228Y-70211703D01*
X28188228Y-70211703D01*
G37*
G36*
X257391000Y-71807000D02*
G01*
X255689000Y-71807000D01*
X255689000Y-70105000D01*
X257391000Y-70105000D01*
X257391000Y-71807000D01*
X257391000Y-71807000D01*
G37*
G36*
X104737000Y-71807000D02*
G01*
X103035000Y-71807000D01*
X103035000Y-70105000D01*
X104737000Y-70105000D01*
X104737000Y-71807000D01*
X104737000Y-71807000D01*
G37*
G36*
X300649521Y-68554120D02*
G01*
X300899247Y-68611660D01*
X300899251Y-68611661D01*
X301132958Y-68716816D01*
X301185398Y-68754187D01*
X301341660Y-68865544D01*
X301460050Y-68991288D01*
X301517335Y-69052131D01*
X301653235Y-69269405D01*
X301744135Y-69509017D01*
X301775916Y-69698429D01*
X301791908Y-69933014D01*
X301824058Y-70404606D01*
X301819062Y-70570471D01*
X301818276Y-70596571D01*
X301760735Y-70846303D01*
X301655580Y-71080010D01*
X301631489Y-71113815D01*
X301506852Y-71288712D01*
X301353495Y-71433100D01*
X301320265Y-71464387D01*
X301102991Y-71600287D01*
X300863379Y-71691187D01*
X300610638Y-71733594D01*
X300610634Y-71733594D01*
X300354479Y-71725880D01*
X300104753Y-71668340D01*
X300104749Y-71668339D01*
X299871042Y-71563184D01*
X299790673Y-71505910D01*
X299662340Y-71414456D01*
X299486665Y-71227869D01*
X299350765Y-71010595D01*
X299259865Y-70770983D01*
X299228084Y-70581571D01*
X299216019Y-70404598D01*
X299179942Y-69875392D01*
X299185724Y-69683428D01*
X299243264Y-69433701D01*
X299243265Y-69433697D01*
X299348420Y-69199990D01*
X299442308Y-69068243D01*
X299497148Y-68991288D01*
X299683735Y-68815613D01*
X299901009Y-68679713D01*
X300140621Y-68588813D01*
X300393362Y-68546406D01*
X300393366Y-68546406D01*
X300649521Y-68554120D01*
X300649521Y-68554120D01*
G37*
G36*
X16931521Y-68554120D02*
G01*
X17181247Y-68611660D01*
X17181251Y-68611661D01*
X17414958Y-68716816D01*
X17467398Y-68754187D01*
X17623660Y-68865544D01*
X17742050Y-68991288D01*
X17799335Y-69052131D01*
X17935235Y-69269405D01*
X18026135Y-69509017D01*
X18057916Y-69698429D01*
X18073908Y-69933014D01*
X18106058Y-70404606D01*
X18101062Y-70570471D01*
X18100276Y-70596571D01*
X18042735Y-70846303D01*
X17937580Y-71080010D01*
X17913489Y-71113815D01*
X17788852Y-71288712D01*
X17635495Y-71433100D01*
X17602265Y-71464387D01*
X17384991Y-71600287D01*
X17145379Y-71691187D01*
X16892638Y-71733594D01*
X16892634Y-71733594D01*
X16636479Y-71725880D01*
X16386753Y-71668340D01*
X16386749Y-71668339D01*
X16153042Y-71563184D01*
X16072673Y-71505910D01*
X15944340Y-71414456D01*
X15768665Y-71227869D01*
X15632765Y-71010595D01*
X15541865Y-70770983D01*
X15510084Y-70581571D01*
X15498019Y-70404598D01*
X15461942Y-69875392D01*
X15467724Y-69683428D01*
X15525264Y-69433701D01*
X15525265Y-69433697D01*
X15630420Y-69199990D01*
X15724308Y-69068243D01*
X15779148Y-68991288D01*
X15965735Y-68815613D01*
X16183009Y-68679713D01*
X16422621Y-68588813D01*
X16675362Y-68546406D01*
X16675366Y-68546406D01*
X16931521Y-68554120D01*
X16931521Y-68554120D01*
G37*
G36*
X219545000Y-71553000D02*
G01*
X217843000Y-71553000D01*
X217843000Y-69851000D01*
X219545000Y-69851000D01*
X219545000Y-71553000D01*
X219545000Y-71553000D01*
G37*
G36*
X66637000Y-71553000D02*
G01*
X64935000Y-71553000D01*
X64935000Y-69851000D01*
X66637000Y-69851000D01*
X66637000Y-71553000D01*
X66637000Y-71553000D01*
G37*
G36*
X171687142Y-69068242D02*
G01*
X171835101Y-69129529D01*
X171968255Y-69218499D01*
X172081501Y-69331745D01*
X172170471Y-69464899D01*
X172231758Y-69612858D01*
X172263000Y-69769925D01*
X172263000Y-69930075D01*
X172231758Y-70087142D01*
X172170471Y-70235101D01*
X172081501Y-70368255D01*
X171968255Y-70481501D01*
X171835101Y-70570471D01*
X171687142Y-70631758D01*
X171530075Y-70663000D01*
X171369925Y-70663000D01*
X171212858Y-70631758D01*
X171064899Y-70570471D01*
X170931745Y-70481501D01*
X170818499Y-70368255D01*
X170729529Y-70235101D01*
X170668242Y-70087142D01*
X170637000Y-69930075D01*
X170637000Y-69769925D01*
X170668242Y-69612858D01*
X170729529Y-69464899D01*
X170818499Y-69331745D01*
X170931745Y-69218499D01*
X171064899Y-69129529D01*
X171212858Y-69068242D01*
X171369925Y-69037000D01*
X171530075Y-69037000D01*
X171687142Y-69068242D01*
X171687142Y-69068242D01*
G37*
G36*
X211459840Y-65576480D02*
G01*
X211638789Y-65609080D01*
X211848111Y-65691852D01*
X211877108Y-65703318D01*
X211877109Y-65703319D01*
X211877110Y-65703319D01*
X212092463Y-65842237D01*
X212211872Y-65957852D01*
X212276579Y-66020503D01*
X212385846Y-66178451D01*
X213258813Y-67750089D01*
X213335166Y-67926320D01*
X213389213Y-68176831D01*
X213393351Y-68433072D01*
X213380019Y-68506247D01*
X213347419Y-68685196D01*
X213253180Y-68923517D01*
X213114262Y-69138870D01*
X212935998Y-69322984D01*
X212935996Y-69322986D01*
X212836688Y-69391686D01*
X212725239Y-69468785D01*
X212632379Y-69509017D01*
X212490086Y-69570667D01*
X212239575Y-69624714D01*
X211983334Y-69628852D01*
X211910159Y-69615520D01*
X211731210Y-69582920D01*
X211492889Y-69488682D01*
X211277537Y-69349763D01*
X211093423Y-69171499D01*
X211093421Y-69171497D01*
X210984154Y-69013549D01*
X210111187Y-67441910D01*
X210034834Y-67265679D01*
X209980787Y-67015168D01*
X209976649Y-66758928D01*
X209991302Y-66678499D01*
X210022581Y-66506804D01*
X210116820Y-66268483D01*
X210255738Y-66053130D01*
X210434002Y-65869016D01*
X210434004Y-65869014D01*
X210533312Y-65800314D01*
X210644761Y-65723215D01*
X210793472Y-65658785D01*
X210879914Y-65621333D01*
X211130425Y-65567286D01*
X211386665Y-65563148D01*
X211459840Y-65576480D01*
X211459840Y-65576480D01*
G37*
G36*
X41279840Y-65576480D02*
G01*
X41458789Y-65609080D01*
X41668111Y-65691852D01*
X41697108Y-65703318D01*
X41697109Y-65703319D01*
X41697110Y-65703319D01*
X41912463Y-65842237D01*
X42031872Y-65957852D01*
X42096579Y-66020503D01*
X42205846Y-66178451D01*
X43078813Y-67750089D01*
X43155166Y-67926320D01*
X43209213Y-68176831D01*
X43213351Y-68433072D01*
X43200019Y-68506247D01*
X43167419Y-68685196D01*
X43073180Y-68923517D01*
X42934262Y-69138870D01*
X42755998Y-69322984D01*
X42755996Y-69322986D01*
X42656688Y-69391686D01*
X42545239Y-69468785D01*
X42452379Y-69509017D01*
X42310086Y-69570667D01*
X42059575Y-69624714D01*
X41803334Y-69628852D01*
X41730159Y-69615520D01*
X41551210Y-69582920D01*
X41312889Y-69488682D01*
X41097537Y-69349763D01*
X40913423Y-69171499D01*
X40913421Y-69171497D01*
X40804154Y-69013549D01*
X39931187Y-67441910D01*
X39854834Y-67265679D01*
X39800787Y-67015168D01*
X39796649Y-66758928D01*
X39811302Y-66678499D01*
X39842581Y-66506804D01*
X39936820Y-66268483D01*
X40075738Y-66053130D01*
X40254002Y-65869016D01*
X40254004Y-65869014D01*
X40353312Y-65800314D01*
X40464761Y-65723215D01*
X40613472Y-65658785D01*
X40699914Y-65621333D01*
X40950425Y-65567286D01*
X41206665Y-65563148D01*
X41279840Y-65576480D01*
X41279840Y-65576480D01*
G37*
G36*
X117479840Y-65576480D02*
G01*
X117658789Y-65609080D01*
X117868111Y-65691852D01*
X117897108Y-65703318D01*
X117897109Y-65703319D01*
X117897110Y-65703319D01*
X118112463Y-65842237D01*
X118231872Y-65957852D01*
X118296579Y-66020503D01*
X118405846Y-66178451D01*
X119278813Y-67750089D01*
X119355166Y-67926320D01*
X119409213Y-68176831D01*
X119413351Y-68433072D01*
X119400019Y-68506247D01*
X119367419Y-68685196D01*
X119273180Y-68923517D01*
X119134262Y-69138870D01*
X118955998Y-69322984D01*
X118955996Y-69322986D01*
X118856688Y-69391686D01*
X118745239Y-69468785D01*
X118652379Y-69509017D01*
X118510086Y-69570667D01*
X118259575Y-69624714D01*
X118003334Y-69628852D01*
X117930159Y-69615520D01*
X117751210Y-69582920D01*
X117512889Y-69488682D01*
X117297537Y-69349763D01*
X117113423Y-69171499D01*
X117113421Y-69171497D01*
X117004154Y-69013549D01*
X116131187Y-67441910D01*
X116054834Y-67265679D01*
X116000787Y-67015168D01*
X115996649Y-66758928D01*
X116011302Y-66678499D01*
X116042581Y-66506804D01*
X116136820Y-66268483D01*
X116275738Y-66053130D01*
X116454002Y-65869016D01*
X116454004Y-65869014D01*
X116553312Y-65800314D01*
X116664761Y-65723215D01*
X116813472Y-65658785D01*
X116899914Y-65621333D01*
X117150425Y-65567286D01*
X117406665Y-65563148D01*
X117479840Y-65576480D01*
X117479840Y-65576480D01*
G37*
G36*
X287405840Y-65576480D02*
G01*
X287584789Y-65609080D01*
X287794111Y-65691852D01*
X287823108Y-65703318D01*
X287823109Y-65703319D01*
X287823110Y-65703319D01*
X288038463Y-65842237D01*
X288157872Y-65957852D01*
X288222579Y-66020503D01*
X288331846Y-66178451D01*
X289204813Y-67750089D01*
X289281166Y-67926320D01*
X289335213Y-68176831D01*
X289339351Y-68433072D01*
X289326019Y-68506247D01*
X289293419Y-68685196D01*
X289199180Y-68923517D01*
X289060262Y-69138870D01*
X288881998Y-69322984D01*
X288881996Y-69322986D01*
X288782688Y-69391686D01*
X288671239Y-69468785D01*
X288578379Y-69509017D01*
X288436086Y-69570667D01*
X288185575Y-69624714D01*
X287929334Y-69628852D01*
X287856159Y-69615520D01*
X287677210Y-69582920D01*
X287438889Y-69488682D01*
X287223537Y-69349763D01*
X287039423Y-69171499D01*
X287039421Y-69171497D01*
X286930154Y-69013549D01*
X286057187Y-67441910D01*
X285980834Y-67265679D01*
X285926787Y-67015168D01*
X285922649Y-66758928D01*
X285937302Y-66678499D01*
X285968581Y-66506804D01*
X286062820Y-66268483D01*
X286201738Y-66053130D01*
X286380002Y-65869016D01*
X286380004Y-65869014D01*
X286479312Y-65800314D01*
X286590761Y-65723215D01*
X286739472Y-65658785D01*
X286825914Y-65621333D01*
X287076425Y-65567286D01*
X287332665Y-65563148D01*
X287405840Y-65576480D01*
X287405840Y-65576480D01*
G37*
G36*
X171687142Y-66528242D02*
G01*
X171835101Y-66589529D01*
X171968255Y-66678499D01*
X172081501Y-66791745D01*
X172170471Y-66924899D01*
X172231758Y-67072858D01*
X172263000Y-67229925D01*
X172263000Y-67390075D01*
X172231758Y-67547142D01*
X172170471Y-67695101D01*
X172081501Y-67828255D01*
X171968255Y-67941501D01*
X171835101Y-68030471D01*
X171687142Y-68091758D01*
X171530075Y-68123000D01*
X171369925Y-68123000D01*
X171212858Y-68091758D01*
X171064899Y-68030471D01*
X170931745Y-67941501D01*
X170818499Y-67828255D01*
X170729529Y-67695101D01*
X170668242Y-67547142D01*
X170637000Y-67390075D01*
X170637000Y-67229925D01*
X170668242Y-67072858D01*
X170729529Y-66924899D01*
X170818499Y-66791745D01*
X170931745Y-66678499D01*
X171064899Y-66589529D01*
X171212858Y-66528242D01*
X171369925Y-66497000D01*
X171530075Y-66497000D01*
X171687142Y-66528242D01*
X171687142Y-66528242D01*
G37*
G36*
X275838228Y-66147703D02*
G01*
X275993100Y-66211853D01*
X276132481Y-66304985D01*
X276251015Y-66423519D01*
X276344147Y-66562900D01*
X276408297Y-66717772D01*
X276441000Y-66882184D01*
X276441000Y-67049816D01*
X276408297Y-67214228D01*
X276344147Y-67369100D01*
X276251015Y-67508481D01*
X276132481Y-67627015D01*
X275993100Y-67720147D01*
X275838228Y-67784297D01*
X275673816Y-67817000D01*
X275506184Y-67817000D01*
X275341772Y-67784297D01*
X275186900Y-67720147D01*
X275047519Y-67627015D01*
X274928985Y-67508481D01*
X274835853Y-67369100D01*
X274771703Y-67214228D01*
X274739000Y-67049816D01*
X274739000Y-66882184D01*
X274771703Y-66717772D01*
X274835853Y-66562900D01*
X274928985Y-66423519D01*
X275047519Y-66304985D01*
X275186900Y-66211853D01*
X275341772Y-66147703D01*
X275506184Y-66115000D01*
X275673816Y-66115000D01*
X275838228Y-66147703D01*
X275838228Y-66147703D01*
G37*
G36*
X138170228Y-66147703D02*
G01*
X138325100Y-66211853D01*
X138464481Y-66304985D01*
X138583015Y-66423519D01*
X138676147Y-66562900D01*
X138740297Y-66717772D01*
X138773000Y-66882184D01*
X138773000Y-67049816D01*
X138740297Y-67214228D01*
X138676147Y-67369100D01*
X138583015Y-67508481D01*
X138464481Y-67627015D01*
X138325100Y-67720147D01*
X138170228Y-67784297D01*
X138005816Y-67817000D01*
X137838184Y-67817000D01*
X137673772Y-67784297D01*
X137518900Y-67720147D01*
X137379519Y-67627015D01*
X137260985Y-67508481D01*
X137167853Y-67369100D01*
X137103703Y-67214228D01*
X137071000Y-67049816D01*
X137071000Y-66882184D01*
X137103703Y-66717772D01*
X137167853Y-66562900D01*
X137260985Y-66423519D01*
X137379519Y-66304985D01*
X137518900Y-66211853D01*
X137673772Y-66147703D01*
X137838184Y-66115000D01*
X138005816Y-66115000D01*
X138170228Y-66147703D01*
X138170228Y-66147703D01*
G37*
G36*
X46984228Y-66147703D02*
G01*
X47139100Y-66211853D01*
X47278481Y-66304985D01*
X47397015Y-66423519D01*
X47490147Y-66562900D01*
X47554297Y-66717772D01*
X47587000Y-66882184D01*
X47587000Y-67049816D01*
X47554297Y-67214228D01*
X47490147Y-67369100D01*
X47397015Y-67508481D01*
X47278481Y-67627015D01*
X47139100Y-67720147D01*
X46984228Y-67784297D01*
X46819816Y-67817000D01*
X46652184Y-67817000D01*
X46487772Y-67784297D01*
X46332900Y-67720147D01*
X46193519Y-67627015D01*
X46074985Y-67508481D01*
X45981853Y-67369100D01*
X45917703Y-67214228D01*
X45885000Y-67049816D01*
X45885000Y-66882184D01*
X45917703Y-66717772D01*
X45981853Y-66562900D01*
X46074985Y-66423519D01*
X46193519Y-66304985D01*
X46332900Y-66211853D01*
X46487772Y-66147703D01*
X46652184Y-66115000D01*
X46819816Y-66115000D01*
X46984228Y-66147703D01*
X46984228Y-66147703D01*
G37*
G36*
X238341000Y-67743000D02*
G01*
X236639000Y-67743000D01*
X236639000Y-66041000D01*
X238341000Y-66041000D01*
X238341000Y-67743000D01*
X238341000Y-67743000D01*
G37*
G36*
X85687000Y-67743000D02*
G01*
X83985000Y-67743000D01*
X83985000Y-66041000D01*
X85687000Y-66041000D01*
X85687000Y-67743000D01*
X85687000Y-67743000D01*
G37*
G36*
X35727521Y-64490120D02*
G01*
X35977247Y-64547660D01*
X35977251Y-64547661D01*
X36210958Y-64652816D01*
X36263398Y-64690187D01*
X36419660Y-64801544D01*
X36593815Y-64986517D01*
X36595335Y-64988131D01*
X36731235Y-65205405D01*
X36822135Y-65445017D01*
X36853916Y-65634429D01*
X36869908Y-65869014D01*
X36902058Y-66340606D01*
X36896276Y-66532572D01*
X36862653Y-66678499D01*
X36838735Y-66782303D01*
X36733580Y-67016010D01*
X36709489Y-67049815D01*
X36584852Y-67224712D01*
X36398265Y-67400387D01*
X36180991Y-67536287D01*
X35941379Y-67627187D01*
X35688638Y-67669594D01*
X35688634Y-67669594D01*
X35432479Y-67661880D01*
X35182753Y-67604340D01*
X35182749Y-67604339D01*
X34949042Y-67499184D01*
X34868673Y-67441910D01*
X34740340Y-67350456D01*
X34564665Y-67163869D01*
X34507739Y-67072857D01*
X34428765Y-66946595D01*
X34337865Y-66706983D01*
X34306084Y-66517571D01*
X34291858Y-66308900D01*
X34257942Y-65811392D01*
X34263724Y-65619428D01*
X34321264Y-65369701D01*
X34321265Y-65369697D01*
X34426420Y-65135990D01*
X34469977Y-65074870D01*
X34575148Y-64927288D01*
X34761735Y-64751613D01*
X34767198Y-64748196D01*
X34979009Y-64615713D01*
X35218621Y-64524813D01*
X35471362Y-64482406D01*
X35471366Y-64482406D01*
X35727521Y-64490120D01*
X35727521Y-64490120D01*
G37*
G36*
X111927521Y-64490120D02*
G01*
X112177247Y-64547660D01*
X112177251Y-64547661D01*
X112410958Y-64652816D01*
X112463398Y-64690187D01*
X112619660Y-64801544D01*
X112793815Y-64986517D01*
X112795335Y-64988131D01*
X112931235Y-65205405D01*
X113022135Y-65445017D01*
X113053916Y-65634429D01*
X113069908Y-65869014D01*
X113102058Y-66340606D01*
X113096276Y-66532572D01*
X113062653Y-66678499D01*
X113038735Y-66782303D01*
X112933580Y-67016010D01*
X112909489Y-67049815D01*
X112784852Y-67224712D01*
X112598265Y-67400387D01*
X112380991Y-67536287D01*
X112141379Y-67627187D01*
X111888638Y-67669594D01*
X111888634Y-67669594D01*
X111632479Y-67661880D01*
X111382753Y-67604340D01*
X111382749Y-67604339D01*
X111149042Y-67499184D01*
X111068673Y-67441910D01*
X110940340Y-67350456D01*
X110764665Y-67163869D01*
X110707739Y-67072857D01*
X110628765Y-66946595D01*
X110537865Y-66706983D01*
X110506084Y-66517571D01*
X110491858Y-66308900D01*
X110457942Y-65811392D01*
X110463724Y-65619428D01*
X110521264Y-65369701D01*
X110521265Y-65369697D01*
X110626420Y-65135990D01*
X110669977Y-65074870D01*
X110775148Y-64927288D01*
X110961735Y-64751613D01*
X110967198Y-64748196D01*
X111179009Y-64615713D01*
X111418621Y-64524813D01*
X111671362Y-64482406D01*
X111671366Y-64482406D01*
X111927521Y-64490120D01*
X111927521Y-64490120D01*
G37*
G36*
X281853521Y-64490120D02*
G01*
X282103247Y-64547660D01*
X282103251Y-64547661D01*
X282336958Y-64652816D01*
X282389398Y-64690187D01*
X282545660Y-64801544D01*
X282719815Y-64986517D01*
X282721335Y-64988131D01*
X282857235Y-65205405D01*
X282948135Y-65445017D01*
X282979916Y-65634429D01*
X282995908Y-65869014D01*
X283028058Y-66340606D01*
X283022276Y-66532572D01*
X282988653Y-66678499D01*
X282964735Y-66782303D01*
X282859580Y-67016010D01*
X282835489Y-67049815D01*
X282710852Y-67224712D01*
X282524265Y-67400387D01*
X282306991Y-67536287D01*
X282067379Y-67627187D01*
X281814638Y-67669594D01*
X281814634Y-67669594D01*
X281558479Y-67661880D01*
X281308753Y-67604340D01*
X281308749Y-67604339D01*
X281075042Y-67499184D01*
X280994673Y-67441910D01*
X280866340Y-67350456D01*
X280690665Y-67163869D01*
X280633739Y-67072857D01*
X280554765Y-66946595D01*
X280463865Y-66706983D01*
X280432084Y-66517571D01*
X280417858Y-66308900D01*
X280383942Y-65811392D01*
X280389724Y-65619428D01*
X280447264Y-65369701D01*
X280447265Y-65369697D01*
X280552420Y-65135990D01*
X280595977Y-65074870D01*
X280701148Y-64927288D01*
X280887735Y-64751613D01*
X280893198Y-64748196D01*
X281105009Y-64615713D01*
X281344621Y-64524813D01*
X281597362Y-64482406D01*
X281597366Y-64482406D01*
X281853521Y-64490120D01*
X281853521Y-64490120D01*
G37*
G36*
X205907521Y-64490120D02*
G01*
X206157247Y-64547660D01*
X206157251Y-64547661D01*
X206390958Y-64652816D01*
X206443398Y-64690187D01*
X206599660Y-64801544D01*
X206773815Y-64986517D01*
X206775335Y-64988131D01*
X206911235Y-65205405D01*
X207002135Y-65445017D01*
X207033916Y-65634429D01*
X207049908Y-65869014D01*
X207082058Y-66340606D01*
X207076276Y-66532572D01*
X207042653Y-66678499D01*
X207018735Y-66782303D01*
X206913580Y-67016010D01*
X206889489Y-67049815D01*
X206764852Y-67224712D01*
X206578265Y-67400387D01*
X206360991Y-67536287D01*
X206121379Y-67627187D01*
X205868638Y-67669594D01*
X205868634Y-67669594D01*
X205612479Y-67661880D01*
X205362753Y-67604340D01*
X205362749Y-67604339D01*
X205129042Y-67499184D01*
X205048673Y-67441910D01*
X204920340Y-67350456D01*
X204744665Y-67163869D01*
X204687739Y-67072857D01*
X204608765Y-66946595D01*
X204517865Y-66706983D01*
X204486084Y-66517571D01*
X204471858Y-66308900D01*
X204437942Y-65811392D01*
X204443724Y-65619428D01*
X204501264Y-65369701D01*
X204501265Y-65369697D01*
X204606420Y-65135990D01*
X204649977Y-65074870D01*
X204755148Y-64927288D01*
X204941735Y-64751613D01*
X204947198Y-64748196D01*
X205159009Y-64615713D01*
X205398621Y-64524813D01*
X205651362Y-64482406D01*
X205651366Y-64482406D01*
X205907521Y-64490120D01*
X205907521Y-64490120D01*
G37*
G36*
X184652228Y-65893703D02*
G01*
X184807100Y-65957853D01*
X184946481Y-66050985D01*
X185065015Y-66169519D01*
X185158147Y-66308900D01*
X185222297Y-66463772D01*
X185255000Y-66628184D01*
X185255000Y-66795816D01*
X185222297Y-66960228D01*
X185158147Y-67115100D01*
X185065015Y-67254481D01*
X184946481Y-67373015D01*
X184807100Y-67466147D01*
X184652228Y-67530297D01*
X184487816Y-67563000D01*
X184320184Y-67563000D01*
X184155772Y-67530297D01*
X184000900Y-67466147D01*
X183861519Y-67373015D01*
X183742985Y-67254481D01*
X183649853Y-67115100D01*
X183585703Y-66960228D01*
X183553000Y-66795816D01*
X183553000Y-66628184D01*
X183585703Y-66463772D01*
X183649853Y-66308900D01*
X183742985Y-66169519D01*
X183861519Y-66050985D01*
X184000900Y-65957853D01*
X184155772Y-65893703D01*
X184320184Y-65861000D01*
X184487816Y-65861000D01*
X184652228Y-65893703D01*
X184652228Y-65893703D01*
G37*
G36*
X268354953Y-61766318D02*
G01*
X268534789Y-61799080D01*
X268725268Y-61874401D01*
X268773108Y-61893318D01*
X268773109Y-61893319D01*
X268773110Y-61893319D01*
X268988463Y-62032237D01*
X269172577Y-62210501D01*
X269172579Y-62210503D01*
X269281846Y-62368451D01*
X270154813Y-63940089D01*
X270231166Y-64116320D01*
X270285213Y-64366831D01*
X270289351Y-64623072D01*
X270276019Y-64696247D01*
X270243419Y-64875196D01*
X270164462Y-65074870D01*
X270151561Y-65107497D01*
X270149180Y-65113517D01*
X270010262Y-65328870D01*
X269917494Y-65424682D01*
X269831996Y-65512986D01*
X269776059Y-65551682D01*
X269621239Y-65658785D01*
X269544919Y-65691851D01*
X269386086Y-65760667D01*
X269135575Y-65814714D01*
X268879334Y-65818852D01*
X268806159Y-65805520D01*
X268627210Y-65772920D01*
X268388889Y-65678682D01*
X268173537Y-65539763D01*
X267989423Y-65361499D01*
X267989421Y-65361497D01*
X267880154Y-65203549D01*
X267007187Y-63631910D01*
X266930834Y-63455679D01*
X266876787Y-63205168D01*
X266872649Y-62948928D01*
X266891529Y-62845299D01*
X266918581Y-62696804D01*
X267003898Y-62481047D01*
X267012819Y-62458485D01*
X267048225Y-62403598D01*
X267151738Y-62243130D01*
X267330002Y-62059016D01*
X267330004Y-62059014D01*
X267431024Y-61989130D01*
X267540761Y-61913215D01*
X267642643Y-61869074D01*
X267775914Y-61811333D01*
X268026425Y-61757286D01*
X268282665Y-61753148D01*
X268354953Y-61766318D01*
X268354953Y-61766318D01*
G37*
G36*
X98428953Y-61639318D02*
G01*
X98608789Y-61672080D01*
X98818111Y-61754852D01*
X98847108Y-61766318D01*
X98847109Y-61766319D01*
X98847110Y-61766319D01*
X99062463Y-61905237D01*
X99213009Y-62051000D01*
X99246579Y-62083503D01*
X99355846Y-62241451D01*
X100228813Y-63813089D01*
X100305166Y-63989320D01*
X100359213Y-64239831D01*
X100363351Y-64496072D01*
X100353952Y-64547660D01*
X100317419Y-64748196D01*
X100223180Y-64986517D01*
X100084262Y-65201870D01*
X99905998Y-65385984D01*
X99905996Y-65385986D01*
X99850059Y-65424682D01*
X99695239Y-65531785D01*
X99618919Y-65564851D01*
X99460086Y-65633667D01*
X99209575Y-65687714D01*
X98953334Y-65691852D01*
X98880159Y-65678520D01*
X98701210Y-65645920D01*
X98462889Y-65551682D01*
X98247537Y-65412763D01*
X98063423Y-65234499D01*
X98063421Y-65234497D01*
X97954154Y-65076549D01*
X97081187Y-63504910D01*
X97004834Y-63328679D01*
X96950787Y-63078168D01*
X96946649Y-62821928D01*
X96964750Y-62722572D01*
X96992581Y-62569804D01*
X97077898Y-62354047D01*
X97086819Y-62331485D01*
X97086820Y-62331483D01*
X97225738Y-62116130D01*
X97404002Y-61932016D01*
X97404004Y-61932014D01*
X97559525Y-61824427D01*
X97614761Y-61786215D01*
X97716643Y-61742074D01*
X97849914Y-61684333D01*
X98100425Y-61630286D01*
X98356665Y-61626148D01*
X98428953Y-61639318D01*
X98428953Y-61639318D01*
G37*
G36*
X230509840Y-61512480D02*
G01*
X230688789Y-61545080D01*
X230864805Y-61614682D01*
X230927108Y-61639318D01*
X230927109Y-61639319D01*
X230927110Y-61639319D01*
X231142463Y-61778237D01*
X231301286Y-61932014D01*
X231326579Y-61956503D01*
X231435846Y-62114451D01*
X232308813Y-63686089D01*
X232385166Y-63862320D01*
X232439213Y-64112831D01*
X232443351Y-64369072D01*
X232430019Y-64442247D01*
X232397419Y-64621196D01*
X232303180Y-64859517D01*
X232164262Y-65074870D01*
X232009707Y-65234497D01*
X231985996Y-65258986D01*
X231886688Y-65327686D01*
X231775239Y-65404785D01*
X231682379Y-65445017D01*
X231540086Y-65506667D01*
X231289575Y-65560714D01*
X231033334Y-65564852D01*
X230960159Y-65551520D01*
X230781210Y-65518920D01*
X230542889Y-65424682D01*
X230327537Y-65285763D01*
X230143423Y-65107499D01*
X230143421Y-65107497D01*
X230034154Y-64949549D01*
X229161187Y-63377910D01*
X229084834Y-63201679D01*
X229030787Y-62951168D01*
X229026649Y-62694928D01*
X229039981Y-62621753D01*
X229072581Y-62442804D01*
X229157898Y-62227047D01*
X229166819Y-62204485D01*
X229166820Y-62204483D01*
X229305738Y-61989130D01*
X229484002Y-61805016D01*
X229484004Y-61805014D01*
X229583312Y-61736314D01*
X229694761Y-61659215D01*
X229843472Y-61594785D01*
X229929914Y-61557333D01*
X230180425Y-61503286D01*
X230436665Y-61499148D01*
X230509840Y-61512480D01*
X230509840Y-61512480D01*
G37*
G36*
X60329840Y-61512480D02*
G01*
X60508789Y-61545080D01*
X60684805Y-61614682D01*
X60747108Y-61639318D01*
X60747109Y-61639319D01*
X60747110Y-61639319D01*
X60962463Y-61778237D01*
X61121286Y-61932014D01*
X61146579Y-61956503D01*
X61255846Y-62114451D01*
X62128813Y-63686089D01*
X62205166Y-63862320D01*
X62259213Y-64112831D01*
X62263351Y-64369072D01*
X62250019Y-64442247D01*
X62217419Y-64621196D01*
X62123180Y-64859517D01*
X61984262Y-65074870D01*
X61829707Y-65234497D01*
X61805996Y-65258986D01*
X61706688Y-65327686D01*
X61595239Y-65404785D01*
X61502379Y-65445017D01*
X61360086Y-65506667D01*
X61109575Y-65560714D01*
X60853334Y-65564852D01*
X60780159Y-65551520D01*
X60601210Y-65518920D01*
X60362889Y-65424682D01*
X60147537Y-65285763D01*
X59963423Y-65107499D01*
X59963421Y-65107497D01*
X59854154Y-64949549D01*
X58981187Y-63377910D01*
X58904834Y-63201679D01*
X58850787Y-62951168D01*
X58846649Y-62694928D01*
X58859981Y-62621753D01*
X58892581Y-62442804D01*
X58977898Y-62227047D01*
X58986819Y-62204485D01*
X58986820Y-62204483D01*
X59125738Y-61989130D01*
X59304002Y-61805016D01*
X59304004Y-61805014D01*
X59403312Y-61736314D01*
X59514761Y-61659215D01*
X59663472Y-61594785D01*
X59749914Y-61557333D01*
X60000425Y-61503286D01*
X60256665Y-61499148D01*
X60329840Y-61512480D01*
X60329840Y-61512480D01*
G37*
G36*
X256788228Y-62337703D02*
G01*
X256943100Y-62401853D01*
X257082481Y-62494985D01*
X257201015Y-62613519D01*
X257294147Y-62752900D01*
X257358297Y-62907772D01*
X257391000Y-63072184D01*
X257391000Y-63239816D01*
X257358297Y-63404228D01*
X257294147Y-63559100D01*
X257201015Y-63698481D01*
X257082481Y-63817015D01*
X256943100Y-63910147D01*
X256788228Y-63974297D01*
X256623816Y-64007000D01*
X256456184Y-64007000D01*
X256291772Y-63974297D01*
X256136900Y-63910147D01*
X255997519Y-63817015D01*
X255878985Y-63698481D01*
X255785853Y-63559100D01*
X255721703Y-63404228D01*
X255689000Y-63239816D01*
X255689000Y-63072184D01*
X255721703Y-62907772D01*
X255785853Y-62752900D01*
X255878985Y-62613519D01*
X255997519Y-62494985D01*
X256136900Y-62401853D01*
X256291772Y-62337703D01*
X256456184Y-62305000D01*
X256623816Y-62305000D01*
X256788228Y-62337703D01*
X256788228Y-62337703D01*
G37*
G36*
X104134228Y-62337703D02*
G01*
X104289100Y-62401853D01*
X104428481Y-62494985D01*
X104547015Y-62613519D01*
X104640147Y-62752900D01*
X104704297Y-62907772D01*
X104737000Y-63072184D01*
X104737000Y-63239816D01*
X104704297Y-63404228D01*
X104640147Y-63559100D01*
X104547015Y-63698481D01*
X104428481Y-63817015D01*
X104289100Y-63910147D01*
X104134228Y-63974297D01*
X103969816Y-64007000D01*
X103802184Y-64007000D01*
X103637772Y-63974297D01*
X103482900Y-63910147D01*
X103343519Y-63817015D01*
X103224985Y-63698481D01*
X103131853Y-63559100D01*
X103067703Y-63404228D01*
X103035000Y-63239816D01*
X103035000Y-63072184D01*
X103067703Y-62907772D01*
X103131853Y-62752900D01*
X103224985Y-62613519D01*
X103343519Y-62494985D01*
X103482900Y-62401853D01*
X103637772Y-62337703D01*
X103802184Y-62305000D01*
X103969816Y-62305000D01*
X104134228Y-62337703D01*
X104134228Y-62337703D01*
G37*
G36*
X262803521Y-60680120D02*
G01*
X263052748Y-60737545D01*
X263053251Y-60737661D01*
X263286958Y-60842816D01*
X263339398Y-60880187D01*
X263495660Y-60991544D01*
X263671335Y-61178131D01*
X263807235Y-61395405D01*
X263898135Y-61635017D01*
X263929916Y-61824429D01*
X263947591Y-62083703D01*
X263978058Y-62530606D01*
X263972276Y-62722572D01*
X263932090Y-62896983D01*
X263914735Y-62972303D01*
X263809580Y-63206010D01*
X263794715Y-63226869D01*
X263660852Y-63414712D01*
X263474265Y-63590387D01*
X263256991Y-63726287D01*
X263017379Y-63817187D01*
X262764638Y-63859594D01*
X262764634Y-63859594D01*
X262508479Y-63851880D01*
X262258753Y-63794340D01*
X262258749Y-63794339D01*
X262025042Y-63689184D01*
X261944673Y-63631910D01*
X261816340Y-63540456D01*
X261640665Y-63353869D01*
X261598499Y-63286455D01*
X261504765Y-63136595D01*
X261413865Y-62896983D01*
X261382084Y-62707571D01*
X261367858Y-62498900D01*
X261333942Y-62001392D01*
X261339724Y-61809428D01*
X261397264Y-61559701D01*
X261397265Y-61559697D01*
X261502420Y-61325990D01*
X261592925Y-61198990D01*
X261651148Y-61117288D01*
X261837735Y-60941613D01*
X261960950Y-60864545D01*
X262055009Y-60805713D01*
X262294621Y-60714813D01*
X262547362Y-60672406D01*
X262547366Y-60672406D01*
X262803521Y-60680120D01*
X262803521Y-60680120D01*
G37*
G36*
X218942228Y-62083703D02*
G01*
X219097100Y-62147853D01*
X219236481Y-62240985D01*
X219355015Y-62359519D01*
X219448147Y-62498900D01*
X219512297Y-62653772D01*
X219545000Y-62818184D01*
X219545000Y-62985816D01*
X219512297Y-63150228D01*
X219448147Y-63305100D01*
X219355015Y-63444481D01*
X219236481Y-63563015D01*
X219097100Y-63656147D01*
X218942228Y-63720297D01*
X218777816Y-63753000D01*
X218610184Y-63753000D01*
X218445772Y-63720297D01*
X218290900Y-63656147D01*
X218151519Y-63563015D01*
X218032985Y-63444481D01*
X217939853Y-63305100D01*
X217875703Y-63150228D01*
X217843000Y-62985816D01*
X217843000Y-62818184D01*
X217875703Y-62653772D01*
X217939853Y-62498900D01*
X218032985Y-62359519D01*
X218151519Y-62240985D01*
X218290900Y-62147853D01*
X218445772Y-62083703D01*
X218610184Y-62051000D01*
X218777816Y-62051000D01*
X218942228Y-62083703D01*
X218942228Y-62083703D01*
G37*
G36*
X66034228Y-62083703D02*
G01*
X66189100Y-62147853D01*
X66328481Y-62240985D01*
X66447015Y-62359519D01*
X66540147Y-62498900D01*
X66604297Y-62653772D01*
X66637000Y-62818184D01*
X66637000Y-62985816D01*
X66604297Y-63150228D01*
X66540147Y-63305100D01*
X66447015Y-63444481D01*
X66328481Y-63563015D01*
X66189100Y-63656147D01*
X66034228Y-63720297D01*
X65869816Y-63753000D01*
X65702184Y-63753000D01*
X65537772Y-63720297D01*
X65382900Y-63656147D01*
X65243519Y-63563015D01*
X65124985Y-63444481D01*
X65031853Y-63305100D01*
X64967703Y-63150228D01*
X64935000Y-62985816D01*
X64935000Y-62818184D01*
X64967703Y-62653772D01*
X65031853Y-62498900D01*
X65124985Y-62359519D01*
X65243519Y-62240985D01*
X65382900Y-62147853D01*
X65537772Y-62083703D01*
X65702184Y-62051000D01*
X65869816Y-62051000D01*
X66034228Y-62083703D01*
X66034228Y-62083703D01*
G37*
G36*
X92877521Y-60553120D02*
G01*
X93127247Y-60610660D01*
X93127251Y-60610661D01*
X93360958Y-60715816D01*
X93413398Y-60753187D01*
X93569660Y-60864544D01*
X93743815Y-61049517D01*
X93745335Y-61051131D01*
X93881235Y-61268405D01*
X93972135Y-61508017D01*
X94003916Y-61697429D01*
X94028566Y-62059014D01*
X94052058Y-62403606D01*
X94046276Y-62595572D01*
X94035352Y-62642983D01*
X93988735Y-62845303D01*
X93883580Y-63079010D01*
X93868715Y-63099869D01*
X93734852Y-63287712D01*
X93568346Y-63444480D01*
X93548265Y-63463387D01*
X93330991Y-63599287D01*
X93091379Y-63690187D01*
X92838638Y-63732594D01*
X92838634Y-63732594D01*
X92582479Y-63724880D01*
X92332753Y-63667340D01*
X92332749Y-63667339D01*
X92099042Y-63562184D01*
X92018673Y-63504910D01*
X91890340Y-63413456D01*
X91714665Y-63226869D01*
X91673285Y-63160711D01*
X91578765Y-63009595D01*
X91487865Y-62769983D01*
X91456084Y-62580571D01*
X91452677Y-62530598D01*
X91407942Y-61874392D01*
X91413724Y-61682428D01*
X91471264Y-61432701D01*
X91471265Y-61432697D01*
X91576420Y-61198990D01*
X91618780Y-61139549D01*
X91725148Y-60990288D01*
X91911735Y-60814613D01*
X91925964Y-60805713D01*
X92129009Y-60678713D01*
X92368621Y-60587813D01*
X92621362Y-60545406D01*
X92621366Y-60545406D01*
X92877521Y-60553120D01*
X92877521Y-60553120D01*
G37*
G36*
X54777521Y-60426120D02*
G01*
X55027247Y-60483660D01*
X55027251Y-60483661D01*
X55260958Y-60588816D01*
X55313398Y-60626187D01*
X55469660Y-60737544D01*
X55645335Y-60924131D01*
X55781235Y-61141405D01*
X55872135Y-61381017D01*
X55903916Y-61570429D01*
X55927284Y-61913215D01*
X55952058Y-62276606D01*
X55946276Y-62468572D01*
X55912878Y-62613520D01*
X55888735Y-62718303D01*
X55783580Y-62952010D01*
X55769121Y-62972299D01*
X55634852Y-63160712D01*
X55481495Y-63305100D01*
X55448265Y-63336387D01*
X55230991Y-63472287D01*
X54991379Y-63563187D01*
X54738638Y-63605594D01*
X54738634Y-63605594D01*
X54482479Y-63597880D01*
X54232753Y-63540340D01*
X54232749Y-63540339D01*
X53999042Y-63435184D01*
X53918673Y-63377910D01*
X53790340Y-63286456D01*
X53614665Y-63099869D01*
X53558201Y-63009595D01*
X53478765Y-62882595D01*
X53387865Y-62642983D01*
X53358601Y-62468571D01*
X53356084Y-62453572D01*
X53307942Y-61747392D01*
X53313724Y-61555428D01*
X53371264Y-61305701D01*
X53371265Y-61305697D01*
X53476420Y-61071990D01*
X53533749Y-60991544D01*
X53625148Y-60863288D01*
X53811735Y-60687613D01*
X53836048Y-60672406D01*
X54029009Y-60551713D01*
X54268621Y-60460813D01*
X54521362Y-60418406D01*
X54521366Y-60418406D01*
X54777521Y-60426120D01*
X54777521Y-60426120D01*
G37*
G36*
X224957521Y-60426120D02*
G01*
X225207247Y-60483660D01*
X225207251Y-60483661D01*
X225440958Y-60588816D01*
X225493398Y-60626187D01*
X225649660Y-60737544D01*
X225825335Y-60924131D01*
X225961235Y-61141405D01*
X226052135Y-61381017D01*
X226083916Y-61570429D01*
X226107284Y-61913215D01*
X226132058Y-62276606D01*
X226126276Y-62468572D01*
X226092878Y-62613520D01*
X226068735Y-62718303D01*
X225963580Y-62952010D01*
X225949121Y-62972299D01*
X225814852Y-63160712D01*
X225661495Y-63305100D01*
X225628265Y-63336387D01*
X225410991Y-63472287D01*
X225171379Y-63563187D01*
X224918638Y-63605594D01*
X224918634Y-63605594D01*
X224662479Y-63597880D01*
X224412753Y-63540340D01*
X224412749Y-63540339D01*
X224179042Y-63435184D01*
X224098673Y-63377910D01*
X223970340Y-63286456D01*
X223794665Y-63099869D01*
X223738201Y-63009595D01*
X223658765Y-62882595D01*
X223567865Y-62642983D01*
X223538601Y-62468571D01*
X223536084Y-62453572D01*
X223487942Y-61747392D01*
X223493724Y-61555428D01*
X223551264Y-61305701D01*
X223551265Y-61305697D01*
X223656420Y-61071990D01*
X223713749Y-60991544D01*
X223805148Y-60863288D01*
X223991735Y-60687613D01*
X224016048Y-60672406D01*
X224209009Y-60551713D01*
X224448621Y-60460813D01*
X224701362Y-60418406D01*
X224701366Y-60418406D01*
X224957521Y-60426120D01*
X224957521Y-60426120D01*
G37*
G36*
X249305840Y-57702480D02*
G01*
X249484789Y-57735080D01*
X249700546Y-57820397D01*
X249723108Y-57829318D01*
X249723109Y-57829319D01*
X249723110Y-57829319D01*
X249938463Y-57968237D01*
X250122577Y-58146501D01*
X250122579Y-58146503D01*
X250231846Y-58304451D01*
X251104813Y-59876089D01*
X251181166Y-60052320D01*
X251235213Y-60302831D01*
X251239351Y-60559072D01*
X251229952Y-60610660D01*
X251193419Y-60811196D01*
X251099180Y-61049517D01*
X250960262Y-61264870D01*
X250781998Y-61448984D01*
X250781996Y-61448986D01*
X250709485Y-61499148D01*
X250571239Y-61594785D01*
X250489299Y-61630286D01*
X250336086Y-61696667D01*
X250085575Y-61750714D01*
X249829334Y-61754852D01*
X249756159Y-61741520D01*
X249577210Y-61708920D01*
X249338889Y-61614682D01*
X249123537Y-61475763D01*
X248939423Y-61297499D01*
X248939421Y-61297497D01*
X248830154Y-61139549D01*
X247957187Y-59567910D01*
X247880834Y-59391679D01*
X247826787Y-59141168D01*
X247822649Y-58884928D01*
X247835981Y-58811753D01*
X247868581Y-58632804D01*
X247962820Y-58394483D01*
X248101738Y-58179130D01*
X248280002Y-57995016D01*
X248280004Y-57995014D01*
X248379312Y-57926314D01*
X248490761Y-57849215D01*
X248592643Y-57805074D01*
X248725914Y-57747333D01*
X248976425Y-57693286D01*
X249232665Y-57689148D01*
X249305840Y-57702480D01*
X249305840Y-57702480D01*
G37*
G36*
X79379840Y-57702480D02*
G01*
X79558789Y-57735080D01*
X79774546Y-57820397D01*
X79797108Y-57829318D01*
X79797109Y-57829319D01*
X79797110Y-57829319D01*
X80012463Y-57968237D01*
X80196577Y-58146501D01*
X80196579Y-58146503D01*
X80305846Y-58304451D01*
X81178813Y-59876089D01*
X81255166Y-60052320D01*
X81309213Y-60302831D01*
X81313351Y-60559072D01*
X81303952Y-60610660D01*
X81267419Y-60811196D01*
X81173180Y-61049517D01*
X81034262Y-61264870D01*
X80855998Y-61448984D01*
X80855996Y-61448986D01*
X80783485Y-61499148D01*
X80645239Y-61594785D01*
X80563299Y-61630286D01*
X80410086Y-61696667D01*
X80159575Y-61750714D01*
X79903334Y-61754852D01*
X79830159Y-61741520D01*
X79651210Y-61708920D01*
X79412889Y-61614682D01*
X79197537Y-61475763D01*
X79013423Y-61297499D01*
X79013421Y-61297497D01*
X78904154Y-61139549D01*
X78031187Y-59567910D01*
X77954834Y-59391679D01*
X77900787Y-59141168D01*
X77896649Y-58884928D01*
X77909981Y-58811753D01*
X77942581Y-58632804D01*
X78036820Y-58394483D01*
X78175738Y-58179130D01*
X78354002Y-57995016D01*
X78354004Y-57995014D01*
X78453312Y-57926314D01*
X78564761Y-57849215D01*
X78666643Y-57805074D01*
X78799914Y-57747333D01*
X79050425Y-57693286D01*
X79306665Y-57689148D01*
X79379840Y-57702480D01*
X79379840Y-57702480D01*
G37*
G36*
X237738228Y-58273703D02*
G01*
X237893100Y-58337853D01*
X238032481Y-58430985D01*
X238151015Y-58549519D01*
X238244147Y-58688900D01*
X238308297Y-58843772D01*
X238341000Y-59008184D01*
X238341000Y-59175816D01*
X238308297Y-59340228D01*
X238244147Y-59495100D01*
X238151015Y-59634481D01*
X238032481Y-59753015D01*
X237893100Y-59846147D01*
X237738228Y-59910297D01*
X237573816Y-59943000D01*
X237406184Y-59943000D01*
X237241772Y-59910297D01*
X237086900Y-59846147D01*
X236947519Y-59753015D01*
X236828985Y-59634481D01*
X236735853Y-59495100D01*
X236671703Y-59340228D01*
X236639000Y-59175816D01*
X236639000Y-59008184D01*
X236671703Y-58843772D01*
X236735853Y-58688900D01*
X236828985Y-58549519D01*
X236947519Y-58430985D01*
X237086900Y-58337853D01*
X237241772Y-58273703D01*
X237406184Y-58241000D01*
X237573816Y-58241000D01*
X237738228Y-58273703D01*
X237738228Y-58273703D01*
G37*
G36*
X85084228Y-58273703D02*
G01*
X85239100Y-58337853D01*
X85378481Y-58430985D01*
X85497015Y-58549519D01*
X85590147Y-58688900D01*
X85654297Y-58843772D01*
X85687000Y-59008184D01*
X85687000Y-59175816D01*
X85654297Y-59340228D01*
X85590147Y-59495100D01*
X85497015Y-59634481D01*
X85378481Y-59753015D01*
X85239100Y-59846147D01*
X85084228Y-59910297D01*
X84919816Y-59943000D01*
X84752184Y-59943000D01*
X84587772Y-59910297D01*
X84432900Y-59846147D01*
X84293519Y-59753015D01*
X84174985Y-59634481D01*
X84081853Y-59495100D01*
X84017703Y-59340228D01*
X83985000Y-59175816D01*
X83985000Y-59008184D01*
X84017703Y-58843772D01*
X84081853Y-58688900D01*
X84174985Y-58549519D01*
X84293519Y-58430985D01*
X84432900Y-58337853D01*
X84587772Y-58273703D01*
X84752184Y-58241000D01*
X84919816Y-58241000D01*
X85084228Y-58273703D01*
X85084228Y-58273703D01*
G37*
G36*
X243753521Y-56616120D02*
G01*
X244003247Y-56673660D01*
X244003251Y-56673661D01*
X244236958Y-56778816D01*
X244289398Y-56816187D01*
X244445660Y-56927544D01*
X244564050Y-57053288D01*
X244621335Y-57114131D01*
X244757235Y-57331405D01*
X244848135Y-57571017D01*
X244879916Y-57760429D01*
X244895908Y-57995014D01*
X244928058Y-58466606D01*
X244923052Y-58632804D01*
X244922276Y-58658571D01*
X244864735Y-58908303D01*
X244759580Y-59142010D01*
X244735489Y-59175815D01*
X244610852Y-59350712D01*
X244457495Y-59495100D01*
X244424265Y-59526387D01*
X244206991Y-59662287D01*
X243967379Y-59753187D01*
X243714638Y-59795594D01*
X243714634Y-59795594D01*
X243458479Y-59787880D01*
X243208753Y-59730340D01*
X243208749Y-59730339D01*
X242975042Y-59625184D01*
X242894673Y-59567910D01*
X242766340Y-59476456D01*
X242590665Y-59289869D01*
X242454765Y-59072595D01*
X242363865Y-58832983D01*
X242332084Y-58643571D01*
X242320019Y-58466598D01*
X242283942Y-57937392D01*
X242289724Y-57745428D01*
X242347264Y-57495701D01*
X242347265Y-57495697D01*
X242452420Y-57261990D01*
X242489791Y-57209550D01*
X242601148Y-57053288D01*
X242787735Y-56877613D01*
X243005009Y-56741713D01*
X243244621Y-56650813D01*
X243497362Y-56608406D01*
X243497366Y-56608406D01*
X243753521Y-56616120D01*
X243753521Y-56616120D01*
G37*
G36*
X73827521Y-56616120D02*
G01*
X74077247Y-56673660D01*
X74077251Y-56673661D01*
X74310958Y-56778816D01*
X74363398Y-56816187D01*
X74519660Y-56927544D01*
X74638050Y-57053288D01*
X74695335Y-57114131D01*
X74831235Y-57331405D01*
X74922135Y-57571017D01*
X74953916Y-57760429D01*
X74969908Y-57995014D01*
X75002058Y-58466606D01*
X74997052Y-58632804D01*
X74996276Y-58658571D01*
X74938735Y-58908303D01*
X74833580Y-59142010D01*
X74809489Y-59175815D01*
X74684852Y-59350712D01*
X74531495Y-59495100D01*
X74498265Y-59526387D01*
X74280991Y-59662287D01*
X74041379Y-59753187D01*
X73788638Y-59795594D01*
X73788634Y-59795594D01*
X73532479Y-59787880D01*
X73282753Y-59730340D01*
X73282749Y-59730339D01*
X73049042Y-59625184D01*
X72968673Y-59567910D01*
X72840340Y-59476456D01*
X72664665Y-59289869D01*
X72528765Y-59072595D01*
X72437865Y-58832983D01*
X72406084Y-58643571D01*
X72394019Y-58466598D01*
X72357942Y-57937392D01*
X72363724Y-57745428D01*
X72421264Y-57495701D01*
X72421265Y-57495697D01*
X72526420Y-57261990D01*
X72563791Y-57209550D01*
X72675148Y-57053288D01*
X72861735Y-56877613D01*
X73079009Y-56741713D01*
X73318621Y-56650813D01*
X73571362Y-56608406D01*
X73571366Y-56608406D01*
X73827521Y-56616120D01*
X73827521Y-56616120D01*
G37*
M02*
