G04 #@! TF.GenerationSoftware,KiCad,Pcbnew,5.1.5*
G04 #@! TF.CreationDate,2020-03-09T20:34:47+00:00*
G04 #@! TF.ProjectId,pcb,7063622e-6b69-4636-9164-5f7063625858,rev?*
G04 #@! TF.SameCoordinates,Original*
G04 #@! TF.FileFunction,Profile,NP*
%FSLAX46Y46*%
G04 Gerber Fmt 4.6, Leading zero omitted, Abs format (unit mm)*
G04 Created by KiCad (PCBNEW 5.1.5) date 2020-03-09 20:34:47*
%MOMM*%
%LPD*%
G04 APERTURE LIST*
%ADD10C,0.200000*%
G04 APERTURE END LIST*
D10*
X137200889Y-36178812D02*
X137200889Y-132121186D01*
X97229702Y-122149999D02*
G75*
G03X88200889Y-113121186I-9028813J0D01*
G01*
X-7799112Y-36178812D02*
X16200890Y-36178812D01*
X88200889Y-113121186D02*
X68200889Y-113121186D01*
X-7799112Y-36178813D02*
G75*
G03X-12770298Y-41149999I0J-4971186D01*
G01*
X-12770298Y-93149998D02*
X-12770298Y-41149999D01*
X22551776Y-98121186D02*
X-7799111Y-98121186D01*
X28850000Y-28178813D02*
G75*
G03X24358493Y-31019491I0J-4971187D01*
G01*
X84043286Y-31019491D02*
G75*
G03X79551778Y-28178812I-4491508J-2130509D01*
G01*
X63229702Y-99149999D02*
G75*
G03X54200889Y-90121186I-9028813J0D01*
G01*
X16200889Y-36178811D02*
G75*
G03X24358493Y-31019491I1J9028812D01*
G01*
X54200889Y-90121186D02*
X35200887Y-90121186D01*
X28850000Y-28178812D02*
X79551778Y-28178812D01*
X137200889Y-132121186D02*
X102200889Y-132121186D01*
X22551777Y-98121187D02*
G75*
G03X27043284Y-95280507I-1J4971188D01*
G01*
X97229701Y-127149999D02*
X97229701Y-122149999D01*
X63229702Y-108149999D02*
G75*
G03X68200889Y-113121186I4971187J0D01*
G01*
X63229701Y-108149999D02*
X63229701Y-99149999D01*
X97229702Y-127149999D02*
G75*
G03X102200889Y-132121186I4971187J0D01*
G01*
X92200889Y-36178812D02*
X137200889Y-36178812D01*
X84043286Y-31019491D02*
G75*
G03X92200889Y-36178812I8157603J3869491D01*
G01*
X35200888Y-90121187D02*
G75*
G03X27043284Y-95280507I-1J-9028812D01*
G01*
X-12770300Y-93149999D02*
G75*
G03X-7799111Y-98121186I4971188J1D01*
G01*
X108700889Y-103149999D02*
G75*
G03X108700889Y-103149999I-1500000J0D01*
G01*
X36700890Y-31650000D02*
G75*
G03X36700890Y-31650000I-1500000J0D01*
G01*
X108700889Y-46149999D02*
G75*
G03X108700889Y-46149999I-1500000J0D01*
G01*
X17700889Y-94649999D02*
G75*
G03X17700889Y-94649999I-1500000J0D01*
G01*
X177220298Y-122149999D02*
G75*
G02X186249111Y-113121186I9028813J0D01*
G01*
X282249112Y-36178812D02*
X258249110Y-36178812D01*
X186249111Y-113121186D02*
X206249111Y-113121186D01*
X282249112Y-36178813D02*
G75*
G02X287220298Y-41149999I0J-4971186D01*
G01*
X287220298Y-93149998D02*
X287220298Y-41149999D01*
X137249111Y-36178812D02*
X137249111Y-132121186D01*
X251898224Y-98121186D02*
X282249111Y-98121186D01*
X245600000Y-28178813D02*
G75*
G02X250091507Y-31019491I0J-4971187D01*
G01*
X190406714Y-31019491D02*
G75*
G02X194898222Y-28178812I4491508J-2130509D01*
G01*
X211220298Y-99149999D02*
G75*
G02X220249111Y-90121186I9028813J0D01*
G01*
X258249111Y-36178811D02*
G75*
G02X250091507Y-31019491I-1J9028812D01*
G01*
X220249111Y-90121186D02*
X239249113Y-90121186D01*
X245600000Y-28178812D02*
X194898222Y-28178812D01*
X137249111Y-132121186D02*
X172249111Y-132121186D01*
X251898223Y-98121187D02*
G75*
G02X247406716Y-95280507I1J4971188D01*
G01*
X177220299Y-127149999D02*
X177220299Y-122149999D01*
X211220298Y-108149999D02*
G75*
G02X206249111Y-113121186I-4971187J0D01*
G01*
X211220299Y-108149999D02*
X211220299Y-99149999D01*
X177220298Y-127149999D02*
G75*
G02X172249111Y-132121186I-4971187J0D01*
G01*
X182249111Y-36178812D02*
X137249111Y-36178812D01*
X190406714Y-31019491D02*
G75*
G02X182249111Y-36178812I-8157603J3869491D01*
G01*
X239249112Y-90121187D02*
G75*
G02X247406716Y-95280507I1J-9028812D01*
G01*
X287220300Y-93149999D02*
G75*
G02X282249111Y-98121186I-4971188J1D01*
G01*
X168749111Y-103149999D02*
G75*
G03X168749111Y-103149999I-1500000J0D01*
G01*
X240749110Y-31650000D02*
G75*
G03X240749110Y-31650000I-1500000J0D01*
G01*
X168749111Y-46149999D02*
G75*
G03X168749111Y-46149999I-1500000J0D01*
G01*
X259749111Y-94649999D02*
G75*
G03X259749111Y-94649999I-1500000J0D01*
G01*
M02*
