G04 #@! TF.GenerationSoftware,KiCad,Pcbnew,5.1.5*
G04 #@! TF.CreationDate,2020-04-04T10:10:50+02:00*
G04 #@! TF.ProjectId,pcb,7063622e-6b69-4636-9164-5f7063625858,rev?*
G04 #@! TF.SameCoordinates,Original*
G04 #@! TF.FileFunction,Copper,L2,Bot*
G04 #@! TF.FilePolarity,Positive*
%FSLAX46Y46*%
G04 Gerber Fmt 4.6, Leading zero omitted, Abs format (unit mm)*
G04 Created by KiCad (PCBNEW 5.1.5) date 2020-04-04 10:10:50*
%MOMM*%
%LPD*%
G04 APERTURE LIST*
%ADD10R,1.700000X1.300000*%
%ADD11R,1.700000X1.700000*%
%ADD12R,2.550000X2.500000*%
%ADD13C,2.286000*%
%ADD14R,1.000000X1.000000*%
%ADD15O,1.600000X1.600000*%
%ADD16R,1.600000X1.600000*%
%ADD17C,1.700000*%
%ADD18C,2.200000*%
%ADD19C,1.600000*%
%ADD20C,1.524000*%
%ADD21C,0.800000*%
%ADD22C,0.250000*%
G04 APERTURE END LIST*
D10*
X146650000Y-131250000D03*
X146650000Y-129550000D03*
X146650000Y-127050000D03*
X146650000Y-120650000D03*
D11*
X152150000Y-119250000D03*
D12*
X80710000Y-101690000D03*
D13*
X69340000Y-96610000D03*
X75690000Y-94070000D03*
D12*
X66860000Y-104230000D03*
X99810000Y-86690000D03*
D13*
X88440000Y-81610000D03*
X94790000Y-79070000D03*
D12*
X85960000Y-89230000D03*
D14*
X163250000Y-115950000D03*
X165750000Y-115950000D03*
D15*
X154880000Y-88750000D03*
X162500000Y-55730000D03*
X154880000Y-86210000D03*
X162500000Y-58270000D03*
X154880000Y-83670000D03*
X162500000Y-60810000D03*
X154880000Y-81130000D03*
X162500000Y-63350000D03*
X154880000Y-78590000D03*
X162500000Y-65890000D03*
X154880000Y-76050000D03*
X162500000Y-68430000D03*
X154880000Y-73510000D03*
X162500000Y-70970000D03*
X154880000Y-70970000D03*
X162500000Y-73510000D03*
X154880000Y-68430000D03*
X162500000Y-76050000D03*
X154880000Y-65890000D03*
X162500000Y-78590000D03*
X154880000Y-63350000D03*
X162500000Y-81130000D03*
X154880000Y-60810000D03*
X162500000Y-83670000D03*
X154880000Y-58270000D03*
X162500000Y-86210000D03*
X154880000Y-55730000D03*
D16*
X162500000Y-88750000D03*
D14*
X-9000000Y-44000000D03*
X-6500000Y-44000000D03*
X10000000Y-40000000D03*
X12500000Y-40000000D03*
X29000000Y-36000000D03*
X31500000Y-36000000D03*
X48000000Y-32000000D03*
X50500000Y-32000000D03*
X67000000Y-36000000D03*
X69500000Y-36000000D03*
X86000000Y-40000000D03*
X88500000Y-40000000D03*
X-9000000Y-63000000D03*
X-6500000Y-63000000D03*
X10000000Y-59000000D03*
X12500000Y-59000000D03*
X29000000Y-55000000D03*
X31500000Y-55000000D03*
X48000000Y-51000000D03*
X50500000Y-51000000D03*
X67000000Y-55000000D03*
X69500000Y-55000000D03*
X86000000Y-59000000D03*
X88500000Y-59000000D03*
X-9000000Y-82000000D03*
X-6500000Y-82000000D03*
X10000000Y-78000000D03*
X12500000Y-78000000D03*
X29000000Y-74000000D03*
X31500000Y-74000000D03*
X48000000Y-70000000D03*
X50500000Y-70000000D03*
X67000000Y-74000000D03*
X69500000Y-74000000D03*
X86000000Y-78000000D03*
X88500000Y-78000000D03*
X67000000Y-93000000D03*
X69500000Y-93000000D03*
X86000000Y-97000000D03*
X88500000Y-97000000D03*
X101000000Y-116000000D03*
X103500000Y-116000000D03*
X178250000Y-39950000D03*
X180750000Y-39950000D03*
X197000000Y-35950000D03*
X199500000Y-35950000D03*
X216250000Y-31950000D03*
X218750000Y-31950000D03*
X235000000Y-35950000D03*
X237500000Y-35950000D03*
X254000000Y-39950000D03*
X256500000Y-39950000D03*
X273000000Y-43950000D03*
X275500000Y-43950000D03*
X178250000Y-58950000D03*
X180750000Y-58950000D03*
X197000000Y-54950000D03*
X199500000Y-54950000D03*
X216000000Y-50950000D03*
X218500000Y-50950000D03*
X235250000Y-54950000D03*
X237750000Y-54950000D03*
X254000000Y-58950000D03*
X256500000Y-58950000D03*
X273250000Y-62950000D03*
X275750000Y-62950000D03*
X178250000Y-77950000D03*
X180750000Y-77950000D03*
X197250000Y-73950000D03*
X199750000Y-73950000D03*
X216000000Y-69950000D03*
X218500000Y-69950000D03*
X235000000Y-73950000D03*
X237500000Y-73950000D03*
X254000000Y-77950000D03*
X256500000Y-77950000D03*
X273250000Y-81950000D03*
X275750000Y-81950000D03*
X178000000Y-96950000D03*
X180500000Y-96950000D03*
X197250000Y-92950000D03*
X199750000Y-92950000D03*
D17*
X129615000Y-40750000D03*
X114400000Y-43290000D03*
D18*
X129005000Y-37925200D03*
X115009600Y-37925200D03*
D17*
X114400000Y-40750000D03*
X116940000Y-45830000D03*
X114400000Y-45830000D03*
X114400000Y-48370000D03*
X114400000Y-50910000D03*
X114400000Y-53450000D03*
X119480000Y-45830000D03*
X122020000Y-45830000D03*
X114400000Y-55990000D03*
X114400000Y-58530000D03*
X114400000Y-61070000D03*
X114400000Y-63610000D03*
X114400000Y-66150000D03*
X114400000Y-68690000D03*
X129615000Y-43290000D03*
X129615000Y-45830000D03*
X129615000Y-50910000D03*
X127075000Y-45830000D03*
X129615000Y-48370000D03*
X129615000Y-53450000D03*
X129615000Y-55990000D03*
X129615000Y-58530000D03*
X129615000Y-63610000D03*
X129615000Y-66150000D03*
X129615000Y-61070000D03*
X129615000Y-68690000D03*
D10*
X121650000Y-131250000D03*
X121650000Y-129550000D03*
X121650000Y-127050000D03*
X121650000Y-120650000D03*
D11*
X127150000Y-119250000D03*
D12*
X28960000Y-66230000D03*
D13*
X37790000Y-56070000D03*
X31440000Y-58610000D03*
D12*
X42810000Y-63690000D03*
X4710000Y-52690000D03*
D13*
X-6660000Y-47610000D03*
X-310000Y-45070000D03*
D12*
X-9140000Y-55230000D03*
X23710000Y-48690000D03*
D13*
X12340000Y-43610000D03*
X18690000Y-41070000D03*
D12*
X9860000Y-51230000D03*
X28960000Y-47230000D03*
D13*
X37790000Y-37070000D03*
X31440000Y-39610000D03*
D12*
X42810000Y-44690000D03*
X61810000Y-40690000D03*
D13*
X50440000Y-35610000D03*
X56790000Y-33070000D03*
D12*
X47960000Y-43230000D03*
X66870000Y-47170000D03*
D13*
X75700000Y-37010000D03*
X69350000Y-39550000D03*
D12*
X80720000Y-44630000D03*
X85960000Y-51230000D03*
D13*
X94790000Y-41070000D03*
X88440000Y-43610000D03*
D12*
X99810000Y-48690000D03*
X4710000Y-71690000D03*
D13*
X-6660000Y-66610000D03*
X-310000Y-64070000D03*
D12*
X-9140000Y-74230000D03*
X23710000Y-67690000D03*
D13*
X12340000Y-62610000D03*
X18690000Y-60070000D03*
D12*
X9860000Y-70230000D03*
X61810000Y-59690000D03*
D13*
X50440000Y-54610000D03*
X56790000Y-52070000D03*
D12*
X47960000Y-62230000D03*
X66960000Y-66230000D03*
D13*
X75790000Y-56070000D03*
X69440000Y-58610000D03*
D12*
X80810000Y-63690000D03*
X99810000Y-67690000D03*
D13*
X88440000Y-62610000D03*
X94790000Y-60070000D03*
D12*
X85960000Y-70230000D03*
X-9040000Y-93230000D03*
D13*
X-210000Y-83070000D03*
X-6560000Y-85610000D03*
D12*
X4810000Y-90690000D03*
X23810000Y-86690000D03*
D13*
X12440000Y-81610000D03*
X18790000Y-79070000D03*
D12*
X9960000Y-89230000D03*
X28960000Y-85230000D03*
D13*
X37790000Y-75070000D03*
X31440000Y-77610000D03*
D12*
X42810000Y-82690000D03*
X47860000Y-81230000D03*
D13*
X56690000Y-71070000D03*
X50340000Y-73610000D03*
D12*
X61710000Y-78690000D03*
X66960000Y-85230000D03*
D13*
X75790000Y-75070000D03*
X69440000Y-77610000D03*
D12*
X80810000Y-82690000D03*
X85860000Y-108230000D03*
D13*
X94690000Y-98070000D03*
X88340000Y-100610000D03*
D12*
X99710000Y-105690000D03*
X114810000Y-124690000D03*
D13*
X103440000Y-119610000D03*
X109790000Y-117070000D03*
D12*
X100960000Y-127230000D03*
X192000000Y-48550000D03*
D13*
X180630000Y-43470000D03*
X186980000Y-40930000D03*
D12*
X178150000Y-51090000D03*
X196960000Y-47230000D03*
D13*
X205790000Y-37070000D03*
X199440000Y-39610000D03*
D12*
X210810000Y-44690000D03*
X229910000Y-40690000D03*
D13*
X218540000Y-35610000D03*
X224890000Y-33070000D03*
D12*
X216060000Y-43230000D03*
X234960000Y-47130000D03*
D13*
X243790000Y-36970000D03*
X237440000Y-39510000D03*
D12*
X248810000Y-44590000D03*
X267800000Y-48650000D03*
D13*
X256430000Y-43570000D03*
X262780000Y-41030000D03*
D12*
X253950000Y-51190000D03*
X272960000Y-55230000D03*
D13*
X281790000Y-45070000D03*
X275440000Y-47610000D03*
D12*
X286810000Y-52690000D03*
X191910000Y-67690000D03*
D13*
X180540000Y-62610000D03*
X186890000Y-60070000D03*
D12*
X178060000Y-70230000D03*
X196960000Y-66230000D03*
D13*
X205790000Y-56070000D03*
X199440000Y-58610000D03*
D12*
X210810000Y-63690000D03*
X229810000Y-59790000D03*
D13*
X218440000Y-54710000D03*
X224790000Y-52170000D03*
D12*
X215960000Y-62330000D03*
X235060000Y-66130000D03*
D13*
X243890000Y-55970000D03*
X237540000Y-58510000D03*
D12*
X248910000Y-63590000D03*
X267810000Y-67690000D03*
D13*
X256440000Y-62610000D03*
X262790000Y-60070000D03*
D12*
X253960000Y-70230000D03*
X273060000Y-74230000D03*
D13*
X281890000Y-64070000D03*
X275540000Y-66610000D03*
D12*
X286910000Y-71690000D03*
X191910000Y-86690000D03*
D13*
X180540000Y-81610000D03*
X186890000Y-79070000D03*
D12*
X178060000Y-89230000D03*
X197060000Y-85230000D03*
D13*
X205890000Y-75070000D03*
X199540000Y-77610000D03*
D12*
X210910000Y-82690000D03*
X229810000Y-78590000D03*
D13*
X218440000Y-73510000D03*
X224790000Y-70970000D03*
D12*
X215960000Y-81130000D03*
X234960000Y-85230000D03*
D13*
X243790000Y-75070000D03*
X237440000Y-77610000D03*
D12*
X248810000Y-82690000D03*
X267810000Y-86690000D03*
D13*
X256440000Y-81610000D03*
X262790000Y-79070000D03*
D12*
X253960000Y-89230000D03*
X273060000Y-93230000D03*
D13*
X281890000Y-83070000D03*
X275540000Y-85610000D03*
D12*
X286910000Y-90690000D03*
X163060000Y-127230000D03*
D13*
X171890000Y-117070000D03*
X165540000Y-119610000D03*
D12*
X176910000Y-124690000D03*
X191810000Y-105690000D03*
D13*
X180440000Y-100610000D03*
X186790000Y-98070000D03*
D12*
X177960000Y-108230000D03*
X197060000Y-104130000D03*
D13*
X205890000Y-93970000D03*
X199540000Y-96510000D03*
D12*
X210910000Y-101590000D03*
D19*
X163000000Y-105250000D03*
D15*
X155380000Y-105250000D03*
D19*
X163000000Y-101500000D03*
D15*
X155380000Y-101500000D03*
X162870000Y-97750000D03*
D19*
X155250000Y-97750000D03*
D20*
X131950000Y-100150000D03*
X131950000Y-102690000D03*
X131950000Y-105230000D03*
X131950000Y-107770000D03*
X143250000Y-107750000D03*
X143250000Y-105210000D03*
X143250000Y-102670000D03*
X143250000Y-100130000D03*
D21*
X148750000Y-104500000D03*
X159250000Y-88750000D03*
X158250000Y-88750000D03*
X104750000Y-72000000D03*
X116250000Y-95750000D03*
X104750000Y-75500000D03*
X112750000Y-95750000D03*
X105250000Y-70000000D03*
X106000000Y-74500000D03*
X116250000Y-94250000D03*
X112750000Y-94250000D03*
X106250000Y-62500000D03*
X106250000Y-65000000D03*
X106500000Y-69000000D03*
X107250000Y-74250000D03*
X112750000Y-92750000D03*
X116250000Y-92750000D03*
X112750000Y-97250000D03*
X116250000Y-97250000D03*
X77250000Y-90775000D03*
X105000000Y-114000000D03*
X173250000Y-96750000D03*
X172000000Y-86750000D03*
X171750000Y-97250000D03*
X169750000Y-83750000D03*
X169000000Y-78500000D03*
X182000000Y-57000000D03*
X178250000Y-57000000D03*
D22*
X-10665000Y-55230000D02*
X-9140000Y-55230000D01*
X-10750000Y-55145000D02*
X-10665000Y-55230000D01*
X-10750000Y-48750000D02*
X-10750000Y-55145000D01*
X-9610000Y-47610000D02*
X-10750000Y-48750000D01*
X-6660000Y-47610000D02*
X-9610000Y-47610000D01*
X-10750000Y-45000000D02*
X-10750000Y-48750000D01*
X-9750000Y-44000000D02*
X-10750000Y-45000000D01*
X-9000000Y-44000000D02*
X-9750000Y-44000000D01*
X-5750000Y-44000000D02*
X-4000000Y-42250000D01*
X-6500000Y-44000000D02*
X-5750000Y-44000000D01*
X-4000000Y-42250000D02*
X5500000Y-42250000D01*
X5500000Y-42250000D02*
X9000000Y-38750000D01*
X24250000Y-38750000D02*
X28250000Y-34750000D01*
X43500000Y-34750000D02*
X47500000Y-30750000D01*
X62500000Y-30750000D02*
X66250000Y-34500000D01*
X81500000Y-34500000D02*
X85750000Y-38750000D01*
X12500000Y-40000000D02*
X16000000Y-40000000D01*
X16000000Y-40000000D02*
X17250000Y-38750000D01*
X9000000Y-38750000D02*
X17250000Y-38750000D01*
X17250000Y-38750000D02*
X24250000Y-38750000D01*
X31500000Y-36000000D02*
X35000000Y-36000000D01*
X28250000Y-34750000D02*
X36250000Y-34750000D01*
X35000000Y-36000000D02*
X36250000Y-34750000D01*
X36250000Y-34750000D02*
X43500000Y-34750000D01*
X54500000Y-32000000D02*
X55750000Y-30750000D01*
X50500000Y-32000000D02*
X54500000Y-32000000D01*
X47500000Y-30750000D02*
X55750000Y-30750000D01*
X55750000Y-30750000D02*
X62500000Y-30750000D01*
X69500000Y-36000000D02*
X72750000Y-36000000D01*
X66250000Y-34500000D02*
X74250000Y-34500000D01*
X72750000Y-36000000D02*
X74250000Y-34500000D01*
X74250000Y-34500000D02*
X81500000Y-34500000D01*
X88500000Y-40000000D02*
X91750000Y-40000000D01*
X91750000Y-40000000D02*
X93000000Y-38750000D01*
X85750000Y-38750000D02*
X93000000Y-38750000D01*
X93000000Y-38750000D02*
X100000000Y-38750000D01*
X100000000Y-38750000D02*
X104250000Y-43000000D01*
X104250000Y-43000000D02*
X104250000Y-56000000D01*
X109320000Y-61070000D02*
X114400000Y-61070000D01*
X104250000Y-56000000D02*
X109320000Y-61070000D01*
X8335000Y-51230000D02*
X9860000Y-51230000D01*
X8000000Y-45000000D02*
X8000000Y-50895000D01*
X9390000Y-43610000D02*
X8000000Y-45000000D01*
X8000000Y-50895000D02*
X8335000Y-51230000D01*
X12340000Y-43610000D02*
X9390000Y-43610000D01*
X8000000Y-41250000D02*
X8000000Y-45000000D01*
X9250000Y-40000000D02*
X8000000Y-41250000D01*
X10000000Y-40000000D02*
X9250000Y-40000000D01*
X27250000Y-47045000D02*
X27435000Y-47230000D01*
X27435000Y-47230000D02*
X28960000Y-47230000D01*
X27250000Y-40750000D02*
X27250000Y-47045000D01*
X28390000Y-39610000D02*
X27250000Y-40750000D01*
X31440000Y-39610000D02*
X28390000Y-39610000D01*
X27250000Y-37000000D02*
X27250000Y-40750000D01*
X28250000Y-36000000D02*
X27250000Y-37000000D01*
X29000000Y-36000000D02*
X28250000Y-36000000D01*
X46435000Y-43230000D02*
X47960000Y-43230000D01*
X46250000Y-36750000D02*
X46250000Y-43045000D01*
X47390000Y-35610000D02*
X46250000Y-36750000D01*
X46250000Y-43045000D02*
X46435000Y-43230000D01*
X50440000Y-35610000D02*
X47390000Y-35610000D01*
X47250000Y-32000000D02*
X46250000Y-33000000D01*
X46250000Y-33000000D02*
X46250000Y-36750000D01*
X48000000Y-32000000D02*
X47250000Y-32000000D01*
X65345000Y-47170000D02*
X66870000Y-47170000D01*
X65250000Y-47075000D02*
X65345000Y-47170000D01*
X66450000Y-39550000D02*
X65250000Y-40750000D01*
X69350000Y-39550000D02*
X66450000Y-39550000D01*
X65250000Y-37000000D02*
X65250000Y-41000000D01*
X66250000Y-36000000D02*
X65250000Y-37000000D01*
X67000000Y-36000000D02*
X66250000Y-36000000D01*
X65250000Y-40750000D02*
X65250000Y-41000000D01*
X65250000Y-41000000D02*
X65250000Y-47075000D01*
X84250000Y-51045000D02*
X84435000Y-51230000D01*
X84250000Y-44750000D02*
X84250000Y-51045000D01*
X85390000Y-43610000D02*
X84250000Y-44750000D01*
X84435000Y-51230000D02*
X85960000Y-51230000D01*
X88440000Y-43610000D02*
X85390000Y-43610000D01*
X84250000Y-41000000D02*
X84250000Y-44750000D01*
X85250000Y-40000000D02*
X84250000Y-41000000D01*
X86000000Y-40000000D02*
X85250000Y-40000000D01*
X-10665000Y-74230000D02*
X-9140000Y-74230000D01*
X-10750000Y-74145000D02*
X-10665000Y-74230000D01*
X-10750000Y-67750000D02*
X-10750000Y-74145000D01*
X-9610000Y-66610000D02*
X-10750000Y-67750000D01*
X-6660000Y-66610000D02*
X-9610000Y-66610000D01*
X-10750000Y-64000000D02*
X-10750000Y-67750000D01*
X-9750000Y-63000000D02*
X-10750000Y-64000000D01*
X-9000000Y-63000000D02*
X-9750000Y-63000000D01*
X-5750000Y-63000000D02*
X-4000000Y-61250000D01*
X-6500000Y-63000000D02*
X-5750000Y-63000000D01*
X-4000000Y-61250000D02*
X5750000Y-61250000D01*
X5750000Y-61250000D02*
X9500000Y-57500000D01*
X24500000Y-57500000D02*
X28500000Y-53500000D01*
X43750000Y-53500000D02*
X47750000Y-49500000D01*
X62250000Y-49500000D02*
X66250000Y-53500000D01*
X80750000Y-53500000D02*
X84750000Y-57500000D01*
X12500000Y-59000000D02*
X15250000Y-59000000D01*
X15250000Y-59000000D02*
X16750000Y-57500000D01*
X9500000Y-57500000D02*
X16750000Y-57500000D01*
X16750000Y-57500000D02*
X24500000Y-57500000D01*
X31500000Y-55000000D02*
X35250000Y-55000000D01*
X28500000Y-53500000D02*
X36750000Y-53500000D01*
X35250000Y-55000000D02*
X36750000Y-53500000D01*
X36750000Y-53500000D02*
X43750000Y-53500000D01*
X53500000Y-51000000D02*
X55000000Y-49500000D01*
X50500000Y-51000000D02*
X53500000Y-51000000D01*
X47750000Y-49500000D02*
X55000000Y-49500000D01*
X55000000Y-49500000D02*
X62250000Y-49500000D01*
X72750000Y-55000000D02*
X74250000Y-53500000D01*
X69500000Y-55000000D02*
X72750000Y-55000000D01*
X66250000Y-53500000D02*
X74250000Y-53500000D01*
X74250000Y-53500000D02*
X80750000Y-53500000D01*
X88500000Y-59000000D02*
X90750000Y-59000000D01*
X90750000Y-59000000D02*
X92250000Y-57500000D01*
X84750000Y-57500000D02*
X92250000Y-57500000D01*
X105860000Y-63610000D02*
X99750000Y-57500000D01*
X114400000Y-63610000D02*
X105860000Y-63610000D01*
X92250000Y-57500000D02*
X99750000Y-57500000D01*
X8250000Y-70145000D02*
X8335000Y-70230000D01*
X8335000Y-70230000D02*
X9860000Y-70230000D01*
X8250000Y-63750000D02*
X8250000Y-70145000D01*
X9390000Y-62610000D02*
X8250000Y-63750000D01*
X12340000Y-62610000D02*
X9390000Y-62610000D01*
X8250000Y-60000000D02*
X8250000Y-63750000D01*
X9250000Y-59000000D02*
X8250000Y-60000000D01*
X10000000Y-59000000D02*
X9250000Y-59000000D01*
X27435000Y-66230000D02*
X28960000Y-66230000D01*
X27250000Y-66045000D02*
X27435000Y-66230000D01*
X27250000Y-59750000D02*
X27250000Y-66045000D01*
X28390000Y-58610000D02*
X27250000Y-59750000D01*
X31440000Y-58610000D02*
X28390000Y-58610000D01*
X27250000Y-56000000D02*
X27250000Y-59750000D01*
X28250000Y-55000000D02*
X27250000Y-56000000D01*
X29000000Y-55000000D02*
X28250000Y-55000000D01*
X46250000Y-55750000D02*
X46250000Y-62045000D01*
X46435000Y-62230000D02*
X47960000Y-62230000D01*
X46250000Y-62045000D02*
X46435000Y-62230000D01*
X50440000Y-54610000D02*
X47390000Y-54610000D01*
X47390000Y-54610000D02*
X46250000Y-55750000D01*
X46250000Y-52000000D02*
X46250000Y-55750000D01*
X47250000Y-51000000D02*
X46250000Y-52000000D01*
X48000000Y-51000000D02*
X47250000Y-51000000D01*
X65250000Y-66045000D02*
X65435000Y-66230000D01*
X65250000Y-59750000D02*
X65250000Y-66045000D01*
X66390000Y-58610000D02*
X65250000Y-59750000D01*
X65435000Y-66230000D02*
X66960000Y-66230000D01*
X69440000Y-58610000D02*
X66390000Y-58610000D01*
X65250000Y-56000000D02*
X65250000Y-59750000D01*
X66250000Y-55000000D02*
X65250000Y-56000000D01*
X67000000Y-55000000D02*
X66250000Y-55000000D01*
X84435000Y-70230000D02*
X85960000Y-70230000D01*
X84250000Y-70045000D02*
X84435000Y-70230000D01*
X84250000Y-63500000D02*
X84250000Y-70045000D01*
X85250000Y-62500000D02*
X84250000Y-63500000D01*
X88440000Y-62610000D02*
X85250000Y-62500000D01*
X84250000Y-60000000D02*
X84250000Y-63500000D01*
X85250000Y-59000000D02*
X84250000Y-60000000D01*
X86000000Y-59000000D02*
X85250000Y-59000000D01*
X-9360000Y-85610000D02*
X-6560000Y-85610000D01*
X-10750000Y-87000000D02*
X-9360000Y-85610000D01*
X-9040000Y-93230000D02*
X-10565000Y-93230000D01*
X-10565000Y-93230000D02*
X-10750000Y-93045000D01*
X-9750000Y-82000000D02*
X-10750000Y-83000000D01*
X-9000000Y-82000000D02*
X-9750000Y-82000000D01*
X-10750000Y-83000000D02*
X-10750000Y-86000000D01*
X-10750000Y-86000000D02*
X-10750000Y-87250000D01*
X-10750000Y-93045000D02*
X-10750000Y-87250000D01*
X-10750000Y-87250000D02*
X-10750000Y-87000000D01*
X-5750000Y-82000000D02*
X-4000000Y-80250000D01*
X-6500000Y-82000000D02*
X-5750000Y-82000000D01*
X-4000000Y-80250000D02*
X5750000Y-80250000D01*
X5750000Y-80250000D02*
X9500000Y-76500000D01*
X24500000Y-76500000D02*
X28500000Y-72500000D01*
X43250000Y-72500000D02*
X47250000Y-68500000D01*
X61750000Y-68500000D02*
X65750000Y-72500000D01*
X81000000Y-72500000D02*
X84750000Y-76250000D01*
X15250000Y-78000000D02*
X16750000Y-76500000D01*
X12500000Y-78000000D02*
X15250000Y-78000000D01*
X9500000Y-76500000D02*
X16750000Y-76500000D01*
X16750000Y-76500000D02*
X24500000Y-76500000D01*
X34750000Y-74000000D02*
X36250000Y-72500000D01*
X31500000Y-74000000D02*
X34750000Y-74000000D01*
X28500000Y-72500000D02*
X36250000Y-72500000D01*
X36250000Y-72500000D02*
X43250000Y-72500000D01*
X54000000Y-70000000D02*
X55500000Y-68500000D01*
X50500000Y-70000000D02*
X54000000Y-70000000D01*
X47250000Y-68500000D02*
X55500000Y-68500000D01*
X55500000Y-68500000D02*
X61750000Y-68500000D01*
X72000000Y-74000000D02*
X73500000Y-72500000D01*
X69500000Y-74000000D02*
X72000000Y-74000000D01*
X65750000Y-72500000D02*
X73500000Y-72500000D01*
X73500000Y-72500000D02*
X81000000Y-72500000D01*
X84750000Y-76250000D02*
X92750000Y-76250000D01*
X91000000Y-78000000D02*
X92750000Y-76250000D01*
X88500000Y-78000000D02*
X91000000Y-78000000D01*
X114400000Y-66150000D02*
X112150000Y-66150000D01*
X112150000Y-66150000D02*
X102050000Y-76250000D01*
X92750000Y-76250000D02*
X101250000Y-76250000D01*
X102050000Y-76250000D02*
X101250000Y-76250000D01*
X9390000Y-81610000D02*
X12440000Y-81610000D01*
X8435000Y-89230000D02*
X8500000Y-89250000D01*
X9960000Y-89230000D02*
X8435000Y-89230000D01*
X8500000Y-89250000D02*
X8250000Y-89250000D01*
X8250000Y-89250000D02*
X8250000Y-82750000D01*
X8250000Y-82750000D02*
X9390000Y-81610000D01*
X8250000Y-79000000D02*
X8250000Y-82750000D01*
X9250000Y-78000000D02*
X8250000Y-79000000D01*
X10000000Y-78000000D02*
X9250000Y-78000000D01*
X27250000Y-85045000D02*
X27435000Y-85230000D01*
X28390000Y-77610000D02*
X27250000Y-78750000D01*
X27435000Y-85230000D02*
X28960000Y-85230000D01*
X27250000Y-78750000D02*
X27250000Y-85045000D01*
X31440000Y-77610000D02*
X28390000Y-77610000D01*
X27250000Y-75000000D02*
X27250000Y-78750000D01*
X28250000Y-74000000D02*
X27250000Y-75000000D01*
X29000000Y-74000000D02*
X28250000Y-74000000D01*
X50340000Y-73610000D02*
X47140000Y-73610000D01*
X46250000Y-81000000D02*
X46500000Y-81250000D01*
X46250000Y-74500000D02*
X46250000Y-81000000D01*
X47140000Y-73610000D02*
X46250000Y-74500000D01*
X46500000Y-81250000D02*
X47860000Y-81230000D01*
X46250000Y-71000000D02*
X46250000Y-74500000D01*
X47250000Y-70000000D02*
X46250000Y-71000000D01*
X48000000Y-70000000D02*
X47250000Y-70000000D01*
X65435000Y-85230000D02*
X66960000Y-85230000D01*
X65250000Y-85045000D02*
X65435000Y-85230000D01*
X66390000Y-77610000D02*
X65250000Y-78750000D01*
X69440000Y-77610000D02*
X66390000Y-77610000D01*
X65250000Y-75000000D02*
X65250000Y-79000000D01*
X67000000Y-74000000D02*
X66250000Y-74000000D01*
X66250000Y-74000000D02*
X65250000Y-75000000D01*
X65250000Y-78750000D02*
X65250000Y-79000000D01*
X65250000Y-79000000D02*
X65250000Y-85045000D01*
X84435000Y-89230000D02*
X85960000Y-89230000D01*
X88440000Y-81610000D02*
X85140000Y-81610000D01*
X85140000Y-81610000D02*
X85000000Y-81750000D01*
X85000000Y-81750000D02*
X84250000Y-82750000D01*
X84250000Y-89045000D02*
X84435000Y-89230000D01*
X84250000Y-79000000D02*
X84250000Y-83000000D01*
X84250000Y-82750000D02*
X84250000Y-83000000D01*
X85250000Y-78000000D02*
X84250000Y-79000000D01*
X86000000Y-78000000D02*
X85250000Y-78000000D01*
X84250000Y-83000000D02*
X84250000Y-89045000D01*
X65335000Y-104230000D02*
X66860000Y-104230000D01*
X65000000Y-103895000D02*
X65335000Y-104230000D01*
X69340000Y-96610000D02*
X66140000Y-96610000D01*
X66140000Y-96610000D02*
X65000000Y-97750000D01*
X65000000Y-94250000D02*
X65000000Y-98000000D01*
X66250000Y-93000000D02*
X65000000Y-94250000D01*
X67000000Y-93000000D02*
X66250000Y-93000000D01*
X65000000Y-97750000D02*
X65000000Y-98000000D01*
X65000000Y-98000000D02*
X65000000Y-103895000D01*
X69500000Y-92250000D02*
X70250000Y-91500000D01*
X69500000Y-93000000D02*
X69500000Y-92250000D01*
X70250000Y-91500000D02*
X81000000Y-91500000D01*
X81000000Y-91500000D02*
X85000000Y-95500000D01*
X88500000Y-97000000D02*
X91750000Y-97000000D01*
X91750000Y-97000000D02*
X93250000Y-95500000D01*
X85000000Y-95500000D02*
X93250000Y-95500000D01*
X103500000Y-99500000D02*
X103500000Y-99750000D01*
X99500000Y-95500000D02*
X103500000Y-99500000D01*
X93250000Y-95500000D02*
X99500000Y-95500000D01*
X114400000Y-68690000D02*
X114400000Y-106100000D01*
X107500000Y-113000000D02*
X103500000Y-113000000D01*
X103500000Y-99750000D02*
X103500000Y-113000000D01*
X114400000Y-106100000D02*
X107500000Y-113000000D01*
X103500000Y-113000000D02*
X103500000Y-116000000D01*
X84335000Y-108230000D02*
X85860000Y-108230000D01*
X84000000Y-107895000D02*
X84335000Y-108230000D01*
X85140000Y-100610000D02*
X84000000Y-101750000D01*
X84000000Y-101750000D02*
X84000000Y-107895000D01*
X88340000Y-100610000D02*
X85140000Y-100610000D01*
X84000000Y-98250000D02*
X84000000Y-101750000D01*
X85250000Y-97000000D02*
X84000000Y-98250000D01*
X86000000Y-97000000D02*
X85250000Y-97000000D01*
X99435000Y-127230000D02*
X100960000Y-127230000D01*
X99250000Y-127045000D02*
X99435000Y-127230000D01*
X100390000Y-119610000D02*
X99250000Y-120750000D01*
X99250000Y-120750000D02*
X99250000Y-127045000D01*
X103440000Y-119610000D02*
X100390000Y-119610000D01*
X99250000Y-117000000D02*
X99250000Y-120750000D01*
X100250000Y-116000000D02*
X99250000Y-117000000D01*
X101000000Y-116000000D02*
X100250000Y-116000000D01*
X176625000Y-51090000D02*
X178150000Y-51090000D01*
X177480000Y-43470000D02*
X176250000Y-44700000D01*
X176250000Y-50715000D02*
X176625000Y-51090000D01*
X180630000Y-43470000D02*
X177480000Y-43470000D01*
X177500000Y-39950000D02*
X176250000Y-41200000D01*
X178250000Y-39950000D02*
X177500000Y-39950000D01*
X176250000Y-41200000D02*
X176250000Y-45200000D01*
X176250000Y-44700000D02*
X176250000Y-45200000D01*
X176250000Y-45200000D02*
X176250000Y-50715000D01*
X192750000Y-38450000D02*
X196750000Y-34450000D01*
X212000000Y-34450000D02*
X215750000Y-30700000D01*
X229750000Y-30700000D02*
X233500000Y-34450000D01*
X249000000Y-34450000D02*
X253000000Y-38450000D01*
X202750000Y-35950000D02*
X204250000Y-34450000D01*
X196750000Y-34450000D02*
X204250000Y-34450000D01*
X199500000Y-35950000D02*
X202750000Y-35950000D01*
X204250000Y-34450000D02*
X212000000Y-34450000D01*
X221250000Y-31950000D02*
X222500000Y-30700000D01*
X218750000Y-31950000D02*
X221250000Y-31950000D01*
X215750000Y-30700000D02*
X222500000Y-30700000D01*
X222500000Y-30700000D02*
X229750000Y-30700000D01*
X240500000Y-35950000D02*
X242000000Y-34450000D01*
X237500000Y-35950000D02*
X240500000Y-35950000D01*
X233500000Y-34450000D02*
X242000000Y-34450000D01*
X242000000Y-34450000D02*
X249000000Y-34450000D01*
X258750000Y-39950000D02*
X260250000Y-38450000D01*
X256500000Y-39950000D02*
X258750000Y-39950000D01*
X253000000Y-38450000D02*
X260250000Y-38450000D01*
X275500000Y-43200000D02*
X274750000Y-42450000D01*
X275500000Y-43950000D02*
X275500000Y-43200000D01*
X271250000Y-42450000D02*
X267250000Y-38450000D01*
X274750000Y-42450000D02*
X271250000Y-42450000D01*
X267250000Y-38450000D02*
X260250000Y-38450000D01*
X183250000Y-39950000D02*
X184750000Y-38450000D01*
X180750000Y-39950000D02*
X183250000Y-39950000D01*
X184750000Y-38450000D02*
X192750000Y-38450000D01*
X159050000Y-38450000D02*
X183000000Y-38450000D01*
X156500000Y-41000000D02*
X159050000Y-38450000D01*
X183000000Y-38450000D02*
X184750000Y-38450000D01*
X156500000Y-69350000D02*
X156500000Y-41000000D01*
X154880000Y-70970000D02*
X156500000Y-69350000D01*
X195435000Y-47230000D02*
X196960000Y-47230000D01*
X196340000Y-39610000D02*
X195250000Y-40700000D01*
X195250000Y-47045000D02*
X195435000Y-47230000D01*
X199440000Y-39610000D02*
X196340000Y-39610000D01*
X195250000Y-36950000D02*
X195250000Y-40950000D01*
X197000000Y-35950000D02*
X196250000Y-35950000D01*
X195250000Y-40700000D02*
X195250000Y-40950000D01*
X196250000Y-35950000D02*
X195250000Y-36950000D01*
X195250000Y-40950000D02*
X195250000Y-47045000D01*
X214500000Y-43195000D02*
X214535000Y-43230000D01*
X214535000Y-43230000D02*
X216060000Y-43230000D01*
X215840000Y-35610000D02*
X214500000Y-36950000D01*
X218540000Y-35610000D02*
X215840000Y-35610000D01*
X216250000Y-31950000D02*
X215500000Y-31950000D01*
X214500000Y-32950000D02*
X214500000Y-37200000D01*
X214500000Y-36950000D02*
X214500000Y-37200000D01*
X215500000Y-31950000D02*
X214500000Y-32950000D01*
X214500000Y-37200000D02*
X214500000Y-43195000D01*
X233435000Y-47130000D02*
X234960000Y-47130000D01*
X233250000Y-46945000D02*
X233435000Y-47130000D01*
X234440000Y-39510000D02*
X233250000Y-40700000D01*
X237440000Y-39510000D02*
X234440000Y-39510000D01*
X233250000Y-36950000D02*
X233250000Y-40950000D01*
X234250000Y-35950000D02*
X233250000Y-36950000D01*
X235000000Y-35950000D02*
X234250000Y-35950000D01*
X233250000Y-40700000D02*
X233250000Y-40950000D01*
X233250000Y-40950000D02*
X233250000Y-46945000D01*
X252425000Y-51190000D02*
X253950000Y-51190000D01*
X252250000Y-51015000D02*
X252425000Y-51190000D01*
X256430000Y-43570000D02*
X253380000Y-43570000D01*
X252250000Y-44700000D02*
X252250000Y-51015000D01*
X253380000Y-43570000D02*
X252250000Y-44700000D01*
X252250000Y-40950000D02*
X252250000Y-44700000D01*
X253250000Y-39950000D02*
X252250000Y-40950000D01*
X254000000Y-39950000D02*
X253250000Y-39950000D01*
X271435000Y-55230000D02*
X272960000Y-55230000D01*
X271250000Y-55045000D02*
X271435000Y-55230000D01*
X272340000Y-47610000D02*
X271250000Y-48700000D01*
X275440000Y-47610000D02*
X272340000Y-47610000D01*
X272250000Y-43950000D02*
X271250000Y-44950000D01*
X273000000Y-43950000D02*
X272250000Y-43950000D01*
X271250000Y-48700000D02*
X271250000Y-48950000D01*
X271250000Y-44950000D02*
X271250000Y-48950000D01*
X271250000Y-48950000D02*
X271250000Y-55045000D01*
X176535000Y-70230000D02*
X178060000Y-70230000D01*
X176250000Y-69945000D02*
X176535000Y-70230000D01*
X177590000Y-62610000D02*
X176250000Y-63950000D01*
X180540000Y-62610000D02*
X177590000Y-62610000D01*
X176250000Y-60200000D02*
X176250000Y-64200000D01*
X177500000Y-58950000D02*
X176250000Y-60200000D01*
X176250000Y-63950000D02*
X176250000Y-64200000D01*
X178250000Y-58950000D02*
X177500000Y-58950000D01*
X176250000Y-64200000D02*
X176250000Y-69945000D01*
X192500000Y-57450000D02*
X196500000Y-53450000D01*
X211500000Y-53450000D02*
X215250000Y-49700000D01*
X229750000Y-49700000D02*
X233500000Y-53450000D01*
X249000000Y-53450000D02*
X253000000Y-57450000D01*
X268250000Y-57450000D02*
X272000000Y-61200000D01*
X275750000Y-62200000D02*
X275750000Y-62950000D01*
X274750000Y-61200000D02*
X275750000Y-62200000D01*
X272000000Y-61200000D02*
X274750000Y-61200000D01*
X259000000Y-58950000D02*
X260500000Y-57450000D01*
X256500000Y-58950000D02*
X259000000Y-58950000D01*
X253000000Y-57450000D02*
X260500000Y-57450000D01*
X260500000Y-57450000D02*
X268250000Y-57450000D01*
X237750000Y-54950000D02*
X240250000Y-54950000D01*
X240250000Y-54950000D02*
X241750000Y-53450000D01*
X233500000Y-53450000D02*
X241750000Y-53450000D01*
X241750000Y-53450000D02*
X249000000Y-53450000D01*
X215250000Y-49700000D02*
X222750000Y-49700000D01*
X221500000Y-50950000D02*
X222750000Y-49700000D01*
X218500000Y-50950000D02*
X221500000Y-50950000D01*
X222750000Y-49700000D02*
X229750000Y-49700000D01*
X202000000Y-54950000D02*
X203500000Y-53450000D01*
X199500000Y-54950000D02*
X202000000Y-54950000D01*
X196500000Y-53450000D02*
X203500000Y-53450000D01*
X203500000Y-53450000D02*
X211500000Y-53450000D01*
X184250000Y-58950000D02*
X185750000Y-57450000D01*
X180750000Y-58950000D02*
X184250000Y-58950000D01*
X185750000Y-57450000D02*
X192500000Y-57450000D01*
X180750000Y-57500000D02*
X180750000Y-58950000D01*
X157250000Y-50750000D02*
X158250000Y-49750000D01*
X154880000Y-73510000D02*
X157250000Y-71140000D01*
X158250000Y-49750000D02*
X173000000Y-49750000D01*
X173000000Y-49750000D02*
X180750000Y-57500000D01*
X157250000Y-71140000D02*
X157250000Y-50750000D01*
X195435000Y-66230000D02*
X196960000Y-66230000D01*
X195250000Y-66045000D02*
X195435000Y-66230000D01*
X195250000Y-59950000D02*
X195250000Y-66045000D01*
X196590000Y-58610000D02*
X195250000Y-59950000D01*
X199440000Y-58610000D02*
X196590000Y-58610000D01*
X195250000Y-55950000D02*
X195250000Y-59950000D01*
X196250000Y-54950000D02*
X195250000Y-55950000D01*
X197000000Y-54950000D02*
X196250000Y-54950000D01*
X214435000Y-62330000D02*
X215960000Y-62330000D01*
X214250000Y-55950000D02*
X214250000Y-62145000D01*
X214250000Y-62145000D02*
X214435000Y-62330000D01*
X218440000Y-54710000D02*
X215490000Y-54710000D01*
X215250000Y-50950000D02*
X214250000Y-51950000D01*
X214250000Y-51950000D02*
X214250000Y-55700000D01*
X215490000Y-54710000D02*
X214250000Y-55700000D01*
X216000000Y-50950000D02*
X215250000Y-50950000D01*
X214250000Y-55700000D02*
X214250000Y-55950000D01*
X233500000Y-66095000D02*
X233535000Y-66130000D01*
X233500000Y-59450000D02*
X233500000Y-66095000D01*
X233535000Y-66130000D02*
X235060000Y-66130000D01*
X234440000Y-58510000D02*
X233500000Y-59450000D01*
X237540000Y-58510000D02*
X234440000Y-58510000D01*
X233500000Y-55950000D02*
X233500000Y-59450000D01*
X234500000Y-54950000D02*
X233500000Y-55950000D01*
X235250000Y-54950000D02*
X234500000Y-54950000D01*
X252435000Y-70230000D02*
X253960000Y-70230000D01*
X252250000Y-70045000D02*
X252435000Y-70230000D01*
X253340000Y-62610000D02*
X252250000Y-63700000D01*
X252250000Y-63700000D02*
X252250000Y-70045000D01*
X256440000Y-62610000D02*
X253340000Y-62610000D01*
X252250000Y-59950000D02*
X252250000Y-63700000D01*
X253250000Y-58950000D02*
X252250000Y-59950000D01*
X254000000Y-58950000D02*
X253250000Y-58950000D01*
X271250000Y-73945000D02*
X271535000Y-74230000D01*
X271535000Y-74230000D02*
X273060000Y-74230000D01*
X272340000Y-66610000D02*
X271250000Y-67700000D01*
X275540000Y-66610000D02*
X272340000Y-66610000D01*
X271250000Y-64200000D02*
X271250000Y-68200000D01*
X272500000Y-62950000D02*
X271250000Y-64200000D01*
X271250000Y-67700000D02*
X271250000Y-68200000D01*
X273250000Y-62950000D02*
X272500000Y-62950000D01*
X271250000Y-68200000D02*
X271250000Y-73945000D01*
X176535000Y-89230000D02*
X178060000Y-89230000D01*
X176250000Y-88945000D02*
X176535000Y-89230000D01*
X177340000Y-81610000D02*
X176250000Y-82700000D01*
X180540000Y-81610000D02*
X177340000Y-81610000D01*
X176250000Y-79200000D02*
X176250000Y-82950000D01*
X178250000Y-77950000D02*
X177500000Y-77950000D01*
X177500000Y-77950000D02*
X176250000Y-79200000D01*
X176250000Y-82700000D02*
X176250000Y-82950000D01*
X176250000Y-82950000D02*
X176250000Y-88945000D01*
X180750000Y-77950000D02*
X183750000Y-77950000D01*
X183750000Y-77950000D02*
X185500000Y-76200000D01*
X185500000Y-76200000D02*
X193000000Y-76200000D01*
X193000000Y-76200000D02*
X196750000Y-72450000D01*
X211500000Y-72450000D02*
X215500000Y-68450000D01*
X229500000Y-68450000D02*
X233500000Y-72450000D01*
X248750000Y-72450000D02*
X252750000Y-76450000D01*
X267500000Y-76450000D02*
X271500000Y-80450000D01*
X275750000Y-81200000D02*
X275750000Y-81950000D01*
X275000000Y-80450000D02*
X275750000Y-81200000D01*
X271500000Y-80450000D02*
X275000000Y-80450000D01*
X259000000Y-77950000D02*
X260500000Y-76450000D01*
X256500000Y-77950000D02*
X259000000Y-77950000D01*
X252750000Y-76450000D02*
X260500000Y-76450000D01*
X260500000Y-76450000D02*
X267500000Y-76450000D01*
X237500000Y-73950000D02*
X240250000Y-73950000D01*
X240250000Y-73950000D02*
X241750000Y-72450000D01*
X233500000Y-72450000D02*
X241750000Y-72450000D01*
X241750000Y-72450000D02*
X248750000Y-72450000D01*
X221500000Y-69950000D02*
X223000000Y-68450000D01*
X218500000Y-69950000D02*
X221500000Y-69950000D01*
X215500000Y-68450000D02*
X223000000Y-68450000D01*
X223000000Y-68450000D02*
X229500000Y-68450000D01*
X202000000Y-73950000D02*
X203500000Y-72450000D01*
X196750000Y-72450000D02*
X203500000Y-72450000D01*
X199750000Y-73950000D02*
X202000000Y-73950000D01*
X203500000Y-72450000D02*
X211500000Y-72450000D01*
X154880000Y-76050000D02*
X157250000Y-78420000D01*
X157250000Y-78420000D02*
X157250000Y-89750000D01*
X157250000Y-89750000D02*
X158750000Y-91250000D01*
X158750000Y-91250000D02*
X172250000Y-91250000D01*
X172250000Y-91250000D02*
X175250000Y-88250000D01*
X175250000Y-88250000D02*
X175250000Y-78250000D01*
X175250000Y-78250000D02*
X177300000Y-76200000D01*
X185500000Y-76200000D02*
X177300000Y-76200000D01*
X195535000Y-85230000D02*
X197060000Y-85230000D01*
X195250000Y-84945000D02*
X195535000Y-85230000D01*
X196590000Y-77610000D02*
X195250000Y-78950000D01*
X199540000Y-77610000D02*
X196590000Y-77610000D01*
X195250000Y-75200000D02*
X195250000Y-79200000D01*
X196500000Y-73950000D02*
X195250000Y-75200000D01*
X197250000Y-73950000D02*
X196500000Y-73950000D01*
X195250000Y-78950000D02*
X195250000Y-79200000D01*
X195250000Y-79200000D02*
X195250000Y-84945000D01*
X214250000Y-74700000D02*
X214250000Y-80945000D01*
X214435000Y-81130000D02*
X215960000Y-81130000D01*
X214250000Y-80945000D02*
X214435000Y-81130000D01*
X215440000Y-73510000D02*
X214250000Y-74700000D01*
X218440000Y-73510000D02*
X215440000Y-73510000D01*
X214250000Y-70950000D02*
X214250000Y-74700000D01*
X215250000Y-69950000D02*
X214250000Y-70950000D01*
X216000000Y-69950000D02*
X215250000Y-69950000D01*
X237440000Y-77610000D02*
X234340000Y-77610000D01*
X233435000Y-85230000D02*
X233250000Y-85045000D01*
X234960000Y-85230000D02*
X233435000Y-85230000D01*
X233250000Y-85045000D02*
X233250000Y-78700000D01*
X233250000Y-78700000D02*
X233750000Y-78200000D01*
X234340000Y-77610000D02*
X233750000Y-78200000D01*
X233750000Y-78200000D02*
X233500000Y-78450000D01*
X233250000Y-74950000D02*
X233250000Y-78700000D01*
X234250000Y-73950000D02*
X233250000Y-74950000D01*
X235000000Y-73950000D02*
X234250000Y-73950000D01*
X252435000Y-89230000D02*
X253960000Y-89230000D01*
X252250000Y-89045000D02*
X252435000Y-89230000D01*
X252250000Y-82700000D02*
X252250000Y-89045000D01*
X253410000Y-81610000D02*
X256440000Y-81610000D01*
X253375000Y-81575000D02*
X253410000Y-81610000D01*
X253375000Y-81575000D02*
X252250000Y-82700000D01*
X252250000Y-78950000D02*
X252250000Y-82700000D01*
X253250000Y-77950000D02*
X252250000Y-78950000D01*
X254000000Y-77950000D02*
X253250000Y-77950000D01*
X271535000Y-93230000D02*
X273060000Y-93230000D01*
X271250000Y-92945000D02*
X271535000Y-93230000D01*
X271250000Y-86950000D02*
X271250000Y-92945000D01*
X272590000Y-85610000D02*
X271250000Y-86950000D01*
X275540000Y-85610000D02*
X272590000Y-85610000D01*
X271250000Y-83200000D02*
X271250000Y-86950000D01*
X272500000Y-81950000D02*
X271250000Y-83200000D01*
X273250000Y-81950000D02*
X272500000Y-81950000D01*
X161535000Y-127230000D02*
X163060000Y-127230000D01*
X161250000Y-126945000D02*
X161535000Y-127230000D01*
X161250000Y-120950000D02*
X161250000Y-126945000D01*
X162590000Y-119610000D02*
X161250000Y-120950000D01*
X165540000Y-119610000D02*
X162590000Y-119610000D01*
X162500000Y-115950000D02*
X161250000Y-117200000D01*
X161250000Y-117200000D02*
X161250000Y-120950000D01*
X163250000Y-115950000D02*
X162500000Y-115950000D01*
X165750000Y-97200000D02*
X167250000Y-95700000D01*
X182750000Y-96950000D02*
X184000000Y-95700000D01*
X180500000Y-96950000D02*
X182750000Y-96950000D01*
X184000000Y-95700000D02*
X167250000Y-95700000D01*
X190750000Y-95700000D02*
X184000000Y-95700000D01*
X199750000Y-92200000D02*
X199000000Y-91450000D01*
X199750000Y-92950000D02*
X199750000Y-92200000D01*
X199000000Y-91450000D02*
X194750000Y-91450000D01*
X194750000Y-91450000D02*
X194500000Y-91700000D01*
X194500000Y-91700000D02*
X190750000Y-95700000D01*
X165750000Y-115950000D02*
X165750000Y-97250000D01*
X165750000Y-97250000D02*
X165750000Y-97200000D01*
X160750000Y-92250000D02*
X165750000Y-97250000D01*
X156500000Y-90250000D02*
X158500000Y-92250000D01*
X156500000Y-80210000D02*
X156500000Y-90250000D01*
X158500000Y-92250000D02*
X160750000Y-92250000D01*
X154880000Y-78590000D02*
X156500000Y-80210000D01*
X176250000Y-108045000D02*
X176435000Y-108230000D01*
X176435000Y-108230000D02*
X177960000Y-108230000D01*
X176250000Y-101950000D02*
X176250000Y-108045000D01*
X177590000Y-100610000D02*
X176250000Y-101950000D01*
X180440000Y-100610000D02*
X177590000Y-100610000D01*
X176250000Y-97950000D02*
X176250000Y-101950000D01*
X177250000Y-96950000D02*
X176250000Y-97950000D01*
X178000000Y-96950000D02*
X177250000Y-96950000D01*
X195535000Y-104130000D02*
X197060000Y-104130000D01*
X195250000Y-103845000D02*
X195535000Y-104130000D01*
X196440000Y-96510000D02*
X195250000Y-97700000D01*
X199540000Y-96510000D02*
X196440000Y-96510000D01*
X196500000Y-92950000D02*
X195250000Y-94200000D01*
X195250000Y-94200000D02*
X195250000Y-97950000D01*
X197250000Y-92950000D02*
X196500000Y-92950000D01*
X195250000Y-97700000D02*
X195250000Y-97950000D01*
X195250000Y-97950000D02*
X195250000Y-103845000D01*
X131950000Y-107770000D02*
X131950000Y-127300000D01*
X134250000Y-105470000D02*
X131950000Y-107770000D01*
X134250000Y-98000000D02*
X134250000Y-105470000D01*
X136250000Y-96000000D02*
X134250000Y-98000000D01*
X136250000Y-47385000D02*
X136250000Y-96000000D01*
X129615000Y-40750000D02*
X136250000Y-47385000D01*
X131950000Y-127300000D02*
X131950000Y-128800000D01*
X129500000Y-131250000D02*
X121650000Y-131250000D01*
X131950000Y-128800000D02*
X129500000Y-131250000D01*
X131950000Y-102690000D02*
X129810000Y-102690000D01*
X127150000Y-105350000D02*
X127150000Y-118250000D01*
X129810000Y-102690000D02*
X127150000Y-105350000D01*
X127150000Y-118250000D02*
X127150000Y-119250000D01*
X130872370Y-105230000D02*
X129750000Y-106352370D01*
X131950000Y-105230000D02*
X130872370Y-105230000D01*
X129750000Y-106352370D02*
X129750000Y-123250000D01*
X129750000Y-123250000D02*
X129750000Y-125250000D01*
X129750000Y-125250000D02*
X129750000Y-128750000D01*
X128950000Y-129550000D02*
X121650000Y-129550000D01*
X129750000Y-128750000D02*
X128950000Y-129550000D01*
X146650000Y-131250000D02*
X154000000Y-131250000D01*
X154000000Y-131250000D02*
X158500000Y-126750000D01*
X162870000Y-101370000D02*
X163000000Y-101500000D01*
X162870000Y-97750000D02*
X162870000Y-101370000D01*
X163000000Y-102631370D02*
X163000000Y-105250000D01*
X163000000Y-101500000D02*
X163000000Y-102631370D01*
X163000000Y-112750000D02*
X158500000Y-117250000D01*
X163000000Y-105250000D02*
X163000000Y-112750000D01*
X158500000Y-126750000D02*
X158500000Y-117250000D01*
X144750000Y-131250000D02*
X146650000Y-131250000D01*
X143250000Y-107750000D02*
X143250000Y-129750000D01*
X143250000Y-129750000D02*
X144750000Y-131250000D01*
X154750000Y-119000000D02*
X154750000Y-116500000D01*
X150750000Y-112500000D02*
X154750000Y-116500000D01*
X150750000Y-103000000D02*
X150750000Y-112500000D01*
X146770000Y-55730000D02*
X154880000Y-55730000D01*
X144550000Y-57950000D02*
X146770000Y-55730000D01*
X154750000Y-119000000D02*
X154750000Y-119750000D01*
X153850000Y-120650000D02*
X146650000Y-120650000D01*
X154750000Y-119750000D02*
X153850000Y-120650000D01*
X150750000Y-102000000D02*
X150750000Y-103000000D01*
X148880000Y-100130000D02*
X150750000Y-102000000D01*
X143250000Y-100130000D02*
X146120000Y-100130000D01*
X146120000Y-100130000D02*
X148880000Y-100130000D01*
X144502770Y-96252770D02*
X144502770Y-98877230D01*
X144502770Y-96252770D02*
X144550000Y-57950000D01*
X144502770Y-98877230D02*
X143250000Y-100130000D01*
X152150000Y-117150000D02*
X148750000Y-113750000D01*
X152150000Y-118250000D02*
X152150000Y-117150000D01*
X148750000Y-113750000D02*
X148750000Y-104500000D01*
X146920000Y-102670000D02*
X144550000Y-102670000D01*
X162500000Y-60810000D02*
X159250000Y-64060000D01*
X159250000Y-64060000D02*
X159250000Y-88750000D01*
X152150000Y-118250000D02*
X152150000Y-119250000D01*
X146920000Y-102670000D02*
X147000000Y-102750000D01*
X143250000Y-102670000D02*
X146920000Y-102670000D01*
X148750000Y-104500000D02*
X147000000Y-102750000D01*
X156000000Y-122750000D02*
X156000000Y-114250000D01*
X156000000Y-114250000D02*
X152750000Y-111000000D01*
X161368630Y-58270000D02*
X158250000Y-61388630D01*
X162500000Y-58270000D02*
X161368630Y-58270000D01*
X158250000Y-61388630D02*
X158250000Y-88750000D01*
X145550000Y-129550000D02*
X146650000Y-129550000D01*
X146650000Y-129550000D02*
X153700000Y-129550000D01*
X153700000Y-129550000D02*
X156000000Y-127250000D01*
X156000000Y-127250000D02*
X156000000Y-122750000D01*
X155380000Y-101500000D02*
X154000000Y-101500000D01*
X152750000Y-102750000D02*
X152750000Y-104250000D01*
X152750000Y-111000000D02*
X152750000Y-104250000D01*
X154000000Y-101500000D02*
X152750000Y-102750000D01*
X144750000Y-106710000D02*
X144750000Y-128750000D01*
X143250000Y-105210000D02*
X144750000Y-106710000D01*
X144750000Y-128750000D02*
X145550000Y-129550000D01*
X4710000Y-50090000D02*
X4710000Y-52690000D01*
X-310000Y-45070000D02*
X4710000Y-50090000D01*
X4710000Y-69090000D02*
X4710000Y-71690000D01*
X-310000Y-64070000D02*
X4710000Y-69090000D01*
X4810000Y-88090000D02*
X4810000Y-90690000D01*
X-210000Y-83070000D02*
X4810000Y-88090000D01*
X4710000Y-73190000D02*
X900000Y-77000000D01*
X4710000Y-71690000D02*
X4710000Y-73190000D01*
X-9480002Y-77000000D02*
X-11500000Y-74980002D01*
X900000Y-77000000D02*
X-9480002Y-77000000D01*
X-11500000Y-74980002D02*
X-11500000Y-63000000D01*
X-11500000Y-63000000D02*
X-8750000Y-60250000D01*
X-8750000Y-60250000D02*
X2750000Y-60250000D01*
X4710000Y-58290000D02*
X4710000Y-52690000D01*
X2750000Y-60250000D02*
X4710000Y-58290000D01*
X4810000Y-92190000D02*
X1250000Y-95750000D01*
X4810000Y-90690000D02*
X4810000Y-92190000D01*
X1250000Y-95750000D02*
X-10000000Y-95750000D01*
X-11490001Y-94240001D02*
X-11500000Y-94250000D01*
X-11490001Y-79009999D02*
X-11490001Y-94240001D01*
X-11490001Y-79009999D02*
X-9480002Y-77000000D01*
X-10000000Y-95750000D02*
X-11500000Y-94250000D01*
X4710000Y-73190000D02*
X7270000Y-75750000D01*
X7270000Y-75750000D02*
X24000000Y-75750000D01*
X24000000Y-75750000D02*
X28250000Y-71500000D01*
X28250000Y-71500000D02*
X42750000Y-71500000D01*
X42750000Y-71500000D02*
X46750000Y-67500000D01*
X46750000Y-67500000D02*
X62250000Y-67500000D01*
X66250000Y-71500000D02*
X75000000Y-71500000D01*
X62250000Y-67500000D02*
X66250000Y-71500000D01*
X75000000Y-71500000D02*
X81500000Y-71500000D01*
X81500000Y-71500000D02*
X85250000Y-75250000D01*
X85250000Y-75250000D02*
X101500000Y-75250000D01*
X101500000Y-75250000D02*
X104750000Y-72000000D01*
X128500000Y-95750000D02*
X116250000Y-95750000D01*
X131750000Y-92500000D02*
X128500000Y-95750000D01*
X131750000Y-68285000D02*
X131750000Y-92500000D01*
X129615000Y-66150000D02*
X131750000Y-68285000D01*
X104750000Y-92000000D02*
X104750000Y-75500000D01*
X112750000Y-95750000D02*
X107750000Y-95750000D01*
X104750000Y-92750000D02*
X104750000Y-92000000D01*
X107750000Y-95750000D02*
X104750000Y-92750000D01*
X23810000Y-85190000D02*
X23810000Y-86690000D01*
X23810000Y-82473554D02*
X23810000Y-85190000D01*
X20406446Y-79070000D02*
X23810000Y-82473554D01*
X18790000Y-79070000D02*
X20406446Y-79070000D01*
X23710000Y-65090000D02*
X23710000Y-67690000D01*
X18690000Y-60070000D02*
X23710000Y-65090000D01*
X23710000Y-46090000D02*
X23710000Y-48690000D01*
X18690000Y-41070000D02*
X23710000Y-46090000D01*
X25235000Y-67690000D02*
X28045000Y-70500000D01*
X23710000Y-67690000D02*
X25235000Y-67690000D01*
X28045000Y-70500000D02*
X42250000Y-70500000D01*
X42250000Y-70500000D02*
X46500000Y-66250000D01*
X46500000Y-66250000D02*
X62500000Y-66250000D01*
X62500000Y-66250000D02*
X66500000Y-70250000D01*
X66500000Y-70250000D02*
X82000000Y-70250000D01*
X82000000Y-70250000D02*
X85750000Y-74000000D01*
X85750000Y-74000000D02*
X101250000Y-74000000D01*
X101250000Y-74000000D02*
X105250000Y-70000000D01*
X116250000Y-94250000D02*
X128000000Y-94250000D01*
X128000000Y-94250000D02*
X130500000Y-91750000D01*
X127500000Y-65725000D02*
X129615000Y-63610000D01*
X127500000Y-73750000D02*
X130500000Y-76750000D01*
X127500000Y-70250000D02*
X127500000Y-65725000D01*
X127500000Y-70250000D02*
X127500000Y-73750000D01*
X130500000Y-91750000D02*
X130500000Y-76750000D01*
X106000000Y-92250000D02*
X106000000Y-91750000D01*
X106000000Y-91750000D02*
X106000000Y-74500000D01*
X108000000Y-94250000D02*
X106000000Y-92250000D01*
X112750000Y-94250000D02*
X108000000Y-94250000D01*
X42810000Y-80090000D02*
X42810000Y-82690000D01*
X37790000Y-75070000D02*
X42810000Y-80090000D01*
X42810000Y-61090000D02*
X42810000Y-63690000D01*
X37790000Y-56070000D02*
X42810000Y-61090000D01*
X42810000Y-42090000D02*
X42810000Y-44690000D01*
X37790000Y-37070000D02*
X42810000Y-42090000D01*
X42810000Y-46190000D02*
X45120000Y-48500000D01*
X42810000Y-44690000D02*
X42810000Y-46190000D01*
X45120000Y-48500000D02*
X63000000Y-48500000D01*
X63000000Y-48500000D02*
X67000000Y-52500000D01*
X67000000Y-52500000D02*
X81500000Y-52500000D01*
X81500000Y-52500000D02*
X85500000Y-56500000D01*
X85500000Y-56500000D02*
X100500000Y-56500000D01*
X100500000Y-56500000D02*
X106250000Y-62250000D01*
X106250000Y-62250000D02*
X106250000Y-62500000D01*
X106250000Y-65000000D02*
X106250000Y-68750000D01*
X106250000Y-68750000D02*
X106500000Y-69000000D01*
X107250000Y-91250000D02*
X107250000Y-74250000D01*
X107250000Y-91750000D02*
X107250000Y-91250000D01*
X112750000Y-92750000D02*
X108250000Y-92750000D01*
X108250000Y-92750000D02*
X107250000Y-91750000D01*
X116250000Y-92750000D02*
X127750000Y-92750000D01*
X127750000Y-92750000D02*
X129500000Y-91000000D01*
X129500000Y-91000000D02*
X129500000Y-77500000D01*
X126500000Y-64185000D02*
X129615000Y-61070000D01*
X129500000Y-77500000D02*
X126500000Y-74500000D01*
X126500000Y-74500000D02*
X126500000Y-64185000D01*
X61710000Y-76090000D02*
X61710000Y-78690000D01*
X56690000Y-71070000D02*
X61710000Y-76090000D01*
X61810000Y-57090000D02*
X61810000Y-59690000D01*
X56790000Y-52070000D02*
X61810000Y-57090000D01*
X61810000Y-38090000D02*
X61810000Y-40690000D01*
X56790000Y-33070000D02*
X61810000Y-38090000D01*
X80710000Y-99090000D02*
X80710000Y-101690000D01*
X75690000Y-94070000D02*
X80710000Y-99090000D01*
X112750000Y-97250000D02*
X112350001Y-97649999D01*
X102899999Y-97649999D02*
X100000000Y-94750000D01*
X129615000Y-55990000D02*
X132750000Y-59125000D01*
X128750000Y-97250000D02*
X116250000Y-97250000D01*
X132750000Y-93250000D02*
X128750000Y-97250000D01*
X112350001Y-97649999D02*
X102899999Y-97649999D01*
X132750000Y-59125000D02*
X132750000Y-93250000D01*
X100000000Y-94750000D02*
X85500000Y-94750000D01*
X85500000Y-94750000D02*
X81500000Y-90750000D01*
X81500000Y-90750000D02*
X77250000Y-90750000D01*
X77250000Y-90750000D02*
X77250000Y-90775000D01*
X80720000Y-42030000D02*
X80720000Y-44630000D01*
X75700000Y-37010000D02*
X80720000Y-42030000D01*
X80810000Y-61090000D02*
X80810000Y-63690000D01*
X75790000Y-56070000D02*
X80810000Y-61090000D01*
X80810000Y-80090000D02*
X80810000Y-82690000D01*
X75790000Y-75070000D02*
X80810000Y-80090000D01*
X99710000Y-103090000D02*
X99710000Y-105690000D01*
X94690000Y-98070000D02*
X99710000Y-103090000D01*
X129615000Y-53450000D02*
X133750000Y-57585000D01*
X133750000Y-57585000D02*
X133750000Y-93750000D01*
X133750000Y-93750000D02*
X129250000Y-98250000D01*
X129250000Y-98250000D02*
X123750000Y-98250000D01*
X123750000Y-98250000D02*
X116250000Y-105750000D01*
X116250000Y-105750000D02*
X108000000Y-114000000D01*
X108000000Y-114000000D02*
X105000000Y-114000000D01*
X99810000Y-46090000D02*
X99810000Y-48690000D01*
X94790000Y-41070000D02*
X99810000Y-46090000D01*
X99810000Y-65090000D02*
X99810000Y-67690000D01*
X94790000Y-60070000D02*
X99810000Y-65090000D01*
X99810000Y-84090000D02*
X99810000Y-86690000D01*
X94790000Y-79070000D02*
X99810000Y-84090000D01*
X114810000Y-122090000D02*
X114810000Y-124690000D01*
X109790000Y-117070000D02*
X114810000Y-122090000D01*
X130817081Y-50910000D02*
X134750000Y-54842919D01*
X114810000Y-108690000D02*
X114810000Y-124690000D01*
X124250000Y-99250000D02*
X114810000Y-108690000D01*
X134750000Y-54842919D02*
X134750000Y-94250000D01*
X129615000Y-50910000D02*
X130817081Y-50910000D01*
X134750000Y-94250000D02*
X129750000Y-99250000D01*
X129750000Y-99250000D02*
X124250000Y-99250000D01*
X176910000Y-122090000D02*
X176910000Y-124690000D01*
X171890000Y-117070000D02*
X176910000Y-122090000D01*
X191910000Y-84090000D02*
X191910000Y-86690000D01*
X186890000Y-79070000D02*
X191910000Y-84090000D01*
X191910000Y-65090000D02*
X191910000Y-67690000D01*
X186890000Y-60070000D02*
X191910000Y-65090000D01*
X192000000Y-45950000D02*
X192000000Y-48550000D01*
X186980000Y-40930000D02*
X192000000Y-45950000D01*
X191810000Y-103090000D02*
X191810000Y-105690000D01*
X186790000Y-98070000D02*
X191810000Y-103090000D01*
X210910000Y-81190000D02*
X210910000Y-82690000D01*
X207506446Y-75070000D02*
X210910000Y-78473554D01*
X210910000Y-78473554D02*
X210910000Y-81190000D01*
X205890000Y-75070000D02*
X207506446Y-75070000D01*
X210810000Y-61090000D02*
X210810000Y-63690000D01*
X205790000Y-56070000D02*
X210810000Y-61090000D01*
X210810000Y-42090000D02*
X210810000Y-44690000D01*
X205790000Y-37070000D02*
X210810000Y-42090000D01*
X174250000Y-108750000D02*
X174250000Y-97750000D01*
X191810000Y-105690000D02*
X191810000Y-109440000D01*
X174250000Y-97750000D02*
X173250000Y-96750000D01*
X190000000Y-111250000D02*
X176750000Y-111250000D01*
X191810000Y-109440000D02*
X190000000Y-111250000D01*
X176750000Y-111250000D02*
X174250000Y-108750000D01*
X171460000Y-86210000D02*
X162500000Y-86210000D01*
X172000000Y-86750000D02*
X171460000Y-86210000D01*
X210910000Y-98990000D02*
X210910000Y-101590000D01*
X205890000Y-93970000D02*
X210910000Y-98990000D01*
X229810000Y-75990000D02*
X229810000Y-78590000D01*
X224790000Y-70970000D02*
X229810000Y-75990000D01*
X229810000Y-57190000D02*
X229810000Y-59790000D01*
X224790000Y-52170000D02*
X229810000Y-57190000D01*
X229910000Y-38090000D02*
X229910000Y-40690000D01*
X224890000Y-33070000D02*
X229910000Y-38090000D01*
X162580000Y-83750000D02*
X162500000Y-83670000D01*
X169750000Y-83750000D02*
X162580000Y-83750000D01*
X173250000Y-98750000D02*
X171750000Y-97250000D01*
X176250000Y-112250000D02*
X173250000Y-109250000D01*
X173250000Y-109250000D02*
X173250000Y-98750000D01*
X210910000Y-101590000D02*
X210910000Y-105090000D01*
X210910000Y-105090000D02*
X208750000Y-107250000D01*
X208750000Y-107250000D02*
X195750000Y-107250000D01*
X190750000Y-112250000D02*
X176250000Y-112250000D01*
X195750000Y-107250000D02*
X190750000Y-112250000D01*
X248810000Y-80090000D02*
X248810000Y-82690000D01*
X243790000Y-75070000D02*
X248810000Y-80090000D01*
X248810000Y-41990000D02*
X248810000Y-44590000D01*
X243790000Y-36970000D02*
X248810000Y-41990000D01*
X248910000Y-60990000D02*
X248910000Y-63590000D01*
X243890000Y-55970000D02*
X248910000Y-60990000D01*
X190750000Y-72750000D02*
X170880000Y-72750000D01*
X209750000Y-69000000D02*
X194500000Y-69000000D01*
X213234999Y-65515001D02*
X209750000Y-69000000D01*
X248910000Y-63590000D02*
X248910000Y-66840000D01*
X194500000Y-69000000D02*
X190750000Y-72750000D01*
X248910000Y-66840000D02*
X247000000Y-68750000D01*
X170880000Y-72750000D02*
X162500000Y-81130000D01*
X247000000Y-68750000D02*
X233000000Y-68750000D01*
X233000000Y-68750000D02*
X229765001Y-65515001D01*
X229765001Y-65515001D02*
X213234999Y-65515001D01*
X267800000Y-46050000D02*
X267800000Y-48650000D01*
X262780000Y-41030000D02*
X267800000Y-46050000D01*
X267810000Y-65090000D02*
X267810000Y-67690000D01*
X262790000Y-60070000D02*
X267810000Y-65090000D01*
X267810000Y-84090000D02*
X267810000Y-86690000D01*
X262790000Y-79070000D02*
X267810000Y-84090000D01*
X267810000Y-67690000D02*
X267810000Y-70440000D01*
X265250000Y-73000000D02*
X252500000Y-73000000D01*
X267810000Y-70440000D02*
X265250000Y-73000000D01*
X252500000Y-73000000D02*
X249500000Y-70000000D01*
X249500000Y-70000000D02*
X232750000Y-70000000D01*
X232750000Y-70000000D02*
X230000000Y-67250000D01*
X230000000Y-67250000D02*
X214000000Y-67250000D01*
X214000000Y-67250000D02*
X210500000Y-70750000D01*
X210500000Y-70750000D02*
X195500000Y-70750000D01*
X195500000Y-70750000D02*
X191750000Y-74500000D01*
X191750000Y-74500000D02*
X173000000Y-74500000D01*
X173000000Y-74500000D02*
X169000000Y-78500000D01*
X286810000Y-50090000D02*
X286810000Y-52690000D01*
X281790000Y-45070000D02*
X286810000Y-50090000D01*
X286910000Y-69090000D02*
X286910000Y-71690000D01*
X281890000Y-64070000D02*
X286910000Y-69090000D01*
X286910000Y-88090000D02*
X286910000Y-90690000D01*
X281890000Y-83070000D02*
X286910000Y-88090000D01*
X287000000Y-77960000D02*
X287000000Y-76950000D01*
X281890000Y-83070000D02*
X287000000Y-77960000D01*
X287000000Y-76950000D02*
X286910000Y-71690000D01*
X286810000Y-59150000D02*
X286810000Y-52690000D01*
X281890000Y-64070000D02*
X286810000Y-59150000D01*
X280747001Y-62927001D02*
X278177001Y-62927001D01*
X281890000Y-64070000D02*
X280747001Y-62927001D01*
X278177001Y-62927001D02*
X275250000Y-60000000D01*
X275250000Y-60000000D02*
X272250000Y-60000000D01*
X272250000Y-60000000D02*
X268750000Y-56500000D01*
X268750000Y-56500000D02*
X253500000Y-56500000D01*
X253500000Y-56500000D02*
X249500000Y-52500000D01*
X249500000Y-52500000D02*
X234000000Y-52500000D01*
X234000000Y-52500000D02*
X230250000Y-48750000D01*
X230250000Y-48750000D02*
X215000000Y-48750000D01*
X215000000Y-48750000D02*
X211250000Y-52500000D01*
X211250000Y-52500000D02*
X196000000Y-52500000D01*
X196000000Y-52500000D02*
X192250000Y-56250000D01*
X192250000Y-56250000D02*
X185250000Y-56250000D01*
X185250000Y-56250000D02*
X184500000Y-57000000D01*
X184500000Y-57000000D02*
X182000000Y-57000000D01*
X178250000Y-57000000D02*
X169000000Y-57000000D01*
X169000000Y-57000000D02*
X165500000Y-60500000D01*
X165500000Y-73050000D02*
X162500000Y-76050000D01*
X165500000Y-60500000D02*
X165500000Y-73050000D01*
X154880000Y-63350000D02*
X147100000Y-63350000D01*
X147100000Y-63350000D02*
X145500000Y-64950000D01*
X145500000Y-96000000D02*
X145500000Y-95500000D01*
X147250000Y-97750000D02*
X145500000Y-96000000D01*
X155250000Y-97750000D02*
X147250000Y-97750000D01*
X145500000Y-64950000D02*
X145500000Y-95500000D01*
X121650000Y-119650000D02*
X121650000Y-103350000D01*
X124850000Y-100150000D02*
X131950000Y-100150000D01*
X121650000Y-103350000D02*
X124850000Y-100150000D01*
X129615000Y-43290000D02*
X135500000Y-49175000D01*
X135500000Y-49175000D02*
X135500000Y-94750000D01*
X132000000Y-98250000D02*
X132000000Y-99000000D01*
X135500000Y-94750000D02*
X132000000Y-98250000D01*
X132000000Y-99000000D02*
X131950000Y-100150000D01*
X121650000Y-119650000D02*
X121650000Y-120650000D01*
M02*
