G04 #@! TF.GenerationSoftware,KiCad,Pcbnew,5.1.5*
G04 #@! TF.CreationDate,2020-04-04T10:10:50+02:00*
G04 #@! TF.ProjectId,pcb,7063622e-6b69-4636-9164-5f7063625858,rev?*
G04 #@! TF.SameCoordinates,Original*
G04 #@! TF.FileFunction,Copper,L1,Top*
G04 #@! TF.FilePolarity,Positive*
%FSLAX46Y46*%
G04 Gerber Fmt 4.6, Leading zero omitted, Abs format (unit mm)*
G04 Created by KiCad (PCBNEW 5.1.5) date 2020-04-04 10:10:50*
%MOMM*%
%LPD*%
G04 APERTURE LIST*
%ADD10C,2.286000*%
%ADD11O,1.600000X1.600000*%
%ADD12R,1.600000X1.600000*%
%ADD13C,1.700000*%
%ADD14C,2.200000*%
%ADD15C,1.600000*%
%ADD16C,1.524000*%
%ADD17C,0.800000*%
%ADD18C,0.250000*%
G04 APERTURE END LIST*
D10*
X69340000Y-96610000D03*
X75690000Y-94070000D03*
X88440000Y-81610000D03*
X94790000Y-79070000D03*
D11*
X154880000Y-88750000D03*
X162500000Y-55730000D03*
X154880000Y-86210000D03*
X162500000Y-58270000D03*
X154880000Y-83670000D03*
X162500000Y-60810000D03*
X154880000Y-81130000D03*
X162500000Y-63350000D03*
X154880000Y-78590000D03*
X162500000Y-65890000D03*
X154880000Y-76050000D03*
X162500000Y-68430000D03*
X154880000Y-73510000D03*
X162500000Y-70970000D03*
X154880000Y-70970000D03*
X162500000Y-73510000D03*
X154880000Y-68430000D03*
X162500000Y-76050000D03*
X154880000Y-65890000D03*
X162500000Y-78590000D03*
X154880000Y-63350000D03*
X162500000Y-81130000D03*
X154880000Y-60810000D03*
X162500000Y-83670000D03*
X154880000Y-58270000D03*
X162500000Y-86210000D03*
X154880000Y-55730000D03*
D12*
X162500000Y-88750000D03*
D13*
X129615000Y-40750000D03*
X114400000Y-43290000D03*
D14*
X129005000Y-37925200D03*
X115009600Y-37925200D03*
D13*
X114400000Y-40750000D03*
X116940000Y-45830000D03*
X114400000Y-45830000D03*
X114400000Y-48370000D03*
X114400000Y-50910000D03*
X114400000Y-53450000D03*
X119480000Y-45830000D03*
X122020000Y-45830000D03*
X114400000Y-55990000D03*
X114400000Y-58530000D03*
X114400000Y-61070000D03*
X114400000Y-63610000D03*
X114400000Y-66150000D03*
X114400000Y-68690000D03*
X129615000Y-43290000D03*
X129615000Y-45830000D03*
X129615000Y-50910000D03*
X127075000Y-45830000D03*
X129615000Y-48370000D03*
X129615000Y-53450000D03*
X129615000Y-55990000D03*
X129615000Y-58530000D03*
X129615000Y-63610000D03*
X129615000Y-66150000D03*
X129615000Y-61070000D03*
X129615000Y-68690000D03*
D10*
X37790000Y-56070000D03*
X31440000Y-58610000D03*
X-6660000Y-47610000D03*
X-310000Y-45070000D03*
X12340000Y-43610000D03*
X18690000Y-41070000D03*
X37790000Y-37070000D03*
X31440000Y-39610000D03*
X50440000Y-35610000D03*
X56790000Y-33070000D03*
X75700000Y-37010000D03*
X69350000Y-39550000D03*
X94790000Y-41070000D03*
X88440000Y-43610000D03*
X-6660000Y-66610000D03*
X-310000Y-64070000D03*
X12340000Y-62610000D03*
X18690000Y-60070000D03*
X50440000Y-54610000D03*
X56790000Y-52070000D03*
X75790000Y-56070000D03*
X69440000Y-58610000D03*
X88440000Y-62610000D03*
X94790000Y-60070000D03*
X-210000Y-83070000D03*
X-6560000Y-85610000D03*
X12440000Y-81610000D03*
X18790000Y-79070000D03*
X37790000Y-75070000D03*
X31440000Y-77610000D03*
X56690000Y-71070000D03*
X50340000Y-73610000D03*
X75790000Y-75070000D03*
X69440000Y-77610000D03*
X94690000Y-98070000D03*
X88340000Y-100610000D03*
X103440000Y-119610000D03*
X109790000Y-117070000D03*
X180630000Y-43470000D03*
X186980000Y-40930000D03*
X205790000Y-37070000D03*
X199440000Y-39610000D03*
X218540000Y-35610000D03*
X224890000Y-33070000D03*
X243790000Y-36970000D03*
X237440000Y-39510000D03*
X256430000Y-43570000D03*
X262780000Y-41030000D03*
X281790000Y-45070000D03*
X275440000Y-47610000D03*
X180540000Y-62610000D03*
X186890000Y-60070000D03*
X205790000Y-56070000D03*
X199440000Y-58610000D03*
X218440000Y-54710000D03*
X224790000Y-52170000D03*
X243890000Y-55970000D03*
X237540000Y-58510000D03*
X256440000Y-62610000D03*
X262790000Y-60070000D03*
X281890000Y-64070000D03*
X275540000Y-66610000D03*
X180540000Y-81610000D03*
X186890000Y-79070000D03*
X205890000Y-75070000D03*
X199540000Y-77610000D03*
X218440000Y-73510000D03*
X224790000Y-70970000D03*
X243790000Y-75070000D03*
X237440000Y-77610000D03*
X256440000Y-81610000D03*
X262790000Y-79070000D03*
X281890000Y-83070000D03*
X275540000Y-85610000D03*
X171890000Y-117070000D03*
X165540000Y-119610000D03*
X180440000Y-100610000D03*
X186790000Y-98070000D03*
X205890000Y-93970000D03*
X199540000Y-96510000D03*
D15*
X163000000Y-105250000D03*
D11*
X155380000Y-105250000D03*
D15*
X163000000Y-101500000D03*
D11*
X155380000Y-101500000D03*
X162870000Y-97750000D03*
D15*
X155250000Y-97750000D03*
D16*
X131950000Y-100150000D03*
X131950000Y-102690000D03*
X131950000Y-105230000D03*
X131950000Y-107770000D03*
X143250000Y-107750000D03*
X143250000Y-105210000D03*
X143250000Y-102670000D03*
X143250000Y-100130000D03*
D17*
X148750000Y-104500000D03*
X159250000Y-88750000D03*
X158250000Y-88750000D03*
X104750000Y-72000000D03*
X116250000Y-95750000D03*
X104750000Y-75500000D03*
X112750000Y-95750000D03*
X105250000Y-70000000D03*
X106000000Y-74500000D03*
X116250000Y-94250000D03*
X112750000Y-94250000D03*
X106250000Y-62500000D03*
X106250000Y-65000000D03*
X106500000Y-69000000D03*
X107250000Y-74250000D03*
X112750000Y-92750000D03*
X116250000Y-92750000D03*
X112750000Y-97250000D03*
X116250000Y-97250000D03*
X77250000Y-90775000D03*
X105000000Y-114000000D03*
X173250000Y-96750000D03*
X172000000Y-86750000D03*
X171750000Y-97250000D03*
X169750000Y-83750000D03*
X169000000Y-78500000D03*
X182000000Y-57000000D03*
X178250000Y-57000000D03*
D18*
X131950000Y-102690000D02*
X129190000Y-102690000D01*
X129190000Y-102690000D02*
X126250000Y-99750000D01*
X126250000Y-99750000D02*
X126250000Y-77500000D01*
X126250000Y-77500000D02*
X123750000Y-75000000D01*
X123750000Y-75000000D02*
X123750000Y-55000000D01*
X122200000Y-53450000D02*
X114400000Y-53450000D01*
X123750000Y-55000000D02*
X122200000Y-53450000D01*
X129230000Y-105230000D02*
X131950000Y-105230000D01*
X124500000Y-79000000D02*
X124500000Y-100500000D01*
X114400000Y-50910000D02*
X112590000Y-50910000D01*
X111250000Y-52250000D02*
X111250000Y-72750000D01*
X120750000Y-75250000D02*
X124500000Y-79000000D01*
X112590000Y-50910000D02*
X111250000Y-52250000D01*
X111250000Y-72750000D02*
X113750000Y-75250000D01*
X124500000Y-100500000D02*
X129230000Y-105230000D01*
X113750000Y-75250000D02*
X120750000Y-75250000D01*
X161368630Y-68430000D02*
X160399315Y-69399315D01*
X160399315Y-94829366D02*
X160399315Y-69399315D01*
X162500000Y-68430000D02*
X161368630Y-68430000D01*
X160399315Y-95279315D02*
X162870000Y-97750000D01*
X160399315Y-94829366D02*
X160399315Y-95279315D01*
X154880000Y-59401370D02*
X154880000Y-60810000D01*
X154880000Y-58270000D02*
X154880000Y-59401370D01*
X154880000Y-58270000D02*
X154880000Y-55730000D01*
X159960000Y-65890000D02*
X154880000Y-60810000D01*
X162500000Y-65890000D02*
X159960000Y-65890000D01*
X159250000Y-102409949D02*
X159250000Y-99750000D01*
X159250000Y-88750000D02*
X159250000Y-99750000D01*
X155380000Y-105250000D02*
X158000000Y-105250000D01*
X159250000Y-104000000D02*
X159250000Y-102409949D01*
X158000000Y-105250000D02*
X159250000Y-104000000D01*
X149500000Y-105250000D02*
X148750000Y-104500000D01*
X155380000Y-105250000D02*
X149500000Y-105250000D01*
X158250000Y-88750000D02*
X158250000Y-98670000D01*
X155380000Y-101500000D02*
X157250000Y-101500000D01*
X158250000Y-100500000D02*
X158250000Y-98750000D01*
X157250000Y-101500000D02*
X158250000Y-100500000D01*
X158250000Y-98670000D02*
X158250000Y-98750000D01*
X104750000Y-72000000D02*
X104750000Y-75500000D01*
X112750000Y-95750000D02*
X116250000Y-95750000D01*
X18690000Y-41070000D02*
X20320000Y-41070000D01*
X20320000Y-41070000D02*
X26250000Y-47000000D01*
X26250000Y-71610000D02*
X18790000Y-79070000D01*
X26250000Y-57000000D02*
X26250000Y-71610000D01*
X26250000Y-52510000D02*
X26250000Y-52000000D01*
X18690000Y-60070000D02*
X26250000Y-52510000D01*
X26250000Y-47000000D02*
X26250000Y-52000000D01*
X26250000Y-52000000D02*
X26250000Y-57000000D01*
X105250000Y-70000000D02*
X106000000Y-70750000D01*
X106000000Y-70750000D02*
X106000000Y-74500000D01*
X112750000Y-94250000D02*
X116250000Y-94250000D01*
X39406446Y-37070000D02*
X45500000Y-43163554D01*
X37790000Y-37070000D02*
X39406446Y-37070000D01*
X45500000Y-67360000D02*
X37790000Y-75070000D01*
X45500000Y-51250000D02*
X45500000Y-52500000D01*
X45500000Y-52500000D02*
X45500000Y-67360000D01*
X37790000Y-56070000D02*
X45500000Y-48360000D01*
X45500000Y-43163554D02*
X45500000Y-47750000D01*
X45500000Y-48360000D02*
X45500000Y-47750000D01*
X45500000Y-47750000D02*
X45500000Y-51250000D01*
X106250000Y-62500000D02*
X106250000Y-65000000D01*
X106500000Y-69000000D02*
X107250000Y-69750000D01*
X107250000Y-69750000D02*
X107250000Y-74250000D01*
X112750000Y-92750000D02*
X116250000Y-92750000D01*
X56790000Y-33070000D02*
X59320000Y-33070000D01*
X59320000Y-33070000D02*
X64250000Y-38000000D01*
X64250000Y-63510000D02*
X56690000Y-71070000D01*
X64250000Y-63000000D02*
X64250000Y-89750000D01*
X64250000Y-63000000D02*
X64250000Y-63510000D01*
X64250000Y-47750000D02*
X64250000Y-63000000D01*
X64250000Y-89750000D02*
X66000000Y-91500000D01*
X73120000Y-91500000D02*
X75690000Y-94070000D01*
X66000000Y-91500000D02*
X73120000Y-91500000D01*
X64250000Y-44610000D02*
X64250000Y-43500000D01*
X56790000Y-52070000D02*
X64250000Y-44610000D01*
X64250000Y-38000000D02*
X64250000Y-43500000D01*
X64250000Y-43500000D02*
X64250000Y-47750000D01*
X116250000Y-97250000D02*
X112750000Y-97250000D01*
X77250000Y-90775000D02*
X76275000Y-90775000D01*
X75690000Y-91360000D02*
X75690000Y-94070000D01*
X76275000Y-90775000D02*
X75690000Y-91360000D01*
X75700000Y-37010000D02*
X80260000Y-37010000D01*
X80260000Y-37010000D02*
X83250000Y-40000000D01*
X83250000Y-67610000D02*
X75790000Y-75070000D01*
X94690000Y-96453554D02*
X92986446Y-94750000D01*
X94690000Y-98070000D02*
X94690000Y-96453554D01*
X92986446Y-94750000D02*
X85500000Y-94750000D01*
X83250000Y-92500000D02*
X83250000Y-67250000D01*
X85500000Y-94750000D02*
X83250000Y-92500000D01*
X83250000Y-53250000D02*
X83250000Y-67250000D01*
X83250000Y-67250000D02*
X83250000Y-67610000D01*
X83250000Y-48610000D02*
X83250000Y-48000000D01*
X75790000Y-56070000D02*
X83250000Y-48610000D01*
X83250000Y-40000000D02*
X83250000Y-48000000D01*
X83250000Y-48000000D02*
X83250000Y-53250000D01*
X105000000Y-114000000D02*
X103500000Y-114000000D01*
X103500000Y-114000000D02*
X101750000Y-112250000D01*
X101750000Y-112250000D02*
X101750000Y-100000000D01*
X99820000Y-98070000D02*
X94690000Y-98070000D01*
X101750000Y-100000000D02*
X99820000Y-98070000D01*
X102750000Y-110030000D02*
X109790000Y-117070000D01*
X94790000Y-41070000D02*
X96820000Y-41070000D01*
X96820000Y-41070000D02*
X102750000Y-47000000D01*
X102750000Y-72726446D02*
X102750000Y-72000000D01*
X96406446Y-79070000D02*
X102750000Y-72726446D01*
X94790000Y-79070000D02*
X96406446Y-79070000D01*
X102750000Y-72000000D02*
X102750000Y-110030000D01*
X94790000Y-60070000D02*
X102750000Y-52110000D01*
X102750000Y-52110000D02*
X102750000Y-52000000D01*
X102750000Y-47000000D02*
X102750000Y-52000000D01*
X102750000Y-52000000D02*
X102750000Y-72000000D01*
X186980000Y-40930000D02*
X191480000Y-40930000D01*
X191480000Y-40930000D02*
X194500000Y-43950000D01*
X194500000Y-71460000D02*
X186890000Y-79070000D01*
X194500000Y-52460000D02*
X194500000Y-51700000D01*
X194500000Y-43950000D02*
X194500000Y-51700000D01*
X186890000Y-60070000D02*
X194500000Y-52460000D01*
X171890000Y-115453554D02*
X172000000Y-115343554D01*
X171890000Y-117070000D02*
X171890000Y-115453554D01*
X194500000Y-51700000D02*
X194500000Y-71200000D01*
X194500000Y-71200000D02*
X194500000Y-71460000D01*
X176500000Y-94950000D02*
X191250000Y-94950000D01*
X172000000Y-99450000D02*
X176500000Y-94950000D01*
X194500000Y-91700000D02*
X194500000Y-89450000D01*
X191250000Y-94950000D02*
X194500000Y-91700000D01*
X194500000Y-89450000D02*
X194500000Y-71200000D01*
X162500000Y-88750000D02*
X162500000Y-95000000D01*
X168500000Y-101000000D02*
X172000000Y-101000000D01*
X172000000Y-115343554D02*
X172000000Y-101000000D01*
X162500000Y-95000000D02*
X168500000Y-101000000D01*
X172000000Y-101000000D02*
X172000000Y-99450000D01*
X205790000Y-37070000D02*
X208870000Y-37070000D01*
X208870000Y-37070000D02*
X213250000Y-41450000D01*
X213250000Y-67710000D02*
X205890000Y-75070000D01*
X213250000Y-48610000D02*
X213250000Y-47200000D01*
X205790000Y-56070000D02*
X213250000Y-48610000D01*
X213250000Y-41450000D02*
X213250000Y-47200000D01*
X213250000Y-47200000D02*
X213250000Y-67200000D01*
X213250000Y-67200000D02*
X213250000Y-67710000D01*
X213250000Y-83450000D02*
X213250000Y-67200000D01*
X213250000Y-84950000D02*
X213250000Y-83450000D01*
X187932999Y-96927001D02*
X191022999Y-96927001D01*
X191022999Y-96927001D02*
X198250000Y-89700000D01*
X186790000Y-98070000D02*
X187932999Y-96927001D01*
X198250000Y-89700000D02*
X208500000Y-89700000D01*
X208500000Y-89700000D02*
X213250000Y-84950000D01*
X173250000Y-96750000D02*
X173250000Y-88000000D01*
X173250000Y-88000000D02*
X172000000Y-86750000D01*
X224890000Y-33070000D02*
X228130000Y-33070000D01*
X228130000Y-33070000D02*
X232250000Y-37190000D01*
X232250000Y-63510000D02*
X224790000Y-70970000D01*
X232250000Y-44710000D02*
X232250000Y-44450000D01*
X224790000Y-52170000D02*
X232250000Y-44710000D01*
X232250000Y-37190000D02*
X232250000Y-44450000D01*
X232250000Y-44450000D02*
X232250000Y-63200000D01*
X232250000Y-63200000D02*
X232250000Y-63510000D01*
X232250000Y-81700000D02*
X232250000Y-63200000D01*
X229750000Y-84200000D02*
X232250000Y-81700000D01*
X215660000Y-84200000D02*
X229750000Y-84200000D01*
X205890000Y-93970000D02*
X215660000Y-84200000D01*
X169750000Y-83750000D02*
X170750000Y-84750000D01*
X170750000Y-96250000D02*
X171750000Y-97250000D01*
X170750000Y-84750000D02*
X170750000Y-96250000D01*
X243790000Y-36970000D02*
X248480000Y-36970000D01*
X248480000Y-36970000D02*
X251250000Y-39740000D01*
X244932999Y-73927001D02*
X243790000Y-75070000D01*
X251250000Y-67610000D02*
X244932999Y-73927001D01*
X245122999Y-54827001D02*
X251250000Y-48700000D01*
X243890000Y-55970000D02*
X245032999Y-54827001D01*
X251250000Y-39740000D02*
X251250000Y-48700000D01*
X245032999Y-54827001D02*
X245122999Y-54827001D01*
X251250000Y-48700000D02*
X251250000Y-67610000D01*
X262780000Y-41030000D02*
X264830000Y-41030000D01*
X264830000Y-41030000D02*
X270250000Y-46450000D01*
X270250000Y-71610000D02*
X262790000Y-79070000D01*
X270250000Y-52610000D02*
X270250000Y-52200000D01*
X262790000Y-60070000D02*
X270250000Y-52610000D01*
X270250000Y-46450000D02*
X270250000Y-52200000D01*
X270250000Y-52200000D02*
X270250000Y-71610000D01*
X162590000Y-78500000D02*
X162500000Y-78590000D01*
X169000000Y-78500000D02*
X162590000Y-78500000D01*
X182000000Y-57000000D02*
X178250000Y-57000000D01*
M02*
