M48
; DRILL file {KiCad 5.1.10} date Sun Oct 24 21:55:24 2021
; FORMAT={-:-/ absolute / inch / decimal}
; #@! TF.CreationDate,2021-10-24T21:55:24+02:00
; #@! TF.GenerationSoftware,Kicad,Pcbnew,5.1.10
; #@! TF.FileFunction,NonPlated,1,2,NPTH
FMAT,2
INCH
T1C0.0669
T2C0.0689
T3C0.1570
%
G90
G05
T1
X0.5435Y-2.95
X0.5435Y-3.7
X0.5435Y-4.44
X0.9765Y-2.95
X0.9765Y-3.7
X0.9765Y-4.44
X1.2835Y-2.79
X1.2835Y-3.54
X1.2835Y-4.29
X1.7165Y-2.79
X1.7165Y-3.54
X1.7165Y-4.29
X2.0335Y-2.63
X2.0335Y-3.38
X2.0335Y-4.13
X2.4665Y-2.63
X2.4665Y-3.38
X2.4665Y-4.13
X2.7835Y-2.48
X2.7835Y-3.22
X2.7835Y-3.97
X3.2165Y-2.48
X3.2165Y-3.22
X3.2165Y-3.97
X3.5285Y-3.38
X3.5285Y-4.88
X3.5335Y-2.635
X3.5335Y-4.13
X3.9615Y-3.38
X3.9615Y-4.88
X3.9665Y-2.635
X3.9665Y-4.13
X4.2835Y-2.79
X4.2835Y-3.54
X4.2835Y-4.29
X4.2835Y-5.04
X4.7165Y-2.79
X4.7165Y-3.54
X4.7165Y-4.29
X4.7165Y-5.04
X4.8735Y-5.79
X5.3065Y-5.79
X7.3835Y-5.78
X7.8165Y-5.78
X7.9835Y-2.79
X7.9835Y-3.54
X7.9835Y-4.29
X7.9835Y-5.04
X8.4165Y-2.79
X8.4165Y-3.54
X8.4165Y-4.29
X8.4165Y-5.04
X8.7335Y-2.63
X8.7335Y-3.38
X8.7335Y-4.13
X8.7335Y-4.88
X9.1665Y-2.63
X9.1665Y-3.38
X9.1665Y-4.13
X9.1665Y-4.88
X9.4735Y-2.48
X9.4735Y-3.23
X9.4735Y-3.97
X9.9065Y-2.48
X9.9065Y-3.23
X9.9065Y-3.97
X10.2235Y-2.64
X10.2235Y-3.39
X10.2235Y-4.14
X10.6565Y-2.64
X10.6565Y-3.39
X10.6565Y-4.14
X10.9735Y-2.79
X10.9735Y-3.54
X10.9735Y-4.29
X11.4065Y-2.79
X11.4065Y-3.54
X11.4065Y-4.29
X11.7135Y-2.95
X11.7235Y-3.7
X11.7235Y-4.45
X12.1465Y-2.95
X12.1565Y-3.7
X12.1565Y-4.45
T2
X0.56Y-2.95
X0.56Y-3.7
X0.56Y-4.44
X0.96Y-2.95
X0.96Y-3.7
X0.96Y-4.44
X1.3Y-2.79
X1.3Y-3.54
X1.3Y-4.29
X1.7Y-2.79
X1.7Y-3.54
X1.7Y-4.29
X2.05Y-2.63
X2.05Y-3.38
X2.05Y-4.13
X2.45Y-2.63
X2.45Y-3.38
X2.45Y-4.13
X2.8Y-2.48
X2.8Y-3.22
X2.8Y-3.97
X3.2Y-2.48
X3.2Y-3.22
X3.2Y-3.97
X3.545Y-3.38
X3.545Y-4.88
X3.55Y-2.635
X3.55Y-4.13
X3.945Y-3.38
X3.945Y-4.88
X3.95Y-2.635
X3.95Y-4.13
X4.3Y-2.79
X4.3Y-3.54
X4.3Y-4.29
X4.3Y-5.04
X4.7Y-2.79
X4.7Y-3.54
X4.7Y-4.29
X4.7Y-5.04
X4.89Y-5.79
X5.29Y-5.79
X7.4Y-5.78
X7.8Y-5.78
X8.0Y-2.79
X8.0Y-3.54
X8.0Y-4.29
X8.0Y-5.04
X8.4Y-2.79
X8.4Y-3.54
X8.4Y-4.29
X8.4Y-5.04
X8.75Y-2.63
X8.75Y-3.38
X8.75Y-4.13
X8.75Y-4.88
X9.15Y-2.63
X9.15Y-3.38
X9.15Y-4.13
X9.15Y-4.88
X9.49Y-2.48
X9.49Y-3.23
X9.49Y-3.97
X9.89Y-2.48
X9.89Y-3.23
X9.89Y-3.97
X10.24Y-2.64
X10.24Y-3.39
X10.24Y-4.14
X10.64Y-2.64
X10.64Y-3.39
X10.64Y-4.14
X10.99Y-2.79
X10.99Y-3.54
X10.99Y-4.29
X11.39Y-2.79
X11.39Y-3.54
X11.39Y-4.29
X11.73Y-2.95
X11.74Y-3.7
X11.74Y-4.45
X12.13Y-2.95
X12.14Y-3.7
X12.14Y-4.45
T3
X0.76Y-2.95
X0.76Y-3.7
X0.76Y-4.44
X1.5Y-2.79
X1.5Y-3.54
X1.5Y-4.29
X2.25Y-2.63
X2.25Y-3.38
X2.25Y-4.13
X3.0Y-2.48
X3.0Y-3.22
X3.0Y-3.97
X3.745Y-3.38
X3.745Y-4.88
X3.75Y-2.635
X3.75Y-4.13
X4.5Y-2.79
X4.5Y-3.54
X4.5Y-4.29
X4.5Y-5.04
X5.09Y-5.79
X7.6Y-5.78
X8.2Y-2.79
X8.2Y-3.54
X8.2Y-4.29
X8.2Y-5.04
X8.95Y-2.63
X8.95Y-3.38
X8.95Y-4.13
X8.95Y-4.88
X9.69Y-2.48
X9.69Y-3.23
X9.69Y-3.97
X10.44Y-2.64
X10.44Y-3.39
X10.44Y-4.14
X11.19Y-2.79
X11.19Y-3.54
X11.19Y-4.29
X11.93Y-2.95
X11.94Y-3.7
X11.94Y-4.45
T0
M30
