M48
; DRILL file {KiCad 5.1.5} date Mon 09 Mar 2020 08:35:01 PM UTC
; FORMAT={-:-/ absolute / inch / decimal}
; #@! TF.CreationDate,2020-03-09T20:35:01+00:00
; #@! TF.GenerationSoftware,Kicad,Pcbnew,5.1.5
; #@! TF.FileFunction,Plated,1,2,PTH
FMAT,2
INCH
T1C0.0157
T2C0.0276
T3C0.0315
T4C0.0320
T5C0.0394
T6C0.0590
T7C0.0866
%
G90
G05
T1
X3.0413Y-3.5738
X4.124Y-2.8346
X4.124Y-2.9724
X4.1339Y-4.4882
X4.1437Y-2.7559
X4.1732Y-2.9331
X4.1831Y-2.4606
X4.1831Y-2.5591
X4.1929Y-2.7165
X4.2224Y-2.9232
X4.439Y-3.6516
X4.439Y-3.7106
X4.439Y-3.7697
X4.439Y-3.8287
X4.5768Y-3.6516
X4.5768Y-3.7106
X4.5768Y-3.7697
X4.5768Y-3.8287
X5.7756Y-4.1142
X6.1496Y-3.4941
X6.189Y-3.4941
X6.5728Y-3.0906
X6.6024Y-3.2972
X6.6811Y-3.8287
X6.6909Y-3.4154
X6.7402Y-3.8091
X6.937Y-2.2441
X7.0846Y-2.2441
T2
X6.0776Y-3.9567
X6.2776Y-3.9567
X6.0807Y-3.8189
X6.2807Y-3.8189
X6.0776Y-4.1043
X6.2776Y-4.1043
T3
X6.0169Y-2.1941
X6.0169Y-2.2941
X6.0169Y-2.3941
X6.0169Y-2.4941
X6.0169Y-2.5941
X6.0169Y-2.6941
X6.0169Y-2.7941
X6.0169Y-2.8941
X6.0169Y-2.9941
X6.0169Y-3.0941
X6.0169Y-3.1941
X6.0169Y-3.2941
X6.0169Y-3.3941
X6.0169Y-3.4941
X6.3169Y-2.1941
X6.3169Y-2.2941
X6.3169Y-2.3941
X6.3169Y-2.4941
X6.3169Y-2.5941
X6.3169Y-2.6941
X6.3169Y-2.7941
X6.3169Y-2.8941
X6.3169Y-2.9941
X6.3169Y-3.0941
X6.3169Y-3.1941
X6.3169Y-3.2941
X6.3169Y-3.3941
X6.3169Y-3.4941
T4
X5.6102Y-3.9421
X5.6102Y-4.0421
X5.6102Y-4.1421
X5.6102Y-4.2421
X5.1949Y-3.9429
X5.1949Y-4.0429
X5.1949Y-4.1429
X5.1949Y-4.2429
T5
X4.5039Y-1.6043
X4.5039Y-1.7043
X4.5039Y-1.8043
X4.5039Y-1.9043
X4.5039Y-2.0043
X4.5039Y-2.1043
X4.5039Y-2.2043
X4.5039Y-2.3043
X4.5039Y-2.4043
X4.5039Y-2.5043
X4.5039Y-2.6043
X4.5039Y-2.7043
X4.6039Y-1.8043
X4.7039Y-1.8043
X4.8039Y-1.8043
X5.003Y-1.8043
X5.103Y-1.6043
X5.103Y-1.7043
X5.103Y-1.8043
X5.103Y-1.9043
X5.103Y-2.0043
X5.103Y-2.1043
X5.103Y-2.2043
X5.103Y-2.3043
X5.103Y-2.4043
X5.103Y-2.5043
X5.103Y-2.6043
X5.103Y-2.7043
T6
X7.0272Y-3.213
X7.2772Y-3.113
X8.5232Y-1.402
X8.7732Y-1.302
X-0.2622Y-1.8744
X-0.0122Y-1.7744
X7.0272Y-2.465
X7.2772Y-2.365
X2.7339Y-3.0555
X2.9839Y-2.9555
X9.2673Y-3.0555
X9.5173Y-2.9555
X7.0307Y-1.7114
X7.2807Y-1.6114
X1.2378Y-2.3075
X1.4878Y-2.2075
X10.7673Y-3.3705
X11.0173Y-3.2705
X7.7752Y-3.0555
X8.0252Y-2.9555
X10.0154Y-2.465
X10.2654Y-2.365
X2.7303Y-1.5571
X2.9803Y-1.4571
X7.7713Y-1.5594
X8.0213Y-1.4594
X-0.2622Y-2.6224
X-0.0122Y-2.5224
X9.2673Y-1.5555
X9.5173Y-1.4555
X0.4858Y-2.465
X0.7358Y-2.365
X0.4858Y-1.7169
X0.7358Y-1.6169
X7.7752Y-3.7996
X8.0252Y-3.6996
X7.7713Y-2.3075
X8.0213Y-2.2075
X3.4819Y-2.465
X3.7319Y-2.365
X6.4366Y-4.7091
X6.6866Y-4.6091
X2.7339Y-2.3075
X2.9839Y-2.2075
X3.4819Y-1.7169
X3.7319Y-1.6169
X3.4819Y-3.213
X3.7319Y-3.113
X9.2713Y-2.3035
X9.5213Y-2.2035
X10.0154Y-3.213
X10.2654Y-3.113
X10.7673Y-2.6224
X11.0173Y-2.5224
X4.0724Y-4.7091
X4.3224Y-4.6091
X10.7634Y-1.8744
X11.0134Y-1.7744
X2.7299Y-3.8035
X2.9799Y-3.7035
X8.5193Y-2.1539
X8.7693Y-2.0539
X1.2378Y-3.0555
X1.4878Y-2.9555
X-0.2583Y-3.3705
X-0.0083Y-3.2705
X1.2378Y-1.5594
X1.4878Y-1.4594
X1.9819Y-2.898
X2.2319Y-2.798
X7.0232Y-3.961
X7.2732Y-3.861
X0.4898Y-3.213
X0.7398Y-3.113
X3.478Y-3.961
X3.728Y-3.861
X10.015Y-1.7154
X10.265Y-1.6154
X1.9858Y-1.402
X2.2358Y-1.302
X8.5193Y-2.8941
X8.7693Y-2.7941
X1.9858Y-2.15
X2.2358Y-2.05
T7
X4.5279Y-1.4931
X5.0789Y-1.4931
T0
M30
