G04 #@! TF.GenerationSoftware,KiCad,Pcbnew,5.1.2*
G04 #@! TF.CreationDate,2019-06-08T15:08:02+02:00*
G04 #@! TF.ProjectId,pcb,7063622e-6b69-4636-9164-5f7063625858,rev?*
G04 #@! TF.SameCoordinates,Original*
G04 #@! TF.FileFunction,Legend,Top*
G04 #@! TF.FilePolarity,Positive*
%FSLAX46Y46*%
G04 Gerber Fmt 4.6, Leading zero omitted, Abs format (unit mm)*
G04 Created by KiCad (PCBNEW 5.1.2) date 2019-06-08 15:08:02*
%MOMM*%
%LPD*%
G04 APERTURE LIST*
%ADD10C,0.150000*%
%ADD11C,0.200000*%
G04 APERTURE END LIST*
D10*
X156258285Y-150300571D02*
X156258285Y-151300571D01*
X156258285Y-150443428D02*
X156329714Y-150372000D01*
X156472571Y-150300571D01*
X156686857Y-150300571D01*
X156829714Y-150372000D01*
X156901142Y-150514857D01*
X156901142Y-151300571D01*
X158258285Y-150300571D02*
X158258285Y-151514857D01*
X158186857Y-151657714D01*
X158115428Y-151729142D01*
X157972571Y-151800571D01*
X157758285Y-151800571D01*
X157615428Y-151729142D01*
X158258285Y-151229142D02*
X158115428Y-151300571D01*
X157829714Y-151300571D01*
X157686857Y-151229142D01*
X157615428Y-151157714D01*
X157544000Y-151014857D01*
X157544000Y-150586285D01*
X157615428Y-150443428D01*
X157686857Y-150372000D01*
X157829714Y-150300571D01*
X158115428Y-150300571D01*
X158258285Y-150372000D01*
X159186857Y-151300571D02*
X159044000Y-151229142D01*
X158972571Y-151086285D01*
X158972571Y-149800571D01*
X160401142Y-150300571D02*
X160401142Y-151514857D01*
X160329714Y-151657714D01*
X160258285Y-151729142D01*
X160115428Y-151800571D01*
X159901142Y-151800571D01*
X159758285Y-151729142D01*
X160401142Y-151229142D02*
X160258285Y-151300571D01*
X159972571Y-151300571D01*
X159829714Y-151229142D01*
X159758285Y-151157714D01*
X159686857Y-151014857D01*
X159686857Y-150586285D01*
X159758285Y-150443428D01*
X159829714Y-150372000D01*
X159972571Y-150300571D01*
X160258285Y-150300571D01*
X160401142Y-150372000D01*
X160972571Y-150300571D02*
X161758285Y-150300571D01*
X160972571Y-151300571D01*
X161758285Y-151300571D01*
X162186857Y-150300571D02*
X162972571Y-150300571D01*
X162186857Y-151300571D01*
X162972571Y-151300571D01*
X165329714Y-150300571D02*
X165329714Y-151300571D01*
X164972571Y-149729142D02*
X164615428Y-150800571D01*
X165544000Y-150800571D01*
X166044000Y-149943428D02*
X166115428Y-149872000D01*
X166258285Y-149800571D01*
X166615428Y-149800571D01*
X166758285Y-149872000D01*
X166829714Y-149943428D01*
X166901142Y-150086285D01*
X166901142Y-150229142D01*
X166829714Y-150443428D01*
X165972571Y-151300571D01*
X166901142Y-151300571D01*
D11*
X295586000Y-72130000D02*
X295586000Y-77930000D01*
X293186000Y-72130000D02*
X295586000Y-72130000D01*
X293186000Y-77930000D02*
X293186000Y-72130000D01*
X293186000Y-77855000D02*
X295586000Y-77855000D01*
X293186000Y-77730000D02*
X295586000Y-77730000D01*
X295586000Y-77955000D02*
X293186000Y-77955000D01*
X293186000Y-77555000D02*
X295586000Y-77555000D01*
X293186000Y-77380000D02*
X295586000Y-77380000D01*
X293186000Y-77205000D02*
X295586000Y-77205000D01*
X276790000Y-68066000D02*
X276790000Y-73866000D01*
X274390000Y-68066000D02*
X276790000Y-68066000D01*
X274390000Y-73866000D02*
X274390000Y-68066000D01*
X274390000Y-73791000D02*
X276790000Y-73791000D01*
X274390000Y-73666000D02*
X276790000Y-73666000D01*
X276790000Y-73891000D02*
X274390000Y-73891000D01*
X274390000Y-73491000D02*
X276790000Y-73491000D01*
X274390000Y-73316000D02*
X276790000Y-73316000D01*
X274390000Y-73141000D02*
X276790000Y-73141000D01*
X257740000Y-64256000D02*
X257740000Y-70056000D01*
X255340000Y-64256000D02*
X257740000Y-64256000D01*
X255340000Y-70056000D02*
X255340000Y-64256000D01*
X255340000Y-69981000D02*
X257740000Y-69981000D01*
X255340000Y-69856000D02*
X257740000Y-69856000D01*
X257740000Y-70081000D02*
X255340000Y-70081000D01*
X255340000Y-69681000D02*
X257740000Y-69681000D01*
X255340000Y-69506000D02*
X257740000Y-69506000D01*
X255340000Y-69331000D02*
X257740000Y-69331000D01*
X238690000Y-60192000D02*
X238690000Y-65992000D01*
X236290000Y-60192000D02*
X238690000Y-60192000D01*
X236290000Y-65992000D02*
X236290000Y-60192000D01*
X236290000Y-65917000D02*
X238690000Y-65917000D01*
X236290000Y-65792000D02*
X238690000Y-65792000D01*
X238690000Y-66017000D02*
X236290000Y-66017000D01*
X236290000Y-65617000D02*
X238690000Y-65617000D01*
X236290000Y-65442000D02*
X238690000Y-65442000D01*
X236290000Y-65267000D02*
X238690000Y-65267000D01*
X219894000Y-64002000D02*
X219894000Y-69802000D01*
X217494000Y-64002000D02*
X219894000Y-64002000D01*
X217494000Y-69802000D02*
X217494000Y-64002000D01*
X217494000Y-69727000D02*
X219894000Y-69727000D01*
X217494000Y-69602000D02*
X219894000Y-69602000D01*
X219894000Y-69827000D02*
X217494000Y-69827000D01*
X217494000Y-69427000D02*
X219894000Y-69427000D01*
X217494000Y-69252000D02*
X219894000Y-69252000D01*
X217494000Y-69077000D02*
X219894000Y-69077000D01*
X185604000Y-67812000D02*
X185604000Y-73612000D01*
X183204000Y-67812000D02*
X185604000Y-67812000D01*
X183204000Y-73612000D02*
X183204000Y-67812000D01*
X183204000Y-73537000D02*
X185604000Y-73537000D01*
X183204000Y-73412000D02*
X185604000Y-73412000D01*
X185604000Y-73637000D02*
X183204000Y-73637000D01*
X183204000Y-73237000D02*
X185604000Y-73237000D01*
X183204000Y-73062000D02*
X185604000Y-73062000D01*
X183204000Y-72887000D02*
X185604000Y-72887000D01*
X139122000Y-68066000D02*
X139122000Y-73866000D01*
X136722000Y-68066000D02*
X139122000Y-68066000D01*
X136722000Y-73866000D02*
X136722000Y-68066000D01*
X136722000Y-73791000D02*
X139122000Y-73791000D01*
X136722000Y-73666000D02*
X139122000Y-73666000D01*
X139122000Y-73891000D02*
X136722000Y-73891000D01*
X136722000Y-73491000D02*
X139122000Y-73491000D01*
X136722000Y-73316000D02*
X139122000Y-73316000D01*
X136722000Y-73141000D02*
X139122000Y-73141000D01*
X105086000Y-64256000D02*
X105086000Y-70056000D01*
X102686000Y-64256000D02*
X105086000Y-64256000D01*
X102686000Y-70056000D02*
X102686000Y-64256000D01*
X102686000Y-69981000D02*
X105086000Y-69981000D01*
X102686000Y-69856000D02*
X105086000Y-69856000D01*
X105086000Y-70081000D02*
X102686000Y-70081000D01*
X102686000Y-69681000D02*
X105086000Y-69681000D01*
X102686000Y-69506000D02*
X105086000Y-69506000D01*
X102686000Y-69331000D02*
X105086000Y-69331000D01*
X86036000Y-60192000D02*
X86036000Y-65992000D01*
X83636000Y-60192000D02*
X86036000Y-60192000D01*
X83636000Y-65992000D02*
X83636000Y-60192000D01*
X83636000Y-65917000D02*
X86036000Y-65917000D01*
X83636000Y-65792000D02*
X86036000Y-65792000D01*
X86036000Y-66017000D02*
X83636000Y-66017000D01*
X83636000Y-65617000D02*
X86036000Y-65617000D01*
X83636000Y-65442000D02*
X86036000Y-65442000D01*
X83636000Y-65267000D02*
X86036000Y-65267000D01*
X66986000Y-64002000D02*
X66986000Y-69802000D01*
X64586000Y-64002000D02*
X66986000Y-64002000D01*
X64586000Y-69802000D02*
X64586000Y-64002000D01*
X64586000Y-69727000D02*
X66986000Y-69727000D01*
X64586000Y-69602000D02*
X66986000Y-69602000D01*
X66986000Y-69827000D02*
X64586000Y-69827000D01*
X64586000Y-69427000D02*
X66986000Y-69427000D01*
X64586000Y-69252000D02*
X66986000Y-69252000D01*
X64586000Y-69077000D02*
X66986000Y-69077000D01*
X295840000Y-91180000D02*
X295840000Y-96980000D01*
X293440000Y-91180000D02*
X295840000Y-91180000D01*
X293440000Y-96980000D02*
X293440000Y-91180000D01*
X293440000Y-96905000D02*
X295840000Y-96905000D01*
X293440000Y-96780000D02*
X295840000Y-96780000D01*
X295840000Y-97005000D02*
X293440000Y-97005000D01*
X293440000Y-96605000D02*
X295840000Y-96605000D01*
X293440000Y-96430000D02*
X295840000Y-96430000D01*
X293440000Y-96255000D02*
X295840000Y-96255000D01*
X276790000Y-87116000D02*
X276790000Y-92916000D01*
X274390000Y-87116000D02*
X276790000Y-87116000D01*
X274390000Y-92916000D02*
X274390000Y-87116000D01*
X274390000Y-92841000D02*
X276790000Y-92841000D01*
X274390000Y-92716000D02*
X276790000Y-92716000D01*
X276790000Y-92941000D02*
X274390000Y-92941000D01*
X274390000Y-92541000D02*
X276790000Y-92541000D01*
X274390000Y-92366000D02*
X276790000Y-92366000D01*
X274390000Y-92191000D02*
X276790000Y-92191000D01*
X257740000Y-83306000D02*
X257740000Y-89106000D01*
X255340000Y-83306000D02*
X257740000Y-83306000D01*
X255340000Y-89106000D02*
X255340000Y-83306000D01*
X255340000Y-89031000D02*
X257740000Y-89031000D01*
X255340000Y-88906000D02*
X257740000Y-88906000D01*
X257740000Y-89131000D02*
X255340000Y-89131000D01*
X255340000Y-88731000D02*
X257740000Y-88731000D01*
X255340000Y-88556000D02*
X257740000Y-88556000D01*
X255340000Y-88381000D02*
X257740000Y-88381000D01*
X238690000Y-79242000D02*
X238690000Y-85042000D01*
X236290000Y-79242000D02*
X238690000Y-79242000D01*
X236290000Y-85042000D02*
X236290000Y-79242000D01*
X236290000Y-84967000D02*
X238690000Y-84967000D01*
X236290000Y-84842000D02*
X238690000Y-84842000D01*
X238690000Y-85067000D02*
X236290000Y-85067000D01*
X236290000Y-84667000D02*
X238690000Y-84667000D01*
X236290000Y-84492000D02*
X238690000Y-84492000D01*
X236290000Y-84317000D02*
X238690000Y-84317000D01*
X219894000Y-83052000D02*
X219894000Y-88852000D01*
X217494000Y-83052000D02*
X219894000Y-83052000D01*
X217494000Y-88852000D02*
X217494000Y-83052000D01*
X217494000Y-88777000D02*
X219894000Y-88777000D01*
X217494000Y-88652000D02*
X219894000Y-88652000D01*
X219894000Y-88877000D02*
X217494000Y-88877000D01*
X217494000Y-88477000D02*
X219894000Y-88477000D01*
X217494000Y-88302000D02*
X219894000Y-88302000D01*
X217494000Y-88127000D02*
X219894000Y-88127000D01*
X200844000Y-87116000D02*
X200844000Y-92916000D01*
X198444000Y-87116000D02*
X200844000Y-87116000D01*
X198444000Y-92916000D02*
X198444000Y-87116000D01*
X198444000Y-92841000D02*
X200844000Y-92841000D01*
X198444000Y-92716000D02*
X200844000Y-92716000D01*
X200844000Y-92941000D02*
X198444000Y-92941000D01*
X198444000Y-92541000D02*
X200844000Y-92541000D01*
X198444000Y-92366000D02*
X200844000Y-92366000D01*
X198444000Y-92191000D02*
X200844000Y-92191000D01*
X124136000Y-86862000D02*
X124136000Y-92662000D01*
X121736000Y-86862000D02*
X124136000Y-86862000D01*
X121736000Y-92662000D02*
X121736000Y-86862000D01*
X121736000Y-92587000D02*
X124136000Y-92587000D01*
X121736000Y-92462000D02*
X124136000Y-92462000D01*
X124136000Y-92687000D02*
X121736000Y-92687000D01*
X121736000Y-92287000D02*
X124136000Y-92287000D01*
X121736000Y-92112000D02*
X124136000Y-92112000D01*
X121736000Y-91937000D02*
X124136000Y-91937000D01*
X105086000Y-83306000D02*
X105086000Y-89106000D01*
X102686000Y-83306000D02*
X105086000Y-83306000D01*
X102686000Y-89106000D02*
X102686000Y-83306000D01*
X102686000Y-89031000D02*
X105086000Y-89031000D01*
X102686000Y-88906000D02*
X105086000Y-88906000D01*
X105086000Y-89131000D02*
X102686000Y-89131000D01*
X102686000Y-88731000D02*
X105086000Y-88731000D01*
X102686000Y-88556000D02*
X105086000Y-88556000D01*
X102686000Y-88381000D02*
X105086000Y-88381000D01*
X86036000Y-78988000D02*
X86036000Y-84788000D01*
X83636000Y-78988000D02*
X86036000Y-78988000D01*
X83636000Y-84788000D02*
X83636000Y-78988000D01*
X83636000Y-84713000D02*
X86036000Y-84713000D01*
X83636000Y-84588000D02*
X86036000Y-84588000D01*
X86036000Y-84813000D02*
X83636000Y-84813000D01*
X83636000Y-84413000D02*
X86036000Y-84413000D01*
X83636000Y-84238000D02*
X86036000Y-84238000D01*
X83636000Y-84063000D02*
X86036000Y-84063000D01*
X66986000Y-83052000D02*
X66986000Y-88852000D01*
X64586000Y-83052000D02*
X66986000Y-83052000D01*
X64586000Y-88852000D02*
X64586000Y-83052000D01*
X64586000Y-88777000D02*
X66986000Y-88777000D01*
X64586000Y-88652000D02*
X66986000Y-88652000D01*
X66986000Y-88877000D02*
X64586000Y-88877000D01*
X64586000Y-88477000D02*
X66986000Y-88477000D01*
X64586000Y-88302000D02*
X66986000Y-88302000D01*
X64586000Y-88127000D02*
X66986000Y-88127000D01*
X295840000Y-110230000D02*
X295840000Y-116030000D01*
X293440000Y-110230000D02*
X295840000Y-110230000D01*
X293440000Y-116030000D02*
X293440000Y-110230000D01*
X293440000Y-115955000D02*
X295840000Y-115955000D01*
X293440000Y-115830000D02*
X295840000Y-115830000D01*
X295840000Y-116055000D02*
X293440000Y-116055000D01*
X293440000Y-115655000D02*
X295840000Y-115655000D01*
X293440000Y-115480000D02*
X295840000Y-115480000D01*
X293440000Y-115305000D02*
X295840000Y-115305000D01*
X276790000Y-106166000D02*
X276790000Y-111966000D01*
X274390000Y-106166000D02*
X276790000Y-106166000D01*
X274390000Y-111966000D02*
X274390000Y-106166000D01*
X274390000Y-111891000D02*
X276790000Y-111891000D01*
X274390000Y-111766000D02*
X276790000Y-111766000D01*
X276790000Y-111991000D02*
X274390000Y-111991000D01*
X274390000Y-111591000D02*
X276790000Y-111591000D01*
X274390000Y-111416000D02*
X276790000Y-111416000D01*
X274390000Y-111241000D02*
X276790000Y-111241000D01*
X257740000Y-102356000D02*
X257740000Y-108156000D01*
X255340000Y-102356000D02*
X257740000Y-102356000D01*
X255340000Y-108156000D02*
X255340000Y-102356000D01*
X255340000Y-108081000D02*
X257740000Y-108081000D01*
X255340000Y-107956000D02*
X257740000Y-107956000D01*
X257740000Y-108181000D02*
X255340000Y-108181000D01*
X255340000Y-107781000D02*
X257740000Y-107781000D01*
X255340000Y-107606000D02*
X257740000Y-107606000D01*
X255340000Y-107431000D02*
X257740000Y-107431000D01*
X238690000Y-98038000D02*
X238690000Y-103838000D01*
X236290000Y-98038000D02*
X238690000Y-98038000D01*
X236290000Y-103838000D02*
X236290000Y-98038000D01*
X236290000Y-103763000D02*
X238690000Y-103763000D01*
X236290000Y-103638000D02*
X238690000Y-103638000D01*
X238690000Y-103863000D02*
X236290000Y-103863000D01*
X236290000Y-103463000D02*
X238690000Y-103463000D01*
X236290000Y-103288000D02*
X238690000Y-103288000D01*
X236290000Y-103113000D02*
X238690000Y-103113000D01*
X219894000Y-102102000D02*
X219894000Y-107902000D01*
X217494000Y-102102000D02*
X219894000Y-102102000D01*
X217494000Y-107902000D02*
X217494000Y-102102000D01*
X217494000Y-107827000D02*
X219894000Y-107827000D01*
X217494000Y-107702000D02*
X219894000Y-107702000D01*
X219894000Y-107927000D02*
X217494000Y-107927000D01*
X217494000Y-107527000D02*
X219894000Y-107527000D01*
X217494000Y-107352000D02*
X219894000Y-107352000D01*
X217494000Y-107177000D02*
X219894000Y-107177000D01*
X200844000Y-106166000D02*
X200844000Y-111966000D01*
X198444000Y-106166000D02*
X200844000Y-106166000D01*
X198444000Y-111966000D02*
X198444000Y-106166000D01*
X198444000Y-111891000D02*
X200844000Y-111891000D01*
X198444000Y-111766000D02*
X200844000Y-111766000D01*
X200844000Y-111991000D02*
X198444000Y-111991000D01*
X198444000Y-111591000D02*
X200844000Y-111591000D01*
X198444000Y-111416000D02*
X200844000Y-111416000D01*
X198444000Y-111241000D02*
X200844000Y-111241000D01*
X124136000Y-106166000D02*
X124136000Y-111966000D01*
X121736000Y-106166000D02*
X124136000Y-106166000D01*
X121736000Y-111966000D02*
X121736000Y-106166000D01*
X121736000Y-111891000D02*
X124136000Y-111891000D01*
X121736000Y-111766000D02*
X124136000Y-111766000D01*
X124136000Y-111991000D02*
X121736000Y-111991000D01*
X121736000Y-111591000D02*
X124136000Y-111591000D01*
X121736000Y-111416000D02*
X124136000Y-111416000D01*
X121736000Y-111241000D02*
X124136000Y-111241000D01*
X105086000Y-102102000D02*
X105086000Y-107902000D01*
X102686000Y-102102000D02*
X105086000Y-102102000D01*
X102686000Y-107902000D02*
X102686000Y-102102000D01*
X102686000Y-107827000D02*
X105086000Y-107827000D01*
X102686000Y-107702000D02*
X105086000Y-107702000D01*
X105086000Y-107927000D02*
X102686000Y-107927000D01*
X102686000Y-107527000D02*
X105086000Y-107527000D01*
X102686000Y-107352000D02*
X105086000Y-107352000D01*
X102686000Y-107177000D02*
X105086000Y-107177000D01*
X86036000Y-98038000D02*
X86036000Y-103838000D01*
X83636000Y-98038000D02*
X86036000Y-98038000D01*
X83636000Y-103838000D02*
X83636000Y-98038000D01*
X83636000Y-103763000D02*
X86036000Y-103763000D01*
X83636000Y-103638000D02*
X86036000Y-103638000D01*
X86036000Y-103863000D02*
X83636000Y-103863000D01*
X83636000Y-103463000D02*
X86036000Y-103463000D01*
X83636000Y-103288000D02*
X86036000Y-103288000D01*
X83636000Y-103113000D02*
X86036000Y-103113000D01*
X66986000Y-102102000D02*
X66986000Y-107902000D01*
X64586000Y-102102000D02*
X66986000Y-102102000D01*
X64586000Y-107902000D02*
X64586000Y-102102000D01*
X64586000Y-107827000D02*
X66986000Y-107827000D01*
X64586000Y-107702000D02*
X66986000Y-107702000D01*
X66986000Y-107927000D02*
X64586000Y-107927000D01*
X64586000Y-107527000D02*
X66986000Y-107527000D01*
X64586000Y-107352000D02*
X66986000Y-107352000D01*
X64586000Y-107177000D02*
X66986000Y-107177000D01*
X219894000Y-121152000D02*
X219894000Y-126952000D01*
X217494000Y-121152000D02*
X219894000Y-121152000D01*
X217494000Y-126952000D02*
X217494000Y-121152000D01*
X217494000Y-126877000D02*
X219894000Y-126877000D01*
X217494000Y-126752000D02*
X219894000Y-126752000D01*
X219894000Y-126977000D02*
X217494000Y-126977000D01*
X217494000Y-126577000D02*
X219894000Y-126577000D01*
X217494000Y-126402000D02*
X219894000Y-126402000D01*
X217494000Y-126227000D02*
X219894000Y-126227000D01*
X185604000Y-125216000D02*
X185604000Y-131016000D01*
X183204000Y-125216000D02*
X185604000Y-125216000D01*
X183204000Y-131016000D02*
X183204000Y-125216000D01*
X183204000Y-130941000D02*
X185604000Y-130941000D01*
X183204000Y-130816000D02*
X185604000Y-130816000D01*
X185604000Y-131041000D02*
X183204000Y-131041000D01*
X183204000Y-130641000D02*
X185604000Y-130641000D01*
X183204000Y-130466000D02*
X185604000Y-130466000D01*
X183204000Y-130291000D02*
X185604000Y-130291000D01*
X185604000Y-144012000D02*
X185604000Y-149812000D01*
X183204000Y-144012000D02*
X185604000Y-144012000D01*
X183204000Y-149812000D02*
X183204000Y-144012000D01*
X183204000Y-149737000D02*
X185604000Y-149737000D01*
X183204000Y-149612000D02*
X185604000Y-149612000D01*
X185604000Y-149837000D02*
X183204000Y-149837000D01*
X183204000Y-149437000D02*
X185604000Y-149437000D01*
X183204000Y-149262000D02*
X185604000Y-149262000D01*
X183204000Y-149087000D02*
X185604000Y-149087000D01*
X139122000Y-144266000D02*
X139122000Y-150066000D01*
X136722000Y-144266000D02*
X139122000Y-144266000D01*
X136722000Y-150066000D02*
X136722000Y-144266000D01*
X136722000Y-149991000D02*
X139122000Y-149991000D01*
X136722000Y-149866000D02*
X139122000Y-149866000D01*
X139122000Y-150091000D02*
X136722000Y-150091000D01*
X136722000Y-149691000D02*
X139122000Y-149691000D01*
X136722000Y-149516000D02*
X139122000Y-149516000D01*
X136722000Y-149341000D02*
X139122000Y-149341000D01*
X139122000Y-125216000D02*
X139122000Y-131016000D01*
X136722000Y-125216000D02*
X139122000Y-125216000D01*
X136722000Y-131016000D02*
X136722000Y-125216000D01*
X136722000Y-130941000D02*
X139122000Y-130941000D01*
X136722000Y-130816000D02*
X139122000Y-130816000D01*
X139122000Y-131041000D02*
X136722000Y-131041000D01*
X136722000Y-130641000D02*
X139122000Y-130641000D01*
X136722000Y-130466000D02*
X139122000Y-130466000D01*
X136722000Y-130291000D02*
X139122000Y-130291000D01*
X105086000Y-121152000D02*
X105086000Y-126952000D01*
X102686000Y-121152000D02*
X105086000Y-121152000D01*
X102686000Y-126952000D02*
X102686000Y-121152000D01*
X102686000Y-126877000D02*
X105086000Y-126877000D01*
X102686000Y-126752000D02*
X105086000Y-126752000D01*
X105086000Y-126977000D02*
X102686000Y-126977000D01*
X102686000Y-126577000D02*
X105086000Y-126577000D01*
X102686000Y-126402000D02*
X105086000Y-126402000D01*
X102686000Y-126227000D02*
X105086000Y-126227000D01*
X47936000Y-68066000D02*
X47936000Y-73866000D01*
X45536000Y-68066000D02*
X47936000Y-68066000D01*
X45536000Y-73866000D02*
X45536000Y-68066000D01*
X45536000Y-73791000D02*
X47936000Y-73791000D01*
X45536000Y-73666000D02*
X47936000Y-73666000D01*
X47936000Y-73891000D02*
X45536000Y-73891000D01*
X45536000Y-73491000D02*
X47936000Y-73491000D01*
X45536000Y-73316000D02*
X47936000Y-73316000D01*
X45536000Y-73141000D02*
X47936000Y-73141000D01*
X29140000Y-72130000D02*
X29140000Y-77930000D01*
X26740000Y-72130000D02*
X29140000Y-72130000D01*
X26740000Y-77930000D02*
X26740000Y-72130000D01*
X26740000Y-77855000D02*
X29140000Y-77855000D01*
X26740000Y-77730000D02*
X29140000Y-77730000D01*
X29140000Y-77955000D02*
X26740000Y-77955000D01*
X26740000Y-77555000D02*
X29140000Y-77555000D01*
X26740000Y-77380000D02*
X29140000Y-77380000D01*
X26740000Y-77205000D02*
X29140000Y-77205000D01*
X47936000Y-82798000D02*
X47936000Y-88598000D01*
X45536000Y-82798000D02*
X47936000Y-82798000D01*
X45536000Y-88598000D02*
X45536000Y-82798000D01*
X45536000Y-88523000D02*
X47936000Y-88523000D01*
X45536000Y-88398000D02*
X47936000Y-88398000D01*
X47936000Y-88623000D02*
X45536000Y-88623000D01*
X45536000Y-88223000D02*
X47936000Y-88223000D01*
X45536000Y-88048000D02*
X47936000Y-88048000D01*
X45536000Y-87873000D02*
X47936000Y-87873000D01*
X29140000Y-91180000D02*
X29140000Y-96980000D01*
X26740000Y-91180000D02*
X29140000Y-91180000D01*
X26740000Y-96980000D02*
X26740000Y-91180000D01*
X26740000Y-96905000D02*
X29140000Y-96905000D01*
X26740000Y-96780000D02*
X29140000Y-96780000D01*
X29140000Y-97005000D02*
X26740000Y-97005000D01*
X26740000Y-96605000D02*
X29140000Y-96605000D01*
X26740000Y-96430000D02*
X29140000Y-96430000D01*
X26740000Y-96255000D02*
X29140000Y-96255000D01*
X47936000Y-106166000D02*
X47936000Y-111966000D01*
X45536000Y-106166000D02*
X47936000Y-106166000D01*
X45536000Y-111966000D02*
X45536000Y-106166000D01*
X45536000Y-111891000D02*
X47936000Y-111891000D01*
X45536000Y-111766000D02*
X47936000Y-111766000D01*
X47936000Y-111991000D02*
X45536000Y-111991000D01*
X45536000Y-111591000D02*
X47936000Y-111591000D01*
X45536000Y-111416000D02*
X47936000Y-111416000D01*
X45536000Y-111241000D02*
X47936000Y-111241000D01*
X29140000Y-109722000D02*
X29140000Y-115522000D01*
X26740000Y-109722000D02*
X29140000Y-109722000D01*
X26740000Y-115522000D02*
X26740000Y-109722000D01*
X26740000Y-115447000D02*
X29140000Y-115447000D01*
X26740000Y-115322000D02*
X29140000Y-115322000D01*
X29140000Y-115547000D02*
X26740000Y-115547000D01*
X26740000Y-115147000D02*
X29140000Y-115147000D01*
X26740000Y-114972000D02*
X29140000Y-114972000D01*
X26740000Y-114797000D02*
X29140000Y-114797000D01*
D10*
X160528095Y-108672380D02*
X160528095Y-109481904D01*
X160575714Y-109577142D01*
X160623333Y-109624761D01*
X160718571Y-109672380D01*
X160909047Y-109672380D01*
X161004285Y-109624761D01*
X161051904Y-109577142D01*
X161099523Y-109481904D01*
X161099523Y-108672380D01*
X162099523Y-109672380D02*
X161528095Y-109672380D01*
X161813809Y-109672380D02*
X161813809Y-108672380D01*
X161718571Y-108815238D01*
X161623333Y-108910476D01*
X161528095Y-108958095D01*
X152931904Y-105862380D02*
X152931904Y-104862380D01*
X153170000Y-104862380D01*
X153312857Y-104910000D01*
X153408095Y-105005238D01*
X153455714Y-105100476D01*
X153503333Y-105290952D01*
X153503333Y-105433809D01*
X153455714Y-105624285D01*
X153408095Y-105719523D01*
X153312857Y-105814761D01*
X153170000Y-105862380D01*
X152931904Y-105862380D01*
X154455714Y-105862380D02*
X153884285Y-105862380D01*
X154170000Y-105862380D02*
X154170000Y-104862380D01*
X154074761Y-105005238D01*
X153979523Y-105100476D01*
X153884285Y-105148095D01*
X152931904Y-103322380D02*
X152931904Y-102322380D01*
X153170000Y-102322380D01*
X153312857Y-102370000D01*
X153408095Y-102465238D01*
X153455714Y-102560476D01*
X153503333Y-102750952D01*
X153503333Y-102893809D01*
X153455714Y-103084285D01*
X153408095Y-103179523D01*
X153312857Y-103274761D01*
X153170000Y-103322380D01*
X152931904Y-103322380D01*
X154122380Y-102322380D02*
X154217619Y-102322380D01*
X154312857Y-102370000D01*
X154360476Y-102417619D01*
X154408095Y-102512857D01*
X154455714Y-102703333D01*
X154455714Y-102941428D01*
X154408095Y-103131904D01*
X154360476Y-103227142D01*
X154312857Y-103274761D01*
X154217619Y-103322380D01*
X154122380Y-103322380D01*
X154027142Y-103274761D01*
X153979523Y-103227142D01*
X153931904Y-103131904D01*
X153884285Y-102941428D01*
X153884285Y-102703333D01*
X153931904Y-102512857D01*
X153979523Y-102417619D01*
X154027142Y-102370000D01*
X154122380Y-102322380D01*
X153503333Y-100687142D02*
X153455714Y-100734761D01*
X153312857Y-100782380D01*
X153217619Y-100782380D01*
X153074761Y-100734761D01*
X152979523Y-100639523D01*
X152931904Y-100544285D01*
X152884285Y-100353809D01*
X152884285Y-100210952D01*
X152931904Y-100020476D01*
X152979523Y-99925238D01*
X153074761Y-99830000D01*
X153217619Y-99782380D01*
X153312857Y-99782380D01*
X153455714Y-99830000D01*
X153503333Y-99877619D01*
X154360476Y-99782380D02*
X154170000Y-99782380D01*
X154074761Y-99830000D01*
X154027142Y-99877619D01*
X153931904Y-100020476D01*
X153884285Y-100210952D01*
X153884285Y-100591904D01*
X153931904Y-100687142D01*
X153979523Y-100734761D01*
X154074761Y-100782380D01*
X154265238Y-100782380D01*
X154360476Y-100734761D01*
X154408095Y-100687142D01*
X154455714Y-100591904D01*
X154455714Y-100353809D01*
X154408095Y-100258571D01*
X154360476Y-100210952D01*
X154265238Y-100163333D01*
X154074761Y-100163333D01*
X153979523Y-100210952D01*
X153931904Y-100258571D01*
X153884285Y-100353809D01*
X152931904Y-98242380D02*
X152931904Y-97242380D01*
X153170000Y-97242380D01*
X153312857Y-97290000D01*
X153408095Y-97385238D01*
X153455714Y-97480476D01*
X153503333Y-97670952D01*
X153503333Y-97813809D01*
X153455714Y-98004285D01*
X153408095Y-98099523D01*
X153312857Y-98194761D01*
X153170000Y-98242380D01*
X152931904Y-98242380D01*
X153836666Y-97242380D02*
X154503333Y-97242380D01*
X154074761Y-98242380D01*
X153265238Y-95178571D02*
X153408095Y-95226190D01*
X153455714Y-95273809D01*
X153503333Y-95369047D01*
X153503333Y-95511904D01*
X153455714Y-95607142D01*
X153408095Y-95654761D01*
X153312857Y-95702380D01*
X152931904Y-95702380D01*
X152931904Y-94702380D01*
X153265238Y-94702380D01*
X153360476Y-94750000D01*
X153408095Y-94797619D01*
X153455714Y-94892857D01*
X153455714Y-94988095D01*
X153408095Y-95083333D01*
X153360476Y-95130952D01*
X153265238Y-95178571D01*
X152931904Y-95178571D01*
X154408095Y-94702380D02*
X153931904Y-94702380D01*
X153884285Y-95178571D01*
X153931904Y-95130952D01*
X154027142Y-95083333D01*
X154265238Y-95083333D01*
X154360476Y-95130952D01*
X154408095Y-95178571D01*
X154455714Y-95273809D01*
X154455714Y-95511904D01*
X154408095Y-95607142D01*
X154360476Y-95654761D01*
X154265238Y-95702380D01*
X154027142Y-95702380D01*
X153931904Y-95654761D01*
X153884285Y-95607142D01*
X153265238Y-92638571D02*
X153408095Y-92686190D01*
X153455714Y-92733809D01*
X153503333Y-92829047D01*
X153503333Y-92971904D01*
X153455714Y-93067142D01*
X153408095Y-93114761D01*
X153312857Y-93162380D01*
X152931904Y-93162380D01*
X152931904Y-92162380D01*
X153265238Y-92162380D01*
X153360476Y-92210000D01*
X153408095Y-92257619D01*
X153455714Y-92352857D01*
X153455714Y-92448095D01*
X153408095Y-92543333D01*
X153360476Y-92590952D01*
X153265238Y-92638571D01*
X152931904Y-92638571D01*
X154360476Y-92162380D02*
X154170000Y-92162380D01*
X154074761Y-92210000D01*
X154027142Y-92257619D01*
X153931904Y-92400476D01*
X153884285Y-92590952D01*
X153884285Y-92971904D01*
X153931904Y-93067142D01*
X153979523Y-93114761D01*
X154074761Y-93162380D01*
X154265238Y-93162380D01*
X154360476Y-93114761D01*
X154408095Y-93067142D01*
X154455714Y-92971904D01*
X154455714Y-92733809D01*
X154408095Y-92638571D01*
X154360476Y-92590952D01*
X154265238Y-92543333D01*
X154074761Y-92543333D01*
X153979523Y-92590952D01*
X153931904Y-92638571D01*
X153884285Y-92733809D01*
X153265238Y-90098571D02*
X153408095Y-90146190D01*
X153455714Y-90193809D01*
X153503333Y-90289047D01*
X153503333Y-90431904D01*
X153455714Y-90527142D01*
X153408095Y-90574761D01*
X153312857Y-90622380D01*
X152931904Y-90622380D01*
X152931904Y-89622380D01*
X153265238Y-89622380D01*
X153360476Y-89670000D01*
X153408095Y-89717619D01*
X153455714Y-89812857D01*
X153455714Y-89908095D01*
X153408095Y-90003333D01*
X153360476Y-90050952D01*
X153265238Y-90098571D01*
X152931904Y-90098571D01*
X153836666Y-89622380D02*
X154503333Y-89622380D01*
X154074761Y-90622380D01*
X152931904Y-88082380D02*
X152931904Y-87082380D01*
X153170000Y-87082380D01*
X153312857Y-87130000D01*
X153408095Y-87225238D01*
X153455714Y-87320476D01*
X153503333Y-87510952D01*
X153503333Y-87653809D01*
X153455714Y-87844285D01*
X153408095Y-87939523D01*
X153312857Y-88034761D01*
X153170000Y-88082380D01*
X152931904Y-88082380D01*
X154360476Y-87082380D02*
X154170000Y-87082380D01*
X154074761Y-87130000D01*
X154027142Y-87177619D01*
X153931904Y-87320476D01*
X153884285Y-87510952D01*
X153884285Y-87891904D01*
X153931904Y-87987142D01*
X153979523Y-88034761D01*
X154074761Y-88082380D01*
X154265238Y-88082380D01*
X154360476Y-88034761D01*
X154408095Y-87987142D01*
X154455714Y-87891904D01*
X154455714Y-87653809D01*
X154408095Y-87558571D01*
X154360476Y-87510952D01*
X154265238Y-87463333D01*
X154074761Y-87463333D01*
X153979523Y-87510952D01*
X153931904Y-87558571D01*
X153884285Y-87653809D01*
X153503333Y-85447142D02*
X153455714Y-85494761D01*
X153312857Y-85542380D01*
X153217619Y-85542380D01*
X153074761Y-85494761D01*
X152979523Y-85399523D01*
X152931904Y-85304285D01*
X152884285Y-85113809D01*
X152884285Y-84970952D01*
X152931904Y-84780476D01*
X152979523Y-84685238D01*
X153074761Y-84590000D01*
X153217619Y-84542380D01*
X153312857Y-84542380D01*
X153455714Y-84590000D01*
X153503333Y-84637619D01*
X153836666Y-84542380D02*
X154503333Y-84542380D01*
X154074761Y-85542380D01*
X152408095Y-82002380D02*
X152408095Y-82811904D01*
X152455714Y-82907142D01*
X152503333Y-82954761D01*
X152598571Y-83002380D01*
X152789047Y-83002380D01*
X152884285Y-82954761D01*
X152931904Y-82907142D01*
X152979523Y-82811904D01*
X152979523Y-82002380D01*
X153408095Y-82954761D02*
X153550952Y-83002380D01*
X153789047Y-83002380D01*
X153884285Y-82954761D01*
X153931904Y-82907142D01*
X153979523Y-82811904D01*
X153979523Y-82716666D01*
X153931904Y-82621428D01*
X153884285Y-82573809D01*
X153789047Y-82526190D01*
X153598571Y-82478571D01*
X153503333Y-82430952D01*
X153455714Y-82383333D01*
X153408095Y-82288095D01*
X153408095Y-82192857D01*
X153455714Y-82097619D01*
X153503333Y-82050000D01*
X153598571Y-82002380D01*
X153836666Y-82002380D01*
X153979523Y-82050000D01*
X154741428Y-82478571D02*
X154884285Y-82526190D01*
X154931904Y-82573809D01*
X154979523Y-82669047D01*
X154979523Y-82811904D01*
X154931904Y-82907142D01*
X154884285Y-82954761D01*
X154789047Y-83002380D01*
X154408095Y-83002380D01*
X154408095Y-82002380D01*
X154741428Y-82002380D01*
X154836666Y-82050000D01*
X154884285Y-82097619D01*
X154931904Y-82192857D01*
X154931904Y-82288095D01*
X154884285Y-82383333D01*
X154836666Y-82430952D01*
X154741428Y-82478571D01*
X154408095Y-82478571D01*
X153003333Y-79938571D02*
X153336666Y-79938571D01*
X153479523Y-80462380D02*
X153003333Y-80462380D01*
X153003333Y-79462380D01*
X153479523Y-79462380D01*
X153908095Y-79795714D02*
X153908095Y-80462380D01*
X153908095Y-79890952D02*
X153955714Y-79843333D01*
X154050952Y-79795714D01*
X154193809Y-79795714D01*
X154289047Y-79843333D01*
X154336666Y-79938571D01*
X154336666Y-80462380D01*
X152931904Y-77398571D02*
X153074761Y-77446190D01*
X153122380Y-77493809D01*
X153170000Y-77589047D01*
X153170000Y-77731904D01*
X153122380Y-77827142D01*
X153074761Y-77874761D01*
X152979523Y-77922380D01*
X152598571Y-77922380D01*
X152598571Y-76922380D01*
X152931904Y-76922380D01*
X153027142Y-76970000D01*
X153074761Y-77017619D01*
X153122380Y-77112857D01*
X153122380Y-77208095D01*
X153074761Y-77303333D01*
X153027142Y-77350952D01*
X152931904Y-77398571D01*
X152598571Y-77398571D01*
X153550952Y-77636666D02*
X154027142Y-77636666D01*
X153455714Y-77922380D02*
X153789047Y-76922380D01*
X154122380Y-77922380D01*
X154312857Y-76922380D02*
X154884285Y-76922380D01*
X154598571Y-77922380D02*
X154598571Y-76922380D01*
X167671904Y-104862380D02*
X168243333Y-104862380D01*
X167957619Y-105862380D02*
X167957619Y-104862380D01*
X168910000Y-105338571D02*
X168576666Y-105338571D01*
X168576666Y-105862380D02*
X168576666Y-104862380D01*
X169052857Y-104862380D01*
X169433809Y-104862380D02*
X169433809Y-105671904D01*
X169481428Y-105767142D01*
X169529047Y-105814761D01*
X169624285Y-105862380D01*
X169814761Y-105862380D01*
X169910000Y-105814761D01*
X169957619Y-105767142D01*
X170005238Y-105671904D01*
X170005238Y-104862380D01*
X168171904Y-103322380D02*
X168171904Y-102322380D01*
X168410000Y-102322380D01*
X168552857Y-102370000D01*
X168648095Y-102465238D01*
X168695714Y-102560476D01*
X168743333Y-102750952D01*
X168743333Y-102893809D01*
X168695714Y-103084285D01*
X168648095Y-103179523D01*
X168552857Y-103274761D01*
X168410000Y-103322380D01*
X168171904Y-103322380D01*
X169076666Y-102322380D02*
X169695714Y-102322380D01*
X169362380Y-102703333D01*
X169505238Y-102703333D01*
X169600476Y-102750952D01*
X169648095Y-102798571D01*
X169695714Y-102893809D01*
X169695714Y-103131904D01*
X169648095Y-103227142D01*
X169600476Y-103274761D01*
X169505238Y-103322380D01*
X169219523Y-103322380D01*
X169124285Y-103274761D01*
X169076666Y-103227142D01*
X168171904Y-100782380D02*
X168171904Y-99782380D01*
X168410000Y-99782380D01*
X168552857Y-99830000D01*
X168648095Y-99925238D01*
X168695714Y-100020476D01*
X168743333Y-100210952D01*
X168743333Y-100353809D01*
X168695714Y-100544285D01*
X168648095Y-100639523D01*
X168552857Y-100734761D01*
X168410000Y-100782380D01*
X168171904Y-100782380D01*
X169124285Y-99877619D02*
X169171904Y-99830000D01*
X169267142Y-99782380D01*
X169505238Y-99782380D01*
X169600476Y-99830000D01*
X169648095Y-99877619D01*
X169695714Y-99972857D01*
X169695714Y-100068095D01*
X169648095Y-100210952D01*
X169076666Y-100782380D01*
X169695714Y-100782380D01*
X168505238Y-97718571D02*
X168648095Y-97766190D01*
X168695714Y-97813809D01*
X168743333Y-97909047D01*
X168743333Y-98051904D01*
X168695714Y-98147142D01*
X168648095Y-98194761D01*
X168552857Y-98242380D01*
X168171904Y-98242380D01*
X168171904Y-97242380D01*
X168505238Y-97242380D01*
X168600476Y-97290000D01*
X168648095Y-97337619D01*
X168695714Y-97432857D01*
X168695714Y-97528095D01*
X168648095Y-97623333D01*
X168600476Y-97670952D01*
X168505238Y-97718571D01*
X168171904Y-97718571D01*
X169076666Y-97242380D02*
X169695714Y-97242380D01*
X169362380Y-97623333D01*
X169505238Y-97623333D01*
X169600476Y-97670952D01*
X169648095Y-97718571D01*
X169695714Y-97813809D01*
X169695714Y-98051904D01*
X169648095Y-98147142D01*
X169600476Y-98194761D01*
X169505238Y-98242380D01*
X169219523Y-98242380D01*
X169124285Y-98194761D01*
X169076666Y-98147142D01*
X168505238Y-95178571D02*
X168648095Y-95226190D01*
X168695714Y-95273809D01*
X168743333Y-95369047D01*
X168743333Y-95511904D01*
X168695714Y-95607142D01*
X168648095Y-95654761D01*
X168552857Y-95702380D01*
X168171904Y-95702380D01*
X168171904Y-94702380D01*
X168505238Y-94702380D01*
X168600476Y-94750000D01*
X168648095Y-94797619D01*
X168695714Y-94892857D01*
X168695714Y-94988095D01*
X168648095Y-95083333D01*
X168600476Y-95130952D01*
X168505238Y-95178571D01*
X168171904Y-95178571D01*
X169124285Y-94797619D02*
X169171904Y-94750000D01*
X169267142Y-94702380D01*
X169505238Y-94702380D01*
X169600476Y-94750000D01*
X169648095Y-94797619D01*
X169695714Y-94892857D01*
X169695714Y-94988095D01*
X169648095Y-95130952D01*
X169076666Y-95702380D01*
X169695714Y-95702380D01*
X168505238Y-92638571D02*
X168648095Y-92686190D01*
X168695714Y-92733809D01*
X168743333Y-92829047D01*
X168743333Y-92971904D01*
X168695714Y-93067142D01*
X168648095Y-93114761D01*
X168552857Y-93162380D01*
X168171904Y-93162380D01*
X168171904Y-92162380D01*
X168505238Y-92162380D01*
X168600476Y-92210000D01*
X168648095Y-92257619D01*
X168695714Y-92352857D01*
X168695714Y-92448095D01*
X168648095Y-92543333D01*
X168600476Y-92590952D01*
X168505238Y-92638571D01*
X168171904Y-92638571D01*
X169695714Y-93162380D02*
X169124285Y-93162380D01*
X169410000Y-93162380D02*
X169410000Y-92162380D01*
X169314761Y-92305238D01*
X169219523Y-92400476D01*
X169124285Y-92448095D01*
X168576666Y-90098571D02*
X168243333Y-90098571D01*
X168243333Y-90622380D02*
X168243333Y-89622380D01*
X168719523Y-89622380D01*
X169290952Y-89622380D02*
X169386190Y-89622380D01*
X169481428Y-89670000D01*
X169529047Y-89717619D01*
X169576666Y-89812857D01*
X169624285Y-90003333D01*
X169624285Y-90241428D01*
X169576666Y-90431904D01*
X169529047Y-90527142D01*
X169481428Y-90574761D01*
X169386190Y-90622380D01*
X169290952Y-90622380D01*
X169195714Y-90574761D01*
X169148095Y-90527142D01*
X169100476Y-90431904D01*
X169052857Y-90241428D01*
X169052857Y-90003333D01*
X169100476Y-89812857D01*
X169148095Y-89717619D01*
X169195714Y-89670000D01*
X169290952Y-89622380D01*
X168576666Y-87558571D02*
X168243333Y-87558571D01*
X168243333Y-88082380D02*
X168243333Y-87082380D01*
X168719523Y-87082380D01*
X169624285Y-88082380D02*
X169052857Y-88082380D01*
X169338571Y-88082380D02*
X169338571Y-87082380D01*
X169243333Y-87225238D01*
X169148095Y-87320476D01*
X169052857Y-87368095D01*
X168576666Y-85018571D02*
X168243333Y-85018571D01*
X168243333Y-85542380D02*
X168243333Y-84542380D01*
X168719523Y-84542380D01*
X169529047Y-84875714D02*
X169529047Y-85542380D01*
X169290952Y-84494761D02*
X169052857Y-85209047D01*
X169671904Y-85209047D01*
X168576666Y-82478571D02*
X168243333Y-82478571D01*
X168243333Y-83002380D02*
X168243333Y-82002380D01*
X168719523Y-82002380D01*
X169576666Y-82002380D02*
X169100476Y-82002380D01*
X169052857Y-82478571D01*
X169100476Y-82430952D01*
X169195714Y-82383333D01*
X169433809Y-82383333D01*
X169529047Y-82430952D01*
X169576666Y-82478571D01*
X169624285Y-82573809D01*
X169624285Y-82811904D01*
X169576666Y-82907142D01*
X169529047Y-82954761D01*
X169433809Y-83002380D01*
X169195714Y-83002380D01*
X169100476Y-82954761D01*
X169052857Y-82907142D01*
X168576666Y-79938571D02*
X168243333Y-79938571D01*
X168243333Y-80462380D02*
X168243333Y-79462380D01*
X168719523Y-79462380D01*
X169529047Y-79462380D02*
X169338571Y-79462380D01*
X169243333Y-79510000D01*
X169195714Y-79557619D01*
X169100476Y-79700476D01*
X169052857Y-79890952D01*
X169052857Y-80271904D01*
X169100476Y-80367142D01*
X169148095Y-80414761D01*
X169243333Y-80462380D01*
X169433809Y-80462380D01*
X169529047Y-80414761D01*
X169576666Y-80367142D01*
X169624285Y-80271904D01*
X169624285Y-80033809D01*
X169576666Y-79938571D01*
X169529047Y-79890952D01*
X169433809Y-79843333D01*
X169243333Y-79843333D01*
X169148095Y-79890952D01*
X169100476Y-79938571D01*
X169052857Y-80033809D01*
X168576666Y-77398571D02*
X168243333Y-77398571D01*
X168243333Y-77922380D02*
X168243333Y-76922380D01*
X168719523Y-76922380D01*
X169005238Y-76922380D02*
X169671904Y-76922380D01*
X169243333Y-77922380D01*
X168148095Y-74430000D02*
X168052857Y-74382380D01*
X167910000Y-74382380D01*
X167767142Y-74430000D01*
X167671904Y-74525238D01*
X167624285Y-74620476D01*
X167576666Y-74810952D01*
X167576666Y-74953809D01*
X167624285Y-75144285D01*
X167671904Y-75239523D01*
X167767142Y-75334761D01*
X167910000Y-75382380D01*
X168005238Y-75382380D01*
X168148095Y-75334761D01*
X168195714Y-75287142D01*
X168195714Y-74953809D01*
X168005238Y-74953809D01*
X168624285Y-75382380D02*
X168624285Y-74382380D01*
X169195714Y-75382380D01*
X169195714Y-74382380D01*
X169671904Y-75382380D02*
X169671904Y-74382380D01*
X169910000Y-74382380D01*
X170052857Y-74430000D01*
X170148095Y-74525238D01*
X170195714Y-74620476D01*
X170243333Y-74810952D01*
X170243333Y-74953809D01*
X170195714Y-75144285D01*
X170148095Y-75239523D01*
X170052857Y-75334761D01*
X169910000Y-75382380D01*
X169671904Y-75382380D01*
X167886190Y-72556666D02*
X168362380Y-72556666D01*
X167790952Y-72842380D02*
X168124285Y-71842380D01*
X168457619Y-72842380D01*
X169362380Y-72842380D02*
X169029047Y-72366190D01*
X168790952Y-72842380D02*
X168790952Y-71842380D01*
X169171904Y-71842380D01*
X169267142Y-71890000D01*
X169314761Y-71937619D01*
X169362380Y-72032857D01*
X169362380Y-72175714D01*
X169314761Y-72270952D01*
X169267142Y-72318571D01*
X169171904Y-72366190D01*
X168790952Y-72366190D01*
X169648095Y-72175714D02*
X170029047Y-72175714D01*
X169790952Y-72842380D02*
X169790952Y-71985238D01*
X169838571Y-71890000D01*
X169933809Y-71842380D01*
X170029047Y-71842380D01*
X168148095Y-69302380D02*
X168767142Y-69302380D01*
X168433809Y-69683333D01*
X168576666Y-69683333D01*
X168671904Y-69730952D01*
X168719523Y-69778571D01*
X168767142Y-69873809D01*
X168767142Y-70111904D01*
X168719523Y-70207142D01*
X168671904Y-70254761D01*
X168576666Y-70302380D01*
X168290952Y-70302380D01*
X168195714Y-70254761D01*
X168148095Y-70207142D01*
X169052857Y-69302380D02*
X169386190Y-70302380D01*
X169719523Y-69302380D01*
X168362380Y-67762380D02*
X168029047Y-67286190D01*
X167790952Y-67762380D02*
X167790952Y-66762380D01*
X168171904Y-66762380D01*
X168267142Y-66810000D01*
X168314761Y-66857619D01*
X168362380Y-66952857D01*
X168362380Y-67095714D01*
X168314761Y-67190952D01*
X168267142Y-67238571D01*
X168171904Y-67286190D01*
X167790952Y-67286190D01*
X168743333Y-67714761D02*
X168886190Y-67762380D01*
X169124285Y-67762380D01*
X169219523Y-67714761D01*
X169267142Y-67667142D01*
X169314761Y-67571904D01*
X169314761Y-67476666D01*
X169267142Y-67381428D01*
X169219523Y-67333809D01*
X169124285Y-67286190D01*
X168933809Y-67238571D01*
X168838571Y-67190952D01*
X168790952Y-67143333D01*
X168743333Y-67048095D01*
X168743333Y-66952857D01*
X168790952Y-66857619D01*
X168838571Y-66810000D01*
X168933809Y-66762380D01*
X169171904Y-66762380D01*
X169314761Y-66810000D01*
X169600476Y-66762380D02*
X170171904Y-66762380D01*
X169886190Y-67762380D02*
X169886190Y-66762380D01*
D11*
X207541904Y-75636380D02*
X207541904Y-74636380D01*
X208113333Y-75636380D02*
X207684761Y-75064952D01*
X208113333Y-74636380D02*
X207541904Y-75207809D01*
X209018095Y-74636380D02*
X208541904Y-74636380D01*
X208494285Y-75112571D01*
X208541904Y-75064952D01*
X208637142Y-75017333D01*
X208875238Y-75017333D01*
X208970476Y-75064952D01*
X209018095Y-75112571D01*
X209065714Y-75207809D01*
X209065714Y-75445904D01*
X209018095Y-75541142D01*
X208970476Y-75588761D01*
X208875238Y-75636380D01*
X208637142Y-75636380D01*
X208541904Y-75588761D01*
X208494285Y-75541142D01*
X302061714Y-117800380D02*
X302061714Y-116800380D01*
X302633142Y-117800380D02*
X302204571Y-117228952D01*
X302633142Y-116800380D02*
X302061714Y-117371809D01*
X303014095Y-116895619D02*
X303061714Y-116848000D01*
X303156952Y-116800380D01*
X303395047Y-116800380D01*
X303490285Y-116848000D01*
X303537904Y-116895619D01*
X303585523Y-116990857D01*
X303585523Y-117086095D01*
X303537904Y-117228952D01*
X302966476Y-117800380D01*
X303585523Y-117800380D01*
X304204571Y-116800380D02*
X304299809Y-116800380D01*
X304395047Y-116848000D01*
X304442666Y-116895619D01*
X304490285Y-116990857D01*
X304537904Y-117181333D01*
X304537904Y-117419428D01*
X304490285Y-117609904D01*
X304442666Y-117705142D01*
X304395047Y-117752761D01*
X304299809Y-117800380D01*
X304204571Y-117800380D01*
X304109333Y-117752761D01*
X304061714Y-117705142D01*
X304014095Y-117609904D01*
X303966476Y-117419428D01*
X303966476Y-117181333D01*
X304014095Y-116990857D01*
X304061714Y-116895619D01*
X304109333Y-116848000D01*
X304204571Y-116800380D01*
X128071714Y-151836380D02*
X128071714Y-150836380D01*
X128643142Y-151836380D02*
X128214571Y-151264952D01*
X128643142Y-150836380D02*
X128071714Y-151407809D01*
X128976476Y-150836380D02*
X129595523Y-150836380D01*
X129262190Y-151217333D01*
X129405047Y-151217333D01*
X129500285Y-151264952D01*
X129547904Y-151312571D01*
X129595523Y-151407809D01*
X129595523Y-151645904D01*
X129547904Y-151741142D01*
X129500285Y-151788761D01*
X129405047Y-151836380D01*
X129119333Y-151836380D01*
X129024095Y-151788761D01*
X128976476Y-151741142D01*
X130452666Y-150836380D02*
X130262190Y-150836380D01*
X130166952Y-150884000D01*
X130119333Y-150931619D01*
X130024095Y-151074476D01*
X129976476Y-151264952D01*
X129976476Y-151645904D01*
X130024095Y-151741142D01*
X130071714Y-151788761D01*
X130166952Y-151836380D01*
X130357428Y-151836380D01*
X130452666Y-151788761D01*
X130500285Y-151741142D01*
X130547904Y-151645904D01*
X130547904Y-151407809D01*
X130500285Y-151312571D01*
X130452666Y-151264952D01*
X130357428Y-151217333D01*
X130166952Y-151217333D01*
X130071714Y-151264952D01*
X130024095Y-151312571D01*
X129976476Y-151407809D01*
D10*
X292715904Y-75520476D02*
X291915904Y-75520476D01*
X291915904Y-75330000D01*
X291954000Y-75215714D01*
X292030190Y-75139523D01*
X292106380Y-75101428D01*
X292258761Y-75063333D01*
X292373047Y-75063333D01*
X292525428Y-75101428D01*
X292601619Y-75139523D01*
X292677809Y-75215714D01*
X292715904Y-75330000D01*
X292715904Y-75520476D01*
X291915904Y-74568095D02*
X291915904Y-74491904D01*
X291954000Y-74415714D01*
X291992095Y-74377619D01*
X292068285Y-74339523D01*
X292220666Y-74301428D01*
X292411142Y-74301428D01*
X292563523Y-74339523D01*
X292639714Y-74377619D01*
X292677809Y-74415714D01*
X292715904Y-74491904D01*
X292715904Y-74568095D01*
X292677809Y-74644285D01*
X292639714Y-74682380D01*
X292563523Y-74720476D01*
X292411142Y-74758571D01*
X292220666Y-74758571D01*
X292068285Y-74720476D01*
X291992095Y-74682380D01*
X291954000Y-74644285D01*
X291915904Y-74568095D01*
X273919904Y-71456476D02*
X273119904Y-71456476D01*
X273119904Y-71266000D01*
X273158000Y-71151714D01*
X273234190Y-71075523D01*
X273310380Y-71037428D01*
X273462761Y-70999333D01*
X273577047Y-70999333D01*
X273729428Y-71037428D01*
X273805619Y-71075523D01*
X273881809Y-71151714D01*
X273919904Y-71266000D01*
X273919904Y-71456476D01*
X273919904Y-70237428D02*
X273919904Y-70694571D01*
X273919904Y-70466000D02*
X273119904Y-70466000D01*
X273234190Y-70542190D01*
X273310380Y-70618380D01*
X273348476Y-70694571D01*
X254869904Y-67646476D02*
X254069904Y-67646476D01*
X254069904Y-67456000D01*
X254108000Y-67341714D01*
X254184190Y-67265523D01*
X254260380Y-67227428D01*
X254412761Y-67189333D01*
X254527047Y-67189333D01*
X254679428Y-67227428D01*
X254755619Y-67265523D01*
X254831809Y-67341714D01*
X254869904Y-67456000D01*
X254869904Y-67646476D01*
X254146095Y-66884571D02*
X254108000Y-66846476D01*
X254069904Y-66770285D01*
X254069904Y-66579809D01*
X254108000Y-66503619D01*
X254146095Y-66465523D01*
X254222285Y-66427428D01*
X254298476Y-66427428D01*
X254412761Y-66465523D01*
X254869904Y-66922666D01*
X254869904Y-66427428D01*
X235819904Y-63582476D02*
X235019904Y-63582476D01*
X235019904Y-63392000D01*
X235058000Y-63277714D01*
X235134190Y-63201523D01*
X235210380Y-63163428D01*
X235362761Y-63125333D01*
X235477047Y-63125333D01*
X235629428Y-63163428D01*
X235705619Y-63201523D01*
X235781809Y-63277714D01*
X235819904Y-63392000D01*
X235819904Y-63582476D01*
X235019904Y-62858666D02*
X235019904Y-62363428D01*
X235324666Y-62630095D01*
X235324666Y-62515809D01*
X235362761Y-62439619D01*
X235400857Y-62401523D01*
X235477047Y-62363428D01*
X235667523Y-62363428D01*
X235743714Y-62401523D01*
X235781809Y-62439619D01*
X235819904Y-62515809D01*
X235819904Y-62744380D01*
X235781809Y-62820571D01*
X235743714Y-62858666D01*
X217023904Y-67392476D02*
X216223904Y-67392476D01*
X216223904Y-67202000D01*
X216262000Y-67087714D01*
X216338190Y-67011523D01*
X216414380Y-66973428D01*
X216566761Y-66935333D01*
X216681047Y-66935333D01*
X216833428Y-66973428D01*
X216909619Y-67011523D01*
X216985809Y-67087714D01*
X217023904Y-67202000D01*
X217023904Y-67392476D01*
X216490571Y-66249619D02*
X217023904Y-66249619D01*
X216185809Y-66440095D02*
X216757238Y-66630571D01*
X216757238Y-66135333D01*
X182733904Y-71202476D02*
X181933904Y-71202476D01*
X181933904Y-71012000D01*
X181972000Y-70897714D01*
X182048190Y-70821523D01*
X182124380Y-70783428D01*
X182276761Y-70745333D01*
X182391047Y-70745333D01*
X182543428Y-70783428D01*
X182619619Y-70821523D01*
X182695809Y-70897714D01*
X182733904Y-71012000D01*
X182733904Y-71202476D01*
X181933904Y-70021523D02*
X181933904Y-70402476D01*
X182314857Y-70440571D01*
X182276761Y-70402476D01*
X182238666Y-70326285D01*
X182238666Y-70135809D01*
X182276761Y-70059619D01*
X182314857Y-70021523D01*
X182391047Y-69983428D01*
X182581523Y-69983428D01*
X182657714Y-70021523D01*
X182695809Y-70059619D01*
X182733904Y-70135809D01*
X182733904Y-70326285D01*
X182695809Y-70402476D01*
X182657714Y-70440571D01*
X140208904Y-71456476D02*
X139408904Y-71456476D01*
X139408904Y-71266000D01*
X139447000Y-71151714D01*
X139523190Y-71075523D01*
X139599380Y-71037428D01*
X139751761Y-70999333D01*
X139866047Y-70999333D01*
X140018428Y-71037428D01*
X140094619Y-71075523D01*
X140170809Y-71151714D01*
X140208904Y-71266000D01*
X140208904Y-71456476D01*
X139408904Y-70313619D02*
X139408904Y-70466000D01*
X139447000Y-70542190D01*
X139485095Y-70580285D01*
X139599380Y-70656476D01*
X139751761Y-70694571D01*
X140056523Y-70694571D01*
X140132714Y-70656476D01*
X140170809Y-70618380D01*
X140208904Y-70542190D01*
X140208904Y-70389809D01*
X140170809Y-70313619D01*
X140132714Y-70275523D01*
X140056523Y-70237428D01*
X139866047Y-70237428D01*
X139789857Y-70275523D01*
X139751761Y-70313619D01*
X139713666Y-70389809D01*
X139713666Y-70542190D01*
X139751761Y-70618380D01*
X139789857Y-70656476D01*
X139866047Y-70694571D01*
X106172904Y-67646476D02*
X105372904Y-67646476D01*
X105372904Y-67456000D01*
X105411000Y-67341714D01*
X105487190Y-67265523D01*
X105563380Y-67227428D01*
X105715761Y-67189333D01*
X105830047Y-67189333D01*
X105982428Y-67227428D01*
X106058619Y-67265523D01*
X106134809Y-67341714D01*
X106172904Y-67456000D01*
X106172904Y-67646476D01*
X105372904Y-66922666D02*
X105372904Y-66389333D01*
X106172904Y-66732190D01*
X87122904Y-63582476D02*
X86322904Y-63582476D01*
X86322904Y-63392000D01*
X86361000Y-63277714D01*
X86437190Y-63201523D01*
X86513380Y-63163428D01*
X86665761Y-63125333D01*
X86780047Y-63125333D01*
X86932428Y-63163428D01*
X87008619Y-63201523D01*
X87084809Y-63277714D01*
X87122904Y-63392000D01*
X87122904Y-63582476D01*
X86665761Y-62668190D02*
X86627666Y-62744380D01*
X86589571Y-62782476D01*
X86513380Y-62820571D01*
X86475285Y-62820571D01*
X86399095Y-62782476D01*
X86361000Y-62744380D01*
X86322904Y-62668190D01*
X86322904Y-62515809D01*
X86361000Y-62439619D01*
X86399095Y-62401523D01*
X86475285Y-62363428D01*
X86513380Y-62363428D01*
X86589571Y-62401523D01*
X86627666Y-62439619D01*
X86665761Y-62515809D01*
X86665761Y-62668190D01*
X86703857Y-62744380D01*
X86741952Y-62782476D01*
X86818142Y-62820571D01*
X86970523Y-62820571D01*
X87046714Y-62782476D01*
X87084809Y-62744380D01*
X87122904Y-62668190D01*
X87122904Y-62515809D01*
X87084809Y-62439619D01*
X87046714Y-62401523D01*
X86970523Y-62363428D01*
X86818142Y-62363428D01*
X86741952Y-62401523D01*
X86703857Y-62439619D01*
X86665761Y-62515809D01*
X68072904Y-67392476D02*
X67272904Y-67392476D01*
X67272904Y-67202000D01*
X67311000Y-67087714D01*
X67387190Y-67011523D01*
X67463380Y-66973428D01*
X67615761Y-66935333D01*
X67730047Y-66935333D01*
X67882428Y-66973428D01*
X67958619Y-67011523D01*
X68034809Y-67087714D01*
X68072904Y-67202000D01*
X68072904Y-67392476D01*
X68072904Y-66554380D02*
X68072904Y-66402000D01*
X68034809Y-66325809D01*
X67996714Y-66287714D01*
X67882428Y-66211523D01*
X67730047Y-66173428D01*
X67425285Y-66173428D01*
X67349095Y-66211523D01*
X67311000Y-66249619D01*
X67272904Y-66325809D01*
X67272904Y-66478190D01*
X67311000Y-66554380D01*
X67349095Y-66592476D01*
X67425285Y-66630571D01*
X67615761Y-66630571D01*
X67691952Y-66592476D01*
X67730047Y-66554380D01*
X67768142Y-66478190D01*
X67768142Y-66325809D01*
X67730047Y-66249619D01*
X67691952Y-66211523D01*
X67615761Y-66173428D01*
X292969904Y-94951428D02*
X292169904Y-94951428D01*
X292169904Y-94760952D01*
X292208000Y-94646666D01*
X292284190Y-94570476D01*
X292360380Y-94532380D01*
X292512761Y-94494285D01*
X292627047Y-94494285D01*
X292779428Y-94532380D01*
X292855619Y-94570476D01*
X292931809Y-94646666D01*
X292969904Y-94760952D01*
X292969904Y-94951428D01*
X292969904Y-93732380D02*
X292969904Y-94189523D01*
X292969904Y-93960952D02*
X292169904Y-93960952D01*
X292284190Y-94037142D01*
X292360380Y-94113333D01*
X292398476Y-94189523D01*
X292169904Y-93237142D02*
X292169904Y-93160952D01*
X292208000Y-93084761D01*
X292246095Y-93046666D01*
X292322285Y-93008571D01*
X292474666Y-92970476D01*
X292665142Y-92970476D01*
X292817523Y-93008571D01*
X292893714Y-93046666D01*
X292931809Y-93084761D01*
X292969904Y-93160952D01*
X292969904Y-93237142D01*
X292931809Y-93313333D01*
X292893714Y-93351428D01*
X292817523Y-93389523D01*
X292665142Y-93427619D01*
X292474666Y-93427619D01*
X292322285Y-93389523D01*
X292246095Y-93351428D01*
X292208000Y-93313333D01*
X292169904Y-93237142D01*
X273919904Y-90887428D02*
X273119904Y-90887428D01*
X273119904Y-90696952D01*
X273158000Y-90582666D01*
X273234190Y-90506476D01*
X273310380Y-90468380D01*
X273462761Y-90430285D01*
X273577047Y-90430285D01*
X273729428Y-90468380D01*
X273805619Y-90506476D01*
X273881809Y-90582666D01*
X273919904Y-90696952D01*
X273919904Y-90887428D01*
X273919904Y-89668380D02*
X273919904Y-90125523D01*
X273919904Y-89896952D02*
X273119904Y-89896952D01*
X273234190Y-89973142D01*
X273310380Y-90049333D01*
X273348476Y-90125523D01*
X273919904Y-88906476D02*
X273919904Y-89363619D01*
X273919904Y-89135047D02*
X273119904Y-89135047D01*
X273234190Y-89211238D01*
X273310380Y-89287428D01*
X273348476Y-89363619D01*
X254869904Y-87077428D02*
X254069904Y-87077428D01*
X254069904Y-86886952D01*
X254108000Y-86772666D01*
X254184190Y-86696476D01*
X254260380Y-86658380D01*
X254412761Y-86620285D01*
X254527047Y-86620285D01*
X254679428Y-86658380D01*
X254755619Y-86696476D01*
X254831809Y-86772666D01*
X254869904Y-86886952D01*
X254869904Y-87077428D01*
X254869904Y-85858380D02*
X254869904Y-86315523D01*
X254869904Y-86086952D02*
X254069904Y-86086952D01*
X254184190Y-86163142D01*
X254260380Y-86239333D01*
X254298476Y-86315523D01*
X254146095Y-85553619D02*
X254108000Y-85515523D01*
X254069904Y-85439333D01*
X254069904Y-85248857D01*
X254108000Y-85172666D01*
X254146095Y-85134571D01*
X254222285Y-85096476D01*
X254298476Y-85096476D01*
X254412761Y-85134571D01*
X254869904Y-85591714D01*
X254869904Y-85096476D01*
X235819904Y-83013428D02*
X235019904Y-83013428D01*
X235019904Y-82822952D01*
X235058000Y-82708666D01*
X235134190Y-82632476D01*
X235210380Y-82594380D01*
X235362761Y-82556285D01*
X235477047Y-82556285D01*
X235629428Y-82594380D01*
X235705619Y-82632476D01*
X235781809Y-82708666D01*
X235819904Y-82822952D01*
X235819904Y-83013428D01*
X235819904Y-81794380D02*
X235819904Y-82251523D01*
X235819904Y-82022952D02*
X235019904Y-82022952D01*
X235134190Y-82099142D01*
X235210380Y-82175333D01*
X235248476Y-82251523D01*
X235019904Y-81527714D02*
X235019904Y-81032476D01*
X235324666Y-81299142D01*
X235324666Y-81184857D01*
X235362761Y-81108666D01*
X235400857Y-81070571D01*
X235477047Y-81032476D01*
X235667523Y-81032476D01*
X235743714Y-81070571D01*
X235781809Y-81108666D01*
X235819904Y-81184857D01*
X235819904Y-81413428D01*
X235781809Y-81489619D01*
X235743714Y-81527714D01*
X217023904Y-86823428D02*
X216223904Y-86823428D01*
X216223904Y-86632952D01*
X216262000Y-86518666D01*
X216338190Y-86442476D01*
X216414380Y-86404380D01*
X216566761Y-86366285D01*
X216681047Y-86366285D01*
X216833428Y-86404380D01*
X216909619Y-86442476D01*
X216985809Y-86518666D01*
X217023904Y-86632952D01*
X217023904Y-86823428D01*
X217023904Y-85604380D02*
X217023904Y-86061523D01*
X217023904Y-85832952D02*
X216223904Y-85832952D01*
X216338190Y-85909142D01*
X216414380Y-85985333D01*
X216452476Y-86061523D01*
X216490571Y-84918666D02*
X217023904Y-84918666D01*
X216185809Y-85109142D02*
X216757238Y-85299619D01*
X216757238Y-84804380D01*
X197973904Y-90887428D02*
X197173904Y-90887428D01*
X197173904Y-90696952D01*
X197212000Y-90582666D01*
X197288190Y-90506476D01*
X197364380Y-90468380D01*
X197516761Y-90430285D01*
X197631047Y-90430285D01*
X197783428Y-90468380D01*
X197859619Y-90506476D01*
X197935809Y-90582666D01*
X197973904Y-90696952D01*
X197973904Y-90887428D01*
X197973904Y-89668380D02*
X197973904Y-90125523D01*
X197973904Y-89896952D02*
X197173904Y-89896952D01*
X197288190Y-89973142D01*
X197364380Y-90049333D01*
X197402476Y-90125523D01*
X197173904Y-88944571D02*
X197173904Y-89325523D01*
X197554857Y-89363619D01*
X197516761Y-89325523D01*
X197478666Y-89249333D01*
X197478666Y-89058857D01*
X197516761Y-88982666D01*
X197554857Y-88944571D01*
X197631047Y-88906476D01*
X197821523Y-88906476D01*
X197897714Y-88944571D01*
X197935809Y-88982666D01*
X197973904Y-89058857D01*
X197973904Y-89249333D01*
X197935809Y-89325523D01*
X197897714Y-89363619D01*
X125222904Y-90633428D02*
X124422904Y-90633428D01*
X124422904Y-90442952D01*
X124461000Y-90328666D01*
X124537190Y-90252476D01*
X124613380Y-90214380D01*
X124765761Y-90176285D01*
X124880047Y-90176285D01*
X125032428Y-90214380D01*
X125108619Y-90252476D01*
X125184809Y-90328666D01*
X125222904Y-90442952D01*
X125222904Y-90633428D01*
X125222904Y-89414380D02*
X125222904Y-89871523D01*
X125222904Y-89642952D02*
X124422904Y-89642952D01*
X124537190Y-89719142D01*
X124613380Y-89795333D01*
X124651476Y-89871523D01*
X124422904Y-88728666D02*
X124422904Y-88881047D01*
X124461000Y-88957238D01*
X124499095Y-88995333D01*
X124613380Y-89071523D01*
X124765761Y-89109619D01*
X125070523Y-89109619D01*
X125146714Y-89071523D01*
X125184809Y-89033428D01*
X125222904Y-88957238D01*
X125222904Y-88804857D01*
X125184809Y-88728666D01*
X125146714Y-88690571D01*
X125070523Y-88652476D01*
X124880047Y-88652476D01*
X124803857Y-88690571D01*
X124765761Y-88728666D01*
X124727666Y-88804857D01*
X124727666Y-88957238D01*
X124765761Y-89033428D01*
X124803857Y-89071523D01*
X124880047Y-89109619D01*
X106172904Y-87077428D02*
X105372904Y-87077428D01*
X105372904Y-86886952D01*
X105411000Y-86772666D01*
X105487190Y-86696476D01*
X105563380Y-86658380D01*
X105715761Y-86620285D01*
X105830047Y-86620285D01*
X105982428Y-86658380D01*
X106058619Y-86696476D01*
X106134809Y-86772666D01*
X106172904Y-86886952D01*
X106172904Y-87077428D01*
X106172904Y-85858380D02*
X106172904Y-86315523D01*
X106172904Y-86086952D02*
X105372904Y-86086952D01*
X105487190Y-86163142D01*
X105563380Y-86239333D01*
X105601476Y-86315523D01*
X105372904Y-85591714D02*
X105372904Y-85058380D01*
X106172904Y-85401238D01*
X87122904Y-82759428D02*
X86322904Y-82759428D01*
X86322904Y-82568952D01*
X86361000Y-82454666D01*
X86437190Y-82378476D01*
X86513380Y-82340380D01*
X86665761Y-82302285D01*
X86780047Y-82302285D01*
X86932428Y-82340380D01*
X87008619Y-82378476D01*
X87084809Y-82454666D01*
X87122904Y-82568952D01*
X87122904Y-82759428D01*
X87122904Y-81540380D02*
X87122904Y-81997523D01*
X87122904Y-81768952D02*
X86322904Y-81768952D01*
X86437190Y-81845142D01*
X86513380Y-81921333D01*
X86551476Y-81997523D01*
X86665761Y-81083238D02*
X86627666Y-81159428D01*
X86589571Y-81197523D01*
X86513380Y-81235619D01*
X86475285Y-81235619D01*
X86399095Y-81197523D01*
X86361000Y-81159428D01*
X86322904Y-81083238D01*
X86322904Y-80930857D01*
X86361000Y-80854666D01*
X86399095Y-80816571D01*
X86475285Y-80778476D01*
X86513380Y-80778476D01*
X86589571Y-80816571D01*
X86627666Y-80854666D01*
X86665761Y-80930857D01*
X86665761Y-81083238D01*
X86703857Y-81159428D01*
X86741952Y-81197523D01*
X86818142Y-81235619D01*
X86970523Y-81235619D01*
X87046714Y-81197523D01*
X87084809Y-81159428D01*
X87122904Y-81083238D01*
X87122904Y-80930857D01*
X87084809Y-80854666D01*
X87046714Y-80816571D01*
X86970523Y-80778476D01*
X86818142Y-80778476D01*
X86741952Y-80816571D01*
X86703857Y-80854666D01*
X86665761Y-80930857D01*
X68072904Y-86823428D02*
X67272904Y-86823428D01*
X67272904Y-86632952D01*
X67311000Y-86518666D01*
X67387190Y-86442476D01*
X67463380Y-86404380D01*
X67615761Y-86366285D01*
X67730047Y-86366285D01*
X67882428Y-86404380D01*
X67958619Y-86442476D01*
X68034809Y-86518666D01*
X68072904Y-86632952D01*
X68072904Y-86823428D01*
X68072904Y-85604380D02*
X68072904Y-86061523D01*
X68072904Y-85832952D02*
X67272904Y-85832952D01*
X67387190Y-85909142D01*
X67463380Y-85985333D01*
X67501476Y-86061523D01*
X68072904Y-85223428D02*
X68072904Y-85071047D01*
X68034809Y-84994857D01*
X67996714Y-84956761D01*
X67882428Y-84880571D01*
X67730047Y-84842476D01*
X67425285Y-84842476D01*
X67349095Y-84880571D01*
X67311000Y-84918666D01*
X67272904Y-84994857D01*
X67272904Y-85147238D01*
X67311000Y-85223428D01*
X67349095Y-85261523D01*
X67425285Y-85299619D01*
X67615761Y-85299619D01*
X67691952Y-85261523D01*
X67730047Y-85223428D01*
X67768142Y-85147238D01*
X67768142Y-84994857D01*
X67730047Y-84918666D01*
X67691952Y-84880571D01*
X67615761Y-84842476D01*
X292969904Y-114001428D02*
X292169904Y-114001428D01*
X292169904Y-113810952D01*
X292208000Y-113696666D01*
X292284190Y-113620476D01*
X292360380Y-113582380D01*
X292512761Y-113544285D01*
X292627047Y-113544285D01*
X292779428Y-113582380D01*
X292855619Y-113620476D01*
X292931809Y-113696666D01*
X292969904Y-113810952D01*
X292969904Y-114001428D01*
X292246095Y-113239523D02*
X292208000Y-113201428D01*
X292169904Y-113125238D01*
X292169904Y-112934761D01*
X292208000Y-112858571D01*
X292246095Y-112820476D01*
X292322285Y-112782380D01*
X292398476Y-112782380D01*
X292512761Y-112820476D01*
X292969904Y-113277619D01*
X292969904Y-112782380D01*
X292169904Y-112287142D02*
X292169904Y-112210952D01*
X292208000Y-112134761D01*
X292246095Y-112096666D01*
X292322285Y-112058571D01*
X292474666Y-112020476D01*
X292665142Y-112020476D01*
X292817523Y-112058571D01*
X292893714Y-112096666D01*
X292931809Y-112134761D01*
X292969904Y-112210952D01*
X292969904Y-112287142D01*
X292931809Y-112363333D01*
X292893714Y-112401428D01*
X292817523Y-112439523D01*
X292665142Y-112477619D01*
X292474666Y-112477619D01*
X292322285Y-112439523D01*
X292246095Y-112401428D01*
X292208000Y-112363333D01*
X292169904Y-112287142D01*
X273919904Y-109937428D02*
X273119904Y-109937428D01*
X273119904Y-109746952D01*
X273158000Y-109632666D01*
X273234190Y-109556476D01*
X273310380Y-109518380D01*
X273462761Y-109480285D01*
X273577047Y-109480285D01*
X273729428Y-109518380D01*
X273805619Y-109556476D01*
X273881809Y-109632666D01*
X273919904Y-109746952D01*
X273919904Y-109937428D01*
X273196095Y-109175523D02*
X273158000Y-109137428D01*
X273119904Y-109061238D01*
X273119904Y-108870761D01*
X273158000Y-108794571D01*
X273196095Y-108756476D01*
X273272285Y-108718380D01*
X273348476Y-108718380D01*
X273462761Y-108756476D01*
X273919904Y-109213619D01*
X273919904Y-108718380D01*
X273919904Y-107956476D02*
X273919904Y-108413619D01*
X273919904Y-108185047D02*
X273119904Y-108185047D01*
X273234190Y-108261238D01*
X273310380Y-108337428D01*
X273348476Y-108413619D01*
X254869904Y-106127428D02*
X254069904Y-106127428D01*
X254069904Y-105936952D01*
X254108000Y-105822666D01*
X254184190Y-105746476D01*
X254260380Y-105708380D01*
X254412761Y-105670285D01*
X254527047Y-105670285D01*
X254679428Y-105708380D01*
X254755619Y-105746476D01*
X254831809Y-105822666D01*
X254869904Y-105936952D01*
X254869904Y-106127428D01*
X254146095Y-105365523D02*
X254108000Y-105327428D01*
X254069904Y-105251238D01*
X254069904Y-105060761D01*
X254108000Y-104984571D01*
X254146095Y-104946476D01*
X254222285Y-104908380D01*
X254298476Y-104908380D01*
X254412761Y-104946476D01*
X254869904Y-105403619D01*
X254869904Y-104908380D01*
X254146095Y-104603619D02*
X254108000Y-104565523D01*
X254069904Y-104489333D01*
X254069904Y-104298857D01*
X254108000Y-104222666D01*
X254146095Y-104184571D01*
X254222285Y-104146476D01*
X254298476Y-104146476D01*
X254412761Y-104184571D01*
X254869904Y-104641714D01*
X254869904Y-104146476D01*
X235819904Y-101809428D02*
X235019904Y-101809428D01*
X235019904Y-101618952D01*
X235058000Y-101504666D01*
X235134190Y-101428476D01*
X235210380Y-101390380D01*
X235362761Y-101352285D01*
X235477047Y-101352285D01*
X235629428Y-101390380D01*
X235705619Y-101428476D01*
X235781809Y-101504666D01*
X235819904Y-101618952D01*
X235819904Y-101809428D01*
X235096095Y-101047523D02*
X235058000Y-101009428D01*
X235019904Y-100933238D01*
X235019904Y-100742761D01*
X235058000Y-100666571D01*
X235096095Y-100628476D01*
X235172285Y-100590380D01*
X235248476Y-100590380D01*
X235362761Y-100628476D01*
X235819904Y-101085619D01*
X235819904Y-100590380D01*
X235019904Y-100323714D02*
X235019904Y-99828476D01*
X235324666Y-100095142D01*
X235324666Y-99980857D01*
X235362761Y-99904666D01*
X235400857Y-99866571D01*
X235477047Y-99828476D01*
X235667523Y-99828476D01*
X235743714Y-99866571D01*
X235781809Y-99904666D01*
X235819904Y-99980857D01*
X235819904Y-100209428D01*
X235781809Y-100285619D01*
X235743714Y-100323714D01*
X217023904Y-105873428D02*
X216223904Y-105873428D01*
X216223904Y-105682952D01*
X216262000Y-105568666D01*
X216338190Y-105492476D01*
X216414380Y-105454380D01*
X216566761Y-105416285D01*
X216681047Y-105416285D01*
X216833428Y-105454380D01*
X216909619Y-105492476D01*
X216985809Y-105568666D01*
X217023904Y-105682952D01*
X217023904Y-105873428D01*
X216300095Y-105111523D02*
X216262000Y-105073428D01*
X216223904Y-104997238D01*
X216223904Y-104806761D01*
X216262000Y-104730571D01*
X216300095Y-104692476D01*
X216376285Y-104654380D01*
X216452476Y-104654380D01*
X216566761Y-104692476D01*
X217023904Y-105149619D01*
X217023904Y-104654380D01*
X216490571Y-103968666D02*
X217023904Y-103968666D01*
X216185809Y-104159142D02*
X216757238Y-104349619D01*
X216757238Y-103854380D01*
X197973904Y-109937428D02*
X197173904Y-109937428D01*
X197173904Y-109746952D01*
X197212000Y-109632666D01*
X197288190Y-109556476D01*
X197364380Y-109518380D01*
X197516761Y-109480285D01*
X197631047Y-109480285D01*
X197783428Y-109518380D01*
X197859619Y-109556476D01*
X197935809Y-109632666D01*
X197973904Y-109746952D01*
X197973904Y-109937428D01*
X197250095Y-109175523D02*
X197212000Y-109137428D01*
X197173904Y-109061238D01*
X197173904Y-108870761D01*
X197212000Y-108794571D01*
X197250095Y-108756476D01*
X197326285Y-108718380D01*
X197402476Y-108718380D01*
X197516761Y-108756476D01*
X197973904Y-109213619D01*
X197973904Y-108718380D01*
X197173904Y-107994571D02*
X197173904Y-108375523D01*
X197554857Y-108413619D01*
X197516761Y-108375523D01*
X197478666Y-108299333D01*
X197478666Y-108108857D01*
X197516761Y-108032666D01*
X197554857Y-107994571D01*
X197631047Y-107956476D01*
X197821523Y-107956476D01*
X197897714Y-107994571D01*
X197935809Y-108032666D01*
X197973904Y-108108857D01*
X197973904Y-108299333D01*
X197935809Y-108375523D01*
X197897714Y-108413619D01*
X125222904Y-109937428D02*
X124422904Y-109937428D01*
X124422904Y-109746952D01*
X124461000Y-109632666D01*
X124537190Y-109556476D01*
X124613380Y-109518380D01*
X124765761Y-109480285D01*
X124880047Y-109480285D01*
X125032428Y-109518380D01*
X125108619Y-109556476D01*
X125184809Y-109632666D01*
X125222904Y-109746952D01*
X125222904Y-109937428D01*
X124499095Y-109175523D02*
X124461000Y-109137428D01*
X124422904Y-109061238D01*
X124422904Y-108870761D01*
X124461000Y-108794571D01*
X124499095Y-108756476D01*
X124575285Y-108718380D01*
X124651476Y-108718380D01*
X124765761Y-108756476D01*
X125222904Y-109213619D01*
X125222904Y-108718380D01*
X124422904Y-108032666D02*
X124422904Y-108185047D01*
X124461000Y-108261238D01*
X124499095Y-108299333D01*
X124613380Y-108375523D01*
X124765761Y-108413619D01*
X125070523Y-108413619D01*
X125146714Y-108375523D01*
X125184809Y-108337428D01*
X125222904Y-108261238D01*
X125222904Y-108108857D01*
X125184809Y-108032666D01*
X125146714Y-107994571D01*
X125070523Y-107956476D01*
X124880047Y-107956476D01*
X124803857Y-107994571D01*
X124765761Y-108032666D01*
X124727666Y-108108857D01*
X124727666Y-108261238D01*
X124765761Y-108337428D01*
X124803857Y-108375523D01*
X124880047Y-108413619D01*
X106172904Y-105873428D02*
X105372904Y-105873428D01*
X105372904Y-105682952D01*
X105411000Y-105568666D01*
X105487190Y-105492476D01*
X105563380Y-105454380D01*
X105715761Y-105416285D01*
X105830047Y-105416285D01*
X105982428Y-105454380D01*
X106058619Y-105492476D01*
X106134809Y-105568666D01*
X106172904Y-105682952D01*
X106172904Y-105873428D01*
X105449095Y-105111523D02*
X105411000Y-105073428D01*
X105372904Y-104997238D01*
X105372904Y-104806761D01*
X105411000Y-104730571D01*
X105449095Y-104692476D01*
X105525285Y-104654380D01*
X105601476Y-104654380D01*
X105715761Y-104692476D01*
X106172904Y-105149619D01*
X106172904Y-104654380D01*
X105372904Y-104387714D02*
X105372904Y-103854380D01*
X106172904Y-104197238D01*
X87122904Y-101809428D02*
X86322904Y-101809428D01*
X86322904Y-101618952D01*
X86361000Y-101504666D01*
X86437190Y-101428476D01*
X86513380Y-101390380D01*
X86665761Y-101352285D01*
X86780047Y-101352285D01*
X86932428Y-101390380D01*
X87008619Y-101428476D01*
X87084809Y-101504666D01*
X87122904Y-101618952D01*
X87122904Y-101809428D01*
X86399095Y-101047523D02*
X86361000Y-101009428D01*
X86322904Y-100933238D01*
X86322904Y-100742761D01*
X86361000Y-100666571D01*
X86399095Y-100628476D01*
X86475285Y-100590380D01*
X86551476Y-100590380D01*
X86665761Y-100628476D01*
X87122904Y-101085619D01*
X87122904Y-100590380D01*
X86665761Y-100133238D02*
X86627666Y-100209428D01*
X86589571Y-100247523D01*
X86513380Y-100285619D01*
X86475285Y-100285619D01*
X86399095Y-100247523D01*
X86361000Y-100209428D01*
X86322904Y-100133238D01*
X86322904Y-99980857D01*
X86361000Y-99904666D01*
X86399095Y-99866571D01*
X86475285Y-99828476D01*
X86513380Y-99828476D01*
X86589571Y-99866571D01*
X86627666Y-99904666D01*
X86665761Y-99980857D01*
X86665761Y-100133238D01*
X86703857Y-100209428D01*
X86741952Y-100247523D01*
X86818142Y-100285619D01*
X86970523Y-100285619D01*
X87046714Y-100247523D01*
X87084809Y-100209428D01*
X87122904Y-100133238D01*
X87122904Y-99980857D01*
X87084809Y-99904666D01*
X87046714Y-99866571D01*
X86970523Y-99828476D01*
X86818142Y-99828476D01*
X86741952Y-99866571D01*
X86703857Y-99904666D01*
X86665761Y-99980857D01*
X68072904Y-105873428D02*
X67272904Y-105873428D01*
X67272904Y-105682952D01*
X67311000Y-105568666D01*
X67387190Y-105492476D01*
X67463380Y-105454380D01*
X67615761Y-105416285D01*
X67730047Y-105416285D01*
X67882428Y-105454380D01*
X67958619Y-105492476D01*
X68034809Y-105568666D01*
X68072904Y-105682952D01*
X68072904Y-105873428D01*
X67349095Y-105111523D02*
X67311000Y-105073428D01*
X67272904Y-104997238D01*
X67272904Y-104806761D01*
X67311000Y-104730571D01*
X67349095Y-104692476D01*
X67425285Y-104654380D01*
X67501476Y-104654380D01*
X67615761Y-104692476D01*
X68072904Y-105149619D01*
X68072904Y-104654380D01*
X68072904Y-104273428D02*
X68072904Y-104121047D01*
X68034809Y-104044857D01*
X67996714Y-104006761D01*
X67882428Y-103930571D01*
X67730047Y-103892476D01*
X67425285Y-103892476D01*
X67349095Y-103930571D01*
X67311000Y-103968666D01*
X67272904Y-104044857D01*
X67272904Y-104197238D01*
X67311000Y-104273428D01*
X67349095Y-104311523D01*
X67425285Y-104349619D01*
X67615761Y-104349619D01*
X67691952Y-104311523D01*
X67730047Y-104273428D01*
X67768142Y-104197238D01*
X67768142Y-104044857D01*
X67730047Y-103968666D01*
X67691952Y-103930571D01*
X67615761Y-103892476D01*
X217023904Y-124923428D02*
X216223904Y-124923428D01*
X216223904Y-124732952D01*
X216262000Y-124618666D01*
X216338190Y-124542476D01*
X216414380Y-124504380D01*
X216566761Y-124466285D01*
X216681047Y-124466285D01*
X216833428Y-124504380D01*
X216909619Y-124542476D01*
X216985809Y-124618666D01*
X217023904Y-124732952D01*
X217023904Y-124923428D01*
X216223904Y-124199619D02*
X216223904Y-123704380D01*
X216528666Y-123971047D01*
X216528666Y-123856761D01*
X216566761Y-123780571D01*
X216604857Y-123742476D01*
X216681047Y-123704380D01*
X216871523Y-123704380D01*
X216947714Y-123742476D01*
X216985809Y-123780571D01*
X217023904Y-123856761D01*
X217023904Y-124085333D01*
X216985809Y-124161523D01*
X216947714Y-124199619D01*
X216223904Y-123437714D02*
X216223904Y-122942476D01*
X216528666Y-123209142D01*
X216528666Y-123094857D01*
X216566761Y-123018666D01*
X216604857Y-122980571D01*
X216681047Y-122942476D01*
X216871523Y-122942476D01*
X216947714Y-122980571D01*
X216985809Y-123018666D01*
X217023904Y-123094857D01*
X217023904Y-123323428D01*
X216985809Y-123399619D01*
X216947714Y-123437714D01*
X182733904Y-128987428D02*
X181933904Y-128987428D01*
X181933904Y-128796952D01*
X181972000Y-128682666D01*
X182048190Y-128606476D01*
X182124380Y-128568380D01*
X182276761Y-128530285D01*
X182391047Y-128530285D01*
X182543428Y-128568380D01*
X182619619Y-128606476D01*
X182695809Y-128682666D01*
X182733904Y-128796952D01*
X182733904Y-128987428D01*
X181933904Y-128263619D02*
X181933904Y-127768380D01*
X182238666Y-128035047D01*
X182238666Y-127920761D01*
X182276761Y-127844571D01*
X182314857Y-127806476D01*
X182391047Y-127768380D01*
X182581523Y-127768380D01*
X182657714Y-127806476D01*
X182695809Y-127844571D01*
X182733904Y-127920761D01*
X182733904Y-128149333D01*
X182695809Y-128225523D01*
X182657714Y-128263619D01*
X182200571Y-127082666D02*
X182733904Y-127082666D01*
X181895809Y-127273142D02*
X182467238Y-127463619D01*
X182467238Y-126968380D01*
X182733904Y-147783428D02*
X181933904Y-147783428D01*
X181933904Y-147592952D01*
X181972000Y-147478666D01*
X182048190Y-147402476D01*
X182124380Y-147364380D01*
X182276761Y-147326285D01*
X182391047Y-147326285D01*
X182543428Y-147364380D01*
X182619619Y-147402476D01*
X182695809Y-147478666D01*
X182733904Y-147592952D01*
X182733904Y-147783428D01*
X181933904Y-147059619D02*
X181933904Y-146564380D01*
X182238666Y-146831047D01*
X182238666Y-146716761D01*
X182276761Y-146640571D01*
X182314857Y-146602476D01*
X182391047Y-146564380D01*
X182581523Y-146564380D01*
X182657714Y-146602476D01*
X182695809Y-146640571D01*
X182733904Y-146716761D01*
X182733904Y-146945333D01*
X182695809Y-147021523D01*
X182657714Y-147059619D01*
X181933904Y-145840571D02*
X181933904Y-146221523D01*
X182314857Y-146259619D01*
X182276761Y-146221523D01*
X182238666Y-146145333D01*
X182238666Y-145954857D01*
X182276761Y-145878666D01*
X182314857Y-145840571D01*
X182391047Y-145802476D01*
X182581523Y-145802476D01*
X182657714Y-145840571D01*
X182695809Y-145878666D01*
X182733904Y-145954857D01*
X182733904Y-146145333D01*
X182695809Y-146221523D01*
X182657714Y-146259619D01*
X140208904Y-148037428D02*
X139408904Y-148037428D01*
X139408904Y-147846952D01*
X139447000Y-147732666D01*
X139523190Y-147656476D01*
X139599380Y-147618380D01*
X139751761Y-147580285D01*
X139866047Y-147580285D01*
X140018428Y-147618380D01*
X140094619Y-147656476D01*
X140170809Y-147732666D01*
X140208904Y-147846952D01*
X140208904Y-148037428D01*
X139408904Y-147313619D02*
X139408904Y-146818380D01*
X139713666Y-147085047D01*
X139713666Y-146970761D01*
X139751761Y-146894571D01*
X139789857Y-146856476D01*
X139866047Y-146818380D01*
X140056523Y-146818380D01*
X140132714Y-146856476D01*
X140170809Y-146894571D01*
X140208904Y-146970761D01*
X140208904Y-147199333D01*
X140170809Y-147275523D01*
X140132714Y-147313619D01*
X139408904Y-146132666D02*
X139408904Y-146285047D01*
X139447000Y-146361238D01*
X139485095Y-146399333D01*
X139599380Y-146475523D01*
X139751761Y-146513619D01*
X140056523Y-146513619D01*
X140132714Y-146475523D01*
X140170809Y-146437428D01*
X140208904Y-146361238D01*
X140208904Y-146208857D01*
X140170809Y-146132666D01*
X140132714Y-146094571D01*
X140056523Y-146056476D01*
X139866047Y-146056476D01*
X139789857Y-146094571D01*
X139751761Y-146132666D01*
X139713666Y-146208857D01*
X139713666Y-146361238D01*
X139751761Y-146437428D01*
X139789857Y-146475523D01*
X139866047Y-146513619D01*
X140208904Y-128987428D02*
X139408904Y-128987428D01*
X139408904Y-128796952D01*
X139447000Y-128682666D01*
X139523190Y-128606476D01*
X139599380Y-128568380D01*
X139751761Y-128530285D01*
X139866047Y-128530285D01*
X140018428Y-128568380D01*
X140094619Y-128606476D01*
X140170809Y-128682666D01*
X140208904Y-128796952D01*
X140208904Y-128987428D01*
X139408904Y-128263619D02*
X139408904Y-127768380D01*
X139713666Y-128035047D01*
X139713666Y-127920761D01*
X139751761Y-127844571D01*
X139789857Y-127806476D01*
X139866047Y-127768380D01*
X140056523Y-127768380D01*
X140132714Y-127806476D01*
X140170809Y-127844571D01*
X140208904Y-127920761D01*
X140208904Y-128149333D01*
X140170809Y-128225523D01*
X140132714Y-128263619D01*
X139408904Y-127501714D02*
X139408904Y-126968380D01*
X140208904Y-127311238D01*
X106172904Y-124923428D02*
X105372904Y-124923428D01*
X105372904Y-124732952D01*
X105411000Y-124618666D01*
X105487190Y-124542476D01*
X105563380Y-124504380D01*
X105715761Y-124466285D01*
X105830047Y-124466285D01*
X105982428Y-124504380D01*
X106058619Y-124542476D01*
X106134809Y-124618666D01*
X106172904Y-124732952D01*
X106172904Y-124923428D01*
X105372904Y-124199619D02*
X105372904Y-123704380D01*
X105677666Y-123971047D01*
X105677666Y-123856761D01*
X105715761Y-123780571D01*
X105753857Y-123742476D01*
X105830047Y-123704380D01*
X106020523Y-123704380D01*
X106096714Y-123742476D01*
X106134809Y-123780571D01*
X106172904Y-123856761D01*
X106172904Y-124085333D01*
X106134809Y-124161523D01*
X106096714Y-124199619D01*
X105715761Y-123247238D02*
X105677666Y-123323428D01*
X105639571Y-123361523D01*
X105563380Y-123399619D01*
X105525285Y-123399619D01*
X105449095Y-123361523D01*
X105411000Y-123323428D01*
X105372904Y-123247238D01*
X105372904Y-123094857D01*
X105411000Y-123018666D01*
X105449095Y-122980571D01*
X105525285Y-122942476D01*
X105563380Y-122942476D01*
X105639571Y-122980571D01*
X105677666Y-123018666D01*
X105715761Y-123094857D01*
X105715761Y-123247238D01*
X105753857Y-123323428D01*
X105791952Y-123361523D01*
X105868142Y-123399619D01*
X106020523Y-123399619D01*
X106096714Y-123361523D01*
X106134809Y-123323428D01*
X106172904Y-123247238D01*
X106172904Y-123094857D01*
X106134809Y-123018666D01*
X106096714Y-122980571D01*
X106020523Y-122942476D01*
X105868142Y-122942476D01*
X105791952Y-122980571D01*
X105753857Y-123018666D01*
X105715761Y-123094857D01*
X49022904Y-72180285D02*
X48222904Y-72180285D01*
X48222904Y-71989809D01*
X48261000Y-71875523D01*
X48337190Y-71799333D01*
X48413380Y-71761238D01*
X48565761Y-71723142D01*
X48680047Y-71723142D01*
X48832428Y-71761238D01*
X48908619Y-71799333D01*
X48984809Y-71875523D01*
X49022904Y-71989809D01*
X49022904Y-72180285D01*
X48222904Y-71227904D02*
X48222904Y-71151714D01*
X48261000Y-71075523D01*
X48299095Y-71037428D01*
X48375285Y-70999333D01*
X48527666Y-70961238D01*
X48718142Y-70961238D01*
X48870523Y-70999333D01*
X48946714Y-71037428D01*
X48984809Y-71075523D01*
X49022904Y-71151714D01*
X49022904Y-71227904D01*
X48984809Y-71304095D01*
X48946714Y-71342190D01*
X48870523Y-71380285D01*
X48718142Y-71418380D01*
X48527666Y-71418380D01*
X48375285Y-71380285D01*
X48299095Y-71342190D01*
X48261000Y-71304095D01*
X48222904Y-71227904D01*
X48794333Y-70656476D02*
X48794333Y-70275523D01*
X49022904Y-70732666D02*
X48222904Y-70466000D01*
X49022904Y-70199333D01*
X49022904Y-69513619D02*
X49022904Y-69970761D01*
X49022904Y-69742190D02*
X48222904Y-69742190D01*
X48337190Y-69818380D01*
X48413380Y-69894571D01*
X48451476Y-69970761D01*
X30226904Y-76301428D02*
X29426904Y-76301428D01*
X29426904Y-76110952D01*
X29465000Y-75996666D01*
X29541190Y-75920476D01*
X29617380Y-75882380D01*
X29769761Y-75844285D01*
X29884047Y-75844285D01*
X30036428Y-75882380D01*
X30112619Y-75920476D01*
X30188809Y-75996666D01*
X30226904Y-76110952D01*
X30226904Y-76301428D01*
X29426904Y-75349047D02*
X29426904Y-75272857D01*
X29465000Y-75196666D01*
X29503095Y-75158571D01*
X29579285Y-75120476D01*
X29731666Y-75082380D01*
X29922142Y-75082380D01*
X30074523Y-75120476D01*
X30150714Y-75158571D01*
X30188809Y-75196666D01*
X30226904Y-75272857D01*
X30226904Y-75349047D01*
X30188809Y-75425238D01*
X30150714Y-75463333D01*
X30074523Y-75501428D01*
X29922142Y-75539523D01*
X29731666Y-75539523D01*
X29579285Y-75501428D01*
X29503095Y-75463333D01*
X29465000Y-75425238D01*
X29426904Y-75349047D01*
X29807857Y-74472857D02*
X29845952Y-74358571D01*
X29884047Y-74320476D01*
X29960238Y-74282380D01*
X30074523Y-74282380D01*
X30150714Y-74320476D01*
X30188809Y-74358571D01*
X30226904Y-74434761D01*
X30226904Y-74739523D01*
X29426904Y-74739523D01*
X29426904Y-74472857D01*
X29465000Y-74396666D01*
X29503095Y-74358571D01*
X29579285Y-74320476D01*
X29655476Y-74320476D01*
X29731666Y-74358571D01*
X29769761Y-74396666D01*
X29807857Y-74472857D01*
X29807857Y-74739523D01*
X30226904Y-73520476D02*
X30226904Y-73977619D01*
X30226904Y-73749047D02*
X29426904Y-73749047D01*
X29541190Y-73825238D01*
X29617380Y-73901428D01*
X29655476Y-73977619D01*
X49022904Y-86912285D02*
X48222904Y-86912285D01*
X48222904Y-86721809D01*
X48261000Y-86607523D01*
X48337190Y-86531333D01*
X48413380Y-86493238D01*
X48565761Y-86455142D01*
X48680047Y-86455142D01*
X48832428Y-86493238D01*
X48908619Y-86531333D01*
X48984809Y-86607523D01*
X49022904Y-86721809D01*
X49022904Y-86912285D01*
X49022904Y-85693238D02*
X49022904Y-86150380D01*
X49022904Y-85921809D02*
X48222904Y-85921809D01*
X48337190Y-85998000D01*
X48413380Y-86074190D01*
X48451476Y-86150380D01*
X48794333Y-85388476D02*
X48794333Y-85007523D01*
X49022904Y-85464666D02*
X48222904Y-85198000D01*
X49022904Y-84931333D01*
X49022904Y-84245619D02*
X49022904Y-84702761D01*
X49022904Y-84474190D02*
X48222904Y-84474190D01*
X48337190Y-84550380D01*
X48413380Y-84626571D01*
X48451476Y-84702761D01*
X30226904Y-95351428D02*
X29426904Y-95351428D01*
X29426904Y-95160952D01*
X29465000Y-95046666D01*
X29541190Y-94970476D01*
X29617380Y-94932380D01*
X29769761Y-94894285D01*
X29884047Y-94894285D01*
X30036428Y-94932380D01*
X30112619Y-94970476D01*
X30188809Y-95046666D01*
X30226904Y-95160952D01*
X30226904Y-95351428D01*
X30226904Y-94132380D02*
X30226904Y-94589523D01*
X30226904Y-94360952D02*
X29426904Y-94360952D01*
X29541190Y-94437142D01*
X29617380Y-94513333D01*
X29655476Y-94589523D01*
X29807857Y-93522857D02*
X29845952Y-93408571D01*
X29884047Y-93370476D01*
X29960238Y-93332380D01*
X30074523Y-93332380D01*
X30150714Y-93370476D01*
X30188809Y-93408571D01*
X30226904Y-93484761D01*
X30226904Y-93789523D01*
X29426904Y-93789523D01*
X29426904Y-93522857D01*
X29465000Y-93446666D01*
X29503095Y-93408571D01*
X29579285Y-93370476D01*
X29655476Y-93370476D01*
X29731666Y-93408571D01*
X29769761Y-93446666D01*
X29807857Y-93522857D01*
X29807857Y-93789523D01*
X30226904Y-92570476D02*
X30226904Y-93027619D01*
X30226904Y-92799047D02*
X29426904Y-92799047D01*
X29541190Y-92875238D01*
X29617380Y-92951428D01*
X29655476Y-93027619D01*
X49022904Y-110280285D02*
X48222904Y-110280285D01*
X48222904Y-110089809D01*
X48261000Y-109975523D01*
X48337190Y-109899333D01*
X48413380Y-109861238D01*
X48565761Y-109823142D01*
X48680047Y-109823142D01*
X48832428Y-109861238D01*
X48908619Y-109899333D01*
X48984809Y-109975523D01*
X49022904Y-110089809D01*
X49022904Y-110280285D01*
X48299095Y-109518380D02*
X48261000Y-109480285D01*
X48222904Y-109404095D01*
X48222904Y-109213619D01*
X48261000Y-109137428D01*
X48299095Y-109099333D01*
X48375285Y-109061238D01*
X48451476Y-109061238D01*
X48565761Y-109099333D01*
X49022904Y-109556476D01*
X49022904Y-109061238D01*
X48794333Y-108756476D02*
X48794333Y-108375523D01*
X49022904Y-108832666D02*
X48222904Y-108566000D01*
X49022904Y-108299333D01*
X49022904Y-107613619D02*
X49022904Y-108070761D01*
X49022904Y-107842190D02*
X48222904Y-107842190D01*
X48337190Y-107918380D01*
X48413380Y-107994571D01*
X48451476Y-108070761D01*
X30226904Y-113893428D02*
X29426904Y-113893428D01*
X29426904Y-113702952D01*
X29465000Y-113588666D01*
X29541190Y-113512476D01*
X29617380Y-113474380D01*
X29769761Y-113436285D01*
X29884047Y-113436285D01*
X30036428Y-113474380D01*
X30112619Y-113512476D01*
X30188809Y-113588666D01*
X30226904Y-113702952D01*
X30226904Y-113893428D01*
X29503095Y-113131523D02*
X29465000Y-113093428D01*
X29426904Y-113017238D01*
X29426904Y-112826761D01*
X29465000Y-112750571D01*
X29503095Y-112712476D01*
X29579285Y-112674380D01*
X29655476Y-112674380D01*
X29769761Y-112712476D01*
X30226904Y-113169619D01*
X30226904Y-112674380D01*
X29807857Y-112064857D02*
X29845952Y-111950571D01*
X29884047Y-111912476D01*
X29960238Y-111874380D01*
X30074523Y-111874380D01*
X30150714Y-111912476D01*
X30188809Y-111950571D01*
X30226904Y-112026761D01*
X30226904Y-112331523D01*
X29426904Y-112331523D01*
X29426904Y-112064857D01*
X29465000Y-111988666D01*
X29503095Y-111950571D01*
X29579285Y-111912476D01*
X29655476Y-111912476D01*
X29731666Y-111950571D01*
X29769761Y-111988666D01*
X29807857Y-112064857D01*
X29807857Y-112331523D01*
X30226904Y-111112476D02*
X30226904Y-111569619D01*
X30226904Y-111341047D02*
X29426904Y-111341047D01*
X29541190Y-111417238D01*
X29617380Y-111493428D01*
X29655476Y-111569619D01*
D11*
X302283904Y-79700380D02*
X302283904Y-78700380D01*
X302855333Y-79700380D02*
X302426761Y-79128952D01*
X302855333Y-78700380D02*
X302283904Y-79271809D01*
X303474380Y-78700380D02*
X303569619Y-78700380D01*
X303664857Y-78748000D01*
X303712476Y-78795619D01*
X303760095Y-78890857D01*
X303807714Y-79081333D01*
X303807714Y-79319428D01*
X303760095Y-79509904D01*
X303712476Y-79605142D01*
X303664857Y-79652761D01*
X303569619Y-79700380D01*
X303474380Y-79700380D01*
X303379142Y-79652761D01*
X303331523Y-79605142D01*
X303283904Y-79509904D01*
X303236285Y-79319428D01*
X303236285Y-79081333D01*
X303283904Y-78890857D01*
X303331523Y-78795619D01*
X303379142Y-78748000D01*
X303474380Y-78700380D01*
X283487904Y-75636380D02*
X283487904Y-74636380D01*
X284059333Y-75636380D02*
X283630761Y-75064952D01*
X284059333Y-74636380D02*
X283487904Y-75207809D01*
X285011714Y-75636380D02*
X284440285Y-75636380D01*
X284726000Y-75636380D02*
X284726000Y-74636380D01*
X284630761Y-74779238D01*
X284535523Y-74874476D01*
X284440285Y-74922095D01*
X264437904Y-71826380D02*
X264437904Y-70826380D01*
X265009333Y-71826380D02*
X264580761Y-71254952D01*
X265009333Y-70826380D02*
X264437904Y-71397809D01*
X265390285Y-70921619D02*
X265437904Y-70874000D01*
X265533142Y-70826380D01*
X265771238Y-70826380D01*
X265866476Y-70874000D01*
X265914095Y-70921619D01*
X265961714Y-71016857D01*
X265961714Y-71112095D01*
X265914095Y-71254952D01*
X265342666Y-71826380D01*
X265961714Y-71826380D01*
X245387904Y-67762380D02*
X245387904Y-66762380D01*
X245959333Y-67762380D02*
X245530761Y-67190952D01*
X245959333Y-66762380D02*
X245387904Y-67333809D01*
X246292666Y-66762380D02*
X246911714Y-66762380D01*
X246578380Y-67143333D01*
X246721238Y-67143333D01*
X246816476Y-67190952D01*
X246864095Y-67238571D01*
X246911714Y-67333809D01*
X246911714Y-67571904D01*
X246864095Y-67667142D01*
X246816476Y-67714761D01*
X246721238Y-67762380D01*
X246435523Y-67762380D01*
X246340285Y-67714761D01*
X246292666Y-67667142D01*
X226591904Y-71572380D02*
X226591904Y-70572380D01*
X227163333Y-71572380D02*
X226734761Y-71000952D01*
X227163333Y-70572380D02*
X226591904Y-71143809D01*
X228020476Y-70905714D02*
X228020476Y-71572380D01*
X227782380Y-70524761D02*
X227544285Y-71239047D01*
X228163333Y-71239047D01*
X113561904Y-75636380D02*
X113561904Y-74636380D01*
X114133333Y-75636380D02*
X113704761Y-75064952D01*
X114133333Y-74636380D02*
X113561904Y-75207809D01*
X114990476Y-74636380D02*
X114800000Y-74636380D01*
X114704761Y-74684000D01*
X114657142Y-74731619D01*
X114561904Y-74874476D01*
X114514285Y-75064952D01*
X114514285Y-75445904D01*
X114561904Y-75541142D01*
X114609523Y-75588761D01*
X114704761Y-75636380D01*
X114895238Y-75636380D01*
X114990476Y-75588761D01*
X115038095Y-75541142D01*
X115085714Y-75445904D01*
X115085714Y-75207809D01*
X115038095Y-75112571D01*
X114990476Y-75064952D01*
X114895238Y-75017333D01*
X114704761Y-75017333D01*
X114609523Y-75064952D01*
X114561904Y-75112571D01*
X114514285Y-75207809D01*
X94511904Y-71699380D02*
X94511904Y-70699380D01*
X95083333Y-71699380D02*
X94654761Y-71127952D01*
X95083333Y-70699380D02*
X94511904Y-71270809D01*
X95416666Y-70699380D02*
X96083333Y-70699380D01*
X95654761Y-71699380D01*
X75461904Y-67762380D02*
X75461904Y-66762380D01*
X76033333Y-67762380D02*
X75604761Y-67190952D01*
X76033333Y-66762380D02*
X75461904Y-67333809D01*
X76604761Y-67190952D02*
X76509523Y-67143333D01*
X76461904Y-67095714D01*
X76414285Y-67000476D01*
X76414285Y-66952857D01*
X76461904Y-66857619D01*
X76509523Y-66810000D01*
X76604761Y-66762380D01*
X76795238Y-66762380D01*
X76890476Y-66810000D01*
X76938095Y-66857619D01*
X76985714Y-66952857D01*
X76985714Y-67000476D01*
X76938095Y-67095714D01*
X76890476Y-67143333D01*
X76795238Y-67190952D01*
X76604761Y-67190952D01*
X76509523Y-67238571D01*
X76461904Y-67286190D01*
X76414285Y-67381428D01*
X76414285Y-67571904D01*
X76461904Y-67667142D01*
X76509523Y-67714761D01*
X76604761Y-67762380D01*
X76795238Y-67762380D01*
X76890476Y-67714761D01*
X76938095Y-67667142D01*
X76985714Y-67571904D01*
X76985714Y-67381428D01*
X76938095Y-67286190D01*
X76890476Y-67238571D01*
X76795238Y-67190952D01*
X56411904Y-71572380D02*
X56411904Y-70572380D01*
X56983333Y-71572380D02*
X56554761Y-71000952D01*
X56983333Y-70572380D02*
X56411904Y-71143809D01*
X57459523Y-71572380D02*
X57650000Y-71572380D01*
X57745238Y-71524761D01*
X57792857Y-71477142D01*
X57888095Y-71334285D01*
X57935714Y-71143809D01*
X57935714Y-70762857D01*
X57888095Y-70667619D01*
X57840476Y-70620000D01*
X57745238Y-70572380D01*
X57554761Y-70572380D01*
X57459523Y-70620000D01*
X57411904Y-70667619D01*
X57364285Y-70762857D01*
X57364285Y-71000952D01*
X57411904Y-71096190D01*
X57459523Y-71143809D01*
X57554761Y-71191428D01*
X57745238Y-71191428D01*
X57840476Y-71143809D01*
X57888095Y-71096190D01*
X57935714Y-71000952D01*
X302061714Y-98750380D02*
X302061714Y-97750380D01*
X302633142Y-98750380D02*
X302204571Y-98178952D01*
X302633142Y-97750380D02*
X302061714Y-98321809D01*
X303585523Y-98750380D02*
X303014095Y-98750380D01*
X303299809Y-98750380D02*
X303299809Y-97750380D01*
X303204571Y-97893238D01*
X303109333Y-97988476D01*
X303014095Y-98036095D01*
X304204571Y-97750380D02*
X304299809Y-97750380D01*
X304395047Y-97798000D01*
X304442666Y-97845619D01*
X304490285Y-97940857D01*
X304537904Y-98131333D01*
X304537904Y-98369428D01*
X304490285Y-98559904D01*
X304442666Y-98655142D01*
X304395047Y-98702761D01*
X304299809Y-98750380D01*
X304204571Y-98750380D01*
X304109333Y-98702761D01*
X304061714Y-98655142D01*
X304014095Y-98559904D01*
X303966476Y-98369428D01*
X303966476Y-98131333D01*
X304014095Y-97940857D01*
X304061714Y-97845619D01*
X304109333Y-97798000D01*
X304204571Y-97750380D01*
X283011714Y-94686380D02*
X283011714Y-93686380D01*
X283583142Y-94686380D02*
X283154571Y-94114952D01*
X283583142Y-93686380D02*
X283011714Y-94257809D01*
X284535523Y-94686380D02*
X283964095Y-94686380D01*
X284249809Y-94686380D02*
X284249809Y-93686380D01*
X284154571Y-93829238D01*
X284059333Y-93924476D01*
X283964095Y-93972095D01*
X285487904Y-94686380D02*
X284916476Y-94686380D01*
X285202190Y-94686380D02*
X285202190Y-93686380D01*
X285106952Y-93829238D01*
X285011714Y-93924476D01*
X284916476Y-93972095D01*
X263961714Y-90876380D02*
X263961714Y-89876380D01*
X264533142Y-90876380D02*
X264104571Y-90304952D01*
X264533142Y-89876380D02*
X263961714Y-90447809D01*
X265485523Y-90876380D02*
X264914095Y-90876380D01*
X265199809Y-90876380D02*
X265199809Y-89876380D01*
X265104571Y-90019238D01*
X265009333Y-90114476D01*
X264914095Y-90162095D01*
X265866476Y-89971619D02*
X265914095Y-89924000D01*
X266009333Y-89876380D01*
X266247428Y-89876380D01*
X266342666Y-89924000D01*
X266390285Y-89971619D01*
X266437904Y-90066857D01*
X266437904Y-90162095D01*
X266390285Y-90304952D01*
X265818857Y-90876380D01*
X266437904Y-90876380D01*
X244911714Y-86812380D02*
X244911714Y-85812380D01*
X245483142Y-86812380D02*
X245054571Y-86240952D01*
X245483142Y-85812380D02*
X244911714Y-86383809D01*
X246435523Y-86812380D02*
X245864095Y-86812380D01*
X246149809Y-86812380D02*
X246149809Y-85812380D01*
X246054571Y-85955238D01*
X245959333Y-86050476D01*
X245864095Y-86098095D01*
X246768857Y-85812380D02*
X247387904Y-85812380D01*
X247054571Y-86193333D01*
X247197428Y-86193333D01*
X247292666Y-86240952D01*
X247340285Y-86288571D01*
X247387904Y-86383809D01*
X247387904Y-86621904D01*
X247340285Y-86717142D01*
X247292666Y-86764761D01*
X247197428Y-86812380D01*
X246911714Y-86812380D01*
X246816476Y-86764761D01*
X246768857Y-86717142D01*
X226115714Y-90622380D02*
X226115714Y-89622380D01*
X226687142Y-90622380D02*
X226258571Y-90050952D01*
X226687142Y-89622380D02*
X226115714Y-90193809D01*
X227639523Y-90622380D02*
X227068095Y-90622380D01*
X227353809Y-90622380D02*
X227353809Y-89622380D01*
X227258571Y-89765238D01*
X227163333Y-89860476D01*
X227068095Y-89908095D01*
X228496666Y-89955714D02*
X228496666Y-90622380D01*
X228258571Y-89574761D02*
X228020476Y-90289047D01*
X228639523Y-90289047D01*
X207065714Y-94686380D02*
X207065714Y-93686380D01*
X207637142Y-94686380D02*
X207208571Y-94114952D01*
X207637142Y-93686380D02*
X207065714Y-94257809D01*
X208589523Y-94686380D02*
X208018095Y-94686380D01*
X208303809Y-94686380D02*
X208303809Y-93686380D01*
X208208571Y-93829238D01*
X208113333Y-93924476D01*
X208018095Y-93972095D01*
X209494285Y-93686380D02*
X209018095Y-93686380D01*
X208970476Y-94162571D01*
X209018095Y-94114952D01*
X209113333Y-94067333D01*
X209351428Y-94067333D01*
X209446666Y-94114952D01*
X209494285Y-94162571D01*
X209541904Y-94257809D01*
X209541904Y-94495904D01*
X209494285Y-94591142D01*
X209446666Y-94638761D01*
X209351428Y-94686380D01*
X209113333Y-94686380D01*
X209018095Y-94638761D01*
X208970476Y-94591142D01*
X113085714Y-94686380D02*
X113085714Y-93686380D01*
X113657142Y-94686380D02*
X113228571Y-94114952D01*
X113657142Y-93686380D02*
X113085714Y-94257809D01*
X114609523Y-94686380D02*
X114038095Y-94686380D01*
X114323809Y-94686380D02*
X114323809Y-93686380D01*
X114228571Y-93829238D01*
X114133333Y-93924476D01*
X114038095Y-93972095D01*
X115466666Y-93686380D02*
X115276190Y-93686380D01*
X115180952Y-93734000D01*
X115133333Y-93781619D01*
X115038095Y-93924476D01*
X114990476Y-94114952D01*
X114990476Y-94495904D01*
X115038095Y-94591142D01*
X115085714Y-94638761D01*
X115180952Y-94686380D01*
X115371428Y-94686380D01*
X115466666Y-94638761D01*
X115514285Y-94591142D01*
X115561904Y-94495904D01*
X115561904Y-94257809D01*
X115514285Y-94162571D01*
X115466666Y-94114952D01*
X115371428Y-94067333D01*
X115180952Y-94067333D01*
X115085714Y-94114952D01*
X115038095Y-94162571D01*
X114990476Y-94257809D01*
X93908714Y-90622380D02*
X93908714Y-89622380D01*
X94480142Y-90622380D02*
X94051571Y-90050952D01*
X94480142Y-89622380D02*
X93908714Y-90193809D01*
X95432523Y-90622380D02*
X94861095Y-90622380D01*
X95146809Y-90622380D02*
X95146809Y-89622380D01*
X95051571Y-89765238D01*
X94956333Y-89860476D01*
X94861095Y-89908095D01*
X95765857Y-89622380D02*
X96432523Y-89622380D01*
X96003952Y-90622380D01*
X74985714Y-86558380D02*
X74985714Y-85558380D01*
X75557142Y-86558380D02*
X75128571Y-85986952D01*
X75557142Y-85558380D02*
X74985714Y-86129809D01*
X76509523Y-86558380D02*
X75938095Y-86558380D01*
X76223809Y-86558380D02*
X76223809Y-85558380D01*
X76128571Y-85701238D01*
X76033333Y-85796476D01*
X75938095Y-85844095D01*
X77080952Y-85986952D02*
X76985714Y-85939333D01*
X76938095Y-85891714D01*
X76890476Y-85796476D01*
X76890476Y-85748857D01*
X76938095Y-85653619D01*
X76985714Y-85606000D01*
X77080952Y-85558380D01*
X77271428Y-85558380D01*
X77366666Y-85606000D01*
X77414285Y-85653619D01*
X77461904Y-85748857D01*
X77461904Y-85796476D01*
X77414285Y-85891714D01*
X77366666Y-85939333D01*
X77271428Y-85986952D01*
X77080952Y-85986952D01*
X76985714Y-86034571D01*
X76938095Y-86082190D01*
X76890476Y-86177428D01*
X76890476Y-86367904D01*
X76938095Y-86463142D01*
X76985714Y-86510761D01*
X77080952Y-86558380D01*
X77271428Y-86558380D01*
X77366666Y-86510761D01*
X77414285Y-86463142D01*
X77461904Y-86367904D01*
X77461904Y-86177428D01*
X77414285Y-86082190D01*
X77366666Y-86034571D01*
X77271428Y-85986952D01*
X55935714Y-90622380D02*
X55935714Y-89622380D01*
X56507142Y-90622380D02*
X56078571Y-90050952D01*
X56507142Y-89622380D02*
X55935714Y-90193809D01*
X57459523Y-90622380D02*
X56888095Y-90622380D01*
X57173809Y-90622380D02*
X57173809Y-89622380D01*
X57078571Y-89765238D01*
X56983333Y-89860476D01*
X56888095Y-89908095D01*
X57935714Y-90622380D02*
X58126190Y-90622380D01*
X58221428Y-90574761D01*
X58269047Y-90527142D01*
X58364285Y-90384285D01*
X58411904Y-90193809D01*
X58411904Y-89812857D01*
X58364285Y-89717619D01*
X58316666Y-89670000D01*
X58221428Y-89622380D01*
X58030952Y-89622380D01*
X57935714Y-89670000D01*
X57888095Y-89717619D01*
X57840476Y-89812857D01*
X57840476Y-90050952D01*
X57888095Y-90146190D01*
X57935714Y-90193809D01*
X58030952Y-90241428D01*
X58221428Y-90241428D01*
X58316666Y-90193809D01*
X58364285Y-90146190D01*
X58411904Y-90050952D01*
X283011714Y-113736380D02*
X283011714Y-112736380D01*
X283583142Y-113736380D02*
X283154571Y-113164952D01*
X283583142Y-112736380D02*
X283011714Y-113307809D01*
X283964095Y-112831619D02*
X284011714Y-112784000D01*
X284106952Y-112736380D01*
X284345047Y-112736380D01*
X284440285Y-112784000D01*
X284487904Y-112831619D01*
X284535523Y-112926857D01*
X284535523Y-113022095D01*
X284487904Y-113164952D01*
X283916476Y-113736380D01*
X284535523Y-113736380D01*
X285487904Y-113736380D02*
X284916476Y-113736380D01*
X285202190Y-113736380D02*
X285202190Y-112736380D01*
X285106952Y-112879238D01*
X285011714Y-112974476D01*
X284916476Y-113022095D01*
X263961714Y-109926380D02*
X263961714Y-108926380D01*
X264533142Y-109926380D02*
X264104571Y-109354952D01*
X264533142Y-108926380D02*
X263961714Y-109497809D01*
X264914095Y-109021619D02*
X264961714Y-108974000D01*
X265056952Y-108926380D01*
X265295047Y-108926380D01*
X265390285Y-108974000D01*
X265437904Y-109021619D01*
X265485523Y-109116857D01*
X265485523Y-109212095D01*
X265437904Y-109354952D01*
X264866476Y-109926380D01*
X265485523Y-109926380D01*
X265866476Y-109021619D02*
X265914095Y-108974000D01*
X266009333Y-108926380D01*
X266247428Y-108926380D01*
X266342666Y-108974000D01*
X266390285Y-109021619D01*
X266437904Y-109116857D01*
X266437904Y-109212095D01*
X266390285Y-109354952D01*
X265818857Y-109926380D01*
X266437904Y-109926380D01*
X244911714Y-105608380D02*
X244911714Y-104608380D01*
X245483142Y-105608380D02*
X245054571Y-105036952D01*
X245483142Y-104608380D02*
X244911714Y-105179809D01*
X245864095Y-104703619D02*
X245911714Y-104656000D01*
X246006952Y-104608380D01*
X246245047Y-104608380D01*
X246340285Y-104656000D01*
X246387904Y-104703619D01*
X246435523Y-104798857D01*
X246435523Y-104894095D01*
X246387904Y-105036952D01*
X245816476Y-105608380D01*
X246435523Y-105608380D01*
X246768857Y-104608380D02*
X247387904Y-104608380D01*
X247054571Y-104989333D01*
X247197428Y-104989333D01*
X247292666Y-105036952D01*
X247340285Y-105084571D01*
X247387904Y-105179809D01*
X247387904Y-105417904D01*
X247340285Y-105513142D01*
X247292666Y-105560761D01*
X247197428Y-105608380D01*
X246911714Y-105608380D01*
X246816476Y-105560761D01*
X246768857Y-105513142D01*
X226115714Y-109672380D02*
X226115714Y-108672380D01*
X226687142Y-109672380D02*
X226258571Y-109100952D01*
X226687142Y-108672380D02*
X226115714Y-109243809D01*
X227068095Y-108767619D02*
X227115714Y-108720000D01*
X227210952Y-108672380D01*
X227449047Y-108672380D01*
X227544285Y-108720000D01*
X227591904Y-108767619D01*
X227639523Y-108862857D01*
X227639523Y-108958095D01*
X227591904Y-109100952D01*
X227020476Y-109672380D01*
X227639523Y-109672380D01*
X228496666Y-109005714D02*
X228496666Y-109672380D01*
X228258571Y-108624761D02*
X228020476Y-109339047D01*
X228639523Y-109339047D01*
X207065714Y-113736380D02*
X207065714Y-112736380D01*
X207637142Y-113736380D02*
X207208571Y-113164952D01*
X207637142Y-112736380D02*
X207065714Y-113307809D01*
X208018095Y-112831619D02*
X208065714Y-112784000D01*
X208160952Y-112736380D01*
X208399047Y-112736380D01*
X208494285Y-112784000D01*
X208541904Y-112831619D01*
X208589523Y-112926857D01*
X208589523Y-113022095D01*
X208541904Y-113164952D01*
X207970476Y-113736380D01*
X208589523Y-113736380D01*
X209494285Y-112736380D02*
X209018095Y-112736380D01*
X208970476Y-113212571D01*
X209018095Y-113164952D01*
X209113333Y-113117333D01*
X209351428Y-113117333D01*
X209446666Y-113164952D01*
X209494285Y-113212571D01*
X209541904Y-113307809D01*
X209541904Y-113545904D01*
X209494285Y-113641142D01*
X209446666Y-113688761D01*
X209351428Y-113736380D01*
X209113333Y-113736380D01*
X209018095Y-113688761D01*
X208970476Y-113641142D01*
X113085714Y-113736380D02*
X113085714Y-112736380D01*
X113657142Y-113736380D02*
X113228571Y-113164952D01*
X113657142Y-112736380D02*
X113085714Y-113307809D01*
X114038095Y-112831619D02*
X114085714Y-112784000D01*
X114180952Y-112736380D01*
X114419047Y-112736380D01*
X114514285Y-112784000D01*
X114561904Y-112831619D01*
X114609523Y-112926857D01*
X114609523Y-113022095D01*
X114561904Y-113164952D01*
X113990476Y-113736380D01*
X114609523Y-113736380D01*
X115466666Y-112736380D02*
X115276190Y-112736380D01*
X115180952Y-112784000D01*
X115133333Y-112831619D01*
X115038095Y-112974476D01*
X114990476Y-113164952D01*
X114990476Y-113545904D01*
X115038095Y-113641142D01*
X115085714Y-113688761D01*
X115180952Y-113736380D01*
X115371428Y-113736380D01*
X115466666Y-113688761D01*
X115514285Y-113641142D01*
X115561904Y-113545904D01*
X115561904Y-113307809D01*
X115514285Y-113212571D01*
X115466666Y-113164952D01*
X115371428Y-113117333D01*
X115180952Y-113117333D01*
X115085714Y-113164952D01*
X115038095Y-113212571D01*
X114990476Y-113307809D01*
X94035714Y-109672380D02*
X94035714Y-108672380D01*
X94607142Y-109672380D02*
X94178571Y-109100952D01*
X94607142Y-108672380D02*
X94035714Y-109243809D01*
X94988095Y-108767619D02*
X95035714Y-108720000D01*
X95130952Y-108672380D01*
X95369047Y-108672380D01*
X95464285Y-108720000D01*
X95511904Y-108767619D01*
X95559523Y-108862857D01*
X95559523Y-108958095D01*
X95511904Y-109100952D01*
X94940476Y-109672380D01*
X95559523Y-109672380D01*
X95892857Y-108672380D02*
X96559523Y-108672380D01*
X96130952Y-109672380D01*
X74985714Y-105608380D02*
X74985714Y-104608380D01*
X75557142Y-105608380D02*
X75128571Y-105036952D01*
X75557142Y-104608380D02*
X74985714Y-105179809D01*
X75938095Y-104703619D02*
X75985714Y-104656000D01*
X76080952Y-104608380D01*
X76319047Y-104608380D01*
X76414285Y-104656000D01*
X76461904Y-104703619D01*
X76509523Y-104798857D01*
X76509523Y-104894095D01*
X76461904Y-105036952D01*
X75890476Y-105608380D01*
X76509523Y-105608380D01*
X77080952Y-105036952D02*
X76985714Y-104989333D01*
X76938095Y-104941714D01*
X76890476Y-104846476D01*
X76890476Y-104798857D01*
X76938095Y-104703619D01*
X76985714Y-104656000D01*
X77080952Y-104608380D01*
X77271428Y-104608380D01*
X77366666Y-104656000D01*
X77414285Y-104703619D01*
X77461904Y-104798857D01*
X77461904Y-104846476D01*
X77414285Y-104941714D01*
X77366666Y-104989333D01*
X77271428Y-105036952D01*
X77080952Y-105036952D01*
X76985714Y-105084571D01*
X76938095Y-105132190D01*
X76890476Y-105227428D01*
X76890476Y-105417904D01*
X76938095Y-105513142D01*
X76985714Y-105560761D01*
X77080952Y-105608380D01*
X77271428Y-105608380D01*
X77366666Y-105560761D01*
X77414285Y-105513142D01*
X77461904Y-105417904D01*
X77461904Y-105227428D01*
X77414285Y-105132190D01*
X77366666Y-105084571D01*
X77271428Y-105036952D01*
X55935714Y-109672380D02*
X55935714Y-108672380D01*
X56507142Y-109672380D02*
X56078571Y-109100952D01*
X56507142Y-108672380D02*
X55935714Y-109243809D01*
X56888095Y-108767619D02*
X56935714Y-108720000D01*
X57030952Y-108672380D01*
X57269047Y-108672380D01*
X57364285Y-108720000D01*
X57411904Y-108767619D01*
X57459523Y-108862857D01*
X57459523Y-108958095D01*
X57411904Y-109100952D01*
X56840476Y-109672380D01*
X57459523Y-109672380D01*
X57935714Y-109672380D02*
X58126190Y-109672380D01*
X58221428Y-109624761D01*
X58269047Y-109577142D01*
X58364285Y-109434285D01*
X58411904Y-109243809D01*
X58411904Y-108862857D01*
X58364285Y-108767619D01*
X58316666Y-108720000D01*
X58221428Y-108672380D01*
X58030952Y-108672380D01*
X57935714Y-108720000D01*
X57888095Y-108767619D01*
X57840476Y-108862857D01*
X57840476Y-109100952D01*
X57888095Y-109196190D01*
X57935714Y-109243809D01*
X58030952Y-109291428D01*
X58221428Y-109291428D01*
X58316666Y-109243809D01*
X58364285Y-109196190D01*
X58411904Y-109100952D01*
X226115714Y-128722380D02*
X226115714Y-127722380D01*
X226687142Y-128722380D02*
X226258571Y-128150952D01*
X226687142Y-127722380D02*
X226115714Y-128293809D01*
X227020476Y-127722380D02*
X227639523Y-127722380D01*
X227306190Y-128103333D01*
X227449047Y-128103333D01*
X227544285Y-128150952D01*
X227591904Y-128198571D01*
X227639523Y-128293809D01*
X227639523Y-128531904D01*
X227591904Y-128627142D01*
X227544285Y-128674761D01*
X227449047Y-128722380D01*
X227163333Y-128722380D01*
X227068095Y-128674761D01*
X227020476Y-128627142D01*
X227972857Y-127722380D02*
X228591904Y-127722380D01*
X228258571Y-128103333D01*
X228401428Y-128103333D01*
X228496666Y-128150952D01*
X228544285Y-128198571D01*
X228591904Y-128293809D01*
X228591904Y-128531904D01*
X228544285Y-128627142D01*
X228496666Y-128674761D01*
X228401428Y-128722380D01*
X228115714Y-128722380D01*
X228020476Y-128674761D01*
X227972857Y-128627142D01*
X207065714Y-132786380D02*
X207065714Y-131786380D01*
X207637142Y-132786380D02*
X207208571Y-132214952D01*
X207637142Y-131786380D02*
X207065714Y-132357809D01*
X207970476Y-131786380D02*
X208589523Y-131786380D01*
X208256190Y-132167333D01*
X208399047Y-132167333D01*
X208494285Y-132214952D01*
X208541904Y-132262571D01*
X208589523Y-132357809D01*
X208589523Y-132595904D01*
X208541904Y-132691142D01*
X208494285Y-132738761D01*
X208399047Y-132786380D01*
X208113333Y-132786380D01*
X208018095Y-132738761D01*
X207970476Y-132691142D01*
X209446666Y-132119714D02*
X209446666Y-132786380D01*
X209208571Y-131738761D02*
X208970476Y-132453047D01*
X209589523Y-132453047D01*
X191825714Y-151582380D02*
X191825714Y-150582380D01*
X192397142Y-151582380D02*
X191968571Y-151010952D01*
X192397142Y-150582380D02*
X191825714Y-151153809D01*
X192730476Y-150582380D02*
X193349523Y-150582380D01*
X193016190Y-150963333D01*
X193159047Y-150963333D01*
X193254285Y-151010952D01*
X193301904Y-151058571D01*
X193349523Y-151153809D01*
X193349523Y-151391904D01*
X193301904Y-151487142D01*
X193254285Y-151534761D01*
X193159047Y-151582380D01*
X192873333Y-151582380D01*
X192778095Y-151534761D01*
X192730476Y-151487142D01*
X194254285Y-150582380D02*
X193778095Y-150582380D01*
X193730476Y-151058571D01*
X193778095Y-151010952D01*
X193873333Y-150963333D01*
X194111428Y-150963333D01*
X194206666Y-151010952D01*
X194254285Y-151058571D01*
X194301904Y-151153809D01*
X194301904Y-151391904D01*
X194254285Y-151487142D01*
X194206666Y-151534761D01*
X194111428Y-151582380D01*
X193873333Y-151582380D01*
X193778095Y-151534761D01*
X193730476Y-151487142D01*
X113085714Y-132786380D02*
X113085714Y-131786380D01*
X113657142Y-132786380D02*
X113228571Y-132214952D01*
X113657142Y-131786380D02*
X113085714Y-132357809D01*
X113990476Y-131786380D02*
X114609523Y-131786380D01*
X114276190Y-132167333D01*
X114419047Y-132167333D01*
X114514285Y-132214952D01*
X114561904Y-132262571D01*
X114609523Y-132357809D01*
X114609523Y-132595904D01*
X114561904Y-132691142D01*
X114514285Y-132738761D01*
X114419047Y-132786380D01*
X114133333Y-132786380D01*
X114038095Y-132738761D01*
X113990476Y-132691142D01*
X114942857Y-131786380D02*
X115609523Y-131786380D01*
X115180952Y-132786380D01*
X93908714Y-128722380D02*
X93908714Y-127722380D01*
X94480142Y-128722380D02*
X94051571Y-128150952D01*
X94480142Y-127722380D02*
X93908714Y-128293809D01*
X94813476Y-127722380D02*
X95432523Y-127722380D01*
X95099190Y-128103333D01*
X95242047Y-128103333D01*
X95337285Y-128150952D01*
X95384904Y-128198571D01*
X95432523Y-128293809D01*
X95432523Y-128531904D01*
X95384904Y-128627142D01*
X95337285Y-128674761D01*
X95242047Y-128722380D01*
X94956333Y-128722380D01*
X94861095Y-128674761D01*
X94813476Y-128627142D01*
X96003952Y-128150952D02*
X95908714Y-128103333D01*
X95861095Y-128055714D01*
X95813476Y-127960476D01*
X95813476Y-127912857D01*
X95861095Y-127817619D01*
X95908714Y-127770000D01*
X96003952Y-127722380D01*
X96194428Y-127722380D01*
X96289666Y-127770000D01*
X96337285Y-127817619D01*
X96384904Y-127912857D01*
X96384904Y-127960476D01*
X96337285Y-128055714D01*
X96289666Y-128103333D01*
X96194428Y-128150952D01*
X96003952Y-128150952D01*
X95908714Y-128198571D01*
X95861095Y-128246190D01*
X95813476Y-128341428D01*
X95813476Y-128531904D01*
X95861095Y-128627142D01*
X95908714Y-128674761D01*
X96003952Y-128722380D01*
X96194428Y-128722380D01*
X96289666Y-128674761D01*
X96337285Y-128627142D01*
X96384904Y-128531904D01*
X96384904Y-128341428D01*
X96337285Y-128246190D01*
X96289666Y-128198571D01*
X96194428Y-128150952D01*
X36457142Y-75636380D02*
X36457142Y-74636380D01*
X37028571Y-75636380D02*
X36600000Y-75064952D01*
X37028571Y-74636380D02*
X36457142Y-75207809D01*
X37647619Y-74636380D02*
X37742857Y-74636380D01*
X37838095Y-74684000D01*
X37885714Y-74731619D01*
X37933333Y-74826857D01*
X37980952Y-75017333D01*
X37980952Y-75255428D01*
X37933333Y-75445904D01*
X37885714Y-75541142D01*
X37838095Y-75588761D01*
X37742857Y-75636380D01*
X37647619Y-75636380D01*
X37552380Y-75588761D01*
X37504761Y-75541142D01*
X37457142Y-75445904D01*
X37409523Y-75255428D01*
X37409523Y-75017333D01*
X37457142Y-74826857D01*
X37504761Y-74731619D01*
X37552380Y-74684000D01*
X37647619Y-74636380D01*
X38361904Y-75350666D02*
X38838095Y-75350666D01*
X38266666Y-75636380D02*
X38600000Y-74636380D01*
X38933333Y-75636380D01*
X39790476Y-75636380D02*
X39219047Y-75636380D01*
X39504761Y-75636380D02*
X39504761Y-74636380D01*
X39409523Y-74779238D01*
X39314285Y-74874476D01*
X39219047Y-74922095D01*
X17589714Y-79700380D02*
X17589714Y-78700380D01*
X18161142Y-79700380D02*
X17732571Y-79128952D01*
X18161142Y-78700380D02*
X17589714Y-79271809D01*
X18780190Y-78700380D02*
X18875428Y-78700380D01*
X18970666Y-78748000D01*
X19018285Y-78795619D01*
X19065904Y-78890857D01*
X19113523Y-79081333D01*
X19113523Y-79319428D01*
X19065904Y-79509904D01*
X19018285Y-79605142D01*
X18970666Y-79652761D01*
X18875428Y-79700380D01*
X18780190Y-79700380D01*
X18684952Y-79652761D01*
X18637333Y-79605142D01*
X18589714Y-79509904D01*
X18542095Y-79319428D01*
X18542095Y-79081333D01*
X18589714Y-78890857D01*
X18637333Y-78795619D01*
X18684952Y-78748000D01*
X18780190Y-78700380D01*
X19875428Y-79176571D02*
X20018285Y-79224190D01*
X20065904Y-79271809D01*
X20113523Y-79367047D01*
X20113523Y-79509904D01*
X20065904Y-79605142D01*
X20018285Y-79652761D01*
X19923047Y-79700380D01*
X19542095Y-79700380D01*
X19542095Y-78700380D01*
X19875428Y-78700380D01*
X19970666Y-78748000D01*
X20018285Y-78795619D01*
X20065904Y-78890857D01*
X20065904Y-78986095D01*
X20018285Y-79081333D01*
X19970666Y-79128952D01*
X19875428Y-79176571D01*
X19542095Y-79176571D01*
X21065904Y-79700380D02*
X20494476Y-79700380D01*
X20780190Y-79700380D02*
X20780190Y-78700380D01*
X20684952Y-78843238D01*
X20589714Y-78938476D01*
X20494476Y-78986095D01*
X36457142Y-94686380D02*
X36457142Y-93686380D01*
X37028571Y-94686380D02*
X36600000Y-94114952D01*
X37028571Y-93686380D02*
X36457142Y-94257809D01*
X37980952Y-94686380D02*
X37409523Y-94686380D01*
X37695238Y-94686380D02*
X37695238Y-93686380D01*
X37600000Y-93829238D01*
X37504761Y-93924476D01*
X37409523Y-93972095D01*
X38361904Y-94400666D02*
X38838095Y-94400666D01*
X38266666Y-94686380D02*
X38600000Y-93686380D01*
X38933333Y-94686380D01*
X39790476Y-94686380D02*
X39219047Y-94686380D01*
X39504761Y-94686380D02*
X39504761Y-93686380D01*
X39409523Y-93829238D01*
X39314285Y-93924476D01*
X39219047Y-93972095D01*
X17589714Y-98750380D02*
X17589714Y-97750380D01*
X18161142Y-98750380D02*
X17732571Y-98178952D01*
X18161142Y-97750380D02*
X17589714Y-98321809D01*
X19113523Y-98750380D02*
X18542095Y-98750380D01*
X18827809Y-98750380D02*
X18827809Y-97750380D01*
X18732571Y-97893238D01*
X18637333Y-97988476D01*
X18542095Y-98036095D01*
X19875428Y-98226571D02*
X20018285Y-98274190D01*
X20065904Y-98321809D01*
X20113523Y-98417047D01*
X20113523Y-98559904D01*
X20065904Y-98655142D01*
X20018285Y-98702761D01*
X19923047Y-98750380D01*
X19542095Y-98750380D01*
X19542095Y-97750380D01*
X19875428Y-97750380D01*
X19970666Y-97798000D01*
X20018285Y-97845619D01*
X20065904Y-97940857D01*
X20065904Y-98036095D01*
X20018285Y-98131333D01*
X19970666Y-98178952D01*
X19875428Y-98226571D01*
X19542095Y-98226571D01*
X21065904Y-98750380D02*
X20494476Y-98750380D01*
X20780190Y-98750380D02*
X20780190Y-97750380D01*
X20684952Y-97893238D01*
X20589714Y-97988476D01*
X20494476Y-98036095D01*
X36457142Y-113736380D02*
X36457142Y-112736380D01*
X37028571Y-113736380D02*
X36600000Y-113164952D01*
X37028571Y-112736380D02*
X36457142Y-113307809D01*
X37409523Y-112831619D02*
X37457142Y-112784000D01*
X37552380Y-112736380D01*
X37790476Y-112736380D01*
X37885714Y-112784000D01*
X37933333Y-112831619D01*
X37980952Y-112926857D01*
X37980952Y-113022095D01*
X37933333Y-113164952D01*
X37361904Y-113736380D01*
X37980952Y-113736380D01*
X38361904Y-113450666D02*
X38838095Y-113450666D01*
X38266666Y-113736380D02*
X38600000Y-112736380D01*
X38933333Y-113736380D01*
X39790476Y-113736380D02*
X39219047Y-113736380D01*
X39504761Y-113736380D02*
X39504761Y-112736380D01*
X39409523Y-112879238D01*
X39314285Y-112974476D01*
X39219047Y-113022095D01*
X17589714Y-117546380D02*
X17589714Y-116546380D01*
X18161142Y-117546380D02*
X17732571Y-116974952D01*
X18161142Y-116546380D02*
X17589714Y-117117809D01*
X18542095Y-116641619D02*
X18589714Y-116594000D01*
X18684952Y-116546380D01*
X18923047Y-116546380D01*
X19018285Y-116594000D01*
X19065904Y-116641619D01*
X19113523Y-116736857D01*
X19113523Y-116832095D01*
X19065904Y-116974952D01*
X18494476Y-117546380D01*
X19113523Y-117546380D01*
X19875428Y-117022571D02*
X20018285Y-117070190D01*
X20065904Y-117117809D01*
X20113523Y-117213047D01*
X20113523Y-117355904D01*
X20065904Y-117451142D01*
X20018285Y-117498761D01*
X19923047Y-117546380D01*
X19542095Y-117546380D01*
X19542095Y-116546380D01*
X19875428Y-116546380D01*
X19970666Y-116594000D01*
X20018285Y-116641619D01*
X20065904Y-116736857D01*
X20065904Y-116832095D01*
X20018285Y-116927333D01*
X19970666Y-116974952D01*
X19875428Y-117022571D01*
X19542095Y-117022571D01*
X21065904Y-117546380D02*
X20494476Y-117546380D01*
X20780190Y-117546380D02*
X20780190Y-116546380D01*
X20684952Y-116689238D01*
X20589714Y-116784476D01*
X20494476Y-116832095D01*
M02*
