G04 #@! TF.GenerationSoftware,KiCad,Pcbnew,5.1.10*
G04 #@! TF.CreationDate,2021-10-24T21:55:21+02:00*
G04 #@! TF.ProjectId,pcb,7063622e-6b69-4636-9164-5f7063625858,rev?*
G04 #@! TF.SameCoordinates,Original*
G04 #@! TF.FileFunction,Legend,Top*
G04 #@! TF.FilePolarity,Positive*
%FSLAX46Y46*%
G04 Gerber Fmt 4.6, Leading zero omitted, Abs format (unit mm)*
G04 Created by KiCad (PCBNEW 5.1.10) date 2021-10-24 21:55:21*
%MOMM*%
%LPD*%
G01*
G04 APERTURE LIST*
%ADD10C,0.150000*%
%ADD11C,0.200000*%
%ADD12C,0.381000*%
G04 APERTURE END LIST*
D10*
X155472571Y-149100571D02*
X155472571Y-150100571D01*
X155472571Y-149243428D02*
X155544000Y-149172000D01*
X155686857Y-149100571D01*
X155901142Y-149100571D01*
X156044000Y-149172000D01*
X156115428Y-149314857D01*
X156115428Y-150100571D01*
X157472571Y-149100571D02*
X157472571Y-150314857D01*
X157401142Y-150457714D01*
X157329714Y-150529142D01*
X157186857Y-150600571D01*
X156972571Y-150600571D01*
X156829714Y-150529142D01*
X157472571Y-150029142D02*
X157329714Y-150100571D01*
X157044000Y-150100571D01*
X156901142Y-150029142D01*
X156829714Y-149957714D01*
X156758285Y-149814857D01*
X156758285Y-149386285D01*
X156829714Y-149243428D01*
X156901142Y-149172000D01*
X157044000Y-149100571D01*
X157329714Y-149100571D01*
X157472571Y-149172000D01*
X158401142Y-150100571D02*
X158258285Y-150029142D01*
X158186857Y-149886285D01*
X158186857Y-148600571D01*
X159615428Y-149100571D02*
X159615428Y-150314857D01*
X159544000Y-150457714D01*
X159472571Y-150529142D01*
X159329714Y-150600571D01*
X159115428Y-150600571D01*
X158972571Y-150529142D01*
X159615428Y-150029142D02*
X159472571Y-150100571D01*
X159186857Y-150100571D01*
X159044000Y-150029142D01*
X158972571Y-149957714D01*
X158901142Y-149814857D01*
X158901142Y-149386285D01*
X158972571Y-149243428D01*
X159044000Y-149172000D01*
X159186857Y-149100571D01*
X159472571Y-149100571D01*
X159615428Y-149172000D01*
X160186857Y-149100571D02*
X160972571Y-149100571D01*
X160186857Y-150100571D01*
X160972571Y-150100571D01*
X161401142Y-149100571D02*
X162186857Y-149100571D01*
X161401142Y-150100571D01*
X162186857Y-150100571D01*
X163829714Y-148529142D02*
X162544000Y-150457714D01*
X164972571Y-149100571D02*
X164972571Y-150100571D01*
X164615428Y-148529142D02*
X164258285Y-149600571D01*
X165186857Y-149600571D01*
X165686857Y-148743428D02*
X165758285Y-148672000D01*
X165901142Y-148600571D01*
X166258285Y-148600571D01*
X166401142Y-148672000D01*
X166472571Y-148743428D01*
X166544000Y-148886285D01*
X166544000Y-149029142D01*
X166472571Y-149243428D01*
X165615428Y-150100571D01*
X166544000Y-150100571D01*
X159401142Y-151500571D02*
X159758285Y-152500571D01*
X160115428Y-151500571D01*
X160544000Y-151000571D02*
X161472571Y-151000571D01*
X160972571Y-151572000D01*
X161186857Y-151572000D01*
X161329714Y-151643428D01*
X161401142Y-151714857D01*
X161472571Y-151857714D01*
X161472571Y-152214857D01*
X161401142Y-152357714D01*
X161329714Y-152429142D01*
X161186857Y-152500571D01*
X160758285Y-152500571D01*
X160615428Y-152429142D01*
X160544000Y-152357714D01*
X162115428Y-152357714D02*
X162186857Y-152429142D01*
X162115428Y-152500571D01*
X162044000Y-152429142D01*
X162115428Y-152357714D01*
X162115428Y-152500571D01*
X163615428Y-152500571D02*
X162758285Y-152500571D01*
X163186857Y-152500571D02*
X163186857Y-151000571D01*
X163044000Y-151214857D01*
X162901142Y-151357714D01*
X162758285Y-151429142D01*
D11*
X293186000Y-77205000D02*
X295586000Y-77205000D01*
X293186000Y-77380000D02*
X295586000Y-77380000D01*
X293186000Y-77555000D02*
X295586000Y-77555000D01*
X295586000Y-77955000D02*
X293186000Y-77955000D01*
X293186000Y-77730000D02*
X295586000Y-77730000D01*
X293186000Y-77855000D02*
X295586000Y-77855000D01*
X293186000Y-77930000D02*
X293186000Y-72130000D01*
X293186000Y-72130000D02*
X295586000Y-72130000D01*
X295586000Y-72130000D02*
X295586000Y-77930000D01*
X274390000Y-73141000D02*
X276790000Y-73141000D01*
X274390000Y-73316000D02*
X276790000Y-73316000D01*
X274390000Y-73491000D02*
X276790000Y-73491000D01*
X276790000Y-73891000D02*
X274390000Y-73891000D01*
X274390000Y-73666000D02*
X276790000Y-73666000D01*
X274390000Y-73791000D02*
X276790000Y-73791000D01*
X274390000Y-73866000D02*
X274390000Y-68066000D01*
X274390000Y-68066000D02*
X276790000Y-68066000D01*
X276790000Y-68066000D02*
X276790000Y-73866000D01*
X255340000Y-69331000D02*
X257740000Y-69331000D01*
X255340000Y-69506000D02*
X257740000Y-69506000D01*
X255340000Y-69681000D02*
X257740000Y-69681000D01*
X257740000Y-70081000D02*
X255340000Y-70081000D01*
X255340000Y-69856000D02*
X257740000Y-69856000D01*
X255340000Y-69981000D02*
X257740000Y-69981000D01*
X255340000Y-70056000D02*
X255340000Y-64256000D01*
X255340000Y-64256000D02*
X257740000Y-64256000D01*
X257740000Y-64256000D02*
X257740000Y-70056000D01*
X236290000Y-65267000D02*
X238690000Y-65267000D01*
X236290000Y-65442000D02*
X238690000Y-65442000D01*
X236290000Y-65617000D02*
X238690000Y-65617000D01*
X238690000Y-66017000D02*
X236290000Y-66017000D01*
X236290000Y-65792000D02*
X238690000Y-65792000D01*
X236290000Y-65917000D02*
X238690000Y-65917000D01*
X236290000Y-65992000D02*
X236290000Y-60192000D01*
X236290000Y-60192000D02*
X238690000Y-60192000D01*
X238690000Y-60192000D02*
X238690000Y-65992000D01*
X217494000Y-69077000D02*
X219894000Y-69077000D01*
X217494000Y-69252000D02*
X219894000Y-69252000D01*
X217494000Y-69427000D02*
X219894000Y-69427000D01*
X219894000Y-69827000D02*
X217494000Y-69827000D01*
X217494000Y-69602000D02*
X219894000Y-69602000D01*
X217494000Y-69727000D02*
X219894000Y-69727000D01*
X217494000Y-69802000D02*
X217494000Y-64002000D01*
X217494000Y-64002000D02*
X219894000Y-64002000D01*
X219894000Y-64002000D02*
X219894000Y-69802000D01*
X183204000Y-72887000D02*
X185604000Y-72887000D01*
X183204000Y-73062000D02*
X185604000Y-73062000D01*
X183204000Y-73237000D02*
X185604000Y-73237000D01*
X185604000Y-73637000D02*
X183204000Y-73637000D01*
X183204000Y-73412000D02*
X185604000Y-73412000D01*
X183204000Y-73537000D02*
X185604000Y-73537000D01*
X183204000Y-73612000D02*
X183204000Y-67812000D01*
X183204000Y-67812000D02*
X185604000Y-67812000D01*
X185604000Y-67812000D02*
X185604000Y-73612000D01*
X136722000Y-73141000D02*
X139122000Y-73141000D01*
X136722000Y-73316000D02*
X139122000Y-73316000D01*
X136722000Y-73491000D02*
X139122000Y-73491000D01*
X139122000Y-73891000D02*
X136722000Y-73891000D01*
X136722000Y-73666000D02*
X139122000Y-73666000D01*
X136722000Y-73791000D02*
X139122000Y-73791000D01*
X136722000Y-73866000D02*
X136722000Y-68066000D01*
X136722000Y-68066000D02*
X139122000Y-68066000D01*
X139122000Y-68066000D02*
X139122000Y-73866000D01*
X102686000Y-69331000D02*
X105086000Y-69331000D01*
X102686000Y-69506000D02*
X105086000Y-69506000D01*
X102686000Y-69681000D02*
X105086000Y-69681000D01*
X105086000Y-70081000D02*
X102686000Y-70081000D01*
X102686000Y-69856000D02*
X105086000Y-69856000D01*
X102686000Y-69981000D02*
X105086000Y-69981000D01*
X102686000Y-70056000D02*
X102686000Y-64256000D01*
X102686000Y-64256000D02*
X105086000Y-64256000D01*
X105086000Y-64256000D02*
X105086000Y-70056000D01*
X83636000Y-65267000D02*
X86036000Y-65267000D01*
X83636000Y-65442000D02*
X86036000Y-65442000D01*
X83636000Y-65617000D02*
X86036000Y-65617000D01*
X86036000Y-66017000D02*
X83636000Y-66017000D01*
X83636000Y-65792000D02*
X86036000Y-65792000D01*
X83636000Y-65917000D02*
X86036000Y-65917000D01*
X83636000Y-65992000D02*
X83636000Y-60192000D01*
X83636000Y-60192000D02*
X86036000Y-60192000D01*
X86036000Y-60192000D02*
X86036000Y-65992000D01*
X64586000Y-69077000D02*
X66986000Y-69077000D01*
X64586000Y-69252000D02*
X66986000Y-69252000D01*
X64586000Y-69427000D02*
X66986000Y-69427000D01*
X66986000Y-69827000D02*
X64586000Y-69827000D01*
X64586000Y-69602000D02*
X66986000Y-69602000D01*
X64586000Y-69727000D02*
X66986000Y-69727000D01*
X64586000Y-69802000D02*
X64586000Y-64002000D01*
X64586000Y-64002000D02*
X66986000Y-64002000D01*
X66986000Y-64002000D02*
X66986000Y-69802000D01*
X293440000Y-96255000D02*
X295840000Y-96255000D01*
X293440000Y-96430000D02*
X295840000Y-96430000D01*
X293440000Y-96605000D02*
X295840000Y-96605000D01*
X295840000Y-97005000D02*
X293440000Y-97005000D01*
X293440000Y-96780000D02*
X295840000Y-96780000D01*
X293440000Y-96905000D02*
X295840000Y-96905000D01*
X293440000Y-96980000D02*
X293440000Y-91180000D01*
X293440000Y-91180000D02*
X295840000Y-91180000D01*
X295840000Y-91180000D02*
X295840000Y-96980000D01*
X274390000Y-92191000D02*
X276790000Y-92191000D01*
X274390000Y-92366000D02*
X276790000Y-92366000D01*
X274390000Y-92541000D02*
X276790000Y-92541000D01*
X276790000Y-92941000D02*
X274390000Y-92941000D01*
X274390000Y-92716000D02*
X276790000Y-92716000D01*
X274390000Y-92841000D02*
X276790000Y-92841000D01*
X274390000Y-92916000D02*
X274390000Y-87116000D01*
X274390000Y-87116000D02*
X276790000Y-87116000D01*
X276790000Y-87116000D02*
X276790000Y-92916000D01*
X255340000Y-88381000D02*
X257740000Y-88381000D01*
X255340000Y-88556000D02*
X257740000Y-88556000D01*
X255340000Y-88731000D02*
X257740000Y-88731000D01*
X257740000Y-89131000D02*
X255340000Y-89131000D01*
X255340000Y-88906000D02*
X257740000Y-88906000D01*
X255340000Y-89031000D02*
X257740000Y-89031000D01*
X255340000Y-89106000D02*
X255340000Y-83306000D01*
X255340000Y-83306000D02*
X257740000Y-83306000D01*
X257740000Y-83306000D02*
X257740000Y-89106000D01*
X236290000Y-84317000D02*
X238690000Y-84317000D01*
X236290000Y-84492000D02*
X238690000Y-84492000D01*
X236290000Y-84667000D02*
X238690000Y-84667000D01*
X238690000Y-85067000D02*
X236290000Y-85067000D01*
X236290000Y-84842000D02*
X238690000Y-84842000D01*
X236290000Y-84967000D02*
X238690000Y-84967000D01*
X236290000Y-85042000D02*
X236290000Y-79242000D01*
X236290000Y-79242000D02*
X238690000Y-79242000D01*
X238690000Y-79242000D02*
X238690000Y-85042000D01*
X217494000Y-88127000D02*
X219894000Y-88127000D01*
X217494000Y-88302000D02*
X219894000Y-88302000D01*
X217494000Y-88477000D02*
X219894000Y-88477000D01*
X219894000Y-88877000D02*
X217494000Y-88877000D01*
X217494000Y-88652000D02*
X219894000Y-88652000D01*
X217494000Y-88777000D02*
X219894000Y-88777000D01*
X217494000Y-88852000D02*
X217494000Y-83052000D01*
X217494000Y-83052000D02*
X219894000Y-83052000D01*
X219894000Y-83052000D02*
X219894000Y-88852000D01*
X198444000Y-92191000D02*
X200844000Y-92191000D01*
X198444000Y-92366000D02*
X200844000Y-92366000D01*
X198444000Y-92541000D02*
X200844000Y-92541000D01*
X200844000Y-92941000D02*
X198444000Y-92941000D01*
X198444000Y-92716000D02*
X200844000Y-92716000D01*
X198444000Y-92841000D02*
X200844000Y-92841000D01*
X198444000Y-92916000D02*
X198444000Y-87116000D01*
X198444000Y-87116000D02*
X200844000Y-87116000D01*
X200844000Y-87116000D02*
X200844000Y-92916000D01*
X121736000Y-91937000D02*
X124136000Y-91937000D01*
X121736000Y-92112000D02*
X124136000Y-92112000D01*
X121736000Y-92287000D02*
X124136000Y-92287000D01*
X124136000Y-92687000D02*
X121736000Y-92687000D01*
X121736000Y-92462000D02*
X124136000Y-92462000D01*
X121736000Y-92587000D02*
X124136000Y-92587000D01*
X121736000Y-92662000D02*
X121736000Y-86862000D01*
X121736000Y-86862000D02*
X124136000Y-86862000D01*
X124136000Y-86862000D02*
X124136000Y-92662000D01*
X102686000Y-88381000D02*
X105086000Y-88381000D01*
X102686000Y-88556000D02*
X105086000Y-88556000D01*
X102686000Y-88731000D02*
X105086000Y-88731000D01*
X105086000Y-89131000D02*
X102686000Y-89131000D01*
X102686000Y-88906000D02*
X105086000Y-88906000D01*
X102686000Y-89031000D02*
X105086000Y-89031000D01*
X102686000Y-89106000D02*
X102686000Y-83306000D01*
X102686000Y-83306000D02*
X105086000Y-83306000D01*
X105086000Y-83306000D02*
X105086000Y-89106000D01*
X83636000Y-84063000D02*
X86036000Y-84063000D01*
X83636000Y-84238000D02*
X86036000Y-84238000D01*
X83636000Y-84413000D02*
X86036000Y-84413000D01*
X86036000Y-84813000D02*
X83636000Y-84813000D01*
X83636000Y-84588000D02*
X86036000Y-84588000D01*
X83636000Y-84713000D02*
X86036000Y-84713000D01*
X83636000Y-84788000D02*
X83636000Y-78988000D01*
X83636000Y-78988000D02*
X86036000Y-78988000D01*
X86036000Y-78988000D02*
X86036000Y-84788000D01*
X64586000Y-88127000D02*
X66986000Y-88127000D01*
X64586000Y-88302000D02*
X66986000Y-88302000D01*
X64586000Y-88477000D02*
X66986000Y-88477000D01*
X66986000Y-88877000D02*
X64586000Y-88877000D01*
X64586000Y-88652000D02*
X66986000Y-88652000D01*
X64586000Y-88777000D02*
X66986000Y-88777000D01*
X64586000Y-88852000D02*
X64586000Y-83052000D01*
X64586000Y-83052000D02*
X66986000Y-83052000D01*
X66986000Y-83052000D02*
X66986000Y-88852000D01*
X293440000Y-115305000D02*
X295840000Y-115305000D01*
X293440000Y-115480000D02*
X295840000Y-115480000D01*
X293440000Y-115655000D02*
X295840000Y-115655000D01*
X295840000Y-116055000D02*
X293440000Y-116055000D01*
X293440000Y-115830000D02*
X295840000Y-115830000D01*
X293440000Y-115955000D02*
X295840000Y-115955000D01*
X293440000Y-116030000D02*
X293440000Y-110230000D01*
X293440000Y-110230000D02*
X295840000Y-110230000D01*
X295840000Y-110230000D02*
X295840000Y-116030000D01*
X274390000Y-111241000D02*
X276790000Y-111241000D01*
X274390000Y-111416000D02*
X276790000Y-111416000D01*
X274390000Y-111591000D02*
X276790000Y-111591000D01*
X276790000Y-111991000D02*
X274390000Y-111991000D01*
X274390000Y-111766000D02*
X276790000Y-111766000D01*
X274390000Y-111891000D02*
X276790000Y-111891000D01*
X274390000Y-111966000D02*
X274390000Y-106166000D01*
X274390000Y-106166000D02*
X276790000Y-106166000D01*
X276790000Y-106166000D02*
X276790000Y-111966000D01*
X255340000Y-107431000D02*
X257740000Y-107431000D01*
X255340000Y-107606000D02*
X257740000Y-107606000D01*
X255340000Y-107781000D02*
X257740000Y-107781000D01*
X257740000Y-108181000D02*
X255340000Y-108181000D01*
X255340000Y-107956000D02*
X257740000Y-107956000D01*
X255340000Y-108081000D02*
X257740000Y-108081000D01*
X255340000Y-108156000D02*
X255340000Y-102356000D01*
X255340000Y-102356000D02*
X257740000Y-102356000D01*
X257740000Y-102356000D02*
X257740000Y-108156000D01*
X236290000Y-103113000D02*
X238690000Y-103113000D01*
X236290000Y-103288000D02*
X238690000Y-103288000D01*
X236290000Y-103463000D02*
X238690000Y-103463000D01*
X238690000Y-103863000D02*
X236290000Y-103863000D01*
X236290000Y-103638000D02*
X238690000Y-103638000D01*
X236290000Y-103763000D02*
X238690000Y-103763000D01*
X236290000Y-103838000D02*
X236290000Y-98038000D01*
X236290000Y-98038000D02*
X238690000Y-98038000D01*
X238690000Y-98038000D02*
X238690000Y-103838000D01*
X217494000Y-107177000D02*
X219894000Y-107177000D01*
X217494000Y-107352000D02*
X219894000Y-107352000D01*
X217494000Y-107527000D02*
X219894000Y-107527000D01*
X219894000Y-107927000D02*
X217494000Y-107927000D01*
X217494000Y-107702000D02*
X219894000Y-107702000D01*
X217494000Y-107827000D02*
X219894000Y-107827000D01*
X217494000Y-107902000D02*
X217494000Y-102102000D01*
X217494000Y-102102000D02*
X219894000Y-102102000D01*
X219894000Y-102102000D02*
X219894000Y-107902000D01*
X198444000Y-111241000D02*
X200844000Y-111241000D01*
X198444000Y-111416000D02*
X200844000Y-111416000D01*
X198444000Y-111591000D02*
X200844000Y-111591000D01*
X200844000Y-111991000D02*
X198444000Y-111991000D01*
X198444000Y-111766000D02*
X200844000Y-111766000D01*
X198444000Y-111891000D02*
X200844000Y-111891000D01*
X198444000Y-111966000D02*
X198444000Y-106166000D01*
X198444000Y-106166000D02*
X200844000Y-106166000D01*
X200844000Y-106166000D02*
X200844000Y-111966000D01*
X121736000Y-111241000D02*
X124136000Y-111241000D01*
X121736000Y-111416000D02*
X124136000Y-111416000D01*
X121736000Y-111591000D02*
X124136000Y-111591000D01*
X124136000Y-111991000D02*
X121736000Y-111991000D01*
X121736000Y-111766000D02*
X124136000Y-111766000D01*
X121736000Y-111891000D02*
X124136000Y-111891000D01*
X121736000Y-111966000D02*
X121736000Y-106166000D01*
X121736000Y-106166000D02*
X124136000Y-106166000D01*
X124136000Y-106166000D02*
X124136000Y-111966000D01*
X102686000Y-107177000D02*
X105086000Y-107177000D01*
X102686000Y-107352000D02*
X105086000Y-107352000D01*
X102686000Y-107527000D02*
X105086000Y-107527000D01*
X105086000Y-107927000D02*
X102686000Y-107927000D01*
X102686000Y-107702000D02*
X105086000Y-107702000D01*
X102686000Y-107827000D02*
X105086000Y-107827000D01*
X102686000Y-107902000D02*
X102686000Y-102102000D01*
X102686000Y-102102000D02*
X105086000Y-102102000D01*
X105086000Y-102102000D02*
X105086000Y-107902000D01*
X83636000Y-103113000D02*
X86036000Y-103113000D01*
X83636000Y-103288000D02*
X86036000Y-103288000D01*
X83636000Y-103463000D02*
X86036000Y-103463000D01*
X86036000Y-103863000D02*
X83636000Y-103863000D01*
X83636000Y-103638000D02*
X86036000Y-103638000D01*
X83636000Y-103763000D02*
X86036000Y-103763000D01*
X83636000Y-103838000D02*
X83636000Y-98038000D01*
X83636000Y-98038000D02*
X86036000Y-98038000D01*
X86036000Y-98038000D02*
X86036000Y-103838000D01*
X64586000Y-107177000D02*
X66986000Y-107177000D01*
X64586000Y-107352000D02*
X66986000Y-107352000D01*
X64586000Y-107527000D02*
X66986000Y-107527000D01*
X66986000Y-107927000D02*
X64586000Y-107927000D01*
X64586000Y-107702000D02*
X66986000Y-107702000D01*
X64586000Y-107827000D02*
X66986000Y-107827000D01*
X64586000Y-107902000D02*
X64586000Y-102102000D01*
X64586000Y-102102000D02*
X66986000Y-102102000D01*
X66986000Y-102102000D02*
X66986000Y-107902000D01*
X217494000Y-126227000D02*
X219894000Y-126227000D01*
X217494000Y-126402000D02*
X219894000Y-126402000D01*
X217494000Y-126577000D02*
X219894000Y-126577000D01*
X219894000Y-126977000D02*
X217494000Y-126977000D01*
X217494000Y-126752000D02*
X219894000Y-126752000D01*
X217494000Y-126877000D02*
X219894000Y-126877000D01*
X217494000Y-126952000D02*
X217494000Y-121152000D01*
X217494000Y-121152000D02*
X219894000Y-121152000D01*
X219894000Y-121152000D02*
X219894000Y-126952000D01*
X183204000Y-130291000D02*
X185604000Y-130291000D01*
X183204000Y-130466000D02*
X185604000Y-130466000D01*
X183204000Y-130641000D02*
X185604000Y-130641000D01*
X185604000Y-131041000D02*
X183204000Y-131041000D01*
X183204000Y-130816000D02*
X185604000Y-130816000D01*
X183204000Y-130941000D02*
X185604000Y-130941000D01*
X183204000Y-131016000D02*
X183204000Y-125216000D01*
X183204000Y-125216000D02*
X185604000Y-125216000D01*
X185604000Y-125216000D02*
X185604000Y-131016000D01*
X183204000Y-149087000D02*
X185604000Y-149087000D01*
X183204000Y-149262000D02*
X185604000Y-149262000D01*
X183204000Y-149437000D02*
X185604000Y-149437000D01*
X185604000Y-149837000D02*
X183204000Y-149837000D01*
X183204000Y-149612000D02*
X185604000Y-149612000D01*
X183204000Y-149737000D02*
X185604000Y-149737000D01*
X183204000Y-149812000D02*
X183204000Y-144012000D01*
X183204000Y-144012000D02*
X185604000Y-144012000D01*
X185604000Y-144012000D02*
X185604000Y-149812000D01*
X136722000Y-149341000D02*
X139122000Y-149341000D01*
X136722000Y-149516000D02*
X139122000Y-149516000D01*
X136722000Y-149691000D02*
X139122000Y-149691000D01*
X139122000Y-150091000D02*
X136722000Y-150091000D01*
X136722000Y-149866000D02*
X139122000Y-149866000D01*
X136722000Y-149991000D02*
X139122000Y-149991000D01*
X136722000Y-150066000D02*
X136722000Y-144266000D01*
X136722000Y-144266000D02*
X139122000Y-144266000D01*
X139122000Y-144266000D02*
X139122000Y-150066000D01*
X136722000Y-130291000D02*
X139122000Y-130291000D01*
X136722000Y-130466000D02*
X139122000Y-130466000D01*
X136722000Y-130641000D02*
X139122000Y-130641000D01*
X139122000Y-131041000D02*
X136722000Y-131041000D01*
X136722000Y-130816000D02*
X139122000Y-130816000D01*
X136722000Y-130941000D02*
X139122000Y-130941000D01*
X136722000Y-131016000D02*
X136722000Y-125216000D01*
X136722000Y-125216000D02*
X139122000Y-125216000D01*
X139122000Y-125216000D02*
X139122000Y-131016000D01*
X102686000Y-126227000D02*
X105086000Y-126227000D01*
X102686000Y-126402000D02*
X105086000Y-126402000D01*
X102686000Y-126577000D02*
X105086000Y-126577000D01*
X105086000Y-126977000D02*
X102686000Y-126977000D01*
X102686000Y-126752000D02*
X105086000Y-126752000D01*
X102686000Y-126877000D02*
X105086000Y-126877000D01*
X102686000Y-126952000D02*
X102686000Y-121152000D01*
X102686000Y-121152000D02*
X105086000Y-121152000D01*
X105086000Y-121152000D02*
X105086000Y-126952000D01*
X45536000Y-73141000D02*
X47936000Y-73141000D01*
X45536000Y-73316000D02*
X47936000Y-73316000D01*
X45536000Y-73491000D02*
X47936000Y-73491000D01*
X47936000Y-73891000D02*
X45536000Y-73891000D01*
X45536000Y-73666000D02*
X47936000Y-73666000D01*
X45536000Y-73791000D02*
X47936000Y-73791000D01*
X45536000Y-73866000D02*
X45536000Y-68066000D01*
X45536000Y-68066000D02*
X47936000Y-68066000D01*
X47936000Y-68066000D02*
X47936000Y-73866000D01*
X26740000Y-77205000D02*
X29140000Y-77205000D01*
X26740000Y-77380000D02*
X29140000Y-77380000D01*
X26740000Y-77555000D02*
X29140000Y-77555000D01*
X29140000Y-77955000D02*
X26740000Y-77955000D01*
X26740000Y-77730000D02*
X29140000Y-77730000D01*
X26740000Y-77855000D02*
X29140000Y-77855000D01*
X26740000Y-77930000D02*
X26740000Y-72130000D01*
X26740000Y-72130000D02*
X29140000Y-72130000D01*
X29140000Y-72130000D02*
X29140000Y-77930000D01*
X45536000Y-87873000D02*
X47936000Y-87873000D01*
X45536000Y-88048000D02*
X47936000Y-88048000D01*
X45536000Y-88223000D02*
X47936000Y-88223000D01*
X47936000Y-88623000D02*
X45536000Y-88623000D01*
X45536000Y-88398000D02*
X47936000Y-88398000D01*
X45536000Y-88523000D02*
X47936000Y-88523000D01*
X45536000Y-88598000D02*
X45536000Y-82798000D01*
X45536000Y-82798000D02*
X47936000Y-82798000D01*
X47936000Y-82798000D02*
X47936000Y-88598000D01*
X26740000Y-96255000D02*
X29140000Y-96255000D01*
X26740000Y-96430000D02*
X29140000Y-96430000D01*
X26740000Y-96605000D02*
X29140000Y-96605000D01*
X29140000Y-97005000D02*
X26740000Y-97005000D01*
X26740000Y-96780000D02*
X29140000Y-96780000D01*
X26740000Y-96905000D02*
X29140000Y-96905000D01*
X26740000Y-96980000D02*
X26740000Y-91180000D01*
X26740000Y-91180000D02*
X29140000Y-91180000D01*
X29140000Y-91180000D02*
X29140000Y-96980000D01*
X45536000Y-111241000D02*
X47936000Y-111241000D01*
X45536000Y-111416000D02*
X47936000Y-111416000D01*
X45536000Y-111591000D02*
X47936000Y-111591000D01*
X47936000Y-111991000D02*
X45536000Y-111991000D01*
X45536000Y-111766000D02*
X47936000Y-111766000D01*
X45536000Y-111891000D02*
X47936000Y-111891000D01*
X45536000Y-111966000D02*
X45536000Y-106166000D01*
X45536000Y-106166000D02*
X47936000Y-106166000D01*
X47936000Y-106166000D02*
X47936000Y-111966000D01*
X26740000Y-114797000D02*
X29140000Y-114797000D01*
X26740000Y-114972000D02*
X29140000Y-114972000D01*
X26740000Y-115147000D02*
X29140000Y-115147000D01*
X29140000Y-115547000D02*
X26740000Y-115547000D01*
X26740000Y-115322000D02*
X29140000Y-115322000D01*
X26740000Y-115447000D02*
X29140000Y-115447000D01*
X26740000Y-115522000D02*
X26740000Y-109722000D01*
X26740000Y-109722000D02*
X29140000Y-109722000D01*
X29140000Y-109722000D02*
X29140000Y-115522000D01*
D12*
X167350000Y-66800000D02*
X169890000Y-66800000D01*
X167350000Y-64260000D02*
X167350000Y-66800000D01*
D10*
G36*
X154955365Y-70549030D02*
G01*
X154955365Y-70649030D01*
X154855365Y-70649030D01*
X154855365Y-70549030D01*
X154955365Y-70549030D01*
G37*
X154955365Y-70549030D02*
X154955365Y-70649030D01*
X154855365Y-70649030D01*
X154855365Y-70549030D01*
X154955365Y-70549030D01*
G36*
X154755365Y-70149030D02*
G01*
X154755365Y-70949030D01*
X154655365Y-70949030D01*
X154655365Y-70149030D01*
X154755365Y-70149030D01*
G37*
X154755365Y-70149030D02*
X154755365Y-70949030D01*
X154655365Y-70949030D01*
X154655365Y-70149030D01*
X154755365Y-70149030D01*
G36*
X155155365Y-70749030D02*
G01*
X155155365Y-70949030D01*
X155055365Y-70949030D01*
X155055365Y-70749030D01*
X155155365Y-70749030D01*
G37*
X155155365Y-70749030D02*
X155155365Y-70949030D01*
X155055365Y-70949030D01*
X155055365Y-70749030D01*
X155155365Y-70749030D01*
G36*
X155155365Y-70149030D02*
G01*
X155155365Y-70449030D01*
X155055365Y-70449030D01*
X155055365Y-70149030D01*
X155155365Y-70149030D01*
G37*
X155155365Y-70149030D02*
X155155365Y-70449030D01*
X155055365Y-70449030D01*
X155055365Y-70149030D01*
X155155365Y-70149030D01*
G36*
X155155365Y-70149030D02*
G01*
X155155365Y-70249030D01*
X154655365Y-70249030D01*
X154655365Y-70149030D01*
X155155365Y-70149030D01*
G37*
X155155365Y-70149030D02*
X155155365Y-70249030D01*
X154655365Y-70249030D01*
X154655365Y-70149030D01*
X155155365Y-70149030D01*
D12*
X152110000Y-94740000D02*
X152110000Y-61720000D01*
X169890000Y-94740000D02*
X152110000Y-94740000D01*
X169890000Y-61720000D02*
X169890000Y-94740000D01*
X152110000Y-61720000D02*
X169890000Y-61720000D01*
X167350000Y-64260000D02*
X169890000Y-64260000D01*
D10*
X56411904Y-71854380D02*
X56411904Y-70854380D01*
X56983333Y-71854380D02*
X56554761Y-71282952D01*
X56983333Y-70854380D02*
X56411904Y-71425809D01*
X57459523Y-71854380D02*
X57650000Y-71854380D01*
X57745238Y-71806761D01*
X57792857Y-71759142D01*
X57888095Y-71616285D01*
X57935714Y-71425809D01*
X57935714Y-71044857D01*
X57888095Y-70949619D01*
X57840476Y-70902000D01*
X57745238Y-70854380D01*
X57554761Y-70854380D01*
X57459523Y-70902000D01*
X57411904Y-70949619D01*
X57364285Y-71044857D01*
X57364285Y-71282952D01*
X57411904Y-71378190D01*
X57459523Y-71425809D01*
X57554761Y-71473428D01*
X57745238Y-71473428D01*
X57840476Y-71425809D01*
X57888095Y-71378190D01*
X57935714Y-71282952D01*
X292715904Y-75520476D02*
X291915904Y-75520476D01*
X291915904Y-75330000D01*
X291954000Y-75215714D01*
X292030190Y-75139523D01*
X292106380Y-75101428D01*
X292258761Y-75063333D01*
X292373047Y-75063333D01*
X292525428Y-75101428D01*
X292601619Y-75139523D01*
X292677809Y-75215714D01*
X292715904Y-75330000D01*
X292715904Y-75520476D01*
X291915904Y-74568095D02*
X291915904Y-74491904D01*
X291954000Y-74415714D01*
X291992095Y-74377619D01*
X292068285Y-74339523D01*
X292220666Y-74301428D01*
X292411142Y-74301428D01*
X292563523Y-74339523D01*
X292639714Y-74377619D01*
X292677809Y-74415714D01*
X292715904Y-74491904D01*
X292715904Y-74568095D01*
X292677809Y-74644285D01*
X292639714Y-74682380D01*
X292563523Y-74720476D01*
X292411142Y-74758571D01*
X292220666Y-74758571D01*
X292068285Y-74720476D01*
X291992095Y-74682380D01*
X291954000Y-74644285D01*
X291915904Y-74568095D01*
X273919904Y-71456476D02*
X273119904Y-71456476D01*
X273119904Y-71266000D01*
X273158000Y-71151714D01*
X273234190Y-71075523D01*
X273310380Y-71037428D01*
X273462761Y-70999333D01*
X273577047Y-70999333D01*
X273729428Y-71037428D01*
X273805619Y-71075523D01*
X273881809Y-71151714D01*
X273919904Y-71266000D01*
X273919904Y-71456476D01*
X273919904Y-70237428D02*
X273919904Y-70694571D01*
X273919904Y-70466000D02*
X273119904Y-70466000D01*
X273234190Y-70542190D01*
X273310380Y-70618380D01*
X273348476Y-70694571D01*
X254869904Y-67646476D02*
X254069904Y-67646476D01*
X254069904Y-67456000D01*
X254108000Y-67341714D01*
X254184190Y-67265523D01*
X254260380Y-67227428D01*
X254412761Y-67189333D01*
X254527047Y-67189333D01*
X254679428Y-67227428D01*
X254755619Y-67265523D01*
X254831809Y-67341714D01*
X254869904Y-67456000D01*
X254869904Y-67646476D01*
X254146095Y-66884571D02*
X254108000Y-66846476D01*
X254069904Y-66770285D01*
X254069904Y-66579809D01*
X254108000Y-66503619D01*
X254146095Y-66465523D01*
X254222285Y-66427428D01*
X254298476Y-66427428D01*
X254412761Y-66465523D01*
X254869904Y-66922666D01*
X254869904Y-66427428D01*
X235819904Y-63582476D02*
X235019904Y-63582476D01*
X235019904Y-63392000D01*
X235058000Y-63277714D01*
X235134190Y-63201523D01*
X235210380Y-63163428D01*
X235362761Y-63125333D01*
X235477047Y-63125333D01*
X235629428Y-63163428D01*
X235705619Y-63201523D01*
X235781809Y-63277714D01*
X235819904Y-63392000D01*
X235819904Y-63582476D01*
X235019904Y-62858666D02*
X235019904Y-62363428D01*
X235324666Y-62630095D01*
X235324666Y-62515809D01*
X235362761Y-62439619D01*
X235400857Y-62401523D01*
X235477047Y-62363428D01*
X235667523Y-62363428D01*
X235743714Y-62401523D01*
X235781809Y-62439619D01*
X235819904Y-62515809D01*
X235819904Y-62744380D01*
X235781809Y-62820571D01*
X235743714Y-62858666D01*
X217023904Y-67392476D02*
X216223904Y-67392476D01*
X216223904Y-67202000D01*
X216262000Y-67087714D01*
X216338190Y-67011523D01*
X216414380Y-66973428D01*
X216566761Y-66935333D01*
X216681047Y-66935333D01*
X216833428Y-66973428D01*
X216909619Y-67011523D01*
X216985809Y-67087714D01*
X217023904Y-67202000D01*
X217023904Y-67392476D01*
X216490571Y-66249619D02*
X217023904Y-66249619D01*
X216185809Y-66440095D02*
X216757238Y-66630571D01*
X216757238Y-66135333D01*
X182733904Y-71202476D02*
X181933904Y-71202476D01*
X181933904Y-71012000D01*
X181972000Y-70897714D01*
X182048190Y-70821523D01*
X182124380Y-70783428D01*
X182276761Y-70745333D01*
X182391047Y-70745333D01*
X182543428Y-70783428D01*
X182619619Y-70821523D01*
X182695809Y-70897714D01*
X182733904Y-71012000D01*
X182733904Y-71202476D01*
X181933904Y-70021523D02*
X181933904Y-70402476D01*
X182314857Y-70440571D01*
X182276761Y-70402476D01*
X182238666Y-70326285D01*
X182238666Y-70135809D01*
X182276761Y-70059619D01*
X182314857Y-70021523D01*
X182391047Y-69983428D01*
X182581523Y-69983428D01*
X182657714Y-70021523D01*
X182695809Y-70059619D01*
X182733904Y-70135809D01*
X182733904Y-70326285D01*
X182695809Y-70402476D01*
X182657714Y-70440571D01*
X140208904Y-71456476D02*
X139408904Y-71456476D01*
X139408904Y-71266000D01*
X139447000Y-71151714D01*
X139523190Y-71075523D01*
X139599380Y-71037428D01*
X139751761Y-70999333D01*
X139866047Y-70999333D01*
X140018428Y-71037428D01*
X140094619Y-71075523D01*
X140170809Y-71151714D01*
X140208904Y-71266000D01*
X140208904Y-71456476D01*
X139408904Y-70313619D02*
X139408904Y-70466000D01*
X139447000Y-70542190D01*
X139485095Y-70580285D01*
X139599380Y-70656476D01*
X139751761Y-70694571D01*
X140056523Y-70694571D01*
X140132714Y-70656476D01*
X140170809Y-70618380D01*
X140208904Y-70542190D01*
X140208904Y-70389809D01*
X140170809Y-70313619D01*
X140132714Y-70275523D01*
X140056523Y-70237428D01*
X139866047Y-70237428D01*
X139789857Y-70275523D01*
X139751761Y-70313619D01*
X139713666Y-70389809D01*
X139713666Y-70542190D01*
X139751761Y-70618380D01*
X139789857Y-70656476D01*
X139866047Y-70694571D01*
X106172904Y-67646476D02*
X105372904Y-67646476D01*
X105372904Y-67456000D01*
X105411000Y-67341714D01*
X105487190Y-67265523D01*
X105563380Y-67227428D01*
X105715761Y-67189333D01*
X105830047Y-67189333D01*
X105982428Y-67227428D01*
X106058619Y-67265523D01*
X106134809Y-67341714D01*
X106172904Y-67456000D01*
X106172904Y-67646476D01*
X105372904Y-66922666D02*
X105372904Y-66389333D01*
X106172904Y-66732190D01*
X87122904Y-63582476D02*
X86322904Y-63582476D01*
X86322904Y-63392000D01*
X86361000Y-63277714D01*
X86437190Y-63201523D01*
X86513380Y-63163428D01*
X86665761Y-63125333D01*
X86780047Y-63125333D01*
X86932428Y-63163428D01*
X87008619Y-63201523D01*
X87084809Y-63277714D01*
X87122904Y-63392000D01*
X87122904Y-63582476D01*
X86665761Y-62668190D02*
X86627666Y-62744380D01*
X86589571Y-62782476D01*
X86513380Y-62820571D01*
X86475285Y-62820571D01*
X86399095Y-62782476D01*
X86361000Y-62744380D01*
X86322904Y-62668190D01*
X86322904Y-62515809D01*
X86361000Y-62439619D01*
X86399095Y-62401523D01*
X86475285Y-62363428D01*
X86513380Y-62363428D01*
X86589571Y-62401523D01*
X86627666Y-62439619D01*
X86665761Y-62515809D01*
X86665761Y-62668190D01*
X86703857Y-62744380D01*
X86741952Y-62782476D01*
X86818142Y-62820571D01*
X86970523Y-62820571D01*
X87046714Y-62782476D01*
X87084809Y-62744380D01*
X87122904Y-62668190D01*
X87122904Y-62515809D01*
X87084809Y-62439619D01*
X87046714Y-62401523D01*
X86970523Y-62363428D01*
X86818142Y-62363428D01*
X86741952Y-62401523D01*
X86703857Y-62439619D01*
X86665761Y-62515809D01*
X68072904Y-67392476D02*
X67272904Y-67392476D01*
X67272904Y-67202000D01*
X67311000Y-67087714D01*
X67387190Y-67011523D01*
X67463380Y-66973428D01*
X67615761Y-66935333D01*
X67730047Y-66935333D01*
X67882428Y-66973428D01*
X67958619Y-67011523D01*
X68034809Y-67087714D01*
X68072904Y-67202000D01*
X68072904Y-67392476D01*
X68072904Y-66554380D02*
X68072904Y-66402000D01*
X68034809Y-66325809D01*
X67996714Y-66287714D01*
X67882428Y-66211523D01*
X67730047Y-66173428D01*
X67425285Y-66173428D01*
X67349095Y-66211523D01*
X67311000Y-66249619D01*
X67272904Y-66325809D01*
X67272904Y-66478190D01*
X67311000Y-66554380D01*
X67349095Y-66592476D01*
X67425285Y-66630571D01*
X67615761Y-66630571D01*
X67691952Y-66592476D01*
X67730047Y-66554380D01*
X67768142Y-66478190D01*
X67768142Y-66325809D01*
X67730047Y-66249619D01*
X67691952Y-66211523D01*
X67615761Y-66173428D01*
X292969904Y-94951428D02*
X292169904Y-94951428D01*
X292169904Y-94760952D01*
X292208000Y-94646666D01*
X292284190Y-94570476D01*
X292360380Y-94532380D01*
X292512761Y-94494285D01*
X292627047Y-94494285D01*
X292779428Y-94532380D01*
X292855619Y-94570476D01*
X292931809Y-94646666D01*
X292969904Y-94760952D01*
X292969904Y-94951428D01*
X292969904Y-93732380D02*
X292969904Y-94189523D01*
X292969904Y-93960952D02*
X292169904Y-93960952D01*
X292284190Y-94037142D01*
X292360380Y-94113333D01*
X292398476Y-94189523D01*
X292169904Y-93237142D02*
X292169904Y-93160952D01*
X292208000Y-93084761D01*
X292246095Y-93046666D01*
X292322285Y-93008571D01*
X292474666Y-92970476D01*
X292665142Y-92970476D01*
X292817523Y-93008571D01*
X292893714Y-93046666D01*
X292931809Y-93084761D01*
X292969904Y-93160952D01*
X292969904Y-93237142D01*
X292931809Y-93313333D01*
X292893714Y-93351428D01*
X292817523Y-93389523D01*
X292665142Y-93427619D01*
X292474666Y-93427619D01*
X292322285Y-93389523D01*
X292246095Y-93351428D01*
X292208000Y-93313333D01*
X292169904Y-93237142D01*
X273919904Y-90887428D02*
X273119904Y-90887428D01*
X273119904Y-90696952D01*
X273158000Y-90582666D01*
X273234190Y-90506476D01*
X273310380Y-90468380D01*
X273462761Y-90430285D01*
X273577047Y-90430285D01*
X273729428Y-90468380D01*
X273805619Y-90506476D01*
X273881809Y-90582666D01*
X273919904Y-90696952D01*
X273919904Y-90887428D01*
X273919904Y-89668380D02*
X273919904Y-90125523D01*
X273919904Y-89896952D02*
X273119904Y-89896952D01*
X273234190Y-89973142D01*
X273310380Y-90049333D01*
X273348476Y-90125523D01*
X273919904Y-88906476D02*
X273919904Y-89363619D01*
X273919904Y-89135047D02*
X273119904Y-89135047D01*
X273234190Y-89211238D01*
X273310380Y-89287428D01*
X273348476Y-89363619D01*
X254869904Y-87077428D02*
X254069904Y-87077428D01*
X254069904Y-86886952D01*
X254108000Y-86772666D01*
X254184190Y-86696476D01*
X254260380Y-86658380D01*
X254412761Y-86620285D01*
X254527047Y-86620285D01*
X254679428Y-86658380D01*
X254755619Y-86696476D01*
X254831809Y-86772666D01*
X254869904Y-86886952D01*
X254869904Y-87077428D01*
X254869904Y-85858380D02*
X254869904Y-86315523D01*
X254869904Y-86086952D02*
X254069904Y-86086952D01*
X254184190Y-86163142D01*
X254260380Y-86239333D01*
X254298476Y-86315523D01*
X254146095Y-85553619D02*
X254108000Y-85515523D01*
X254069904Y-85439333D01*
X254069904Y-85248857D01*
X254108000Y-85172666D01*
X254146095Y-85134571D01*
X254222285Y-85096476D01*
X254298476Y-85096476D01*
X254412761Y-85134571D01*
X254869904Y-85591714D01*
X254869904Y-85096476D01*
X235819904Y-83013428D02*
X235019904Y-83013428D01*
X235019904Y-82822952D01*
X235058000Y-82708666D01*
X235134190Y-82632476D01*
X235210380Y-82594380D01*
X235362761Y-82556285D01*
X235477047Y-82556285D01*
X235629428Y-82594380D01*
X235705619Y-82632476D01*
X235781809Y-82708666D01*
X235819904Y-82822952D01*
X235819904Y-83013428D01*
X235819904Y-81794380D02*
X235819904Y-82251523D01*
X235819904Y-82022952D02*
X235019904Y-82022952D01*
X235134190Y-82099142D01*
X235210380Y-82175333D01*
X235248476Y-82251523D01*
X235019904Y-81527714D02*
X235019904Y-81032476D01*
X235324666Y-81299142D01*
X235324666Y-81184857D01*
X235362761Y-81108666D01*
X235400857Y-81070571D01*
X235477047Y-81032476D01*
X235667523Y-81032476D01*
X235743714Y-81070571D01*
X235781809Y-81108666D01*
X235819904Y-81184857D01*
X235819904Y-81413428D01*
X235781809Y-81489619D01*
X235743714Y-81527714D01*
X217023904Y-86823428D02*
X216223904Y-86823428D01*
X216223904Y-86632952D01*
X216262000Y-86518666D01*
X216338190Y-86442476D01*
X216414380Y-86404380D01*
X216566761Y-86366285D01*
X216681047Y-86366285D01*
X216833428Y-86404380D01*
X216909619Y-86442476D01*
X216985809Y-86518666D01*
X217023904Y-86632952D01*
X217023904Y-86823428D01*
X217023904Y-85604380D02*
X217023904Y-86061523D01*
X217023904Y-85832952D02*
X216223904Y-85832952D01*
X216338190Y-85909142D01*
X216414380Y-85985333D01*
X216452476Y-86061523D01*
X216490571Y-84918666D02*
X217023904Y-84918666D01*
X216185809Y-85109142D02*
X216757238Y-85299619D01*
X216757238Y-84804380D01*
X197973904Y-90887428D02*
X197173904Y-90887428D01*
X197173904Y-90696952D01*
X197212000Y-90582666D01*
X197288190Y-90506476D01*
X197364380Y-90468380D01*
X197516761Y-90430285D01*
X197631047Y-90430285D01*
X197783428Y-90468380D01*
X197859619Y-90506476D01*
X197935809Y-90582666D01*
X197973904Y-90696952D01*
X197973904Y-90887428D01*
X197973904Y-89668380D02*
X197973904Y-90125523D01*
X197973904Y-89896952D02*
X197173904Y-89896952D01*
X197288190Y-89973142D01*
X197364380Y-90049333D01*
X197402476Y-90125523D01*
X197173904Y-88944571D02*
X197173904Y-89325523D01*
X197554857Y-89363619D01*
X197516761Y-89325523D01*
X197478666Y-89249333D01*
X197478666Y-89058857D01*
X197516761Y-88982666D01*
X197554857Y-88944571D01*
X197631047Y-88906476D01*
X197821523Y-88906476D01*
X197897714Y-88944571D01*
X197935809Y-88982666D01*
X197973904Y-89058857D01*
X197973904Y-89249333D01*
X197935809Y-89325523D01*
X197897714Y-89363619D01*
X125222904Y-90633428D02*
X124422904Y-90633428D01*
X124422904Y-90442952D01*
X124461000Y-90328666D01*
X124537190Y-90252476D01*
X124613380Y-90214380D01*
X124765761Y-90176285D01*
X124880047Y-90176285D01*
X125032428Y-90214380D01*
X125108619Y-90252476D01*
X125184809Y-90328666D01*
X125222904Y-90442952D01*
X125222904Y-90633428D01*
X125222904Y-89414380D02*
X125222904Y-89871523D01*
X125222904Y-89642952D02*
X124422904Y-89642952D01*
X124537190Y-89719142D01*
X124613380Y-89795333D01*
X124651476Y-89871523D01*
X124422904Y-88728666D02*
X124422904Y-88881047D01*
X124461000Y-88957238D01*
X124499095Y-88995333D01*
X124613380Y-89071523D01*
X124765761Y-89109619D01*
X125070523Y-89109619D01*
X125146714Y-89071523D01*
X125184809Y-89033428D01*
X125222904Y-88957238D01*
X125222904Y-88804857D01*
X125184809Y-88728666D01*
X125146714Y-88690571D01*
X125070523Y-88652476D01*
X124880047Y-88652476D01*
X124803857Y-88690571D01*
X124765761Y-88728666D01*
X124727666Y-88804857D01*
X124727666Y-88957238D01*
X124765761Y-89033428D01*
X124803857Y-89071523D01*
X124880047Y-89109619D01*
X106172904Y-87077428D02*
X105372904Y-87077428D01*
X105372904Y-86886952D01*
X105411000Y-86772666D01*
X105487190Y-86696476D01*
X105563380Y-86658380D01*
X105715761Y-86620285D01*
X105830047Y-86620285D01*
X105982428Y-86658380D01*
X106058619Y-86696476D01*
X106134809Y-86772666D01*
X106172904Y-86886952D01*
X106172904Y-87077428D01*
X106172904Y-85858380D02*
X106172904Y-86315523D01*
X106172904Y-86086952D02*
X105372904Y-86086952D01*
X105487190Y-86163142D01*
X105563380Y-86239333D01*
X105601476Y-86315523D01*
X105372904Y-85591714D02*
X105372904Y-85058380D01*
X106172904Y-85401238D01*
X87122904Y-82759428D02*
X86322904Y-82759428D01*
X86322904Y-82568952D01*
X86361000Y-82454666D01*
X86437190Y-82378476D01*
X86513380Y-82340380D01*
X86665761Y-82302285D01*
X86780047Y-82302285D01*
X86932428Y-82340380D01*
X87008619Y-82378476D01*
X87084809Y-82454666D01*
X87122904Y-82568952D01*
X87122904Y-82759428D01*
X87122904Y-81540380D02*
X87122904Y-81997523D01*
X87122904Y-81768952D02*
X86322904Y-81768952D01*
X86437190Y-81845142D01*
X86513380Y-81921333D01*
X86551476Y-81997523D01*
X86665761Y-81083238D02*
X86627666Y-81159428D01*
X86589571Y-81197523D01*
X86513380Y-81235619D01*
X86475285Y-81235619D01*
X86399095Y-81197523D01*
X86361000Y-81159428D01*
X86322904Y-81083238D01*
X86322904Y-80930857D01*
X86361000Y-80854666D01*
X86399095Y-80816571D01*
X86475285Y-80778476D01*
X86513380Y-80778476D01*
X86589571Y-80816571D01*
X86627666Y-80854666D01*
X86665761Y-80930857D01*
X86665761Y-81083238D01*
X86703857Y-81159428D01*
X86741952Y-81197523D01*
X86818142Y-81235619D01*
X86970523Y-81235619D01*
X87046714Y-81197523D01*
X87084809Y-81159428D01*
X87122904Y-81083238D01*
X87122904Y-80930857D01*
X87084809Y-80854666D01*
X87046714Y-80816571D01*
X86970523Y-80778476D01*
X86818142Y-80778476D01*
X86741952Y-80816571D01*
X86703857Y-80854666D01*
X86665761Y-80930857D01*
X68072904Y-86823428D02*
X67272904Y-86823428D01*
X67272904Y-86632952D01*
X67311000Y-86518666D01*
X67387190Y-86442476D01*
X67463380Y-86404380D01*
X67615761Y-86366285D01*
X67730047Y-86366285D01*
X67882428Y-86404380D01*
X67958619Y-86442476D01*
X68034809Y-86518666D01*
X68072904Y-86632952D01*
X68072904Y-86823428D01*
X68072904Y-85604380D02*
X68072904Y-86061523D01*
X68072904Y-85832952D02*
X67272904Y-85832952D01*
X67387190Y-85909142D01*
X67463380Y-85985333D01*
X67501476Y-86061523D01*
X68072904Y-85223428D02*
X68072904Y-85071047D01*
X68034809Y-84994857D01*
X67996714Y-84956761D01*
X67882428Y-84880571D01*
X67730047Y-84842476D01*
X67425285Y-84842476D01*
X67349095Y-84880571D01*
X67311000Y-84918666D01*
X67272904Y-84994857D01*
X67272904Y-85147238D01*
X67311000Y-85223428D01*
X67349095Y-85261523D01*
X67425285Y-85299619D01*
X67615761Y-85299619D01*
X67691952Y-85261523D01*
X67730047Y-85223428D01*
X67768142Y-85147238D01*
X67768142Y-84994857D01*
X67730047Y-84918666D01*
X67691952Y-84880571D01*
X67615761Y-84842476D01*
X292969904Y-114001428D02*
X292169904Y-114001428D01*
X292169904Y-113810952D01*
X292208000Y-113696666D01*
X292284190Y-113620476D01*
X292360380Y-113582380D01*
X292512761Y-113544285D01*
X292627047Y-113544285D01*
X292779428Y-113582380D01*
X292855619Y-113620476D01*
X292931809Y-113696666D01*
X292969904Y-113810952D01*
X292969904Y-114001428D01*
X292246095Y-113239523D02*
X292208000Y-113201428D01*
X292169904Y-113125238D01*
X292169904Y-112934761D01*
X292208000Y-112858571D01*
X292246095Y-112820476D01*
X292322285Y-112782380D01*
X292398476Y-112782380D01*
X292512761Y-112820476D01*
X292969904Y-113277619D01*
X292969904Y-112782380D01*
X292169904Y-112287142D02*
X292169904Y-112210952D01*
X292208000Y-112134761D01*
X292246095Y-112096666D01*
X292322285Y-112058571D01*
X292474666Y-112020476D01*
X292665142Y-112020476D01*
X292817523Y-112058571D01*
X292893714Y-112096666D01*
X292931809Y-112134761D01*
X292969904Y-112210952D01*
X292969904Y-112287142D01*
X292931809Y-112363333D01*
X292893714Y-112401428D01*
X292817523Y-112439523D01*
X292665142Y-112477619D01*
X292474666Y-112477619D01*
X292322285Y-112439523D01*
X292246095Y-112401428D01*
X292208000Y-112363333D01*
X292169904Y-112287142D01*
X273919904Y-109937428D02*
X273119904Y-109937428D01*
X273119904Y-109746952D01*
X273158000Y-109632666D01*
X273234190Y-109556476D01*
X273310380Y-109518380D01*
X273462761Y-109480285D01*
X273577047Y-109480285D01*
X273729428Y-109518380D01*
X273805619Y-109556476D01*
X273881809Y-109632666D01*
X273919904Y-109746952D01*
X273919904Y-109937428D01*
X273196095Y-109175523D02*
X273158000Y-109137428D01*
X273119904Y-109061238D01*
X273119904Y-108870761D01*
X273158000Y-108794571D01*
X273196095Y-108756476D01*
X273272285Y-108718380D01*
X273348476Y-108718380D01*
X273462761Y-108756476D01*
X273919904Y-109213619D01*
X273919904Y-108718380D01*
X273919904Y-107956476D02*
X273919904Y-108413619D01*
X273919904Y-108185047D02*
X273119904Y-108185047D01*
X273234190Y-108261238D01*
X273310380Y-108337428D01*
X273348476Y-108413619D01*
X254869904Y-106127428D02*
X254069904Y-106127428D01*
X254069904Y-105936952D01*
X254108000Y-105822666D01*
X254184190Y-105746476D01*
X254260380Y-105708380D01*
X254412761Y-105670285D01*
X254527047Y-105670285D01*
X254679428Y-105708380D01*
X254755619Y-105746476D01*
X254831809Y-105822666D01*
X254869904Y-105936952D01*
X254869904Y-106127428D01*
X254146095Y-105365523D02*
X254108000Y-105327428D01*
X254069904Y-105251238D01*
X254069904Y-105060761D01*
X254108000Y-104984571D01*
X254146095Y-104946476D01*
X254222285Y-104908380D01*
X254298476Y-104908380D01*
X254412761Y-104946476D01*
X254869904Y-105403619D01*
X254869904Y-104908380D01*
X254146095Y-104603619D02*
X254108000Y-104565523D01*
X254069904Y-104489333D01*
X254069904Y-104298857D01*
X254108000Y-104222666D01*
X254146095Y-104184571D01*
X254222285Y-104146476D01*
X254298476Y-104146476D01*
X254412761Y-104184571D01*
X254869904Y-104641714D01*
X254869904Y-104146476D01*
X235819904Y-101809428D02*
X235019904Y-101809428D01*
X235019904Y-101618952D01*
X235058000Y-101504666D01*
X235134190Y-101428476D01*
X235210380Y-101390380D01*
X235362761Y-101352285D01*
X235477047Y-101352285D01*
X235629428Y-101390380D01*
X235705619Y-101428476D01*
X235781809Y-101504666D01*
X235819904Y-101618952D01*
X235819904Y-101809428D01*
X235096095Y-101047523D02*
X235058000Y-101009428D01*
X235019904Y-100933238D01*
X235019904Y-100742761D01*
X235058000Y-100666571D01*
X235096095Y-100628476D01*
X235172285Y-100590380D01*
X235248476Y-100590380D01*
X235362761Y-100628476D01*
X235819904Y-101085619D01*
X235819904Y-100590380D01*
X235019904Y-100323714D02*
X235019904Y-99828476D01*
X235324666Y-100095142D01*
X235324666Y-99980857D01*
X235362761Y-99904666D01*
X235400857Y-99866571D01*
X235477047Y-99828476D01*
X235667523Y-99828476D01*
X235743714Y-99866571D01*
X235781809Y-99904666D01*
X235819904Y-99980857D01*
X235819904Y-100209428D01*
X235781809Y-100285619D01*
X235743714Y-100323714D01*
X217023904Y-105873428D02*
X216223904Y-105873428D01*
X216223904Y-105682952D01*
X216262000Y-105568666D01*
X216338190Y-105492476D01*
X216414380Y-105454380D01*
X216566761Y-105416285D01*
X216681047Y-105416285D01*
X216833428Y-105454380D01*
X216909619Y-105492476D01*
X216985809Y-105568666D01*
X217023904Y-105682952D01*
X217023904Y-105873428D01*
X216300095Y-105111523D02*
X216262000Y-105073428D01*
X216223904Y-104997238D01*
X216223904Y-104806761D01*
X216262000Y-104730571D01*
X216300095Y-104692476D01*
X216376285Y-104654380D01*
X216452476Y-104654380D01*
X216566761Y-104692476D01*
X217023904Y-105149619D01*
X217023904Y-104654380D01*
X216490571Y-103968666D02*
X217023904Y-103968666D01*
X216185809Y-104159142D02*
X216757238Y-104349619D01*
X216757238Y-103854380D01*
X197973904Y-109937428D02*
X197173904Y-109937428D01*
X197173904Y-109746952D01*
X197212000Y-109632666D01*
X197288190Y-109556476D01*
X197364380Y-109518380D01*
X197516761Y-109480285D01*
X197631047Y-109480285D01*
X197783428Y-109518380D01*
X197859619Y-109556476D01*
X197935809Y-109632666D01*
X197973904Y-109746952D01*
X197973904Y-109937428D01*
X197250095Y-109175523D02*
X197212000Y-109137428D01*
X197173904Y-109061238D01*
X197173904Y-108870761D01*
X197212000Y-108794571D01*
X197250095Y-108756476D01*
X197326285Y-108718380D01*
X197402476Y-108718380D01*
X197516761Y-108756476D01*
X197973904Y-109213619D01*
X197973904Y-108718380D01*
X197173904Y-107994571D02*
X197173904Y-108375523D01*
X197554857Y-108413619D01*
X197516761Y-108375523D01*
X197478666Y-108299333D01*
X197478666Y-108108857D01*
X197516761Y-108032666D01*
X197554857Y-107994571D01*
X197631047Y-107956476D01*
X197821523Y-107956476D01*
X197897714Y-107994571D01*
X197935809Y-108032666D01*
X197973904Y-108108857D01*
X197973904Y-108299333D01*
X197935809Y-108375523D01*
X197897714Y-108413619D01*
X125222904Y-109937428D02*
X124422904Y-109937428D01*
X124422904Y-109746952D01*
X124461000Y-109632666D01*
X124537190Y-109556476D01*
X124613380Y-109518380D01*
X124765761Y-109480285D01*
X124880047Y-109480285D01*
X125032428Y-109518380D01*
X125108619Y-109556476D01*
X125184809Y-109632666D01*
X125222904Y-109746952D01*
X125222904Y-109937428D01*
X124499095Y-109175523D02*
X124461000Y-109137428D01*
X124422904Y-109061238D01*
X124422904Y-108870761D01*
X124461000Y-108794571D01*
X124499095Y-108756476D01*
X124575285Y-108718380D01*
X124651476Y-108718380D01*
X124765761Y-108756476D01*
X125222904Y-109213619D01*
X125222904Y-108718380D01*
X124422904Y-108032666D02*
X124422904Y-108185047D01*
X124461000Y-108261238D01*
X124499095Y-108299333D01*
X124613380Y-108375523D01*
X124765761Y-108413619D01*
X125070523Y-108413619D01*
X125146714Y-108375523D01*
X125184809Y-108337428D01*
X125222904Y-108261238D01*
X125222904Y-108108857D01*
X125184809Y-108032666D01*
X125146714Y-107994571D01*
X125070523Y-107956476D01*
X124880047Y-107956476D01*
X124803857Y-107994571D01*
X124765761Y-108032666D01*
X124727666Y-108108857D01*
X124727666Y-108261238D01*
X124765761Y-108337428D01*
X124803857Y-108375523D01*
X124880047Y-108413619D01*
X106172904Y-105873428D02*
X105372904Y-105873428D01*
X105372904Y-105682952D01*
X105411000Y-105568666D01*
X105487190Y-105492476D01*
X105563380Y-105454380D01*
X105715761Y-105416285D01*
X105830047Y-105416285D01*
X105982428Y-105454380D01*
X106058619Y-105492476D01*
X106134809Y-105568666D01*
X106172904Y-105682952D01*
X106172904Y-105873428D01*
X105449095Y-105111523D02*
X105411000Y-105073428D01*
X105372904Y-104997238D01*
X105372904Y-104806761D01*
X105411000Y-104730571D01*
X105449095Y-104692476D01*
X105525285Y-104654380D01*
X105601476Y-104654380D01*
X105715761Y-104692476D01*
X106172904Y-105149619D01*
X106172904Y-104654380D01*
X105372904Y-104387714D02*
X105372904Y-103854380D01*
X106172904Y-104197238D01*
X87122904Y-101809428D02*
X86322904Y-101809428D01*
X86322904Y-101618952D01*
X86361000Y-101504666D01*
X86437190Y-101428476D01*
X86513380Y-101390380D01*
X86665761Y-101352285D01*
X86780047Y-101352285D01*
X86932428Y-101390380D01*
X87008619Y-101428476D01*
X87084809Y-101504666D01*
X87122904Y-101618952D01*
X87122904Y-101809428D01*
X86399095Y-101047523D02*
X86361000Y-101009428D01*
X86322904Y-100933238D01*
X86322904Y-100742761D01*
X86361000Y-100666571D01*
X86399095Y-100628476D01*
X86475285Y-100590380D01*
X86551476Y-100590380D01*
X86665761Y-100628476D01*
X87122904Y-101085619D01*
X87122904Y-100590380D01*
X86665761Y-100133238D02*
X86627666Y-100209428D01*
X86589571Y-100247523D01*
X86513380Y-100285619D01*
X86475285Y-100285619D01*
X86399095Y-100247523D01*
X86361000Y-100209428D01*
X86322904Y-100133238D01*
X86322904Y-99980857D01*
X86361000Y-99904666D01*
X86399095Y-99866571D01*
X86475285Y-99828476D01*
X86513380Y-99828476D01*
X86589571Y-99866571D01*
X86627666Y-99904666D01*
X86665761Y-99980857D01*
X86665761Y-100133238D01*
X86703857Y-100209428D01*
X86741952Y-100247523D01*
X86818142Y-100285619D01*
X86970523Y-100285619D01*
X87046714Y-100247523D01*
X87084809Y-100209428D01*
X87122904Y-100133238D01*
X87122904Y-99980857D01*
X87084809Y-99904666D01*
X87046714Y-99866571D01*
X86970523Y-99828476D01*
X86818142Y-99828476D01*
X86741952Y-99866571D01*
X86703857Y-99904666D01*
X86665761Y-99980857D01*
X68072904Y-105873428D02*
X67272904Y-105873428D01*
X67272904Y-105682952D01*
X67311000Y-105568666D01*
X67387190Y-105492476D01*
X67463380Y-105454380D01*
X67615761Y-105416285D01*
X67730047Y-105416285D01*
X67882428Y-105454380D01*
X67958619Y-105492476D01*
X68034809Y-105568666D01*
X68072904Y-105682952D01*
X68072904Y-105873428D01*
X67349095Y-105111523D02*
X67311000Y-105073428D01*
X67272904Y-104997238D01*
X67272904Y-104806761D01*
X67311000Y-104730571D01*
X67349095Y-104692476D01*
X67425285Y-104654380D01*
X67501476Y-104654380D01*
X67615761Y-104692476D01*
X68072904Y-105149619D01*
X68072904Y-104654380D01*
X68072904Y-104273428D02*
X68072904Y-104121047D01*
X68034809Y-104044857D01*
X67996714Y-104006761D01*
X67882428Y-103930571D01*
X67730047Y-103892476D01*
X67425285Y-103892476D01*
X67349095Y-103930571D01*
X67311000Y-103968666D01*
X67272904Y-104044857D01*
X67272904Y-104197238D01*
X67311000Y-104273428D01*
X67349095Y-104311523D01*
X67425285Y-104349619D01*
X67615761Y-104349619D01*
X67691952Y-104311523D01*
X67730047Y-104273428D01*
X67768142Y-104197238D01*
X67768142Y-104044857D01*
X67730047Y-103968666D01*
X67691952Y-103930571D01*
X67615761Y-103892476D01*
X217023904Y-124923428D02*
X216223904Y-124923428D01*
X216223904Y-124732952D01*
X216262000Y-124618666D01*
X216338190Y-124542476D01*
X216414380Y-124504380D01*
X216566761Y-124466285D01*
X216681047Y-124466285D01*
X216833428Y-124504380D01*
X216909619Y-124542476D01*
X216985809Y-124618666D01*
X217023904Y-124732952D01*
X217023904Y-124923428D01*
X216223904Y-124199619D02*
X216223904Y-123704380D01*
X216528666Y-123971047D01*
X216528666Y-123856761D01*
X216566761Y-123780571D01*
X216604857Y-123742476D01*
X216681047Y-123704380D01*
X216871523Y-123704380D01*
X216947714Y-123742476D01*
X216985809Y-123780571D01*
X217023904Y-123856761D01*
X217023904Y-124085333D01*
X216985809Y-124161523D01*
X216947714Y-124199619D01*
X216223904Y-123437714D02*
X216223904Y-122942476D01*
X216528666Y-123209142D01*
X216528666Y-123094857D01*
X216566761Y-123018666D01*
X216604857Y-122980571D01*
X216681047Y-122942476D01*
X216871523Y-122942476D01*
X216947714Y-122980571D01*
X216985809Y-123018666D01*
X217023904Y-123094857D01*
X217023904Y-123323428D01*
X216985809Y-123399619D01*
X216947714Y-123437714D01*
X182733904Y-128987428D02*
X181933904Y-128987428D01*
X181933904Y-128796952D01*
X181972000Y-128682666D01*
X182048190Y-128606476D01*
X182124380Y-128568380D01*
X182276761Y-128530285D01*
X182391047Y-128530285D01*
X182543428Y-128568380D01*
X182619619Y-128606476D01*
X182695809Y-128682666D01*
X182733904Y-128796952D01*
X182733904Y-128987428D01*
X181933904Y-128263619D02*
X181933904Y-127768380D01*
X182238666Y-128035047D01*
X182238666Y-127920761D01*
X182276761Y-127844571D01*
X182314857Y-127806476D01*
X182391047Y-127768380D01*
X182581523Y-127768380D01*
X182657714Y-127806476D01*
X182695809Y-127844571D01*
X182733904Y-127920761D01*
X182733904Y-128149333D01*
X182695809Y-128225523D01*
X182657714Y-128263619D01*
X182200571Y-127082666D02*
X182733904Y-127082666D01*
X181895809Y-127273142D02*
X182467238Y-127463619D01*
X182467238Y-126968380D01*
X182733904Y-147783428D02*
X181933904Y-147783428D01*
X181933904Y-147592952D01*
X181972000Y-147478666D01*
X182048190Y-147402476D01*
X182124380Y-147364380D01*
X182276761Y-147326285D01*
X182391047Y-147326285D01*
X182543428Y-147364380D01*
X182619619Y-147402476D01*
X182695809Y-147478666D01*
X182733904Y-147592952D01*
X182733904Y-147783428D01*
X181933904Y-147059619D02*
X181933904Y-146564380D01*
X182238666Y-146831047D01*
X182238666Y-146716761D01*
X182276761Y-146640571D01*
X182314857Y-146602476D01*
X182391047Y-146564380D01*
X182581523Y-146564380D01*
X182657714Y-146602476D01*
X182695809Y-146640571D01*
X182733904Y-146716761D01*
X182733904Y-146945333D01*
X182695809Y-147021523D01*
X182657714Y-147059619D01*
X181933904Y-145840571D02*
X181933904Y-146221523D01*
X182314857Y-146259619D01*
X182276761Y-146221523D01*
X182238666Y-146145333D01*
X182238666Y-145954857D01*
X182276761Y-145878666D01*
X182314857Y-145840571D01*
X182391047Y-145802476D01*
X182581523Y-145802476D01*
X182657714Y-145840571D01*
X182695809Y-145878666D01*
X182733904Y-145954857D01*
X182733904Y-146145333D01*
X182695809Y-146221523D01*
X182657714Y-146259619D01*
X140208904Y-148037428D02*
X139408904Y-148037428D01*
X139408904Y-147846952D01*
X139447000Y-147732666D01*
X139523190Y-147656476D01*
X139599380Y-147618380D01*
X139751761Y-147580285D01*
X139866047Y-147580285D01*
X140018428Y-147618380D01*
X140094619Y-147656476D01*
X140170809Y-147732666D01*
X140208904Y-147846952D01*
X140208904Y-148037428D01*
X139408904Y-147313619D02*
X139408904Y-146818380D01*
X139713666Y-147085047D01*
X139713666Y-146970761D01*
X139751761Y-146894571D01*
X139789857Y-146856476D01*
X139866047Y-146818380D01*
X140056523Y-146818380D01*
X140132714Y-146856476D01*
X140170809Y-146894571D01*
X140208904Y-146970761D01*
X140208904Y-147199333D01*
X140170809Y-147275523D01*
X140132714Y-147313619D01*
X139408904Y-146132666D02*
X139408904Y-146285047D01*
X139447000Y-146361238D01*
X139485095Y-146399333D01*
X139599380Y-146475523D01*
X139751761Y-146513619D01*
X140056523Y-146513619D01*
X140132714Y-146475523D01*
X140170809Y-146437428D01*
X140208904Y-146361238D01*
X140208904Y-146208857D01*
X140170809Y-146132666D01*
X140132714Y-146094571D01*
X140056523Y-146056476D01*
X139866047Y-146056476D01*
X139789857Y-146094571D01*
X139751761Y-146132666D01*
X139713666Y-146208857D01*
X139713666Y-146361238D01*
X139751761Y-146437428D01*
X139789857Y-146475523D01*
X139866047Y-146513619D01*
X140208904Y-128987428D02*
X139408904Y-128987428D01*
X139408904Y-128796952D01*
X139447000Y-128682666D01*
X139523190Y-128606476D01*
X139599380Y-128568380D01*
X139751761Y-128530285D01*
X139866047Y-128530285D01*
X140018428Y-128568380D01*
X140094619Y-128606476D01*
X140170809Y-128682666D01*
X140208904Y-128796952D01*
X140208904Y-128987428D01*
X139408904Y-128263619D02*
X139408904Y-127768380D01*
X139713666Y-128035047D01*
X139713666Y-127920761D01*
X139751761Y-127844571D01*
X139789857Y-127806476D01*
X139866047Y-127768380D01*
X140056523Y-127768380D01*
X140132714Y-127806476D01*
X140170809Y-127844571D01*
X140208904Y-127920761D01*
X140208904Y-128149333D01*
X140170809Y-128225523D01*
X140132714Y-128263619D01*
X139408904Y-127501714D02*
X139408904Y-126968380D01*
X140208904Y-127311238D01*
X106172904Y-124923428D02*
X105372904Y-124923428D01*
X105372904Y-124732952D01*
X105411000Y-124618666D01*
X105487190Y-124542476D01*
X105563380Y-124504380D01*
X105715761Y-124466285D01*
X105830047Y-124466285D01*
X105982428Y-124504380D01*
X106058619Y-124542476D01*
X106134809Y-124618666D01*
X106172904Y-124732952D01*
X106172904Y-124923428D01*
X105372904Y-124199619D02*
X105372904Y-123704380D01*
X105677666Y-123971047D01*
X105677666Y-123856761D01*
X105715761Y-123780571D01*
X105753857Y-123742476D01*
X105830047Y-123704380D01*
X106020523Y-123704380D01*
X106096714Y-123742476D01*
X106134809Y-123780571D01*
X106172904Y-123856761D01*
X106172904Y-124085333D01*
X106134809Y-124161523D01*
X106096714Y-124199619D01*
X105715761Y-123247238D02*
X105677666Y-123323428D01*
X105639571Y-123361523D01*
X105563380Y-123399619D01*
X105525285Y-123399619D01*
X105449095Y-123361523D01*
X105411000Y-123323428D01*
X105372904Y-123247238D01*
X105372904Y-123094857D01*
X105411000Y-123018666D01*
X105449095Y-122980571D01*
X105525285Y-122942476D01*
X105563380Y-122942476D01*
X105639571Y-122980571D01*
X105677666Y-123018666D01*
X105715761Y-123094857D01*
X105715761Y-123247238D01*
X105753857Y-123323428D01*
X105791952Y-123361523D01*
X105868142Y-123399619D01*
X106020523Y-123399619D01*
X106096714Y-123361523D01*
X106134809Y-123323428D01*
X106172904Y-123247238D01*
X106172904Y-123094857D01*
X106134809Y-123018666D01*
X106096714Y-122980571D01*
X106020523Y-122942476D01*
X105868142Y-122942476D01*
X105791952Y-122980571D01*
X105753857Y-123018666D01*
X105715761Y-123094857D01*
X49022904Y-72180285D02*
X48222904Y-72180285D01*
X48222904Y-71989809D01*
X48261000Y-71875523D01*
X48337190Y-71799333D01*
X48413380Y-71761238D01*
X48565761Y-71723142D01*
X48680047Y-71723142D01*
X48832428Y-71761238D01*
X48908619Y-71799333D01*
X48984809Y-71875523D01*
X49022904Y-71989809D01*
X49022904Y-72180285D01*
X48222904Y-71227904D02*
X48222904Y-71151714D01*
X48261000Y-71075523D01*
X48299095Y-71037428D01*
X48375285Y-70999333D01*
X48527666Y-70961238D01*
X48718142Y-70961238D01*
X48870523Y-70999333D01*
X48946714Y-71037428D01*
X48984809Y-71075523D01*
X49022904Y-71151714D01*
X49022904Y-71227904D01*
X48984809Y-71304095D01*
X48946714Y-71342190D01*
X48870523Y-71380285D01*
X48718142Y-71418380D01*
X48527666Y-71418380D01*
X48375285Y-71380285D01*
X48299095Y-71342190D01*
X48261000Y-71304095D01*
X48222904Y-71227904D01*
X48794333Y-70656476D02*
X48794333Y-70275523D01*
X49022904Y-70732666D02*
X48222904Y-70466000D01*
X49022904Y-70199333D01*
X49022904Y-69513619D02*
X49022904Y-69970761D01*
X49022904Y-69742190D02*
X48222904Y-69742190D01*
X48337190Y-69818380D01*
X48413380Y-69894571D01*
X48451476Y-69970761D01*
X30226904Y-76301428D02*
X29426904Y-76301428D01*
X29426904Y-76110952D01*
X29465000Y-75996666D01*
X29541190Y-75920476D01*
X29617380Y-75882380D01*
X29769761Y-75844285D01*
X29884047Y-75844285D01*
X30036428Y-75882380D01*
X30112619Y-75920476D01*
X30188809Y-75996666D01*
X30226904Y-76110952D01*
X30226904Y-76301428D01*
X29426904Y-75349047D02*
X29426904Y-75272857D01*
X29465000Y-75196666D01*
X29503095Y-75158571D01*
X29579285Y-75120476D01*
X29731666Y-75082380D01*
X29922142Y-75082380D01*
X30074523Y-75120476D01*
X30150714Y-75158571D01*
X30188809Y-75196666D01*
X30226904Y-75272857D01*
X30226904Y-75349047D01*
X30188809Y-75425238D01*
X30150714Y-75463333D01*
X30074523Y-75501428D01*
X29922142Y-75539523D01*
X29731666Y-75539523D01*
X29579285Y-75501428D01*
X29503095Y-75463333D01*
X29465000Y-75425238D01*
X29426904Y-75349047D01*
X29807857Y-74472857D02*
X29845952Y-74358571D01*
X29884047Y-74320476D01*
X29960238Y-74282380D01*
X30074523Y-74282380D01*
X30150714Y-74320476D01*
X30188809Y-74358571D01*
X30226904Y-74434761D01*
X30226904Y-74739523D01*
X29426904Y-74739523D01*
X29426904Y-74472857D01*
X29465000Y-74396666D01*
X29503095Y-74358571D01*
X29579285Y-74320476D01*
X29655476Y-74320476D01*
X29731666Y-74358571D01*
X29769761Y-74396666D01*
X29807857Y-74472857D01*
X29807857Y-74739523D01*
X30226904Y-73520476D02*
X30226904Y-73977619D01*
X30226904Y-73749047D02*
X29426904Y-73749047D01*
X29541190Y-73825238D01*
X29617380Y-73901428D01*
X29655476Y-73977619D01*
X49022904Y-86912285D02*
X48222904Y-86912285D01*
X48222904Y-86721809D01*
X48261000Y-86607523D01*
X48337190Y-86531333D01*
X48413380Y-86493238D01*
X48565761Y-86455142D01*
X48680047Y-86455142D01*
X48832428Y-86493238D01*
X48908619Y-86531333D01*
X48984809Y-86607523D01*
X49022904Y-86721809D01*
X49022904Y-86912285D01*
X49022904Y-85693238D02*
X49022904Y-86150380D01*
X49022904Y-85921809D02*
X48222904Y-85921809D01*
X48337190Y-85998000D01*
X48413380Y-86074190D01*
X48451476Y-86150380D01*
X48794333Y-85388476D02*
X48794333Y-85007523D01*
X49022904Y-85464666D02*
X48222904Y-85198000D01*
X49022904Y-84931333D01*
X49022904Y-84245619D02*
X49022904Y-84702761D01*
X49022904Y-84474190D02*
X48222904Y-84474190D01*
X48337190Y-84550380D01*
X48413380Y-84626571D01*
X48451476Y-84702761D01*
X30226904Y-95351428D02*
X29426904Y-95351428D01*
X29426904Y-95160952D01*
X29465000Y-95046666D01*
X29541190Y-94970476D01*
X29617380Y-94932380D01*
X29769761Y-94894285D01*
X29884047Y-94894285D01*
X30036428Y-94932380D01*
X30112619Y-94970476D01*
X30188809Y-95046666D01*
X30226904Y-95160952D01*
X30226904Y-95351428D01*
X30226904Y-94132380D02*
X30226904Y-94589523D01*
X30226904Y-94360952D02*
X29426904Y-94360952D01*
X29541190Y-94437142D01*
X29617380Y-94513333D01*
X29655476Y-94589523D01*
X29807857Y-93522857D02*
X29845952Y-93408571D01*
X29884047Y-93370476D01*
X29960238Y-93332380D01*
X30074523Y-93332380D01*
X30150714Y-93370476D01*
X30188809Y-93408571D01*
X30226904Y-93484761D01*
X30226904Y-93789523D01*
X29426904Y-93789523D01*
X29426904Y-93522857D01*
X29465000Y-93446666D01*
X29503095Y-93408571D01*
X29579285Y-93370476D01*
X29655476Y-93370476D01*
X29731666Y-93408571D01*
X29769761Y-93446666D01*
X29807857Y-93522857D01*
X29807857Y-93789523D01*
X30226904Y-92570476D02*
X30226904Y-93027619D01*
X30226904Y-92799047D02*
X29426904Y-92799047D01*
X29541190Y-92875238D01*
X29617380Y-92951428D01*
X29655476Y-93027619D01*
X49022904Y-110280285D02*
X48222904Y-110280285D01*
X48222904Y-110089809D01*
X48261000Y-109975523D01*
X48337190Y-109899333D01*
X48413380Y-109861238D01*
X48565761Y-109823142D01*
X48680047Y-109823142D01*
X48832428Y-109861238D01*
X48908619Y-109899333D01*
X48984809Y-109975523D01*
X49022904Y-110089809D01*
X49022904Y-110280285D01*
X48299095Y-109518380D02*
X48261000Y-109480285D01*
X48222904Y-109404095D01*
X48222904Y-109213619D01*
X48261000Y-109137428D01*
X48299095Y-109099333D01*
X48375285Y-109061238D01*
X48451476Y-109061238D01*
X48565761Y-109099333D01*
X49022904Y-109556476D01*
X49022904Y-109061238D01*
X48794333Y-108756476D02*
X48794333Y-108375523D01*
X49022904Y-108832666D02*
X48222904Y-108566000D01*
X49022904Y-108299333D01*
X49022904Y-107613619D02*
X49022904Y-108070761D01*
X49022904Y-107842190D02*
X48222904Y-107842190D01*
X48337190Y-107918380D01*
X48413380Y-107994571D01*
X48451476Y-108070761D01*
X30226904Y-113893428D02*
X29426904Y-113893428D01*
X29426904Y-113702952D01*
X29465000Y-113588666D01*
X29541190Y-113512476D01*
X29617380Y-113474380D01*
X29769761Y-113436285D01*
X29884047Y-113436285D01*
X30036428Y-113474380D01*
X30112619Y-113512476D01*
X30188809Y-113588666D01*
X30226904Y-113702952D01*
X30226904Y-113893428D01*
X29503095Y-113131523D02*
X29465000Y-113093428D01*
X29426904Y-113017238D01*
X29426904Y-112826761D01*
X29465000Y-112750571D01*
X29503095Y-112712476D01*
X29579285Y-112674380D01*
X29655476Y-112674380D01*
X29769761Y-112712476D01*
X30226904Y-113169619D01*
X30226904Y-112674380D01*
X29807857Y-112064857D02*
X29845952Y-111950571D01*
X29884047Y-111912476D01*
X29960238Y-111874380D01*
X30074523Y-111874380D01*
X30150714Y-111912476D01*
X30188809Y-111950571D01*
X30226904Y-112026761D01*
X30226904Y-112331523D01*
X29426904Y-112331523D01*
X29426904Y-112064857D01*
X29465000Y-111988666D01*
X29503095Y-111950571D01*
X29579285Y-111912476D01*
X29655476Y-111912476D01*
X29731666Y-111950571D01*
X29769761Y-111988666D01*
X29807857Y-112064857D01*
X29807857Y-112331523D01*
X30226904Y-111112476D02*
X30226904Y-111569619D01*
X30226904Y-111341047D02*
X29426904Y-111341047D01*
X29541190Y-111417238D01*
X29617380Y-111493428D01*
X29655476Y-111569619D01*
X162949523Y-92261904D02*
X162949523Y-91461904D01*
X163140000Y-91461904D01*
X163254285Y-91500000D01*
X163330476Y-91576190D01*
X163368571Y-91652380D01*
X163406666Y-91804761D01*
X163406666Y-91919047D01*
X163368571Y-92071428D01*
X163330476Y-92147619D01*
X163254285Y-92223809D01*
X163140000Y-92261904D01*
X162949523Y-92261904D01*
X164130476Y-91461904D02*
X163749523Y-91461904D01*
X163711428Y-91842857D01*
X163749523Y-91804761D01*
X163825714Y-91766666D01*
X164016190Y-91766666D01*
X164092380Y-91804761D01*
X164130476Y-91842857D01*
X164168571Y-91919047D01*
X164168571Y-92109523D01*
X164130476Y-92185714D01*
X164092380Y-92223809D01*
X164016190Y-92261904D01*
X163825714Y-92261904D01*
X163749523Y-92223809D01*
X163711428Y-92185714D01*
X158193333Y-91842857D02*
X157926666Y-91842857D01*
X157926666Y-92261904D02*
X157926666Y-91461904D01*
X158307619Y-91461904D01*
X159031428Y-92261904D02*
X158574285Y-92261904D01*
X158802857Y-92261904D02*
X158802857Y-91461904D01*
X158726666Y-91576190D01*
X158650476Y-91652380D01*
X158574285Y-91690476D01*
X160866666Y-92185714D02*
X160828571Y-92223809D01*
X160714285Y-92261904D01*
X160638095Y-92261904D01*
X160523809Y-92223809D01*
X160447619Y-92147619D01*
X160409523Y-92071428D01*
X160371428Y-91919047D01*
X160371428Y-91804761D01*
X160409523Y-91652380D01*
X160447619Y-91576190D01*
X160523809Y-91500000D01*
X160638095Y-91461904D01*
X160714285Y-91461904D01*
X160828571Y-91500000D01*
X160866666Y-91538095D01*
X161133333Y-91461904D02*
X161666666Y-91461904D01*
X161323809Y-92261904D01*
X154764991Y-92435702D02*
X154717851Y-92341421D01*
X154717851Y-92294280D01*
X154741421Y-92223570D01*
X154812132Y-92152859D01*
X154882842Y-92129289D01*
X154929983Y-92129289D01*
X155000693Y-92152859D01*
X155189255Y-92341421D01*
X154694280Y-92836396D01*
X154529289Y-92671404D01*
X154505719Y-92600693D01*
X154505719Y-92553553D01*
X154529289Y-92482842D01*
X154576429Y-92435702D01*
X154647140Y-92412132D01*
X154694280Y-92412132D01*
X154764991Y-92435702D01*
X154929983Y-92600693D01*
X153987174Y-92129289D02*
X154081455Y-92223570D01*
X154152165Y-92247140D01*
X154199306Y-92247140D01*
X154317157Y-92223570D01*
X154435008Y-92152859D01*
X154623570Y-91964297D01*
X154647140Y-91893587D01*
X154647140Y-91846446D01*
X154623570Y-91775735D01*
X154529289Y-91681455D01*
X154458578Y-91657884D01*
X154411438Y-91657884D01*
X154340727Y-91681455D01*
X154222876Y-91799306D01*
X154199306Y-91870016D01*
X154199306Y-91917157D01*
X154222876Y-91987867D01*
X154317157Y-92082148D01*
X154387867Y-92105719D01*
X154435008Y-92105719D01*
X154505719Y-92082148D01*
X156266666Y-92050000D02*
X156033333Y-92050000D01*
X156033333Y-92416666D02*
X156033333Y-91716666D01*
X156366666Y-91716666D01*
X156766666Y-91716666D02*
X156833333Y-91716666D01*
X156900000Y-91750000D01*
X156933333Y-91783333D01*
X156966666Y-91850000D01*
X157000000Y-91983333D01*
X157000000Y-92150000D01*
X156966666Y-92283333D01*
X156933333Y-92350000D01*
X156900000Y-92383333D01*
X156833333Y-92416666D01*
X156766666Y-92416666D01*
X156700000Y-92383333D01*
X156666666Y-92350000D01*
X156633333Y-92283333D01*
X156600000Y-92150000D01*
X156600000Y-91983333D01*
X156633333Y-91850000D01*
X156666666Y-91783333D01*
X156700000Y-91750000D01*
X156766666Y-91716666D01*
X165216666Y-92050000D02*
X165316666Y-92083333D01*
X165350000Y-92116666D01*
X165383333Y-92183333D01*
X165383333Y-92283333D01*
X165350000Y-92350000D01*
X165316666Y-92383333D01*
X165250000Y-92416666D01*
X164983333Y-92416666D01*
X164983333Y-91716666D01*
X165216666Y-91716666D01*
X165283333Y-91750000D01*
X165316666Y-91783333D01*
X165350000Y-91850000D01*
X165350000Y-91916666D01*
X165316666Y-91983333D01*
X165283333Y-92016666D01*
X165216666Y-92050000D01*
X164983333Y-92050000D01*
X165616666Y-91716666D02*
X166083333Y-91716666D01*
X165783333Y-92416666D01*
X155426666Y-70913809D02*
X155540952Y-70951904D01*
X155731428Y-70951904D01*
X155807619Y-70913809D01*
X155845714Y-70875714D01*
X155883809Y-70799523D01*
X155883809Y-70723333D01*
X155845714Y-70647142D01*
X155807619Y-70609047D01*
X155731428Y-70570952D01*
X155579047Y-70532857D01*
X155502857Y-70494761D01*
X155464761Y-70456666D01*
X155426666Y-70380476D01*
X155426666Y-70304285D01*
X155464761Y-70228095D01*
X155502857Y-70190000D01*
X155579047Y-70151904D01*
X155769523Y-70151904D01*
X155883809Y-70190000D01*
X156112380Y-70151904D02*
X156569523Y-70151904D01*
X156340952Y-70951904D02*
X156340952Y-70151904D01*
X162381395Y-65091904D02*
X162838538Y-65091904D01*
X162609967Y-65891904D02*
X162609967Y-65091904D01*
X163029014Y-65091904D02*
X163562348Y-65891904D01*
X163562348Y-65091904D02*
X163029014Y-65891904D01*
X164019491Y-65091904D02*
X164095681Y-65091904D01*
X164171872Y-65130000D01*
X164209967Y-65168095D01*
X164248062Y-65244285D01*
X164286157Y-65396666D01*
X164286157Y-65587142D01*
X164248062Y-65739523D01*
X164209967Y-65815714D01*
X164171872Y-65853809D01*
X164095681Y-65891904D01*
X164019491Y-65891904D01*
X163943300Y-65853809D01*
X163905205Y-65815714D01*
X163867110Y-65739523D01*
X163829014Y-65587142D01*
X163829014Y-65396666D01*
X163867110Y-65244285D01*
X163905205Y-65168095D01*
X163943300Y-65130000D01*
X164019491Y-65091904D01*
X165200443Y-65053809D02*
X164514729Y-66082380D01*
X165467110Y-65891904D02*
X165467110Y-65091904D01*
X165657586Y-65091904D01*
X165771872Y-65130000D01*
X165848062Y-65206190D01*
X165886157Y-65282380D01*
X165924252Y-65434761D01*
X165924252Y-65549047D01*
X165886157Y-65701428D01*
X165848062Y-65777619D01*
X165771872Y-65853809D01*
X165657586Y-65891904D01*
X165467110Y-65891904D01*
X166190919Y-65091904D02*
X166686157Y-65091904D01*
X166419491Y-65396666D01*
X166533776Y-65396666D01*
X166609967Y-65434761D01*
X166648062Y-65472857D01*
X166686157Y-65549047D01*
X166686157Y-65739523D01*
X166648062Y-65815714D01*
X166609967Y-65853809D01*
X166533776Y-65891904D01*
X166305205Y-65891904D01*
X166229014Y-65853809D01*
X166190919Y-65815714D01*
X155215190Y-90872857D02*
X155329476Y-90910952D01*
X155367571Y-90949047D01*
X155405666Y-91025238D01*
X155405666Y-91139523D01*
X155367571Y-91215714D01*
X155329476Y-91253809D01*
X155253285Y-91291904D01*
X154948523Y-91291904D01*
X154948523Y-90491904D01*
X155215190Y-90491904D01*
X155291380Y-90530000D01*
X155329476Y-90568095D01*
X155367571Y-90644285D01*
X155367571Y-90720476D01*
X155329476Y-90796666D01*
X155291380Y-90834761D01*
X155215190Y-90872857D01*
X154948523Y-90872857D01*
X155710428Y-90568095D02*
X155748523Y-90530000D01*
X155824714Y-90491904D01*
X156015190Y-90491904D01*
X156091380Y-90530000D01*
X156129476Y-90568095D01*
X156167571Y-90644285D01*
X156167571Y-90720476D01*
X156129476Y-90834761D01*
X155672333Y-91291904D01*
X156167571Y-91291904D01*
X155272333Y-83252857D02*
X155005666Y-83252857D01*
X155005666Y-83671904D02*
X155005666Y-82871904D01*
X155386619Y-82871904D01*
X155615190Y-82871904D02*
X156148523Y-82871904D01*
X155805666Y-83671904D01*
X155272333Y-80712857D02*
X155005666Y-80712857D01*
X155005666Y-81131904D02*
X155005666Y-80331904D01*
X155386619Y-80331904D01*
X156034238Y-80331904D02*
X155881857Y-80331904D01*
X155805666Y-80370000D01*
X155767571Y-80408095D01*
X155691380Y-80522380D01*
X155653285Y-80674761D01*
X155653285Y-80979523D01*
X155691380Y-81055714D01*
X155729476Y-81093809D01*
X155805666Y-81131904D01*
X155958047Y-81131904D01*
X156034238Y-81093809D01*
X156072333Y-81055714D01*
X156110428Y-80979523D01*
X156110428Y-80789047D01*
X156072333Y-80712857D01*
X156034238Y-80674761D01*
X155958047Y-80636666D01*
X155805666Y-80636666D01*
X155729476Y-80674761D01*
X155691380Y-80712857D01*
X155653285Y-80789047D01*
X155272333Y-78172857D02*
X155005666Y-78172857D01*
X155005666Y-78591904D02*
X155005666Y-77791904D01*
X155386619Y-77791904D01*
X156072333Y-77791904D02*
X155691380Y-77791904D01*
X155653285Y-78172857D01*
X155691380Y-78134761D01*
X155767571Y-78096666D01*
X155958047Y-78096666D01*
X156034238Y-78134761D01*
X156072333Y-78172857D01*
X156110428Y-78249047D01*
X156110428Y-78439523D01*
X156072333Y-78515714D01*
X156034238Y-78553809D01*
X155958047Y-78591904D01*
X155767571Y-78591904D01*
X155691380Y-78553809D01*
X155653285Y-78515714D01*
X155215190Y-65472857D02*
X155329476Y-65510952D01*
X155367571Y-65549047D01*
X155405666Y-65625238D01*
X155405666Y-65739523D01*
X155367571Y-65815714D01*
X155329476Y-65853809D01*
X155253285Y-65891904D01*
X154948523Y-65891904D01*
X154948523Y-65091904D01*
X155215190Y-65091904D01*
X155291380Y-65130000D01*
X155329476Y-65168095D01*
X155367571Y-65244285D01*
X155367571Y-65320476D01*
X155329476Y-65396666D01*
X155291380Y-65434761D01*
X155215190Y-65472857D01*
X154948523Y-65472857D01*
X155900904Y-65091904D02*
X155977095Y-65091904D01*
X156053285Y-65130000D01*
X156091380Y-65168095D01*
X156129476Y-65244285D01*
X156167571Y-65396666D01*
X156167571Y-65587142D01*
X156129476Y-65739523D01*
X156091380Y-65815714D01*
X156053285Y-65853809D01*
X155977095Y-65891904D01*
X155900904Y-65891904D01*
X155824714Y-65853809D01*
X155786619Y-65815714D01*
X155748523Y-65739523D01*
X155710428Y-65587142D01*
X155710428Y-65396666D01*
X155748523Y-65244285D01*
X155786619Y-65168095D01*
X155824714Y-65130000D01*
X155900904Y-65091904D01*
X154929476Y-67670000D02*
X154853285Y-67631904D01*
X154739000Y-67631904D01*
X154624714Y-67670000D01*
X154548523Y-67746190D01*
X154510428Y-67822380D01*
X154472333Y-67974761D01*
X154472333Y-68089047D01*
X154510428Y-68241428D01*
X154548523Y-68317619D01*
X154624714Y-68393809D01*
X154739000Y-68431904D01*
X154815190Y-68431904D01*
X154929476Y-68393809D01*
X154967571Y-68355714D01*
X154967571Y-68089047D01*
X154815190Y-68089047D01*
X155310428Y-68431904D02*
X155310428Y-67631904D01*
X155767571Y-68431904D01*
X155767571Y-67631904D01*
X156148523Y-68431904D02*
X156148523Y-67631904D01*
X156339000Y-67631904D01*
X156453285Y-67670000D01*
X156529476Y-67746190D01*
X156567571Y-67822380D01*
X156605666Y-67974761D01*
X156605666Y-68089047D01*
X156567571Y-68241428D01*
X156529476Y-68317619D01*
X156453285Y-68393809D01*
X156339000Y-68431904D01*
X156148523Y-68431904D01*
X154472333Y-72711904D02*
X154739000Y-73511904D01*
X155005666Y-72711904D01*
X155729476Y-73435714D02*
X155691380Y-73473809D01*
X155577095Y-73511904D01*
X155500904Y-73511904D01*
X155386619Y-73473809D01*
X155310428Y-73397619D01*
X155272333Y-73321428D01*
X155234238Y-73169047D01*
X155234238Y-73054761D01*
X155272333Y-72902380D01*
X155310428Y-72826190D01*
X155386619Y-72750000D01*
X155500904Y-72711904D01*
X155577095Y-72711904D01*
X155691380Y-72750000D01*
X155729476Y-72788095D01*
X156529476Y-73435714D02*
X156491380Y-73473809D01*
X156377095Y-73511904D01*
X156300904Y-73511904D01*
X156186619Y-73473809D01*
X156110428Y-73397619D01*
X156072333Y-73321428D01*
X156034238Y-73169047D01*
X156034238Y-73054761D01*
X156072333Y-72902380D01*
X156110428Y-72826190D01*
X156186619Y-72750000D01*
X156300904Y-72711904D01*
X156377095Y-72711904D01*
X156491380Y-72750000D01*
X156529476Y-72788095D01*
X155272333Y-75632857D02*
X155005666Y-75632857D01*
X155005666Y-76051904D02*
X155005666Y-75251904D01*
X155386619Y-75251904D01*
X156034238Y-75518571D02*
X156034238Y-76051904D01*
X155843761Y-75213809D02*
X155653285Y-75785238D01*
X156148523Y-75785238D01*
X155215190Y-85792857D02*
X155329476Y-85830952D01*
X155367571Y-85869047D01*
X155405666Y-85945238D01*
X155405666Y-86059523D01*
X155367571Y-86135714D01*
X155329476Y-86173809D01*
X155253285Y-86211904D01*
X154948523Y-86211904D01*
X154948523Y-85411904D01*
X155215190Y-85411904D01*
X155291380Y-85450000D01*
X155329476Y-85488095D01*
X155367571Y-85564285D01*
X155367571Y-85640476D01*
X155329476Y-85716666D01*
X155291380Y-85754761D01*
X155215190Y-85792857D01*
X154948523Y-85792857D01*
X156167571Y-86211904D02*
X155710428Y-86211904D01*
X155939000Y-86211904D02*
X155939000Y-85411904D01*
X155862809Y-85526190D01*
X155786619Y-85602380D01*
X155710428Y-85640476D01*
X155215190Y-88332857D02*
X155329476Y-88370952D01*
X155367571Y-88409047D01*
X155405666Y-88485238D01*
X155405666Y-88599523D01*
X155367571Y-88675714D01*
X155329476Y-88713809D01*
X155253285Y-88751904D01*
X154948523Y-88751904D01*
X154948523Y-87951904D01*
X155215190Y-87951904D01*
X155291380Y-87990000D01*
X155329476Y-88028095D01*
X155367571Y-88104285D01*
X155367571Y-88180476D01*
X155329476Y-88256666D01*
X155291380Y-88294761D01*
X155215190Y-88332857D01*
X154948523Y-88332857D01*
X155672333Y-87951904D02*
X156167571Y-87951904D01*
X155900904Y-88256666D01*
X156015190Y-88256666D01*
X156091380Y-88294761D01*
X156129476Y-88332857D01*
X156167571Y-88409047D01*
X156167571Y-88599523D01*
X156129476Y-88675714D01*
X156091380Y-88713809D01*
X156015190Y-88751904D01*
X155786619Y-88751904D01*
X155710428Y-88713809D01*
X155672333Y-88675714D01*
X167164297Y-92364991D02*
X167258578Y-92317851D01*
X167305719Y-92317851D01*
X167376429Y-92341421D01*
X167447140Y-92412132D01*
X167470710Y-92482842D01*
X167470710Y-92529983D01*
X167447140Y-92600693D01*
X167258578Y-92789255D01*
X166763603Y-92294280D01*
X166928595Y-92129289D01*
X166999306Y-92105719D01*
X167046446Y-92105719D01*
X167117157Y-92129289D01*
X167164297Y-92176429D01*
X167187867Y-92247140D01*
X167187867Y-92294280D01*
X167164297Y-92364991D01*
X166999306Y-92529983D01*
X167494280Y-91563603D02*
X167258578Y-91799306D01*
X167470710Y-92058578D01*
X167470710Y-92011438D01*
X167494280Y-91940727D01*
X167612132Y-91822876D01*
X167682842Y-91799306D01*
X167729983Y-91799306D01*
X167800693Y-91822876D01*
X167918544Y-91940727D01*
X167942115Y-92011438D01*
X167942115Y-92058578D01*
X167918544Y-92129289D01*
X167800693Y-92247140D01*
X167729983Y-92270710D01*
X167682842Y-92270710D01*
X166137190Y-90872857D02*
X166251476Y-90910952D01*
X166289571Y-90949047D01*
X166327666Y-91025238D01*
X166327666Y-91139523D01*
X166289571Y-91215714D01*
X166251476Y-91253809D01*
X166175285Y-91291904D01*
X165870523Y-91291904D01*
X165870523Y-90491904D01*
X166137190Y-90491904D01*
X166213380Y-90530000D01*
X166251476Y-90568095D01*
X166289571Y-90644285D01*
X166289571Y-90720476D01*
X166251476Y-90796666D01*
X166213380Y-90834761D01*
X166137190Y-90872857D01*
X165870523Y-90872857D01*
X167013380Y-90758571D02*
X167013380Y-91291904D01*
X166822904Y-90453809D02*
X166632428Y-91025238D01*
X167127666Y-91025238D01*
X165908619Y-88332857D02*
X166175285Y-88332857D01*
X166289571Y-88751904D02*
X165908619Y-88751904D01*
X165908619Y-87951904D01*
X166289571Y-87951904D01*
X166975285Y-87951904D02*
X166822904Y-87951904D01*
X166746714Y-87990000D01*
X166708619Y-88028095D01*
X166632428Y-88142380D01*
X166594333Y-88294761D01*
X166594333Y-88599523D01*
X166632428Y-88675714D01*
X166670523Y-88713809D01*
X166746714Y-88751904D01*
X166899095Y-88751904D01*
X166975285Y-88713809D01*
X167013380Y-88675714D01*
X167051476Y-88599523D01*
X167051476Y-88409047D01*
X167013380Y-88332857D01*
X166975285Y-88294761D01*
X166899095Y-88256666D01*
X166746714Y-88256666D01*
X166670523Y-88294761D01*
X166632428Y-88332857D01*
X166594333Y-88409047D01*
X165870523Y-86211904D02*
X165870523Y-85411904D01*
X166061000Y-85411904D01*
X166175285Y-85450000D01*
X166251476Y-85526190D01*
X166289571Y-85602380D01*
X166327666Y-85754761D01*
X166327666Y-85869047D01*
X166289571Y-86021428D01*
X166251476Y-86097619D01*
X166175285Y-86173809D01*
X166061000Y-86211904D01*
X165870523Y-86211904D01*
X166594333Y-85411904D02*
X167127666Y-85411904D01*
X166784809Y-86211904D01*
X166327666Y-83595714D02*
X166289571Y-83633809D01*
X166175285Y-83671904D01*
X166099095Y-83671904D01*
X165984809Y-83633809D01*
X165908619Y-83557619D01*
X165870523Y-83481428D01*
X165832428Y-83329047D01*
X165832428Y-83214761D01*
X165870523Y-83062380D01*
X165908619Y-82986190D01*
X165984809Y-82910000D01*
X166099095Y-82871904D01*
X166175285Y-82871904D01*
X166289571Y-82910000D01*
X166327666Y-82948095D01*
X167013380Y-82871904D02*
X166861000Y-82871904D01*
X166784809Y-82910000D01*
X166746714Y-82948095D01*
X166670523Y-83062380D01*
X166632428Y-83214761D01*
X166632428Y-83519523D01*
X166670523Y-83595714D01*
X166708619Y-83633809D01*
X166784809Y-83671904D01*
X166937190Y-83671904D01*
X167013380Y-83633809D01*
X167051476Y-83595714D01*
X167089571Y-83519523D01*
X167089571Y-83329047D01*
X167051476Y-83252857D01*
X167013380Y-83214761D01*
X166937190Y-83176666D01*
X166784809Y-83176666D01*
X166708619Y-83214761D01*
X166670523Y-83252857D01*
X166632428Y-83329047D01*
X165870523Y-81131904D02*
X165870523Y-80331904D01*
X166061000Y-80331904D01*
X166175285Y-80370000D01*
X166251476Y-80446190D01*
X166289571Y-80522380D01*
X166327666Y-80674761D01*
X166327666Y-80789047D01*
X166289571Y-80941428D01*
X166251476Y-81017619D01*
X166175285Y-81093809D01*
X166061000Y-81131904D01*
X165870523Y-81131904D01*
X167013380Y-80598571D02*
X167013380Y-81131904D01*
X166822904Y-80293809D02*
X166632428Y-80865238D01*
X167127666Y-80865238D01*
X165851476Y-70210000D02*
X165775285Y-70171904D01*
X165661000Y-70171904D01*
X165546714Y-70210000D01*
X165470523Y-70286190D01*
X165432428Y-70362380D01*
X165394333Y-70514761D01*
X165394333Y-70629047D01*
X165432428Y-70781428D01*
X165470523Y-70857619D01*
X165546714Y-70933809D01*
X165661000Y-70971904D01*
X165737190Y-70971904D01*
X165851476Y-70933809D01*
X165889571Y-70895714D01*
X165889571Y-70629047D01*
X165737190Y-70629047D01*
X166232428Y-70971904D02*
X166232428Y-70171904D01*
X166689571Y-70971904D01*
X166689571Y-70171904D01*
X167070523Y-70971904D02*
X167070523Y-70171904D01*
X167261000Y-70171904D01*
X167375285Y-70210000D01*
X167451476Y-70286190D01*
X167489571Y-70362380D01*
X167527666Y-70514761D01*
X167527666Y-70629047D01*
X167489571Y-70781428D01*
X167451476Y-70857619D01*
X167375285Y-70933809D01*
X167261000Y-70971904D01*
X167070523Y-70971904D01*
X165851476Y-72750000D02*
X165775285Y-72711904D01*
X165661000Y-72711904D01*
X165546714Y-72750000D01*
X165470523Y-72826190D01*
X165432428Y-72902380D01*
X165394333Y-73054761D01*
X165394333Y-73169047D01*
X165432428Y-73321428D01*
X165470523Y-73397619D01*
X165546714Y-73473809D01*
X165661000Y-73511904D01*
X165737190Y-73511904D01*
X165851476Y-73473809D01*
X165889571Y-73435714D01*
X165889571Y-73169047D01*
X165737190Y-73169047D01*
X166232428Y-73511904D02*
X166232428Y-72711904D01*
X166689571Y-73511904D01*
X166689571Y-72711904D01*
X167070523Y-73511904D02*
X167070523Y-72711904D01*
X167261000Y-72711904D01*
X167375285Y-72750000D01*
X167451476Y-72826190D01*
X167489571Y-72902380D01*
X167527666Y-73054761D01*
X167527666Y-73169047D01*
X167489571Y-73321428D01*
X167451476Y-73397619D01*
X167375285Y-73473809D01*
X167261000Y-73511904D01*
X167070523Y-73511904D01*
X165870523Y-76051904D02*
X165870523Y-75251904D01*
X166061000Y-75251904D01*
X166175285Y-75290000D01*
X166251476Y-75366190D01*
X166289571Y-75442380D01*
X166327666Y-75594761D01*
X166327666Y-75709047D01*
X166289571Y-75861428D01*
X166251476Y-75937619D01*
X166175285Y-76013809D01*
X166061000Y-76051904D01*
X165870523Y-76051904D01*
X167089571Y-76051904D02*
X166632428Y-76051904D01*
X166861000Y-76051904D02*
X166861000Y-75251904D01*
X166784809Y-75366190D01*
X166708619Y-75442380D01*
X166632428Y-75480476D01*
X165870523Y-78591904D02*
X165870523Y-77791904D01*
X166061000Y-77791904D01*
X166175285Y-77830000D01*
X166251476Y-77906190D01*
X166289571Y-77982380D01*
X166327666Y-78134761D01*
X166327666Y-78249047D01*
X166289571Y-78401428D01*
X166251476Y-78477619D01*
X166175285Y-78553809D01*
X166061000Y-78591904D01*
X165870523Y-78591904D01*
X166822904Y-77791904D02*
X166899095Y-77791904D01*
X166975285Y-77830000D01*
X167013380Y-77868095D01*
X167051476Y-77944285D01*
X167089571Y-78096666D01*
X167089571Y-78287142D01*
X167051476Y-78439523D01*
X167013380Y-78515714D01*
X166975285Y-78553809D01*
X166899095Y-78591904D01*
X166822904Y-78591904D01*
X166746714Y-78553809D01*
X166708619Y-78515714D01*
X166670523Y-78439523D01*
X166632428Y-78287142D01*
X166632428Y-78096666D01*
X166670523Y-77944285D01*
X166708619Y-77868095D01*
X166746714Y-77830000D01*
X166822904Y-77791904D01*
X165870523Y-68431904D02*
X165870523Y-67631904D01*
X166061000Y-67631904D01*
X166175285Y-67670000D01*
X166251476Y-67746190D01*
X166289571Y-67822380D01*
X166327666Y-67974761D01*
X166327666Y-68089047D01*
X166289571Y-68241428D01*
X166251476Y-68317619D01*
X166175285Y-68393809D01*
X166061000Y-68431904D01*
X165870523Y-68431904D01*
X166632428Y-67708095D02*
X166670523Y-67670000D01*
X166746714Y-67631904D01*
X166937190Y-67631904D01*
X167013380Y-67670000D01*
X167051476Y-67708095D01*
X167089571Y-67784285D01*
X167089571Y-67860476D01*
X167051476Y-67974761D01*
X166594333Y-68431904D01*
X167089571Y-68431904D01*
X302283904Y-79982380D02*
X302283904Y-78982380D01*
X302855333Y-79982380D02*
X302426761Y-79410952D01*
X302855333Y-78982380D02*
X302283904Y-79553809D01*
X303474380Y-78982380D02*
X303569619Y-78982380D01*
X303664857Y-79030000D01*
X303712476Y-79077619D01*
X303760095Y-79172857D01*
X303807714Y-79363333D01*
X303807714Y-79601428D01*
X303760095Y-79791904D01*
X303712476Y-79887142D01*
X303664857Y-79934761D01*
X303569619Y-79982380D01*
X303474380Y-79982380D01*
X303379142Y-79934761D01*
X303331523Y-79887142D01*
X303283904Y-79791904D01*
X303236285Y-79601428D01*
X303236285Y-79363333D01*
X303283904Y-79172857D01*
X303331523Y-79077619D01*
X303379142Y-79030000D01*
X303474380Y-78982380D01*
X283487904Y-75918380D02*
X283487904Y-74918380D01*
X284059333Y-75918380D02*
X283630761Y-75346952D01*
X284059333Y-74918380D02*
X283487904Y-75489809D01*
X285011714Y-75918380D02*
X284440285Y-75918380D01*
X284726000Y-75918380D02*
X284726000Y-74918380D01*
X284630761Y-75061238D01*
X284535523Y-75156476D01*
X284440285Y-75204095D01*
X264437904Y-72108380D02*
X264437904Y-71108380D01*
X265009333Y-72108380D02*
X264580761Y-71536952D01*
X265009333Y-71108380D02*
X264437904Y-71679809D01*
X265390285Y-71203619D02*
X265437904Y-71156000D01*
X265533142Y-71108380D01*
X265771238Y-71108380D01*
X265866476Y-71156000D01*
X265914095Y-71203619D01*
X265961714Y-71298857D01*
X265961714Y-71394095D01*
X265914095Y-71536952D01*
X265342666Y-72108380D01*
X265961714Y-72108380D01*
X245387904Y-68044380D02*
X245387904Y-67044380D01*
X245959333Y-68044380D02*
X245530761Y-67472952D01*
X245959333Y-67044380D02*
X245387904Y-67615809D01*
X246292666Y-67044380D02*
X246911714Y-67044380D01*
X246578380Y-67425333D01*
X246721238Y-67425333D01*
X246816476Y-67472952D01*
X246864095Y-67520571D01*
X246911714Y-67615809D01*
X246911714Y-67853904D01*
X246864095Y-67949142D01*
X246816476Y-67996761D01*
X246721238Y-68044380D01*
X246435523Y-68044380D01*
X246340285Y-67996761D01*
X246292666Y-67949142D01*
X226591904Y-71854380D02*
X226591904Y-70854380D01*
X227163333Y-71854380D02*
X226734761Y-71282952D01*
X227163333Y-70854380D02*
X226591904Y-71425809D01*
X228020476Y-71187714D02*
X228020476Y-71854380D01*
X227782380Y-70806761D02*
X227544285Y-71521047D01*
X228163333Y-71521047D01*
X207541904Y-75918380D02*
X207541904Y-74918380D01*
X208113333Y-75918380D02*
X207684761Y-75346952D01*
X208113333Y-74918380D02*
X207541904Y-75489809D01*
X209018095Y-74918380D02*
X208541904Y-74918380D01*
X208494285Y-75394571D01*
X208541904Y-75346952D01*
X208637142Y-75299333D01*
X208875238Y-75299333D01*
X208970476Y-75346952D01*
X209018095Y-75394571D01*
X209065714Y-75489809D01*
X209065714Y-75727904D01*
X209018095Y-75823142D01*
X208970476Y-75870761D01*
X208875238Y-75918380D01*
X208637142Y-75918380D01*
X208541904Y-75870761D01*
X208494285Y-75823142D01*
X113561904Y-75918380D02*
X113561904Y-74918380D01*
X114133333Y-75918380D02*
X113704761Y-75346952D01*
X114133333Y-74918380D02*
X113561904Y-75489809D01*
X114990476Y-74918380D02*
X114800000Y-74918380D01*
X114704761Y-74966000D01*
X114657142Y-75013619D01*
X114561904Y-75156476D01*
X114514285Y-75346952D01*
X114514285Y-75727904D01*
X114561904Y-75823142D01*
X114609523Y-75870761D01*
X114704761Y-75918380D01*
X114895238Y-75918380D01*
X114990476Y-75870761D01*
X115038095Y-75823142D01*
X115085714Y-75727904D01*
X115085714Y-75489809D01*
X115038095Y-75394571D01*
X114990476Y-75346952D01*
X114895238Y-75299333D01*
X114704761Y-75299333D01*
X114609523Y-75346952D01*
X114561904Y-75394571D01*
X114514285Y-75489809D01*
X94511904Y-71981380D02*
X94511904Y-70981380D01*
X95083333Y-71981380D02*
X94654761Y-71409952D01*
X95083333Y-70981380D02*
X94511904Y-71552809D01*
X95416666Y-70981380D02*
X96083333Y-70981380D01*
X95654761Y-71981380D01*
X75461904Y-68044380D02*
X75461904Y-67044380D01*
X76033333Y-68044380D02*
X75604761Y-67472952D01*
X76033333Y-67044380D02*
X75461904Y-67615809D01*
X76604761Y-67472952D02*
X76509523Y-67425333D01*
X76461904Y-67377714D01*
X76414285Y-67282476D01*
X76414285Y-67234857D01*
X76461904Y-67139619D01*
X76509523Y-67092000D01*
X76604761Y-67044380D01*
X76795238Y-67044380D01*
X76890476Y-67092000D01*
X76938095Y-67139619D01*
X76985714Y-67234857D01*
X76985714Y-67282476D01*
X76938095Y-67377714D01*
X76890476Y-67425333D01*
X76795238Y-67472952D01*
X76604761Y-67472952D01*
X76509523Y-67520571D01*
X76461904Y-67568190D01*
X76414285Y-67663428D01*
X76414285Y-67853904D01*
X76461904Y-67949142D01*
X76509523Y-67996761D01*
X76604761Y-68044380D01*
X76795238Y-68044380D01*
X76890476Y-67996761D01*
X76938095Y-67949142D01*
X76985714Y-67853904D01*
X76985714Y-67663428D01*
X76938095Y-67568190D01*
X76890476Y-67520571D01*
X76795238Y-67472952D01*
X302061714Y-99032380D02*
X302061714Y-98032380D01*
X302633142Y-99032380D02*
X302204571Y-98460952D01*
X302633142Y-98032380D02*
X302061714Y-98603809D01*
X303585523Y-99032380D02*
X303014095Y-99032380D01*
X303299809Y-99032380D02*
X303299809Y-98032380D01*
X303204571Y-98175238D01*
X303109333Y-98270476D01*
X303014095Y-98318095D01*
X304204571Y-98032380D02*
X304299809Y-98032380D01*
X304395047Y-98080000D01*
X304442666Y-98127619D01*
X304490285Y-98222857D01*
X304537904Y-98413333D01*
X304537904Y-98651428D01*
X304490285Y-98841904D01*
X304442666Y-98937142D01*
X304395047Y-98984761D01*
X304299809Y-99032380D01*
X304204571Y-99032380D01*
X304109333Y-98984761D01*
X304061714Y-98937142D01*
X304014095Y-98841904D01*
X303966476Y-98651428D01*
X303966476Y-98413333D01*
X304014095Y-98222857D01*
X304061714Y-98127619D01*
X304109333Y-98080000D01*
X304204571Y-98032380D01*
X283011714Y-94968380D02*
X283011714Y-93968380D01*
X283583142Y-94968380D02*
X283154571Y-94396952D01*
X283583142Y-93968380D02*
X283011714Y-94539809D01*
X284535523Y-94968380D02*
X283964095Y-94968380D01*
X284249809Y-94968380D02*
X284249809Y-93968380D01*
X284154571Y-94111238D01*
X284059333Y-94206476D01*
X283964095Y-94254095D01*
X285487904Y-94968380D02*
X284916476Y-94968380D01*
X285202190Y-94968380D02*
X285202190Y-93968380D01*
X285106952Y-94111238D01*
X285011714Y-94206476D01*
X284916476Y-94254095D01*
X263961714Y-91158380D02*
X263961714Y-90158380D01*
X264533142Y-91158380D02*
X264104571Y-90586952D01*
X264533142Y-90158380D02*
X263961714Y-90729809D01*
X265485523Y-91158380D02*
X264914095Y-91158380D01*
X265199809Y-91158380D02*
X265199809Y-90158380D01*
X265104571Y-90301238D01*
X265009333Y-90396476D01*
X264914095Y-90444095D01*
X265866476Y-90253619D02*
X265914095Y-90206000D01*
X266009333Y-90158380D01*
X266247428Y-90158380D01*
X266342666Y-90206000D01*
X266390285Y-90253619D01*
X266437904Y-90348857D01*
X266437904Y-90444095D01*
X266390285Y-90586952D01*
X265818857Y-91158380D01*
X266437904Y-91158380D01*
X244911714Y-87094380D02*
X244911714Y-86094380D01*
X245483142Y-87094380D02*
X245054571Y-86522952D01*
X245483142Y-86094380D02*
X244911714Y-86665809D01*
X246435523Y-87094380D02*
X245864095Y-87094380D01*
X246149809Y-87094380D02*
X246149809Y-86094380D01*
X246054571Y-86237238D01*
X245959333Y-86332476D01*
X245864095Y-86380095D01*
X246768857Y-86094380D02*
X247387904Y-86094380D01*
X247054571Y-86475333D01*
X247197428Y-86475333D01*
X247292666Y-86522952D01*
X247340285Y-86570571D01*
X247387904Y-86665809D01*
X247387904Y-86903904D01*
X247340285Y-86999142D01*
X247292666Y-87046761D01*
X247197428Y-87094380D01*
X246911714Y-87094380D01*
X246816476Y-87046761D01*
X246768857Y-86999142D01*
X226115714Y-90904380D02*
X226115714Y-89904380D01*
X226687142Y-90904380D02*
X226258571Y-90332952D01*
X226687142Y-89904380D02*
X226115714Y-90475809D01*
X227639523Y-90904380D02*
X227068095Y-90904380D01*
X227353809Y-90904380D02*
X227353809Y-89904380D01*
X227258571Y-90047238D01*
X227163333Y-90142476D01*
X227068095Y-90190095D01*
X228496666Y-90237714D02*
X228496666Y-90904380D01*
X228258571Y-89856761D02*
X228020476Y-90571047D01*
X228639523Y-90571047D01*
X207065714Y-94968380D02*
X207065714Y-93968380D01*
X207637142Y-94968380D02*
X207208571Y-94396952D01*
X207637142Y-93968380D02*
X207065714Y-94539809D01*
X208589523Y-94968380D02*
X208018095Y-94968380D01*
X208303809Y-94968380D02*
X208303809Y-93968380D01*
X208208571Y-94111238D01*
X208113333Y-94206476D01*
X208018095Y-94254095D01*
X209494285Y-93968380D02*
X209018095Y-93968380D01*
X208970476Y-94444571D01*
X209018095Y-94396952D01*
X209113333Y-94349333D01*
X209351428Y-94349333D01*
X209446666Y-94396952D01*
X209494285Y-94444571D01*
X209541904Y-94539809D01*
X209541904Y-94777904D01*
X209494285Y-94873142D01*
X209446666Y-94920761D01*
X209351428Y-94968380D01*
X209113333Y-94968380D01*
X209018095Y-94920761D01*
X208970476Y-94873142D01*
X113085714Y-94968380D02*
X113085714Y-93968380D01*
X113657142Y-94968380D02*
X113228571Y-94396952D01*
X113657142Y-93968380D02*
X113085714Y-94539809D01*
X114609523Y-94968380D02*
X114038095Y-94968380D01*
X114323809Y-94968380D02*
X114323809Y-93968380D01*
X114228571Y-94111238D01*
X114133333Y-94206476D01*
X114038095Y-94254095D01*
X115466666Y-93968380D02*
X115276190Y-93968380D01*
X115180952Y-94016000D01*
X115133333Y-94063619D01*
X115038095Y-94206476D01*
X114990476Y-94396952D01*
X114990476Y-94777904D01*
X115038095Y-94873142D01*
X115085714Y-94920761D01*
X115180952Y-94968380D01*
X115371428Y-94968380D01*
X115466666Y-94920761D01*
X115514285Y-94873142D01*
X115561904Y-94777904D01*
X115561904Y-94539809D01*
X115514285Y-94444571D01*
X115466666Y-94396952D01*
X115371428Y-94349333D01*
X115180952Y-94349333D01*
X115085714Y-94396952D01*
X115038095Y-94444571D01*
X114990476Y-94539809D01*
X93908714Y-90904380D02*
X93908714Y-89904380D01*
X94480142Y-90904380D02*
X94051571Y-90332952D01*
X94480142Y-89904380D02*
X93908714Y-90475809D01*
X95432523Y-90904380D02*
X94861095Y-90904380D01*
X95146809Y-90904380D02*
X95146809Y-89904380D01*
X95051571Y-90047238D01*
X94956333Y-90142476D01*
X94861095Y-90190095D01*
X95765857Y-89904380D02*
X96432523Y-89904380D01*
X96003952Y-90904380D01*
X74985714Y-86840380D02*
X74985714Y-85840380D01*
X75557142Y-86840380D02*
X75128571Y-86268952D01*
X75557142Y-85840380D02*
X74985714Y-86411809D01*
X76509523Y-86840380D02*
X75938095Y-86840380D01*
X76223809Y-86840380D02*
X76223809Y-85840380D01*
X76128571Y-85983238D01*
X76033333Y-86078476D01*
X75938095Y-86126095D01*
X77080952Y-86268952D02*
X76985714Y-86221333D01*
X76938095Y-86173714D01*
X76890476Y-86078476D01*
X76890476Y-86030857D01*
X76938095Y-85935619D01*
X76985714Y-85888000D01*
X77080952Y-85840380D01*
X77271428Y-85840380D01*
X77366666Y-85888000D01*
X77414285Y-85935619D01*
X77461904Y-86030857D01*
X77461904Y-86078476D01*
X77414285Y-86173714D01*
X77366666Y-86221333D01*
X77271428Y-86268952D01*
X77080952Y-86268952D01*
X76985714Y-86316571D01*
X76938095Y-86364190D01*
X76890476Y-86459428D01*
X76890476Y-86649904D01*
X76938095Y-86745142D01*
X76985714Y-86792761D01*
X77080952Y-86840380D01*
X77271428Y-86840380D01*
X77366666Y-86792761D01*
X77414285Y-86745142D01*
X77461904Y-86649904D01*
X77461904Y-86459428D01*
X77414285Y-86364190D01*
X77366666Y-86316571D01*
X77271428Y-86268952D01*
X55935714Y-90904380D02*
X55935714Y-89904380D01*
X56507142Y-90904380D02*
X56078571Y-90332952D01*
X56507142Y-89904380D02*
X55935714Y-90475809D01*
X57459523Y-90904380D02*
X56888095Y-90904380D01*
X57173809Y-90904380D02*
X57173809Y-89904380D01*
X57078571Y-90047238D01*
X56983333Y-90142476D01*
X56888095Y-90190095D01*
X57935714Y-90904380D02*
X58126190Y-90904380D01*
X58221428Y-90856761D01*
X58269047Y-90809142D01*
X58364285Y-90666285D01*
X58411904Y-90475809D01*
X58411904Y-90094857D01*
X58364285Y-89999619D01*
X58316666Y-89952000D01*
X58221428Y-89904380D01*
X58030952Y-89904380D01*
X57935714Y-89952000D01*
X57888095Y-89999619D01*
X57840476Y-90094857D01*
X57840476Y-90332952D01*
X57888095Y-90428190D01*
X57935714Y-90475809D01*
X58030952Y-90523428D01*
X58221428Y-90523428D01*
X58316666Y-90475809D01*
X58364285Y-90428190D01*
X58411904Y-90332952D01*
X302061714Y-118082380D02*
X302061714Y-117082380D01*
X302633142Y-118082380D02*
X302204571Y-117510952D01*
X302633142Y-117082380D02*
X302061714Y-117653809D01*
X303014095Y-117177619D02*
X303061714Y-117130000D01*
X303156952Y-117082380D01*
X303395047Y-117082380D01*
X303490285Y-117130000D01*
X303537904Y-117177619D01*
X303585523Y-117272857D01*
X303585523Y-117368095D01*
X303537904Y-117510952D01*
X302966476Y-118082380D01*
X303585523Y-118082380D01*
X304204571Y-117082380D02*
X304299809Y-117082380D01*
X304395047Y-117130000D01*
X304442666Y-117177619D01*
X304490285Y-117272857D01*
X304537904Y-117463333D01*
X304537904Y-117701428D01*
X304490285Y-117891904D01*
X304442666Y-117987142D01*
X304395047Y-118034761D01*
X304299809Y-118082380D01*
X304204571Y-118082380D01*
X304109333Y-118034761D01*
X304061714Y-117987142D01*
X304014095Y-117891904D01*
X303966476Y-117701428D01*
X303966476Y-117463333D01*
X304014095Y-117272857D01*
X304061714Y-117177619D01*
X304109333Y-117130000D01*
X304204571Y-117082380D01*
X283011714Y-114018380D02*
X283011714Y-113018380D01*
X283583142Y-114018380D02*
X283154571Y-113446952D01*
X283583142Y-113018380D02*
X283011714Y-113589809D01*
X283964095Y-113113619D02*
X284011714Y-113066000D01*
X284106952Y-113018380D01*
X284345047Y-113018380D01*
X284440285Y-113066000D01*
X284487904Y-113113619D01*
X284535523Y-113208857D01*
X284535523Y-113304095D01*
X284487904Y-113446952D01*
X283916476Y-114018380D01*
X284535523Y-114018380D01*
X285487904Y-114018380D02*
X284916476Y-114018380D01*
X285202190Y-114018380D02*
X285202190Y-113018380D01*
X285106952Y-113161238D01*
X285011714Y-113256476D01*
X284916476Y-113304095D01*
X263961714Y-110208380D02*
X263961714Y-109208380D01*
X264533142Y-110208380D02*
X264104571Y-109636952D01*
X264533142Y-109208380D02*
X263961714Y-109779809D01*
X264914095Y-109303619D02*
X264961714Y-109256000D01*
X265056952Y-109208380D01*
X265295047Y-109208380D01*
X265390285Y-109256000D01*
X265437904Y-109303619D01*
X265485523Y-109398857D01*
X265485523Y-109494095D01*
X265437904Y-109636952D01*
X264866476Y-110208380D01*
X265485523Y-110208380D01*
X265866476Y-109303619D02*
X265914095Y-109256000D01*
X266009333Y-109208380D01*
X266247428Y-109208380D01*
X266342666Y-109256000D01*
X266390285Y-109303619D01*
X266437904Y-109398857D01*
X266437904Y-109494095D01*
X266390285Y-109636952D01*
X265818857Y-110208380D01*
X266437904Y-110208380D01*
X244911714Y-105890380D02*
X244911714Y-104890380D01*
X245483142Y-105890380D02*
X245054571Y-105318952D01*
X245483142Y-104890380D02*
X244911714Y-105461809D01*
X245864095Y-104985619D02*
X245911714Y-104938000D01*
X246006952Y-104890380D01*
X246245047Y-104890380D01*
X246340285Y-104938000D01*
X246387904Y-104985619D01*
X246435523Y-105080857D01*
X246435523Y-105176095D01*
X246387904Y-105318952D01*
X245816476Y-105890380D01*
X246435523Y-105890380D01*
X246768857Y-104890380D02*
X247387904Y-104890380D01*
X247054571Y-105271333D01*
X247197428Y-105271333D01*
X247292666Y-105318952D01*
X247340285Y-105366571D01*
X247387904Y-105461809D01*
X247387904Y-105699904D01*
X247340285Y-105795142D01*
X247292666Y-105842761D01*
X247197428Y-105890380D01*
X246911714Y-105890380D01*
X246816476Y-105842761D01*
X246768857Y-105795142D01*
X226115714Y-109954380D02*
X226115714Y-108954380D01*
X226687142Y-109954380D02*
X226258571Y-109382952D01*
X226687142Y-108954380D02*
X226115714Y-109525809D01*
X227068095Y-109049619D02*
X227115714Y-109002000D01*
X227210952Y-108954380D01*
X227449047Y-108954380D01*
X227544285Y-109002000D01*
X227591904Y-109049619D01*
X227639523Y-109144857D01*
X227639523Y-109240095D01*
X227591904Y-109382952D01*
X227020476Y-109954380D01*
X227639523Y-109954380D01*
X228496666Y-109287714D02*
X228496666Y-109954380D01*
X228258571Y-108906761D02*
X228020476Y-109621047D01*
X228639523Y-109621047D01*
X207065714Y-114018380D02*
X207065714Y-113018380D01*
X207637142Y-114018380D02*
X207208571Y-113446952D01*
X207637142Y-113018380D02*
X207065714Y-113589809D01*
X208018095Y-113113619D02*
X208065714Y-113066000D01*
X208160952Y-113018380D01*
X208399047Y-113018380D01*
X208494285Y-113066000D01*
X208541904Y-113113619D01*
X208589523Y-113208857D01*
X208589523Y-113304095D01*
X208541904Y-113446952D01*
X207970476Y-114018380D01*
X208589523Y-114018380D01*
X209494285Y-113018380D02*
X209018095Y-113018380D01*
X208970476Y-113494571D01*
X209018095Y-113446952D01*
X209113333Y-113399333D01*
X209351428Y-113399333D01*
X209446666Y-113446952D01*
X209494285Y-113494571D01*
X209541904Y-113589809D01*
X209541904Y-113827904D01*
X209494285Y-113923142D01*
X209446666Y-113970761D01*
X209351428Y-114018380D01*
X209113333Y-114018380D01*
X209018095Y-113970761D01*
X208970476Y-113923142D01*
X113085714Y-114018380D02*
X113085714Y-113018380D01*
X113657142Y-114018380D02*
X113228571Y-113446952D01*
X113657142Y-113018380D02*
X113085714Y-113589809D01*
X114038095Y-113113619D02*
X114085714Y-113066000D01*
X114180952Y-113018380D01*
X114419047Y-113018380D01*
X114514285Y-113066000D01*
X114561904Y-113113619D01*
X114609523Y-113208857D01*
X114609523Y-113304095D01*
X114561904Y-113446952D01*
X113990476Y-114018380D01*
X114609523Y-114018380D01*
X115466666Y-113018380D02*
X115276190Y-113018380D01*
X115180952Y-113066000D01*
X115133333Y-113113619D01*
X115038095Y-113256476D01*
X114990476Y-113446952D01*
X114990476Y-113827904D01*
X115038095Y-113923142D01*
X115085714Y-113970761D01*
X115180952Y-114018380D01*
X115371428Y-114018380D01*
X115466666Y-113970761D01*
X115514285Y-113923142D01*
X115561904Y-113827904D01*
X115561904Y-113589809D01*
X115514285Y-113494571D01*
X115466666Y-113446952D01*
X115371428Y-113399333D01*
X115180952Y-113399333D01*
X115085714Y-113446952D01*
X115038095Y-113494571D01*
X114990476Y-113589809D01*
X94035714Y-109954380D02*
X94035714Y-108954380D01*
X94607142Y-109954380D02*
X94178571Y-109382952D01*
X94607142Y-108954380D02*
X94035714Y-109525809D01*
X94988095Y-109049619D02*
X95035714Y-109002000D01*
X95130952Y-108954380D01*
X95369047Y-108954380D01*
X95464285Y-109002000D01*
X95511904Y-109049619D01*
X95559523Y-109144857D01*
X95559523Y-109240095D01*
X95511904Y-109382952D01*
X94940476Y-109954380D01*
X95559523Y-109954380D01*
X95892857Y-108954380D02*
X96559523Y-108954380D01*
X96130952Y-109954380D01*
X74985714Y-105890380D02*
X74985714Y-104890380D01*
X75557142Y-105890380D02*
X75128571Y-105318952D01*
X75557142Y-104890380D02*
X74985714Y-105461809D01*
X75938095Y-104985619D02*
X75985714Y-104938000D01*
X76080952Y-104890380D01*
X76319047Y-104890380D01*
X76414285Y-104938000D01*
X76461904Y-104985619D01*
X76509523Y-105080857D01*
X76509523Y-105176095D01*
X76461904Y-105318952D01*
X75890476Y-105890380D01*
X76509523Y-105890380D01*
X77080952Y-105318952D02*
X76985714Y-105271333D01*
X76938095Y-105223714D01*
X76890476Y-105128476D01*
X76890476Y-105080857D01*
X76938095Y-104985619D01*
X76985714Y-104938000D01*
X77080952Y-104890380D01*
X77271428Y-104890380D01*
X77366666Y-104938000D01*
X77414285Y-104985619D01*
X77461904Y-105080857D01*
X77461904Y-105128476D01*
X77414285Y-105223714D01*
X77366666Y-105271333D01*
X77271428Y-105318952D01*
X77080952Y-105318952D01*
X76985714Y-105366571D01*
X76938095Y-105414190D01*
X76890476Y-105509428D01*
X76890476Y-105699904D01*
X76938095Y-105795142D01*
X76985714Y-105842761D01*
X77080952Y-105890380D01*
X77271428Y-105890380D01*
X77366666Y-105842761D01*
X77414285Y-105795142D01*
X77461904Y-105699904D01*
X77461904Y-105509428D01*
X77414285Y-105414190D01*
X77366666Y-105366571D01*
X77271428Y-105318952D01*
X55935714Y-109954380D02*
X55935714Y-108954380D01*
X56507142Y-109954380D02*
X56078571Y-109382952D01*
X56507142Y-108954380D02*
X55935714Y-109525809D01*
X56888095Y-109049619D02*
X56935714Y-109002000D01*
X57030952Y-108954380D01*
X57269047Y-108954380D01*
X57364285Y-109002000D01*
X57411904Y-109049619D01*
X57459523Y-109144857D01*
X57459523Y-109240095D01*
X57411904Y-109382952D01*
X56840476Y-109954380D01*
X57459523Y-109954380D01*
X57935714Y-109954380D02*
X58126190Y-109954380D01*
X58221428Y-109906761D01*
X58269047Y-109859142D01*
X58364285Y-109716285D01*
X58411904Y-109525809D01*
X58411904Y-109144857D01*
X58364285Y-109049619D01*
X58316666Y-109002000D01*
X58221428Y-108954380D01*
X58030952Y-108954380D01*
X57935714Y-109002000D01*
X57888095Y-109049619D01*
X57840476Y-109144857D01*
X57840476Y-109382952D01*
X57888095Y-109478190D01*
X57935714Y-109525809D01*
X58030952Y-109573428D01*
X58221428Y-109573428D01*
X58316666Y-109525809D01*
X58364285Y-109478190D01*
X58411904Y-109382952D01*
X226115714Y-129004380D02*
X226115714Y-128004380D01*
X226687142Y-129004380D02*
X226258571Y-128432952D01*
X226687142Y-128004380D02*
X226115714Y-128575809D01*
X227020476Y-128004380D02*
X227639523Y-128004380D01*
X227306190Y-128385333D01*
X227449047Y-128385333D01*
X227544285Y-128432952D01*
X227591904Y-128480571D01*
X227639523Y-128575809D01*
X227639523Y-128813904D01*
X227591904Y-128909142D01*
X227544285Y-128956761D01*
X227449047Y-129004380D01*
X227163333Y-129004380D01*
X227068095Y-128956761D01*
X227020476Y-128909142D01*
X227972857Y-128004380D02*
X228591904Y-128004380D01*
X228258571Y-128385333D01*
X228401428Y-128385333D01*
X228496666Y-128432952D01*
X228544285Y-128480571D01*
X228591904Y-128575809D01*
X228591904Y-128813904D01*
X228544285Y-128909142D01*
X228496666Y-128956761D01*
X228401428Y-129004380D01*
X228115714Y-129004380D01*
X228020476Y-128956761D01*
X227972857Y-128909142D01*
X207065714Y-133068380D02*
X207065714Y-132068380D01*
X207637142Y-133068380D02*
X207208571Y-132496952D01*
X207637142Y-132068380D02*
X207065714Y-132639809D01*
X207970476Y-132068380D02*
X208589523Y-132068380D01*
X208256190Y-132449333D01*
X208399047Y-132449333D01*
X208494285Y-132496952D01*
X208541904Y-132544571D01*
X208589523Y-132639809D01*
X208589523Y-132877904D01*
X208541904Y-132973142D01*
X208494285Y-133020761D01*
X208399047Y-133068380D01*
X208113333Y-133068380D01*
X208018095Y-133020761D01*
X207970476Y-132973142D01*
X209446666Y-132401714D02*
X209446666Y-133068380D01*
X209208571Y-132020761D02*
X208970476Y-132735047D01*
X209589523Y-132735047D01*
X191825714Y-151864380D02*
X191825714Y-150864380D01*
X192397142Y-151864380D02*
X191968571Y-151292952D01*
X192397142Y-150864380D02*
X191825714Y-151435809D01*
X192730476Y-150864380D02*
X193349523Y-150864380D01*
X193016190Y-151245333D01*
X193159047Y-151245333D01*
X193254285Y-151292952D01*
X193301904Y-151340571D01*
X193349523Y-151435809D01*
X193349523Y-151673904D01*
X193301904Y-151769142D01*
X193254285Y-151816761D01*
X193159047Y-151864380D01*
X192873333Y-151864380D01*
X192778095Y-151816761D01*
X192730476Y-151769142D01*
X194254285Y-150864380D02*
X193778095Y-150864380D01*
X193730476Y-151340571D01*
X193778095Y-151292952D01*
X193873333Y-151245333D01*
X194111428Y-151245333D01*
X194206666Y-151292952D01*
X194254285Y-151340571D01*
X194301904Y-151435809D01*
X194301904Y-151673904D01*
X194254285Y-151769142D01*
X194206666Y-151816761D01*
X194111428Y-151864380D01*
X193873333Y-151864380D01*
X193778095Y-151816761D01*
X193730476Y-151769142D01*
X128071714Y-152118380D02*
X128071714Y-151118380D01*
X128643142Y-152118380D02*
X128214571Y-151546952D01*
X128643142Y-151118380D02*
X128071714Y-151689809D01*
X128976476Y-151118380D02*
X129595523Y-151118380D01*
X129262190Y-151499333D01*
X129405047Y-151499333D01*
X129500285Y-151546952D01*
X129547904Y-151594571D01*
X129595523Y-151689809D01*
X129595523Y-151927904D01*
X129547904Y-152023142D01*
X129500285Y-152070761D01*
X129405047Y-152118380D01*
X129119333Y-152118380D01*
X129024095Y-152070761D01*
X128976476Y-152023142D01*
X130452666Y-151118380D02*
X130262190Y-151118380D01*
X130166952Y-151166000D01*
X130119333Y-151213619D01*
X130024095Y-151356476D01*
X129976476Y-151546952D01*
X129976476Y-151927904D01*
X130024095Y-152023142D01*
X130071714Y-152070761D01*
X130166952Y-152118380D01*
X130357428Y-152118380D01*
X130452666Y-152070761D01*
X130500285Y-152023142D01*
X130547904Y-151927904D01*
X130547904Y-151689809D01*
X130500285Y-151594571D01*
X130452666Y-151546952D01*
X130357428Y-151499333D01*
X130166952Y-151499333D01*
X130071714Y-151546952D01*
X130024095Y-151594571D01*
X129976476Y-151689809D01*
X113085714Y-133068380D02*
X113085714Y-132068380D01*
X113657142Y-133068380D02*
X113228571Y-132496952D01*
X113657142Y-132068380D02*
X113085714Y-132639809D01*
X113990476Y-132068380D02*
X114609523Y-132068380D01*
X114276190Y-132449333D01*
X114419047Y-132449333D01*
X114514285Y-132496952D01*
X114561904Y-132544571D01*
X114609523Y-132639809D01*
X114609523Y-132877904D01*
X114561904Y-132973142D01*
X114514285Y-133020761D01*
X114419047Y-133068380D01*
X114133333Y-133068380D01*
X114038095Y-133020761D01*
X113990476Y-132973142D01*
X114942857Y-132068380D02*
X115609523Y-132068380D01*
X115180952Y-133068380D01*
X93908714Y-129004380D02*
X93908714Y-128004380D01*
X94480142Y-129004380D02*
X94051571Y-128432952D01*
X94480142Y-128004380D02*
X93908714Y-128575809D01*
X94813476Y-128004380D02*
X95432523Y-128004380D01*
X95099190Y-128385333D01*
X95242047Y-128385333D01*
X95337285Y-128432952D01*
X95384904Y-128480571D01*
X95432523Y-128575809D01*
X95432523Y-128813904D01*
X95384904Y-128909142D01*
X95337285Y-128956761D01*
X95242047Y-129004380D01*
X94956333Y-129004380D01*
X94861095Y-128956761D01*
X94813476Y-128909142D01*
X96003952Y-128432952D02*
X95908714Y-128385333D01*
X95861095Y-128337714D01*
X95813476Y-128242476D01*
X95813476Y-128194857D01*
X95861095Y-128099619D01*
X95908714Y-128052000D01*
X96003952Y-128004380D01*
X96194428Y-128004380D01*
X96289666Y-128052000D01*
X96337285Y-128099619D01*
X96384904Y-128194857D01*
X96384904Y-128242476D01*
X96337285Y-128337714D01*
X96289666Y-128385333D01*
X96194428Y-128432952D01*
X96003952Y-128432952D01*
X95908714Y-128480571D01*
X95861095Y-128528190D01*
X95813476Y-128623428D01*
X95813476Y-128813904D01*
X95861095Y-128909142D01*
X95908714Y-128956761D01*
X96003952Y-129004380D01*
X96194428Y-129004380D01*
X96289666Y-128956761D01*
X96337285Y-128909142D01*
X96384904Y-128813904D01*
X96384904Y-128623428D01*
X96337285Y-128528190D01*
X96289666Y-128480571D01*
X96194428Y-128432952D01*
X36457142Y-75918380D02*
X36457142Y-74918380D01*
X37028571Y-75918380D02*
X36600000Y-75346952D01*
X37028571Y-74918380D02*
X36457142Y-75489809D01*
X37647619Y-74918380D02*
X37742857Y-74918380D01*
X37838095Y-74966000D01*
X37885714Y-75013619D01*
X37933333Y-75108857D01*
X37980952Y-75299333D01*
X37980952Y-75537428D01*
X37933333Y-75727904D01*
X37885714Y-75823142D01*
X37838095Y-75870761D01*
X37742857Y-75918380D01*
X37647619Y-75918380D01*
X37552380Y-75870761D01*
X37504761Y-75823142D01*
X37457142Y-75727904D01*
X37409523Y-75537428D01*
X37409523Y-75299333D01*
X37457142Y-75108857D01*
X37504761Y-75013619D01*
X37552380Y-74966000D01*
X37647619Y-74918380D01*
X38361904Y-75632666D02*
X38838095Y-75632666D01*
X38266666Y-75918380D02*
X38600000Y-74918380D01*
X38933333Y-75918380D01*
X39790476Y-75918380D02*
X39219047Y-75918380D01*
X39504761Y-75918380D02*
X39504761Y-74918380D01*
X39409523Y-75061238D01*
X39314285Y-75156476D01*
X39219047Y-75204095D01*
X17589714Y-79982380D02*
X17589714Y-78982380D01*
X18161142Y-79982380D02*
X17732571Y-79410952D01*
X18161142Y-78982380D02*
X17589714Y-79553809D01*
X18780190Y-78982380D02*
X18875428Y-78982380D01*
X18970666Y-79030000D01*
X19018285Y-79077619D01*
X19065904Y-79172857D01*
X19113523Y-79363333D01*
X19113523Y-79601428D01*
X19065904Y-79791904D01*
X19018285Y-79887142D01*
X18970666Y-79934761D01*
X18875428Y-79982380D01*
X18780190Y-79982380D01*
X18684952Y-79934761D01*
X18637333Y-79887142D01*
X18589714Y-79791904D01*
X18542095Y-79601428D01*
X18542095Y-79363333D01*
X18589714Y-79172857D01*
X18637333Y-79077619D01*
X18684952Y-79030000D01*
X18780190Y-78982380D01*
X19875428Y-79458571D02*
X20018285Y-79506190D01*
X20065904Y-79553809D01*
X20113523Y-79649047D01*
X20113523Y-79791904D01*
X20065904Y-79887142D01*
X20018285Y-79934761D01*
X19923047Y-79982380D01*
X19542095Y-79982380D01*
X19542095Y-78982380D01*
X19875428Y-78982380D01*
X19970666Y-79030000D01*
X20018285Y-79077619D01*
X20065904Y-79172857D01*
X20065904Y-79268095D01*
X20018285Y-79363333D01*
X19970666Y-79410952D01*
X19875428Y-79458571D01*
X19542095Y-79458571D01*
X21065904Y-79982380D02*
X20494476Y-79982380D01*
X20780190Y-79982380D02*
X20780190Y-78982380D01*
X20684952Y-79125238D01*
X20589714Y-79220476D01*
X20494476Y-79268095D01*
X36457142Y-94968380D02*
X36457142Y-93968380D01*
X37028571Y-94968380D02*
X36600000Y-94396952D01*
X37028571Y-93968380D02*
X36457142Y-94539809D01*
X37980952Y-94968380D02*
X37409523Y-94968380D01*
X37695238Y-94968380D02*
X37695238Y-93968380D01*
X37600000Y-94111238D01*
X37504761Y-94206476D01*
X37409523Y-94254095D01*
X38361904Y-94682666D02*
X38838095Y-94682666D01*
X38266666Y-94968380D02*
X38600000Y-93968380D01*
X38933333Y-94968380D01*
X39790476Y-94968380D02*
X39219047Y-94968380D01*
X39504761Y-94968380D02*
X39504761Y-93968380D01*
X39409523Y-94111238D01*
X39314285Y-94206476D01*
X39219047Y-94254095D01*
X17589714Y-99032380D02*
X17589714Y-98032380D01*
X18161142Y-99032380D02*
X17732571Y-98460952D01*
X18161142Y-98032380D02*
X17589714Y-98603809D01*
X19113523Y-99032380D02*
X18542095Y-99032380D01*
X18827809Y-99032380D02*
X18827809Y-98032380D01*
X18732571Y-98175238D01*
X18637333Y-98270476D01*
X18542095Y-98318095D01*
X19875428Y-98508571D02*
X20018285Y-98556190D01*
X20065904Y-98603809D01*
X20113523Y-98699047D01*
X20113523Y-98841904D01*
X20065904Y-98937142D01*
X20018285Y-98984761D01*
X19923047Y-99032380D01*
X19542095Y-99032380D01*
X19542095Y-98032380D01*
X19875428Y-98032380D01*
X19970666Y-98080000D01*
X20018285Y-98127619D01*
X20065904Y-98222857D01*
X20065904Y-98318095D01*
X20018285Y-98413333D01*
X19970666Y-98460952D01*
X19875428Y-98508571D01*
X19542095Y-98508571D01*
X21065904Y-99032380D02*
X20494476Y-99032380D01*
X20780190Y-99032380D02*
X20780190Y-98032380D01*
X20684952Y-98175238D01*
X20589714Y-98270476D01*
X20494476Y-98318095D01*
X36457142Y-114018380D02*
X36457142Y-113018380D01*
X37028571Y-114018380D02*
X36600000Y-113446952D01*
X37028571Y-113018380D02*
X36457142Y-113589809D01*
X37409523Y-113113619D02*
X37457142Y-113066000D01*
X37552380Y-113018380D01*
X37790476Y-113018380D01*
X37885714Y-113066000D01*
X37933333Y-113113619D01*
X37980952Y-113208857D01*
X37980952Y-113304095D01*
X37933333Y-113446952D01*
X37361904Y-114018380D01*
X37980952Y-114018380D01*
X38361904Y-113732666D02*
X38838095Y-113732666D01*
X38266666Y-114018380D02*
X38600000Y-113018380D01*
X38933333Y-114018380D01*
X39790476Y-114018380D02*
X39219047Y-114018380D01*
X39504761Y-114018380D02*
X39504761Y-113018380D01*
X39409523Y-113161238D01*
X39314285Y-113256476D01*
X39219047Y-113304095D01*
X17589714Y-117828380D02*
X17589714Y-116828380D01*
X18161142Y-117828380D02*
X17732571Y-117256952D01*
X18161142Y-116828380D02*
X17589714Y-117399809D01*
X18542095Y-116923619D02*
X18589714Y-116876000D01*
X18684952Y-116828380D01*
X18923047Y-116828380D01*
X19018285Y-116876000D01*
X19065904Y-116923619D01*
X19113523Y-117018857D01*
X19113523Y-117114095D01*
X19065904Y-117256952D01*
X18494476Y-117828380D01*
X19113523Y-117828380D01*
X19875428Y-117304571D02*
X20018285Y-117352190D01*
X20065904Y-117399809D01*
X20113523Y-117495047D01*
X20113523Y-117637904D01*
X20065904Y-117733142D01*
X20018285Y-117780761D01*
X19923047Y-117828380D01*
X19542095Y-117828380D01*
X19542095Y-116828380D01*
X19875428Y-116828380D01*
X19970666Y-116876000D01*
X20018285Y-116923619D01*
X20065904Y-117018857D01*
X20065904Y-117114095D01*
X20018285Y-117209333D01*
X19970666Y-117256952D01*
X19875428Y-117304571D01*
X19542095Y-117304571D01*
X21065904Y-117828380D02*
X20494476Y-117828380D01*
X20780190Y-117828380D02*
X20780190Y-116828380D01*
X20684952Y-116971238D01*
X20589714Y-117066476D01*
X20494476Y-117114095D01*
M02*
