M48
; DRILL file {KiCad 5.1.2} date Sat 08 Jun 2019 03:08:22 PM CEST
; FORMAT={-:-/ absolute / inch / decimal}
; #@! TF.CreationDate,2019-06-08T15:08:22+02:00
; #@! TF.GenerationSoftware,Kicad,Pcbnew,5.1.2
; #@! TF.FileFunction,Plated,1,2,PTH
FMAT,2
INCH
T1C0.0157
T2C0.0276
T3C0.0300
T4C0.0591
%
G90
G05
T1
X0.8941Y-3.2741
X1.6341Y-3.1641
X2.3841Y-3.72
X3.1341Y-3.5941
X4.4414Y-4.7186
X4.6341Y-3.2041
X5.33Y-4.55
X5.36Y-3.35
X5.38Y-3.95
X5.38Y-4.1
X5.47Y-3.36
X5.55Y-3.69
X5.62Y-3.38
X5.62Y-4.65
X5.62Y-4.79
X5.72Y-4.55
X5.72Y-4.65
X5.72Y-4.79
X7.05Y-3.8
X7.08Y-4.7
X7.16Y-3.95
X7.18Y-3.15
X7.18Y-3.22
X7.18Y-3.29
X7.19Y-3.8
X7.19Y-3.9
X7.21Y-4.58
X7.29Y-3.22
X7.29Y-3.27
X7.39Y-4.61
X7.54Y-3.15
X7.56Y-4.61
X8.3341Y-3.1859
X8.41Y-4.61
X9.8241Y-3.6141
X10.5741Y-3.74
X11.3241Y-3.17
X12.0741Y-3.25
T2
X3.34Y-3.8165
X3.34Y-4.1235
X3.34Y-3.0665
X3.34Y-3.3735
X1.84Y-2.6365
X1.84Y-2.9435
X11.6Y-4.2965
X11.6Y-4.6035
X10.85Y-2.6365
X10.85Y-2.9435
X4.09Y-4.7265
X4.09Y-5.0335
X8.61Y-4.7265
X8.61Y-5.0335
X7.26Y-2.6265
X7.26Y-2.9335
X1.1Y-3.5465
X1.1Y-3.8535
X2.59Y-3.9765
X2.59Y-4.2835
X10.85Y-3.3865
X10.85Y-3.6935
X5.43Y-4.8865
X5.43Y-5.1935
X9.35Y-3.0765
X9.35Y-3.3835
X4.09Y-3.9765
X4.09Y-4.2835
X8.61Y-3.9765
X8.61Y-4.2835
X11.59Y-2.7965
X11.59Y-3.1035
X1.1Y-2.7965
X1.1Y-3.1035
X10.85Y-4.1365
X10.85Y-4.4435
X11.6Y-3.5465
X11.6Y-3.8535
X10.1Y-3.2365
X10.1Y-3.5435
X4.84Y-4.1365
X4.84Y-4.4435
X7.86Y-4.1365
X7.86Y-4.4435
X9.35Y-3.8165
X9.35Y-4.1235
X2.59Y-2.4765
X2.59Y-2.7835
X5.43Y-2.6365
X5.43Y-2.9435
X10.1Y-3.9865
X10.1Y-4.2935
X10.1Y-2.4865
X10.1Y-2.7935
X1.1Y-4.2765
X1.1Y-4.5835
X4.09Y-2.4865
X4.09Y-2.7935
X1.84Y-4.1365
X1.84Y-4.4435
X2.59Y-3.2265
X2.59Y-3.5335
X7.86Y-3.3865
X7.86Y-3.6935
X1.84Y-3.2165
X1.84Y-3.5235
X5.43Y-5.6365
X5.43Y-5.9435
X4.84Y-3.3765
X4.84Y-3.6835
X4.09Y-3.2365
X4.09Y-3.5435
X3.34Y-2.3265
X3.34Y-2.6335
X8.61Y-2.4765
X8.61Y-2.7835
X7.26Y-5.6265
X7.26Y-5.9335
X7.26Y-4.8865
X7.26Y-5.1935
X8.61Y-3.2265
X8.61Y-3.5335
X9.35Y-2.3265
X9.35Y-2.6335
T3
X5.95Y-3.05
X5.95Y-3.15
X5.95Y-3.25
X5.95Y-3.35
X5.95Y-3.45
X5.95Y-3.55
X5.95Y-3.65
X5.95Y-3.75
X5.95Y-3.85
X5.95Y-3.95
X5.95Y-4.05
X5.95Y-4.15
X6.75Y-2.65
X6.75Y-2.75
X6.75Y-2.85
X6.75Y-2.95
X6.75Y-3.05
X6.75Y-3.15
X6.75Y-3.25
X6.75Y-3.35
X6.75Y-3.45
X6.75Y-3.55
X6.75Y-3.65
X6.75Y-3.75
X6.75Y-3.85
X6.75Y-3.95
X6.75Y-4.05
X6.75Y-4.15
T4
G00X11.0916Y-2.6128
M15
G01X11.09Y-2.59
M16
G05
G00X11.34Y-2.69
M15
G01X11.3081Y-2.6325
M16
G05
G00X8.8516Y-3.9528
M15
G01X8.85Y-3.93
M16
G05
G00X9.1Y-4.03
M15
G01X9.0681Y-3.9725
M16
G05
G00X4.4016Y-4.8628
M15
G01X4.4Y-4.84
M16
G05
G00X4.65Y-4.94
M15
G01X4.6181Y-4.8825
M16
G05
G00X8.1016Y-2.6128
M15
G01X8.1Y-2.59
M16
G05
G00X8.35Y-2.69
M15
G01X8.3181Y-2.6325
M16
G05
G00X11.0916Y-4.1128
M15
G01X11.09Y-4.09
M16
G05
G00X11.34Y-4.19
M15
G01X11.3081Y-4.1325
M16
G05
G00X2.9016Y-2.3028
M15
G01X2.9Y-2.28
M16
G05
G00X3.15Y-2.38
M15
G01X3.1181Y-2.3225
M16
G05
G00X11.8316Y-2.7728
M15
G01X11.83Y-2.75
M16
G05
G00X12.08Y-2.85
M15
G01X12.0481Y-2.7925
M16
G05
G00X4.4016Y-2.6128
M15
G01X4.4Y-2.59
M16
G05
G00X4.65Y-2.69
M15
G01X4.6181Y-2.6325
M16
G05
G00X4.9916Y-5.6128
M15
G01X4.99Y-5.59
M16
G05
G00X5.24Y-5.69
M15
G01X5.2081Y-5.6325
M16
G05
G00X11.8416Y-4.2728
M15
G01X11.84Y-4.25
M16
G05
G00X12.09Y-4.35
M15
G01X12.0581Y-4.2925
M16
G05
G00X2.9016Y-3.0428
M15
G01X2.9Y-3.02
M16
G05
G00X3.15Y-3.12
M15
G01X3.1181Y-3.0625
M16
G05
G00X3.6516Y-3.9528
M15
G01X3.65Y-3.93
M16
G05
G00X3.9Y-4.03
M15
G01X3.8681Y-3.9725
M16
G05
G00X10.3416Y-3.9628
M15
G01X10.34Y-3.94
M16
G05
G00X10.59Y-4.04
M15
G01X10.5581Y-3.9825
M16
G05
G00X8.1016Y-4.8628
M15
G01X8.1Y-4.84
M16
G05
G00X8.35Y-4.94
M15
G01X8.3181Y-4.8825
M16
G05
G00X4.4016Y-3.3628
M15
G01X4.4Y-3.34
M16
G05
G00X4.65Y-3.44
M15
G01X4.6181Y-3.3825
M16
G05
G00X2.1516Y-3.9528
M15
G01X2.15Y-3.93
M16
G05
G00X2.4Y-4.03
M15
G01X2.3681Y-3.9725
M16
G05
G00X8.8516Y-3.2028
M15
G01X8.85Y-3.18
M16
G05
G00X9.1Y-3.28
M15
G01X9.0681Y-3.2225
M16
G05
G00X10.3416Y-3.2128
M15
G01X10.34Y-3.19
M16
G05
G00X10.59Y-3.29
M15
G01X10.5581Y-3.2325
M16
G05
G00X8.1016Y-4.1128
M15
G01X8.1Y-4.09
M16
G05
G00X8.35Y-4.19
M15
G01X8.3181Y-4.1325
M16
G05
G00X3.6466Y-4.7028
M15
G01X3.645Y-4.68
M16
G05
G00X3.895Y-4.78
M15
G01X3.8631Y-4.7225
M16
G05
G00X0.6616Y-3.5228
M15
G01X0.66Y-3.5
M16
G05
G00X0.91Y-3.6
M15
G01X0.8781Y-3.5425
M16
G05
G00X0.6616Y-4.2628
M15
G01X0.66Y-4.24
M16
G05
G00X0.91Y-4.34
M15
G01X0.8781Y-4.2825
M16
G05
G00X7.5016Y-5.6028
M15
G01X7.5Y-5.58
M16
G05
G00X7.75Y-5.68
M15
G01X7.7181Y-5.6225
M16
G05
G00X9.5916Y-2.3028
M15
G01X9.59Y-2.28
M16
G05
G00X9.84Y-2.38
M15
G01X9.8081Y-2.3225
M16
G05
G00X8.8516Y-2.4528
M15
G01X8.85Y-2.43
M16
G05
G00X9.1Y-2.53
M15
G01X9.0681Y-2.4725
M16
G05
G00X0.6616Y-2.7728
M15
G01X0.66Y-2.75
M16
G05
G00X0.91Y-2.85
M15
G01X0.8781Y-2.7925
M16
G05
G00X2.1516Y-2.4528
M15
G01X2.15Y-2.43
M16
G05
G00X2.4Y-2.53
M15
G01X2.3681Y-2.4725
M16
G05
G00X11.8416Y-3.5228
M15
G01X11.84Y-3.5
M16
G05
G00X12.09Y-3.6
M15
G01X12.0581Y-3.5425
M16
G05
G00X3.6516Y-2.4578
M15
G01X3.65Y-2.435
M16
G05
G00X3.9Y-2.535
M15
G01X3.8681Y-2.4775
M16
G05
G00X2.1516Y-3.2028
M15
G01X2.15Y-3.18
M16
G05
G00X2.4Y-3.28
M15
G01X2.3681Y-3.2225
M16
G05
G00X2.9016Y-3.7928
M15
G01X2.9Y-3.77
M16
G05
G00X3.15Y-3.87
M15
G01X3.1181Y-3.8125
M16
G05
G00X9.5916Y-3.7928
M15
G01X9.59Y-3.77
M16
G05
G00X9.84Y-3.87
M15
G01X9.8081Y-3.8125
M16
G05
G00X3.6466Y-3.2028
M15
G01X3.645Y-3.18
M16
G05
G00X3.895Y-3.28
M15
G01X3.8631Y-3.2225
M16
G05
G00X8.8516Y-4.7028
M15
G01X8.85Y-4.68
M16
G05
G00X9.1Y-4.78
M15
G01X9.0681Y-4.7225
M16
G05
G00X8.1016Y-3.3628
M15
G01X8.1Y-3.34
M16
G05
G00X8.35Y-3.44
M15
G01X8.3181Y-3.3825
M16
G05
G00X10.3416Y-2.4628
M15
G01X10.34Y-2.44
M16
G05
G00X10.59Y-2.54
M15
G01X10.5581Y-2.4825
M16
G05
G00X9.5916Y-3.0528
M15
G01X9.59Y-3.03
M16
G05
G00X9.84Y-3.13
M15
G01X9.8081Y-3.0725
M16
G05
G00X11.0916Y-3.3628
M15
G01X11.09Y-3.34
M16
G05
G00X11.34Y-3.44
M15
G01X11.3081Y-3.3825
M16
G05
G00X4.4016Y-4.1128
M15
G01X4.4Y-4.09
M16
G05
G00X4.65Y-4.19
M15
G01X4.6181Y-4.1325
M16
G05
G00X1.4016Y-2.6128
M15
G01X1.4Y-2.59
M16
G05
G00X1.65Y-2.69
M15
G01X1.6181Y-2.6325
M16
G05
G00X1.4016Y-3.3628
M15
G01X1.4Y-3.34
M16
G05
G00X1.65Y-3.44
M15
G01X1.6181Y-3.3825
M16
G05
G00X1.4016Y-4.1128
M15
G01X1.4Y-4.09
M16
G05
G00X1.65Y-4.19
M15
G01X1.6181Y-4.1325
M16
G05
T0
M30
