M48
; DRILL file {KiCad 5.1.5} date Mon 09 Mar 2020 08:35:01 PM UTC
; FORMAT={-:-/ absolute / inch / decimal}
; #@! TF.CreationDate,2020-03-09T20:35:01+00:00
; #@! TF.GenerationSoftware,Kicad,Pcbnew,5.1.5
; #@! TF.FileFunction,NonPlated,1,2,NPTH
FMAT,2
INCH
T1C0.0472
T2C0.0670
T3C0.1181
T4C0.1570
%
G90
G05
T1
X5.4602Y-3.9421
X5.4602Y-4.2421
X5.3449Y-3.9429
X5.3449Y-4.2429
T2
X7.7252Y-3.1555
X8.1252Y-3.1555
X9.9654Y-2.565
X10.3654Y-2.565
X2.6803Y-1.6571
X3.0803Y-1.6571
X7.7213Y-1.6594
X8.1213Y-1.6594
X-0.3122Y-2.7224
X0.0878Y-2.7224
X9.2173Y-1.6555
X9.6173Y-1.6555
X0.4358Y-2.565
X0.8358Y-2.565
X0.4358Y-1.8169
X0.8358Y-1.8169
X7.7252Y-3.8996
X8.1252Y-3.8996
X7.7213Y-2.4075
X8.1213Y-2.4075
X3.4319Y-2.565
X3.8319Y-2.565
X6.3866Y-4.8091
X6.7866Y-4.8091
X2.6839Y-2.4075
X3.0839Y-2.4075
X3.4319Y-1.8169
X3.8319Y-1.8169
X3.4319Y-3.313
X3.8319Y-3.313
X9.2213Y-2.4035
X9.6213Y-2.4035
X9.9654Y-3.313
X10.3654Y-3.313
X10.7173Y-2.7224
X11.1173Y-2.7224
X4.0224Y-4.8091
X4.4224Y-4.8091
X10.7134Y-1.9744
X11.1134Y-1.9744
X2.6799Y-3.9035
X3.0799Y-3.9035
X8.4693Y-2.2539
X8.8693Y-2.2539
X1.1878Y-3.1555
X1.5878Y-3.1555
X-0.3083Y-3.4705
X0.0917Y-3.4705
X1.1878Y-1.6594
X1.5878Y-1.6594
X1.9319Y-2.998
X2.3319Y-2.998
X6.9732Y-4.061
X7.3732Y-4.061
X0.4398Y-3.313
X0.8398Y-3.313
X3.428Y-4.061
X3.828Y-4.061
X9.965Y-1.8154
X10.365Y-1.8154
X1.9358Y-1.502
X2.3358Y-1.502
X8.4693Y-2.9941
X8.8693Y-2.9941
X1.9358Y-2.25
X2.3358Y-2.25
X6.9772Y-3.313
X7.3772Y-3.313
X8.4732Y-1.502
X8.8732Y-1.502
X-0.3122Y-1.9744
X0.0878Y-1.9744
X6.9772Y-2.565
X7.3772Y-2.565
X2.6839Y-3.1555
X3.0839Y-3.1555
X9.2173Y-3.1555
X9.6173Y-3.1555
X6.9807Y-1.8114
X7.3807Y-1.8114
X1.1878Y-2.4075
X1.5878Y-2.4075
X10.7173Y-3.4705
X11.1173Y-3.4705
T3
X8.5732Y-1.702
X8.8232Y-1.602
X-0.2122Y-2.1744
X0.0378Y-2.0744
X7.0772Y-2.765
X7.3272Y-2.665
X2.7839Y-3.3555
X3.0339Y-3.2555
X9.3173Y-3.3555
X9.5673Y-3.2555
X7.0807Y-2.0114
X7.3307Y-1.9114
X1.2878Y-2.6075
X1.5378Y-2.5075
X10.8173Y-3.6705
X11.0673Y-3.5705
X7.8252Y-3.3555
X8.0752Y-3.2555
X10.0654Y-2.765
X10.3154Y-2.665
X2.7803Y-1.8571
X3.0303Y-1.7571
X7.8213Y-1.8594
X8.0713Y-1.7594
X-0.2122Y-2.9224
X0.0378Y-2.8224
X9.3173Y-1.8555
X9.5673Y-1.7555
X0.5358Y-2.765
X0.7858Y-2.665
X0.5358Y-2.0169
X0.7858Y-1.9169
X7.8252Y-4.0996
X8.0752Y-3.9996
X7.8213Y-2.6075
X8.0713Y-2.5075
X3.5319Y-2.765
X3.7819Y-2.665
X6.4866Y-5.0091
X6.7366Y-4.9091
X2.7839Y-2.6075
X3.0339Y-2.5075
X3.5319Y-2.0169
X3.7819Y-1.9169
X3.5319Y-3.513
X3.7819Y-3.413
X9.3213Y-2.6035
X9.5713Y-2.5035
X10.0654Y-3.513
X10.3154Y-3.413
X10.8173Y-2.9224
X11.0673Y-2.8224
X4.1224Y-5.0091
X4.3724Y-4.9091
X10.8134Y-2.1744
X11.0634Y-2.0744
X2.7799Y-4.1035
X3.0299Y-4.0035
X8.5693Y-2.4539
X8.8193Y-2.3539
X1.2878Y-3.3555
X1.5378Y-3.2555
X-0.2083Y-3.6705
X0.0417Y-3.5705
X1.2878Y-1.8594
X1.5378Y-1.7594
X2.0319Y-3.198
X2.2819Y-3.098
X7.0732Y-4.261
X7.3232Y-4.161
X0.5398Y-3.513
X0.7898Y-3.413
X3.528Y-4.261
X3.778Y-4.161
X10.065Y-2.0154
X10.315Y-1.9154
X2.0358Y-1.702
X2.2858Y-1.602
X8.5693Y-3.1941
X8.8193Y-3.0941
X2.0358Y-2.45
X2.2858Y-2.35
X7.0772Y-3.513
X7.3272Y-3.413
T4
X7.9252Y-3.1555
X10.1654Y-2.565
X2.8803Y-1.6571
X7.9213Y-1.6594
X-0.1122Y-2.7224
X9.4173Y-1.6555
X0.6358Y-2.565
X0.6358Y-1.8169
X7.9252Y-3.8996
X7.9213Y-2.4075
X3.6319Y-2.565
X6.5866Y-4.8091
X2.8839Y-2.4075
X3.6319Y-1.8169
X3.6319Y-3.313
X9.4213Y-2.4035
X10.1654Y-3.313
X10.9173Y-2.7224
X4.2224Y-4.8091
X10.9134Y-1.9744
X2.8799Y-3.9035
X8.6693Y-2.2539
X1.3878Y-3.1555
X-0.1083Y-3.4705
X1.3878Y-1.6594
X2.1319Y-2.998
X7.1732Y-4.061
X0.6398Y-3.313
X3.628Y-4.061
X10.165Y-1.8154
X2.1358Y-1.502
X8.6693Y-2.9941
X2.1358Y-2.25
X7.1772Y-3.313
X8.6732Y-1.502
X-0.1122Y-1.9744
X7.1772Y-2.565
X2.8839Y-3.1555
X9.4173Y-3.1555
X7.1807Y-1.8114
X1.3878Y-2.4075
X10.9173Y-3.4705
T0
M30
