M48
; DRILL file {KiCad 5.1.5} date Sat 04 Apr 2020 10:10:52 AM CEST
; FORMAT={-:-/ absolute / inch / decimal}
; #@! TF.CreationDate,2020-04-04T10:10:52+02:00
; #@! TF.GenerationSoftware,Kicad,Pcbnew,5.1.5
; #@! TF.FileFunction,NonPlated,1,2,NPTH
FMAT,2
INCH
T1C0.0472
T2C0.0670
T3C0.1181
T4C0.1570
%
G90
G05
T1
X5.3449Y-3.9429
X5.3449Y-4.2429
T2
X3.4319Y-2.565
X3.8319Y-2.565
X0.4398Y-3.313
X0.8398Y-3.313
X9.298Y-3.1555
X9.698Y-3.1555
X2.6839Y-2.4075
X3.0839Y-2.4075
X8.55Y-2.9941
X8.95Y-2.9941
X10.7941Y-1.9744
X11.1941Y-1.9744
X7.0579Y-3.313
X7.4579Y-3.313
X7.802Y-2.4075
X8.202Y-2.4075
X0.4358Y-1.8169
X0.8358Y-1.8169
X9.302Y-2.4035
X9.702Y-2.4035
X1.9319Y-2.998
X2.3319Y-2.998
X-0.3122Y-1.9744
X0.0878Y-1.9744
X-0.3083Y-3.4705
X0.0917Y-3.4705
X3.4319Y-1.8169
X3.8319Y-1.8169
X7.0539Y-4.061
X7.4539Y-4.061
X7.0614Y-1.8114
X7.4614Y-1.8114
X10.798Y-3.4705
X11.198Y-3.4705
X7.0579Y-2.565
X7.4579Y-2.565
X1.1878Y-1.6594
X1.5878Y-1.6594
X8.5539Y-1.502
X8.9539Y-1.502
X7.8059Y-3.1555
X8.2059Y-3.1555
X10.0461Y-3.313
X10.4461Y-3.313
X1.1878Y-3.1555
X1.5878Y-3.1555
X0.4358Y-2.565
X0.8358Y-2.565
X6.4673Y-4.8091
X6.8673Y-4.8091
X-0.3122Y-2.7224
X0.0878Y-2.7224
X4.0224Y-4.8091
X4.4224Y-4.8091
X1.9358Y-1.502
X2.3358Y-1.502
X8.55Y-2.2539
X8.95Y-2.2539
X1.9358Y-2.25
X2.3358Y-2.25
X2.6803Y-1.6571
X3.0803Y-1.6571
X10.0461Y-2.565
X10.4461Y-2.565
X7.8059Y-3.8996
X8.2059Y-3.8996
X2.6799Y-3.9035
X3.0799Y-3.9035
X3.428Y-4.061
X3.828Y-4.061
X2.6839Y-3.1555
X3.0839Y-3.1555
X7.802Y-1.6594
X8.202Y-1.6594
X10.798Y-2.7224
X11.198Y-2.7224
X1.1878Y-2.4075
X1.5878Y-2.4075
X3.4319Y-3.313
X3.8319Y-3.313
X9.298Y-1.6555
X9.698Y-1.6555
X10.0457Y-1.8154
X10.4457Y-1.8154
T3
X2.0319Y-3.198
X2.2819Y-3.098
X-0.2122Y-2.1744
X0.0378Y-2.0744
X-0.2083Y-3.6705
X0.0417Y-3.5705
X3.5319Y-2.0169
X3.7819Y-1.9169
X7.1539Y-4.261
X7.4039Y-4.161
X7.1614Y-2.0114
X7.4114Y-1.9114
X10.898Y-3.6705
X11.148Y-3.5705
X7.1579Y-2.765
X7.4079Y-2.665
X1.2878Y-1.8594
X1.5378Y-1.7594
X8.6539Y-1.702
X8.9039Y-1.602
X7.9059Y-3.3555
X8.1559Y-3.2555
X10.1461Y-3.513
X10.3961Y-3.413
X1.2878Y-3.3555
X1.5378Y-3.2555
X0.5358Y-2.765
X0.7858Y-2.665
X6.5673Y-5.0091
X6.8173Y-4.9091
X-0.2122Y-2.9224
X0.0378Y-2.8224
X4.1224Y-5.0091
X4.3724Y-4.9091
X2.0358Y-1.702
X2.2858Y-1.602
X8.65Y-2.4539
X8.9Y-2.3539
X2.0358Y-2.45
X2.2858Y-2.35
X2.7803Y-1.8571
X3.0303Y-1.7571
X10.1461Y-2.765
X10.3961Y-2.665
X7.9059Y-4.0996
X8.1559Y-3.9996
X2.7799Y-4.1035
X3.0299Y-4.0035
X3.528Y-4.261
X3.778Y-4.161
X2.7839Y-3.3555
X3.0339Y-3.2555
X7.902Y-1.8594
X8.152Y-1.7594
X10.898Y-2.9224
X11.148Y-2.8224
X1.2878Y-2.6075
X1.5378Y-2.5075
X3.5319Y-3.513
X3.7819Y-3.413
X9.398Y-1.8555
X9.648Y-1.7555
X10.1457Y-2.0154
X10.3957Y-1.9154
X3.5319Y-2.765
X3.7819Y-2.665
X0.5398Y-3.513
X0.7898Y-3.413
X9.398Y-3.3555
X9.648Y-3.2555
X2.7839Y-2.6075
X3.0339Y-2.5075
X8.65Y-3.1941
X8.9Y-3.0941
X10.8941Y-2.1744
X11.1441Y-2.0744
X7.1579Y-3.513
X7.4079Y-3.413
X7.902Y-2.6075
X8.152Y-2.5075
X0.5358Y-2.0169
X0.7858Y-1.9169
X9.402Y-2.6035
X9.652Y-2.5035
T4
X3.6319Y-1.8169
X7.2539Y-4.061
X7.2614Y-1.8114
X10.998Y-3.4705
X7.2579Y-2.565
X1.3878Y-1.6594
X8.7539Y-1.502
X8.0059Y-3.1555
X10.2461Y-3.313
X1.3878Y-3.1555
X0.6358Y-2.565
X6.6673Y-4.8091
X-0.1122Y-2.7224
X4.2224Y-4.8091
X2.1358Y-1.502
X8.75Y-2.2539
X2.1358Y-2.25
X2.8803Y-1.6571
X10.2461Y-2.565
X8.0059Y-3.8996
X2.8799Y-3.9035
X3.628Y-4.061
X2.8839Y-3.1555
X8.002Y-1.6594
X10.998Y-2.7224
X1.3878Y-2.4075
X3.6319Y-3.313
X9.498Y-1.6555
X10.2457Y-1.8154
X3.6319Y-2.565
X0.6398Y-3.313
X9.498Y-3.1555
X2.8839Y-2.4075
X8.75Y-2.9941
X10.9941Y-1.9744
X7.2579Y-3.313
X8.002Y-2.4075
X0.6358Y-1.8169
X9.502Y-2.4035
X2.1319Y-2.998
X-0.1122Y-1.9744
X-0.1083Y-3.4705
T0
M30
