G04 #@! TF.GenerationSoftware,KiCad,Pcbnew,5.1.10*
G04 #@! TF.CreationDate,2021-10-24T21:55:21+02:00*
G04 #@! TF.ProjectId,pcb,7063622e-6b69-4636-9164-5f7063625858,rev?*
G04 #@! TF.SameCoordinates,Original*
G04 #@! TF.FileFunction,Copper,L2,Bot*
G04 #@! TF.FilePolarity,Positive*
%FSLAX46Y46*%
G04 Gerber Fmt 4.6, Leading zero omitted, Abs format (unit mm)*
G04 Created by KiCad (PCBNEW 5.1.10) date 2021-10-24 21:55:21*
%MOMM*%
%LPD*%
G01*
G04 APERTURE LIST*
G04 #@! TA.AperFunction,ComponentPad*
%ADD10C,2.000000*%
G04 #@! TD*
G04 #@! TA.AperFunction,ComponentPad*
%ADD11C,1.600000*%
G04 #@! TD*
G04 #@! TA.AperFunction,ComponentPad*
%ADD12R,1.600000X1.600000*%
G04 #@! TD*
G04 #@! TA.AperFunction,ComponentPad*
%ADD13R,1.752600X1.752600*%
G04 #@! TD*
G04 #@! TA.AperFunction,ComponentPad*
%ADD14C,1.752600*%
G04 #@! TD*
G04 #@! TA.AperFunction,SMDPad,CuDef*
%ADD15R,3.250000X2.000000*%
G04 #@! TD*
G04 #@! TA.AperFunction,SMDPad,CuDef*
%ADD16R,2.000000X3.250000*%
G04 #@! TD*
G04 #@! TA.AperFunction,ViaPad*
%ADD17C,0.800000*%
G04 #@! TD*
G04 #@! TA.AperFunction,Conductor*
%ADD18C,0.250000*%
G04 #@! TD*
G04 APERTURE END LIST*
D10*
X52150000Y-63002000D03*
X57150000Y-60902000D03*
G04 #@! TA.AperFunction,ComponentPad*
G36*
G01*
X60854777Y-61661560D02*
X62063701Y-63559190D01*
G75*
G02*
X61681087Y-65285054I-1054239J-671625D01*
G01*
X61681087Y-65285054D01*
G75*
G02*
X59955223Y-64902440I-671625J1054239D01*
G01*
X58746299Y-63004810D01*
G75*
G02*
X59128913Y-61278946I1054239J671625D01*
G01*
X59128913Y-61278946D01*
G75*
G02*
X60854777Y-61661560I671625J-1054239D01*
G01*
G37*
G04 #@! TD.AperFunction*
G04 #@! TA.AperFunction,ComponentPad*
G36*
G01*
X55857381Y-61637653D02*
X55896829Y-62216309D01*
G75*
G02*
X54734743Y-63548433I-1247105J-85019D01*
G01*
X54734743Y-63548433D01*
G75*
G02*
X53402619Y-62386347I-85019J1247105D01*
G01*
X53363171Y-61807691D01*
G75*
G02*
X54525257Y-60475567I1247105J85019D01*
G01*
X54525257Y-60475567D01*
G75*
G02*
X55857381Y-61637653I85019J-1247105D01*
G01*
G37*
G04 #@! TD.AperFunction*
D11*
X294386000Y-71030000D03*
D12*
X294386000Y-78830000D03*
D11*
X275590000Y-66966000D03*
D12*
X275590000Y-74766000D03*
D11*
X256540000Y-63156000D03*
D12*
X256540000Y-70956000D03*
D11*
X237490000Y-59092000D03*
D12*
X237490000Y-66892000D03*
D11*
X218694000Y-62902000D03*
D12*
X218694000Y-70702000D03*
D11*
X184404000Y-66712000D03*
D12*
X184404000Y-74512000D03*
D11*
X137922000Y-66966000D03*
D12*
X137922000Y-74766000D03*
D11*
X103886000Y-63156000D03*
D12*
X103886000Y-70956000D03*
D11*
X84836000Y-59092000D03*
D12*
X84836000Y-66892000D03*
D11*
X65786000Y-62902000D03*
D12*
X65786000Y-70702000D03*
D11*
X294640000Y-90080000D03*
D12*
X294640000Y-97880000D03*
D11*
X275590000Y-86016000D03*
D12*
X275590000Y-93816000D03*
D11*
X256540000Y-82206000D03*
D12*
X256540000Y-90006000D03*
D11*
X237490000Y-78142000D03*
D12*
X237490000Y-85942000D03*
D11*
X218694000Y-81952000D03*
D12*
X218694000Y-89752000D03*
D11*
X199644000Y-86016000D03*
D12*
X199644000Y-93816000D03*
D11*
X122936000Y-85762000D03*
D12*
X122936000Y-93562000D03*
D11*
X103886000Y-82206000D03*
D12*
X103886000Y-90006000D03*
D11*
X84836000Y-77888000D03*
D12*
X84836000Y-85688000D03*
D11*
X65786000Y-81952000D03*
D12*
X65786000Y-89752000D03*
D11*
X294640000Y-109130000D03*
D12*
X294640000Y-116930000D03*
D11*
X275590000Y-105066000D03*
D12*
X275590000Y-112866000D03*
D11*
X256540000Y-101256000D03*
D12*
X256540000Y-109056000D03*
D11*
X237490000Y-96938000D03*
D12*
X237490000Y-104738000D03*
D11*
X218694000Y-101002000D03*
D12*
X218694000Y-108802000D03*
D11*
X199644000Y-105066000D03*
D12*
X199644000Y-112866000D03*
D11*
X122936000Y-105066000D03*
D12*
X122936000Y-112866000D03*
D11*
X103886000Y-101002000D03*
D12*
X103886000Y-108802000D03*
D11*
X84836000Y-96938000D03*
D12*
X84836000Y-104738000D03*
D11*
X65786000Y-101002000D03*
D12*
X65786000Y-108802000D03*
D11*
X218694000Y-120052000D03*
D12*
X218694000Y-127852000D03*
D11*
X184404000Y-124116000D03*
D12*
X184404000Y-131916000D03*
D11*
X184404000Y-142912000D03*
D12*
X184404000Y-150712000D03*
D11*
X137922000Y-143166000D03*
D12*
X137922000Y-150966000D03*
D11*
X137922000Y-124116000D03*
D12*
X137922000Y-131916000D03*
D11*
X103886000Y-120052000D03*
D12*
X103886000Y-127852000D03*
D11*
X46736000Y-66966000D03*
D12*
X46736000Y-74766000D03*
D11*
X27940000Y-71030000D03*
D12*
X27940000Y-78830000D03*
D11*
X46736000Y-81698000D03*
D12*
X46736000Y-89498000D03*
D11*
X27940000Y-90080000D03*
D12*
X27940000Y-97880000D03*
D11*
X46736000Y-105066000D03*
D12*
X46736000Y-112866000D03*
D11*
X27940000Y-108622000D03*
D12*
X27940000Y-116422000D03*
D13*
X168620000Y-65530000D03*
D14*
X168620000Y-68070000D03*
X168620000Y-70610000D03*
X168620000Y-73150000D03*
X168620000Y-75690000D03*
X168620000Y-78230000D03*
X168620000Y-80770000D03*
X168620000Y-83310000D03*
X168620000Y-85850000D03*
X168620000Y-88390000D03*
X168620000Y-90930000D03*
X153380000Y-93470000D03*
X153380000Y-90930000D03*
X153380000Y-88390000D03*
X153380000Y-85850000D03*
X153380000Y-83310000D03*
X153380000Y-80770000D03*
X153380000Y-78230000D03*
X153380000Y-75690000D03*
X153380000Y-73150000D03*
X153380000Y-70610000D03*
X153380000Y-68070000D03*
X168391400Y-93470000D03*
X153380000Y-65530000D03*
X155920000Y-93470000D03*
X158460000Y-93470000D03*
X161000000Y-93470000D03*
X163540000Y-93470000D03*
X166080000Y-93470000D03*
D15*
X170398000Y-65530000D03*
X170398000Y-68070000D03*
X170398000Y-70610000D03*
X170398000Y-73150000D03*
X170398000Y-75690000D03*
X170398000Y-78230000D03*
X170398000Y-80770000D03*
X170398000Y-83310000D03*
X170398000Y-85850000D03*
X170398000Y-88390000D03*
X170398000Y-90930000D03*
X170398000Y-93470000D03*
X151602000Y-93470000D03*
X151602000Y-90930000D03*
X151602000Y-88390000D03*
X151602000Y-85850000D03*
X151602000Y-83310000D03*
X151602000Y-80770000D03*
X151602000Y-78230000D03*
X151602000Y-75690000D03*
X151602000Y-73150000D03*
X151602000Y-70610000D03*
X151602000Y-68070000D03*
X151602000Y-65530000D03*
D16*
X166080000Y-95375000D03*
X163540000Y-95375000D03*
X161000000Y-95375000D03*
X158460000Y-95375000D03*
X155920000Y-95375000D03*
G04 #@! TA.AperFunction,ComponentPad*
G36*
G01*
X301729381Y-69765653D02*
X301768829Y-70344309D01*
G75*
G02*
X300606743Y-71676433I-1247105J-85019D01*
G01*
X300606743Y-71676433D01*
G75*
G02*
X299274619Y-70514347I-85019J1247105D01*
G01*
X299235171Y-69935691D01*
G75*
G02*
X300397257Y-68603567I1247105J85019D01*
G01*
X300397257Y-68603567D01*
G75*
G02*
X301729381Y-69765653I85019J-1247105D01*
G01*
G37*
G04 #@! TD.AperFunction*
G04 #@! TA.AperFunction,ComponentPad*
G36*
G01*
X306726777Y-69789560D02*
X307935701Y-71687190D01*
G75*
G02*
X307553087Y-73413054I-1054239J-671625D01*
G01*
X307553087Y-73413054D01*
G75*
G02*
X305827223Y-73030440I-671625J1054239D01*
G01*
X304618299Y-71132810D01*
G75*
G02*
X305000913Y-69406946I1054239J671625D01*
G01*
X305000913Y-69406946D01*
G75*
G02*
X306726777Y-69789560I671625J-1054239D01*
G01*
G37*
G04 #@! TD.AperFunction*
D10*
X303022000Y-69030000D03*
X298022000Y-71130000D03*
G04 #@! TA.AperFunction,ComponentPad*
G36*
G01*
X282933381Y-65701653D02*
X282972829Y-66280309D01*
G75*
G02*
X281810743Y-67612433I-1247105J-85019D01*
G01*
X281810743Y-67612433D01*
G75*
G02*
X280478619Y-66450347I-85019J1247105D01*
G01*
X280439171Y-65871691D01*
G75*
G02*
X281601257Y-64539567I1247105J85019D01*
G01*
X281601257Y-64539567D01*
G75*
G02*
X282933381Y-65701653I85019J-1247105D01*
G01*
G37*
G04 #@! TD.AperFunction*
G04 #@! TA.AperFunction,ComponentPad*
G36*
G01*
X287930777Y-65725560D02*
X289139701Y-67623190D01*
G75*
G02*
X288757087Y-69349054I-1054239J-671625D01*
G01*
X288757087Y-69349054D01*
G75*
G02*
X287031223Y-68966440I-671625J1054239D01*
G01*
X285822299Y-67068810D01*
G75*
G02*
X286204913Y-65342946I1054239J671625D01*
G01*
X286204913Y-65342946D01*
G75*
G02*
X287930777Y-65725560I671625J-1054239D01*
G01*
G37*
G04 #@! TD.AperFunction*
X284226000Y-64966000D03*
X279226000Y-67066000D03*
X260176000Y-63256000D03*
X265176000Y-61156000D03*
G04 #@! TA.AperFunction,ComponentPad*
G36*
G01*
X268880777Y-61915560D02*
X270089701Y-63813190D01*
G75*
G02*
X269707087Y-65539054I-1054239J-671625D01*
G01*
X269707087Y-65539054D01*
G75*
G02*
X267981223Y-65156440I-671625J1054239D01*
G01*
X266772299Y-63258810D01*
G75*
G02*
X267154913Y-61532946I1054239J671625D01*
G01*
X267154913Y-61532946D01*
G75*
G02*
X268880777Y-61915560I671625J-1054239D01*
G01*
G37*
G04 #@! TD.AperFunction*
G04 #@! TA.AperFunction,ComponentPad*
G36*
G01*
X263883381Y-61891653D02*
X263922829Y-62470309D01*
G75*
G02*
X262760743Y-63802433I-1247105J-85019D01*
G01*
X262760743Y-63802433D01*
G75*
G02*
X261428619Y-62640347I-85019J1247105D01*
G01*
X261389171Y-62061691D01*
G75*
G02*
X262551257Y-60729567I1247105J85019D01*
G01*
X262551257Y-60729567D01*
G75*
G02*
X263883381Y-61891653I85019J-1247105D01*
G01*
G37*
G04 #@! TD.AperFunction*
G04 #@! TA.AperFunction,ComponentPad*
G36*
G01*
X244833381Y-57827653D02*
X244872829Y-58406309D01*
G75*
G02*
X243710743Y-59738433I-1247105J-85019D01*
G01*
X243710743Y-59738433D01*
G75*
G02*
X242378619Y-58576347I-85019J1247105D01*
G01*
X242339171Y-57997691D01*
G75*
G02*
X243501257Y-56665567I1247105J85019D01*
G01*
X243501257Y-56665567D01*
G75*
G02*
X244833381Y-57827653I85019J-1247105D01*
G01*
G37*
G04 #@! TD.AperFunction*
G04 #@! TA.AperFunction,ComponentPad*
G36*
G01*
X249830777Y-57851560D02*
X251039701Y-59749190D01*
G75*
G02*
X250657087Y-61475054I-1054239J-671625D01*
G01*
X250657087Y-61475054D01*
G75*
G02*
X248931223Y-61092440I-671625J1054239D01*
G01*
X247722299Y-59194810D01*
G75*
G02*
X248104913Y-57468946I1054239J671625D01*
G01*
X248104913Y-57468946D01*
G75*
G02*
X249830777Y-57851560I671625J-1054239D01*
G01*
G37*
G04 #@! TD.AperFunction*
X246126000Y-57092000D03*
X241126000Y-59192000D03*
X222330000Y-63002000D03*
X227330000Y-60902000D03*
G04 #@! TA.AperFunction,ComponentPad*
G36*
G01*
X231034777Y-61661560D02*
X232243701Y-63559190D01*
G75*
G02*
X231861087Y-65285054I-1054239J-671625D01*
G01*
X231861087Y-65285054D01*
G75*
G02*
X230135223Y-64902440I-671625J1054239D01*
G01*
X228926299Y-63004810D01*
G75*
G02*
X229308913Y-61278946I1054239J671625D01*
G01*
X229308913Y-61278946D01*
G75*
G02*
X231034777Y-61661560I671625J-1054239D01*
G01*
G37*
G04 #@! TD.AperFunction*
G04 #@! TA.AperFunction,ComponentPad*
G36*
G01*
X226037381Y-61637653D02*
X226076829Y-62216309D01*
G75*
G02*
X224914743Y-63548433I-1247105J-85019D01*
G01*
X224914743Y-63548433D01*
G75*
G02*
X223582619Y-62386347I-85019J1247105D01*
G01*
X223543171Y-61807691D01*
G75*
G02*
X224705257Y-60475567I1247105J85019D01*
G01*
X224705257Y-60475567D01*
G75*
G02*
X226037381Y-61637653I85019J-1247105D01*
G01*
G37*
G04 #@! TD.AperFunction*
G04 #@! TA.AperFunction,ComponentPad*
G36*
G01*
X206987381Y-65701653D02*
X207026829Y-66280309D01*
G75*
G02*
X205864743Y-67612433I-1247105J-85019D01*
G01*
X205864743Y-67612433D01*
G75*
G02*
X204532619Y-66450347I-85019J1247105D01*
G01*
X204493171Y-65871691D01*
G75*
G02*
X205655257Y-64539567I1247105J85019D01*
G01*
X205655257Y-64539567D01*
G75*
G02*
X206987381Y-65701653I85019J-1247105D01*
G01*
G37*
G04 #@! TD.AperFunction*
G04 #@! TA.AperFunction,ComponentPad*
G36*
G01*
X211984777Y-65725560D02*
X213193701Y-67623190D01*
G75*
G02*
X212811087Y-69349054I-1054239J-671625D01*
G01*
X212811087Y-69349054D01*
G75*
G02*
X211085223Y-68966440I-671625J1054239D01*
G01*
X209876299Y-67068810D01*
G75*
G02*
X210258913Y-65342946I1054239J671625D01*
G01*
X210258913Y-65342946D01*
G75*
G02*
X211984777Y-65725560I671625J-1054239D01*
G01*
G37*
G04 #@! TD.AperFunction*
X208280000Y-64966000D03*
X203280000Y-67066000D03*
X109300000Y-67066000D03*
X114300000Y-64966000D03*
G04 #@! TA.AperFunction,ComponentPad*
G36*
G01*
X118004777Y-65725560D02*
X119213701Y-67623190D01*
G75*
G02*
X118831087Y-69349054I-1054239J-671625D01*
G01*
X118831087Y-69349054D01*
G75*
G02*
X117105223Y-68966440I-671625J1054239D01*
G01*
X115896299Y-67068810D01*
G75*
G02*
X116278913Y-65342946I1054239J671625D01*
G01*
X116278913Y-65342946D01*
G75*
G02*
X118004777Y-65725560I671625J-1054239D01*
G01*
G37*
G04 #@! TD.AperFunction*
G04 #@! TA.AperFunction,ComponentPad*
G36*
G01*
X113007381Y-65701653D02*
X113046829Y-66280309D01*
G75*
G02*
X111884743Y-67612433I-1247105J-85019D01*
G01*
X111884743Y-67612433D01*
G75*
G02*
X110552619Y-66450347I-85019J1247105D01*
G01*
X110513171Y-65871691D01*
G75*
G02*
X111675257Y-64539567I1247105J85019D01*
G01*
X111675257Y-64539567D01*
G75*
G02*
X113007381Y-65701653I85019J-1247105D01*
G01*
G37*
G04 #@! TD.AperFunction*
X90250000Y-63129000D03*
X95250000Y-61029000D03*
G04 #@! TA.AperFunction,ComponentPad*
G36*
G01*
X98954777Y-61788560D02*
X100163701Y-63686190D01*
G75*
G02*
X99781087Y-65412054I-1054239J-671625D01*
G01*
X99781087Y-65412054D01*
G75*
G02*
X98055223Y-65029440I-671625J1054239D01*
G01*
X96846299Y-63131810D01*
G75*
G02*
X97228913Y-61405946I1054239J671625D01*
G01*
X97228913Y-61405946D01*
G75*
G02*
X98954777Y-61788560I671625J-1054239D01*
G01*
G37*
G04 #@! TD.AperFunction*
G04 #@! TA.AperFunction,ComponentPad*
G36*
G01*
X93957381Y-61764653D02*
X93996829Y-62343309D01*
G75*
G02*
X92834743Y-63675433I-1247105J-85019D01*
G01*
X92834743Y-63675433D01*
G75*
G02*
X91502619Y-62513347I-85019J1247105D01*
G01*
X91463171Y-61934691D01*
G75*
G02*
X92625257Y-60602567I1247105J85019D01*
G01*
X92625257Y-60602567D01*
G75*
G02*
X93957381Y-61764653I85019J-1247105D01*
G01*
G37*
G04 #@! TD.AperFunction*
G04 #@! TA.AperFunction,ComponentPad*
G36*
G01*
X74907381Y-57827653D02*
X74946829Y-58406309D01*
G75*
G02*
X73784743Y-59738433I-1247105J-85019D01*
G01*
X73784743Y-59738433D01*
G75*
G02*
X72452619Y-58576347I-85019J1247105D01*
G01*
X72413171Y-57997691D01*
G75*
G02*
X73575257Y-56665567I1247105J85019D01*
G01*
X73575257Y-56665567D01*
G75*
G02*
X74907381Y-57827653I85019J-1247105D01*
G01*
G37*
G04 #@! TD.AperFunction*
G04 #@! TA.AperFunction,ComponentPad*
G36*
G01*
X79904777Y-57851560D02*
X81113701Y-59749190D01*
G75*
G02*
X80731087Y-61475054I-1054239J-671625D01*
G01*
X80731087Y-61475054D01*
G75*
G02*
X79005223Y-61092440I-671625J1054239D01*
G01*
X77796299Y-59194810D01*
G75*
G02*
X78178913Y-57468946I1054239J671625D01*
G01*
X78178913Y-57468946D01*
G75*
G02*
X79904777Y-57851560I671625J-1054239D01*
G01*
G37*
G04 #@! TD.AperFunction*
X76200000Y-57092000D03*
X71200000Y-59192000D03*
X298276000Y-90180000D03*
X303276000Y-88080000D03*
G04 #@! TA.AperFunction,ComponentPad*
G36*
G01*
X306980777Y-88839560D02*
X308189701Y-90737190D01*
G75*
G02*
X307807087Y-92463054I-1054239J-671625D01*
G01*
X307807087Y-92463054D01*
G75*
G02*
X306081223Y-92080440I-671625J1054239D01*
G01*
X304872299Y-90182810D01*
G75*
G02*
X305254913Y-88456946I1054239J671625D01*
G01*
X305254913Y-88456946D01*
G75*
G02*
X306980777Y-88839560I671625J-1054239D01*
G01*
G37*
G04 #@! TD.AperFunction*
G04 #@! TA.AperFunction,ComponentPad*
G36*
G01*
X301983381Y-88815653D02*
X302022829Y-89394309D01*
G75*
G02*
X300860743Y-90726433I-1247105J-85019D01*
G01*
X300860743Y-90726433D01*
G75*
G02*
X299528619Y-89564347I-85019J1247105D01*
G01*
X299489171Y-88985691D01*
G75*
G02*
X300651257Y-87653567I1247105J85019D01*
G01*
X300651257Y-87653567D01*
G75*
G02*
X301983381Y-88815653I85019J-1247105D01*
G01*
G37*
G04 #@! TD.AperFunction*
G04 #@! TA.AperFunction,ComponentPad*
G36*
G01*
X282933381Y-84751653D02*
X282972829Y-85330309D01*
G75*
G02*
X281810743Y-86662433I-1247105J-85019D01*
G01*
X281810743Y-86662433D01*
G75*
G02*
X280478619Y-85500347I-85019J1247105D01*
G01*
X280439171Y-84921691D01*
G75*
G02*
X281601257Y-83589567I1247105J85019D01*
G01*
X281601257Y-83589567D01*
G75*
G02*
X282933381Y-84751653I85019J-1247105D01*
G01*
G37*
G04 #@! TD.AperFunction*
G04 #@! TA.AperFunction,ComponentPad*
G36*
G01*
X287930777Y-84775560D02*
X289139701Y-86673190D01*
G75*
G02*
X288757087Y-88399054I-1054239J-671625D01*
G01*
X288757087Y-88399054D01*
G75*
G02*
X287031223Y-88016440I-671625J1054239D01*
G01*
X285822299Y-86118810D01*
G75*
G02*
X286204913Y-84392946I1054239J671625D01*
G01*
X286204913Y-84392946D01*
G75*
G02*
X287930777Y-84775560I671625J-1054239D01*
G01*
G37*
G04 #@! TD.AperFunction*
X284226000Y-84016000D03*
X279226000Y-86116000D03*
X260176000Y-82306000D03*
X265176000Y-80206000D03*
G04 #@! TA.AperFunction,ComponentPad*
G36*
G01*
X268880777Y-80965560D02*
X270089701Y-82863190D01*
G75*
G02*
X269707087Y-84589054I-1054239J-671625D01*
G01*
X269707087Y-84589054D01*
G75*
G02*
X267981223Y-84206440I-671625J1054239D01*
G01*
X266772299Y-82308810D01*
G75*
G02*
X267154913Y-80582946I1054239J671625D01*
G01*
X267154913Y-80582946D01*
G75*
G02*
X268880777Y-80965560I671625J-1054239D01*
G01*
G37*
G04 #@! TD.AperFunction*
G04 #@! TA.AperFunction,ComponentPad*
G36*
G01*
X263883381Y-80941653D02*
X263922829Y-81520309D01*
G75*
G02*
X262760743Y-82852433I-1247105J-85019D01*
G01*
X262760743Y-82852433D01*
G75*
G02*
X261428619Y-81690347I-85019J1247105D01*
G01*
X261389171Y-81111691D01*
G75*
G02*
X262551257Y-79779567I1247105J85019D01*
G01*
X262551257Y-79779567D01*
G75*
G02*
X263883381Y-80941653I85019J-1247105D01*
G01*
G37*
G04 #@! TD.AperFunction*
G04 #@! TA.AperFunction,ComponentPad*
G36*
G01*
X244833381Y-76877653D02*
X244872829Y-77456309D01*
G75*
G02*
X243710743Y-78788433I-1247105J-85019D01*
G01*
X243710743Y-78788433D01*
G75*
G02*
X242378619Y-77626347I-85019J1247105D01*
G01*
X242339171Y-77047691D01*
G75*
G02*
X243501257Y-75715567I1247105J85019D01*
G01*
X243501257Y-75715567D01*
G75*
G02*
X244833381Y-76877653I85019J-1247105D01*
G01*
G37*
G04 #@! TD.AperFunction*
G04 #@! TA.AperFunction,ComponentPad*
G36*
G01*
X249830777Y-76901560D02*
X251039701Y-78799190D01*
G75*
G02*
X250657087Y-80525054I-1054239J-671625D01*
G01*
X250657087Y-80525054D01*
G75*
G02*
X248931223Y-80142440I-671625J1054239D01*
G01*
X247722299Y-78244810D01*
G75*
G02*
X248104913Y-76518946I1054239J671625D01*
G01*
X248104913Y-76518946D01*
G75*
G02*
X249830777Y-76901560I671625J-1054239D01*
G01*
G37*
G04 #@! TD.AperFunction*
X246126000Y-76142000D03*
X241126000Y-78242000D03*
X222330000Y-82052000D03*
X227330000Y-79952000D03*
G04 #@! TA.AperFunction,ComponentPad*
G36*
G01*
X231034777Y-80711560D02*
X232243701Y-82609190D01*
G75*
G02*
X231861087Y-84335054I-1054239J-671625D01*
G01*
X231861087Y-84335054D01*
G75*
G02*
X230135223Y-83952440I-671625J1054239D01*
G01*
X228926299Y-82054810D01*
G75*
G02*
X229308913Y-80328946I1054239J671625D01*
G01*
X229308913Y-80328946D01*
G75*
G02*
X231034777Y-80711560I671625J-1054239D01*
G01*
G37*
G04 #@! TD.AperFunction*
G04 #@! TA.AperFunction,ComponentPad*
G36*
G01*
X226037381Y-80687653D02*
X226076829Y-81266309D01*
G75*
G02*
X224914743Y-82598433I-1247105J-85019D01*
G01*
X224914743Y-82598433D01*
G75*
G02*
X223582619Y-81436347I-85019J1247105D01*
G01*
X223543171Y-80857691D01*
G75*
G02*
X224705257Y-79525567I1247105J85019D01*
G01*
X224705257Y-79525567D01*
G75*
G02*
X226037381Y-80687653I85019J-1247105D01*
G01*
G37*
G04 #@! TD.AperFunction*
G04 #@! TA.AperFunction,ComponentPad*
G36*
G01*
X206987381Y-84751653D02*
X207026829Y-85330309D01*
G75*
G02*
X205864743Y-86662433I-1247105J-85019D01*
G01*
X205864743Y-86662433D01*
G75*
G02*
X204532619Y-85500347I-85019J1247105D01*
G01*
X204493171Y-84921691D01*
G75*
G02*
X205655257Y-83589567I1247105J85019D01*
G01*
X205655257Y-83589567D01*
G75*
G02*
X206987381Y-84751653I85019J-1247105D01*
G01*
G37*
G04 #@! TD.AperFunction*
G04 #@! TA.AperFunction,ComponentPad*
G36*
G01*
X211984777Y-84775560D02*
X213193701Y-86673190D01*
G75*
G02*
X212811087Y-88399054I-1054239J-671625D01*
G01*
X212811087Y-88399054D01*
G75*
G02*
X211085223Y-88016440I-671625J1054239D01*
G01*
X209876299Y-86118810D01*
G75*
G02*
X210258913Y-84392946I1054239J671625D01*
G01*
X210258913Y-84392946D01*
G75*
G02*
X211984777Y-84775560I671625J-1054239D01*
G01*
G37*
G04 #@! TD.AperFunction*
X208280000Y-84016000D03*
X203280000Y-86116000D03*
X109300000Y-86116000D03*
X114300000Y-84016000D03*
G04 #@! TA.AperFunction,ComponentPad*
G36*
G01*
X118004777Y-84775560D02*
X119213701Y-86673190D01*
G75*
G02*
X118831087Y-88399054I-1054239J-671625D01*
G01*
X118831087Y-88399054D01*
G75*
G02*
X117105223Y-88016440I-671625J1054239D01*
G01*
X115896299Y-86118810D01*
G75*
G02*
X116278913Y-84392946I1054239J671625D01*
G01*
X116278913Y-84392946D01*
G75*
G02*
X118004777Y-84775560I671625J-1054239D01*
G01*
G37*
G04 #@! TD.AperFunction*
G04 #@! TA.AperFunction,ComponentPad*
G36*
G01*
X113007381Y-84751653D02*
X113046829Y-85330309D01*
G75*
G02*
X111884743Y-86662433I-1247105J-85019D01*
G01*
X111884743Y-86662433D01*
G75*
G02*
X110552619Y-85500347I-85019J1247105D01*
G01*
X110513171Y-84921691D01*
G75*
G02*
X111675257Y-83589567I1247105J85019D01*
G01*
X111675257Y-83589567D01*
G75*
G02*
X113007381Y-84751653I85019J-1247105D01*
G01*
G37*
G04 #@! TD.AperFunction*
G04 #@! TA.AperFunction,ComponentPad*
G36*
G01*
X93830381Y-80687653D02*
X93869829Y-81266309D01*
G75*
G02*
X92707743Y-82598433I-1247105J-85019D01*
G01*
X92707743Y-82598433D01*
G75*
G02*
X91375619Y-81436347I-85019J1247105D01*
G01*
X91336171Y-80857691D01*
G75*
G02*
X92498257Y-79525567I1247105J85019D01*
G01*
X92498257Y-79525567D01*
G75*
G02*
X93830381Y-80687653I85019J-1247105D01*
G01*
G37*
G04 #@! TD.AperFunction*
G04 #@! TA.AperFunction,ComponentPad*
G36*
G01*
X98827777Y-80711560D02*
X100036701Y-82609190D01*
G75*
G02*
X99654087Y-84335054I-1054239J-671625D01*
G01*
X99654087Y-84335054D01*
G75*
G02*
X97928223Y-83952440I-671625J1054239D01*
G01*
X96719299Y-82054810D01*
G75*
G02*
X97101913Y-80328946I1054239J671625D01*
G01*
X97101913Y-80328946D01*
G75*
G02*
X98827777Y-80711560I671625J-1054239D01*
G01*
G37*
G04 #@! TD.AperFunction*
X95123000Y-79952000D03*
X90123000Y-82052000D03*
X71200000Y-77988000D03*
X76200000Y-75888000D03*
G04 #@! TA.AperFunction,ComponentPad*
G36*
G01*
X79904777Y-76647560D02*
X81113701Y-78545190D01*
G75*
G02*
X80731087Y-80271054I-1054239J-671625D01*
G01*
X80731087Y-80271054D01*
G75*
G02*
X79005223Y-79888440I-671625J1054239D01*
G01*
X77796299Y-77990810D01*
G75*
G02*
X78178913Y-76264946I1054239J671625D01*
G01*
X78178913Y-76264946D01*
G75*
G02*
X79904777Y-76647560I671625J-1054239D01*
G01*
G37*
G04 #@! TD.AperFunction*
G04 #@! TA.AperFunction,ComponentPad*
G36*
G01*
X74907381Y-76623653D02*
X74946829Y-77202309D01*
G75*
G02*
X73784743Y-78534433I-1247105J-85019D01*
G01*
X73784743Y-78534433D01*
G75*
G02*
X72452619Y-77372347I-85019J1247105D01*
G01*
X72413171Y-76793691D01*
G75*
G02*
X73575257Y-75461567I1247105J85019D01*
G01*
X73575257Y-75461567D01*
G75*
G02*
X74907381Y-76623653I85019J-1247105D01*
G01*
G37*
G04 #@! TD.AperFunction*
G04 #@! TA.AperFunction,ComponentPad*
G36*
G01*
X55857381Y-80687653D02*
X55896829Y-81266309D01*
G75*
G02*
X54734743Y-82598433I-1247105J-85019D01*
G01*
X54734743Y-82598433D01*
G75*
G02*
X53402619Y-81436347I-85019J1247105D01*
G01*
X53363171Y-80857691D01*
G75*
G02*
X54525257Y-79525567I1247105J85019D01*
G01*
X54525257Y-79525567D01*
G75*
G02*
X55857381Y-80687653I85019J-1247105D01*
G01*
G37*
G04 #@! TD.AperFunction*
G04 #@! TA.AperFunction,ComponentPad*
G36*
G01*
X60854777Y-80711560D02*
X62063701Y-82609190D01*
G75*
G02*
X61681087Y-84335054I-1054239J-671625D01*
G01*
X61681087Y-84335054D01*
G75*
G02*
X59955223Y-83952440I-671625J1054239D01*
G01*
X58746299Y-82054810D01*
G75*
G02*
X59128913Y-80328946I1054239J671625D01*
G01*
X59128913Y-80328946D01*
G75*
G02*
X60854777Y-80711560I671625J-1054239D01*
G01*
G37*
G04 #@! TD.AperFunction*
X57150000Y-79952000D03*
X52150000Y-82052000D03*
X298276000Y-109230000D03*
X303276000Y-107130000D03*
G04 #@! TA.AperFunction,ComponentPad*
G36*
G01*
X306980777Y-107889560D02*
X308189701Y-109787190D01*
G75*
G02*
X307807087Y-111513054I-1054239J-671625D01*
G01*
X307807087Y-111513054D01*
G75*
G02*
X306081223Y-111130440I-671625J1054239D01*
G01*
X304872299Y-109232810D01*
G75*
G02*
X305254913Y-107506946I1054239J671625D01*
G01*
X305254913Y-107506946D01*
G75*
G02*
X306980777Y-107889560I671625J-1054239D01*
G01*
G37*
G04 #@! TD.AperFunction*
G04 #@! TA.AperFunction,ComponentPad*
G36*
G01*
X301983381Y-107865653D02*
X302022829Y-108444309D01*
G75*
G02*
X300860743Y-109776433I-1247105J-85019D01*
G01*
X300860743Y-109776433D01*
G75*
G02*
X299528619Y-108614347I-85019J1247105D01*
G01*
X299489171Y-108035691D01*
G75*
G02*
X300651257Y-106703567I1247105J85019D01*
G01*
X300651257Y-106703567D01*
G75*
G02*
X301983381Y-107865653I85019J-1247105D01*
G01*
G37*
G04 #@! TD.AperFunction*
G04 #@! TA.AperFunction,ComponentPad*
G36*
G01*
X282933381Y-103801653D02*
X282972829Y-104380309D01*
G75*
G02*
X281810743Y-105712433I-1247105J-85019D01*
G01*
X281810743Y-105712433D01*
G75*
G02*
X280478619Y-104550347I-85019J1247105D01*
G01*
X280439171Y-103971691D01*
G75*
G02*
X281601257Y-102639567I1247105J85019D01*
G01*
X281601257Y-102639567D01*
G75*
G02*
X282933381Y-103801653I85019J-1247105D01*
G01*
G37*
G04 #@! TD.AperFunction*
G04 #@! TA.AperFunction,ComponentPad*
G36*
G01*
X287930777Y-103825560D02*
X289139701Y-105723190D01*
G75*
G02*
X288757087Y-107449054I-1054239J-671625D01*
G01*
X288757087Y-107449054D01*
G75*
G02*
X287031223Y-107066440I-671625J1054239D01*
G01*
X285822299Y-105168810D01*
G75*
G02*
X286204913Y-103442946I1054239J671625D01*
G01*
X286204913Y-103442946D01*
G75*
G02*
X287930777Y-103825560I671625J-1054239D01*
G01*
G37*
G04 #@! TD.AperFunction*
X284226000Y-103066000D03*
X279226000Y-105166000D03*
X260176000Y-101356000D03*
X265176000Y-99256000D03*
G04 #@! TA.AperFunction,ComponentPad*
G36*
G01*
X268880777Y-100015560D02*
X270089701Y-101913190D01*
G75*
G02*
X269707087Y-103639054I-1054239J-671625D01*
G01*
X269707087Y-103639054D01*
G75*
G02*
X267981223Y-103256440I-671625J1054239D01*
G01*
X266772299Y-101358810D01*
G75*
G02*
X267154913Y-99632946I1054239J671625D01*
G01*
X267154913Y-99632946D01*
G75*
G02*
X268880777Y-100015560I671625J-1054239D01*
G01*
G37*
G04 #@! TD.AperFunction*
G04 #@! TA.AperFunction,ComponentPad*
G36*
G01*
X263883381Y-99991653D02*
X263922829Y-100570309D01*
G75*
G02*
X262760743Y-101902433I-1247105J-85019D01*
G01*
X262760743Y-101902433D01*
G75*
G02*
X261428619Y-100740347I-85019J1247105D01*
G01*
X261389171Y-100161691D01*
G75*
G02*
X262551257Y-98829567I1247105J85019D01*
G01*
X262551257Y-98829567D01*
G75*
G02*
X263883381Y-99991653I85019J-1247105D01*
G01*
G37*
G04 #@! TD.AperFunction*
G04 #@! TA.AperFunction,ComponentPad*
G36*
G01*
X244833381Y-95673653D02*
X244872829Y-96252309D01*
G75*
G02*
X243710743Y-97584433I-1247105J-85019D01*
G01*
X243710743Y-97584433D01*
G75*
G02*
X242378619Y-96422347I-85019J1247105D01*
G01*
X242339171Y-95843691D01*
G75*
G02*
X243501257Y-94511567I1247105J85019D01*
G01*
X243501257Y-94511567D01*
G75*
G02*
X244833381Y-95673653I85019J-1247105D01*
G01*
G37*
G04 #@! TD.AperFunction*
G04 #@! TA.AperFunction,ComponentPad*
G36*
G01*
X249830777Y-95697560D02*
X251039701Y-97595190D01*
G75*
G02*
X250657087Y-99321054I-1054239J-671625D01*
G01*
X250657087Y-99321054D01*
G75*
G02*
X248931223Y-98938440I-671625J1054239D01*
G01*
X247722299Y-97040810D01*
G75*
G02*
X248104913Y-95314946I1054239J671625D01*
G01*
X248104913Y-95314946D01*
G75*
G02*
X249830777Y-95697560I671625J-1054239D01*
G01*
G37*
G04 #@! TD.AperFunction*
X246126000Y-94938000D03*
X241126000Y-97038000D03*
X222330000Y-101102000D03*
X227330000Y-99002000D03*
G04 #@! TA.AperFunction,ComponentPad*
G36*
G01*
X231034777Y-99761560D02*
X232243701Y-101659190D01*
G75*
G02*
X231861087Y-103385054I-1054239J-671625D01*
G01*
X231861087Y-103385054D01*
G75*
G02*
X230135223Y-103002440I-671625J1054239D01*
G01*
X228926299Y-101104810D01*
G75*
G02*
X229308913Y-99378946I1054239J671625D01*
G01*
X229308913Y-99378946D01*
G75*
G02*
X231034777Y-99761560I671625J-1054239D01*
G01*
G37*
G04 #@! TD.AperFunction*
G04 #@! TA.AperFunction,ComponentPad*
G36*
G01*
X226037381Y-99737653D02*
X226076829Y-100316309D01*
G75*
G02*
X224914743Y-101648433I-1247105J-85019D01*
G01*
X224914743Y-101648433D01*
G75*
G02*
X223582619Y-100486347I-85019J1247105D01*
G01*
X223543171Y-99907691D01*
G75*
G02*
X224705257Y-98575567I1247105J85019D01*
G01*
X224705257Y-98575567D01*
G75*
G02*
X226037381Y-99737653I85019J-1247105D01*
G01*
G37*
G04 #@! TD.AperFunction*
G04 #@! TA.AperFunction,ComponentPad*
G36*
G01*
X206987381Y-103801653D02*
X207026829Y-104380309D01*
G75*
G02*
X205864743Y-105712433I-1247105J-85019D01*
G01*
X205864743Y-105712433D01*
G75*
G02*
X204532619Y-104550347I-85019J1247105D01*
G01*
X204493171Y-103971691D01*
G75*
G02*
X205655257Y-102639567I1247105J85019D01*
G01*
X205655257Y-102639567D01*
G75*
G02*
X206987381Y-103801653I85019J-1247105D01*
G01*
G37*
G04 #@! TD.AperFunction*
G04 #@! TA.AperFunction,ComponentPad*
G36*
G01*
X211984777Y-103825560D02*
X213193701Y-105723190D01*
G75*
G02*
X212811087Y-107449054I-1054239J-671625D01*
G01*
X212811087Y-107449054D01*
G75*
G02*
X211085223Y-107066440I-671625J1054239D01*
G01*
X209876299Y-105168810D01*
G75*
G02*
X210258913Y-103442946I1054239J671625D01*
G01*
X210258913Y-103442946D01*
G75*
G02*
X211984777Y-103825560I671625J-1054239D01*
G01*
G37*
G04 #@! TD.AperFunction*
X208280000Y-103066000D03*
X203280000Y-105166000D03*
G04 #@! TA.AperFunction,ComponentPad*
G36*
G01*
X113007381Y-103801653D02*
X113046829Y-104380309D01*
G75*
G02*
X111884743Y-105712433I-1247105J-85019D01*
G01*
X111884743Y-105712433D01*
G75*
G02*
X110552619Y-104550347I-85019J1247105D01*
G01*
X110513171Y-103971691D01*
G75*
G02*
X111675257Y-102639567I1247105J85019D01*
G01*
X111675257Y-102639567D01*
G75*
G02*
X113007381Y-103801653I85019J-1247105D01*
G01*
G37*
G04 #@! TD.AperFunction*
G04 #@! TA.AperFunction,ComponentPad*
G36*
G01*
X118004777Y-103825560D02*
X119213701Y-105723190D01*
G75*
G02*
X118831087Y-107449054I-1054239J-671625D01*
G01*
X118831087Y-107449054D01*
G75*
G02*
X117105223Y-107066440I-671625J1054239D01*
G01*
X115896299Y-105168810D01*
G75*
G02*
X116278913Y-103442946I1054239J671625D01*
G01*
X116278913Y-103442946D01*
G75*
G02*
X118004777Y-103825560I671625J-1054239D01*
G01*
G37*
G04 #@! TD.AperFunction*
X114300000Y-103066000D03*
X109300000Y-105166000D03*
G04 #@! TA.AperFunction,ComponentPad*
G36*
G01*
X93957381Y-99737653D02*
X93996829Y-100316309D01*
G75*
G02*
X92834743Y-101648433I-1247105J-85019D01*
G01*
X92834743Y-101648433D01*
G75*
G02*
X91502619Y-100486347I-85019J1247105D01*
G01*
X91463171Y-99907691D01*
G75*
G02*
X92625257Y-98575567I1247105J85019D01*
G01*
X92625257Y-98575567D01*
G75*
G02*
X93957381Y-99737653I85019J-1247105D01*
G01*
G37*
G04 #@! TD.AperFunction*
G04 #@! TA.AperFunction,ComponentPad*
G36*
G01*
X98954777Y-99761560D02*
X100163701Y-101659190D01*
G75*
G02*
X99781087Y-103385054I-1054239J-671625D01*
G01*
X99781087Y-103385054D01*
G75*
G02*
X98055223Y-103002440I-671625J1054239D01*
G01*
X96846299Y-101104810D01*
G75*
G02*
X97228913Y-99378946I1054239J671625D01*
G01*
X97228913Y-99378946D01*
G75*
G02*
X98954777Y-99761560I671625J-1054239D01*
G01*
G37*
G04 #@! TD.AperFunction*
X95250000Y-99002000D03*
X90250000Y-101102000D03*
G04 #@! TA.AperFunction,ComponentPad*
G36*
G01*
X74907381Y-95673653D02*
X74946829Y-96252309D01*
G75*
G02*
X73784743Y-97584433I-1247105J-85019D01*
G01*
X73784743Y-97584433D01*
G75*
G02*
X72452619Y-96422347I-85019J1247105D01*
G01*
X72413171Y-95843691D01*
G75*
G02*
X73575257Y-94511567I1247105J85019D01*
G01*
X73575257Y-94511567D01*
G75*
G02*
X74907381Y-95673653I85019J-1247105D01*
G01*
G37*
G04 #@! TD.AperFunction*
G04 #@! TA.AperFunction,ComponentPad*
G36*
G01*
X79904777Y-95697560D02*
X81113701Y-97595190D01*
G75*
G02*
X80731087Y-99321054I-1054239J-671625D01*
G01*
X80731087Y-99321054D01*
G75*
G02*
X79005223Y-98938440I-671625J1054239D01*
G01*
X77796299Y-97040810D01*
G75*
G02*
X78178913Y-95314946I1054239J671625D01*
G01*
X78178913Y-95314946D01*
G75*
G02*
X79904777Y-95697560I671625J-1054239D01*
G01*
G37*
G04 #@! TD.AperFunction*
X76200000Y-94938000D03*
X71200000Y-97038000D03*
X52150000Y-101102000D03*
X57150000Y-99002000D03*
G04 #@! TA.AperFunction,ComponentPad*
G36*
G01*
X60854777Y-99761560D02*
X62063701Y-101659190D01*
G75*
G02*
X61681087Y-103385054I-1054239J-671625D01*
G01*
X61681087Y-103385054D01*
G75*
G02*
X59955223Y-103002440I-671625J1054239D01*
G01*
X58746299Y-101104810D01*
G75*
G02*
X59128913Y-99378946I1054239J671625D01*
G01*
X59128913Y-99378946D01*
G75*
G02*
X60854777Y-99761560I671625J-1054239D01*
G01*
G37*
G04 #@! TD.AperFunction*
G04 #@! TA.AperFunction,ComponentPad*
G36*
G01*
X55857381Y-99737653D02*
X55896829Y-100316309D01*
G75*
G02*
X54734743Y-101648433I-1247105J-85019D01*
G01*
X54734743Y-101648433D01*
G75*
G02*
X53402619Y-100486347I-85019J1247105D01*
G01*
X53363171Y-99907691D01*
G75*
G02*
X54525257Y-98575567I1247105J85019D01*
G01*
X54525257Y-98575567D01*
G75*
G02*
X55857381Y-99737653I85019J-1247105D01*
G01*
G37*
G04 #@! TD.AperFunction*
X222330000Y-120152000D03*
X227330000Y-118052000D03*
G04 #@! TA.AperFunction,ComponentPad*
G36*
G01*
X231034777Y-118811560D02*
X232243701Y-120709190D01*
G75*
G02*
X231861087Y-122435054I-1054239J-671625D01*
G01*
X231861087Y-122435054D01*
G75*
G02*
X230135223Y-122052440I-671625J1054239D01*
G01*
X228926299Y-120154810D01*
G75*
G02*
X229308913Y-118428946I1054239J671625D01*
G01*
X229308913Y-118428946D01*
G75*
G02*
X231034777Y-118811560I671625J-1054239D01*
G01*
G37*
G04 #@! TD.AperFunction*
G04 #@! TA.AperFunction,ComponentPad*
G36*
G01*
X226037381Y-118787653D02*
X226076829Y-119366309D01*
G75*
G02*
X224914743Y-120698433I-1247105J-85019D01*
G01*
X224914743Y-120698433D01*
G75*
G02*
X223582619Y-119536347I-85019J1247105D01*
G01*
X223543171Y-118957691D01*
G75*
G02*
X224705257Y-117625567I1247105J85019D01*
G01*
X224705257Y-117625567D01*
G75*
G02*
X226037381Y-118787653I85019J-1247105D01*
G01*
G37*
G04 #@! TD.AperFunction*
G04 #@! TA.AperFunction,ComponentPad*
G36*
G01*
X206987381Y-122851653D02*
X207026829Y-123430309D01*
G75*
G02*
X205864743Y-124762433I-1247105J-85019D01*
G01*
X205864743Y-124762433D01*
G75*
G02*
X204532619Y-123600347I-85019J1247105D01*
G01*
X204493171Y-123021691D01*
G75*
G02*
X205655257Y-121689567I1247105J85019D01*
G01*
X205655257Y-121689567D01*
G75*
G02*
X206987381Y-122851653I85019J-1247105D01*
G01*
G37*
G04 #@! TD.AperFunction*
G04 #@! TA.AperFunction,ComponentPad*
G36*
G01*
X211984777Y-122875560D02*
X213193701Y-124773190D01*
G75*
G02*
X212811087Y-126499054I-1054239J-671625D01*
G01*
X212811087Y-126499054D01*
G75*
G02*
X211085223Y-126116440I-671625J1054239D01*
G01*
X209876299Y-124218810D01*
G75*
G02*
X210258913Y-122492946I1054239J671625D01*
G01*
X210258913Y-122492946D01*
G75*
G02*
X211984777Y-122875560I671625J-1054239D01*
G01*
G37*
G04 #@! TD.AperFunction*
X208280000Y-122116000D03*
X203280000Y-124216000D03*
X188040000Y-143012000D03*
X193040000Y-140912000D03*
G04 #@! TA.AperFunction,ComponentPad*
G36*
G01*
X196744777Y-141671560D02*
X197953701Y-143569190D01*
G75*
G02*
X197571087Y-145295054I-1054239J-671625D01*
G01*
X197571087Y-145295054D01*
G75*
G02*
X195845223Y-144912440I-671625J1054239D01*
G01*
X194636299Y-143014810D01*
G75*
G02*
X195018913Y-141288946I1054239J671625D01*
G01*
X195018913Y-141288946D01*
G75*
G02*
X196744777Y-141671560I671625J-1054239D01*
G01*
G37*
G04 #@! TD.AperFunction*
G04 #@! TA.AperFunction,ComponentPad*
G36*
G01*
X191747381Y-141647653D02*
X191786829Y-142226309D01*
G75*
G02*
X190624743Y-143558433I-1247105J-85019D01*
G01*
X190624743Y-143558433D01*
G75*
G02*
X189292619Y-142396347I-85019J1247105D01*
G01*
X189253171Y-141817691D01*
G75*
G02*
X190415257Y-140485567I1247105J85019D01*
G01*
X190415257Y-140485567D01*
G75*
G02*
X191747381Y-141647653I85019J-1247105D01*
G01*
G37*
G04 #@! TD.AperFunction*
G04 #@! TA.AperFunction,ComponentPad*
G36*
G01*
X127993381Y-141901653D02*
X128032829Y-142480309D01*
G75*
G02*
X126870743Y-143812433I-1247105J-85019D01*
G01*
X126870743Y-143812433D01*
G75*
G02*
X125538619Y-142650347I-85019J1247105D01*
G01*
X125499171Y-142071691D01*
G75*
G02*
X126661257Y-140739567I1247105J85019D01*
G01*
X126661257Y-140739567D01*
G75*
G02*
X127993381Y-141901653I85019J-1247105D01*
G01*
G37*
G04 #@! TD.AperFunction*
G04 #@! TA.AperFunction,ComponentPad*
G36*
G01*
X132990777Y-141925560D02*
X134199701Y-143823190D01*
G75*
G02*
X133817087Y-145549054I-1054239J-671625D01*
G01*
X133817087Y-145549054D01*
G75*
G02*
X132091223Y-145166440I-671625J1054239D01*
G01*
X130882299Y-143268810D01*
G75*
G02*
X131264913Y-141542946I1054239J671625D01*
G01*
X131264913Y-141542946D01*
G75*
G02*
X132990777Y-141925560I671625J-1054239D01*
G01*
G37*
G04 #@! TD.AperFunction*
X129286000Y-141166000D03*
X124286000Y-143266000D03*
G04 #@! TA.AperFunction,ComponentPad*
G36*
G01*
X113007381Y-122851653D02*
X113046829Y-123430309D01*
G75*
G02*
X111884743Y-124762433I-1247105J-85019D01*
G01*
X111884743Y-124762433D01*
G75*
G02*
X110552619Y-123600347I-85019J1247105D01*
G01*
X110513171Y-123021691D01*
G75*
G02*
X111675257Y-121689567I1247105J85019D01*
G01*
X111675257Y-121689567D01*
G75*
G02*
X113007381Y-122851653I85019J-1247105D01*
G01*
G37*
G04 #@! TD.AperFunction*
G04 #@! TA.AperFunction,ComponentPad*
G36*
G01*
X118004777Y-122875560D02*
X119213701Y-124773190D01*
G75*
G02*
X118831087Y-126499054I-1054239J-671625D01*
G01*
X118831087Y-126499054D01*
G75*
G02*
X117105223Y-126116440I-671625J1054239D01*
G01*
X115896299Y-124218810D01*
G75*
G02*
X116278913Y-122492946I1054239J671625D01*
G01*
X116278913Y-122492946D01*
G75*
G02*
X118004777Y-122875560I671625J-1054239D01*
G01*
G37*
G04 #@! TD.AperFunction*
X114300000Y-122116000D03*
X109300000Y-124216000D03*
G04 #@! TA.AperFunction,ComponentPad*
G36*
G01*
X93830381Y-118787653D02*
X93869829Y-119366309D01*
G75*
G02*
X92707743Y-120698433I-1247105J-85019D01*
G01*
X92707743Y-120698433D01*
G75*
G02*
X91375619Y-119536347I-85019J1247105D01*
G01*
X91336171Y-118957691D01*
G75*
G02*
X92498257Y-117625567I1247105J85019D01*
G01*
X92498257Y-117625567D01*
G75*
G02*
X93830381Y-118787653I85019J-1247105D01*
G01*
G37*
G04 #@! TD.AperFunction*
G04 #@! TA.AperFunction,ComponentPad*
G36*
G01*
X98827777Y-118811560D02*
X100036701Y-120709190D01*
G75*
G02*
X99654087Y-122435054I-1054239J-671625D01*
G01*
X99654087Y-122435054D01*
G75*
G02*
X97928223Y-122052440I-671625J1054239D01*
G01*
X96719299Y-120154810D01*
G75*
G02*
X97101913Y-118428946I1054239J671625D01*
G01*
X97101913Y-118428946D01*
G75*
G02*
X98827777Y-118811560I671625J-1054239D01*
G01*
G37*
G04 #@! TD.AperFunction*
X95123000Y-118052000D03*
X90123000Y-120152000D03*
G04 #@! TA.AperFunction,ComponentPad*
G36*
G01*
X36807381Y-65701653D02*
X36846829Y-66280309D01*
G75*
G02*
X35684743Y-67612433I-1247105J-85019D01*
G01*
X35684743Y-67612433D01*
G75*
G02*
X34352619Y-66450347I-85019J1247105D01*
G01*
X34313171Y-65871691D01*
G75*
G02*
X35475257Y-64539567I1247105J85019D01*
G01*
X35475257Y-64539567D01*
G75*
G02*
X36807381Y-65701653I85019J-1247105D01*
G01*
G37*
G04 #@! TD.AperFunction*
G04 #@! TA.AperFunction,ComponentPad*
G36*
G01*
X41804777Y-65725560D02*
X43013701Y-67623190D01*
G75*
G02*
X42631087Y-69349054I-1054239J-671625D01*
G01*
X42631087Y-69349054D01*
G75*
G02*
X40905223Y-68966440I-671625J1054239D01*
G01*
X39696299Y-67068810D01*
G75*
G02*
X40078913Y-65342946I1054239J671625D01*
G01*
X40078913Y-65342946D01*
G75*
G02*
X41804777Y-65725560I671625J-1054239D01*
G01*
G37*
G04 #@! TD.AperFunction*
X38100000Y-64966000D03*
X33100000Y-67066000D03*
X14304000Y-71130000D03*
X19304000Y-69030000D03*
G04 #@! TA.AperFunction,ComponentPad*
G36*
G01*
X23008777Y-69789560D02*
X24217701Y-71687190D01*
G75*
G02*
X23835087Y-73413054I-1054239J-671625D01*
G01*
X23835087Y-73413054D01*
G75*
G02*
X22109223Y-73030440I-671625J1054239D01*
G01*
X20900299Y-71132810D01*
G75*
G02*
X21282913Y-69406946I1054239J671625D01*
G01*
X21282913Y-69406946D01*
G75*
G02*
X23008777Y-69789560I671625J-1054239D01*
G01*
G37*
G04 #@! TD.AperFunction*
G04 #@! TA.AperFunction,ComponentPad*
G36*
G01*
X18011381Y-69765653D02*
X18050829Y-70344309D01*
G75*
G02*
X16888743Y-71676433I-1247105J-85019D01*
G01*
X16888743Y-71676433D01*
G75*
G02*
X15556619Y-70514347I-85019J1247105D01*
G01*
X15517171Y-69935691D01*
G75*
G02*
X16679257Y-68603567I1247105J85019D01*
G01*
X16679257Y-68603567D01*
G75*
G02*
X18011381Y-69765653I85019J-1247105D01*
G01*
G37*
G04 #@! TD.AperFunction*
X33100000Y-86116000D03*
X38100000Y-84016000D03*
G04 #@! TA.AperFunction,ComponentPad*
G36*
G01*
X41804777Y-84775560D02*
X43013701Y-86673190D01*
G75*
G02*
X42631087Y-88399054I-1054239J-671625D01*
G01*
X42631087Y-88399054D01*
G75*
G02*
X40905223Y-88016440I-671625J1054239D01*
G01*
X39696299Y-86118810D01*
G75*
G02*
X40078913Y-84392946I1054239J671625D01*
G01*
X40078913Y-84392946D01*
G75*
G02*
X41804777Y-84775560I671625J-1054239D01*
G01*
G37*
G04 #@! TD.AperFunction*
G04 #@! TA.AperFunction,ComponentPad*
G36*
G01*
X36807381Y-84751653D02*
X36846829Y-85330309D01*
G75*
G02*
X35684743Y-86662433I-1247105J-85019D01*
G01*
X35684743Y-86662433D01*
G75*
G02*
X34352619Y-85500347I-85019J1247105D01*
G01*
X34313171Y-84921691D01*
G75*
G02*
X35475257Y-83589567I1247105J85019D01*
G01*
X35475257Y-83589567D01*
G75*
G02*
X36807381Y-84751653I85019J-1247105D01*
G01*
G37*
G04 #@! TD.AperFunction*
X14304000Y-90180000D03*
X19304000Y-88080000D03*
G04 #@! TA.AperFunction,ComponentPad*
G36*
G01*
X23008777Y-88839560D02*
X24217701Y-90737190D01*
G75*
G02*
X23835087Y-92463054I-1054239J-671625D01*
G01*
X23835087Y-92463054D01*
G75*
G02*
X22109223Y-92080440I-671625J1054239D01*
G01*
X20900299Y-90182810D01*
G75*
G02*
X21282913Y-88456946I1054239J671625D01*
G01*
X21282913Y-88456946D01*
G75*
G02*
X23008777Y-88839560I671625J-1054239D01*
G01*
G37*
G04 #@! TD.AperFunction*
G04 #@! TA.AperFunction,ComponentPad*
G36*
G01*
X18011381Y-88815653D02*
X18050829Y-89394309D01*
G75*
G02*
X16888743Y-90726433I-1247105J-85019D01*
G01*
X16888743Y-90726433D01*
G75*
G02*
X15556619Y-89564347I-85019J1247105D01*
G01*
X15517171Y-88985691D01*
G75*
G02*
X16679257Y-87653567I1247105J85019D01*
G01*
X16679257Y-87653567D01*
G75*
G02*
X18011381Y-88815653I85019J-1247105D01*
G01*
G37*
G04 #@! TD.AperFunction*
X33100000Y-105166000D03*
X38100000Y-103066000D03*
G04 #@! TA.AperFunction,ComponentPad*
G36*
G01*
X41804777Y-103825560D02*
X43013701Y-105723190D01*
G75*
G02*
X42631087Y-107449054I-1054239J-671625D01*
G01*
X42631087Y-107449054D01*
G75*
G02*
X40905223Y-107066440I-671625J1054239D01*
G01*
X39696299Y-105168810D01*
G75*
G02*
X40078913Y-103442946I1054239J671625D01*
G01*
X40078913Y-103442946D01*
G75*
G02*
X41804777Y-103825560I671625J-1054239D01*
G01*
G37*
G04 #@! TD.AperFunction*
G04 #@! TA.AperFunction,ComponentPad*
G36*
G01*
X36807381Y-103801653D02*
X36846829Y-104380309D01*
G75*
G02*
X35684743Y-105712433I-1247105J-85019D01*
G01*
X35684743Y-105712433D01*
G75*
G02*
X34352619Y-104550347I-85019J1247105D01*
G01*
X34313171Y-103971691D01*
G75*
G02*
X35475257Y-102639567I1247105J85019D01*
G01*
X35475257Y-102639567D01*
G75*
G02*
X36807381Y-103801653I85019J-1247105D01*
G01*
G37*
G04 #@! TD.AperFunction*
X14304000Y-108976000D03*
X19304000Y-106876000D03*
G04 #@! TA.AperFunction,ComponentPad*
G36*
G01*
X23008777Y-107635560D02*
X24217701Y-109533190D01*
G75*
G02*
X23835087Y-111259054I-1054239J-671625D01*
G01*
X23835087Y-111259054D01*
G75*
G02*
X22109223Y-110876440I-671625J1054239D01*
G01*
X20900299Y-108978810D01*
G75*
G02*
X21282913Y-107252946I1054239J671625D01*
G01*
X21282913Y-107252946D01*
G75*
G02*
X23008777Y-107635560I671625J-1054239D01*
G01*
G37*
G04 #@! TD.AperFunction*
G04 #@! TA.AperFunction,ComponentPad*
G36*
G01*
X18011381Y-107611653D02*
X18050829Y-108190309D01*
G75*
G02*
X16888743Y-109522433I-1247105J-85019D01*
G01*
X16888743Y-109522433D01*
G75*
G02*
X15556619Y-108360347I-85019J1247105D01*
G01*
X15517171Y-107781691D01*
G75*
G02*
X16679257Y-106449567I1247105J85019D01*
G01*
X16679257Y-106449567D01*
G75*
G02*
X18011381Y-107611653I85019J-1247105D01*
G01*
G37*
G04 #@! TD.AperFunction*
D17*
X80000000Y-90500000D03*
X200500000Y-98000000D03*
X121500000Y-97500000D03*
X125500000Y-101000000D03*
X194500000Y-101000000D03*
X197500000Y-101000000D03*
X124416000Y-101000000D03*
X127500000Y-101000000D03*
X142500000Y-133500000D03*
X306500000Y-80500000D03*
X287500000Y-80500000D03*
X268500000Y-76500000D03*
X249500000Y-91000000D03*
X230500000Y-95500000D03*
X211500000Y-100000000D03*
X118000000Y-99725000D03*
X99000000Y-95000000D03*
X60500000Y-76500000D03*
X41500000Y-80500000D03*
X23000000Y-80500000D03*
X196000000Y-78500000D03*
X196000000Y-101000000D03*
X126500000Y-101000000D03*
X126740000Y-78740000D03*
D18*
X79605000Y-78518000D02*
X79605000Y-59722000D01*
X79605000Y-97568000D02*
X79605000Y-105767000D01*
X79605000Y-97568000D02*
X79605000Y-91289000D01*
X79605000Y-90105000D02*
X80000000Y-90500000D01*
X79605000Y-91289000D02*
X79605000Y-90105000D01*
X79605000Y-90105000D02*
X79605000Y-78518000D01*
X79605000Y-105767000D02*
X87122000Y-113284000D01*
X90355000Y-113284000D02*
X87284000Y-113284000D01*
X95123000Y-118052000D02*
X90355000Y-113284000D01*
X87122000Y-113284000D02*
X87284000Y-113284000D01*
X153380000Y-83310000D02*
X151602000Y-83310000D01*
X92730000Y-62139000D02*
X93804531Y-61064469D01*
X122000000Y-97500000D02*
X121500000Y-97500000D01*
X125500000Y-101000000D02*
X122000000Y-97500000D01*
X197500000Y-101000000D02*
X200500000Y-98000000D01*
X195225001Y-101725001D02*
X194500000Y-101000000D01*
X196774999Y-101725001D02*
X195225001Y-101725001D01*
X197500000Y-101000000D02*
X196774999Y-101725001D01*
X168391400Y-93470000D02*
X170398000Y-93470000D01*
X151602000Y-90930000D02*
X153380000Y-90930000D01*
X127500000Y-101073002D02*
X127500000Y-101000000D01*
X125057001Y-101725001D02*
X126848001Y-101725001D01*
X126848001Y-101725001D02*
X127500000Y-101073002D01*
X124416000Y-101084000D02*
X125057001Y-101725001D01*
X151130000Y-92710000D02*
X150052370Y-92710000D01*
X151602000Y-93470000D02*
X153380000Y-93470000D01*
X137922000Y-131916000D02*
X137922000Y-131922000D01*
X139500000Y-133500000D02*
X142500000Y-133500000D01*
X137922000Y-131922000D02*
X139500000Y-133500000D01*
X306681000Y-109760000D02*
X306681000Y-90710000D01*
X306681000Y-71914000D02*
X306427000Y-71660000D01*
X306681000Y-90710000D02*
X306681000Y-82701000D01*
X306681000Y-80319000D02*
X306500000Y-80500000D01*
X306681000Y-82701000D02*
X306681000Y-80319000D01*
X306681000Y-80319000D02*
X306681000Y-71914000D01*
X170398000Y-75690000D02*
X168620000Y-75690000D01*
X287631000Y-86646000D02*
X287631000Y-105696000D01*
X287631000Y-86646000D02*
X287631000Y-80518000D01*
X287631000Y-80518000D02*
X287631000Y-80369000D01*
X287631000Y-80369000D02*
X287631000Y-67596000D01*
X168620000Y-78230000D02*
X170398000Y-78230000D01*
X287631000Y-80369000D02*
X287500000Y-80500000D01*
X168620000Y-80770000D02*
X170398000Y-80770000D01*
X268581000Y-101886000D02*
X268581000Y-94996000D01*
X268581000Y-94996000D02*
X268581000Y-82836000D01*
X268581000Y-76581000D02*
X268500000Y-76500000D01*
X268581000Y-82836000D02*
X268581000Y-76581000D01*
X268581000Y-76581000D02*
X268581000Y-63786000D01*
X168620000Y-83310000D02*
X170398000Y-83310000D01*
X249531000Y-78772000D02*
X249531000Y-59722000D01*
X249531000Y-97568000D02*
X249531000Y-92051000D01*
X249531000Y-90969000D02*
X249500000Y-91000000D01*
X249531000Y-90531000D02*
X249531000Y-90969000D01*
X249531000Y-92051000D02*
X249531000Y-90531000D01*
X249531000Y-90531000D02*
X249531000Y-78772000D01*
X249531000Y-100864974D02*
X249531000Y-97568000D01*
X249428000Y-100967974D02*
X249531000Y-100864974D01*
X249428000Y-106934000D02*
X249428000Y-100967974D01*
X246888000Y-109474000D02*
X249428000Y-106934000D01*
X230735000Y-118765000D02*
X240026000Y-109474000D01*
X230735000Y-120682000D02*
X230735000Y-118765000D01*
X240026000Y-109474000D02*
X246888000Y-109474000D01*
X168620000Y-85850000D02*
X170398000Y-85850000D01*
X230735000Y-63532000D02*
X230735000Y-82582000D01*
X230735000Y-95265000D02*
X230500000Y-95500000D01*
X230735000Y-82582000D02*
X230735000Y-95265000D01*
X230735000Y-95265000D02*
X230735000Y-101632000D01*
X230632000Y-110803872D02*
X226060000Y-115375872D01*
X230632000Y-103744177D02*
X230632000Y-110803872D01*
X230735000Y-103641177D02*
X230632000Y-103744177D01*
X230735000Y-101632000D02*
X230735000Y-103641177D01*
X211685000Y-122315000D02*
X218624128Y-115375872D01*
X211685000Y-124746000D02*
X211685000Y-122315000D01*
X226060000Y-115375872D02*
X218624128Y-115375872D01*
X168620000Y-88390000D02*
X170398000Y-88390000D01*
X211685000Y-86646000D02*
X211685000Y-80923000D01*
X211685000Y-80923000D02*
X211685000Y-67596000D01*
X211685000Y-99815000D02*
X211500000Y-100000000D01*
X211685000Y-105696000D02*
X211685000Y-99815000D01*
X211685000Y-99815000D02*
X211685000Y-86646000D01*
X197434983Y-142552017D02*
X196445000Y-143542000D01*
X197434983Y-134797017D02*
X197434983Y-142552017D01*
X200406000Y-120594000D02*
X200406000Y-131826000D01*
X200406000Y-131826000D02*
X197434983Y-134797017D01*
X203906000Y-117094000D02*
X200406000Y-120594000D01*
X209296000Y-117094000D02*
X203906000Y-117094000D01*
X211685000Y-114705000D02*
X209296000Y-117094000D01*
X211685000Y-105696000D02*
X211685000Y-114705000D01*
X153380000Y-88390000D02*
X151602000Y-88390000D01*
X117705000Y-89850666D02*
X117705000Y-86646000D01*
X117705000Y-115927000D02*
X117705000Y-105696000D01*
X122174000Y-120396000D02*
X117705000Y-115927000D01*
X117705000Y-81383000D02*
X117705000Y-67596000D01*
X117705000Y-86646000D02*
X117705000Y-81383000D01*
X117980000Y-99705000D02*
X118000000Y-99725000D01*
X117705000Y-99705000D02*
X117980000Y-99705000D01*
X117705000Y-105696000D02*
X117705000Y-99705000D01*
X117705000Y-99705000D02*
X117705000Y-89850666D01*
X122174000Y-136398000D02*
X122174000Y-120396000D01*
X132691000Y-143796000D02*
X132691000Y-141786823D01*
X124206000Y-138430000D02*
X122174000Y-136398000D01*
X132691000Y-141786823D02*
X129334177Y-138430000D01*
X129334177Y-138430000D02*
X124206000Y-138430000D01*
X98655000Y-82709000D02*
X98528000Y-82582000D01*
X98528000Y-63786000D02*
X98655000Y-63659000D01*
X98528000Y-82582000D02*
X98528000Y-63786000D01*
X98655000Y-101632000D02*
X98655000Y-109323000D01*
X98655000Y-101632000D02*
X98655000Y-94655000D01*
X98655000Y-94655000D02*
X98655000Y-82709000D01*
X98655000Y-109323000D02*
X108712000Y-119380000D01*
X117705000Y-124746000D02*
X117246000Y-124746000D01*
X114300000Y-122116000D02*
X111684000Y-119500000D01*
X111564000Y-119380000D02*
X110880000Y-119380000D01*
X114300000Y-122116000D02*
X111564000Y-119380000D01*
X110880000Y-119380000D02*
X111120000Y-119380000D01*
X108712000Y-119380000D02*
X110880000Y-119380000D01*
X153380000Y-85850000D02*
X151602000Y-85850000D01*
X98655000Y-94655000D02*
X99000000Y-95000000D01*
X60555000Y-82582000D02*
X60555000Y-94488000D01*
X60555000Y-94488000D02*
X60555000Y-101632000D01*
X60555000Y-76445000D02*
X60500000Y-76500000D01*
X60555000Y-63532000D02*
X60555000Y-76445000D01*
X60555000Y-76445000D02*
X60555000Y-82582000D01*
X153380000Y-80770000D02*
X151602000Y-80770000D01*
X41505000Y-89850666D02*
X41505000Y-86646000D01*
X41505000Y-105696000D02*
X41505000Y-89850666D01*
X41505000Y-80367000D02*
X41505000Y-86646000D01*
X41505000Y-80495000D02*
X41500000Y-80500000D01*
X41505000Y-79995000D02*
X41505000Y-80495000D01*
X41505000Y-67596000D02*
X41505000Y-79995000D01*
X41505000Y-79995000D02*
X41505000Y-80367000D01*
X153380000Y-78230000D02*
X151602000Y-78230000D01*
X22709000Y-109506000D02*
X22709000Y-90710000D01*
X22709000Y-83161000D02*
X22709000Y-90710000D01*
X22709000Y-71660000D02*
X22709000Y-80291000D01*
X22709000Y-80291000D02*
X22709000Y-83161000D01*
X23000000Y-80500000D02*
X22791000Y-80291000D01*
X22791000Y-80291000D02*
X22709000Y-80291000D01*
X153380000Y-75690000D02*
X151602000Y-75690000D01*
X168620000Y-68070000D02*
X170398000Y-68070000D01*
X168620000Y-70610000D02*
X170398000Y-70610000D01*
X170398000Y-90930000D02*
X168620000Y-90930000D01*
X196000000Y-101000000D02*
X196000000Y-78500000D01*
X126500000Y-78980000D02*
X126740000Y-78740000D01*
X126500000Y-101000000D02*
X126500000Y-78980000D01*
X168620000Y-73150000D02*
X170398000Y-73150000D01*
X151602000Y-73150000D02*
X153380000Y-73150000D01*
X153380000Y-70610000D02*
X151602000Y-70610000D01*
X151602000Y-68070000D02*
X153380000Y-68070000D01*
X153380000Y-65530000D02*
X151602000Y-65530000D01*
X163540000Y-95375000D02*
X163540000Y-93470000D01*
X168620000Y-65530000D02*
X170398000Y-65530000D01*
X155920000Y-95375000D02*
X155920000Y-93470000D01*
X158460000Y-93470000D02*
X158460000Y-95375000D01*
X161000000Y-93470000D02*
X161000000Y-95375000D01*
X166080000Y-93470000D02*
X166080000Y-95375000D01*
M02*
