M48
; DRILL file {KiCad 5.1.10} date Sun Oct 24 21:55:24 2021
; FORMAT={-:-/ absolute / inch / decimal}
; #@! TF.CreationDate,2021-10-24T21:55:24+02:00
; #@! TF.GenerationSoftware,Kicad,Pcbnew,5.1.10
; #@! TF.FileFunction,Plated,1,2,PTH
FMAT,2
INCH
T1C0.0157
T2C0.0276
T3C0.0430
T4C0.0472
T5C0.0591
%
G90
G05
T1
X0.9055Y-3.1693
X1.6339Y-3.1693
X2.3819Y-3.0118
X3.1496Y-3.563
X3.8976Y-3.7402
X4.6457Y-3.9262
X4.7835Y-3.8386
X4.8983Y-3.9764
X4.9409Y-3.9764
X4.9803Y-3.9764
X4.9898Y-3.1
X5.0197Y-3.9764
X5.6102Y-5.2559
X7.6575Y-3.9764
X7.7165Y-3.0906
X7.7165Y-3.9764
X7.7756Y-3.9764
X7.8937Y-3.8583
X8.3268Y-3.937
X9.0748Y-3.7598
X9.8228Y-3.5827
X10.5709Y-3.0118
X11.3189Y-3.1693
X12.0669Y-3.1693
T2
X1.1Y-2.7965
X1.1Y-3.1035
X1.1Y-3.5465
X1.1Y-3.8535
X1.1Y-4.2765
X1.1Y-4.5835
X1.84Y-2.6365
X1.84Y-2.9435
X1.84Y-3.2165
X1.84Y-3.5235
X1.84Y-4.1365
X1.84Y-4.4435
X2.59Y-2.4765
X2.59Y-2.7835
X2.59Y-3.2265
X2.59Y-3.5335
X2.59Y-3.9765
X2.59Y-4.2835
X3.34Y-2.3265
X3.34Y-2.6335
X3.34Y-3.0665
X3.34Y-3.3735
X3.34Y-3.8165
X3.34Y-4.1235
X4.09Y-2.4865
X4.09Y-2.7935
X4.09Y-3.2365
X4.09Y-3.5435
X4.09Y-3.9765
X4.09Y-4.2835
X4.09Y-4.7265
X4.09Y-5.0335
X4.84Y-3.3765
X4.84Y-3.6835
X4.84Y-4.1365
X4.84Y-4.4435
X5.43Y-2.6365
X5.43Y-2.9435
X5.43Y-4.8865
X5.43Y-5.1935
X5.43Y-5.6365
X5.43Y-5.9435
X7.26Y-2.6265
X7.26Y-2.9335
X7.26Y-4.8865
X7.26Y-5.1935
X7.26Y-5.6265
X7.26Y-5.9335
X7.86Y-3.3865
X7.86Y-3.6935
X7.86Y-4.1365
X7.86Y-4.4435
X8.61Y-2.4765
X8.61Y-2.7835
X8.61Y-3.2265
X8.61Y-3.5335
X8.61Y-3.9765
X8.61Y-4.2835
X8.61Y-4.7265
X8.61Y-5.0335
X9.35Y-2.3265
X9.35Y-2.6335
X9.35Y-3.0765
X9.35Y-3.3835
X9.35Y-3.8165
X9.35Y-4.1235
X10.1Y-2.4865
X10.1Y-2.7935
X10.1Y-3.2365
X10.1Y-3.5435
X10.1Y-3.9865
X10.1Y-4.2935
X10.85Y-2.6365
X10.85Y-2.9435
X10.85Y-3.3865
X10.85Y-3.6935
X10.85Y-4.1365
X10.85Y-4.4435
X11.59Y-2.7965
X11.59Y-3.1035
X11.6Y-3.5465
X11.6Y-3.8535
X11.6Y-4.2965
X11.6Y-4.6035
T3
X6.0386Y-2.5799
X6.0386Y-2.6799
X6.0386Y-2.7799
X6.0386Y-2.8799
X6.0386Y-2.9799
X6.0386Y-3.0799
X6.0386Y-3.1799
X6.0386Y-3.2799
X6.0386Y-3.3799
X6.0386Y-3.4799
X6.0386Y-3.5799
X6.0386Y-3.6799
X6.1386Y-3.6799
X6.2386Y-3.6799
X6.3386Y-3.6799
X6.4386Y-3.6799
X6.5386Y-3.6799
X6.6296Y-3.6799
X6.6386Y-2.5799
X6.6386Y-2.6799
X6.6386Y-2.7799
X6.6386Y-2.8799
X6.6386Y-2.9799
X6.6386Y-3.0799
X6.6386Y-3.1799
X6.6386Y-3.2799
X6.6386Y-3.3799
X6.6386Y-3.4799
X6.6386Y-3.5799
T4
X0.5631Y-2.8004
X0.5631Y-3.5504
X0.5631Y-4.2904
X0.76Y-2.7177
X0.76Y-3.4677
X0.76Y-4.2077
X1.3031Y-2.6404
X1.3031Y-3.3904
X1.3031Y-4.1404
X1.5Y-2.5577
X1.5Y-3.3077
X1.5Y-4.0577
X2.0531Y-2.4804
X2.0531Y-3.2304
X2.0531Y-3.9804
X2.25Y-2.3977
X2.25Y-3.1477
X2.25Y-3.8977
X2.8031Y-2.3304
X2.8031Y-3.0704
X2.8031Y-3.8204
X3.0Y-2.2477
X3.0Y-2.9877
X3.0Y-3.7377
X3.5481Y-3.2304
X3.5481Y-4.7304
X3.5531Y-2.4854
X3.5531Y-3.9804
X3.745Y-3.1477
X3.745Y-4.6477
X3.75Y-2.4027
X3.75Y-3.8977
X4.3031Y-2.6404
X4.3031Y-3.3904
X4.3031Y-4.1404
X4.3031Y-4.8904
X4.5Y-2.5577
X4.5Y-3.3077
X4.5Y-4.0577
X4.5Y-4.8077
X4.8931Y-5.6404
X5.09Y-5.5577
X7.4031Y-5.6304
X7.6Y-5.5477
X8.0031Y-2.6404
X8.0031Y-3.3904
X8.0031Y-4.1404
X8.0031Y-4.8904
X8.2Y-2.5577
X8.2Y-3.3077
X8.2Y-4.0577
X8.2Y-4.8077
X8.7531Y-2.4804
X8.7531Y-3.2304
X8.7531Y-3.9804
X8.7531Y-4.7304
X8.95Y-2.3977
X8.95Y-3.1477
X8.95Y-3.8977
X8.95Y-4.6477
X9.4931Y-2.3304
X9.4931Y-3.0804
X9.4931Y-3.8204
X9.69Y-2.2477
X9.69Y-2.9977
X9.69Y-3.7377
X10.2431Y-2.4904
X10.2431Y-3.2404
X10.2431Y-3.9904
X10.44Y-2.4077
X10.44Y-3.1577
X10.44Y-3.9077
X10.9931Y-2.6404
X10.9931Y-3.3904
X10.9931Y-4.1404
X11.19Y-2.5577
X11.19Y-3.3077
X11.19Y-4.0577
X11.7331Y-2.8004
X11.7431Y-3.5504
X11.7431Y-4.3004
X11.93Y-2.7177
X11.94Y-3.4677
X11.94Y-4.2177
T5
G00X0.6616Y-2.7728
M15
G01X0.66Y-2.75
M16
G05
G00X0.6616Y-3.5228
M15
G01X0.66Y-3.5
M16
G05
G00X0.6616Y-4.2628
M15
G01X0.66Y-4.24
M16
G05
G00X0.9119Y-2.8488
M15
G01X0.8644Y-2.7741
M16
G05
G00X0.9119Y-3.5988
M15
G01X0.8644Y-3.5241
M16
G05
G00X0.9119Y-4.3388
M15
G01X0.8644Y-4.2641
M16
G05
G00X1.4016Y-2.6128
M15
G01X1.4Y-2.59
M16
G05
G00X1.4016Y-3.3628
M15
G01X1.4Y-3.34
M16
G05
G00X1.4016Y-4.1128
M15
G01X1.4Y-4.09
M16
G05
G00X1.6519Y-2.6888
M15
G01X1.6044Y-2.6141
M16
G05
G00X1.6519Y-3.4388
M15
G01X1.6044Y-3.3641
M16
G05
G00X1.6519Y-4.1888
M15
G01X1.6044Y-4.1141
M16
G05
G00X2.1516Y-2.4528
M15
G01X2.15Y-2.43
M16
G05
G00X2.1516Y-3.2028
M15
G01X2.15Y-3.18
M16
G05
G00X2.1516Y-3.9528
M15
G01X2.15Y-3.93
M16
G05
G00X2.4019Y-2.5288
M15
G01X2.3544Y-2.4541
M16
G05
G00X2.4019Y-3.2788
M15
G01X2.3544Y-3.2041
M16
G05
G00X2.4019Y-4.0288
M15
G01X2.3544Y-3.9541
M16
G05
G00X2.9016Y-2.3028
M15
G01X2.9Y-2.28
M16
G05
G00X2.9016Y-3.0428
M15
G01X2.9Y-3.02
M16
G05
G00X2.9016Y-3.7928
M15
G01X2.9Y-3.77
M16
G05
G00X3.1519Y-2.3788
M15
G01X3.1044Y-2.3041
M16
G05
G00X3.1519Y-3.1188
M15
G01X3.1044Y-3.0441
M16
G05
G00X3.1519Y-3.8688
M15
G01X3.1044Y-3.7941
M16
G05
G00X3.6466Y-3.2028
M15
G01X3.645Y-3.18
M16
G05
G00X3.6466Y-4.7028
M15
G01X3.645Y-4.68
M16
G05
G00X3.6516Y-2.4578
M15
G01X3.65Y-2.435
M16
G05
G00X3.6516Y-3.9528
M15
G01X3.65Y-3.93
M16
G05
G00X3.8969Y-3.2788
M15
G01X3.8494Y-3.2041
M16
G05
G00X3.8969Y-4.7788
M15
G01X3.8494Y-4.7041
M16
G05
G00X3.9019Y-2.5338
M15
G01X3.8544Y-2.4591
M16
G05
G00X3.9019Y-4.0288
M15
G01X3.8544Y-3.9541
M16
G05
G00X4.4016Y-2.6128
M15
G01X4.4Y-2.59
M16
G05
G00X4.4016Y-3.3628
M15
G01X4.4Y-3.34
M16
G05
G00X4.4016Y-4.1128
M15
G01X4.4Y-4.09
M16
G05
G00X4.4016Y-4.8628
M15
G01X4.4Y-4.84
M16
G05
G00X4.6519Y-2.6888
M15
G01X4.6044Y-2.6141
M16
G05
G00X4.6519Y-3.4388
M15
G01X4.6044Y-3.3641
M16
G05
G00X4.6519Y-4.1888
M15
G01X4.6044Y-4.1141
M16
G05
G00X4.6519Y-4.9388
M15
G01X4.6044Y-4.8641
M16
G05
G00X4.9916Y-5.6128
M15
G01X4.99Y-5.59
M16
G05
G00X5.2419Y-5.6888
M15
G01X5.1944Y-5.6141
M16
G05
G00X7.5016Y-5.6028
M15
G01X7.5Y-5.58
M16
G05
G00X7.7519Y-5.6788
M15
G01X7.7044Y-5.6041
M16
G05
G00X8.1016Y-2.6128
M15
G01X8.1Y-2.59
M16
G05
G00X8.1016Y-3.3628
M15
G01X8.1Y-3.34
M16
G05
G00X8.1016Y-4.1128
M15
G01X8.1Y-4.09
M16
G05
G00X8.1016Y-4.8628
M15
G01X8.1Y-4.84
M16
G05
G00X8.3519Y-2.6888
M15
G01X8.3044Y-2.6141
M16
G05
G00X8.3519Y-3.4388
M15
G01X8.3044Y-3.3641
M16
G05
G00X8.3519Y-4.1888
M15
G01X8.3044Y-4.1141
M16
G05
G00X8.3519Y-4.9388
M15
G01X8.3044Y-4.8641
M16
G05
G00X8.8516Y-2.4528
M15
G01X8.85Y-2.43
M16
G05
G00X8.8516Y-3.2028
M15
G01X8.85Y-3.18
M16
G05
G00X8.8516Y-3.9528
M15
G01X8.85Y-3.93
M16
G05
G00X8.8516Y-4.7028
M15
G01X8.85Y-4.68
M16
G05
G00X9.1019Y-2.5288
M15
G01X9.0544Y-2.4541
M16
G05
G00X9.1019Y-3.2788
M15
G01X9.0544Y-3.2041
M16
G05
G00X9.1019Y-4.0288
M15
G01X9.0544Y-3.9541
M16
G05
G00X9.1019Y-4.7788
M15
G01X9.0544Y-4.7041
M16
G05
G00X9.5916Y-2.3028
M15
G01X9.59Y-2.28
M16
G05
G00X9.5916Y-3.0528
M15
G01X9.59Y-3.03
M16
G05
G00X9.5916Y-3.7928
M15
G01X9.59Y-3.77
M16
G05
G00X9.8419Y-2.3788
M15
G01X9.7944Y-2.3041
M16
G05
G00X9.8419Y-3.1288
M15
G01X9.7944Y-3.0541
M16
G05
G00X9.8419Y-3.8688
M15
G01X9.7944Y-3.7941
M16
G05
G00X10.3416Y-2.4628
M15
G01X10.34Y-2.44
M16
G05
G00X10.3416Y-3.2128
M15
G01X10.34Y-3.19
M16
G05
G00X10.3416Y-3.9628
M15
G01X10.34Y-3.94
M16
G05
G00X10.5919Y-2.5388
M15
G01X10.5444Y-2.4641
M16
G05
G00X10.5919Y-3.2888
M15
G01X10.5444Y-3.2141
M16
G05
G00X10.5919Y-4.0388
M15
G01X10.5444Y-3.9641
M16
G05
G00X11.0916Y-2.6128
M15
G01X11.09Y-2.59
M16
G05
G00X11.0916Y-3.3628
M15
G01X11.09Y-3.34
M16
G05
G00X11.0916Y-4.1128
M15
G01X11.09Y-4.09
M16
G05
G00X11.3419Y-2.6888
M15
G01X11.2944Y-2.6141
M16
G05
G00X11.3419Y-3.4388
M15
G01X11.2944Y-3.3641
M16
G05
G00X11.3419Y-4.1888
M15
G01X11.2944Y-4.1141
M16
G05
G00X11.8316Y-2.7728
M15
G01X11.83Y-2.75
M16
G05
G00X11.8416Y-3.5228
M15
G01X11.84Y-3.5
M16
G05
G00X11.8416Y-4.2728
M15
G01X11.84Y-4.25
M16
G05
G00X12.0819Y-2.8488
M15
G01X12.0344Y-2.7741
M16
G05
G00X12.0919Y-3.5988
M15
G01X12.0444Y-3.5241
M16
G05
G00X12.0919Y-4.3488
M15
G01X12.0444Y-4.2741
M16
G05
T0
M30
