G04 #@! TF.GenerationSoftware,KiCad,Pcbnew,5.1.5*
G04 #@! TF.CreationDate,2020-03-09T20:34:47+00:00*
G04 #@! TF.ProjectId,pcb,7063622e-6b69-4636-9164-5f7063625858,rev?*
G04 #@! TF.SameCoordinates,Original*
G04 #@! TF.FileFunction,Legend,Top*
G04 #@! TF.FilePolarity,Positive*
%FSLAX46Y46*%
G04 Gerber Fmt 4.6, Leading zero omitted, Abs format (unit mm)*
G04 Created by KiCad (PCBNEW 5.1.5) date 2020-03-09 20:34:47*
%MOMM*%
%LPD*%
G04 APERTURE LIST*
%ADD10C,0.150000*%
%ADD11C,0.120000*%
G04 APERTURE END LIST*
D10*
X80150000Y-92150000D02*
X80150000Y-93150000D01*
X79150000Y-106150000D02*
X80150000Y-106150000D01*
X80150000Y-92150000D02*
X79150000Y-92150000D01*
X80150000Y-105150000D02*
X80150000Y-106150000D01*
X66150000Y-106150000D02*
X66150000Y-105150000D01*
X67150000Y-92150000D02*
X66150000Y-92150000D01*
X66150000Y-106150000D02*
X67150000Y-106150000D01*
X66150000Y-93150000D02*
X66150000Y-92150000D01*
X99250000Y-77150000D02*
X99250000Y-78150000D01*
X98250000Y-91150000D02*
X99250000Y-91150000D01*
X99250000Y-77150000D02*
X98250000Y-77150000D01*
X99250000Y-90150000D02*
X99250000Y-91150000D01*
X85250000Y-91150000D02*
X85250000Y-90150000D01*
X86250000Y-77150000D02*
X85250000Y-77150000D01*
X85250000Y-91150000D02*
X86250000Y-91150000D01*
X85250000Y-78150000D02*
X85250000Y-77150000D01*
D11*
X158830000Y-103330000D02*
X154990000Y-103330000D01*
X158830000Y-105170000D02*
X154990000Y-105170000D01*
X158830000Y-99580000D02*
X154990000Y-99580000D01*
X158830000Y-101420000D02*
X154990000Y-101420000D01*
X155070000Y-97920000D02*
X158910000Y-97920000D01*
X155070000Y-96080000D02*
X158910000Y-96080000D01*
X153990000Y-90080000D02*
X155640000Y-90080000D01*
X153990000Y-54400000D02*
X153990000Y-90080000D01*
X159290000Y-54400000D02*
X153990000Y-54400000D01*
X159290000Y-90080000D02*
X159290000Y-54400000D01*
X157640000Y-90080000D02*
X159290000Y-90080000D01*
X155640000Y-90080000D02*
G75*
G02X157640000Y-90080000I1000000J0D01*
G01*
X129132000Y-69960000D02*
X114910000Y-69960000D01*
D10*
X114400000Y-69960000D02*
X114910000Y-69960000D01*
X130910000Y-68690000D02*
X130910000Y-37476000D01*
X113130000Y-37476000D02*
X113130000Y-68690000D01*
X114400000Y-36206000D02*
X129640000Y-36206000D01*
X130910000Y-37476000D02*
G75*
G03X129640000Y-36206000I-1270000J0D01*
G01*
X122750000Y-55965000D02*
G75*
G03X122750000Y-55965000I-750000J0D01*
G01*
X114400000Y-36206000D02*
G75*
G03X113130000Y-37476000I0J-1270000D01*
G01*
X129640000Y-69960000D02*
G75*
G03X130910000Y-68690000I0J1270000D01*
G01*
X113130000Y-68690000D02*
G75*
G03X114400000Y-69960000I1270000J0D01*
G01*
X129132000Y-69960000D02*
X129640000Y-69960000D01*
X28250000Y-55150000D02*
X28250000Y-54150000D01*
X28250000Y-68150000D02*
X29250000Y-68150000D01*
X29250000Y-54150000D02*
X28250000Y-54150000D01*
X28250000Y-68150000D02*
X28250000Y-67150000D01*
X42250000Y-67150000D02*
X42250000Y-68150000D01*
X42250000Y-54150000D02*
X41250000Y-54150000D01*
X41250000Y-68150000D02*
X42250000Y-68150000D01*
X42250000Y-54150000D02*
X42250000Y-55150000D01*
X4150000Y-43150000D02*
X4150000Y-44150000D01*
X3150000Y-57150000D02*
X4150000Y-57150000D01*
X4150000Y-43150000D02*
X3150000Y-43150000D01*
X4150000Y-56150000D02*
X4150000Y-57150000D01*
X-9850000Y-57150000D02*
X-9850000Y-56150000D01*
X-8850000Y-43150000D02*
X-9850000Y-43150000D01*
X-9850000Y-57150000D02*
X-8850000Y-57150000D01*
X-9850000Y-44150000D02*
X-9850000Y-43150000D01*
X23150000Y-39150000D02*
X23150000Y-40150000D01*
X22150000Y-53150000D02*
X23150000Y-53150000D01*
X23150000Y-39150000D02*
X22150000Y-39150000D01*
X23150000Y-52150000D02*
X23150000Y-53150000D01*
X9150000Y-53150000D02*
X9150000Y-52150000D01*
X10150000Y-39150000D02*
X9150000Y-39150000D01*
X9150000Y-53150000D02*
X10150000Y-53150000D01*
X9150000Y-40150000D02*
X9150000Y-39150000D01*
X28250000Y-36150000D02*
X28250000Y-35150000D01*
X28250000Y-49150000D02*
X29250000Y-49150000D01*
X29250000Y-35150000D02*
X28250000Y-35150000D01*
X28250000Y-49150000D02*
X28250000Y-48150000D01*
X42250000Y-48150000D02*
X42250000Y-49150000D01*
X42250000Y-35150000D02*
X41250000Y-35150000D01*
X41250000Y-49150000D02*
X42250000Y-49150000D01*
X42250000Y-35150000D02*
X42250000Y-36150000D01*
X61250000Y-31150000D02*
X61250000Y-32150000D01*
X60250000Y-45150000D02*
X61250000Y-45150000D01*
X61250000Y-31150000D02*
X60250000Y-31150000D01*
X61250000Y-44150000D02*
X61250000Y-45150000D01*
X47250000Y-45150000D02*
X47250000Y-44150000D01*
X48250000Y-31150000D02*
X47250000Y-31150000D01*
X47250000Y-45150000D02*
X48250000Y-45150000D01*
X47250000Y-32150000D02*
X47250000Y-31150000D01*
X66160000Y-36090000D02*
X66160000Y-35090000D01*
X66160000Y-49090000D02*
X67160000Y-49090000D01*
X67160000Y-35090000D02*
X66160000Y-35090000D01*
X66160000Y-49090000D02*
X66160000Y-48090000D01*
X80160000Y-48090000D02*
X80160000Y-49090000D01*
X80160000Y-35090000D02*
X79160000Y-35090000D01*
X79160000Y-49090000D02*
X80160000Y-49090000D01*
X80160000Y-35090000D02*
X80160000Y-36090000D01*
X85250000Y-40150000D02*
X85250000Y-39150000D01*
X85250000Y-53150000D02*
X86250000Y-53150000D01*
X86250000Y-39150000D02*
X85250000Y-39150000D01*
X85250000Y-53150000D02*
X85250000Y-52150000D01*
X99250000Y-52150000D02*
X99250000Y-53150000D01*
X99250000Y-39150000D02*
X98250000Y-39150000D01*
X98250000Y-53150000D02*
X99250000Y-53150000D01*
X99250000Y-39150000D02*
X99250000Y-40150000D01*
X4150000Y-62150000D02*
X4150000Y-63150000D01*
X3150000Y-76150000D02*
X4150000Y-76150000D01*
X4150000Y-62150000D02*
X3150000Y-62150000D01*
X4150000Y-75150000D02*
X4150000Y-76150000D01*
X-9850000Y-76150000D02*
X-9850000Y-75150000D01*
X-8850000Y-62150000D02*
X-9850000Y-62150000D01*
X-9850000Y-76150000D02*
X-8850000Y-76150000D01*
X-9850000Y-63150000D02*
X-9850000Y-62150000D01*
X23150000Y-58150000D02*
X23150000Y-59150000D01*
X22150000Y-72150000D02*
X23150000Y-72150000D01*
X23150000Y-58150000D02*
X22150000Y-58150000D01*
X23150000Y-71150000D02*
X23150000Y-72150000D01*
X9150000Y-72150000D02*
X9150000Y-71150000D01*
X10150000Y-58150000D02*
X9150000Y-58150000D01*
X9150000Y-72150000D02*
X10150000Y-72150000D01*
X9150000Y-59150000D02*
X9150000Y-58150000D01*
X61250000Y-50150000D02*
X61250000Y-51150000D01*
X60250000Y-64150000D02*
X61250000Y-64150000D01*
X61250000Y-50150000D02*
X60250000Y-50150000D01*
X61250000Y-63150000D02*
X61250000Y-64150000D01*
X47250000Y-64150000D02*
X47250000Y-63150000D01*
X48250000Y-50150000D02*
X47250000Y-50150000D01*
X47250000Y-64150000D02*
X48250000Y-64150000D01*
X47250000Y-51150000D02*
X47250000Y-50150000D01*
X66250000Y-55150000D02*
X66250000Y-54150000D01*
X66250000Y-68150000D02*
X67250000Y-68150000D01*
X67250000Y-54150000D02*
X66250000Y-54150000D01*
X66250000Y-68150000D02*
X66250000Y-67150000D01*
X80250000Y-67150000D02*
X80250000Y-68150000D01*
X80250000Y-54150000D02*
X79250000Y-54150000D01*
X79250000Y-68150000D02*
X80250000Y-68150000D01*
X80250000Y-54150000D02*
X80250000Y-55150000D01*
X99250000Y-58150000D02*
X99250000Y-59150000D01*
X98250000Y-72150000D02*
X99250000Y-72150000D01*
X99250000Y-58150000D02*
X98250000Y-58150000D01*
X99250000Y-71150000D02*
X99250000Y-72150000D01*
X85250000Y-72150000D02*
X85250000Y-71150000D01*
X86250000Y-58150000D02*
X85250000Y-58150000D01*
X85250000Y-72150000D02*
X86250000Y-72150000D01*
X85250000Y-59150000D02*
X85250000Y-58150000D01*
X-9750000Y-82150000D02*
X-9750000Y-81150000D01*
X-9750000Y-95150000D02*
X-8750000Y-95150000D01*
X-8750000Y-81150000D02*
X-9750000Y-81150000D01*
X-9750000Y-95150000D02*
X-9750000Y-94150000D01*
X4250000Y-94150000D02*
X4250000Y-95150000D01*
X4250000Y-81150000D02*
X3250000Y-81150000D01*
X3250000Y-95150000D02*
X4250000Y-95150000D01*
X4250000Y-81150000D02*
X4250000Y-82150000D01*
X23250000Y-77150000D02*
X23250000Y-78150000D01*
X22250000Y-91150000D02*
X23250000Y-91150000D01*
X23250000Y-77150000D02*
X22250000Y-77150000D01*
X23250000Y-90150000D02*
X23250000Y-91150000D01*
X9250000Y-91150000D02*
X9250000Y-90150000D01*
X10250000Y-77150000D02*
X9250000Y-77150000D01*
X9250000Y-91150000D02*
X10250000Y-91150000D01*
X9250000Y-78150000D02*
X9250000Y-77150000D01*
X28250000Y-74150000D02*
X28250000Y-73150000D01*
X28250000Y-87150000D02*
X29250000Y-87150000D01*
X29250000Y-73150000D02*
X28250000Y-73150000D01*
X28250000Y-87150000D02*
X28250000Y-86150000D01*
X42250000Y-86150000D02*
X42250000Y-87150000D01*
X42250000Y-73150000D02*
X41250000Y-73150000D01*
X41250000Y-87150000D02*
X42250000Y-87150000D01*
X42250000Y-73150000D02*
X42250000Y-74150000D01*
X47150000Y-70150000D02*
X47150000Y-69150000D01*
X47150000Y-83150000D02*
X48150000Y-83150000D01*
X48150000Y-69150000D02*
X47150000Y-69150000D01*
X47150000Y-83150000D02*
X47150000Y-82150000D01*
X61150000Y-82150000D02*
X61150000Y-83150000D01*
X61150000Y-69150000D02*
X60150000Y-69150000D01*
X60150000Y-83150000D02*
X61150000Y-83150000D01*
X61150000Y-69150000D02*
X61150000Y-70150000D01*
X66250000Y-74150000D02*
X66250000Y-73150000D01*
X66250000Y-87150000D02*
X67250000Y-87150000D01*
X67250000Y-73150000D02*
X66250000Y-73150000D01*
X66250000Y-87150000D02*
X66250000Y-86150000D01*
X80250000Y-86150000D02*
X80250000Y-87150000D01*
X80250000Y-73150000D02*
X79250000Y-73150000D01*
X79250000Y-87150000D02*
X80250000Y-87150000D01*
X80250000Y-73150000D02*
X80250000Y-74150000D01*
X85150000Y-97150000D02*
X85150000Y-96150000D01*
X85150000Y-110150000D02*
X86150000Y-110150000D01*
X86150000Y-96150000D02*
X85150000Y-96150000D01*
X85150000Y-110150000D02*
X85150000Y-109150000D01*
X99150000Y-109150000D02*
X99150000Y-110150000D01*
X99150000Y-96150000D02*
X98150000Y-96150000D01*
X98150000Y-110150000D02*
X99150000Y-110150000D01*
X99150000Y-96150000D02*
X99150000Y-97150000D01*
X114250000Y-115150000D02*
X114250000Y-116150000D01*
X113250000Y-129150000D02*
X114250000Y-129150000D01*
X114250000Y-115150000D02*
X113250000Y-115150000D01*
X114250000Y-128150000D02*
X114250000Y-129150000D01*
X100250000Y-129150000D02*
X100250000Y-128150000D01*
X101250000Y-115150000D02*
X100250000Y-115150000D01*
X100250000Y-129150000D02*
X101250000Y-129150000D01*
X100250000Y-116150000D02*
X100250000Y-115150000D01*
X189390000Y-39010000D02*
X189390000Y-40010000D01*
X188390000Y-53010000D02*
X189390000Y-53010000D01*
X189390000Y-39010000D02*
X188390000Y-39010000D01*
X189390000Y-52010000D02*
X189390000Y-53010000D01*
X175390000Y-53010000D02*
X175390000Y-52010000D01*
X176390000Y-39010000D02*
X175390000Y-39010000D01*
X175390000Y-53010000D02*
X176390000Y-53010000D01*
X175390000Y-40010000D02*
X175390000Y-39010000D01*
X194200000Y-36150000D02*
X194200000Y-35150000D01*
X194200000Y-49150000D02*
X195200000Y-49150000D01*
X195200000Y-35150000D02*
X194200000Y-35150000D01*
X194200000Y-49150000D02*
X194200000Y-48150000D01*
X208200000Y-48150000D02*
X208200000Y-49150000D01*
X208200000Y-35150000D02*
X207200000Y-35150000D01*
X207200000Y-49150000D02*
X208200000Y-49150000D01*
X208200000Y-35150000D02*
X208200000Y-36150000D01*
X227300000Y-31150000D02*
X227300000Y-32150000D01*
X226300000Y-45150000D02*
X227300000Y-45150000D01*
X227300000Y-31150000D02*
X226300000Y-31150000D01*
X227300000Y-44150000D02*
X227300000Y-45150000D01*
X213300000Y-45150000D02*
X213300000Y-44150000D01*
X214300000Y-31150000D02*
X213300000Y-31150000D01*
X213300000Y-45150000D02*
X214300000Y-45150000D01*
X213300000Y-32150000D02*
X213300000Y-31150000D01*
X232200000Y-36050000D02*
X232200000Y-35050000D01*
X232200000Y-49050000D02*
X233200000Y-49050000D01*
X233200000Y-35050000D02*
X232200000Y-35050000D01*
X232200000Y-49050000D02*
X232200000Y-48050000D01*
X246200000Y-48050000D02*
X246200000Y-49050000D01*
X246200000Y-35050000D02*
X245200000Y-35050000D01*
X245200000Y-49050000D02*
X246200000Y-49050000D01*
X246200000Y-35050000D02*
X246200000Y-36050000D01*
X265190000Y-39110000D02*
X265190000Y-40110000D01*
X264190000Y-53110000D02*
X265190000Y-53110000D01*
X265190000Y-39110000D02*
X264190000Y-39110000D01*
X265190000Y-52110000D02*
X265190000Y-53110000D01*
X251190000Y-53110000D02*
X251190000Y-52110000D01*
X252190000Y-39110000D02*
X251190000Y-39110000D01*
X251190000Y-53110000D02*
X252190000Y-53110000D01*
X251190000Y-40110000D02*
X251190000Y-39110000D01*
X270200000Y-44150000D02*
X270200000Y-43150000D01*
X270200000Y-57150000D02*
X271200000Y-57150000D01*
X271200000Y-43150000D02*
X270200000Y-43150000D01*
X270200000Y-57150000D02*
X270200000Y-56150000D01*
X284200000Y-56150000D02*
X284200000Y-57150000D01*
X284200000Y-43150000D02*
X283200000Y-43150000D01*
X283200000Y-57150000D02*
X284200000Y-57150000D01*
X284200000Y-43150000D02*
X284200000Y-44150000D01*
X189300000Y-58150000D02*
X189300000Y-59150000D01*
X188300000Y-72150000D02*
X189300000Y-72150000D01*
X189300000Y-58150000D02*
X188300000Y-58150000D01*
X189300000Y-71150000D02*
X189300000Y-72150000D01*
X175300000Y-72150000D02*
X175300000Y-71150000D01*
X176300000Y-58150000D02*
X175300000Y-58150000D01*
X175300000Y-72150000D02*
X176300000Y-72150000D01*
X175300000Y-59150000D02*
X175300000Y-58150000D01*
X194200000Y-55150000D02*
X194200000Y-54150000D01*
X194200000Y-68150000D02*
X195200000Y-68150000D01*
X195200000Y-54150000D02*
X194200000Y-54150000D01*
X194200000Y-68150000D02*
X194200000Y-67150000D01*
X208200000Y-67150000D02*
X208200000Y-68150000D01*
X208200000Y-54150000D02*
X207200000Y-54150000D01*
X207200000Y-68150000D02*
X208200000Y-68150000D01*
X208200000Y-54150000D02*
X208200000Y-55150000D01*
X227200000Y-50250000D02*
X227200000Y-51250000D01*
X226200000Y-64250000D02*
X227200000Y-64250000D01*
X227200000Y-50250000D02*
X226200000Y-50250000D01*
X227200000Y-63250000D02*
X227200000Y-64250000D01*
X213200000Y-64250000D02*
X213200000Y-63250000D01*
X214200000Y-50250000D02*
X213200000Y-50250000D01*
X213200000Y-64250000D02*
X214200000Y-64250000D01*
X213200000Y-51250000D02*
X213200000Y-50250000D01*
X232300000Y-55050000D02*
X232300000Y-54050000D01*
X232300000Y-68050000D02*
X233300000Y-68050000D01*
X233300000Y-54050000D02*
X232300000Y-54050000D01*
X232300000Y-68050000D02*
X232300000Y-67050000D01*
X246300000Y-67050000D02*
X246300000Y-68050000D01*
X246300000Y-54050000D02*
X245300000Y-54050000D01*
X245300000Y-68050000D02*
X246300000Y-68050000D01*
X246300000Y-54050000D02*
X246300000Y-55050000D01*
X265200000Y-58150000D02*
X265200000Y-59150000D01*
X264200000Y-72150000D02*
X265200000Y-72150000D01*
X265200000Y-58150000D02*
X264200000Y-58150000D01*
X265200000Y-71150000D02*
X265200000Y-72150000D01*
X251200000Y-72150000D02*
X251200000Y-71150000D01*
X252200000Y-58150000D02*
X251200000Y-58150000D01*
X251200000Y-72150000D02*
X252200000Y-72150000D01*
X251200000Y-59150000D02*
X251200000Y-58150000D01*
X270300000Y-63150000D02*
X270300000Y-62150000D01*
X270300000Y-76150000D02*
X271300000Y-76150000D01*
X271300000Y-62150000D02*
X270300000Y-62150000D01*
X270300000Y-76150000D02*
X270300000Y-75150000D01*
X284300000Y-75150000D02*
X284300000Y-76150000D01*
X284300000Y-62150000D02*
X283300000Y-62150000D01*
X283300000Y-76150000D02*
X284300000Y-76150000D01*
X284300000Y-62150000D02*
X284300000Y-63150000D01*
X189300000Y-77150000D02*
X189300000Y-78150000D01*
X188300000Y-91150000D02*
X189300000Y-91150000D01*
X189300000Y-77150000D02*
X188300000Y-77150000D01*
X189300000Y-90150000D02*
X189300000Y-91150000D01*
X175300000Y-91150000D02*
X175300000Y-90150000D01*
X176300000Y-77150000D02*
X175300000Y-77150000D01*
X175300000Y-91150000D02*
X176300000Y-91150000D01*
X175300000Y-78150000D02*
X175300000Y-77150000D01*
X194300000Y-74150000D02*
X194300000Y-73150000D01*
X194300000Y-87150000D02*
X195300000Y-87150000D01*
X195300000Y-73150000D02*
X194300000Y-73150000D01*
X194300000Y-87150000D02*
X194300000Y-86150000D01*
X208300000Y-86150000D02*
X208300000Y-87150000D01*
X208300000Y-73150000D02*
X207300000Y-73150000D01*
X207300000Y-87150000D02*
X208300000Y-87150000D01*
X208300000Y-73150000D02*
X208300000Y-74150000D01*
X227200000Y-69050000D02*
X227200000Y-70050000D01*
X226200000Y-83050000D02*
X227200000Y-83050000D01*
X227200000Y-69050000D02*
X226200000Y-69050000D01*
X227200000Y-82050000D02*
X227200000Y-83050000D01*
X213200000Y-83050000D02*
X213200000Y-82050000D01*
X214200000Y-69050000D02*
X213200000Y-69050000D01*
X213200000Y-83050000D02*
X214200000Y-83050000D01*
X213200000Y-70050000D02*
X213200000Y-69050000D01*
X232200000Y-74150000D02*
X232200000Y-73150000D01*
X232200000Y-87150000D02*
X233200000Y-87150000D01*
X233200000Y-73150000D02*
X232200000Y-73150000D01*
X232200000Y-87150000D02*
X232200000Y-86150000D01*
X246200000Y-86150000D02*
X246200000Y-87150000D01*
X246200000Y-73150000D02*
X245200000Y-73150000D01*
X245200000Y-87150000D02*
X246200000Y-87150000D01*
X246200000Y-73150000D02*
X246200000Y-74150000D01*
X265200000Y-77150000D02*
X265200000Y-78150000D01*
X264200000Y-91150000D02*
X265200000Y-91150000D01*
X265200000Y-77150000D02*
X264200000Y-77150000D01*
X265200000Y-90150000D02*
X265200000Y-91150000D01*
X251200000Y-91150000D02*
X251200000Y-90150000D01*
X252200000Y-77150000D02*
X251200000Y-77150000D01*
X251200000Y-91150000D02*
X252200000Y-91150000D01*
X251200000Y-78150000D02*
X251200000Y-77150000D01*
X270300000Y-82150000D02*
X270300000Y-81150000D01*
X270300000Y-95150000D02*
X271300000Y-95150000D01*
X271300000Y-81150000D02*
X270300000Y-81150000D01*
X270300000Y-95150000D02*
X270300000Y-94150000D01*
X284300000Y-94150000D02*
X284300000Y-95150000D01*
X284300000Y-81150000D02*
X283300000Y-81150000D01*
X283300000Y-95150000D02*
X284300000Y-95150000D01*
X284300000Y-81150000D02*
X284300000Y-82150000D01*
X160300000Y-116150000D02*
X160300000Y-115150000D01*
X160300000Y-129150000D02*
X161300000Y-129150000D01*
X161300000Y-115150000D02*
X160300000Y-115150000D01*
X160300000Y-129150000D02*
X160300000Y-128150000D01*
X174300000Y-128150000D02*
X174300000Y-129150000D01*
X174300000Y-115150000D02*
X173300000Y-115150000D01*
X173300000Y-129150000D02*
X174300000Y-129150000D01*
X174300000Y-115150000D02*
X174300000Y-116150000D01*
X189200000Y-96150000D02*
X189200000Y-97150000D01*
X188200000Y-110150000D02*
X189200000Y-110150000D01*
X189200000Y-96150000D02*
X188200000Y-96150000D01*
X189200000Y-109150000D02*
X189200000Y-110150000D01*
X175200000Y-110150000D02*
X175200000Y-109150000D01*
X176200000Y-96150000D02*
X175200000Y-96150000D01*
X175200000Y-110150000D02*
X176200000Y-110150000D01*
X175200000Y-97150000D02*
X175200000Y-96150000D01*
X194300000Y-93050000D02*
X194300000Y-92050000D01*
X194300000Y-106050000D02*
X195300000Y-106050000D01*
X195300000Y-92050000D02*
X194300000Y-92050000D01*
X194300000Y-106050000D02*
X194300000Y-105050000D01*
X208300000Y-105050000D02*
X208300000Y-106050000D01*
X208300000Y-92050000D02*
X207300000Y-92050000D01*
X207300000Y-106050000D02*
X208300000Y-106050000D01*
X208300000Y-92050000D02*
X208300000Y-93050000D01*
X71935714Y-91347380D02*
X71935714Y-90347380D01*
X72507142Y-91347380D02*
X72078571Y-90775952D01*
X72507142Y-90347380D02*
X71935714Y-90918809D01*
X72840476Y-90347380D02*
X73459523Y-90347380D01*
X73126190Y-90728333D01*
X73269047Y-90728333D01*
X73364285Y-90775952D01*
X73411904Y-90823571D01*
X73459523Y-90918809D01*
X73459523Y-91156904D01*
X73411904Y-91252142D01*
X73364285Y-91299761D01*
X73269047Y-91347380D01*
X72983333Y-91347380D01*
X72888095Y-91299761D01*
X72840476Y-91252142D01*
X73792857Y-90347380D02*
X74411904Y-90347380D01*
X74078571Y-90728333D01*
X74221428Y-90728333D01*
X74316666Y-90775952D01*
X74364285Y-90823571D01*
X74411904Y-90918809D01*
X74411904Y-91156904D01*
X74364285Y-91252142D01*
X74316666Y-91299761D01*
X74221428Y-91347380D01*
X73935714Y-91347380D01*
X73840476Y-91299761D01*
X73792857Y-91252142D01*
X91035714Y-76347380D02*
X91035714Y-75347380D01*
X91607142Y-76347380D02*
X91178571Y-75775952D01*
X91607142Y-75347380D02*
X91035714Y-75918809D01*
X91988095Y-75442619D02*
X92035714Y-75395000D01*
X92130952Y-75347380D01*
X92369047Y-75347380D01*
X92464285Y-75395000D01*
X92511904Y-75442619D01*
X92559523Y-75537857D01*
X92559523Y-75633095D01*
X92511904Y-75775952D01*
X91940476Y-76347380D01*
X92559523Y-76347380D01*
X93464285Y-75347380D02*
X92988095Y-75347380D01*
X92940476Y-75823571D01*
X92988095Y-75775952D01*
X93083333Y-75728333D01*
X93321428Y-75728333D01*
X93416666Y-75775952D01*
X93464285Y-75823571D01*
X93511904Y-75918809D01*
X93511904Y-76156904D01*
X93464285Y-76252142D01*
X93416666Y-76299761D01*
X93321428Y-76347380D01*
X93083333Y-76347380D01*
X92988095Y-76299761D01*
X92940476Y-76252142D01*
X156743333Y-106622380D02*
X156410000Y-106146190D01*
X156171904Y-106622380D02*
X156171904Y-105622380D01*
X156552857Y-105622380D01*
X156648095Y-105670000D01*
X156695714Y-105717619D01*
X156743333Y-105812857D01*
X156743333Y-105955714D01*
X156695714Y-106050952D01*
X156648095Y-106098571D01*
X156552857Y-106146190D01*
X156171904Y-106146190D01*
X157695714Y-106622380D02*
X157124285Y-106622380D01*
X157410000Y-106622380D02*
X157410000Y-105622380D01*
X157314761Y-105765238D01*
X157219523Y-105860476D01*
X157124285Y-105908095D01*
X156743333Y-102872380D02*
X156410000Y-102396190D01*
X156171904Y-102872380D02*
X156171904Y-101872380D01*
X156552857Y-101872380D01*
X156648095Y-101920000D01*
X156695714Y-101967619D01*
X156743333Y-102062857D01*
X156743333Y-102205714D01*
X156695714Y-102300952D01*
X156648095Y-102348571D01*
X156552857Y-102396190D01*
X156171904Y-102396190D01*
X157124285Y-101967619D02*
X157171904Y-101920000D01*
X157267142Y-101872380D01*
X157505238Y-101872380D01*
X157600476Y-101920000D01*
X157648095Y-101967619D01*
X157695714Y-102062857D01*
X157695714Y-102158095D01*
X157648095Y-102300952D01*
X157076666Y-102872380D01*
X157695714Y-102872380D01*
X156783333Y-99202380D02*
X156450000Y-98726190D01*
X156211904Y-99202380D02*
X156211904Y-98202380D01*
X156592857Y-98202380D01*
X156688095Y-98250000D01*
X156735714Y-98297619D01*
X156783333Y-98392857D01*
X156783333Y-98535714D01*
X156735714Y-98630952D01*
X156688095Y-98678571D01*
X156592857Y-98726190D01*
X156211904Y-98726190D01*
X157116666Y-98202380D02*
X157735714Y-98202380D01*
X157402380Y-98583333D01*
X157545238Y-98583333D01*
X157640476Y-98630952D01*
X157688095Y-98678571D01*
X157735714Y-98773809D01*
X157735714Y-99011904D01*
X157688095Y-99107142D01*
X157640476Y-99154761D01*
X157545238Y-99202380D01*
X157259523Y-99202380D01*
X157164285Y-99154761D01*
X157116666Y-99107142D01*
X153949523Y-90532380D02*
X153949523Y-91341904D01*
X153997142Y-91437142D01*
X154044761Y-91484761D01*
X154140000Y-91532380D01*
X154330476Y-91532380D01*
X154425714Y-91484761D01*
X154473333Y-91437142D01*
X154520952Y-91341904D01*
X154520952Y-90532380D01*
X155568571Y-91532380D02*
X155235238Y-91056190D01*
X154997142Y-91532380D02*
X154997142Y-90532380D01*
X155378095Y-90532380D01*
X155473333Y-90580000D01*
X155520952Y-90627619D01*
X155568571Y-90722857D01*
X155568571Y-90865714D01*
X155520952Y-90960952D01*
X155473333Y-91008571D01*
X155378095Y-91056190D01*
X154997142Y-91056190D01*
X155997142Y-91532380D02*
X155997142Y-90865714D01*
X155997142Y-90532380D02*
X155949523Y-90580000D01*
X155997142Y-90627619D01*
X156044761Y-90580000D01*
X155997142Y-90532380D01*
X155997142Y-90627619D01*
X156901904Y-90865714D02*
X156901904Y-91675238D01*
X156854285Y-91770476D01*
X156806666Y-91818095D01*
X156711428Y-91865714D01*
X156568571Y-91865714D01*
X156473333Y-91818095D01*
X156901904Y-91484761D02*
X156806666Y-91532380D01*
X156616190Y-91532380D01*
X156520952Y-91484761D01*
X156473333Y-91437142D01*
X156425714Y-91341904D01*
X156425714Y-91056190D01*
X156473333Y-90960952D01*
X156520952Y-90913333D01*
X156616190Y-90865714D01*
X156806666Y-90865714D01*
X156901904Y-90913333D01*
X157378095Y-91532380D02*
X157378095Y-90532380D01*
X157806666Y-91532380D02*
X157806666Y-91008571D01*
X157759047Y-90913333D01*
X157663809Y-90865714D01*
X157520952Y-90865714D01*
X157425714Y-90913333D01*
X157378095Y-90960952D01*
X158140000Y-90865714D02*
X158520952Y-90865714D01*
X158282857Y-90532380D02*
X158282857Y-91389523D01*
X158330476Y-91484761D01*
X158425714Y-91532380D01*
X158520952Y-91532380D01*
X159378095Y-91532380D02*
X158806666Y-91532380D01*
X159092380Y-91532380D02*
X159092380Y-90532380D01*
X158997142Y-90675238D01*
X158901904Y-90770476D01*
X158806666Y-90818095D01*
X119843333Y-58842380D02*
X119843333Y-59651904D01*
X119890952Y-59747142D01*
X119938571Y-59794761D01*
X120033809Y-59842380D01*
X120224285Y-59842380D01*
X120319523Y-59794761D01*
X120367142Y-59747142D01*
X120414761Y-59651904D01*
X120414761Y-58842380D01*
X121367142Y-59842380D02*
X120890952Y-59842380D01*
X120890952Y-58842380D01*
X122081428Y-59794761D02*
X121986190Y-59842380D01*
X121795714Y-59842380D01*
X121700476Y-59794761D01*
X121652857Y-59699523D01*
X121652857Y-59318571D01*
X121700476Y-59223333D01*
X121795714Y-59175714D01*
X121986190Y-59175714D01*
X122081428Y-59223333D01*
X122129047Y-59318571D01*
X122129047Y-59413809D01*
X121652857Y-59509047D01*
X122414761Y-59175714D02*
X122795714Y-59175714D01*
X122557619Y-59842380D02*
X122557619Y-58985238D01*
X122605238Y-58890000D01*
X122700476Y-58842380D01*
X122795714Y-58842380D01*
X122986190Y-59175714D02*
X123367142Y-59175714D01*
X123129047Y-58842380D02*
X123129047Y-59699523D01*
X123176666Y-59794761D01*
X123271904Y-59842380D01*
X123367142Y-59842380D01*
X124224285Y-59842380D02*
X123652857Y-59842380D01*
X123938571Y-59842380D02*
X123938571Y-58842380D01*
X123843333Y-58985238D01*
X123748095Y-59080476D01*
X123652857Y-59128095D01*
X34035714Y-53347380D02*
X34035714Y-52347380D01*
X34607142Y-53347380D02*
X34178571Y-52775952D01*
X34607142Y-52347380D02*
X34035714Y-52918809D01*
X35559523Y-53347380D02*
X34988095Y-53347380D01*
X35273809Y-53347380D02*
X35273809Y-52347380D01*
X35178571Y-52490238D01*
X35083333Y-52585476D01*
X34988095Y-52633095D01*
X35940476Y-52442619D02*
X35988095Y-52395000D01*
X36083333Y-52347380D01*
X36321428Y-52347380D01*
X36416666Y-52395000D01*
X36464285Y-52442619D01*
X36511904Y-52537857D01*
X36511904Y-52633095D01*
X36464285Y-52775952D01*
X35892857Y-53347380D01*
X36511904Y-53347380D01*
X-4064285Y-42347380D02*
X-4064285Y-41347380D01*
X-3492857Y-42347380D02*
X-3921428Y-41775952D01*
X-3492857Y-41347380D02*
X-4064285Y-41918809D01*
X-2873809Y-41347380D02*
X-2778571Y-41347380D01*
X-2683333Y-41395000D01*
X-2635714Y-41442619D01*
X-2588095Y-41537857D01*
X-2540476Y-41728333D01*
X-2540476Y-41966428D01*
X-2588095Y-42156904D01*
X-2635714Y-42252142D01*
X-2683333Y-42299761D01*
X-2778571Y-42347380D01*
X-2873809Y-42347380D01*
X-2969047Y-42299761D01*
X-3016666Y-42252142D01*
X-3064285Y-42156904D01*
X-3111904Y-41966428D01*
X-3111904Y-41728333D01*
X-3064285Y-41537857D01*
X-3016666Y-41442619D01*
X-2969047Y-41395000D01*
X-2873809Y-41347380D01*
X-1921428Y-41347380D02*
X-1826190Y-41347380D01*
X-1730952Y-41395000D01*
X-1683333Y-41442619D01*
X-1635714Y-41537857D01*
X-1588095Y-41728333D01*
X-1588095Y-41966428D01*
X-1635714Y-42156904D01*
X-1683333Y-42252142D01*
X-1730952Y-42299761D01*
X-1826190Y-42347380D01*
X-1921428Y-42347380D01*
X-2016666Y-42299761D01*
X-2064285Y-42252142D01*
X-2111904Y-42156904D01*
X-2159523Y-41966428D01*
X-2159523Y-41728333D01*
X-2111904Y-41537857D01*
X-2064285Y-41442619D01*
X-2016666Y-41395000D01*
X-1921428Y-41347380D01*
X14935714Y-38347380D02*
X14935714Y-37347380D01*
X15507142Y-38347380D02*
X15078571Y-37775952D01*
X15507142Y-37347380D02*
X14935714Y-37918809D01*
X16126190Y-37347380D02*
X16221428Y-37347380D01*
X16316666Y-37395000D01*
X16364285Y-37442619D01*
X16411904Y-37537857D01*
X16459523Y-37728333D01*
X16459523Y-37966428D01*
X16411904Y-38156904D01*
X16364285Y-38252142D01*
X16316666Y-38299761D01*
X16221428Y-38347380D01*
X16126190Y-38347380D01*
X16030952Y-38299761D01*
X15983333Y-38252142D01*
X15935714Y-38156904D01*
X15888095Y-37966428D01*
X15888095Y-37728333D01*
X15935714Y-37537857D01*
X15983333Y-37442619D01*
X16030952Y-37395000D01*
X16126190Y-37347380D01*
X17411904Y-38347380D02*
X16840476Y-38347380D01*
X17126190Y-38347380D02*
X17126190Y-37347380D01*
X17030952Y-37490238D01*
X16935714Y-37585476D01*
X16840476Y-37633095D01*
X34035714Y-34347380D02*
X34035714Y-33347380D01*
X34607142Y-34347380D02*
X34178571Y-33775952D01*
X34607142Y-33347380D02*
X34035714Y-33918809D01*
X35226190Y-33347380D02*
X35321428Y-33347380D01*
X35416666Y-33395000D01*
X35464285Y-33442619D01*
X35511904Y-33537857D01*
X35559523Y-33728333D01*
X35559523Y-33966428D01*
X35511904Y-34156904D01*
X35464285Y-34252142D01*
X35416666Y-34299761D01*
X35321428Y-34347380D01*
X35226190Y-34347380D01*
X35130952Y-34299761D01*
X35083333Y-34252142D01*
X35035714Y-34156904D01*
X34988095Y-33966428D01*
X34988095Y-33728333D01*
X35035714Y-33537857D01*
X35083333Y-33442619D01*
X35130952Y-33395000D01*
X35226190Y-33347380D01*
X35940476Y-33442619D02*
X35988095Y-33395000D01*
X36083333Y-33347380D01*
X36321428Y-33347380D01*
X36416666Y-33395000D01*
X36464285Y-33442619D01*
X36511904Y-33537857D01*
X36511904Y-33633095D01*
X36464285Y-33775952D01*
X35892857Y-34347380D01*
X36511904Y-34347380D01*
X53035714Y-30347380D02*
X53035714Y-29347380D01*
X53607142Y-30347380D02*
X53178571Y-29775952D01*
X53607142Y-29347380D02*
X53035714Y-29918809D01*
X54226190Y-29347380D02*
X54321428Y-29347380D01*
X54416666Y-29395000D01*
X54464285Y-29442619D01*
X54511904Y-29537857D01*
X54559523Y-29728333D01*
X54559523Y-29966428D01*
X54511904Y-30156904D01*
X54464285Y-30252142D01*
X54416666Y-30299761D01*
X54321428Y-30347380D01*
X54226190Y-30347380D01*
X54130952Y-30299761D01*
X54083333Y-30252142D01*
X54035714Y-30156904D01*
X53988095Y-29966428D01*
X53988095Y-29728333D01*
X54035714Y-29537857D01*
X54083333Y-29442619D01*
X54130952Y-29395000D01*
X54226190Y-29347380D01*
X54892857Y-29347380D02*
X55511904Y-29347380D01*
X55178571Y-29728333D01*
X55321428Y-29728333D01*
X55416666Y-29775952D01*
X55464285Y-29823571D01*
X55511904Y-29918809D01*
X55511904Y-30156904D01*
X55464285Y-30252142D01*
X55416666Y-30299761D01*
X55321428Y-30347380D01*
X55035714Y-30347380D01*
X54940476Y-30299761D01*
X54892857Y-30252142D01*
X71945714Y-34287380D02*
X71945714Y-33287380D01*
X72517142Y-34287380D02*
X72088571Y-33715952D01*
X72517142Y-33287380D02*
X71945714Y-33858809D01*
X73136190Y-33287380D02*
X73231428Y-33287380D01*
X73326666Y-33335000D01*
X73374285Y-33382619D01*
X73421904Y-33477857D01*
X73469523Y-33668333D01*
X73469523Y-33906428D01*
X73421904Y-34096904D01*
X73374285Y-34192142D01*
X73326666Y-34239761D01*
X73231428Y-34287380D01*
X73136190Y-34287380D01*
X73040952Y-34239761D01*
X72993333Y-34192142D01*
X72945714Y-34096904D01*
X72898095Y-33906428D01*
X72898095Y-33668333D01*
X72945714Y-33477857D01*
X72993333Y-33382619D01*
X73040952Y-33335000D01*
X73136190Y-33287380D01*
X74326666Y-33620714D02*
X74326666Y-34287380D01*
X74088571Y-33239761D02*
X73850476Y-33954047D01*
X74469523Y-33954047D01*
X91035714Y-38347380D02*
X91035714Y-37347380D01*
X91607142Y-38347380D02*
X91178571Y-37775952D01*
X91607142Y-37347380D02*
X91035714Y-37918809D01*
X92226190Y-37347380D02*
X92321428Y-37347380D01*
X92416666Y-37395000D01*
X92464285Y-37442619D01*
X92511904Y-37537857D01*
X92559523Y-37728333D01*
X92559523Y-37966428D01*
X92511904Y-38156904D01*
X92464285Y-38252142D01*
X92416666Y-38299761D01*
X92321428Y-38347380D01*
X92226190Y-38347380D01*
X92130952Y-38299761D01*
X92083333Y-38252142D01*
X92035714Y-38156904D01*
X91988095Y-37966428D01*
X91988095Y-37728333D01*
X92035714Y-37537857D01*
X92083333Y-37442619D01*
X92130952Y-37395000D01*
X92226190Y-37347380D01*
X93464285Y-37347380D02*
X92988095Y-37347380D01*
X92940476Y-37823571D01*
X92988095Y-37775952D01*
X93083333Y-37728333D01*
X93321428Y-37728333D01*
X93416666Y-37775952D01*
X93464285Y-37823571D01*
X93511904Y-37918809D01*
X93511904Y-38156904D01*
X93464285Y-38252142D01*
X93416666Y-38299761D01*
X93321428Y-38347380D01*
X93083333Y-38347380D01*
X92988095Y-38299761D01*
X92940476Y-38252142D01*
X-4064285Y-61347380D02*
X-4064285Y-60347380D01*
X-3492857Y-61347380D02*
X-3921428Y-60775952D01*
X-3492857Y-60347380D02*
X-4064285Y-60918809D01*
X-2540476Y-61347380D02*
X-3111904Y-61347380D01*
X-2826190Y-61347380D02*
X-2826190Y-60347380D01*
X-2921428Y-60490238D01*
X-3016666Y-60585476D01*
X-3111904Y-60633095D01*
X-1921428Y-60347380D02*
X-1826190Y-60347380D01*
X-1730952Y-60395000D01*
X-1683333Y-60442619D01*
X-1635714Y-60537857D01*
X-1588095Y-60728333D01*
X-1588095Y-60966428D01*
X-1635714Y-61156904D01*
X-1683333Y-61252142D01*
X-1730952Y-61299761D01*
X-1826190Y-61347380D01*
X-1921428Y-61347380D01*
X-2016666Y-61299761D01*
X-2064285Y-61252142D01*
X-2111904Y-61156904D01*
X-2159523Y-60966428D01*
X-2159523Y-60728333D01*
X-2111904Y-60537857D01*
X-2064285Y-60442619D01*
X-2016666Y-60395000D01*
X-1921428Y-60347380D01*
X14935714Y-57347380D02*
X14935714Y-56347380D01*
X15507142Y-57347380D02*
X15078571Y-56775952D01*
X15507142Y-56347380D02*
X14935714Y-56918809D01*
X16459523Y-57347380D02*
X15888095Y-57347380D01*
X16173809Y-57347380D02*
X16173809Y-56347380D01*
X16078571Y-56490238D01*
X15983333Y-56585476D01*
X15888095Y-56633095D01*
X17411904Y-57347380D02*
X16840476Y-57347380D01*
X17126190Y-57347380D02*
X17126190Y-56347380D01*
X17030952Y-56490238D01*
X16935714Y-56585476D01*
X16840476Y-56633095D01*
X53035714Y-49347380D02*
X53035714Y-48347380D01*
X53607142Y-49347380D02*
X53178571Y-48775952D01*
X53607142Y-48347380D02*
X53035714Y-48918809D01*
X54559523Y-49347380D02*
X53988095Y-49347380D01*
X54273809Y-49347380D02*
X54273809Y-48347380D01*
X54178571Y-48490238D01*
X54083333Y-48585476D01*
X53988095Y-48633095D01*
X54892857Y-48347380D02*
X55511904Y-48347380D01*
X55178571Y-48728333D01*
X55321428Y-48728333D01*
X55416666Y-48775952D01*
X55464285Y-48823571D01*
X55511904Y-48918809D01*
X55511904Y-49156904D01*
X55464285Y-49252142D01*
X55416666Y-49299761D01*
X55321428Y-49347380D01*
X55035714Y-49347380D01*
X54940476Y-49299761D01*
X54892857Y-49252142D01*
X72035714Y-53347380D02*
X72035714Y-52347380D01*
X72607142Y-53347380D02*
X72178571Y-52775952D01*
X72607142Y-52347380D02*
X72035714Y-52918809D01*
X73559523Y-53347380D02*
X72988095Y-53347380D01*
X73273809Y-53347380D02*
X73273809Y-52347380D01*
X73178571Y-52490238D01*
X73083333Y-52585476D01*
X72988095Y-52633095D01*
X74416666Y-52680714D02*
X74416666Y-53347380D01*
X74178571Y-52299761D02*
X73940476Y-53014047D01*
X74559523Y-53014047D01*
X91035714Y-57347380D02*
X91035714Y-56347380D01*
X91607142Y-57347380D02*
X91178571Y-56775952D01*
X91607142Y-56347380D02*
X91035714Y-56918809D01*
X92559523Y-57347380D02*
X91988095Y-57347380D01*
X92273809Y-57347380D02*
X92273809Y-56347380D01*
X92178571Y-56490238D01*
X92083333Y-56585476D01*
X91988095Y-56633095D01*
X93464285Y-56347380D02*
X92988095Y-56347380D01*
X92940476Y-56823571D01*
X92988095Y-56775952D01*
X93083333Y-56728333D01*
X93321428Y-56728333D01*
X93416666Y-56775952D01*
X93464285Y-56823571D01*
X93511904Y-56918809D01*
X93511904Y-57156904D01*
X93464285Y-57252142D01*
X93416666Y-57299761D01*
X93321428Y-57347380D01*
X93083333Y-57347380D01*
X92988095Y-57299761D01*
X92940476Y-57252142D01*
X-3964285Y-80347380D02*
X-3964285Y-79347380D01*
X-3392857Y-80347380D02*
X-3821428Y-79775952D01*
X-3392857Y-79347380D02*
X-3964285Y-79918809D01*
X-3011904Y-79442619D02*
X-2964285Y-79395000D01*
X-2869047Y-79347380D01*
X-2630952Y-79347380D01*
X-2535714Y-79395000D01*
X-2488095Y-79442619D01*
X-2440476Y-79537857D01*
X-2440476Y-79633095D01*
X-2488095Y-79775952D01*
X-3059523Y-80347380D01*
X-2440476Y-80347380D01*
X-1821428Y-79347380D02*
X-1726190Y-79347380D01*
X-1630952Y-79395000D01*
X-1583333Y-79442619D01*
X-1535714Y-79537857D01*
X-1488095Y-79728333D01*
X-1488095Y-79966428D01*
X-1535714Y-80156904D01*
X-1583333Y-80252142D01*
X-1630952Y-80299761D01*
X-1726190Y-80347380D01*
X-1821428Y-80347380D01*
X-1916666Y-80299761D01*
X-1964285Y-80252142D01*
X-2011904Y-80156904D01*
X-2059523Y-79966428D01*
X-2059523Y-79728333D01*
X-2011904Y-79537857D01*
X-1964285Y-79442619D01*
X-1916666Y-79395000D01*
X-1821428Y-79347380D01*
X15035714Y-76347380D02*
X15035714Y-75347380D01*
X15607142Y-76347380D02*
X15178571Y-75775952D01*
X15607142Y-75347380D02*
X15035714Y-75918809D01*
X15988095Y-75442619D02*
X16035714Y-75395000D01*
X16130952Y-75347380D01*
X16369047Y-75347380D01*
X16464285Y-75395000D01*
X16511904Y-75442619D01*
X16559523Y-75537857D01*
X16559523Y-75633095D01*
X16511904Y-75775952D01*
X15940476Y-76347380D01*
X16559523Y-76347380D01*
X17511904Y-76347380D02*
X16940476Y-76347380D01*
X17226190Y-76347380D02*
X17226190Y-75347380D01*
X17130952Y-75490238D01*
X17035714Y-75585476D01*
X16940476Y-75633095D01*
X34035714Y-72347380D02*
X34035714Y-71347380D01*
X34607142Y-72347380D02*
X34178571Y-71775952D01*
X34607142Y-71347380D02*
X34035714Y-71918809D01*
X34988095Y-71442619D02*
X35035714Y-71395000D01*
X35130952Y-71347380D01*
X35369047Y-71347380D01*
X35464285Y-71395000D01*
X35511904Y-71442619D01*
X35559523Y-71537857D01*
X35559523Y-71633095D01*
X35511904Y-71775952D01*
X34940476Y-72347380D01*
X35559523Y-72347380D01*
X35940476Y-71442619D02*
X35988095Y-71395000D01*
X36083333Y-71347380D01*
X36321428Y-71347380D01*
X36416666Y-71395000D01*
X36464285Y-71442619D01*
X36511904Y-71537857D01*
X36511904Y-71633095D01*
X36464285Y-71775952D01*
X35892857Y-72347380D01*
X36511904Y-72347380D01*
X52935714Y-68347380D02*
X52935714Y-67347380D01*
X53507142Y-68347380D02*
X53078571Y-67775952D01*
X53507142Y-67347380D02*
X52935714Y-67918809D01*
X53888095Y-67442619D02*
X53935714Y-67395000D01*
X54030952Y-67347380D01*
X54269047Y-67347380D01*
X54364285Y-67395000D01*
X54411904Y-67442619D01*
X54459523Y-67537857D01*
X54459523Y-67633095D01*
X54411904Y-67775952D01*
X53840476Y-68347380D01*
X54459523Y-68347380D01*
X54792857Y-67347380D02*
X55411904Y-67347380D01*
X55078571Y-67728333D01*
X55221428Y-67728333D01*
X55316666Y-67775952D01*
X55364285Y-67823571D01*
X55411904Y-67918809D01*
X55411904Y-68156904D01*
X55364285Y-68252142D01*
X55316666Y-68299761D01*
X55221428Y-68347380D01*
X54935714Y-68347380D01*
X54840476Y-68299761D01*
X54792857Y-68252142D01*
X72035714Y-72347380D02*
X72035714Y-71347380D01*
X72607142Y-72347380D02*
X72178571Y-71775952D01*
X72607142Y-71347380D02*
X72035714Y-71918809D01*
X72988095Y-71442619D02*
X73035714Y-71395000D01*
X73130952Y-71347380D01*
X73369047Y-71347380D01*
X73464285Y-71395000D01*
X73511904Y-71442619D01*
X73559523Y-71537857D01*
X73559523Y-71633095D01*
X73511904Y-71775952D01*
X72940476Y-72347380D01*
X73559523Y-72347380D01*
X74416666Y-71680714D02*
X74416666Y-72347380D01*
X74178571Y-71299761D02*
X73940476Y-72014047D01*
X74559523Y-72014047D01*
X90935714Y-95347380D02*
X90935714Y-94347380D01*
X91507142Y-95347380D02*
X91078571Y-94775952D01*
X91507142Y-94347380D02*
X90935714Y-94918809D01*
X91840476Y-94347380D02*
X92459523Y-94347380D01*
X92126190Y-94728333D01*
X92269047Y-94728333D01*
X92364285Y-94775952D01*
X92411904Y-94823571D01*
X92459523Y-94918809D01*
X92459523Y-95156904D01*
X92411904Y-95252142D01*
X92364285Y-95299761D01*
X92269047Y-95347380D01*
X91983333Y-95347380D01*
X91888095Y-95299761D01*
X91840476Y-95252142D01*
X93316666Y-94680714D02*
X93316666Y-95347380D01*
X93078571Y-94299761D02*
X92840476Y-95014047D01*
X93459523Y-95014047D01*
X106035714Y-114347380D02*
X106035714Y-113347380D01*
X106607142Y-114347380D02*
X106178571Y-113775952D01*
X106607142Y-113347380D02*
X106035714Y-113918809D01*
X106940476Y-113347380D02*
X107559523Y-113347380D01*
X107226190Y-113728333D01*
X107369047Y-113728333D01*
X107464285Y-113775952D01*
X107511904Y-113823571D01*
X107559523Y-113918809D01*
X107559523Y-114156904D01*
X107511904Y-114252142D01*
X107464285Y-114299761D01*
X107369047Y-114347380D01*
X107083333Y-114347380D01*
X106988095Y-114299761D01*
X106940476Y-114252142D01*
X108464285Y-113347380D02*
X107988095Y-113347380D01*
X107940476Y-113823571D01*
X107988095Y-113775952D01*
X108083333Y-113728333D01*
X108321428Y-113728333D01*
X108416666Y-113775952D01*
X108464285Y-113823571D01*
X108511904Y-113918809D01*
X108511904Y-114156904D01*
X108464285Y-114252142D01*
X108416666Y-114299761D01*
X108321428Y-114347380D01*
X108083333Y-114347380D01*
X107988095Y-114299761D01*
X107940476Y-114252142D01*
X181175714Y-38207380D02*
X181175714Y-37207380D01*
X181747142Y-38207380D02*
X181318571Y-37635952D01*
X181747142Y-37207380D02*
X181175714Y-37778809D01*
X182604285Y-37540714D02*
X182604285Y-38207380D01*
X182366190Y-37159761D02*
X182128095Y-37874047D01*
X182747142Y-37874047D01*
X183318571Y-37207380D02*
X183413809Y-37207380D01*
X183509047Y-37255000D01*
X183556666Y-37302619D01*
X183604285Y-37397857D01*
X183651904Y-37588333D01*
X183651904Y-37826428D01*
X183604285Y-38016904D01*
X183556666Y-38112142D01*
X183509047Y-38159761D01*
X183413809Y-38207380D01*
X183318571Y-38207380D01*
X183223333Y-38159761D01*
X183175714Y-38112142D01*
X183128095Y-38016904D01*
X183080476Y-37826428D01*
X183080476Y-37588333D01*
X183128095Y-37397857D01*
X183175714Y-37302619D01*
X183223333Y-37255000D01*
X183318571Y-37207380D01*
X199985714Y-34347380D02*
X199985714Y-33347380D01*
X200557142Y-34347380D02*
X200128571Y-33775952D01*
X200557142Y-33347380D02*
X199985714Y-33918809D01*
X201414285Y-33680714D02*
X201414285Y-34347380D01*
X201176190Y-33299761D02*
X200938095Y-34014047D01*
X201557142Y-34014047D01*
X202461904Y-34347380D02*
X201890476Y-34347380D01*
X202176190Y-34347380D02*
X202176190Y-33347380D01*
X202080952Y-33490238D01*
X201985714Y-33585476D01*
X201890476Y-33633095D01*
X219085714Y-30347380D02*
X219085714Y-29347380D01*
X219657142Y-30347380D02*
X219228571Y-29775952D01*
X219657142Y-29347380D02*
X219085714Y-29918809D01*
X220514285Y-29680714D02*
X220514285Y-30347380D01*
X220276190Y-29299761D02*
X220038095Y-30014047D01*
X220657142Y-30014047D01*
X220990476Y-29442619D02*
X221038095Y-29395000D01*
X221133333Y-29347380D01*
X221371428Y-29347380D01*
X221466666Y-29395000D01*
X221514285Y-29442619D01*
X221561904Y-29537857D01*
X221561904Y-29633095D01*
X221514285Y-29775952D01*
X220942857Y-30347380D01*
X221561904Y-30347380D01*
X237985714Y-34247380D02*
X237985714Y-33247380D01*
X238557142Y-34247380D02*
X238128571Y-33675952D01*
X238557142Y-33247380D02*
X237985714Y-33818809D01*
X239414285Y-33580714D02*
X239414285Y-34247380D01*
X239176190Y-33199761D02*
X238938095Y-33914047D01*
X239557142Y-33914047D01*
X239842857Y-33247380D02*
X240461904Y-33247380D01*
X240128571Y-33628333D01*
X240271428Y-33628333D01*
X240366666Y-33675952D01*
X240414285Y-33723571D01*
X240461904Y-33818809D01*
X240461904Y-34056904D01*
X240414285Y-34152142D01*
X240366666Y-34199761D01*
X240271428Y-34247380D01*
X239985714Y-34247380D01*
X239890476Y-34199761D01*
X239842857Y-34152142D01*
X256975714Y-38307380D02*
X256975714Y-37307380D01*
X257547142Y-38307380D02*
X257118571Y-37735952D01*
X257547142Y-37307380D02*
X256975714Y-37878809D01*
X258404285Y-37640714D02*
X258404285Y-38307380D01*
X258166190Y-37259761D02*
X257928095Y-37974047D01*
X258547142Y-37974047D01*
X259356666Y-37640714D02*
X259356666Y-38307380D01*
X259118571Y-37259761D02*
X258880476Y-37974047D01*
X259499523Y-37974047D01*
X275985714Y-42347380D02*
X275985714Y-41347380D01*
X276557142Y-42347380D02*
X276128571Y-41775952D01*
X276557142Y-41347380D02*
X275985714Y-41918809D01*
X277414285Y-41680714D02*
X277414285Y-42347380D01*
X277176190Y-41299761D02*
X276938095Y-42014047D01*
X277557142Y-42014047D01*
X278414285Y-41347380D02*
X277938095Y-41347380D01*
X277890476Y-41823571D01*
X277938095Y-41775952D01*
X278033333Y-41728333D01*
X278271428Y-41728333D01*
X278366666Y-41775952D01*
X278414285Y-41823571D01*
X278461904Y-41918809D01*
X278461904Y-42156904D01*
X278414285Y-42252142D01*
X278366666Y-42299761D01*
X278271428Y-42347380D01*
X278033333Y-42347380D01*
X277938095Y-42299761D01*
X277890476Y-42252142D01*
X181085714Y-57347380D02*
X181085714Y-56347380D01*
X181657142Y-57347380D02*
X181228571Y-56775952D01*
X181657142Y-56347380D02*
X181085714Y-56918809D01*
X182561904Y-56347380D02*
X182085714Y-56347380D01*
X182038095Y-56823571D01*
X182085714Y-56775952D01*
X182180952Y-56728333D01*
X182419047Y-56728333D01*
X182514285Y-56775952D01*
X182561904Y-56823571D01*
X182609523Y-56918809D01*
X182609523Y-57156904D01*
X182561904Y-57252142D01*
X182514285Y-57299761D01*
X182419047Y-57347380D01*
X182180952Y-57347380D01*
X182085714Y-57299761D01*
X182038095Y-57252142D01*
X183228571Y-56347380D02*
X183323809Y-56347380D01*
X183419047Y-56395000D01*
X183466666Y-56442619D01*
X183514285Y-56537857D01*
X183561904Y-56728333D01*
X183561904Y-56966428D01*
X183514285Y-57156904D01*
X183466666Y-57252142D01*
X183419047Y-57299761D01*
X183323809Y-57347380D01*
X183228571Y-57347380D01*
X183133333Y-57299761D01*
X183085714Y-57252142D01*
X183038095Y-57156904D01*
X182990476Y-56966428D01*
X182990476Y-56728333D01*
X183038095Y-56537857D01*
X183085714Y-56442619D01*
X183133333Y-56395000D01*
X183228571Y-56347380D01*
X199985714Y-53347380D02*
X199985714Y-52347380D01*
X200557142Y-53347380D02*
X200128571Y-52775952D01*
X200557142Y-52347380D02*
X199985714Y-52918809D01*
X201461904Y-52347380D02*
X200985714Y-52347380D01*
X200938095Y-52823571D01*
X200985714Y-52775952D01*
X201080952Y-52728333D01*
X201319047Y-52728333D01*
X201414285Y-52775952D01*
X201461904Y-52823571D01*
X201509523Y-52918809D01*
X201509523Y-53156904D01*
X201461904Y-53252142D01*
X201414285Y-53299761D01*
X201319047Y-53347380D01*
X201080952Y-53347380D01*
X200985714Y-53299761D01*
X200938095Y-53252142D01*
X202461904Y-53347380D02*
X201890476Y-53347380D01*
X202176190Y-53347380D02*
X202176190Y-52347380D01*
X202080952Y-52490238D01*
X201985714Y-52585476D01*
X201890476Y-52633095D01*
X218985714Y-49447380D02*
X218985714Y-48447380D01*
X219557142Y-49447380D02*
X219128571Y-48875952D01*
X219557142Y-48447380D02*
X218985714Y-49018809D01*
X220461904Y-48447380D02*
X219985714Y-48447380D01*
X219938095Y-48923571D01*
X219985714Y-48875952D01*
X220080952Y-48828333D01*
X220319047Y-48828333D01*
X220414285Y-48875952D01*
X220461904Y-48923571D01*
X220509523Y-49018809D01*
X220509523Y-49256904D01*
X220461904Y-49352142D01*
X220414285Y-49399761D01*
X220319047Y-49447380D01*
X220080952Y-49447380D01*
X219985714Y-49399761D01*
X219938095Y-49352142D01*
X220890476Y-48542619D02*
X220938095Y-48495000D01*
X221033333Y-48447380D01*
X221271428Y-48447380D01*
X221366666Y-48495000D01*
X221414285Y-48542619D01*
X221461904Y-48637857D01*
X221461904Y-48733095D01*
X221414285Y-48875952D01*
X220842857Y-49447380D01*
X221461904Y-49447380D01*
X238085714Y-53247380D02*
X238085714Y-52247380D01*
X238657142Y-53247380D02*
X238228571Y-52675952D01*
X238657142Y-52247380D02*
X238085714Y-52818809D01*
X239561904Y-52247380D02*
X239085714Y-52247380D01*
X239038095Y-52723571D01*
X239085714Y-52675952D01*
X239180952Y-52628333D01*
X239419047Y-52628333D01*
X239514285Y-52675952D01*
X239561904Y-52723571D01*
X239609523Y-52818809D01*
X239609523Y-53056904D01*
X239561904Y-53152142D01*
X239514285Y-53199761D01*
X239419047Y-53247380D01*
X239180952Y-53247380D01*
X239085714Y-53199761D01*
X239038095Y-53152142D01*
X239942857Y-52247380D02*
X240561904Y-52247380D01*
X240228571Y-52628333D01*
X240371428Y-52628333D01*
X240466666Y-52675952D01*
X240514285Y-52723571D01*
X240561904Y-52818809D01*
X240561904Y-53056904D01*
X240514285Y-53152142D01*
X240466666Y-53199761D01*
X240371428Y-53247380D01*
X240085714Y-53247380D01*
X239990476Y-53199761D01*
X239942857Y-53152142D01*
X256985714Y-57347380D02*
X256985714Y-56347380D01*
X257557142Y-57347380D02*
X257128571Y-56775952D01*
X257557142Y-56347380D02*
X256985714Y-56918809D01*
X258461904Y-56347380D02*
X257985714Y-56347380D01*
X257938095Y-56823571D01*
X257985714Y-56775952D01*
X258080952Y-56728333D01*
X258319047Y-56728333D01*
X258414285Y-56775952D01*
X258461904Y-56823571D01*
X258509523Y-56918809D01*
X258509523Y-57156904D01*
X258461904Y-57252142D01*
X258414285Y-57299761D01*
X258319047Y-57347380D01*
X258080952Y-57347380D01*
X257985714Y-57299761D01*
X257938095Y-57252142D01*
X259366666Y-56680714D02*
X259366666Y-57347380D01*
X259128571Y-56299761D02*
X258890476Y-57014047D01*
X259509523Y-57014047D01*
X276085714Y-61347380D02*
X276085714Y-60347380D01*
X276657142Y-61347380D02*
X276228571Y-60775952D01*
X276657142Y-60347380D02*
X276085714Y-60918809D01*
X277561904Y-60347380D02*
X277085714Y-60347380D01*
X277038095Y-60823571D01*
X277085714Y-60775952D01*
X277180952Y-60728333D01*
X277419047Y-60728333D01*
X277514285Y-60775952D01*
X277561904Y-60823571D01*
X277609523Y-60918809D01*
X277609523Y-61156904D01*
X277561904Y-61252142D01*
X277514285Y-61299761D01*
X277419047Y-61347380D01*
X277180952Y-61347380D01*
X277085714Y-61299761D01*
X277038095Y-61252142D01*
X278514285Y-60347380D02*
X278038095Y-60347380D01*
X277990476Y-60823571D01*
X278038095Y-60775952D01*
X278133333Y-60728333D01*
X278371428Y-60728333D01*
X278466666Y-60775952D01*
X278514285Y-60823571D01*
X278561904Y-60918809D01*
X278561904Y-61156904D01*
X278514285Y-61252142D01*
X278466666Y-61299761D01*
X278371428Y-61347380D01*
X278133333Y-61347380D01*
X278038095Y-61299761D01*
X277990476Y-61252142D01*
X181085714Y-76347380D02*
X181085714Y-75347380D01*
X181657142Y-76347380D02*
X181228571Y-75775952D01*
X181657142Y-75347380D02*
X181085714Y-75918809D01*
X182514285Y-75347380D02*
X182323809Y-75347380D01*
X182228571Y-75395000D01*
X182180952Y-75442619D01*
X182085714Y-75585476D01*
X182038095Y-75775952D01*
X182038095Y-76156904D01*
X182085714Y-76252142D01*
X182133333Y-76299761D01*
X182228571Y-76347380D01*
X182419047Y-76347380D01*
X182514285Y-76299761D01*
X182561904Y-76252142D01*
X182609523Y-76156904D01*
X182609523Y-75918809D01*
X182561904Y-75823571D01*
X182514285Y-75775952D01*
X182419047Y-75728333D01*
X182228571Y-75728333D01*
X182133333Y-75775952D01*
X182085714Y-75823571D01*
X182038095Y-75918809D01*
X183228571Y-75347380D02*
X183323809Y-75347380D01*
X183419047Y-75395000D01*
X183466666Y-75442619D01*
X183514285Y-75537857D01*
X183561904Y-75728333D01*
X183561904Y-75966428D01*
X183514285Y-76156904D01*
X183466666Y-76252142D01*
X183419047Y-76299761D01*
X183323809Y-76347380D01*
X183228571Y-76347380D01*
X183133333Y-76299761D01*
X183085714Y-76252142D01*
X183038095Y-76156904D01*
X182990476Y-75966428D01*
X182990476Y-75728333D01*
X183038095Y-75537857D01*
X183085714Y-75442619D01*
X183133333Y-75395000D01*
X183228571Y-75347380D01*
X200085714Y-72347380D02*
X200085714Y-71347380D01*
X200657142Y-72347380D02*
X200228571Y-71775952D01*
X200657142Y-71347380D02*
X200085714Y-71918809D01*
X201514285Y-71347380D02*
X201323809Y-71347380D01*
X201228571Y-71395000D01*
X201180952Y-71442619D01*
X201085714Y-71585476D01*
X201038095Y-71775952D01*
X201038095Y-72156904D01*
X201085714Y-72252142D01*
X201133333Y-72299761D01*
X201228571Y-72347380D01*
X201419047Y-72347380D01*
X201514285Y-72299761D01*
X201561904Y-72252142D01*
X201609523Y-72156904D01*
X201609523Y-71918809D01*
X201561904Y-71823571D01*
X201514285Y-71775952D01*
X201419047Y-71728333D01*
X201228571Y-71728333D01*
X201133333Y-71775952D01*
X201085714Y-71823571D01*
X201038095Y-71918809D01*
X202561904Y-72347380D02*
X201990476Y-72347380D01*
X202276190Y-72347380D02*
X202276190Y-71347380D01*
X202180952Y-71490238D01*
X202085714Y-71585476D01*
X201990476Y-71633095D01*
X218985714Y-68247380D02*
X218985714Y-67247380D01*
X219557142Y-68247380D02*
X219128571Y-67675952D01*
X219557142Y-67247380D02*
X218985714Y-67818809D01*
X220414285Y-67247380D02*
X220223809Y-67247380D01*
X220128571Y-67295000D01*
X220080952Y-67342619D01*
X219985714Y-67485476D01*
X219938095Y-67675952D01*
X219938095Y-68056904D01*
X219985714Y-68152142D01*
X220033333Y-68199761D01*
X220128571Y-68247380D01*
X220319047Y-68247380D01*
X220414285Y-68199761D01*
X220461904Y-68152142D01*
X220509523Y-68056904D01*
X220509523Y-67818809D01*
X220461904Y-67723571D01*
X220414285Y-67675952D01*
X220319047Y-67628333D01*
X220128571Y-67628333D01*
X220033333Y-67675952D01*
X219985714Y-67723571D01*
X219938095Y-67818809D01*
X220890476Y-67342619D02*
X220938095Y-67295000D01*
X221033333Y-67247380D01*
X221271428Y-67247380D01*
X221366666Y-67295000D01*
X221414285Y-67342619D01*
X221461904Y-67437857D01*
X221461904Y-67533095D01*
X221414285Y-67675952D01*
X220842857Y-68247380D01*
X221461904Y-68247380D01*
X237985714Y-72347380D02*
X237985714Y-71347380D01*
X238557142Y-72347380D02*
X238128571Y-71775952D01*
X238557142Y-71347380D02*
X237985714Y-71918809D01*
X239414285Y-71347380D02*
X239223809Y-71347380D01*
X239128571Y-71395000D01*
X239080952Y-71442619D01*
X238985714Y-71585476D01*
X238938095Y-71775952D01*
X238938095Y-72156904D01*
X238985714Y-72252142D01*
X239033333Y-72299761D01*
X239128571Y-72347380D01*
X239319047Y-72347380D01*
X239414285Y-72299761D01*
X239461904Y-72252142D01*
X239509523Y-72156904D01*
X239509523Y-71918809D01*
X239461904Y-71823571D01*
X239414285Y-71775952D01*
X239319047Y-71728333D01*
X239128571Y-71728333D01*
X239033333Y-71775952D01*
X238985714Y-71823571D01*
X238938095Y-71918809D01*
X239842857Y-71347380D02*
X240461904Y-71347380D01*
X240128571Y-71728333D01*
X240271428Y-71728333D01*
X240366666Y-71775952D01*
X240414285Y-71823571D01*
X240461904Y-71918809D01*
X240461904Y-72156904D01*
X240414285Y-72252142D01*
X240366666Y-72299761D01*
X240271428Y-72347380D01*
X239985714Y-72347380D01*
X239890476Y-72299761D01*
X239842857Y-72252142D01*
X256985714Y-76347380D02*
X256985714Y-75347380D01*
X257557142Y-76347380D02*
X257128571Y-75775952D01*
X257557142Y-75347380D02*
X256985714Y-75918809D01*
X258414285Y-75347380D02*
X258223809Y-75347380D01*
X258128571Y-75395000D01*
X258080952Y-75442619D01*
X257985714Y-75585476D01*
X257938095Y-75775952D01*
X257938095Y-76156904D01*
X257985714Y-76252142D01*
X258033333Y-76299761D01*
X258128571Y-76347380D01*
X258319047Y-76347380D01*
X258414285Y-76299761D01*
X258461904Y-76252142D01*
X258509523Y-76156904D01*
X258509523Y-75918809D01*
X258461904Y-75823571D01*
X258414285Y-75775952D01*
X258319047Y-75728333D01*
X258128571Y-75728333D01*
X258033333Y-75775952D01*
X257985714Y-75823571D01*
X257938095Y-75918809D01*
X259366666Y-75680714D02*
X259366666Y-76347380D01*
X259128571Y-75299761D02*
X258890476Y-76014047D01*
X259509523Y-76014047D01*
X276085714Y-80347380D02*
X276085714Y-79347380D01*
X276657142Y-80347380D02*
X276228571Y-79775952D01*
X276657142Y-79347380D02*
X276085714Y-79918809D01*
X277514285Y-79347380D02*
X277323809Y-79347380D01*
X277228571Y-79395000D01*
X277180952Y-79442619D01*
X277085714Y-79585476D01*
X277038095Y-79775952D01*
X277038095Y-80156904D01*
X277085714Y-80252142D01*
X277133333Y-80299761D01*
X277228571Y-80347380D01*
X277419047Y-80347380D01*
X277514285Y-80299761D01*
X277561904Y-80252142D01*
X277609523Y-80156904D01*
X277609523Y-79918809D01*
X277561904Y-79823571D01*
X277514285Y-79775952D01*
X277419047Y-79728333D01*
X277228571Y-79728333D01*
X277133333Y-79775952D01*
X277085714Y-79823571D01*
X277038095Y-79918809D01*
X278514285Y-79347380D02*
X278038095Y-79347380D01*
X277990476Y-79823571D01*
X278038095Y-79775952D01*
X278133333Y-79728333D01*
X278371428Y-79728333D01*
X278466666Y-79775952D01*
X278514285Y-79823571D01*
X278561904Y-79918809D01*
X278561904Y-80156904D01*
X278514285Y-80252142D01*
X278466666Y-80299761D01*
X278371428Y-80347380D01*
X278133333Y-80347380D01*
X278038095Y-80299761D01*
X277990476Y-80252142D01*
X166085714Y-114347380D02*
X166085714Y-113347380D01*
X166657142Y-114347380D02*
X166228571Y-113775952D01*
X166657142Y-113347380D02*
X166085714Y-113918809D01*
X166990476Y-113347380D02*
X167657142Y-113347380D01*
X167228571Y-114347380D01*
X168228571Y-113347380D02*
X168323809Y-113347380D01*
X168419047Y-113395000D01*
X168466666Y-113442619D01*
X168514285Y-113537857D01*
X168561904Y-113728333D01*
X168561904Y-113966428D01*
X168514285Y-114156904D01*
X168466666Y-114252142D01*
X168419047Y-114299761D01*
X168323809Y-114347380D01*
X168228571Y-114347380D01*
X168133333Y-114299761D01*
X168085714Y-114252142D01*
X168038095Y-114156904D01*
X167990476Y-113966428D01*
X167990476Y-113728333D01*
X168038095Y-113537857D01*
X168085714Y-113442619D01*
X168133333Y-113395000D01*
X168228571Y-113347380D01*
X180985714Y-95347380D02*
X180985714Y-94347380D01*
X181557142Y-95347380D02*
X181128571Y-94775952D01*
X181557142Y-94347380D02*
X180985714Y-94918809D01*
X181890476Y-94347380D02*
X182557142Y-94347380D01*
X182128571Y-95347380D01*
X183461904Y-95347380D02*
X182890476Y-95347380D01*
X183176190Y-95347380D02*
X183176190Y-94347380D01*
X183080952Y-94490238D01*
X182985714Y-94585476D01*
X182890476Y-94633095D01*
X200085714Y-91247380D02*
X200085714Y-90247380D01*
X200657142Y-91247380D02*
X200228571Y-90675952D01*
X200657142Y-90247380D02*
X200085714Y-90818809D01*
X200990476Y-90247380D02*
X201657142Y-90247380D01*
X201228571Y-91247380D01*
X201990476Y-90342619D02*
X202038095Y-90295000D01*
X202133333Y-90247380D01*
X202371428Y-90247380D01*
X202466666Y-90295000D01*
X202514285Y-90342619D01*
X202561904Y-90437857D01*
X202561904Y-90533095D01*
X202514285Y-90675952D01*
X201942857Y-91247380D01*
X202561904Y-91247380D01*
M02*
