G04 #@! TF.GenerationSoftware,KiCad,Pcbnew,5.1.10*
G04 #@! TF.CreationDate,2021-10-24T21:55:21+02:00*
G04 #@! TF.ProjectId,pcb,7063622e-6b69-4636-9164-5f7063625858,rev?*
G04 #@! TF.SameCoordinates,Original*
G04 #@! TF.FileFunction,Profile,NP*
%FSLAX46Y46*%
G04 Gerber Fmt 4.6, Leading zero omitted, Abs format (unit mm)*
G04 Created by KiCad (PCBNEW 5.1.10) date 2021-10-24 21:55:21*
%MOMM*%
%LPD*%
G01*
G04 APERTURE LIST*
G04 #@! TA.AperFunction,Profile*
%ADD10C,0.200000*%
G04 #@! TD*
G04 APERTURE END LIST*
D10*
X268100500Y-53445001D02*
X268100500Y-55000000D01*
X262100500Y-55000000D02*
X262100500Y-53445001D01*
X60100500Y-55000000D02*
X60100500Y-53445000D01*
X54100500Y-55000000D02*
X54100500Y-53445000D01*
X268100500Y-55000000D02*
G75*
G02*
X262100500Y-55000000I-3000000J0D01*
G01*
X90100500Y-137445000D02*
X110100500Y-137445000D01*
X35100500Y-119445000D02*
G75*
G02*
X41100500Y-119445000I3000000J0D01*
G01*
X57100500Y-114444999D02*
X76100500Y-114445000D01*
X48517175Y-119873570D02*
G75*
G02*
X57100500Y-114444999I8583325J-4071429D01*
G01*
X48517174Y-119873571D02*
G75*
G02*
X44451389Y-122444999I-4065785J1928571D01*
G01*
X41100500Y-122445000D02*
X44451389Y-122444999D01*
X41100500Y-119445000D02*
X41100500Y-122445000D01*
X35100500Y-122445000D02*
X35100500Y-119445000D01*
X14100500Y-122445000D02*
X35100500Y-122445000D01*
X14100501Y-122444999D02*
G75*
G02*
X9600500Y-117945000I-1J4500000D01*
G01*
X9600500Y-65945000D02*
X9600500Y-117945000D01*
X9600500Y-65945000D02*
G75*
G02*
X14100500Y-61445000I4500000J0D01*
G01*
X38100499Y-61445000D02*
X14100500Y-61445000D01*
X46683824Y-56016430D02*
G75*
G02*
X38100499Y-61445000I-8583324J4071429D01*
G01*
X46683825Y-56016429D02*
G75*
G02*
X50749610Y-53445001I4065785J-1928571D01*
G01*
X54100500Y-53445000D02*
X50749610Y-53445001D01*
X60100500Y-55000000D02*
G75*
G02*
X54100500Y-55000000I-3000000J0D01*
G01*
X101451389Y-53445000D02*
X60100500Y-53445000D01*
X101451389Y-53445001D02*
G75*
G02*
X105517174Y-56016429I0J-4499999D01*
G01*
X114100499Y-61445002D02*
G75*
G02*
X105517174Y-56016429I1J9500001D01*
G01*
X216683824Y-56016430D02*
G75*
G02*
X220749610Y-53445001I4065786J-1928571D01*
G01*
X262100500Y-53445001D02*
X220749610Y-53445001D01*
X271451389Y-53445001D02*
X268100500Y-53445001D01*
X271451388Y-53445001D02*
G75*
G02*
X275517174Y-56016429I1J-4500000D01*
G01*
X284100499Y-61445002D02*
G75*
G02*
X275517174Y-56016429I1J9500001D01*
G01*
X308100500Y-61445001D02*
X284100500Y-61445001D01*
X308100500Y-61445000D02*
G75*
G02*
X312600500Y-65945000I0J-4500000D01*
G01*
X312600500Y-117945000D02*
X312600500Y-65945000D01*
X312600500Y-117945000D02*
G75*
G02*
X308100500Y-122445000I-4500000J0D01*
G01*
X287100500Y-122445000D02*
X308100500Y-122445000D01*
X287100500Y-119445000D02*
X287100500Y-122445000D01*
X281100500Y-119445000D02*
G75*
G02*
X287100500Y-119445000I3000000J0D01*
G01*
X281100500Y-122445000D02*
X281100500Y-119445000D01*
X277749610Y-122445000D02*
X281100500Y-122445000D01*
X277749610Y-122444999D02*
G75*
G02*
X273683825Y-119873571I0J4499999D01*
G01*
X265100500Y-114445000D02*
G75*
G02*
X273683825Y-119873571I0J-9500000D01*
G01*
X246100500Y-114445000D02*
X265100500Y-114445000D01*
X236600500Y-123945000D02*
G75*
G02*
X246100500Y-114445000I9500000J0D01*
G01*
X236600500Y-132945000D02*
X236600500Y-123945000D01*
X236600500Y-132945000D02*
G75*
G02*
X232100500Y-137445000I-4500000J0D01*
G01*
X212100500Y-137445000D02*
X232100500Y-137445000D01*
X202600500Y-146945000D02*
G75*
G02*
X212100500Y-137445000I9500000J0D01*
G01*
X202600500Y-151945000D02*
X202600500Y-146945000D01*
X202600500Y-151945000D02*
G75*
G02*
X198100500Y-156445000I-4500000J0D01*
G01*
X124100500Y-156445000D02*
X198100500Y-156445000D01*
X124100500Y-156445000D02*
G75*
G02*
X119600500Y-151945000I0J4500000D01*
G01*
X119600500Y-146945000D02*
X119600500Y-151945000D01*
X110100501Y-137444999D02*
G75*
G02*
X119600500Y-146945000I-1J-9500000D01*
G01*
X90100500Y-137445000D02*
G75*
G02*
X85600500Y-132945000I0J4500000D01*
G01*
X85600500Y-123945000D02*
X85600500Y-132945000D01*
X76100501Y-114444999D02*
G75*
G02*
X85600500Y-123945000I-1J-9500000D01*
G01*
X216683824Y-56016429D02*
G75*
G02*
X208100500Y-61445000I-8583324J4071428D01*
G01*
X114100500Y-61445000D02*
X208100500Y-61445000D01*
X198600500Y-127945000D02*
G75*
G03*
X198600500Y-127945000I-5500000J0D01*
G01*
X134600501Y-127945000D02*
G75*
G03*
X134600501Y-127945000I-5500000J0D01*
G01*
X198600500Y-70945000D02*
G75*
G03*
X198600500Y-70945000I-5500000J0D01*
G01*
X134600497Y-70944999D02*
G75*
G03*
X134600497Y-70944999I-5500000J0D01*
G01*
M02*
