G04 #@! TF.GenerationSoftware,KiCad,Pcbnew,5.1.2*
G04 #@! TF.CreationDate,2019-06-08T15:08:02+02:00*
G04 #@! TF.ProjectId,pcb,7063622e-6b69-4636-9164-5f7063625858,rev?*
G04 #@! TF.SameCoordinates,Original*
G04 #@! TF.FileFunction,Copper,L1,Top*
G04 #@! TF.FilePolarity,Positive*
%FSLAX46Y46*%
G04 Gerber Fmt 4.6, Leading zero omitted, Abs format (unit mm)*
G04 Created by KiCad (PCBNEW 5.1.2) date 2019-06-08 15:08:02*
%MOMM*%
%LPD*%
G04 APERTURE LIST*
%ADD10C,1.524000*%
%ADD11C,2.500000*%
%ADD12C,2.500000*%
%ADD13R,0.500000X2.500000*%
%ADD14C,1.600000*%
%ADD15R,1.600000X1.600000*%
%ADD16R,1.200000X1.200000*%
%ADD17C,0.800000*%
%ADD18C,0.250000*%
G04 APERTURE END LIST*
D10*
X171450000Y-67310000D03*
X151130000Y-105410000D03*
X151130000Y-102870000D03*
X151130000Y-100330000D03*
X151130000Y-97790000D03*
X151130000Y-95250000D03*
X151130000Y-92710000D03*
X151130000Y-90170000D03*
X151130000Y-87630000D03*
X151130000Y-85090000D03*
X151130000Y-82550000D03*
X151130000Y-80010000D03*
X151130000Y-77470000D03*
X171450000Y-105410000D03*
X171450000Y-102870000D03*
X171450000Y-100330000D03*
X171450000Y-97790000D03*
X171450000Y-95250000D03*
X171450000Y-92710000D03*
X171450000Y-90170000D03*
X171450000Y-87630000D03*
X171450000Y-85090000D03*
X171450000Y-82550000D03*
X171450000Y-80010000D03*
X171450000Y-77470000D03*
X171450000Y-74930000D03*
X171450000Y-72390000D03*
X171450000Y-69850000D03*
D11*
X205760000Y-66076000D03*
D12*
X205779724Y-66365328D02*
X205740276Y-65786672D01*
D11*
X211685000Y-67596000D03*
D12*
X212090453Y-68325954D02*
X211279547Y-66866046D01*
D11*
X300756000Y-108240000D03*
D12*
X300775724Y-108529328D02*
X300736276Y-107950672D01*
D11*
X306681000Y-109760000D03*
D12*
X307086453Y-110489954D02*
X306275547Y-109030046D01*
D11*
X126766000Y-142276000D03*
D12*
X126785724Y-142565328D02*
X126746276Y-141986672D01*
D11*
X132691000Y-143796000D03*
D12*
X133096453Y-144525954D02*
X132285547Y-143066046D01*
D13*
X294386000Y-72230000D03*
X294386000Y-77630000D03*
D14*
X294386000Y-71030000D03*
D15*
X294386000Y-78830000D03*
D16*
X294386000Y-76505000D03*
X294386000Y-73355000D03*
D13*
X275590000Y-68166000D03*
X275590000Y-73566000D03*
D14*
X275590000Y-66966000D03*
D15*
X275590000Y-74766000D03*
D16*
X275590000Y-72441000D03*
X275590000Y-69291000D03*
D13*
X256540000Y-64356000D03*
X256540000Y-69756000D03*
D14*
X256540000Y-63156000D03*
D15*
X256540000Y-70956000D03*
D16*
X256540000Y-68631000D03*
X256540000Y-65481000D03*
D13*
X237490000Y-60292000D03*
X237490000Y-65692000D03*
D14*
X237490000Y-59092000D03*
D15*
X237490000Y-66892000D03*
D16*
X237490000Y-64567000D03*
X237490000Y-61417000D03*
D13*
X218694000Y-64102000D03*
X218694000Y-69502000D03*
D14*
X218694000Y-62902000D03*
D15*
X218694000Y-70702000D03*
D16*
X218694000Y-68377000D03*
X218694000Y-65227000D03*
D13*
X184404000Y-67912000D03*
X184404000Y-73312000D03*
D14*
X184404000Y-66712000D03*
D15*
X184404000Y-74512000D03*
D16*
X184404000Y-72187000D03*
X184404000Y-69037000D03*
D13*
X137922000Y-68166000D03*
X137922000Y-73566000D03*
D14*
X137922000Y-66966000D03*
D15*
X137922000Y-74766000D03*
D16*
X137922000Y-72441000D03*
X137922000Y-69291000D03*
D13*
X103886000Y-64356000D03*
X103886000Y-69756000D03*
D14*
X103886000Y-63156000D03*
D15*
X103886000Y-70956000D03*
D16*
X103886000Y-68631000D03*
X103886000Y-65481000D03*
D13*
X84836000Y-60292000D03*
X84836000Y-65692000D03*
D14*
X84836000Y-59092000D03*
D15*
X84836000Y-66892000D03*
D16*
X84836000Y-64567000D03*
X84836000Y-61417000D03*
D13*
X65786000Y-64102000D03*
X65786000Y-69502000D03*
D14*
X65786000Y-62902000D03*
D15*
X65786000Y-70702000D03*
D16*
X65786000Y-68377000D03*
X65786000Y-65227000D03*
D13*
X294640000Y-91280000D03*
X294640000Y-96680000D03*
D14*
X294640000Y-90080000D03*
D15*
X294640000Y-97880000D03*
D16*
X294640000Y-95555000D03*
X294640000Y-92405000D03*
D13*
X275590000Y-87216000D03*
X275590000Y-92616000D03*
D14*
X275590000Y-86016000D03*
D15*
X275590000Y-93816000D03*
D16*
X275590000Y-91491000D03*
X275590000Y-88341000D03*
D13*
X256540000Y-83406000D03*
X256540000Y-88806000D03*
D14*
X256540000Y-82206000D03*
D15*
X256540000Y-90006000D03*
D16*
X256540000Y-87681000D03*
X256540000Y-84531000D03*
D13*
X237490000Y-79342000D03*
X237490000Y-84742000D03*
D14*
X237490000Y-78142000D03*
D15*
X237490000Y-85942000D03*
D16*
X237490000Y-83617000D03*
X237490000Y-80467000D03*
D13*
X218694000Y-83152000D03*
X218694000Y-88552000D03*
D14*
X218694000Y-81952000D03*
D15*
X218694000Y-89752000D03*
D16*
X218694000Y-87427000D03*
X218694000Y-84277000D03*
D13*
X199644000Y-87216000D03*
X199644000Y-92616000D03*
D14*
X199644000Y-86016000D03*
D15*
X199644000Y-93816000D03*
D16*
X199644000Y-91491000D03*
X199644000Y-88341000D03*
D13*
X122936000Y-86962000D03*
X122936000Y-92362000D03*
D14*
X122936000Y-85762000D03*
D15*
X122936000Y-93562000D03*
D16*
X122936000Y-91237000D03*
X122936000Y-88087000D03*
D13*
X103886000Y-83406000D03*
X103886000Y-88806000D03*
D14*
X103886000Y-82206000D03*
D15*
X103886000Y-90006000D03*
D16*
X103886000Y-87681000D03*
X103886000Y-84531000D03*
D13*
X84836000Y-79088000D03*
X84836000Y-84488000D03*
D14*
X84836000Y-77888000D03*
D15*
X84836000Y-85688000D03*
D16*
X84836000Y-83363000D03*
X84836000Y-80213000D03*
D13*
X65786000Y-83152000D03*
X65786000Y-88552000D03*
D14*
X65786000Y-81952000D03*
D15*
X65786000Y-89752000D03*
D16*
X65786000Y-87427000D03*
X65786000Y-84277000D03*
D13*
X294640000Y-110330000D03*
X294640000Y-115730000D03*
D14*
X294640000Y-109130000D03*
D15*
X294640000Y-116930000D03*
D16*
X294640000Y-114605000D03*
X294640000Y-111455000D03*
D13*
X275590000Y-106266000D03*
X275590000Y-111666000D03*
D14*
X275590000Y-105066000D03*
D15*
X275590000Y-112866000D03*
D16*
X275590000Y-110541000D03*
X275590000Y-107391000D03*
D13*
X256540000Y-102456000D03*
X256540000Y-107856000D03*
D14*
X256540000Y-101256000D03*
D15*
X256540000Y-109056000D03*
D16*
X256540000Y-106731000D03*
X256540000Y-103581000D03*
D13*
X237490000Y-98138000D03*
X237490000Y-103538000D03*
D14*
X237490000Y-96938000D03*
D15*
X237490000Y-104738000D03*
D16*
X237490000Y-102413000D03*
X237490000Y-99263000D03*
D13*
X218694000Y-102202000D03*
X218694000Y-107602000D03*
D14*
X218694000Y-101002000D03*
D15*
X218694000Y-108802000D03*
D16*
X218694000Y-106477000D03*
X218694000Y-103327000D03*
D13*
X199644000Y-106266000D03*
X199644000Y-111666000D03*
D14*
X199644000Y-105066000D03*
D15*
X199644000Y-112866000D03*
D16*
X199644000Y-110541000D03*
X199644000Y-107391000D03*
D13*
X122936000Y-106266000D03*
X122936000Y-111666000D03*
D14*
X122936000Y-105066000D03*
D15*
X122936000Y-112866000D03*
D16*
X122936000Y-110541000D03*
X122936000Y-107391000D03*
D13*
X103886000Y-102202000D03*
X103886000Y-107602000D03*
D14*
X103886000Y-101002000D03*
D15*
X103886000Y-108802000D03*
D16*
X103886000Y-106477000D03*
X103886000Y-103327000D03*
D13*
X84836000Y-98138000D03*
X84836000Y-103538000D03*
D14*
X84836000Y-96938000D03*
D15*
X84836000Y-104738000D03*
D16*
X84836000Y-102413000D03*
X84836000Y-99263000D03*
D13*
X65786000Y-102202000D03*
X65786000Y-107602000D03*
D14*
X65786000Y-101002000D03*
D15*
X65786000Y-108802000D03*
D16*
X65786000Y-106477000D03*
X65786000Y-103327000D03*
D13*
X218694000Y-121252000D03*
X218694000Y-126652000D03*
D14*
X218694000Y-120052000D03*
D15*
X218694000Y-127852000D03*
D16*
X218694000Y-125527000D03*
X218694000Y-122377000D03*
D13*
X184404000Y-125316000D03*
X184404000Y-130716000D03*
D14*
X184404000Y-124116000D03*
D15*
X184404000Y-131916000D03*
D16*
X184404000Y-129591000D03*
X184404000Y-126441000D03*
D13*
X184404000Y-144112000D03*
X184404000Y-149512000D03*
D14*
X184404000Y-142912000D03*
D15*
X184404000Y-150712000D03*
D16*
X184404000Y-148387000D03*
X184404000Y-145237000D03*
D13*
X137922000Y-144366000D03*
X137922000Y-149766000D03*
D14*
X137922000Y-143166000D03*
D15*
X137922000Y-150966000D03*
D16*
X137922000Y-148641000D03*
X137922000Y-145491000D03*
D13*
X137922000Y-125316000D03*
X137922000Y-130716000D03*
D14*
X137922000Y-124116000D03*
D15*
X137922000Y-131916000D03*
D16*
X137922000Y-129591000D03*
X137922000Y-126441000D03*
D13*
X103886000Y-121252000D03*
X103886000Y-126652000D03*
D14*
X103886000Y-120052000D03*
D15*
X103886000Y-127852000D03*
D16*
X103886000Y-125527000D03*
X103886000Y-122377000D03*
D13*
X46736000Y-68166000D03*
X46736000Y-73566000D03*
D14*
X46736000Y-66966000D03*
D15*
X46736000Y-74766000D03*
D16*
X46736000Y-72441000D03*
X46736000Y-69291000D03*
D13*
X27940000Y-72230000D03*
X27940000Y-77630000D03*
D14*
X27940000Y-71030000D03*
D15*
X27940000Y-78830000D03*
D16*
X27940000Y-76505000D03*
X27940000Y-73355000D03*
D13*
X46736000Y-82898000D03*
X46736000Y-88298000D03*
D14*
X46736000Y-81698000D03*
D15*
X46736000Y-89498000D03*
D16*
X46736000Y-87173000D03*
X46736000Y-84023000D03*
D13*
X27940000Y-91280000D03*
X27940000Y-96680000D03*
D14*
X27940000Y-90080000D03*
D15*
X27940000Y-97880000D03*
D16*
X27940000Y-95555000D03*
X27940000Y-92405000D03*
D13*
X46736000Y-106266000D03*
X46736000Y-111666000D03*
D14*
X46736000Y-105066000D03*
D15*
X46736000Y-112866000D03*
D16*
X46736000Y-110541000D03*
X46736000Y-107391000D03*
D13*
X27940000Y-109822000D03*
X27940000Y-115222000D03*
D14*
X27940000Y-108622000D03*
D15*
X27940000Y-116422000D03*
D16*
X27940000Y-114097000D03*
X27940000Y-110947000D03*
D11*
X300502000Y-70140000D03*
D12*
X300521724Y-70429328D02*
X300482276Y-69850672D01*
D11*
X306427000Y-71660000D03*
D12*
X306832453Y-72389954D02*
X306021547Y-70930046D01*
D11*
X281706000Y-66076000D03*
D12*
X281725724Y-66365328D02*
X281686276Y-65786672D01*
D11*
X287631000Y-67596000D03*
D12*
X288036453Y-68325954D02*
X287225547Y-66866046D01*
D11*
X262656000Y-62266000D03*
D12*
X262675724Y-62555328D02*
X262636276Y-61976672D01*
D11*
X268581000Y-63786000D03*
D12*
X268986453Y-64515954D02*
X268175547Y-63056046D01*
D11*
X243606000Y-58202000D03*
D12*
X243625724Y-58491328D02*
X243586276Y-57912672D01*
D11*
X249531000Y-59722000D03*
D12*
X249936453Y-60451954D02*
X249125547Y-58992046D01*
D11*
X224810000Y-62012000D03*
D12*
X224829724Y-62301328D02*
X224790276Y-61722672D01*
D11*
X230735000Y-63532000D03*
D12*
X231140453Y-64261954D02*
X230329547Y-62802046D01*
D11*
X111780000Y-66076000D03*
D12*
X111799724Y-66365328D02*
X111760276Y-65786672D01*
D11*
X117705000Y-67596000D03*
D12*
X118110453Y-68325954D02*
X117299547Y-66866046D01*
D11*
X92730000Y-62139000D03*
D12*
X92749724Y-62428328D02*
X92710276Y-61849672D01*
D11*
X98655000Y-63659000D03*
D12*
X99060453Y-64388954D02*
X98249547Y-62929046D01*
D11*
X73680000Y-58202000D03*
D12*
X73699724Y-58491328D02*
X73660276Y-57912672D01*
D11*
X79605000Y-59722000D03*
D12*
X80010453Y-60451954D02*
X79199547Y-58992046D01*
D11*
X54630000Y-62012000D03*
D12*
X54649724Y-62301328D02*
X54610276Y-61722672D01*
D11*
X60555000Y-63532000D03*
D12*
X60960453Y-64261954D02*
X60149547Y-62802046D01*
D11*
X300756000Y-89190000D03*
D12*
X300775724Y-89479328D02*
X300736276Y-88900672D01*
D11*
X306681000Y-90710000D03*
D12*
X307086453Y-91439954D02*
X306275547Y-89980046D01*
D11*
X281706000Y-85126000D03*
D12*
X281725724Y-85415328D02*
X281686276Y-84836672D01*
D11*
X287631000Y-86646000D03*
D12*
X288036453Y-87375954D02*
X287225547Y-85916046D01*
D11*
X262656000Y-81316000D03*
D12*
X262675724Y-81605328D02*
X262636276Y-81026672D01*
D11*
X268581000Y-82836000D03*
D12*
X268986453Y-83565954D02*
X268175547Y-82106046D01*
D11*
X243606000Y-77252000D03*
D12*
X243625724Y-77541328D02*
X243586276Y-76962672D01*
D11*
X249531000Y-78772000D03*
D12*
X249936453Y-79501954D02*
X249125547Y-78042046D01*
D11*
X224810000Y-81062000D03*
D12*
X224829724Y-81351328D02*
X224790276Y-80772672D01*
D11*
X230735000Y-82582000D03*
D12*
X231140453Y-83311954D02*
X230329547Y-81852046D01*
D11*
X205760000Y-85126000D03*
D12*
X205779724Y-85415328D02*
X205740276Y-84836672D01*
D11*
X211685000Y-86646000D03*
D12*
X212090453Y-87375954D02*
X211279547Y-85916046D01*
D11*
X111780000Y-85126000D03*
D12*
X111799724Y-85415328D02*
X111760276Y-84836672D01*
D11*
X117705000Y-86646000D03*
D12*
X118110453Y-87375954D02*
X117299547Y-85916046D01*
D11*
X92603000Y-81062000D03*
D12*
X92622724Y-81351328D02*
X92583276Y-80772672D01*
D11*
X98528000Y-82582000D03*
D12*
X98933453Y-83311954D02*
X98122547Y-81852046D01*
D11*
X73680000Y-76998000D03*
D12*
X73699724Y-77287328D02*
X73660276Y-76708672D01*
D11*
X79605000Y-78518000D03*
D12*
X80010453Y-79247954D02*
X79199547Y-77788046D01*
D11*
X54630000Y-81062000D03*
D12*
X54649724Y-81351328D02*
X54610276Y-80772672D01*
D11*
X60555000Y-82582000D03*
D12*
X60960453Y-83311954D02*
X60149547Y-81852046D01*
D11*
X281706000Y-104176000D03*
D12*
X281725724Y-104465328D02*
X281686276Y-103886672D01*
D11*
X287631000Y-105696000D03*
D12*
X288036453Y-106425954D02*
X287225547Y-104966046D01*
D11*
X262656000Y-100366000D03*
D12*
X262675724Y-100655328D02*
X262636276Y-100076672D01*
D11*
X268581000Y-101886000D03*
D12*
X268986453Y-102615954D02*
X268175547Y-101156046D01*
D11*
X243606000Y-96048000D03*
D12*
X243625724Y-96337328D02*
X243586276Y-95758672D01*
D11*
X249531000Y-97568000D03*
D12*
X249936453Y-98297954D02*
X249125547Y-96838046D01*
D11*
X224810000Y-100112000D03*
D12*
X224829724Y-100401328D02*
X224790276Y-99822672D01*
D11*
X230735000Y-101632000D03*
D12*
X231140453Y-102361954D02*
X230329547Y-100902046D01*
D11*
X205760000Y-104176000D03*
D12*
X205779724Y-104465328D02*
X205740276Y-103886672D01*
D11*
X211685000Y-105696000D03*
D12*
X212090453Y-106425954D02*
X211279547Y-104966046D01*
D11*
X111780000Y-104176000D03*
D12*
X111799724Y-104465328D02*
X111760276Y-103886672D01*
D11*
X117705000Y-105696000D03*
D12*
X118110453Y-106425954D02*
X117299547Y-104966046D01*
D11*
X92730000Y-100112000D03*
D12*
X92749724Y-100401328D02*
X92710276Y-99822672D01*
D11*
X98655000Y-101632000D03*
D12*
X99060453Y-102361954D02*
X98249547Y-100902046D01*
D11*
X73680000Y-96048000D03*
D12*
X73699724Y-96337328D02*
X73660276Y-95758672D01*
D11*
X79605000Y-97568000D03*
D12*
X80010453Y-98297954D02*
X79199547Y-96838046D01*
D11*
X54630000Y-100112000D03*
D12*
X54649724Y-100401328D02*
X54610276Y-99822672D01*
D11*
X60555000Y-101632000D03*
D12*
X60960453Y-102361954D02*
X60149547Y-100902046D01*
D11*
X224810000Y-119162000D03*
D12*
X224829724Y-119451328D02*
X224790276Y-118872672D01*
D11*
X230735000Y-120682000D03*
D12*
X231140453Y-121411954D02*
X230329547Y-119952046D01*
D11*
X205760000Y-123226000D03*
D12*
X205779724Y-123515328D02*
X205740276Y-122936672D01*
D11*
X211685000Y-124746000D03*
D12*
X212090453Y-125475954D02*
X211279547Y-124016046D01*
D11*
X190520000Y-142022000D03*
D12*
X190539724Y-142311328D02*
X190500276Y-141732672D01*
D11*
X196445000Y-143542000D03*
D12*
X196850453Y-144271954D02*
X196039547Y-142812046D01*
D11*
X111780000Y-123226000D03*
D12*
X111799724Y-123515328D02*
X111760276Y-122936672D01*
D11*
X117705000Y-124746000D03*
D12*
X118110453Y-125475954D02*
X117299547Y-124016046D01*
D11*
X92603000Y-119162000D03*
D12*
X92622724Y-119451328D02*
X92583276Y-118872672D01*
D11*
X98528000Y-120682000D03*
D12*
X98933453Y-121411954D02*
X98122547Y-119952046D01*
D11*
X35580000Y-66076000D03*
D12*
X35599724Y-66365328D02*
X35560276Y-65786672D01*
D11*
X41505000Y-67596000D03*
D12*
X41910453Y-68325954D02*
X41099547Y-66866046D01*
D11*
X16784000Y-70140000D03*
D12*
X16803724Y-70429328D02*
X16764276Y-69850672D01*
D11*
X22709000Y-71660000D03*
D12*
X23114453Y-72389954D02*
X22303547Y-70930046D01*
D11*
X35580000Y-85126000D03*
D12*
X35599724Y-85415328D02*
X35560276Y-84836672D01*
D11*
X41505000Y-86646000D03*
D12*
X41910453Y-87375954D02*
X41099547Y-85916046D01*
D11*
X16784000Y-89190000D03*
D12*
X16803724Y-89479328D02*
X16764276Y-88900672D01*
D11*
X22709000Y-90710000D03*
D12*
X23114453Y-91439954D02*
X22303547Y-89980046D01*
D11*
X35580000Y-104176000D03*
D12*
X35599724Y-104465328D02*
X35560276Y-103886672D01*
D11*
X41505000Y-105696000D03*
D12*
X41910453Y-106425954D02*
X41099547Y-104966046D01*
D11*
X16784000Y-107986000D03*
D12*
X16803724Y-108275328D02*
X16764276Y-107696672D01*
D11*
X22709000Y-109506000D03*
D12*
X23114453Y-110235954D02*
X22303547Y-108776046D01*
D17*
X79605000Y-91289000D03*
X179832000Y-119380000D03*
X183134000Y-116332000D03*
X136652000Y-104140000D03*
X136652000Y-100330000D03*
X142748000Y-121666000D03*
X145288000Y-121666000D03*
X142748000Y-118110000D03*
X145288000Y-118110000D03*
X306681000Y-82550000D03*
X182372000Y-81788000D03*
X185166000Y-81788000D03*
X287631000Y-80518000D03*
X182372000Y-80010000D03*
X191516000Y-80010000D03*
X182626000Y-99060000D03*
X268581000Y-94996000D03*
X182626000Y-96520000D03*
X249531000Y-91797000D03*
X181864000Y-100330000D03*
X179070000Y-96520000D03*
X187706000Y-117094000D03*
X192024000Y-117094000D03*
X213614000Y-117094000D03*
X211685000Y-80923000D03*
X185166000Y-83058000D03*
X182372000Y-83566000D03*
X117705000Y-81383000D03*
X112811500Y-119852500D03*
X145288000Y-115570000D03*
X135382000Y-115570000D03*
X60555000Y-94488000D03*
X142748000Y-85852000D03*
X140970000Y-93726000D03*
X41505000Y-80367000D03*
X136144000Y-85090000D03*
X138938000Y-85344000D03*
X22709000Y-83161000D03*
D18*
X294386000Y-69898630D02*
X294942630Y-69342000D01*
X294386000Y-71030000D02*
X294386000Y-69898630D01*
X294942630Y-69342000D02*
X297180000Y-69342000D01*
X297978000Y-70140000D02*
X300502000Y-70140000D01*
X297180000Y-69342000D02*
X297978000Y-70140000D01*
X85846999Y-91688999D02*
X80004999Y-91688999D01*
X151130000Y-97790000D02*
X146812000Y-102108000D01*
X104648000Y-95250000D02*
X89408000Y-95250000D01*
X80004999Y-91688999D02*
X79605000Y-91289000D01*
X89408000Y-95250000D02*
X85846999Y-91688999D01*
X146812000Y-102108000D02*
X133350000Y-102108000D01*
X109220000Y-99822000D02*
X104648000Y-95250000D01*
X133350000Y-102108000D02*
X131064000Y-99822000D01*
X131064000Y-99822000D02*
X109220000Y-99822000D01*
X275590000Y-65834630D02*
X276146630Y-65278000D01*
X275590000Y-66966000D02*
X275590000Y-65834630D01*
X276146630Y-65278000D02*
X278638000Y-65278000D01*
X279436000Y-66076000D02*
X281706000Y-66076000D01*
X278638000Y-65278000D02*
X279436000Y-66076000D01*
X256540000Y-62024630D02*
X257350630Y-61214000D01*
X256540000Y-63156000D02*
X256540000Y-62024630D01*
X257350630Y-61214000D02*
X259842000Y-61214000D01*
X260894000Y-62266000D02*
X262656000Y-62266000D01*
X259842000Y-61214000D02*
X260894000Y-62266000D01*
X237490000Y-57960630D02*
X238046630Y-57404000D01*
X237490000Y-59092000D02*
X237490000Y-57960630D01*
X238046630Y-57404000D02*
X239776000Y-57404000D01*
X240574000Y-58202000D02*
X243606000Y-58202000D01*
X239776000Y-57404000D02*
X240574000Y-58202000D01*
X223457100Y-62012000D02*
X224810000Y-62012000D01*
X222567100Y-62902000D02*
X223457100Y-62012000D01*
X218694000Y-62902000D02*
X222567100Y-62902000D01*
X205760000Y-66076000D02*
X200188000Y-66076000D01*
X200188000Y-66076000D02*
X197612000Y-63500000D01*
X197612000Y-63500000D02*
X185674000Y-63500000D01*
X185674000Y-63500000D02*
X184404000Y-64770000D01*
X184404000Y-64770000D02*
X184404000Y-66712000D01*
X137922000Y-66966000D02*
X134481400Y-63525400D01*
X114330600Y-63525400D02*
X111780000Y-66076000D01*
X134481400Y-63525400D02*
X114330600Y-63525400D01*
X93828610Y-63237610D02*
X92730000Y-62139000D01*
X103886000Y-63156000D02*
X103886000Y-65113334D01*
X92730000Y-62139000D02*
X88392000Y-66477000D01*
X88392000Y-66477000D02*
X88392000Y-68834000D01*
X88392000Y-68834000D02*
X89154000Y-69596000D01*
X89154000Y-69596000D02*
X100584000Y-69596000D01*
X100584000Y-69596000D02*
X102108000Y-68072000D01*
X102108000Y-64934000D02*
X103886000Y-63156000D01*
X102108000Y-68072000D02*
X102108000Y-64934000D01*
X84836000Y-59092000D02*
X81420800Y-55676800D01*
X76205200Y-55676800D02*
X73680000Y-58202000D01*
X81420800Y-55676800D02*
X76205200Y-55676800D01*
X64986001Y-62102001D02*
X65786000Y-62902000D01*
X63821469Y-60937469D02*
X64986001Y-62102001D01*
X55704531Y-60937469D02*
X63821469Y-60937469D01*
X54630000Y-62012000D02*
X55704531Y-60937469D01*
X299403100Y-89190000D02*
X298351100Y-88138000D01*
X300756000Y-89190000D02*
X299403100Y-89190000D01*
X296582000Y-88138000D02*
X294640000Y-90080000D01*
X298351100Y-88138000D02*
X296582000Y-88138000D01*
X294640000Y-97880000D02*
X276696000Y-97880000D01*
X275590000Y-96774000D02*
X275590000Y-93816000D01*
X276696000Y-97880000D02*
X275590000Y-96774000D01*
X275590000Y-93816000D02*
X257392000Y-93816000D01*
X256540000Y-92964000D02*
X256540000Y-90006000D01*
X257392000Y-93816000D02*
X256540000Y-92964000D01*
X256540000Y-90006000D02*
X238342000Y-90006000D01*
X237490000Y-89154000D02*
X237490000Y-85942000D01*
X238342000Y-90006000D02*
X237490000Y-89154000D01*
X238342000Y-90006000D02*
X235876000Y-90006000D01*
X235876000Y-90006000D02*
X235204000Y-90678000D01*
X235204000Y-90678000D02*
X235204000Y-92964000D01*
X235204000Y-92964000D02*
X234188000Y-93980000D01*
X234188000Y-93980000D02*
X219456000Y-93980000D01*
X218694000Y-93218000D02*
X218694000Y-89752000D01*
X219456000Y-93980000D02*
X218694000Y-93218000D01*
X199644000Y-97536000D02*
X199644000Y-92616000D01*
X216916000Y-93980000D02*
X216154000Y-94996000D01*
X216154000Y-94996000D02*
X216154000Y-97282000D01*
X200406000Y-98298000D02*
X199644000Y-97536000D01*
X219456000Y-93980000D02*
X216916000Y-93980000D01*
X216154000Y-97282000D02*
X215138000Y-98298000D01*
X215138000Y-98298000D02*
X200406000Y-98298000D01*
X27940000Y-97880000D02*
X45630000Y-97880000D01*
X45630000Y-97880000D02*
X46736000Y-96774000D01*
X46736000Y-93726000D02*
X64262000Y-93726000D01*
X46736000Y-93726000D02*
X46736000Y-89498000D01*
X46736000Y-96774000D02*
X46736000Y-93726000D01*
X65786000Y-92202000D02*
X65786000Y-89752000D01*
X64262000Y-93726000D02*
X65786000Y-92202000D01*
X66836000Y-89752000D02*
X66926000Y-89662000D01*
X65786000Y-89752000D02*
X66836000Y-89752000D01*
X66926000Y-89662000D02*
X83566000Y-89662000D01*
X84328000Y-89662000D02*
X83566000Y-89662000D01*
X84836000Y-85688000D02*
X84836000Y-89662000D01*
X84328000Y-89662000D02*
X84836000Y-89662000D01*
X122936000Y-93562000D02*
X122936000Y-96774000D01*
X122936000Y-96774000D02*
X121666000Y-98044000D01*
X103886000Y-91056000D02*
X103886000Y-93726000D01*
X103886000Y-90006000D02*
X103886000Y-91056000D01*
X105410000Y-93726000D02*
X103886000Y-93726000D01*
X200406000Y-98298000D02*
X189738000Y-98298000D01*
X185674000Y-98298000D02*
X189738000Y-98298000D01*
X182118000Y-98298000D02*
X185674000Y-98298000D01*
X180848000Y-99568000D02*
X182118000Y-98298000D01*
X179578000Y-102870000D02*
X180848000Y-101600000D01*
X180848000Y-101600000D02*
X180848000Y-99568000D01*
X171450000Y-102870000D02*
X179578000Y-102870000D01*
X183134000Y-103886000D02*
X180848000Y-101600000D01*
X183134000Y-116332000D02*
X183134000Y-103886000D01*
X103632000Y-93726000D02*
X103886000Y-93726000D01*
X90170000Y-93726000D02*
X103632000Y-93726000D01*
X86106000Y-89662000D02*
X90170000Y-93726000D01*
X84836000Y-89662000D02*
X86106000Y-89662000D01*
X105410000Y-93726000D02*
X109728000Y-98044000D01*
X121666000Y-98044000D02*
X109728000Y-98044000D01*
X136652000Y-100330000D02*
X136652000Y-99822000D01*
X136652000Y-99822000D02*
X133604000Y-96774000D01*
X133604000Y-96774000D02*
X131064000Y-96774000D01*
X131064000Y-96774000D02*
X122936000Y-96774000D01*
X142748000Y-121666000D02*
X136652000Y-117094000D01*
X136652000Y-117094000D02*
X136652000Y-104140000D01*
X177800000Y-121666000D02*
X179832000Y-119380000D01*
X145288000Y-121666000D02*
X177800000Y-121666000D01*
X281706000Y-85126000D02*
X279944000Y-85126000D01*
X279944000Y-85126000D02*
X278892000Y-84074000D01*
X277532000Y-84074000D02*
X275590000Y-86016000D01*
X278892000Y-84074000D02*
X277532000Y-84074000D01*
X261303100Y-81316000D02*
X260251100Y-80264000D01*
X262656000Y-81316000D02*
X261303100Y-81316000D01*
X258482000Y-80264000D02*
X256540000Y-82206000D01*
X260251100Y-80264000D02*
X258482000Y-80264000D01*
X242253100Y-77252000D02*
X241201100Y-76200000D01*
X243606000Y-77252000D02*
X242253100Y-77252000D01*
X239432000Y-76200000D02*
X237490000Y-78142000D01*
X241201100Y-76200000D02*
X239432000Y-76200000D01*
X224810000Y-81062000D02*
X223048000Y-81062000D01*
X223048000Y-81062000D02*
X221996000Y-80010000D01*
X220636000Y-80010000D02*
X218694000Y-81952000D01*
X221996000Y-80010000D02*
X220636000Y-80010000D01*
X201632610Y-84027390D02*
X199644000Y-86016000D01*
X203998000Y-85126000D02*
X202899390Y-84027390D01*
X205760000Y-85126000D02*
X203998000Y-85126000D01*
X202899390Y-84027390D02*
X201632610Y-84027390D01*
X122936000Y-85762000D02*
X119724000Y-82550000D01*
X114356000Y-82550000D02*
X111780000Y-85126000D01*
X119724000Y-82550000D02*
X114356000Y-82550000D01*
X103886000Y-82206000D02*
X100166000Y-78486000D01*
X95179000Y-78486000D02*
X92603000Y-81062000D01*
X100166000Y-78486000D02*
X95179000Y-78486000D01*
X84836000Y-77888000D02*
X81370000Y-74422000D01*
X76256000Y-74422000D02*
X73680000Y-76998000D01*
X81370000Y-74422000D02*
X76256000Y-74422000D01*
X65786000Y-81952000D02*
X62320000Y-78486000D01*
X57206000Y-78486000D02*
X54630000Y-81062000D01*
X62320000Y-78486000D02*
X57206000Y-78486000D01*
X298814100Y-107651000D02*
X296119000Y-107651000D01*
X299403100Y-108240000D02*
X298814100Y-107651000D01*
X300756000Y-108240000D02*
X299403100Y-108240000D01*
X296119000Y-107651000D02*
X294640000Y-109130000D01*
X292698000Y-116930000D02*
X292100000Y-116332000D01*
X292100000Y-116332000D02*
X292100000Y-101600000D01*
X292100000Y-101600000D02*
X291338000Y-100838000D01*
X291338000Y-100838000D02*
X274574000Y-100838000D01*
X294640000Y-116930000D02*
X292698000Y-116930000D01*
X255490000Y-109056000D02*
X256540000Y-109056000D01*
X253746000Y-108204000D02*
X254598000Y-109056000D01*
X272796000Y-99568000D02*
X272796000Y-98044000D01*
X274574000Y-100838000D02*
X272796000Y-99568000D01*
X272796000Y-98044000D02*
X272034000Y-97282000D01*
X272034000Y-97282000D02*
X254762000Y-97282000D01*
X254762000Y-97282000D02*
X253746000Y-98298000D01*
X254598000Y-109056000D02*
X255490000Y-109056000D01*
X253746000Y-98298000D02*
X253746000Y-108204000D01*
X273648000Y-112866000D02*
X275590000Y-112866000D01*
X272796000Y-112014000D02*
X273648000Y-112866000D01*
X274574000Y-100838000D02*
X272796000Y-101854000D01*
X272796000Y-101854000D02*
X272796000Y-112014000D01*
X234950000Y-103886000D02*
X235802000Y-104738000D01*
X254762000Y-97282000D02*
X253746000Y-96266000D01*
X253746000Y-96266000D02*
X253746000Y-93726000D01*
X253746000Y-93726000D02*
X253238000Y-93218000D01*
X235802000Y-104738000D02*
X237490000Y-104738000D01*
X238760000Y-93218000D02*
X234950000Y-97028000D01*
X234950000Y-97028000D02*
X234950000Y-103886000D01*
X253238000Y-93218000D02*
X238760000Y-93218000D01*
X216244000Y-108802000D02*
X218694000Y-108802000D01*
X215646000Y-108204000D02*
X216244000Y-108802000D01*
X219710000Y-97028000D02*
X215646000Y-101092000D01*
X215646000Y-101092000D02*
X215646000Y-108204000D01*
X234950000Y-97028000D02*
X219710000Y-97028000D01*
X197448000Y-112866000D02*
X199644000Y-112866000D01*
X196596000Y-112014000D02*
X197448000Y-112866000D01*
X196596000Y-102870000D02*
X196596000Y-112014000D01*
X198374000Y-101092000D02*
X196596000Y-102870000D01*
X215646000Y-101092000D02*
X198374000Y-101092000D01*
X48703400Y-112866000D02*
X46736000Y-112866000D01*
X49631600Y-111937800D02*
X48703400Y-112866000D01*
X49631600Y-101676200D02*
X49631600Y-111937800D01*
X28990000Y-116422000D02*
X30353000Y-115059000D01*
X30353000Y-115059000D02*
X30353000Y-101727000D01*
X31254700Y-100825300D02*
X48780700Y-100825300D01*
X27940000Y-116422000D02*
X28990000Y-116422000D01*
X30353000Y-101727000D02*
X31254700Y-100825300D01*
X48780700Y-100825300D02*
X49631600Y-101676200D01*
X67728000Y-108802000D02*
X65786000Y-108802000D01*
X68580000Y-107950000D02*
X67728000Y-108802000D01*
X49530000Y-100076000D02*
X49530000Y-97536000D01*
X48780700Y-100825300D02*
X49530000Y-100076000D01*
X49530000Y-97536000D02*
X50546000Y-96520000D01*
X67564000Y-96520000D02*
X68580000Y-97536000D01*
X50546000Y-96520000D02*
X67564000Y-96520000D01*
X68580000Y-97536000D02*
X68580000Y-107950000D01*
X84836000Y-104738000D02*
X86524000Y-104738000D01*
X86524000Y-104738000D02*
X87376000Y-103886000D01*
X87376000Y-103886000D02*
X87376000Y-96266000D01*
X105828000Y-108802000D02*
X106680000Y-107950000D01*
X103886000Y-108802000D02*
X105828000Y-108802000D01*
X106680000Y-100584000D02*
X123698000Y-100584000D01*
X106680000Y-107950000D02*
X106680000Y-100584000D01*
X123698000Y-100584000D02*
X125984000Y-102870000D01*
X125984000Y-102870000D02*
X125984000Y-111506000D01*
X124624000Y-112866000D02*
X122936000Y-112866000D01*
X125984000Y-111506000D02*
X124624000Y-112866000D01*
X145034000Y-102870000D02*
X144018000Y-102870000D01*
X151130000Y-102870000D02*
X145034000Y-102870000D01*
X141224000Y-102870000D02*
X139446000Y-102870000D01*
X139446000Y-102870000D02*
X125984000Y-102870000D01*
X144018000Y-102870000D02*
X143256000Y-102870000D01*
X143256000Y-102870000D02*
X141986000Y-102870000D01*
X141986000Y-102870000D02*
X141224000Y-102870000D01*
X68453000Y-95631000D02*
X67564000Y-96520000D01*
X68453000Y-93345000D02*
X68453000Y-95631000D01*
X69342000Y-92456000D02*
X68453000Y-93345000D01*
X86614000Y-96266000D02*
X82804000Y-92456000D01*
X82804000Y-92456000D02*
X69342000Y-92456000D01*
X87376000Y-96266000D02*
X86614000Y-96266000D01*
X105664000Y-100584000D02*
X101346000Y-96266000D01*
X106680000Y-100584000D02*
X105664000Y-100584000D01*
X101346000Y-96266000D02*
X87376000Y-96266000D01*
X139446000Y-105410000D02*
X141986000Y-102870000D01*
X139446000Y-115824000D02*
X139446000Y-105410000D01*
X142748000Y-118110000D02*
X139446000Y-115824000D01*
X145288000Y-118110000D02*
X188722000Y-118110000D01*
X191262000Y-105664000D02*
X194056000Y-102870000D01*
X188722000Y-118110000D02*
X191262000Y-115570000D01*
X194056000Y-102870000D02*
X196596000Y-102870000D01*
X191262000Y-115570000D02*
X191262000Y-105664000D01*
X280353100Y-104176000D02*
X279732359Y-103555259D01*
X281706000Y-104176000D02*
X280353100Y-104176000D01*
X279732359Y-103555259D02*
X277291259Y-103555259D01*
X277291259Y-103555259D02*
X275590000Y-105066000D01*
X261303100Y-100366000D02*
X260206100Y-99269000D01*
X262656000Y-100366000D02*
X261303100Y-100366000D01*
X260206100Y-99269000D02*
X258527000Y-99269000D01*
X258527000Y-99269000D02*
X256540000Y-101256000D01*
X241156100Y-94951000D02*
X239477000Y-94951000D01*
X242253100Y-96048000D02*
X241156100Y-94951000D01*
X243606000Y-96048000D02*
X242253100Y-96048000D01*
X239477000Y-94951000D02*
X237490000Y-96938000D01*
X220682610Y-99013390D02*
X218694000Y-101002000D01*
X222358490Y-99013390D02*
X220682610Y-99013390D01*
X223457100Y-100112000D02*
X222358490Y-99013390D01*
X224810000Y-100112000D02*
X223457100Y-100112000D01*
X205760000Y-104176000D02*
X204252000Y-104176000D01*
X204252000Y-104176000D02*
X203200000Y-103124000D01*
X201586000Y-103124000D02*
X199644000Y-105066000D01*
X203200000Y-103124000D02*
X201586000Y-103124000D01*
X122936000Y-103934630D02*
X120855370Y-101854000D01*
X122936000Y-105066000D02*
X122936000Y-103934630D01*
X114102000Y-101854000D02*
X111780000Y-104176000D01*
X120855370Y-101854000D02*
X114102000Y-101854000D01*
X103886000Y-101202000D02*
X100220000Y-97536000D01*
X103886000Y-102202000D02*
X103886000Y-101202000D01*
X95306000Y-97536000D02*
X92730000Y-100112000D01*
X100220000Y-97536000D02*
X95306000Y-97536000D01*
X84836000Y-95806630D02*
X82501370Y-93472000D01*
X84836000Y-96938000D02*
X84836000Y-95806630D01*
X76256000Y-93472000D02*
X73680000Y-96048000D01*
X82501370Y-93472000D02*
X76256000Y-93472000D01*
X65786000Y-101002000D02*
X62320000Y-97536000D01*
X57206000Y-97536000D02*
X54630000Y-100112000D01*
X62320000Y-97536000D02*
X57206000Y-97536000D01*
X219584000Y-119162000D02*
X218694000Y-120052000D01*
X224810000Y-119162000D02*
X219584000Y-119162000D01*
X217644000Y-127852000D02*
X216154000Y-129342000D01*
X218694000Y-127852000D02*
X217644000Y-127852000D01*
X140118000Y-150966000D02*
X137922000Y-150966000D01*
X103886000Y-134366000D02*
X105410000Y-135890000D01*
X141224000Y-149860000D02*
X140118000Y-150966000D01*
X103886000Y-127852000D02*
X103886000Y-134366000D01*
X141224000Y-138176000D02*
X141224000Y-149860000D01*
X137922000Y-131916000D02*
X137922000Y-135890000D01*
X105410000Y-135890000D02*
X137922000Y-135890000D01*
X137922000Y-135890000D02*
X138938000Y-135890000D01*
X141224000Y-135890000D02*
X141732000Y-135890000D01*
X139954000Y-135890000D02*
X141224000Y-135890000D01*
X138938000Y-135890000D02*
X139954000Y-135890000D01*
X141224000Y-138176000D02*
X141224000Y-137922000D01*
X215392000Y-135890000D02*
X216154000Y-135128000D01*
X216154000Y-129342000D02*
X216154000Y-135128000D01*
X184404000Y-132966000D02*
X184404000Y-135890000D01*
X184404000Y-131916000D02*
X184404000Y-132966000D01*
X184404000Y-135890000D02*
X215392000Y-135890000D01*
X184404000Y-150712000D02*
X182208000Y-150712000D01*
X180848000Y-149352000D02*
X180848000Y-135890000D01*
X182208000Y-150712000D02*
X180848000Y-149352000D01*
X180848000Y-135890000D02*
X184404000Y-135890000D01*
X141224000Y-137922000D02*
X141224000Y-135890000D01*
X141732000Y-135890000D02*
X144018000Y-135890000D01*
X144018000Y-135890000D02*
X180848000Y-135890000D01*
X144018000Y-133604000D02*
X144018000Y-135890000D01*
X146812000Y-105410000D02*
X144018000Y-108204000D01*
X144018000Y-108204000D02*
X144018000Y-133604000D01*
X151130000Y-105410000D02*
X146812000Y-105410000D01*
X184404000Y-121412000D02*
X184404000Y-124116000D01*
X185674000Y-120142000D02*
X184404000Y-121412000D01*
X197612000Y-120142000D02*
X185674000Y-120142000D01*
X200696000Y-123226000D02*
X197612000Y-120142000D01*
X205760000Y-123226000D02*
X200696000Y-123226000D01*
X185294000Y-142022000D02*
X190520000Y-142022000D01*
X184404000Y-142912000D02*
X185294000Y-142022000D01*
X126766000Y-140641579D02*
X128215579Y-139192000D01*
X126766000Y-142276000D02*
X126766000Y-140641579D01*
X128215579Y-139192000D02*
X133948000Y-139192000D01*
X133948000Y-139192000D02*
X137922000Y-143166000D01*
X137922000Y-122984630D02*
X135333370Y-120396000D01*
X137922000Y-124116000D02*
X137922000Y-122984630D01*
X114610000Y-120396000D02*
X111780000Y-123226000D01*
X135333370Y-120396000D02*
X114610000Y-120396000D01*
X103886000Y-118920630D02*
X101551370Y-116586000D01*
X103886000Y-120052000D02*
X103886000Y-118920630D01*
X95179000Y-116586000D02*
X92603000Y-119162000D01*
X101551370Y-116586000D02*
X95179000Y-116586000D01*
X46736000Y-66966000D02*
X43219200Y-63449200D01*
X38206800Y-63449200D02*
X35580000Y-66076000D01*
X43219200Y-63449200D02*
X38206800Y-63449200D01*
X27940000Y-71030000D02*
X24448600Y-67538600D01*
X18098181Y-68958392D02*
X17537834Y-69386167D01*
X19517973Y-67538600D02*
X18098181Y-68958392D01*
X17537834Y-69386167D02*
X16784000Y-70140000D01*
X24448600Y-67538600D02*
X19517973Y-67538600D01*
X39008000Y-81698000D02*
X35580000Y-85126000D01*
X46736000Y-81698000D02*
X39008000Y-81698000D01*
X27940000Y-90080000D02*
X24474000Y-86614000D01*
X19360000Y-86614000D02*
X16784000Y-89190000D01*
X24474000Y-86614000D02*
X19360000Y-86614000D01*
X46736000Y-105066000D02*
X43270000Y-101600000D01*
X38156000Y-101600000D02*
X35580000Y-104176000D01*
X43270000Y-101600000D02*
X38156000Y-101600000D01*
X27940000Y-108622000D02*
X24728000Y-105410000D01*
X19360000Y-105410000D02*
X16784000Y-107986000D01*
X24728000Y-105410000D02*
X19360000Y-105410000D01*
X181864000Y-82550000D02*
X171450000Y-82550000D01*
X182372000Y-81788000D02*
X181864000Y-82550000D01*
X306281001Y-82507001D02*
X306681000Y-82550000D01*
X295359001Y-82507001D02*
X306281001Y-82507001D01*
X292608000Y-79756000D02*
X295359001Y-82507001D01*
X216662000Y-78486000D02*
X216662000Y-75946000D01*
X276860000Y-79756000D02*
X292608000Y-79756000D01*
X215900000Y-79248000D02*
X216662000Y-78486000D01*
X191008000Y-79248000D02*
X215900000Y-79248000D01*
X188468000Y-81788000D02*
X191008000Y-79248000D01*
X216662000Y-75946000D02*
X217424000Y-75184000D01*
X185166000Y-81788000D02*
X188468000Y-81788000D01*
X236728000Y-71882000D02*
X253746000Y-71882000D01*
X234950000Y-75184000D02*
X235712000Y-74422000D01*
X235712000Y-74422000D02*
X235712000Y-72898000D01*
X235712000Y-72898000D02*
X236728000Y-71882000D01*
X217424000Y-75184000D02*
X234950000Y-75184000D01*
X253746000Y-71882000D02*
X257556000Y-75692000D01*
X257556000Y-75692000D02*
X272796000Y-75692000D01*
X272796000Y-75692000D02*
X276860000Y-79756000D01*
X182372000Y-80010000D02*
X171450000Y-80010000D01*
X276985590Y-80518000D02*
X287631000Y-80518000D01*
X276352000Y-80518000D02*
X276985590Y-80518000D01*
X272288000Y-76454000D02*
X276352000Y-80518000D01*
X257048000Y-76454000D02*
X272288000Y-76454000D01*
X253238000Y-72644000D02*
X257048000Y-76454000D01*
X237236000Y-72644000D02*
X253238000Y-72644000D01*
X236474000Y-73406000D02*
X237236000Y-72644000D01*
X235204000Y-75946000D02*
X236474000Y-74676000D01*
X191516000Y-80010000D02*
X216408000Y-80010000D01*
X236474000Y-74676000D02*
X236474000Y-73406000D01*
X218186000Y-75946000D02*
X235204000Y-75946000D01*
X216408000Y-80010000D02*
X217424000Y-78994000D01*
X217424000Y-78994000D02*
X217424000Y-76708000D01*
X217424000Y-76708000D02*
X218186000Y-75946000D01*
X257302000Y-94996000D02*
X252984000Y-90678000D01*
X234696000Y-94742000D02*
X217424000Y-94742000D01*
X216916000Y-97536000D02*
X215392000Y-99060000D01*
X235966000Y-91440000D02*
X235966000Y-93472000D01*
X268581000Y-94996000D02*
X257302000Y-94996000D01*
X184150000Y-99060000D02*
X182626000Y-99060000D01*
X236728000Y-90678000D02*
X235966000Y-91440000D01*
X215392000Y-99060000D02*
X184150000Y-99060000D01*
X217424000Y-94742000D02*
X216916000Y-95250000D01*
X216916000Y-95250000D02*
X216916000Y-97536000D01*
X235966000Y-93472000D02*
X234696000Y-94742000D01*
X252984000Y-90678000D02*
X236728000Y-90678000D01*
X176022000Y-79248000D02*
X174244000Y-77470000D01*
X174244000Y-77470000D02*
X171450000Y-77470000D01*
X183642000Y-79756000D02*
X183134000Y-79248000D01*
X183134000Y-79248000D02*
X176022000Y-79248000D01*
X183642000Y-95504000D02*
X183642000Y-79756000D01*
X182626000Y-96520000D02*
X183642000Y-95504000D01*
X248965315Y-91797000D02*
X248608315Y-91440000D01*
X249531000Y-91797000D02*
X248965315Y-91797000D01*
X248608315Y-91440000D02*
X237744000Y-91440000D01*
X237744000Y-91440000D02*
X236728000Y-92456000D01*
X236728000Y-92456000D02*
X236728000Y-93980000D01*
X236728000Y-93980000D02*
X235204000Y-95504000D01*
X235204000Y-95504000D02*
X218186000Y-95504000D01*
X218186000Y-95504000D02*
X217678000Y-96012000D01*
X217678000Y-96012000D02*
X217678000Y-97790000D01*
X215646000Y-99822000D02*
X184150000Y-99822000D01*
X217678000Y-97790000D02*
X215646000Y-99822000D01*
X184150000Y-99822000D02*
X183388000Y-100584000D01*
X183388000Y-100584000D02*
X182118000Y-100584000D01*
X182118000Y-100584000D02*
X181864000Y-100330000D01*
X179070000Y-96520000D02*
X179070000Y-90932000D01*
X178308000Y-90170000D02*
X171450000Y-90170000D01*
X179070000Y-90932000D02*
X178308000Y-90170000D01*
X171450000Y-87630000D02*
X169926000Y-86106000D01*
X169926000Y-86106000D02*
X167894000Y-86106000D01*
X167894000Y-86106000D02*
X166878000Y-87122000D01*
X166878000Y-87122000D02*
X166878000Y-115062000D01*
X166878000Y-115062000D02*
X168910000Y-117094000D01*
X168910000Y-117094000D02*
X187706000Y-117094000D01*
X192024000Y-117094000D02*
X213614000Y-117094000D01*
X211685000Y-80923000D02*
X190603000Y-80923000D01*
X190603000Y-80923000D02*
X188468000Y-83058000D01*
X188468000Y-83058000D02*
X185166000Y-83058000D01*
X180848000Y-85090000D02*
X171450000Y-85090000D01*
X182372000Y-83566000D02*
X180848000Y-85090000D01*
X117705000Y-81383000D02*
X132691000Y-81383000D01*
X132691000Y-81383000D02*
X134366000Y-83058000D01*
X139954000Y-92710000D02*
X134366000Y-87122000D01*
X134366000Y-83058000D02*
X134366000Y-87122000D01*
X139954000Y-92710000D02*
X151130000Y-92710000D01*
X127762000Y-118110000D02*
X114554000Y-118110000D01*
X114554000Y-118110000D02*
X112811500Y-119852500D01*
X130302000Y-115570000D02*
X127762000Y-118110000D01*
X135382000Y-115570000D02*
X130302000Y-115570000D01*
X152217001Y-94162999D02*
X154868999Y-94162999D01*
X151130000Y-95250000D02*
X152217001Y-94162999D01*
X154868999Y-94162999D02*
X155702000Y-94996000D01*
X155702000Y-94996000D02*
X155702000Y-113284000D01*
X153416000Y-115570000D02*
X149606000Y-115570000D01*
X155702000Y-113284000D02*
X153416000Y-115570000D01*
X145288000Y-115570000D02*
X149606000Y-115570000D01*
X143510000Y-85090000D02*
X151130000Y-85090000D01*
X142748000Y-85852000D02*
X143510000Y-85090000D01*
X64136410Y-94488000D02*
X60555000Y-94488000D01*
X68200410Y-90424000D02*
X64136410Y-94488000D01*
X105156000Y-94488000D02*
X89916000Y-94488000D01*
X131700410Y-98806000D02*
X109474000Y-98806000D01*
X85852000Y-90424000D02*
X68200410Y-90424000D01*
X134240410Y-101346000D02*
X131700410Y-98806000D01*
X89916000Y-94488000D02*
X85852000Y-90424000D01*
X140970000Y-93726000D02*
X140970000Y-98552000D01*
X109474000Y-98806000D02*
X105156000Y-94488000D01*
X140970000Y-98552000D02*
X138176000Y-101346000D01*
X138176000Y-101346000D02*
X134240410Y-101346000D01*
X141224000Y-87630000D02*
X151130000Y-87630000D01*
X138938000Y-85344000D02*
X141224000Y-87630000D01*
X135382000Y-84328000D02*
X136144000Y-85090000D01*
X84836000Y-73406000D02*
X87630000Y-76200000D01*
X68326000Y-73406000D02*
X84836000Y-73406000D01*
X46633000Y-80367000D02*
X48260000Y-78740000D01*
X48260000Y-78740000D02*
X48260000Y-77216000D01*
X41505000Y-80367000D02*
X46633000Y-80367000D01*
X48260000Y-77216000D02*
X49276000Y-76200000D01*
X87630000Y-76200000D02*
X103632000Y-76200000D01*
X49276000Y-76200000D02*
X65532000Y-76200000D01*
X103632000Y-76200000D02*
X107696000Y-80264000D01*
X65532000Y-76200000D02*
X68326000Y-73406000D01*
X135382000Y-82042000D02*
X133604000Y-80264000D01*
X107696000Y-80264000D02*
X133604000Y-80264000D01*
X135382000Y-82042000D02*
X135382000Y-84328000D01*
X23274685Y-83161000D02*
X22709000Y-83161000D01*
X26416000Y-82804000D02*
X23631685Y-82804000D01*
X27432000Y-81788000D02*
X26416000Y-82804000D01*
X23631685Y-82804000D02*
X23274685Y-83161000D01*
X28448000Y-81788000D02*
X27432000Y-81788000D01*
X108204000Y-79502000D02*
X104140000Y-75438000D01*
X135128000Y-79502000D02*
X108204000Y-79502000D01*
X46205002Y-79502000D02*
X30734000Y-79502000D01*
X137668000Y-82042000D02*
X135128000Y-79502000D01*
X104140000Y-75438000D02*
X88263590Y-75438000D01*
X47498000Y-78209002D02*
X46205002Y-79502000D01*
X137668000Y-87122000D02*
X137668000Y-82042000D01*
X47498000Y-76454000D02*
X47498000Y-78209002D01*
X151130000Y-90170000D02*
X140716000Y-90170000D01*
X85215590Y-72390000D02*
X68326000Y-72390000D01*
X88263590Y-75438000D02*
X85215590Y-72390000D01*
X65278000Y-75438000D02*
X48514000Y-75438000D01*
X140716000Y-90170000D02*
X137668000Y-87122000D01*
X68326000Y-72390000D02*
X65278000Y-75438000D01*
X48514000Y-75438000D02*
X47498000Y-76454000D01*
X30734000Y-79502000D02*
X28448000Y-81788000D01*
X172527630Y-105410000D02*
X171450000Y-105410000D01*
X294386000Y-78830000D02*
X277204000Y-78830000D01*
X275590000Y-77216000D02*
X275590000Y-74766000D01*
X277204000Y-78830000D02*
X275590000Y-77216000D01*
X275590000Y-74766000D02*
X258154000Y-74766000D01*
X256540000Y-73152000D02*
X256540000Y-70956000D01*
X258154000Y-74766000D02*
X256540000Y-73152000D01*
X256540000Y-70956000D02*
X239104000Y-70956000D01*
X237490000Y-69342000D02*
X237490000Y-66892000D01*
X239014000Y-70866000D02*
X235712000Y-70866000D01*
X239014000Y-70866000D02*
X237490000Y-69342000D01*
X239104000Y-70956000D02*
X239014000Y-70866000D01*
X235712000Y-70866000D02*
X234950000Y-71628000D01*
X234950000Y-71628000D02*
X234950000Y-74168000D01*
X234950000Y-74168000D02*
X234696000Y-74422000D01*
X234696000Y-74422000D02*
X219456000Y-74422000D01*
X218694000Y-73660000D02*
X218694000Y-70702000D01*
X219456000Y-74422000D02*
X218694000Y-73660000D01*
X216408000Y-74422000D02*
X215900000Y-74930000D01*
X219456000Y-74422000D02*
X216408000Y-74422000D01*
X215900000Y-74930000D02*
X215900000Y-77978000D01*
X215900000Y-77978000D02*
X215265000Y-78613000D01*
X27940000Y-78830000D02*
X45884000Y-78830000D01*
X46736000Y-77978000D02*
X46736000Y-74766000D01*
X45884000Y-78830000D02*
X46736000Y-77978000D01*
X46736000Y-74766000D02*
X64934000Y-74766000D01*
X65786000Y-73914000D02*
X65786000Y-70702000D01*
X64934000Y-74766000D02*
X65786000Y-73914000D01*
X66836000Y-70702000D02*
X67762000Y-71628000D01*
X65786000Y-70702000D02*
X66836000Y-70702000D01*
X67762000Y-71628000D02*
X83820000Y-71628000D01*
X103886000Y-73660000D02*
X103886000Y-70956000D01*
X103886000Y-73660000D02*
X103886000Y-74676000D01*
X84836000Y-66892000D02*
X84836000Y-71628000D01*
X83820000Y-71628000D02*
X84836000Y-71628000D01*
X215265000Y-78613000D02*
X185676152Y-78488152D01*
X184404000Y-77724000D02*
X184404000Y-74512000D01*
X176784000Y-100330000D02*
X171450000Y-100330000D01*
X177800000Y-99314000D02*
X176784000Y-100330000D01*
X184404000Y-96520000D02*
X183642000Y-97282000D01*
X184404000Y-79248000D02*
X184404000Y-96520000D01*
X177800000Y-98044000D02*
X177800000Y-99314000D01*
X183642000Y-97282000D02*
X178562000Y-97282000D01*
X178562000Y-97282000D02*
X177800000Y-98044000D01*
X137922000Y-74766000D02*
X142912000Y-74766000D01*
X142912000Y-74766000D02*
X145034000Y-72644000D01*
X145034000Y-72644000D02*
X145034000Y-66294000D01*
X145034000Y-66294000D02*
X146812000Y-64516000D01*
X146812000Y-64516000D02*
X178816000Y-64516000D01*
X178816000Y-64516000D02*
X181102000Y-66802000D01*
X181102000Y-66802000D02*
X181102000Y-76962000D01*
X181102000Y-76962000D02*
X182627066Y-78487066D01*
X185676152Y-78488152D02*
X185418934Y-78487066D01*
X184404000Y-78488132D02*
X184405066Y-78487066D01*
X184404000Y-79248000D02*
X184404000Y-78488132D01*
X182627066Y-78487066D02*
X184405066Y-78487066D01*
X184405066Y-78487066D02*
X185418934Y-78487066D01*
X184405066Y-77725066D02*
X184404000Y-77724000D01*
X184405066Y-78487066D02*
X184405066Y-77725066D01*
X88900000Y-74676000D02*
X85852000Y-71628000D01*
X85852000Y-71628000D02*
X84836000Y-71628000D01*
X103886000Y-74676000D02*
X88900000Y-74676000D01*
X137922000Y-75816000D02*
X137922000Y-74766000D01*
X134998000Y-78740000D02*
X137922000Y-75816000D01*
X104648000Y-74676000D02*
X108712000Y-78740000D01*
X108712000Y-78740000D02*
X134998000Y-78740000D01*
X103886000Y-74676000D02*
X104648000Y-74676000D01*
M02*
