G04 #@! TF.GenerationSoftware,KiCad,Pcbnew,5.1.5*
G04 #@! TF.CreationDate,2020-03-09T20:34:47+00:00*
G04 #@! TF.ProjectId,pcb,7063622e-6b69-4636-9164-5f7063625858,rev?*
G04 #@! TF.SameCoordinates,Original*
G04 #@! TF.FileFunction,Legend,Bot*
G04 #@! TF.FilePolarity,Positive*
%FSLAX46Y46*%
G04 Gerber Fmt 4.6, Leading zero omitted, Abs format (unit mm)*
G04 Created by KiCad (PCBNEW 5.1.5) date 2020-03-09 20:34:47*
%MOMM*%
%LPD*%
G04 APERTURE LIST*
%ADD10C,0.300000*%
%ADD11C,0.150000*%
%ADD12C,0.120000*%
G04 APERTURE END LIST*
D10*
X116571428Y-87857142D02*
X115571428Y-87857142D01*
X117142857Y-88214285D02*
X116071428Y-88571428D01*
X116071428Y-87642857D01*
X116928571Y-87142857D02*
X117000000Y-87071428D01*
X117071428Y-86928571D01*
X117071428Y-86571428D01*
X117000000Y-86428571D01*
X116928571Y-86357142D01*
X116785714Y-86285714D01*
X116642857Y-86285714D01*
X116428571Y-86357142D01*
X115571428Y-87214285D01*
X115571428Y-86285714D01*
X115714285Y-85642857D02*
X115642857Y-85571428D01*
X115571428Y-85642857D01*
X115642857Y-85714285D01*
X115714285Y-85642857D01*
X115571428Y-85642857D01*
X116571428Y-84928571D02*
X115571428Y-84928571D01*
X116428571Y-84928571D02*
X116500000Y-84857142D01*
X116571428Y-84714285D01*
X116571428Y-84500000D01*
X116500000Y-84357142D01*
X116357142Y-84285714D01*
X115571428Y-84285714D01*
X116571428Y-82928571D02*
X115357142Y-82928571D01*
X115214285Y-83000000D01*
X115142857Y-83071428D01*
X115071428Y-83214285D01*
X115071428Y-83428571D01*
X115142857Y-83571428D01*
X115642857Y-82928571D02*
X115571428Y-83071428D01*
X115571428Y-83357142D01*
X115642857Y-83500000D01*
X115714285Y-83571428D01*
X115857142Y-83642857D01*
X116285714Y-83642857D01*
X116428571Y-83571428D01*
X116500000Y-83500000D01*
X116571428Y-83357142D01*
X116571428Y-83071428D01*
X116500000Y-82928571D01*
X115571428Y-82000000D02*
X115642857Y-82142857D01*
X115785714Y-82214285D01*
X117071428Y-82214285D01*
X116571428Y-80785714D02*
X115357142Y-80785714D01*
X115214285Y-80857142D01*
X115142857Y-80928571D01*
X115071428Y-81071428D01*
X115071428Y-81285714D01*
X115142857Y-81428571D01*
X115642857Y-80785714D02*
X115571428Y-80928571D01*
X115571428Y-81214285D01*
X115642857Y-81357142D01*
X115714285Y-81428571D01*
X115857142Y-81500000D01*
X116285714Y-81500000D01*
X116428571Y-81428571D01*
X116500000Y-81357142D01*
X116571428Y-81214285D01*
X116571428Y-80928571D01*
X116500000Y-80785714D01*
X116571428Y-80214285D02*
X116571428Y-79428571D01*
X115571428Y-80214285D01*
X115571428Y-79428571D01*
X116571428Y-79000000D02*
X116571428Y-78214285D01*
X115571428Y-79000000D01*
X115571428Y-78214285D01*
X115714285Y-77642857D02*
X115642857Y-77571428D01*
X115571428Y-77642857D01*
X115642857Y-77714285D01*
X115714285Y-77642857D01*
X115571428Y-77642857D01*
X115642857Y-76285714D02*
X115571428Y-76428571D01*
X115571428Y-76714285D01*
X115642857Y-76857142D01*
X115714285Y-76928571D01*
X115857142Y-77000000D01*
X116285714Y-77000000D01*
X116428571Y-76928571D01*
X116500000Y-76857142D01*
X116571428Y-76714285D01*
X116571428Y-76428571D01*
X116500000Y-76285714D01*
X115571428Y-75428571D02*
X115642857Y-75571428D01*
X115714285Y-75642857D01*
X115857142Y-75714285D01*
X116285714Y-75714285D01*
X116428571Y-75642857D01*
X116500000Y-75571428D01*
X116571428Y-75428571D01*
X116571428Y-75214285D01*
X116500000Y-75071428D01*
X116428571Y-75000000D01*
X116285714Y-74928571D01*
X115857142Y-74928571D01*
X115714285Y-75000000D01*
X115642857Y-75071428D01*
X115571428Y-75214285D01*
X115571428Y-75428571D01*
X115571428Y-74285714D02*
X116571428Y-74285714D01*
X116428571Y-74285714D02*
X116500000Y-74214285D01*
X116571428Y-74071428D01*
X116571428Y-73857142D01*
X116500000Y-73714285D01*
X116357142Y-73642857D01*
X115571428Y-73642857D01*
X116357142Y-73642857D02*
X116500000Y-73571428D01*
X116571428Y-73428571D01*
X116571428Y-73214285D01*
X116500000Y-73071428D01*
X116357142Y-73000000D01*
X115571428Y-73000000D01*
D11*
X68070000Y-106135000D02*
X76960000Y-106135000D01*
X68070000Y-105754000D02*
X68070000Y-106135000D01*
X68070000Y-101690000D02*
X68070000Y-102706000D01*
X73150000Y-101690000D02*
X68070000Y-101690000D01*
X77341000Y-99785000D02*
X75690000Y-99785000D01*
X79500000Y-99785000D02*
X79119000Y-99785000D01*
X79500000Y-100166000D02*
X79500000Y-99785000D01*
X79500000Y-103595000D02*
X79500000Y-103214000D01*
X75614162Y-99766040D02*
G75*
G02X73150000Y-101690000I-2464162J616040D01*
G01*
X79500000Y-103595000D02*
G75*
G02X76960000Y-106135000I-2540000J0D01*
G01*
X87170000Y-91135000D02*
X96060000Y-91135000D01*
X87170000Y-90754000D02*
X87170000Y-91135000D01*
X87170000Y-86690000D02*
X87170000Y-87706000D01*
X92250000Y-86690000D02*
X87170000Y-86690000D01*
X96441000Y-84785000D02*
X94790000Y-84785000D01*
X98600000Y-84785000D02*
X98219000Y-84785000D01*
X98600000Y-85166000D02*
X98600000Y-84785000D01*
X98600000Y-88595000D02*
X98600000Y-88214000D01*
X94714162Y-84766040D02*
G75*
G02X92250000Y-86690000I-2464162J616040D01*
G01*
X98600000Y-88595000D02*
G75*
G02X96060000Y-91135000I-2540000J0D01*
G01*
D12*
X164350000Y-115100000D02*
X161200000Y-115100000D01*
X164350000Y-116800000D02*
X161200000Y-116800000D01*
X164350000Y-115100000D02*
X164350000Y-116800000D01*
X-5850000Y-43150000D02*
X-9000000Y-43150000D01*
X-5850000Y-44850000D02*
X-9000000Y-44850000D01*
X-5850000Y-43150000D02*
X-5850000Y-44850000D01*
X13150000Y-39150000D02*
X10000000Y-39150000D01*
X13150000Y-40850000D02*
X10000000Y-40850000D01*
X13150000Y-39150000D02*
X13150000Y-40850000D01*
X32150000Y-35150000D02*
X29000000Y-35150000D01*
X32150000Y-36850000D02*
X29000000Y-36850000D01*
X32150000Y-35150000D02*
X32150000Y-36850000D01*
X51150000Y-31150000D02*
X48000000Y-31150000D01*
X51150000Y-32850000D02*
X48000000Y-32850000D01*
X51150000Y-31150000D02*
X51150000Y-32850000D01*
X70150000Y-35150000D02*
X67000000Y-35150000D01*
X70150000Y-36850000D02*
X67000000Y-36850000D01*
X70150000Y-35150000D02*
X70150000Y-36850000D01*
X89150000Y-39150000D02*
X86000000Y-39150000D01*
X89150000Y-40850000D02*
X86000000Y-40850000D01*
X89150000Y-39150000D02*
X89150000Y-40850000D01*
X-5850000Y-62150000D02*
X-9000000Y-62150000D01*
X-5850000Y-63850000D02*
X-9000000Y-63850000D01*
X-5850000Y-62150000D02*
X-5850000Y-63850000D01*
X13150000Y-58150000D02*
X10000000Y-58150000D01*
X13150000Y-59850000D02*
X10000000Y-59850000D01*
X13150000Y-58150000D02*
X13150000Y-59850000D01*
X32150000Y-54150000D02*
X29000000Y-54150000D01*
X32150000Y-55850000D02*
X29000000Y-55850000D01*
X32150000Y-54150000D02*
X32150000Y-55850000D01*
X51150000Y-50150000D02*
X48000000Y-50150000D01*
X51150000Y-51850000D02*
X48000000Y-51850000D01*
X51150000Y-50150000D02*
X51150000Y-51850000D01*
X70150000Y-54150000D02*
X67000000Y-54150000D01*
X70150000Y-55850000D02*
X67000000Y-55850000D01*
X70150000Y-54150000D02*
X70150000Y-55850000D01*
X89150000Y-58150000D02*
X86000000Y-58150000D01*
X89150000Y-59850000D02*
X86000000Y-59850000D01*
X89150000Y-58150000D02*
X89150000Y-59850000D01*
X-5850000Y-81150000D02*
X-9000000Y-81150000D01*
X-5850000Y-82850000D02*
X-9000000Y-82850000D01*
X-5850000Y-81150000D02*
X-5850000Y-82850000D01*
X13150000Y-77150000D02*
X10000000Y-77150000D01*
X13150000Y-78850000D02*
X10000000Y-78850000D01*
X13150000Y-77150000D02*
X13150000Y-78850000D01*
X32150000Y-73150000D02*
X29000000Y-73150000D01*
X32150000Y-74850000D02*
X29000000Y-74850000D01*
X32150000Y-73150000D02*
X32150000Y-74850000D01*
X51150000Y-69150000D02*
X48000000Y-69150000D01*
X51150000Y-70850000D02*
X48000000Y-70850000D01*
X51150000Y-69150000D02*
X51150000Y-70850000D01*
X70150000Y-73150000D02*
X67000000Y-73150000D01*
X70150000Y-74850000D02*
X67000000Y-74850000D01*
X70150000Y-73150000D02*
X70150000Y-74850000D01*
X89150000Y-77150000D02*
X86000000Y-77150000D01*
X89150000Y-78850000D02*
X86000000Y-78850000D01*
X89150000Y-77150000D02*
X89150000Y-78850000D01*
X70150000Y-92150000D02*
X67000000Y-92150000D01*
X70150000Y-93850000D02*
X67000000Y-93850000D01*
X70150000Y-92150000D02*
X70150000Y-93850000D01*
X89150000Y-96150000D02*
X86000000Y-96150000D01*
X89150000Y-97850000D02*
X86000000Y-97850000D01*
X89150000Y-96150000D02*
X89150000Y-97850000D01*
X104150000Y-115150000D02*
X101000000Y-115150000D01*
X104150000Y-116850000D02*
X101000000Y-116850000D01*
X104150000Y-115150000D02*
X104150000Y-116850000D01*
X179350000Y-39100000D02*
X176200000Y-39100000D01*
X179350000Y-40800000D02*
X176200000Y-40800000D01*
X179350000Y-39100000D02*
X179350000Y-40800000D01*
X198100000Y-35100000D02*
X194950000Y-35100000D01*
X198100000Y-36800000D02*
X194950000Y-36800000D01*
X198100000Y-35100000D02*
X198100000Y-36800000D01*
X217350000Y-31100000D02*
X214200000Y-31100000D01*
X217350000Y-32800000D02*
X214200000Y-32800000D01*
X217350000Y-31100000D02*
X217350000Y-32800000D01*
X236100000Y-35100000D02*
X232950000Y-35100000D01*
X236100000Y-36800000D02*
X232950000Y-36800000D01*
X236100000Y-35100000D02*
X236100000Y-36800000D01*
X255100000Y-39100000D02*
X251950000Y-39100000D01*
X255100000Y-40800000D02*
X251950000Y-40800000D01*
X255100000Y-39100000D02*
X255100000Y-40800000D01*
X274100000Y-43100000D02*
X270950000Y-43100000D01*
X274100000Y-44800000D02*
X270950000Y-44800000D01*
X274100000Y-43100000D02*
X274100000Y-44800000D01*
X179350000Y-58100000D02*
X176200000Y-58100000D01*
X179350000Y-59800000D02*
X176200000Y-59800000D01*
X179350000Y-58100000D02*
X179350000Y-59800000D01*
X198100000Y-54100000D02*
X194950000Y-54100000D01*
X198100000Y-55800000D02*
X194950000Y-55800000D01*
X198100000Y-54100000D02*
X198100000Y-55800000D01*
X217100000Y-50100000D02*
X213950000Y-50100000D01*
X217100000Y-51800000D02*
X213950000Y-51800000D01*
X217100000Y-50100000D02*
X217100000Y-51800000D01*
X236350000Y-54100000D02*
X233200000Y-54100000D01*
X236350000Y-55800000D02*
X233200000Y-55800000D01*
X236350000Y-54100000D02*
X236350000Y-55800000D01*
X255100000Y-58100000D02*
X251950000Y-58100000D01*
X255100000Y-59800000D02*
X251950000Y-59800000D01*
X255100000Y-58100000D02*
X255100000Y-59800000D01*
X274350000Y-62100000D02*
X271200000Y-62100000D01*
X274350000Y-63800000D02*
X271200000Y-63800000D01*
X274350000Y-62100000D02*
X274350000Y-63800000D01*
X179350000Y-77100000D02*
X176200000Y-77100000D01*
X179350000Y-78800000D02*
X176200000Y-78800000D01*
X179350000Y-77100000D02*
X179350000Y-78800000D01*
X198350000Y-73100000D02*
X195200000Y-73100000D01*
X198350000Y-74800000D02*
X195200000Y-74800000D01*
X198350000Y-73100000D02*
X198350000Y-74800000D01*
X217100000Y-69100000D02*
X213950000Y-69100000D01*
X217100000Y-70800000D02*
X213950000Y-70800000D01*
X217100000Y-69100000D02*
X217100000Y-70800000D01*
X236100000Y-73100000D02*
X232950000Y-73100000D01*
X236100000Y-74800000D02*
X232950000Y-74800000D01*
X236100000Y-73100000D02*
X236100000Y-74800000D01*
X255100000Y-77100000D02*
X251950000Y-77100000D01*
X255100000Y-78800000D02*
X251950000Y-78800000D01*
X255100000Y-77100000D02*
X255100000Y-78800000D01*
X274350000Y-81100000D02*
X271200000Y-81100000D01*
X274350000Y-82800000D02*
X271200000Y-82800000D01*
X274350000Y-81100000D02*
X274350000Y-82800000D01*
X179100000Y-96100000D02*
X175950000Y-96100000D01*
X179100000Y-97800000D02*
X175950000Y-97800000D01*
X179100000Y-96100000D02*
X179100000Y-97800000D01*
X198350000Y-92100000D02*
X195200000Y-92100000D01*
X198350000Y-93800000D02*
X195200000Y-93800000D01*
X198350000Y-92100000D02*
X198350000Y-93800000D01*
X137030000Y-109040000D02*
X130680000Y-109040000D01*
X137030000Y-98880000D02*
X130680000Y-98880000D01*
X137030000Y-109040000D02*
X137030000Y-98880000D01*
X130680000Y-98880000D02*
X130680000Y-109040000D01*
X137420000Y-98860000D02*
X143770000Y-98860000D01*
X137420000Y-109020000D02*
X143770000Y-109020000D01*
X137420000Y-98860000D02*
X137420000Y-109020000D01*
X143770000Y-109020000D02*
X143770000Y-98860000D01*
X128850000Y-119250000D02*
X122650000Y-119250000D01*
X122650000Y-119250000D02*
X122650000Y-131250000D01*
X128850000Y-131250000D02*
X128850000Y-119250000D01*
X128500000Y-133250000D02*
X123000000Y-133250000D01*
X123000000Y-133250000D02*
X123000000Y-131250000D01*
X123000000Y-131250000D02*
X122650000Y-131250000D01*
X128500000Y-133250000D02*
X128500000Y-131250000D01*
X128500000Y-131250000D02*
X128850000Y-131250000D01*
X151800000Y-119250000D02*
X145600000Y-119250000D01*
X145600000Y-119250000D02*
X145600000Y-131250000D01*
X151800000Y-131250000D02*
X151800000Y-119250000D01*
X151450000Y-133250000D02*
X145950000Y-133250000D01*
X145950000Y-133250000D02*
X145950000Y-131250000D01*
X145950000Y-131250000D02*
X145600000Y-131250000D01*
X151450000Y-133250000D02*
X151450000Y-131250000D01*
X151450000Y-131250000D02*
X151800000Y-131250000D01*
D11*
X41600000Y-65595000D02*
G75*
G02X39060000Y-68135000I-2540000J0D01*
G01*
X37714162Y-61766040D02*
G75*
G02X35250000Y-63690000I-2464162J616040D01*
G01*
X41600000Y-65595000D02*
X41600000Y-65214000D01*
X41600000Y-62166000D02*
X41600000Y-61785000D01*
X41600000Y-61785000D02*
X41219000Y-61785000D01*
X39441000Y-61785000D02*
X37790000Y-61785000D01*
X35250000Y-63690000D02*
X30170000Y-63690000D01*
X30170000Y-63690000D02*
X30170000Y-64706000D01*
X30170000Y-67754000D02*
X30170000Y-68135000D01*
X30170000Y-68135000D02*
X39060000Y-68135000D01*
X-7930000Y-57135000D02*
X960000Y-57135000D01*
X-7930000Y-56754000D02*
X-7930000Y-57135000D01*
X-7930000Y-52690000D02*
X-7930000Y-53706000D01*
X-2850000Y-52690000D02*
X-7930000Y-52690000D01*
X1341000Y-50785000D02*
X-310000Y-50785000D01*
X3500000Y-50785000D02*
X3119000Y-50785000D01*
X3500000Y-51166000D02*
X3500000Y-50785000D01*
X3500000Y-54595000D02*
X3500000Y-54214000D01*
X-385838Y-50766040D02*
G75*
G02X-2850000Y-52690000I-2464162J616040D01*
G01*
X3500000Y-54595000D02*
G75*
G02X960000Y-57135000I-2540000J0D01*
G01*
X11070000Y-53135000D02*
X19960000Y-53135000D01*
X11070000Y-52754000D02*
X11070000Y-53135000D01*
X11070000Y-48690000D02*
X11070000Y-49706000D01*
X16150000Y-48690000D02*
X11070000Y-48690000D01*
X20341000Y-46785000D02*
X18690000Y-46785000D01*
X22500000Y-46785000D02*
X22119000Y-46785000D01*
X22500000Y-47166000D02*
X22500000Y-46785000D01*
X22500000Y-50595000D02*
X22500000Y-50214000D01*
X18614162Y-46766040D02*
G75*
G02X16150000Y-48690000I-2464162J616040D01*
G01*
X22500000Y-50595000D02*
G75*
G02X19960000Y-53135000I-2540000J0D01*
G01*
X41600000Y-46595000D02*
G75*
G02X39060000Y-49135000I-2540000J0D01*
G01*
X37714162Y-42766040D02*
G75*
G02X35250000Y-44690000I-2464162J616040D01*
G01*
X41600000Y-46595000D02*
X41600000Y-46214000D01*
X41600000Y-43166000D02*
X41600000Y-42785000D01*
X41600000Y-42785000D02*
X41219000Y-42785000D01*
X39441000Y-42785000D02*
X37790000Y-42785000D01*
X35250000Y-44690000D02*
X30170000Y-44690000D01*
X30170000Y-44690000D02*
X30170000Y-45706000D01*
X30170000Y-48754000D02*
X30170000Y-49135000D01*
X30170000Y-49135000D02*
X39060000Y-49135000D01*
X49170000Y-45135000D02*
X58060000Y-45135000D01*
X49170000Y-44754000D02*
X49170000Y-45135000D01*
X49170000Y-40690000D02*
X49170000Y-41706000D01*
X54250000Y-40690000D02*
X49170000Y-40690000D01*
X58441000Y-38785000D02*
X56790000Y-38785000D01*
X60600000Y-38785000D02*
X60219000Y-38785000D01*
X60600000Y-39166000D02*
X60600000Y-38785000D01*
X60600000Y-42595000D02*
X60600000Y-42214000D01*
X56714162Y-38766040D02*
G75*
G02X54250000Y-40690000I-2464162J616040D01*
G01*
X60600000Y-42595000D02*
G75*
G02X58060000Y-45135000I-2540000J0D01*
G01*
X79510000Y-46535000D02*
G75*
G02X76970000Y-49075000I-2540000J0D01*
G01*
X75624162Y-42706040D02*
G75*
G02X73160000Y-44630000I-2464162J616040D01*
G01*
X79510000Y-46535000D02*
X79510000Y-46154000D01*
X79510000Y-43106000D02*
X79510000Y-42725000D01*
X79510000Y-42725000D02*
X79129000Y-42725000D01*
X77351000Y-42725000D02*
X75700000Y-42725000D01*
X73160000Y-44630000D02*
X68080000Y-44630000D01*
X68080000Y-44630000D02*
X68080000Y-45646000D01*
X68080000Y-48694000D02*
X68080000Y-49075000D01*
X68080000Y-49075000D02*
X76970000Y-49075000D01*
X98600000Y-50595000D02*
G75*
G02X96060000Y-53135000I-2540000J0D01*
G01*
X94714162Y-46766040D02*
G75*
G02X92250000Y-48690000I-2464162J616040D01*
G01*
X98600000Y-50595000D02*
X98600000Y-50214000D01*
X98600000Y-47166000D02*
X98600000Y-46785000D01*
X98600000Y-46785000D02*
X98219000Y-46785000D01*
X96441000Y-46785000D02*
X94790000Y-46785000D01*
X92250000Y-48690000D02*
X87170000Y-48690000D01*
X87170000Y-48690000D02*
X87170000Y-49706000D01*
X87170000Y-52754000D02*
X87170000Y-53135000D01*
X87170000Y-53135000D02*
X96060000Y-53135000D01*
X-7930000Y-76135000D02*
X960000Y-76135000D01*
X-7930000Y-75754000D02*
X-7930000Y-76135000D01*
X-7930000Y-71690000D02*
X-7930000Y-72706000D01*
X-2850000Y-71690000D02*
X-7930000Y-71690000D01*
X1341000Y-69785000D02*
X-310000Y-69785000D01*
X3500000Y-69785000D02*
X3119000Y-69785000D01*
X3500000Y-70166000D02*
X3500000Y-69785000D01*
X3500000Y-73595000D02*
X3500000Y-73214000D01*
X-385838Y-69766040D02*
G75*
G02X-2850000Y-71690000I-2464162J616040D01*
G01*
X3500000Y-73595000D02*
G75*
G02X960000Y-76135000I-2540000J0D01*
G01*
X11070000Y-72135000D02*
X19960000Y-72135000D01*
X11070000Y-71754000D02*
X11070000Y-72135000D01*
X11070000Y-67690000D02*
X11070000Y-68706000D01*
X16150000Y-67690000D02*
X11070000Y-67690000D01*
X20341000Y-65785000D02*
X18690000Y-65785000D01*
X22500000Y-65785000D02*
X22119000Y-65785000D01*
X22500000Y-66166000D02*
X22500000Y-65785000D01*
X22500000Y-69595000D02*
X22500000Y-69214000D01*
X18614162Y-65766040D02*
G75*
G02X16150000Y-67690000I-2464162J616040D01*
G01*
X22500000Y-69595000D02*
G75*
G02X19960000Y-72135000I-2540000J0D01*
G01*
X49170000Y-64135000D02*
X58060000Y-64135000D01*
X49170000Y-63754000D02*
X49170000Y-64135000D01*
X49170000Y-59690000D02*
X49170000Y-60706000D01*
X54250000Y-59690000D02*
X49170000Y-59690000D01*
X58441000Y-57785000D02*
X56790000Y-57785000D01*
X60600000Y-57785000D02*
X60219000Y-57785000D01*
X60600000Y-58166000D02*
X60600000Y-57785000D01*
X60600000Y-61595000D02*
X60600000Y-61214000D01*
X56714162Y-57766040D02*
G75*
G02X54250000Y-59690000I-2464162J616040D01*
G01*
X60600000Y-61595000D02*
G75*
G02X58060000Y-64135000I-2540000J0D01*
G01*
X79600000Y-65595000D02*
G75*
G02X77060000Y-68135000I-2540000J0D01*
G01*
X75714162Y-61766040D02*
G75*
G02X73250000Y-63690000I-2464162J616040D01*
G01*
X79600000Y-65595000D02*
X79600000Y-65214000D01*
X79600000Y-62166000D02*
X79600000Y-61785000D01*
X79600000Y-61785000D02*
X79219000Y-61785000D01*
X77441000Y-61785000D02*
X75790000Y-61785000D01*
X73250000Y-63690000D02*
X68170000Y-63690000D01*
X68170000Y-63690000D02*
X68170000Y-64706000D01*
X68170000Y-67754000D02*
X68170000Y-68135000D01*
X68170000Y-68135000D02*
X77060000Y-68135000D01*
X87170000Y-72135000D02*
X96060000Y-72135000D01*
X87170000Y-71754000D02*
X87170000Y-72135000D01*
X87170000Y-67690000D02*
X87170000Y-68706000D01*
X92250000Y-67690000D02*
X87170000Y-67690000D01*
X96441000Y-65785000D02*
X94790000Y-65785000D01*
X98600000Y-65785000D02*
X98219000Y-65785000D01*
X98600000Y-66166000D02*
X98600000Y-65785000D01*
X98600000Y-69595000D02*
X98600000Y-69214000D01*
X94714162Y-65766040D02*
G75*
G02X92250000Y-67690000I-2464162J616040D01*
G01*
X98600000Y-69595000D02*
G75*
G02X96060000Y-72135000I-2540000J0D01*
G01*
X3600000Y-92595000D02*
G75*
G02X1060000Y-95135000I-2540000J0D01*
G01*
X-285838Y-88766040D02*
G75*
G02X-2750000Y-90690000I-2464162J616040D01*
G01*
X3600000Y-92595000D02*
X3600000Y-92214000D01*
X3600000Y-89166000D02*
X3600000Y-88785000D01*
X3600000Y-88785000D02*
X3219000Y-88785000D01*
X1441000Y-88785000D02*
X-210000Y-88785000D01*
X-2750000Y-90690000D02*
X-7830000Y-90690000D01*
X-7830000Y-90690000D02*
X-7830000Y-91706000D01*
X-7830000Y-94754000D02*
X-7830000Y-95135000D01*
X-7830000Y-95135000D02*
X1060000Y-95135000D01*
X11170000Y-91135000D02*
X20060000Y-91135000D01*
X11170000Y-90754000D02*
X11170000Y-91135000D01*
X11170000Y-86690000D02*
X11170000Y-87706000D01*
X16250000Y-86690000D02*
X11170000Y-86690000D01*
X20441000Y-84785000D02*
X18790000Y-84785000D01*
X22600000Y-84785000D02*
X22219000Y-84785000D01*
X22600000Y-85166000D02*
X22600000Y-84785000D01*
X22600000Y-88595000D02*
X22600000Y-88214000D01*
X18714162Y-84766040D02*
G75*
G02X16250000Y-86690000I-2464162J616040D01*
G01*
X22600000Y-88595000D02*
G75*
G02X20060000Y-91135000I-2540000J0D01*
G01*
X41600000Y-84595000D02*
G75*
G02X39060000Y-87135000I-2540000J0D01*
G01*
X37714162Y-80766040D02*
G75*
G02X35250000Y-82690000I-2464162J616040D01*
G01*
X41600000Y-84595000D02*
X41600000Y-84214000D01*
X41600000Y-81166000D02*
X41600000Y-80785000D01*
X41600000Y-80785000D02*
X41219000Y-80785000D01*
X39441000Y-80785000D02*
X37790000Y-80785000D01*
X35250000Y-82690000D02*
X30170000Y-82690000D01*
X30170000Y-82690000D02*
X30170000Y-83706000D01*
X30170000Y-86754000D02*
X30170000Y-87135000D01*
X30170000Y-87135000D02*
X39060000Y-87135000D01*
X60500000Y-80595000D02*
G75*
G02X57960000Y-83135000I-2540000J0D01*
G01*
X56614162Y-76766040D02*
G75*
G02X54150000Y-78690000I-2464162J616040D01*
G01*
X60500000Y-80595000D02*
X60500000Y-80214000D01*
X60500000Y-77166000D02*
X60500000Y-76785000D01*
X60500000Y-76785000D02*
X60119000Y-76785000D01*
X58341000Y-76785000D02*
X56690000Y-76785000D01*
X54150000Y-78690000D02*
X49070000Y-78690000D01*
X49070000Y-78690000D02*
X49070000Y-79706000D01*
X49070000Y-82754000D02*
X49070000Y-83135000D01*
X49070000Y-83135000D02*
X57960000Y-83135000D01*
X79600000Y-84595000D02*
G75*
G02X77060000Y-87135000I-2540000J0D01*
G01*
X75714162Y-80766040D02*
G75*
G02X73250000Y-82690000I-2464162J616040D01*
G01*
X79600000Y-84595000D02*
X79600000Y-84214000D01*
X79600000Y-81166000D02*
X79600000Y-80785000D01*
X79600000Y-80785000D02*
X79219000Y-80785000D01*
X77441000Y-80785000D02*
X75790000Y-80785000D01*
X73250000Y-82690000D02*
X68170000Y-82690000D01*
X68170000Y-82690000D02*
X68170000Y-83706000D01*
X68170000Y-86754000D02*
X68170000Y-87135000D01*
X68170000Y-87135000D02*
X77060000Y-87135000D01*
X98500000Y-107595000D02*
G75*
G02X95960000Y-110135000I-2540000J0D01*
G01*
X94614162Y-103766040D02*
G75*
G02X92150000Y-105690000I-2464162J616040D01*
G01*
X98500000Y-107595000D02*
X98500000Y-107214000D01*
X98500000Y-104166000D02*
X98500000Y-103785000D01*
X98500000Y-103785000D02*
X98119000Y-103785000D01*
X96341000Y-103785000D02*
X94690000Y-103785000D01*
X92150000Y-105690000D02*
X87070000Y-105690000D01*
X87070000Y-105690000D02*
X87070000Y-106706000D01*
X87070000Y-109754000D02*
X87070000Y-110135000D01*
X87070000Y-110135000D02*
X95960000Y-110135000D01*
X102170000Y-129135000D02*
X111060000Y-129135000D01*
X102170000Y-128754000D02*
X102170000Y-129135000D01*
X102170000Y-124690000D02*
X102170000Y-125706000D01*
X107250000Y-124690000D02*
X102170000Y-124690000D01*
X111441000Y-122785000D02*
X109790000Y-122785000D01*
X113600000Y-122785000D02*
X113219000Y-122785000D01*
X113600000Y-123166000D02*
X113600000Y-122785000D01*
X113600000Y-126595000D02*
X113600000Y-126214000D01*
X109714162Y-122766040D02*
G75*
G02X107250000Y-124690000I-2464162J616040D01*
G01*
X113600000Y-126595000D02*
G75*
G02X111060000Y-129135000I-2540000J0D01*
G01*
X177310000Y-52995000D02*
X186200000Y-52995000D01*
X177310000Y-52614000D02*
X177310000Y-52995000D01*
X177310000Y-48550000D02*
X177310000Y-49566000D01*
X182390000Y-48550000D02*
X177310000Y-48550000D01*
X186581000Y-46645000D02*
X184930000Y-46645000D01*
X188740000Y-46645000D02*
X188359000Y-46645000D01*
X188740000Y-47026000D02*
X188740000Y-46645000D01*
X188740000Y-50455000D02*
X188740000Y-50074000D01*
X184854162Y-46626040D02*
G75*
G02X182390000Y-48550000I-2464162J616040D01*
G01*
X188740000Y-50455000D02*
G75*
G02X186200000Y-52995000I-2540000J0D01*
G01*
X207550000Y-46595000D02*
G75*
G02X205010000Y-49135000I-2540000J0D01*
G01*
X203664162Y-42766040D02*
G75*
G02X201200000Y-44690000I-2464162J616040D01*
G01*
X207550000Y-46595000D02*
X207550000Y-46214000D01*
X207550000Y-43166000D02*
X207550000Y-42785000D01*
X207550000Y-42785000D02*
X207169000Y-42785000D01*
X205391000Y-42785000D02*
X203740000Y-42785000D01*
X201200000Y-44690000D02*
X196120000Y-44690000D01*
X196120000Y-44690000D02*
X196120000Y-45706000D01*
X196120000Y-48754000D02*
X196120000Y-49135000D01*
X196120000Y-49135000D02*
X205010000Y-49135000D01*
X215220000Y-45135000D02*
X224110000Y-45135000D01*
X215220000Y-44754000D02*
X215220000Y-45135000D01*
X215220000Y-40690000D02*
X215220000Y-41706000D01*
X220300000Y-40690000D02*
X215220000Y-40690000D01*
X224491000Y-38785000D02*
X222840000Y-38785000D01*
X226650000Y-38785000D02*
X226269000Y-38785000D01*
X226650000Y-39166000D02*
X226650000Y-38785000D01*
X226650000Y-42595000D02*
X226650000Y-42214000D01*
X222764162Y-38766040D02*
G75*
G02X220300000Y-40690000I-2464162J616040D01*
G01*
X226650000Y-42595000D02*
G75*
G02X224110000Y-45135000I-2540000J0D01*
G01*
X245550000Y-46495000D02*
G75*
G02X243010000Y-49035000I-2540000J0D01*
G01*
X241664162Y-42666040D02*
G75*
G02X239200000Y-44590000I-2464162J616040D01*
G01*
X245550000Y-46495000D02*
X245550000Y-46114000D01*
X245550000Y-43066000D02*
X245550000Y-42685000D01*
X245550000Y-42685000D02*
X245169000Y-42685000D01*
X243391000Y-42685000D02*
X241740000Y-42685000D01*
X239200000Y-44590000D02*
X234120000Y-44590000D01*
X234120000Y-44590000D02*
X234120000Y-45606000D01*
X234120000Y-48654000D02*
X234120000Y-49035000D01*
X234120000Y-49035000D02*
X243010000Y-49035000D01*
X253110000Y-53095000D02*
X262000000Y-53095000D01*
X253110000Y-52714000D02*
X253110000Y-53095000D01*
X253110000Y-48650000D02*
X253110000Y-49666000D01*
X258190000Y-48650000D02*
X253110000Y-48650000D01*
X262381000Y-46745000D02*
X260730000Y-46745000D01*
X264540000Y-46745000D02*
X264159000Y-46745000D01*
X264540000Y-47126000D02*
X264540000Y-46745000D01*
X264540000Y-50555000D02*
X264540000Y-50174000D01*
X260654162Y-46726040D02*
G75*
G02X258190000Y-48650000I-2464162J616040D01*
G01*
X264540000Y-50555000D02*
G75*
G02X262000000Y-53095000I-2540000J0D01*
G01*
X283550000Y-54595000D02*
G75*
G02X281010000Y-57135000I-2540000J0D01*
G01*
X279664162Y-50766040D02*
G75*
G02X277200000Y-52690000I-2464162J616040D01*
G01*
X283550000Y-54595000D02*
X283550000Y-54214000D01*
X283550000Y-51166000D02*
X283550000Y-50785000D01*
X283550000Y-50785000D02*
X283169000Y-50785000D01*
X281391000Y-50785000D02*
X279740000Y-50785000D01*
X277200000Y-52690000D02*
X272120000Y-52690000D01*
X272120000Y-52690000D02*
X272120000Y-53706000D01*
X272120000Y-56754000D02*
X272120000Y-57135000D01*
X272120000Y-57135000D02*
X281010000Y-57135000D01*
X177220000Y-72135000D02*
X186110000Y-72135000D01*
X177220000Y-71754000D02*
X177220000Y-72135000D01*
X177220000Y-67690000D02*
X177220000Y-68706000D01*
X182300000Y-67690000D02*
X177220000Y-67690000D01*
X186491000Y-65785000D02*
X184840000Y-65785000D01*
X188650000Y-65785000D02*
X188269000Y-65785000D01*
X188650000Y-66166000D02*
X188650000Y-65785000D01*
X188650000Y-69595000D02*
X188650000Y-69214000D01*
X184764162Y-65766040D02*
G75*
G02X182300000Y-67690000I-2464162J616040D01*
G01*
X188650000Y-69595000D02*
G75*
G02X186110000Y-72135000I-2540000J0D01*
G01*
X207550000Y-65595000D02*
G75*
G02X205010000Y-68135000I-2540000J0D01*
G01*
X203664162Y-61766040D02*
G75*
G02X201200000Y-63690000I-2464162J616040D01*
G01*
X207550000Y-65595000D02*
X207550000Y-65214000D01*
X207550000Y-62166000D02*
X207550000Y-61785000D01*
X207550000Y-61785000D02*
X207169000Y-61785000D01*
X205391000Y-61785000D02*
X203740000Y-61785000D01*
X201200000Y-63690000D02*
X196120000Y-63690000D01*
X196120000Y-63690000D02*
X196120000Y-64706000D01*
X196120000Y-67754000D02*
X196120000Y-68135000D01*
X196120000Y-68135000D02*
X205010000Y-68135000D01*
X215120000Y-64235000D02*
X224010000Y-64235000D01*
X215120000Y-63854000D02*
X215120000Y-64235000D01*
X215120000Y-59790000D02*
X215120000Y-60806000D01*
X220200000Y-59790000D02*
X215120000Y-59790000D01*
X224391000Y-57885000D02*
X222740000Y-57885000D01*
X226550000Y-57885000D02*
X226169000Y-57885000D01*
X226550000Y-58266000D02*
X226550000Y-57885000D01*
X226550000Y-61695000D02*
X226550000Y-61314000D01*
X222664162Y-57866040D02*
G75*
G02X220200000Y-59790000I-2464162J616040D01*
G01*
X226550000Y-61695000D02*
G75*
G02X224010000Y-64235000I-2540000J0D01*
G01*
X245650000Y-65495000D02*
G75*
G02X243110000Y-68035000I-2540000J0D01*
G01*
X241764162Y-61666040D02*
G75*
G02X239300000Y-63590000I-2464162J616040D01*
G01*
X245650000Y-65495000D02*
X245650000Y-65114000D01*
X245650000Y-62066000D02*
X245650000Y-61685000D01*
X245650000Y-61685000D02*
X245269000Y-61685000D01*
X243491000Y-61685000D02*
X241840000Y-61685000D01*
X239300000Y-63590000D02*
X234220000Y-63590000D01*
X234220000Y-63590000D02*
X234220000Y-64606000D01*
X234220000Y-67654000D02*
X234220000Y-68035000D01*
X234220000Y-68035000D02*
X243110000Y-68035000D01*
X253120000Y-72135000D02*
X262010000Y-72135000D01*
X253120000Y-71754000D02*
X253120000Y-72135000D01*
X253120000Y-67690000D02*
X253120000Y-68706000D01*
X258200000Y-67690000D02*
X253120000Y-67690000D01*
X262391000Y-65785000D02*
X260740000Y-65785000D01*
X264550000Y-65785000D02*
X264169000Y-65785000D01*
X264550000Y-66166000D02*
X264550000Y-65785000D01*
X264550000Y-69595000D02*
X264550000Y-69214000D01*
X260664162Y-65766040D02*
G75*
G02X258200000Y-67690000I-2464162J616040D01*
G01*
X264550000Y-69595000D02*
G75*
G02X262010000Y-72135000I-2540000J0D01*
G01*
X283650000Y-73595000D02*
G75*
G02X281110000Y-76135000I-2540000J0D01*
G01*
X279764162Y-69766040D02*
G75*
G02X277300000Y-71690000I-2464162J616040D01*
G01*
X283650000Y-73595000D02*
X283650000Y-73214000D01*
X283650000Y-70166000D02*
X283650000Y-69785000D01*
X283650000Y-69785000D02*
X283269000Y-69785000D01*
X281491000Y-69785000D02*
X279840000Y-69785000D01*
X277300000Y-71690000D02*
X272220000Y-71690000D01*
X272220000Y-71690000D02*
X272220000Y-72706000D01*
X272220000Y-75754000D02*
X272220000Y-76135000D01*
X272220000Y-76135000D02*
X281110000Y-76135000D01*
X177220000Y-91135000D02*
X186110000Y-91135000D01*
X177220000Y-90754000D02*
X177220000Y-91135000D01*
X177220000Y-86690000D02*
X177220000Y-87706000D01*
X182300000Y-86690000D02*
X177220000Y-86690000D01*
X186491000Y-84785000D02*
X184840000Y-84785000D01*
X188650000Y-84785000D02*
X188269000Y-84785000D01*
X188650000Y-85166000D02*
X188650000Y-84785000D01*
X188650000Y-88595000D02*
X188650000Y-88214000D01*
X184764162Y-84766040D02*
G75*
G02X182300000Y-86690000I-2464162J616040D01*
G01*
X188650000Y-88595000D02*
G75*
G02X186110000Y-91135000I-2540000J0D01*
G01*
X207650000Y-84595000D02*
G75*
G02X205110000Y-87135000I-2540000J0D01*
G01*
X203764162Y-80766040D02*
G75*
G02X201300000Y-82690000I-2464162J616040D01*
G01*
X207650000Y-84595000D02*
X207650000Y-84214000D01*
X207650000Y-81166000D02*
X207650000Y-80785000D01*
X207650000Y-80785000D02*
X207269000Y-80785000D01*
X205491000Y-80785000D02*
X203840000Y-80785000D01*
X201300000Y-82690000D02*
X196220000Y-82690000D01*
X196220000Y-82690000D02*
X196220000Y-83706000D01*
X196220000Y-86754000D02*
X196220000Y-87135000D01*
X196220000Y-87135000D02*
X205110000Y-87135000D01*
X215120000Y-83035000D02*
X224010000Y-83035000D01*
X215120000Y-82654000D02*
X215120000Y-83035000D01*
X215120000Y-78590000D02*
X215120000Y-79606000D01*
X220200000Y-78590000D02*
X215120000Y-78590000D01*
X224391000Y-76685000D02*
X222740000Y-76685000D01*
X226550000Y-76685000D02*
X226169000Y-76685000D01*
X226550000Y-77066000D02*
X226550000Y-76685000D01*
X226550000Y-80495000D02*
X226550000Y-80114000D01*
X222664162Y-76666040D02*
G75*
G02X220200000Y-78590000I-2464162J616040D01*
G01*
X226550000Y-80495000D02*
G75*
G02X224010000Y-83035000I-2540000J0D01*
G01*
X245550000Y-84595000D02*
G75*
G02X243010000Y-87135000I-2540000J0D01*
G01*
X241664162Y-80766040D02*
G75*
G02X239200000Y-82690000I-2464162J616040D01*
G01*
X245550000Y-84595000D02*
X245550000Y-84214000D01*
X245550000Y-81166000D02*
X245550000Y-80785000D01*
X245550000Y-80785000D02*
X245169000Y-80785000D01*
X243391000Y-80785000D02*
X241740000Y-80785000D01*
X239200000Y-82690000D02*
X234120000Y-82690000D01*
X234120000Y-82690000D02*
X234120000Y-83706000D01*
X234120000Y-86754000D02*
X234120000Y-87135000D01*
X234120000Y-87135000D02*
X243010000Y-87135000D01*
X253120000Y-91135000D02*
X262010000Y-91135000D01*
X253120000Y-90754000D02*
X253120000Y-91135000D01*
X253120000Y-86690000D02*
X253120000Y-87706000D01*
X258200000Y-86690000D02*
X253120000Y-86690000D01*
X262391000Y-84785000D02*
X260740000Y-84785000D01*
X264550000Y-84785000D02*
X264169000Y-84785000D01*
X264550000Y-85166000D02*
X264550000Y-84785000D01*
X264550000Y-88595000D02*
X264550000Y-88214000D01*
X260664162Y-84766040D02*
G75*
G02X258200000Y-86690000I-2464162J616040D01*
G01*
X264550000Y-88595000D02*
G75*
G02X262010000Y-91135000I-2540000J0D01*
G01*
X283650000Y-92595000D02*
G75*
G02X281110000Y-95135000I-2540000J0D01*
G01*
X279764162Y-88766040D02*
G75*
G02X277300000Y-90690000I-2464162J616040D01*
G01*
X283650000Y-92595000D02*
X283650000Y-92214000D01*
X283650000Y-89166000D02*
X283650000Y-88785000D01*
X283650000Y-88785000D02*
X283269000Y-88785000D01*
X281491000Y-88785000D02*
X279840000Y-88785000D01*
X277300000Y-90690000D02*
X272220000Y-90690000D01*
X272220000Y-90690000D02*
X272220000Y-91706000D01*
X272220000Y-94754000D02*
X272220000Y-95135000D01*
X272220000Y-95135000D02*
X281110000Y-95135000D01*
X173650000Y-126595000D02*
G75*
G02X171110000Y-129135000I-2540000J0D01*
G01*
X169764162Y-122766040D02*
G75*
G02X167300000Y-124690000I-2464162J616040D01*
G01*
X173650000Y-126595000D02*
X173650000Y-126214000D01*
X173650000Y-123166000D02*
X173650000Y-122785000D01*
X173650000Y-122785000D02*
X173269000Y-122785000D01*
X171491000Y-122785000D02*
X169840000Y-122785000D01*
X167300000Y-124690000D02*
X162220000Y-124690000D01*
X162220000Y-124690000D02*
X162220000Y-125706000D01*
X162220000Y-128754000D02*
X162220000Y-129135000D01*
X162220000Y-129135000D02*
X171110000Y-129135000D01*
X177120000Y-110135000D02*
X186010000Y-110135000D01*
X177120000Y-109754000D02*
X177120000Y-110135000D01*
X177120000Y-105690000D02*
X177120000Y-106706000D01*
X182200000Y-105690000D02*
X177120000Y-105690000D01*
X186391000Y-103785000D02*
X184740000Y-103785000D01*
X188550000Y-103785000D02*
X188169000Y-103785000D01*
X188550000Y-104166000D02*
X188550000Y-103785000D01*
X188550000Y-107595000D02*
X188550000Y-107214000D01*
X184664162Y-103766040D02*
G75*
G02X182200000Y-105690000I-2464162J616040D01*
G01*
X188550000Y-107595000D02*
G75*
G02X186010000Y-110135000I-2540000J0D01*
G01*
X207650000Y-103495000D02*
G75*
G02X205110000Y-106035000I-2540000J0D01*
G01*
X203764162Y-99666040D02*
G75*
G02X201300000Y-101590000I-2464162J616040D01*
G01*
X207650000Y-103495000D02*
X207650000Y-103114000D01*
X207650000Y-100066000D02*
X207650000Y-99685000D01*
X207650000Y-99685000D02*
X207269000Y-99685000D01*
X205491000Y-99685000D02*
X203840000Y-99685000D01*
X201300000Y-101590000D02*
X196220000Y-101590000D01*
X196220000Y-101590000D02*
X196220000Y-102606000D01*
X196220000Y-105654000D02*
X196220000Y-106035000D01*
X196220000Y-106035000D02*
X205110000Y-106035000D01*
X78174285Y-107857380D02*
X78174285Y-106857380D01*
X77602857Y-107857380D02*
X78031428Y-107285952D01*
X77602857Y-106857380D02*
X78174285Y-107428809D01*
X77269523Y-106857380D02*
X76650476Y-106857380D01*
X76983809Y-107238333D01*
X76840952Y-107238333D01*
X76745714Y-107285952D01*
X76698095Y-107333571D01*
X76650476Y-107428809D01*
X76650476Y-107666904D01*
X76698095Y-107762142D01*
X76745714Y-107809761D01*
X76840952Y-107857380D01*
X77126666Y-107857380D01*
X77221904Y-107809761D01*
X77269523Y-107762142D01*
X76317142Y-106857380D02*
X75698095Y-106857380D01*
X76031428Y-107238333D01*
X75888571Y-107238333D01*
X75793333Y-107285952D01*
X75745714Y-107333571D01*
X75698095Y-107428809D01*
X75698095Y-107666904D01*
X75745714Y-107762142D01*
X75793333Y-107809761D01*
X75888571Y-107857380D01*
X76174285Y-107857380D01*
X76269523Y-107809761D01*
X76317142Y-107762142D01*
X97274285Y-92857380D02*
X97274285Y-91857380D01*
X96702857Y-92857380D02*
X97131428Y-92285952D01*
X96702857Y-91857380D02*
X97274285Y-92428809D01*
X96321904Y-91952619D02*
X96274285Y-91905000D01*
X96179047Y-91857380D01*
X95940952Y-91857380D01*
X95845714Y-91905000D01*
X95798095Y-91952619D01*
X95750476Y-92047857D01*
X95750476Y-92143095D01*
X95798095Y-92285952D01*
X96369523Y-92857380D01*
X95750476Y-92857380D01*
X94845714Y-91857380D02*
X95321904Y-91857380D01*
X95369523Y-92333571D01*
X95321904Y-92285952D01*
X95226666Y-92238333D01*
X94988571Y-92238333D01*
X94893333Y-92285952D01*
X94845714Y-92333571D01*
X94798095Y-92428809D01*
X94798095Y-92666904D01*
X94845714Y-92762142D01*
X94893333Y-92809761D01*
X94988571Y-92857380D01*
X95226666Y-92857380D01*
X95321904Y-92809761D01*
X95369523Y-92762142D01*
X163664285Y-114552380D02*
X163664285Y-113552380D01*
X163426190Y-113552380D01*
X163283333Y-113600000D01*
X163188095Y-113695238D01*
X163140476Y-113790476D01*
X163092857Y-113980952D01*
X163092857Y-114123809D01*
X163140476Y-114314285D01*
X163188095Y-114409523D01*
X163283333Y-114504761D01*
X163426190Y-114552380D01*
X163664285Y-114552380D01*
X162759523Y-113552380D02*
X162092857Y-113552380D01*
X162521428Y-114552380D01*
X161521428Y-113552380D02*
X161426190Y-113552380D01*
X161330952Y-113600000D01*
X161283333Y-113647619D01*
X161235714Y-113742857D01*
X161188095Y-113933333D01*
X161188095Y-114171428D01*
X161235714Y-114361904D01*
X161283333Y-114457142D01*
X161330952Y-114504761D01*
X161426190Y-114552380D01*
X161521428Y-114552380D01*
X161616666Y-114504761D01*
X161664285Y-114457142D01*
X161711904Y-114361904D01*
X161759523Y-114171428D01*
X161759523Y-113933333D01*
X161711904Y-113742857D01*
X161664285Y-113647619D01*
X161616666Y-113600000D01*
X161521428Y-113552380D01*
X-6535714Y-42602380D02*
X-6535714Y-41602380D01*
X-6773809Y-41602380D01*
X-6916666Y-41650000D01*
X-7011904Y-41745238D01*
X-7059523Y-41840476D01*
X-7107142Y-42030952D01*
X-7107142Y-42173809D01*
X-7059523Y-42364285D01*
X-7011904Y-42459523D01*
X-6916666Y-42554761D01*
X-6773809Y-42602380D01*
X-6535714Y-42602380D01*
X-7726190Y-41602380D02*
X-7821428Y-41602380D01*
X-7916666Y-41650000D01*
X-7964285Y-41697619D01*
X-8011904Y-41792857D01*
X-8059523Y-41983333D01*
X-8059523Y-42221428D01*
X-8011904Y-42411904D01*
X-7964285Y-42507142D01*
X-7916666Y-42554761D01*
X-7821428Y-42602380D01*
X-7726190Y-42602380D01*
X-7630952Y-42554761D01*
X-7583333Y-42507142D01*
X-7535714Y-42411904D01*
X-7488095Y-42221428D01*
X-7488095Y-41983333D01*
X-7535714Y-41792857D01*
X-7583333Y-41697619D01*
X-7630952Y-41650000D01*
X-7726190Y-41602380D01*
X-8678571Y-41602380D02*
X-8773809Y-41602380D01*
X-8869047Y-41650000D01*
X-8916666Y-41697619D01*
X-8964285Y-41792857D01*
X-9011904Y-41983333D01*
X-9011904Y-42221428D01*
X-8964285Y-42411904D01*
X-8916666Y-42507142D01*
X-8869047Y-42554761D01*
X-8773809Y-42602380D01*
X-8678571Y-42602380D01*
X-8583333Y-42554761D01*
X-8535714Y-42507142D01*
X-8488095Y-42411904D01*
X-8440476Y-42221428D01*
X-8440476Y-41983333D01*
X-8488095Y-41792857D01*
X-8535714Y-41697619D01*
X-8583333Y-41650000D01*
X-8678571Y-41602380D01*
X12464285Y-38602380D02*
X12464285Y-37602380D01*
X12226190Y-37602380D01*
X12083333Y-37650000D01*
X11988095Y-37745238D01*
X11940476Y-37840476D01*
X11892857Y-38030952D01*
X11892857Y-38173809D01*
X11940476Y-38364285D01*
X11988095Y-38459523D01*
X12083333Y-38554761D01*
X12226190Y-38602380D01*
X12464285Y-38602380D01*
X11273809Y-37602380D02*
X11178571Y-37602380D01*
X11083333Y-37650000D01*
X11035714Y-37697619D01*
X10988095Y-37792857D01*
X10940476Y-37983333D01*
X10940476Y-38221428D01*
X10988095Y-38411904D01*
X11035714Y-38507142D01*
X11083333Y-38554761D01*
X11178571Y-38602380D01*
X11273809Y-38602380D01*
X11369047Y-38554761D01*
X11416666Y-38507142D01*
X11464285Y-38411904D01*
X11511904Y-38221428D01*
X11511904Y-37983333D01*
X11464285Y-37792857D01*
X11416666Y-37697619D01*
X11369047Y-37650000D01*
X11273809Y-37602380D01*
X9988095Y-38602380D02*
X10559523Y-38602380D01*
X10273809Y-38602380D02*
X10273809Y-37602380D01*
X10369047Y-37745238D01*
X10464285Y-37840476D01*
X10559523Y-37888095D01*
X31464285Y-34602380D02*
X31464285Y-33602380D01*
X31226190Y-33602380D01*
X31083333Y-33650000D01*
X30988095Y-33745238D01*
X30940476Y-33840476D01*
X30892857Y-34030952D01*
X30892857Y-34173809D01*
X30940476Y-34364285D01*
X30988095Y-34459523D01*
X31083333Y-34554761D01*
X31226190Y-34602380D01*
X31464285Y-34602380D01*
X30273809Y-33602380D02*
X30178571Y-33602380D01*
X30083333Y-33650000D01*
X30035714Y-33697619D01*
X29988095Y-33792857D01*
X29940476Y-33983333D01*
X29940476Y-34221428D01*
X29988095Y-34411904D01*
X30035714Y-34507142D01*
X30083333Y-34554761D01*
X30178571Y-34602380D01*
X30273809Y-34602380D01*
X30369047Y-34554761D01*
X30416666Y-34507142D01*
X30464285Y-34411904D01*
X30511904Y-34221428D01*
X30511904Y-33983333D01*
X30464285Y-33792857D01*
X30416666Y-33697619D01*
X30369047Y-33650000D01*
X30273809Y-33602380D01*
X29559523Y-33697619D02*
X29511904Y-33650000D01*
X29416666Y-33602380D01*
X29178571Y-33602380D01*
X29083333Y-33650000D01*
X29035714Y-33697619D01*
X28988095Y-33792857D01*
X28988095Y-33888095D01*
X29035714Y-34030952D01*
X29607142Y-34602380D01*
X28988095Y-34602380D01*
X50464285Y-30602380D02*
X50464285Y-29602380D01*
X50226190Y-29602380D01*
X50083333Y-29650000D01*
X49988095Y-29745238D01*
X49940476Y-29840476D01*
X49892857Y-30030952D01*
X49892857Y-30173809D01*
X49940476Y-30364285D01*
X49988095Y-30459523D01*
X50083333Y-30554761D01*
X50226190Y-30602380D01*
X50464285Y-30602380D01*
X49273809Y-29602380D02*
X49178571Y-29602380D01*
X49083333Y-29650000D01*
X49035714Y-29697619D01*
X48988095Y-29792857D01*
X48940476Y-29983333D01*
X48940476Y-30221428D01*
X48988095Y-30411904D01*
X49035714Y-30507142D01*
X49083333Y-30554761D01*
X49178571Y-30602380D01*
X49273809Y-30602380D01*
X49369047Y-30554761D01*
X49416666Y-30507142D01*
X49464285Y-30411904D01*
X49511904Y-30221428D01*
X49511904Y-29983333D01*
X49464285Y-29792857D01*
X49416666Y-29697619D01*
X49369047Y-29650000D01*
X49273809Y-29602380D01*
X48607142Y-29602380D02*
X47988095Y-29602380D01*
X48321428Y-29983333D01*
X48178571Y-29983333D01*
X48083333Y-30030952D01*
X48035714Y-30078571D01*
X47988095Y-30173809D01*
X47988095Y-30411904D01*
X48035714Y-30507142D01*
X48083333Y-30554761D01*
X48178571Y-30602380D01*
X48464285Y-30602380D01*
X48559523Y-30554761D01*
X48607142Y-30507142D01*
X69464285Y-34602380D02*
X69464285Y-33602380D01*
X69226190Y-33602380D01*
X69083333Y-33650000D01*
X68988095Y-33745238D01*
X68940476Y-33840476D01*
X68892857Y-34030952D01*
X68892857Y-34173809D01*
X68940476Y-34364285D01*
X68988095Y-34459523D01*
X69083333Y-34554761D01*
X69226190Y-34602380D01*
X69464285Y-34602380D01*
X68273809Y-33602380D02*
X68178571Y-33602380D01*
X68083333Y-33650000D01*
X68035714Y-33697619D01*
X67988095Y-33792857D01*
X67940476Y-33983333D01*
X67940476Y-34221428D01*
X67988095Y-34411904D01*
X68035714Y-34507142D01*
X68083333Y-34554761D01*
X68178571Y-34602380D01*
X68273809Y-34602380D01*
X68369047Y-34554761D01*
X68416666Y-34507142D01*
X68464285Y-34411904D01*
X68511904Y-34221428D01*
X68511904Y-33983333D01*
X68464285Y-33792857D01*
X68416666Y-33697619D01*
X68369047Y-33650000D01*
X68273809Y-33602380D01*
X67083333Y-33935714D02*
X67083333Y-34602380D01*
X67321428Y-33554761D02*
X67559523Y-34269047D01*
X66940476Y-34269047D01*
X88464285Y-38602380D02*
X88464285Y-37602380D01*
X88226190Y-37602380D01*
X88083333Y-37650000D01*
X87988095Y-37745238D01*
X87940476Y-37840476D01*
X87892857Y-38030952D01*
X87892857Y-38173809D01*
X87940476Y-38364285D01*
X87988095Y-38459523D01*
X88083333Y-38554761D01*
X88226190Y-38602380D01*
X88464285Y-38602380D01*
X87273809Y-37602380D02*
X87178571Y-37602380D01*
X87083333Y-37650000D01*
X87035714Y-37697619D01*
X86988095Y-37792857D01*
X86940476Y-37983333D01*
X86940476Y-38221428D01*
X86988095Y-38411904D01*
X87035714Y-38507142D01*
X87083333Y-38554761D01*
X87178571Y-38602380D01*
X87273809Y-38602380D01*
X87369047Y-38554761D01*
X87416666Y-38507142D01*
X87464285Y-38411904D01*
X87511904Y-38221428D01*
X87511904Y-37983333D01*
X87464285Y-37792857D01*
X87416666Y-37697619D01*
X87369047Y-37650000D01*
X87273809Y-37602380D01*
X86035714Y-37602380D02*
X86511904Y-37602380D01*
X86559523Y-38078571D01*
X86511904Y-38030952D01*
X86416666Y-37983333D01*
X86178571Y-37983333D01*
X86083333Y-38030952D01*
X86035714Y-38078571D01*
X85988095Y-38173809D01*
X85988095Y-38411904D01*
X86035714Y-38507142D01*
X86083333Y-38554761D01*
X86178571Y-38602380D01*
X86416666Y-38602380D01*
X86511904Y-38554761D01*
X86559523Y-38507142D01*
X-6535714Y-61602380D02*
X-6535714Y-60602380D01*
X-6773809Y-60602380D01*
X-6916666Y-60650000D01*
X-7011904Y-60745238D01*
X-7059523Y-60840476D01*
X-7107142Y-61030952D01*
X-7107142Y-61173809D01*
X-7059523Y-61364285D01*
X-7011904Y-61459523D01*
X-6916666Y-61554761D01*
X-6773809Y-61602380D01*
X-6535714Y-61602380D01*
X-8059523Y-61602380D02*
X-7488095Y-61602380D01*
X-7773809Y-61602380D02*
X-7773809Y-60602380D01*
X-7678571Y-60745238D01*
X-7583333Y-60840476D01*
X-7488095Y-60888095D01*
X-8678571Y-60602380D02*
X-8773809Y-60602380D01*
X-8869047Y-60650000D01*
X-8916666Y-60697619D01*
X-8964285Y-60792857D01*
X-9011904Y-60983333D01*
X-9011904Y-61221428D01*
X-8964285Y-61411904D01*
X-8916666Y-61507142D01*
X-8869047Y-61554761D01*
X-8773809Y-61602380D01*
X-8678571Y-61602380D01*
X-8583333Y-61554761D01*
X-8535714Y-61507142D01*
X-8488095Y-61411904D01*
X-8440476Y-61221428D01*
X-8440476Y-60983333D01*
X-8488095Y-60792857D01*
X-8535714Y-60697619D01*
X-8583333Y-60650000D01*
X-8678571Y-60602380D01*
X12464285Y-57602380D02*
X12464285Y-56602380D01*
X12226190Y-56602380D01*
X12083333Y-56650000D01*
X11988095Y-56745238D01*
X11940476Y-56840476D01*
X11892857Y-57030952D01*
X11892857Y-57173809D01*
X11940476Y-57364285D01*
X11988095Y-57459523D01*
X12083333Y-57554761D01*
X12226190Y-57602380D01*
X12464285Y-57602380D01*
X10940476Y-57602380D02*
X11511904Y-57602380D01*
X11226190Y-57602380D02*
X11226190Y-56602380D01*
X11321428Y-56745238D01*
X11416666Y-56840476D01*
X11511904Y-56888095D01*
X9988095Y-57602380D02*
X10559523Y-57602380D01*
X10273809Y-57602380D02*
X10273809Y-56602380D01*
X10369047Y-56745238D01*
X10464285Y-56840476D01*
X10559523Y-56888095D01*
X31464285Y-53602380D02*
X31464285Y-52602380D01*
X31226190Y-52602380D01*
X31083333Y-52650000D01*
X30988095Y-52745238D01*
X30940476Y-52840476D01*
X30892857Y-53030952D01*
X30892857Y-53173809D01*
X30940476Y-53364285D01*
X30988095Y-53459523D01*
X31083333Y-53554761D01*
X31226190Y-53602380D01*
X31464285Y-53602380D01*
X29940476Y-53602380D02*
X30511904Y-53602380D01*
X30226190Y-53602380D02*
X30226190Y-52602380D01*
X30321428Y-52745238D01*
X30416666Y-52840476D01*
X30511904Y-52888095D01*
X29559523Y-52697619D02*
X29511904Y-52650000D01*
X29416666Y-52602380D01*
X29178571Y-52602380D01*
X29083333Y-52650000D01*
X29035714Y-52697619D01*
X28988095Y-52792857D01*
X28988095Y-52888095D01*
X29035714Y-53030952D01*
X29607142Y-53602380D01*
X28988095Y-53602380D01*
X50464285Y-49602380D02*
X50464285Y-48602380D01*
X50226190Y-48602380D01*
X50083333Y-48650000D01*
X49988095Y-48745238D01*
X49940476Y-48840476D01*
X49892857Y-49030952D01*
X49892857Y-49173809D01*
X49940476Y-49364285D01*
X49988095Y-49459523D01*
X50083333Y-49554761D01*
X50226190Y-49602380D01*
X50464285Y-49602380D01*
X48940476Y-49602380D02*
X49511904Y-49602380D01*
X49226190Y-49602380D02*
X49226190Y-48602380D01*
X49321428Y-48745238D01*
X49416666Y-48840476D01*
X49511904Y-48888095D01*
X48607142Y-48602380D02*
X47988095Y-48602380D01*
X48321428Y-48983333D01*
X48178571Y-48983333D01*
X48083333Y-49030952D01*
X48035714Y-49078571D01*
X47988095Y-49173809D01*
X47988095Y-49411904D01*
X48035714Y-49507142D01*
X48083333Y-49554761D01*
X48178571Y-49602380D01*
X48464285Y-49602380D01*
X48559523Y-49554761D01*
X48607142Y-49507142D01*
X69464285Y-53602380D02*
X69464285Y-52602380D01*
X69226190Y-52602380D01*
X69083333Y-52650000D01*
X68988095Y-52745238D01*
X68940476Y-52840476D01*
X68892857Y-53030952D01*
X68892857Y-53173809D01*
X68940476Y-53364285D01*
X68988095Y-53459523D01*
X69083333Y-53554761D01*
X69226190Y-53602380D01*
X69464285Y-53602380D01*
X67940476Y-53602380D02*
X68511904Y-53602380D01*
X68226190Y-53602380D02*
X68226190Y-52602380D01*
X68321428Y-52745238D01*
X68416666Y-52840476D01*
X68511904Y-52888095D01*
X67083333Y-52935714D02*
X67083333Y-53602380D01*
X67321428Y-52554761D02*
X67559523Y-53269047D01*
X66940476Y-53269047D01*
X88464285Y-57602380D02*
X88464285Y-56602380D01*
X88226190Y-56602380D01*
X88083333Y-56650000D01*
X87988095Y-56745238D01*
X87940476Y-56840476D01*
X87892857Y-57030952D01*
X87892857Y-57173809D01*
X87940476Y-57364285D01*
X87988095Y-57459523D01*
X88083333Y-57554761D01*
X88226190Y-57602380D01*
X88464285Y-57602380D01*
X86940476Y-57602380D02*
X87511904Y-57602380D01*
X87226190Y-57602380D02*
X87226190Y-56602380D01*
X87321428Y-56745238D01*
X87416666Y-56840476D01*
X87511904Y-56888095D01*
X86035714Y-56602380D02*
X86511904Y-56602380D01*
X86559523Y-57078571D01*
X86511904Y-57030952D01*
X86416666Y-56983333D01*
X86178571Y-56983333D01*
X86083333Y-57030952D01*
X86035714Y-57078571D01*
X85988095Y-57173809D01*
X85988095Y-57411904D01*
X86035714Y-57507142D01*
X86083333Y-57554761D01*
X86178571Y-57602380D01*
X86416666Y-57602380D01*
X86511904Y-57554761D01*
X86559523Y-57507142D01*
X-6535714Y-80602380D02*
X-6535714Y-79602380D01*
X-6773809Y-79602380D01*
X-6916666Y-79650000D01*
X-7011904Y-79745238D01*
X-7059523Y-79840476D01*
X-7107142Y-80030952D01*
X-7107142Y-80173809D01*
X-7059523Y-80364285D01*
X-7011904Y-80459523D01*
X-6916666Y-80554761D01*
X-6773809Y-80602380D01*
X-6535714Y-80602380D01*
X-7488095Y-79697619D02*
X-7535714Y-79650000D01*
X-7630952Y-79602380D01*
X-7869047Y-79602380D01*
X-7964285Y-79650000D01*
X-8011904Y-79697619D01*
X-8059523Y-79792857D01*
X-8059523Y-79888095D01*
X-8011904Y-80030952D01*
X-7440476Y-80602380D01*
X-8059523Y-80602380D01*
X-8678571Y-79602380D02*
X-8773809Y-79602380D01*
X-8869047Y-79650000D01*
X-8916666Y-79697619D01*
X-8964285Y-79792857D01*
X-9011904Y-79983333D01*
X-9011904Y-80221428D01*
X-8964285Y-80411904D01*
X-8916666Y-80507142D01*
X-8869047Y-80554761D01*
X-8773809Y-80602380D01*
X-8678571Y-80602380D01*
X-8583333Y-80554761D01*
X-8535714Y-80507142D01*
X-8488095Y-80411904D01*
X-8440476Y-80221428D01*
X-8440476Y-79983333D01*
X-8488095Y-79792857D01*
X-8535714Y-79697619D01*
X-8583333Y-79650000D01*
X-8678571Y-79602380D01*
X12464285Y-76602380D02*
X12464285Y-75602380D01*
X12226190Y-75602380D01*
X12083333Y-75650000D01*
X11988095Y-75745238D01*
X11940476Y-75840476D01*
X11892857Y-76030952D01*
X11892857Y-76173809D01*
X11940476Y-76364285D01*
X11988095Y-76459523D01*
X12083333Y-76554761D01*
X12226190Y-76602380D01*
X12464285Y-76602380D01*
X11511904Y-75697619D02*
X11464285Y-75650000D01*
X11369047Y-75602380D01*
X11130952Y-75602380D01*
X11035714Y-75650000D01*
X10988095Y-75697619D01*
X10940476Y-75792857D01*
X10940476Y-75888095D01*
X10988095Y-76030952D01*
X11559523Y-76602380D01*
X10940476Y-76602380D01*
X9988095Y-76602380D02*
X10559523Y-76602380D01*
X10273809Y-76602380D02*
X10273809Y-75602380D01*
X10369047Y-75745238D01*
X10464285Y-75840476D01*
X10559523Y-75888095D01*
X31464285Y-72602380D02*
X31464285Y-71602380D01*
X31226190Y-71602380D01*
X31083333Y-71650000D01*
X30988095Y-71745238D01*
X30940476Y-71840476D01*
X30892857Y-72030952D01*
X30892857Y-72173809D01*
X30940476Y-72364285D01*
X30988095Y-72459523D01*
X31083333Y-72554761D01*
X31226190Y-72602380D01*
X31464285Y-72602380D01*
X30511904Y-71697619D02*
X30464285Y-71650000D01*
X30369047Y-71602380D01*
X30130952Y-71602380D01*
X30035714Y-71650000D01*
X29988095Y-71697619D01*
X29940476Y-71792857D01*
X29940476Y-71888095D01*
X29988095Y-72030952D01*
X30559523Y-72602380D01*
X29940476Y-72602380D01*
X29559523Y-71697619D02*
X29511904Y-71650000D01*
X29416666Y-71602380D01*
X29178571Y-71602380D01*
X29083333Y-71650000D01*
X29035714Y-71697619D01*
X28988095Y-71792857D01*
X28988095Y-71888095D01*
X29035714Y-72030952D01*
X29607142Y-72602380D01*
X28988095Y-72602380D01*
X50464285Y-68602380D02*
X50464285Y-67602380D01*
X50226190Y-67602380D01*
X50083333Y-67650000D01*
X49988095Y-67745238D01*
X49940476Y-67840476D01*
X49892857Y-68030952D01*
X49892857Y-68173809D01*
X49940476Y-68364285D01*
X49988095Y-68459523D01*
X50083333Y-68554761D01*
X50226190Y-68602380D01*
X50464285Y-68602380D01*
X49511904Y-67697619D02*
X49464285Y-67650000D01*
X49369047Y-67602380D01*
X49130952Y-67602380D01*
X49035714Y-67650000D01*
X48988095Y-67697619D01*
X48940476Y-67792857D01*
X48940476Y-67888095D01*
X48988095Y-68030952D01*
X49559523Y-68602380D01*
X48940476Y-68602380D01*
X48607142Y-67602380D02*
X47988095Y-67602380D01*
X48321428Y-67983333D01*
X48178571Y-67983333D01*
X48083333Y-68030952D01*
X48035714Y-68078571D01*
X47988095Y-68173809D01*
X47988095Y-68411904D01*
X48035714Y-68507142D01*
X48083333Y-68554761D01*
X48178571Y-68602380D01*
X48464285Y-68602380D01*
X48559523Y-68554761D01*
X48607142Y-68507142D01*
X69464285Y-72602380D02*
X69464285Y-71602380D01*
X69226190Y-71602380D01*
X69083333Y-71650000D01*
X68988095Y-71745238D01*
X68940476Y-71840476D01*
X68892857Y-72030952D01*
X68892857Y-72173809D01*
X68940476Y-72364285D01*
X68988095Y-72459523D01*
X69083333Y-72554761D01*
X69226190Y-72602380D01*
X69464285Y-72602380D01*
X68511904Y-71697619D02*
X68464285Y-71650000D01*
X68369047Y-71602380D01*
X68130952Y-71602380D01*
X68035714Y-71650000D01*
X67988095Y-71697619D01*
X67940476Y-71792857D01*
X67940476Y-71888095D01*
X67988095Y-72030952D01*
X68559523Y-72602380D01*
X67940476Y-72602380D01*
X67083333Y-71935714D02*
X67083333Y-72602380D01*
X67321428Y-71554761D02*
X67559523Y-72269047D01*
X66940476Y-72269047D01*
X88464285Y-76602380D02*
X88464285Y-75602380D01*
X88226190Y-75602380D01*
X88083333Y-75650000D01*
X87988095Y-75745238D01*
X87940476Y-75840476D01*
X87892857Y-76030952D01*
X87892857Y-76173809D01*
X87940476Y-76364285D01*
X87988095Y-76459523D01*
X88083333Y-76554761D01*
X88226190Y-76602380D01*
X88464285Y-76602380D01*
X87511904Y-75697619D02*
X87464285Y-75650000D01*
X87369047Y-75602380D01*
X87130952Y-75602380D01*
X87035714Y-75650000D01*
X86988095Y-75697619D01*
X86940476Y-75792857D01*
X86940476Y-75888095D01*
X86988095Y-76030952D01*
X87559523Y-76602380D01*
X86940476Y-76602380D01*
X86035714Y-75602380D02*
X86511904Y-75602380D01*
X86559523Y-76078571D01*
X86511904Y-76030952D01*
X86416666Y-75983333D01*
X86178571Y-75983333D01*
X86083333Y-76030952D01*
X86035714Y-76078571D01*
X85988095Y-76173809D01*
X85988095Y-76411904D01*
X86035714Y-76507142D01*
X86083333Y-76554761D01*
X86178571Y-76602380D01*
X86416666Y-76602380D01*
X86511904Y-76554761D01*
X86559523Y-76507142D01*
X69464285Y-91602380D02*
X69464285Y-90602380D01*
X69226190Y-90602380D01*
X69083333Y-90650000D01*
X68988095Y-90745238D01*
X68940476Y-90840476D01*
X68892857Y-91030952D01*
X68892857Y-91173809D01*
X68940476Y-91364285D01*
X68988095Y-91459523D01*
X69083333Y-91554761D01*
X69226190Y-91602380D01*
X69464285Y-91602380D01*
X68559523Y-90602380D02*
X67940476Y-90602380D01*
X68273809Y-90983333D01*
X68130952Y-90983333D01*
X68035714Y-91030952D01*
X67988095Y-91078571D01*
X67940476Y-91173809D01*
X67940476Y-91411904D01*
X67988095Y-91507142D01*
X68035714Y-91554761D01*
X68130952Y-91602380D01*
X68416666Y-91602380D01*
X68511904Y-91554761D01*
X68559523Y-91507142D01*
X67607142Y-90602380D02*
X66988095Y-90602380D01*
X67321428Y-90983333D01*
X67178571Y-90983333D01*
X67083333Y-91030952D01*
X67035714Y-91078571D01*
X66988095Y-91173809D01*
X66988095Y-91411904D01*
X67035714Y-91507142D01*
X67083333Y-91554761D01*
X67178571Y-91602380D01*
X67464285Y-91602380D01*
X67559523Y-91554761D01*
X67607142Y-91507142D01*
X88464285Y-95602380D02*
X88464285Y-94602380D01*
X88226190Y-94602380D01*
X88083333Y-94650000D01*
X87988095Y-94745238D01*
X87940476Y-94840476D01*
X87892857Y-95030952D01*
X87892857Y-95173809D01*
X87940476Y-95364285D01*
X87988095Y-95459523D01*
X88083333Y-95554761D01*
X88226190Y-95602380D01*
X88464285Y-95602380D01*
X87559523Y-94602380D02*
X86940476Y-94602380D01*
X87273809Y-94983333D01*
X87130952Y-94983333D01*
X87035714Y-95030952D01*
X86988095Y-95078571D01*
X86940476Y-95173809D01*
X86940476Y-95411904D01*
X86988095Y-95507142D01*
X87035714Y-95554761D01*
X87130952Y-95602380D01*
X87416666Y-95602380D01*
X87511904Y-95554761D01*
X87559523Y-95507142D01*
X86083333Y-94935714D02*
X86083333Y-95602380D01*
X86321428Y-94554761D02*
X86559523Y-95269047D01*
X85940476Y-95269047D01*
X103464285Y-114602380D02*
X103464285Y-113602380D01*
X103226190Y-113602380D01*
X103083333Y-113650000D01*
X102988095Y-113745238D01*
X102940476Y-113840476D01*
X102892857Y-114030952D01*
X102892857Y-114173809D01*
X102940476Y-114364285D01*
X102988095Y-114459523D01*
X103083333Y-114554761D01*
X103226190Y-114602380D01*
X103464285Y-114602380D01*
X102559523Y-113602380D02*
X101940476Y-113602380D01*
X102273809Y-113983333D01*
X102130952Y-113983333D01*
X102035714Y-114030952D01*
X101988095Y-114078571D01*
X101940476Y-114173809D01*
X101940476Y-114411904D01*
X101988095Y-114507142D01*
X102035714Y-114554761D01*
X102130952Y-114602380D01*
X102416666Y-114602380D01*
X102511904Y-114554761D01*
X102559523Y-114507142D01*
X101035714Y-113602380D02*
X101511904Y-113602380D01*
X101559523Y-114078571D01*
X101511904Y-114030952D01*
X101416666Y-113983333D01*
X101178571Y-113983333D01*
X101083333Y-114030952D01*
X101035714Y-114078571D01*
X100988095Y-114173809D01*
X100988095Y-114411904D01*
X101035714Y-114507142D01*
X101083333Y-114554761D01*
X101178571Y-114602380D01*
X101416666Y-114602380D01*
X101511904Y-114554761D01*
X101559523Y-114507142D01*
X178664285Y-38552380D02*
X178664285Y-37552380D01*
X178426190Y-37552380D01*
X178283333Y-37600000D01*
X178188095Y-37695238D01*
X178140476Y-37790476D01*
X178092857Y-37980952D01*
X178092857Y-38123809D01*
X178140476Y-38314285D01*
X178188095Y-38409523D01*
X178283333Y-38504761D01*
X178426190Y-38552380D01*
X178664285Y-38552380D01*
X177235714Y-37885714D02*
X177235714Y-38552380D01*
X177473809Y-37504761D02*
X177711904Y-38219047D01*
X177092857Y-38219047D01*
X176521428Y-37552380D02*
X176426190Y-37552380D01*
X176330952Y-37600000D01*
X176283333Y-37647619D01*
X176235714Y-37742857D01*
X176188095Y-37933333D01*
X176188095Y-38171428D01*
X176235714Y-38361904D01*
X176283333Y-38457142D01*
X176330952Y-38504761D01*
X176426190Y-38552380D01*
X176521428Y-38552380D01*
X176616666Y-38504761D01*
X176664285Y-38457142D01*
X176711904Y-38361904D01*
X176759523Y-38171428D01*
X176759523Y-37933333D01*
X176711904Y-37742857D01*
X176664285Y-37647619D01*
X176616666Y-37600000D01*
X176521428Y-37552380D01*
X197414285Y-34552380D02*
X197414285Y-33552380D01*
X197176190Y-33552380D01*
X197033333Y-33600000D01*
X196938095Y-33695238D01*
X196890476Y-33790476D01*
X196842857Y-33980952D01*
X196842857Y-34123809D01*
X196890476Y-34314285D01*
X196938095Y-34409523D01*
X197033333Y-34504761D01*
X197176190Y-34552380D01*
X197414285Y-34552380D01*
X195985714Y-33885714D02*
X195985714Y-34552380D01*
X196223809Y-33504761D02*
X196461904Y-34219047D01*
X195842857Y-34219047D01*
X194938095Y-34552380D02*
X195509523Y-34552380D01*
X195223809Y-34552380D02*
X195223809Y-33552380D01*
X195319047Y-33695238D01*
X195414285Y-33790476D01*
X195509523Y-33838095D01*
X216664285Y-30552380D02*
X216664285Y-29552380D01*
X216426190Y-29552380D01*
X216283333Y-29600000D01*
X216188095Y-29695238D01*
X216140476Y-29790476D01*
X216092857Y-29980952D01*
X216092857Y-30123809D01*
X216140476Y-30314285D01*
X216188095Y-30409523D01*
X216283333Y-30504761D01*
X216426190Y-30552380D01*
X216664285Y-30552380D01*
X215235714Y-29885714D02*
X215235714Y-30552380D01*
X215473809Y-29504761D02*
X215711904Y-30219047D01*
X215092857Y-30219047D01*
X214759523Y-29647619D02*
X214711904Y-29600000D01*
X214616666Y-29552380D01*
X214378571Y-29552380D01*
X214283333Y-29600000D01*
X214235714Y-29647619D01*
X214188095Y-29742857D01*
X214188095Y-29838095D01*
X214235714Y-29980952D01*
X214807142Y-30552380D01*
X214188095Y-30552380D01*
X235414285Y-34552380D02*
X235414285Y-33552380D01*
X235176190Y-33552380D01*
X235033333Y-33600000D01*
X234938095Y-33695238D01*
X234890476Y-33790476D01*
X234842857Y-33980952D01*
X234842857Y-34123809D01*
X234890476Y-34314285D01*
X234938095Y-34409523D01*
X235033333Y-34504761D01*
X235176190Y-34552380D01*
X235414285Y-34552380D01*
X233985714Y-33885714D02*
X233985714Y-34552380D01*
X234223809Y-33504761D02*
X234461904Y-34219047D01*
X233842857Y-34219047D01*
X233557142Y-33552380D02*
X232938095Y-33552380D01*
X233271428Y-33933333D01*
X233128571Y-33933333D01*
X233033333Y-33980952D01*
X232985714Y-34028571D01*
X232938095Y-34123809D01*
X232938095Y-34361904D01*
X232985714Y-34457142D01*
X233033333Y-34504761D01*
X233128571Y-34552380D01*
X233414285Y-34552380D01*
X233509523Y-34504761D01*
X233557142Y-34457142D01*
X254414285Y-38552380D02*
X254414285Y-37552380D01*
X254176190Y-37552380D01*
X254033333Y-37600000D01*
X253938095Y-37695238D01*
X253890476Y-37790476D01*
X253842857Y-37980952D01*
X253842857Y-38123809D01*
X253890476Y-38314285D01*
X253938095Y-38409523D01*
X254033333Y-38504761D01*
X254176190Y-38552380D01*
X254414285Y-38552380D01*
X252985714Y-37885714D02*
X252985714Y-38552380D01*
X253223809Y-37504761D02*
X253461904Y-38219047D01*
X252842857Y-38219047D01*
X252033333Y-37885714D02*
X252033333Y-38552380D01*
X252271428Y-37504761D02*
X252509523Y-38219047D01*
X251890476Y-38219047D01*
X273414285Y-42552380D02*
X273414285Y-41552380D01*
X273176190Y-41552380D01*
X273033333Y-41600000D01*
X272938095Y-41695238D01*
X272890476Y-41790476D01*
X272842857Y-41980952D01*
X272842857Y-42123809D01*
X272890476Y-42314285D01*
X272938095Y-42409523D01*
X273033333Y-42504761D01*
X273176190Y-42552380D01*
X273414285Y-42552380D01*
X271985714Y-41885714D02*
X271985714Y-42552380D01*
X272223809Y-41504761D02*
X272461904Y-42219047D01*
X271842857Y-42219047D01*
X270985714Y-41552380D02*
X271461904Y-41552380D01*
X271509523Y-42028571D01*
X271461904Y-41980952D01*
X271366666Y-41933333D01*
X271128571Y-41933333D01*
X271033333Y-41980952D01*
X270985714Y-42028571D01*
X270938095Y-42123809D01*
X270938095Y-42361904D01*
X270985714Y-42457142D01*
X271033333Y-42504761D01*
X271128571Y-42552380D01*
X271366666Y-42552380D01*
X271461904Y-42504761D01*
X271509523Y-42457142D01*
X178664285Y-57552380D02*
X178664285Y-56552380D01*
X178426190Y-56552380D01*
X178283333Y-56600000D01*
X178188095Y-56695238D01*
X178140476Y-56790476D01*
X178092857Y-56980952D01*
X178092857Y-57123809D01*
X178140476Y-57314285D01*
X178188095Y-57409523D01*
X178283333Y-57504761D01*
X178426190Y-57552380D01*
X178664285Y-57552380D01*
X177188095Y-56552380D02*
X177664285Y-56552380D01*
X177711904Y-57028571D01*
X177664285Y-56980952D01*
X177569047Y-56933333D01*
X177330952Y-56933333D01*
X177235714Y-56980952D01*
X177188095Y-57028571D01*
X177140476Y-57123809D01*
X177140476Y-57361904D01*
X177188095Y-57457142D01*
X177235714Y-57504761D01*
X177330952Y-57552380D01*
X177569047Y-57552380D01*
X177664285Y-57504761D01*
X177711904Y-57457142D01*
X176521428Y-56552380D02*
X176426190Y-56552380D01*
X176330952Y-56600000D01*
X176283333Y-56647619D01*
X176235714Y-56742857D01*
X176188095Y-56933333D01*
X176188095Y-57171428D01*
X176235714Y-57361904D01*
X176283333Y-57457142D01*
X176330952Y-57504761D01*
X176426190Y-57552380D01*
X176521428Y-57552380D01*
X176616666Y-57504761D01*
X176664285Y-57457142D01*
X176711904Y-57361904D01*
X176759523Y-57171428D01*
X176759523Y-56933333D01*
X176711904Y-56742857D01*
X176664285Y-56647619D01*
X176616666Y-56600000D01*
X176521428Y-56552380D01*
X197414285Y-53552380D02*
X197414285Y-52552380D01*
X197176190Y-52552380D01*
X197033333Y-52600000D01*
X196938095Y-52695238D01*
X196890476Y-52790476D01*
X196842857Y-52980952D01*
X196842857Y-53123809D01*
X196890476Y-53314285D01*
X196938095Y-53409523D01*
X197033333Y-53504761D01*
X197176190Y-53552380D01*
X197414285Y-53552380D01*
X195938095Y-52552380D02*
X196414285Y-52552380D01*
X196461904Y-53028571D01*
X196414285Y-52980952D01*
X196319047Y-52933333D01*
X196080952Y-52933333D01*
X195985714Y-52980952D01*
X195938095Y-53028571D01*
X195890476Y-53123809D01*
X195890476Y-53361904D01*
X195938095Y-53457142D01*
X195985714Y-53504761D01*
X196080952Y-53552380D01*
X196319047Y-53552380D01*
X196414285Y-53504761D01*
X196461904Y-53457142D01*
X194938095Y-53552380D02*
X195509523Y-53552380D01*
X195223809Y-53552380D02*
X195223809Y-52552380D01*
X195319047Y-52695238D01*
X195414285Y-52790476D01*
X195509523Y-52838095D01*
X216414285Y-49552380D02*
X216414285Y-48552380D01*
X216176190Y-48552380D01*
X216033333Y-48600000D01*
X215938095Y-48695238D01*
X215890476Y-48790476D01*
X215842857Y-48980952D01*
X215842857Y-49123809D01*
X215890476Y-49314285D01*
X215938095Y-49409523D01*
X216033333Y-49504761D01*
X216176190Y-49552380D01*
X216414285Y-49552380D01*
X214938095Y-48552380D02*
X215414285Y-48552380D01*
X215461904Y-49028571D01*
X215414285Y-48980952D01*
X215319047Y-48933333D01*
X215080952Y-48933333D01*
X214985714Y-48980952D01*
X214938095Y-49028571D01*
X214890476Y-49123809D01*
X214890476Y-49361904D01*
X214938095Y-49457142D01*
X214985714Y-49504761D01*
X215080952Y-49552380D01*
X215319047Y-49552380D01*
X215414285Y-49504761D01*
X215461904Y-49457142D01*
X214509523Y-48647619D02*
X214461904Y-48600000D01*
X214366666Y-48552380D01*
X214128571Y-48552380D01*
X214033333Y-48600000D01*
X213985714Y-48647619D01*
X213938095Y-48742857D01*
X213938095Y-48838095D01*
X213985714Y-48980952D01*
X214557142Y-49552380D01*
X213938095Y-49552380D01*
X235664285Y-53552380D02*
X235664285Y-52552380D01*
X235426190Y-52552380D01*
X235283333Y-52600000D01*
X235188095Y-52695238D01*
X235140476Y-52790476D01*
X235092857Y-52980952D01*
X235092857Y-53123809D01*
X235140476Y-53314285D01*
X235188095Y-53409523D01*
X235283333Y-53504761D01*
X235426190Y-53552380D01*
X235664285Y-53552380D01*
X234188095Y-52552380D02*
X234664285Y-52552380D01*
X234711904Y-53028571D01*
X234664285Y-52980952D01*
X234569047Y-52933333D01*
X234330952Y-52933333D01*
X234235714Y-52980952D01*
X234188095Y-53028571D01*
X234140476Y-53123809D01*
X234140476Y-53361904D01*
X234188095Y-53457142D01*
X234235714Y-53504761D01*
X234330952Y-53552380D01*
X234569047Y-53552380D01*
X234664285Y-53504761D01*
X234711904Y-53457142D01*
X233807142Y-52552380D02*
X233188095Y-52552380D01*
X233521428Y-52933333D01*
X233378571Y-52933333D01*
X233283333Y-52980952D01*
X233235714Y-53028571D01*
X233188095Y-53123809D01*
X233188095Y-53361904D01*
X233235714Y-53457142D01*
X233283333Y-53504761D01*
X233378571Y-53552380D01*
X233664285Y-53552380D01*
X233759523Y-53504761D01*
X233807142Y-53457142D01*
X254414285Y-57552380D02*
X254414285Y-56552380D01*
X254176190Y-56552380D01*
X254033333Y-56600000D01*
X253938095Y-56695238D01*
X253890476Y-56790476D01*
X253842857Y-56980952D01*
X253842857Y-57123809D01*
X253890476Y-57314285D01*
X253938095Y-57409523D01*
X254033333Y-57504761D01*
X254176190Y-57552380D01*
X254414285Y-57552380D01*
X252938095Y-56552380D02*
X253414285Y-56552380D01*
X253461904Y-57028571D01*
X253414285Y-56980952D01*
X253319047Y-56933333D01*
X253080952Y-56933333D01*
X252985714Y-56980952D01*
X252938095Y-57028571D01*
X252890476Y-57123809D01*
X252890476Y-57361904D01*
X252938095Y-57457142D01*
X252985714Y-57504761D01*
X253080952Y-57552380D01*
X253319047Y-57552380D01*
X253414285Y-57504761D01*
X253461904Y-57457142D01*
X252033333Y-56885714D02*
X252033333Y-57552380D01*
X252271428Y-56504761D02*
X252509523Y-57219047D01*
X251890476Y-57219047D01*
X273664285Y-61552380D02*
X273664285Y-60552380D01*
X273426190Y-60552380D01*
X273283333Y-60600000D01*
X273188095Y-60695238D01*
X273140476Y-60790476D01*
X273092857Y-60980952D01*
X273092857Y-61123809D01*
X273140476Y-61314285D01*
X273188095Y-61409523D01*
X273283333Y-61504761D01*
X273426190Y-61552380D01*
X273664285Y-61552380D01*
X272188095Y-60552380D02*
X272664285Y-60552380D01*
X272711904Y-61028571D01*
X272664285Y-60980952D01*
X272569047Y-60933333D01*
X272330952Y-60933333D01*
X272235714Y-60980952D01*
X272188095Y-61028571D01*
X272140476Y-61123809D01*
X272140476Y-61361904D01*
X272188095Y-61457142D01*
X272235714Y-61504761D01*
X272330952Y-61552380D01*
X272569047Y-61552380D01*
X272664285Y-61504761D01*
X272711904Y-61457142D01*
X271235714Y-60552380D02*
X271711904Y-60552380D01*
X271759523Y-61028571D01*
X271711904Y-60980952D01*
X271616666Y-60933333D01*
X271378571Y-60933333D01*
X271283333Y-60980952D01*
X271235714Y-61028571D01*
X271188095Y-61123809D01*
X271188095Y-61361904D01*
X271235714Y-61457142D01*
X271283333Y-61504761D01*
X271378571Y-61552380D01*
X271616666Y-61552380D01*
X271711904Y-61504761D01*
X271759523Y-61457142D01*
X178664285Y-76552380D02*
X178664285Y-75552380D01*
X178426190Y-75552380D01*
X178283333Y-75600000D01*
X178188095Y-75695238D01*
X178140476Y-75790476D01*
X178092857Y-75980952D01*
X178092857Y-76123809D01*
X178140476Y-76314285D01*
X178188095Y-76409523D01*
X178283333Y-76504761D01*
X178426190Y-76552380D01*
X178664285Y-76552380D01*
X177235714Y-75552380D02*
X177426190Y-75552380D01*
X177521428Y-75600000D01*
X177569047Y-75647619D01*
X177664285Y-75790476D01*
X177711904Y-75980952D01*
X177711904Y-76361904D01*
X177664285Y-76457142D01*
X177616666Y-76504761D01*
X177521428Y-76552380D01*
X177330952Y-76552380D01*
X177235714Y-76504761D01*
X177188095Y-76457142D01*
X177140476Y-76361904D01*
X177140476Y-76123809D01*
X177188095Y-76028571D01*
X177235714Y-75980952D01*
X177330952Y-75933333D01*
X177521428Y-75933333D01*
X177616666Y-75980952D01*
X177664285Y-76028571D01*
X177711904Y-76123809D01*
X176521428Y-75552380D02*
X176426190Y-75552380D01*
X176330952Y-75600000D01*
X176283333Y-75647619D01*
X176235714Y-75742857D01*
X176188095Y-75933333D01*
X176188095Y-76171428D01*
X176235714Y-76361904D01*
X176283333Y-76457142D01*
X176330952Y-76504761D01*
X176426190Y-76552380D01*
X176521428Y-76552380D01*
X176616666Y-76504761D01*
X176664285Y-76457142D01*
X176711904Y-76361904D01*
X176759523Y-76171428D01*
X176759523Y-75933333D01*
X176711904Y-75742857D01*
X176664285Y-75647619D01*
X176616666Y-75600000D01*
X176521428Y-75552380D01*
X197664285Y-72552380D02*
X197664285Y-71552380D01*
X197426190Y-71552380D01*
X197283333Y-71600000D01*
X197188095Y-71695238D01*
X197140476Y-71790476D01*
X197092857Y-71980952D01*
X197092857Y-72123809D01*
X197140476Y-72314285D01*
X197188095Y-72409523D01*
X197283333Y-72504761D01*
X197426190Y-72552380D01*
X197664285Y-72552380D01*
X196235714Y-71552380D02*
X196426190Y-71552380D01*
X196521428Y-71600000D01*
X196569047Y-71647619D01*
X196664285Y-71790476D01*
X196711904Y-71980952D01*
X196711904Y-72361904D01*
X196664285Y-72457142D01*
X196616666Y-72504761D01*
X196521428Y-72552380D01*
X196330952Y-72552380D01*
X196235714Y-72504761D01*
X196188095Y-72457142D01*
X196140476Y-72361904D01*
X196140476Y-72123809D01*
X196188095Y-72028571D01*
X196235714Y-71980952D01*
X196330952Y-71933333D01*
X196521428Y-71933333D01*
X196616666Y-71980952D01*
X196664285Y-72028571D01*
X196711904Y-72123809D01*
X195188095Y-72552380D02*
X195759523Y-72552380D01*
X195473809Y-72552380D02*
X195473809Y-71552380D01*
X195569047Y-71695238D01*
X195664285Y-71790476D01*
X195759523Y-71838095D01*
X216414285Y-68552380D02*
X216414285Y-67552380D01*
X216176190Y-67552380D01*
X216033333Y-67600000D01*
X215938095Y-67695238D01*
X215890476Y-67790476D01*
X215842857Y-67980952D01*
X215842857Y-68123809D01*
X215890476Y-68314285D01*
X215938095Y-68409523D01*
X216033333Y-68504761D01*
X216176190Y-68552380D01*
X216414285Y-68552380D01*
X214985714Y-67552380D02*
X215176190Y-67552380D01*
X215271428Y-67600000D01*
X215319047Y-67647619D01*
X215414285Y-67790476D01*
X215461904Y-67980952D01*
X215461904Y-68361904D01*
X215414285Y-68457142D01*
X215366666Y-68504761D01*
X215271428Y-68552380D01*
X215080952Y-68552380D01*
X214985714Y-68504761D01*
X214938095Y-68457142D01*
X214890476Y-68361904D01*
X214890476Y-68123809D01*
X214938095Y-68028571D01*
X214985714Y-67980952D01*
X215080952Y-67933333D01*
X215271428Y-67933333D01*
X215366666Y-67980952D01*
X215414285Y-68028571D01*
X215461904Y-68123809D01*
X214509523Y-67647619D02*
X214461904Y-67600000D01*
X214366666Y-67552380D01*
X214128571Y-67552380D01*
X214033333Y-67600000D01*
X213985714Y-67647619D01*
X213938095Y-67742857D01*
X213938095Y-67838095D01*
X213985714Y-67980952D01*
X214557142Y-68552380D01*
X213938095Y-68552380D01*
X235414285Y-72552380D02*
X235414285Y-71552380D01*
X235176190Y-71552380D01*
X235033333Y-71600000D01*
X234938095Y-71695238D01*
X234890476Y-71790476D01*
X234842857Y-71980952D01*
X234842857Y-72123809D01*
X234890476Y-72314285D01*
X234938095Y-72409523D01*
X235033333Y-72504761D01*
X235176190Y-72552380D01*
X235414285Y-72552380D01*
X233985714Y-71552380D02*
X234176190Y-71552380D01*
X234271428Y-71600000D01*
X234319047Y-71647619D01*
X234414285Y-71790476D01*
X234461904Y-71980952D01*
X234461904Y-72361904D01*
X234414285Y-72457142D01*
X234366666Y-72504761D01*
X234271428Y-72552380D01*
X234080952Y-72552380D01*
X233985714Y-72504761D01*
X233938095Y-72457142D01*
X233890476Y-72361904D01*
X233890476Y-72123809D01*
X233938095Y-72028571D01*
X233985714Y-71980952D01*
X234080952Y-71933333D01*
X234271428Y-71933333D01*
X234366666Y-71980952D01*
X234414285Y-72028571D01*
X234461904Y-72123809D01*
X233557142Y-71552380D02*
X232938095Y-71552380D01*
X233271428Y-71933333D01*
X233128571Y-71933333D01*
X233033333Y-71980952D01*
X232985714Y-72028571D01*
X232938095Y-72123809D01*
X232938095Y-72361904D01*
X232985714Y-72457142D01*
X233033333Y-72504761D01*
X233128571Y-72552380D01*
X233414285Y-72552380D01*
X233509523Y-72504761D01*
X233557142Y-72457142D01*
X254414285Y-76552380D02*
X254414285Y-75552380D01*
X254176190Y-75552380D01*
X254033333Y-75600000D01*
X253938095Y-75695238D01*
X253890476Y-75790476D01*
X253842857Y-75980952D01*
X253842857Y-76123809D01*
X253890476Y-76314285D01*
X253938095Y-76409523D01*
X254033333Y-76504761D01*
X254176190Y-76552380D01*
X254414285Y-76552380D01*
X252985714Y-75552380D02*
X253176190Y-75552380D01*
X253271428Y-75600000D01*
X253319047Y-75647619D01*
X253414285Y-75790476D01*
X253461904Y-75980952D01*
X253461904Y-76361904D01*
X253414285Y-76457142D01*
X253366666Y-76504761D01*
X253271428Y-76552380D01*
X253080952Y-76552380D01*
X252985714Y-76504761D01*
X252938095Y-76457142D01*
X252890476Y-76361904D01*
X252890476Y-76123809D01*
X252938095Y-76028571D01*
X252985714Y-75980952D01*
X253080952Y-75933333D01*
X253271428Y-75933333D01*
X253366666Y-75980952D01*
X253414285Y-76028571D01*
X253461904Y-76123809D01*
X252033333Y-75885714D02*
X252033333Y-76552380D01*
X252271428Y-75504761D02*
X252509523Y-76219047D01*
X251890476Y-76219047D01*
X273664285Y-80552380D02*
X273664285Y-79552380D01*
X273426190Y-79552380D01*
X273283333Y-79600000D01*
X273188095Y-79695238D01*
X273140476Y-79790476D01*
X273092857Y-79980952D01*
X273092857Y-80123809D01*
X273140476Y-80314285D01*
X273188095Y-80409523D01*
X273283333Y-80504761D01*
X273426190Y-80552380D01*
X273664285Y-80552380D01*
X272235714Y-79552380D02*
X272426190Y-79552380D01*
X272521428Y-79600000D01*
X272569047Y-79647619D01*
X272664285Y-79790476D01*
X272711904Y-79980952D01*
X272711904Y-80361904D01*
X272664285Y-80457142D01*
X272616666Y-80504761D01*
X272521428Y-80552380D01*
X272330952Y-80552380D01*
X272235714Y-80504761D01*
X272188095Y-80457142D01*
X272140476Y-80361904D01*
X272140476Y-80123809D01*
X272188095Y-80028571D01*
X272235714Y-79980952D01*
X272330952Y-79933333D01*
X272521428Y-79933333D01*
X272616666Y-79980952D01*
X272664285Y-80028571D01*
X272711904Y-80123809D01*
X271235714Y-79552380D02*
X271711904Y-79552380D01*
X271759523Y-80028571D01*
X271711904Y-79980952D01*
X271616666Y-79933333D01*
X271378571Y-79933333D01*
X271283333Y-79980952D01*
X271235714Y-80028571D01*
X271188095Y-80123809D01*
X271188095Y-80361904D01*
X271235714Y-80457142D01*
X271283333Y-80504761D01*
X271378571Y-80552380D01*
X271616666Y-80552380D01*
X271711904Y-80504761D01*
X271759523Y-80457142D01*
X178414285Y-95552380D02*
X178414285Y-94552380D01*
X178176190Y-94552380D01*
X178033333Y-94600000D01*
X177938095Y-94695238D01*
X177890476Y-94790476D01*
X177842857Y-94980952D01*
X177842857Y-95123809D01*
X177890476Y-95314285D01*
X177938095Y-95409523D01*
X178033333Y-95504761D01*
X178176190Y-95552380D01*
X178414285Y-95552380D01*
X177509523Y-94552380D02*
X176842857Y-94552380D01*
X177271428Y-95552380D01*
X175938095Y-95552380D02*
X176509523Y-95552380D01*
X176223809Y-95552380D02*
X176223809Y-94552380D01*
X176319047Y-94695238D01*
X176414285Y-94790476D01*
X176509523Y-94838095D01*
X197664285Y-91552380D02*
X197664285Y-90552380D01*
X197426190Y-90552380D01*
X197283333Y-90600000D01*
X197188095Y-90695238D01*
X197140476Y-90790476D01*
X197092857Y-90980952D01*
X197092857Y-91123809D01*
X197140476Y-91314285D01*
X197188095Y-91409523D01*
X197283333Y-91504761D01*
X197426190Y-91552380D01*
X197664285Y-91552380D01*
X196759523Y-90552380D02*
X196092857Y-90552380D01*
X196521428Y-91552380D01*
X195759523Y-90647619D02*
X195711904Y-90600000D01*
X195616666Y-90552380D01*
X195378571Y-90552380D01*
X195283333Y-90600000D01*
X195235714Y-90647619D01*
X195188095Y-90742857D01*
X195188095Y-90838095D01*
X195235714Y-90980952D01*
X195807142Y-91552380D01*
X195188095Y-91552380D01*
X133942380Y-102475904D02*
X134656666Y-102475904D01*
X134799523Y-102428285D01*
X134894761Y-102333047D01*
X134942380Y-102190190D01*
X134942380Y-102094952D01*
X134942380Y-103428285D02*
X134942380Y-102952095D01*
X133942380Y-102952095D01*
X134894761Y-104142571D02*
X134942380Y-104047333D01*
X134942380Y-103856857D01*
X134894761Y-103761619D01*
X134799523Y-103714000D01*
X134418571Y-103714000D01*
X134323333Y-103761619D01*
X134275714Y-103856857D01*
X134275714Y-104047333D01*
X134323333Y-104142571D01*
X134418571Y-104190190D01*
X134513809Y-104190190D01*
X134609047Y-103714000D01*
X134275714Y-104475904D02*
X134275714Y-104856857D01*
X134942380Y-104618761D02*
X134085238Y-104618761D01*
X133990000Y-104666380D01*
X133942380Y-104761619D01*
X133942380Y-104856857D01*
X134275714Y-105047333D02*
X134275714Y-105428285D01*
X133942380Y-105190190D02*
X134799523Y-105190190D01*
X134894761Y-105237809D01*
X134942380Y-105333047D01*
X134942380Y-105428285D01*
X134037619Y-105714000D02*
X133990000Y-105761619D01*
X133942380Y-105856857D01*
X133942380Y-106094952D01*
X133990000Y-106190190D01*
X134037619Y-106237809D01*
X134132857Y-106285428D01*
X134228095Y-106285428D01*
X134370952Y-106237809D01*
X134942380Y-105666380D01*
X134942380Y-106285428D01*
X139412380Y-101424095D02*
X140126666Y-101424095D01*
X140269523Y-101376476D01*
X140364761Y-101281238D01*
X140412380Y-101138380D01*
X140412380Y-101043142D01*
X140412380Y-102471714D02*
X139936190Y-102138380D01*
X140412380Y-101900285D02*
X139412380Y-101900285D01*
X139412380Y-102281238D01*
X139460000Y-102376476D01*
X139507619Y-102424095D01*
X139602857Y-102471714D01*
X139745714Y-102471714D01*
X139840952Y-102424095D01*
X139888571Y-102376476D01*
X139936190Y-102281238D01*
X139936190Y-101900285D01*
X140412380Y-102900285D02*
X139745714Y-102900285D01*
X139412380Y-102900285D02*
X139460000Y-102852666D01*
X139507619Y-102900285D01*
X139460000Y-102947904D01*
X139412380Y-102900285D01*
X139507619Y-102900285D01*
X139745714Y-103805047D02*
X140555238Y-103805047D01*
X140650476Y-103757428D01*
X140698095Y-103709809D01*
X140745714Y-103614571D01*
X140745714Y-103471714D01*
X140698095Y-103376476D01*
X140364761Y-103805047D02*
X140412380Y-103709809D01*
X140412380Y-103519333D01*
X140364761Y-103424095D01*
X140317142Y-103376476D01*
X140221904Y-103328857D01*
X139936190Y-103328857D01*
X139840952Y-103376476D01*
X139793333Y-103424095D01*
X139745714Y-103519333D01*
X139745714Y-103709809D01*
X139793333Y-103805047D01*
X140412380Y-104281238D02*
X139412380Y-104281238D01*
X140412380Y-104709809D02*
X139888571Y-104709809D01*
X139793333Y-104662190D01*
X139745714Y-104566952D01*
X139745714Y-104424095D01*
X139793333Y-104328857D01*
X139840952Y-104281238D01*
X139745714Y-105043142D02*
X139745714Y-105424095D01*
X139412380Y-105186000D02*
X140269523Y-105186000D01*
X140364761Y-105233619D01*
X140412380Y-105328857D01*
X140412380Y-105424095D01*
X139507619Y-105709809D02*
X139460000Y-105757428D01*
X139412380Y-105852666D01*
X139412380Y-106090761D01*
X139460000Y-106186000D01*
X139507619Y-106233619D01*
X139602857Y-106281238D01*
X139698095Y-106281238D01*
X139840952Y-106233619D01*
X140412380Y-105662190D01*
X140412380Y-106281238D01*
X127488095Y-124702380D02*
X127488095Y-125416666D01*
X127535714Y-125559523D01*
X127630952Y-125654761D01*
X127773809Y-125702380D01*
X127869047Y-125702380D01*
X126535714Y-125702380D02*
X127011904Y-125702380D01*
X127011904Y-124702380D01*
X125821428Y-125654761D02*
X125916666Y-125702380D01*
X126107142Y-125702380D01*
X126202380Y-125654761D01*
X126250000Y-125559523D01*
X126250000Y-125178571D01*
X126202380Y-125083333D01*
X126107142Y-125035714D01*
X125916666Y-125035714D01*
X125821428Y-125083333D01*
X125773809Y-125178571D01*
X125773809Y-125273809D01*
X126250000Y-125369047D01*
X125488095Y-125035714D02*
X125107142Y-125035714D01*
X125345238Y-125702380D02*
X125345238Y-124845238D01*
X125297619Y-124750000D01*
X125202380Y-124702380D01*
X125107142Y-124702380D01*
X124916666Y-125035714D02*
X124535714Y-125035714D01*
X124773809Y-124702380D02*
X124773809Y-125559523D01*
X124726190Y-125654761D01*
X124630952Y-125702380D01*
X124535714Y-125702380D01*
X123678571Y-125702380D02*
X124250000Y-125702380D01*
X123964285Y-125702380D02*
X123964285Y-124702380D01*
X124059523Y-124845238D01*
X124154761Y-124940476D01*
X124250000Y-124988095D01*
X150961904Y-124702380D02*
X150961904Y-125416666D01*
X151009523Y-125559523D01*
X151104761Y-125654761D01*
X151247619Y-125702380D01*
X151342857Y-125702380D01*
X149914285Y-125702380D02*
X150247619Y-125226190D01*
X150485714Y-125702380D02*
X150485714Y-124702380D01*
X150104761Y-124702380D01*
X150009523Y-124750000D01*
X149961904Y-124797619D01*
X149914285Y-124892857D01*
X149914285Y-125035714D01*
X149961904Y-125130952D01*
X150009523Y-125178571D01*
X150104761Y-125226190D01*
X150485714Y-125226190D01*
X149485714Y-125702380D02*
X149485714Y-125035714D01*
X149485714Y-124702380D02*
X149533333Y-124750000D01*
X149485714Y-124797619D01*
X149438095Y-124750000D01*
X149485714Y-124702380D01*
X149485714Y-124797619D01*
X148580952Y-125035714D02*
X148580952Y-125845238D01*
X148628571Y-125940476D01*
X148676190Y-125988095D01*
X148771428Y-126035714D01*
X148914285Y-126035714D01*
X149009523Y-125988095D01*
X148580952Y-125654761D02*
X148676190Y-125702380D01*
X148866666Y-125702380D01*
X148961904Y-125654761D01*
X149009523Y-125607142D01*
X149057142Y-125511904D01*
X149057142Y-125226190D01*
X149009523Y-125130952D01*
X148961904Y-125083333D01*
X148866666Y-125035714D01*
X148676190Y-125035714D01*
X148580952Y-125083333D01*
X148104761Y-125702380D02*
X148104761Y-124702380D01*
X147676190Y-125702380D02*
X147676190Y-125178571D01*
X147723809Y-125083333D01*
X147819047Y-125035714D01*
X147961904Y-125035714D01*
X148057142Y-125083333D01*
X148104761Y-125130952D01*
X147342857Y-125035714D02*
X146961904Y-125035714D01*
X147200000Y-124702380D02*
X147200000Y-125559523D01*
X147152380Y-125654761D01*
X147057142Y-125702380D01*
X146961904Y-125702380D01*
X146104761Y-125702380D02*
X146676190Y-125702380D01*
X146390476Y-125702380D02*
X146390476Y-124702380D01*
X146485714Y-124845238D01*
X146580952Y-124940476D01*
X146676190Y-124988095D01*
X40274285Y-69857380D02*
X40274285Y-68857380D01*
X39702857Y-69857380D02*
X40131428Y-69285952D01*
X39702857Y-68857380D02*
X40274285Y-69428809D01*
X38750476Y-69857380D02*
X39321904Y-69857380D01*
X39036190Y-69857380D02*
X39036190Y-68857380D01*
X39131428Y-69000238D01*
X39226666Y-69095476D01*
X39321904Y-69143095D01*
X38369523Y-68952619D02*
X38321904Y-68905000D01*
X38226666Y-68857380D01*
X37988571Y-68857380D01*
X37893333Y-68905000D01*
X37845714Y-68952619D01*
X37798095Y-69047857D01*
X37798095Y-69143095D01*
X37845714Y-69285952D01*
X38417142Y-69857380D01*
X37798095Y-69857380D01*
X2174285Y-58857380D02*
X2174285Y-57857380D01*
X1602857Y-58857380D02*
X2031428Y-58285952D01*
X1602857Y-57857380D02*
X2174285Y-58428809D01*
X983809Y-57857380D02*
X888571Y-57857380D01*
X793333Y-57905000D01*
X745714Y-57952619D01*
X698095Y-58047857D01*
X650476Y-58238333D01*
X650476Y-58476428D01*
X698095Y-58666904D01*
X745714Y-58762142D01*
X793333Y-58809761D01*
X888571Y-58857380D01*
X983809Y-58857380D01*
X1079047Y-58809761D01*
X1126666Y-58762142D01*
X1174285Y-58666904D01*
X1221904Y-58476428D01*
X1221904Y-58238333D01*
X1174285Y-58047857D01*
X1126666Y-57952619D01*
X1079047Y-57905000D01*
X983809Y-57857380D01*
X31428Y-57857380D02*
X-63809Y-57857380D01*
X-159047Y-57905000D01*
X-206666Y-57952619D01*
X-254285Y-58047857D01*
X-301904Y-58238333D01*
X-301904Y-58476428D01*
X-254285Y-58666904D01*
X-206666Y-58762142D01*
X-159047Y-58809761D01*
X-63809Y-58857380D01*
X31428Y-58857380D01*
X126666Y-58809761D01*
X174285Y-58762142D01*
X221904Y-58666904D01*
X269523Y-58476428D01*
X269523Y-58238333D01*
X221904Y-58047857D01*
X174285Y-57952619D01*
X126666Y-57905000D01*
X31428Y-57857380D01*
X21174285Y-54857380D02*
X21174285Y-53857380D01*
X20602857Y-54857380D02*
X21031428Y-54285952D01*
X20602857Y-53857380D02*
X21174285Y-54428809D01*
X19983809Y-53857380D02*
X19888571Y-53857380D01*
X19793333Y-53905000D01*
X19745714Y-53952619D01*
X19698095Y-54047857D01*
X19650476Y-54238333D01*
X19650476Y-54476428D01*
X19698095Y-54666904D01*
X19745714Y-54762142D01*
X19793333Y-54809761D01*
X19888571Y-54857380D01*
X19983809Y-54857380D01*
X20079047Y-54809761D01*
X20126666Y-54762142D01*
X20174285Y-54666904D01*
X20221904Y-54476428D01*
X20221904Y-54238333D01*
X20174285Y-54047857D01*
X20126666Y-53952619D01*
X20079047Y-53905000D01*
X19983809Y-53857380D01*
X18698095Y-54857380D02*
X19269523Y-54857380D01*
X18983809Y-54857380D02*
X18983809Y-53857380D01*
X19079047Y-54000238D01*
X19174285Y-54095476D01*
X19269523Y-54143095D01*
X40274285Y-50857380D02*
X40274285Y-49857380D01*
X39702857Y-50857380D02*
X40131428Y-50285952D01*
X39702857Y-49857380D02*
X40274285Y-50428809D01*
X39083809Y-49857380D02*
X38988571Y-49857380D01*
X38893333Y-49905000D01*
X38845714Y-49952619D01*
X38798095Y-50047857D01*
X38750476Y-50238333D01*
X38750476Y-50476428D01*
X38798095Y-50666904D01*
X38845714Y-50762142D01*
X38893333Y-50809761D01*
X38988571Y-50857380D01*
X39083809Y-50857380D01*
X39179047Y-50809761D01*
X39226666Y-50762142D01*
X39274285Y-50666904D01*
X39321904Y-50476428D01*
X39321904Y-50238333D01*
X39274285Y-50047857D01*
X39226666Y-49952619D01*
X39179047Y-49905000D01*
X39083809Y-49857380D01*
X38369523Y-49952619D02*
X38321904Y-49905000D01*
X38226666Y-49857380D01*
X37988571Y-49857380D01*
X37893333Y-49905000D01*
X37845714Y-49952619D01*
X37798095Y-50047857D01*
X37798095Y-50143095D01*
X37845714Y-50285952D01*
X38417142Y-50857380D01*
X37798095Y-50857380D01*
X59274285Y-46857380D02*
X59274285Y-45857380D01*
X58702857Y-46857380D02*
X59131428Y-46285952D01*
X58702857Y-45857380D02*
X59274285Y-46428809D01*
X58083809Y-45857380D02*
X57988571Y-45857380D01*
X57893333Y-45905000D01*
X57845714Y-45952619D01*
X57798095Y-46047857D01*
X57750476Y-46238333D01*
X57750476Y-46476428D01*
X57798095Y-46666904D01*
X57845714Y-46762142D01*
X57893333Y-46809761D01*
X57988571Y-46857380D01*
X58083809Y-46857380D01*
X58179047Y-46809761D01*
X58226666Y-46762142D01*
X58274285Y-46666904D01*
X58321904Y-46476428D01*
X58321904Y-46238333D01*
X58274285Y-46047857D01*
X58226666Y-45952619D01*
X58179047Y-45905000D01*
X58083809Y-45857380D01*
X57417142Y-45857380D02*
X56798095Y-45857380D01*
X57131428Y-46238333D01*
X56988571Y-46238333D01*
X56893333Y-46285952D01*
X56845714Y-46333571D01*
X56798095Y-46428809D01*
X56798095Y-46666904D01*
X56845714Y-46762142D01*
X56893333Y-46809761D01*
X56988571Y-46857380D01*
X57274285Y-46857380D01*
X57369523Y-46809761D01*
X57417142Y-46762142D01*
X78184285Y-50797380D02*
X78184285Y-49797380D01*
X77612857Y-50797380D02*
X78041428Y-50225952D01*
X77612857Y-49797380D02*
X78184285Y-50368809D01*
X76993809Y-49797380D02*
X76898571Y-49797380D01*
X76803333Y-49845000D01*
X76755714Y-49892619D01*
X76708095Y-49987857D01*
X76660476Y-50178333D01*
X76660476Y-50416428D01*
X76708095Y-50606904D01*
X76755714Y-50702142D01*
X76803333Y-50749761D01*
X76898571Y-50797380D01*
X76993809Y-50797380D01*
X77089047Y-50749761D01*
X77136666Y-50702142D01*
X77184285Y-50606904D01*
X77231904Y-50416428D01*
X77231904Y-50178333D01*
X77184285Y-49987857D01*
X77136666Y-49892619D01*
X77089047Y-49845000D01*
X76993809Y-49797380D01*
X75803333Y-50130714D02*
X75803333Y-50797380D01*
X76041428Y-49749761D02*
X76279523Y-50464047D01*
X75660476Y-50464047D01*
X97274285Y-54857380D02*
X97274285Y-53857380D01*
X96702857Y-54857380D02*
X97131428Y-54285952D01*
X96702857Y-53857380D02*
X97274285Y-54428809D01*
X96083809Y-53857380D02*
X95988571Y-53857380D01*
X95893333Y-53905000D01*
X95845714Y-53952619D01*
X95798095Y-54047857D01*
X95750476Y-54238333D01*
X95750476Y-54476428D01*
X95798095Y-54666904D01*
X95845714Y-54762142D01*
X95893333Y-54809761D01*
X95988571Y-54857380D01*
X96083809Y-54857380D01*
X96179047Y-54809761D01*
X96226666Y-54762142D01*
X96274285Y-54666904D01*
X96321904Y-54476428D01*
X96321904Y-54238333D01*
X96274285Y-54047857D01*
X96226666Y-53952619D01*
X96179047Y-53905000D01*
X96083809Y-53857380D01*
X94845714Y-53857380D02*
X95321904Y-53857380D01*
X95369523Y-54333571D01*
X95321904Y-54285952D01*
X95226666Y-54238333D01*
X94988571Y-54238333D01*
X94893333Y-54285952D01*
X94845714Y-54333571D01*
X94798095Y-54428809D01*
X94798095Y-54666904D01*
X94845714Y-54762142D01*
X94893333Y-54809761D01*
X94988571Y-54857380D01*
X95226666Y-54857380D01*
X95321904Y-54809761D01*
X95369523Y-54762142D01*
X2174285Y-77857380D02*
X2174285Y-76857380D01*
X1602857Y-77857380D02*
X2031428Y-77285952D01*
X1602857Y-76857380D02*
X2174285Y-77428809D01*
X650476Y-77857380D02*
X1221904Y-77857380D01*
X936190Y-77857380D02*
X936190Y-76857380D01*
X1031428Y-77000238D01*
X1126666Y-77095476D01*
X1221904Y-77143095D01*
X31428Y-76857380D02*
X-63809Y-76857380D01*
X-159047Y-76905000D01*
X-206666Y-76952619D01*
X-254285Y-77047857D01*
X-301904Y-77238333D01*
X-301904Y-77476428D01*
X-254285Y-77666904D01*
X-206666Y-77762142D01*
X-159047Y-77809761D01*
X-63809Y-77857380D01*
X31428Y-77857380D01*
X126666Y-77809761D01*
X174285Y-77762142D01*
X221904Y-77666904D01*
X269523Y-77476428D01*
X269523Y-77238333D01*
X221904Y-77047857D01*
X174285Y-76952619D01*
X126666Y-76905000D01*
X31428Y-76857380D01*
X21174285Y-73857380D02*
X21174285Y-72857380D01*
X20602857Y-73857380D02*
X21031428Y-73285952D01*
X20602857Y-72857380D02*
X21174285Y-73428809D01*
X19650476Y-73857380D02*
X20221904Y-73857380D01*
X19936190Y-73857380D02*
X19936190Y-72857380D01*
X20031428Y-73000238D01*
X20126666Y-73095476D01*
X20221904Y-73143095D01*
X18698095Y-73857380D02*
X19269523Y-73857380D01*
X18983809Y-73857380D02*
X18983809Y-72857380D01*
X19079047Y-73000238D01*
X19174285Y-73095476D01*
X19269523Y-73143095D01*
X59274285Y-65857380D02*
X59274285Y-64857380D01*
X58702857Y-65857380D02*
X59131428Y-65285952D01*
X58702857Y-64857380D02*
X59274285Y-65428809D01*
X57750476Y-65857380D02*
X58321904Y-65857380D01*
X58036190Y-65857380D02*
X58036190Y-64857380D01*
X58131428Y-65000238D01*
X58226666Y-65095476D01*
X58321904Y-65143095D01*
X57417142Y-64857380D02*
X56798095Y-64857380D01*
X57131428Y-65238333D01*
X56988571Y-65238333D01*
X56893333Y-65285952D01*
X56845714Y-65333571D01*
X56798095Y-65428809D01*
X56798095Y-65666904D01*
X56845714Y-65762142D01*
X56893333Y-65809761D01*
X56988571Y-65857380D01*
X57274285Y-65857380D01*
X57369523Y-65809761D01*
X57417142Y-65762142D01*
X78274285Y-69857380D02*
X78274285Y-68857380D01*
X77702857Y-69857380D02*
X78131428Y-69285952D01*
X77702857Y-68857380D02*
X78274285Y-69428809D01*
X76750476Y-69857380D02*
X77321904Y-69857380D01*
X77036190Y-69857380D02*
X77036190Y-68857380D01*
X77131428Y-69000238D01*
X77226666Y-69095476D01*
X77321904Y-69143095D01*
X75893333Y-69190714D02*
X75893333Y-69857380D01*
X76131428Y-68809761D02*
X76369523Y-69524047D01*
X75750476Y-69524047D01*
X97274285Y-73857380D02*
X97274285Y-72857380D01*
X96702857Y-73857380D02*
X97131428Y-73285952D01*
X96702857Y-72857380D02*
X97274285Y-73428809D01*
X95750476Y-73857380D02*
X96321904Y-73857380D01*
X96036190Y-73857380D02*
X96036190Y-72857380D01*
X96131428Y-73000238D01*
X96226666Y-73095476D01*
X96321904Y-73143095D01*
X94845714Y-72857380D02*
X95321904Y-72857380D01*
X95369523Y-73333571D01*
X95321904Y-73285952D01*
X95226666Y-73238333D01*
X94988571Y-73238333D01*
X94893333Y-73285952D01*
X94845714Y-73333571D01*
X94798095Y-73428809D01*
X94798095Y-73666904D01*
X94845714Y-73762142D01*
X94893333Y-73809761D01*
X94988571Y-73857380D01*
X95226666Y-73857380D01*
X95321904Y-73809761D01*
X95369523Y-73762142D01*
X2274285Y-96857380D02*
X2274285Y-95857380D01*
X1702857Y-96857380D02*
X2131428Y-96285952D01*
X1702857Y-95857380D02*
X2274285Y-96428809D01*
X1321904Y-95952619D02*
X1274285Y-95905000D01*
X1179047Y-95857380D01*
X940952Y-95857380D01*
X845714Y-95905000D01*
X798095Y-95952619D01*
X750476Y-96047857D01*
X750476Y-96143095D01*
X798095Y-96285952D01*
X1369523Y-96857380D01*
X750476Y-96857380D01*
X131428Y-95857380D02*
X36190Y-95857380D01*
X-59047Y-95905000D01*
X-106666Y-95952619D01*
X-154285Y-96047857D01*
X-201904Y-96238333D01*
X-201904Y-96476428D01*
X-154285Y-96666904D01*
X-106666Y-96762142D01*
X-59047Y-96809761D01*
X36190Y-96857380D01*
X131428Y-96857380D01*
X226666Y-96809761D01*
X274285Y-96762142D01*
X321904Y-96666904D01*
X369523Y-96476428D01*
X369523Y-96238333D01*
X321904Y-96047857D01*
X274285Y-95952619D01*
X226666Y-95905000D01*
X131428Y-95857380D01*
X21274285Y-92857380D02*
X21274285Y-91857380D01*
X20702857Y-92857380D02*
X21131428Y-92285952D01*
X20702857Y-91857380D02*
X21274285Y-92428809D01*
X20321904Y-91952619D02*
X20274285Y-91905000D01*
X20179047Y-91857380D01*
X19940952Y-91857380D01*
X19845714Y-91905000D01*
X19798095Y-91952619D01*
X19750476Y-92047857D01*
X19750476Y-92143095D01*
X19798095Y-92285952D01*
X20369523Y-92857380D01*
X19750476Y-92857380D01*
X18798095Y-92857380D02*
X19369523Y-92857380D01*
X19083809Y-92857380D02*
X19083809Y-91857380D01*
X19179047Y-92000238D01*
X19274285Y-92095476D01*
X19369523Y-92143095D01*
X40274285Y-88857380D02*
X40274285Y-87857380D01*
X39702857Y-88857380D02*
X40131428Y-88285952D01*
X39702857Y-87857380D02*
X40274285Y-88428809D01*
X39321904Y-87952619D02*
X39274285Y-87905000D01*
X39179047Y-87857380D01*
X38940952Y-87857380D01*
X38845714Y-87905000D01*
X38798095Y-87952619D01*
X38750476Y-88047857D01*
X38750476Y-88143095D01*
X38798095Y-88285952D01*
X39369523Y-88857380D01*
X38750476Y-88857380D01*
X38369523Y-87952619D02*
X38321904Y-87905000D01*
X38226666Y-87857380D01*
X37988571Y-87857380D01*
X37893333Y-87905000D01*
X37845714Y-87952619D01*
X37798095Y-88047857D01*
X37798095Y-88143095D01*
X37845714Y-88285952D01*
X38417142Y-88857380D01*
X37798095Y-88857380D01*
X59174285Y-84857380D02*
X59174285Y-83857380D01*
X58602857Y-84857380D02*
X59031428Y-84285952D01*
X58602857Y-83857380D02*
X59174285Y-84428809D01*
X58221904Y-83952619D02*
X58174285Y-83905000D01*
X58079047Y-83857380D01*
X57840952Y-83857380D01*
X57745714Y-83905000D01*
X57698095Y-83952619D01*
X57650476Y-84047857D01*
X57650476Y-84143095D01*
X57698095Y-84285952D01*
X58269523Y-84857380D01*
X57650476Y-84857380D01*
X57317142Y-83857380D02*
X56698095Y-83857380D01*
X57031428Y-84238333D01*
X56888571Y-84238333D01*
X56793333Y-84285952D01*
X56745714Y-84333571D01*
X56698095Y-84428809D01*
X56698095Y-84666904D01*
X56745714Y-84762142D01*
X56793333Y-84809761D01*
X56888571Y-84857380D01*
X57174285Y-84857380D01*
X57269523Y-84809761D01*
X57317142Y-84762142D01*
X78274285Y-88857380D02*
X78274285Y-87857380D01*
X77702857Y-88857380D02*
X78131428Y-88285952D01*
X77702857Y-87857380D02*
X78274285Y-88428809D01*
X77321904Y-87952619D02*
X77274285Y-87905000D01*
X77179047Y-87857380D01*
X76940952Y-87857380D01*
X76845714Y-87905000D01*
X76798095Y-87952619D01*
X76750476Y-88047857D01*
X76750476Y-88143095D01*
X76798095Y-88285952D01*
X77369523Y-88857380D01*
X76750476Y-88857380D01*
X75893333Y-88190714D02*
X75893333Y-88857380D01*
X76131428Y-87809761D02*
X76369523Y-88524047D01*
X75750476Y-88524047D01*
X97174285Y-111857380D02*
X97174285Y-110857380D01*
X96602857Y-111857380D02*
X97031428Y-111285952D01*
X96602857Y-110857380D02*
X97174285Y-111428809D01*
X96269523Y-110857380D02*
X95650476Y-110857380D01*
X95983809Y-111238333D01*
X95840952Y-111238333D01*
X95745714Y-111285952D01*
X95698095Y-111333571D01*
X95650476Y-111428809D01*
X95650476Y-111666904D01*
X95698095Y-111762142D01*
X95745714Y-111809761D01*
X95840952Y-111857380D01*
X96126666Y-111857380D01*
X96221904Y-111809761D01*
X96269523Y-111762142D01*
X94793333Y-111190714D02*
X94793333Y-111857380D01*
X95031428Y-110809761D02*
X95269523Y-111524047D01*
X94650476Y-111524047D01*
X112274285Y-130857380D02*
X112274285Y-129857380D01*
X111702857Y-130857380D02*
X112131428Y-130285952D01*
X111702857Y-129857380D02*
X112274285Y-130428809D01*
X111369523Y-129857380D02*
X110750476Y-129857380D01*
X111083809Y-130238333D01*
X110940952Y-130238333D01*
X110845714Y-130285952D01*
X110798095Y-130333571D01*
X110750476Y-130428809D01*
X110750476Y-130666904D01*
X110798095Y-130762142D01*
X110845714Y-130809761D01*
X110940952Y-130857380D01*
X111226666Y-130857380D01*
X111321904Y-130809761D01*
X111369523Y-130762142D01*
X109845714Y-129857380D02*
X110321904Y-129857380D01*
X110369523Y-130333571D01*
X110321904Y-130285952D01*
X110226666Y-130238333D01*
X109988571Y-130238333D01*
X109893333Y-130285952D01*
X109845714Y-130333571D01*
X109798095Y-130428809D01*
X109798095Y-130666904D01*
X109845714Y-130762142D01*
X109893333Y-130809761D01*
X109988571Y-130857380D01*
X110226666Y-130857380D01*
X110321904Y-130809761D01*
X110369523Y-130762142D01*
X187414285Y-54717380D02*
X187414285Y-53717380D01*
X186842857Y-54717380D02*
X187271428Y-54145952D01*
X186842857Y-53717380D02*
X187414285Y-54288809D01*
X185985714Y-54050714D02*
X185985714Y-54717380D01*
X186223809Y-53669761D02*
X186461904Y-54384047D01*
X185842857Y-54384047D01*
X185271428Y-53717380D02*
X185176190Y-53717380D01*
X185080952Y-53765000D01*
X185033333Y-53812619D01*
X184985714Y-53907857D01*
X184938095Y-54098333D01*
X184938095Y-54336428D01*
X184985714Y-54526904D01*
X185033333Y-54622142D01*
X185080952Y-54669761D01*
X185176190Y-54717380D01*
X185271428Y-54717380D01*
X185366666Y-54669761D01*
X185414285Y-54622142D01*
X185461904Y-54526904D01*
X185509523Y-54336428D01*
X185509523Y-54098333D01*
X185461904Y-53907857D01*
X185414285Y-53812619D01*
X185366666Y-53765000D01*
X185271428Y-53717380D01*
X206224285Y-50857380D02*
X206224285Y-49857380D01*
X205652857Y-50857380D02*
X206081428Y-50285952D01*
X205652857Y-49857380D02*
X206224285Y-50428809D01*
X204795714Y-50190714D02*
X204795714Y-50857380D01*
X205033809Y-49809761D02*
X205271904Y-50524047D01*
X204652857Y-50524047D01*
X203748095Y-50857380D02*
X204319523Y-50857380D01*
X204033809Y-50857380D02*
X204033809Y-49857380D01*
X204129047Y-50000238D01*
X204224285Y-50095476D01*
X204319523Y-50143095D01*
X225324285Y-46857380D02*
X225324285Y-45857380D01*
X224752857Y-46857380D02*
X225181428Y-46285952D01*
X224752857Y-45857380D02*
X225324285Y-46428809D01*
X223895714Y-46190714D02*
X223895714Y-46857380D01*
X224133809Y-45809761D02*
X224371904Y-46524047D01*
X223752857Y-46524047D01*
X223419523Y-45952619D02*
X223371904Y-45905000D01*
X223276666Y-45857380D01*
X223038571Y-45857380D01*
X222943333Y-45905000D01*
X222895714Y-45952619D01*
X222848095Y-46047857D01*
X222848095Y-46143095D01*
X222895714Y-46285952D01*
X223467142Y-46857380D01*
X222848095Y-46857380D01*
X244224285Y-50757380D02*
X244224285Y-49757380D01*
X243652857Y-50757380D02*
X244081428Y-50185952D01*
X243652857Y-49757380D02*
X244224285Y-50328809D01*
X242795714Y-50090714D02*
X242795714Y-50757380D01*
X243033809Y-49709761D02*
X243271904Y-50424047D01*
X242652857Y-50424047D01*
X242367142Y-49757380D02*
X241748095Y-49757380D01*
X242081428Y-50138333D01*
X241938571Y-50138333D01*
X241843333Y-50185952D01*
X241795714Y-50233571D01*
X241748095Y-50328809D01*
X241748095Y-50566904D01*
X241795714Y-50662142D01*
X241843333Y-50709761D01*
X241938571Y-50757380D01*
X242224285Y-50757380D01*
X242319523Y-50709761D01*
X242367142Y-50662142D01*
X263214285Y-54817380D02*
X263214285Y-53817380D01*
X262642857Y-54817380D02*
X263071428Y-54245952D01*
X262642857Y-53817380D02*
X263214285Y-54388809D01*
X261785714Y-54150714D02*
X261785714Y-54817380D01*
X262023809Y-53769761D02*
X262261904Y-54484047D01*
X261642857Y-54484047D01*
X260833333Y-54150714D02*
X260833333Y-54817380D01*
X261071428Y-53769761D02*
X261309523Y-54484047D01*
X260690476Y-54484047D01*
X282224285Y-58857380D02*
X282224285Y-57857380D01*
X281652857Y-58857380D02*
X282081428Y-58285952D01*
X281652857Y-57857380D02*
X282224285Y-58428809D01*
X280795714Y-58190714D02*
X280795714Y-58857380D01*
X281033809Y-57809761D02*
X281271904Y-58524047D01*
X280652857Y-58524047D01*
X279795714Y-57857380D02*
X280271904Y-57857380D01*
X280319523Y-58333571D01*
X280271904Y-58285952D01*
X280176666Y-58238333D01*
X279938571Y-58238333D01*
X279843333Y-58285952D01*
X279795714Y-58333571D01*
X279748095Y-58428809D01*
X279748095Y-58666904D01*
X279795714Y-58762142D01*
X279843333Y-58809761D01*
X279938571Y-58857380D01*
X280176666Y-58857380D01*
X280271904Y-58809761D01*
X280319523Y-58762142D01*
X187324285Y-73857380D02*
X187324285Y-72857380D01*
X186752857Y-73857380D02*
X187181428Y-73285952D01*
X186752857Y-72857380D02*
X187324285Y-73428809D01*
X185848095Y-72857380D02*
X186324285Y-72857380D01*
X186371904Y-73333571D01*
X186324285Y-73285952D01*
X186229047Y-73238333D01*
X185990952Y-73238333D01*
X185895714Y-73285952D01*
X185848095Y-73333571D01*
X185800476Y-73428809D01*
X185800476Y-73666904D01*
X185848095Y-73762142D01*
X185895714Y-73809761D01*
X185990952Y-73857380D01*
X186229047Y-73857380D01*
X186324285Y-73809761D01*
X186371904Y-73762142D01*
X185181428Y-72857380D02*
X185086190Y-72857380D01*
X184990952Y-72905000D01*
X184943333Y-72952619D01*
X184895714Y-73047857D01*
X184848095Y-73238333D01*
X184848095Y-73476428D01*
X184895714Y-73666904D01*
X184943333Y-73762142D01*
X184990952Y-73809761D01*
X185086190Y-73857380D01*
X185181428Y-73857380D01*
X185276666Y-73809761D01*
X185324285Y-73762142D01*
X185371904Y-73666904D01*
X185419523Y-73476428D01*
X185419523Y-73238333D01*
X185371904Y-73047857D01*
X185324285Y-72952619D01*
X185276666Y-72905000D01*
X185181428Y-72857380D01*
X206224285Y-69857380D02*
X206224285Y-68857380D01*
X205652857Y-69857380D02*
X206081428Y-69285952D01*
X205652857Y-68857380D02*
X206224285Y-69428809D01*
X204748095Y-68857380D02*
X205224285Y-68857380D01*
X205271904Y-69333571D01*
X205224285Y-69285952D01*
X205129047Y-69238333D01*
X204890952Y-69238333D01*
X204795714Y-69285952D01*
X204748095Y-69333571D01*
X204700476Y-69428809D01*
X204700476Y-69666904D01*
X204748095Y-69762142D01*
X204795714Y-69809761D01*
X204890952Y-69857380D01*
X205129047Y-69857380D01*
X205224285Y-69809761D01*
X205271904Y-69762142D01*
X203748095Y-69857380D02*
X204319523Y-69857380D01*
X204033809Y-69857380D02*
X204033809Y-68857380D01*
X204129047Y-69000238D01*
X204224285Y-69095476D01*
X204319523Y-69143095D01*
X225224285Y-65957380D02*
X225224285Y-64957380D01*
X224652857Y-65957380D02*
X225081428Y-65385952D01*
X224652857Y-64957380D02*
X225224285Y-65528809D01*
X223748095Y-64957380D02*
X224224285Y-64957380D01*
X224271904Y-65433571D01*
X224224285Y-65385952D01*
X224129047Y-65338333D01*
X223890952Y-65338333D01*
X223795714Y-65385952D01*
X223748095Y-65433571D01*
X223700476Y-65528809D01*
X223700476Y-65766904D01*
X223748095Y-65862142D01*
X223795714Y-65909761D01*
X223890952Y-65957380D01*
X224129047Y-65957380D01*
X224224285Y-65909761D01*
X224271904Y-65862142D01*
X223319523Y-65052619D02*
X223271904Y-65005000D01*
X223176666Y-64957380D01*
X222938571Y-64957380D01*
X222843333Y-65005000D01*
X222795714Y-65052619D01*
X222748095Y-65147857D01*
X222748095Y-65243095D01*
X222795714Y-65385952D01*
X223367142Y-65957380D01*
X222748095Y-65957380D01*
X244324285Y-69757380D02*
X244324285Y-68757380D01*
X243752857Y-69757380D02*
X244181428Y-69185952D01*
X243752857Y-68757380D02*
X244324285Y-69328809D01*
X242848095Y-68757380D02*
X243324285Y-68757380D01*
X243371904Y-69233571D01*
X243324285Y-69185952D01*
X243229047Y-69138333D01*
X242990952Y-69138333D01*
X242895714Y-69185952D01*
X242848095Y-69233571D01*
X242800476Y-69328809D01*
X242800476Y-69566904D01*
X242848095Y-69662142D01*
X242895714Y-69709761D01*
X242990952Y-69757380D01*
X243229047Y-69757380D01*
X243324285Y-69709761D01*
X243371904Y-69662142D01*
X242467142Y-68757380D02*
X241848095Y-68757380D01*
X242181428Y-69138333D01*
X242038571Y-69138333D01*
X241943333Y-69185952D01*
X241895714Y-69233571D01*
X241848095Y-69328809D01*
X241848095Y-69566904D01*
X241895714Y-69662142D01*
X241943333Y-69709761D01*
X242038571Y-69757380D01*
X242324285Y-69757380D01*
X242419523Y-69709761D01*
X242467142Y-69662142D01*
X263224285Y-73857380D02*
X263224285Y-72857380D01*
X262652857Y-73857380D02*
X263081428Y-73285952D01*
X262652857Y-72857380D02*
X263224285Y-73428809D01*
X261748095Y-72857380D02*
X262224285Y-72857380D01*
X262271904Y-73333571D01*
X262224285Y-73285952D01*
X262129047Y-73238333D01*
X261890952Y-73238333D01*
X261795714Y-73285952D01*
X261748095Y-73333571D01*
X261700476Y-73428809D01*
X261700476Y-73666904D01*
X261748095Y-73762142D01*
X261795714Y-73809761D01*
X261890952Y-73857380D01*
X262129047Y-73857380D01*
X262224285Y-73809761D01*
X262271904Y-73762142D01*
X260843333Y-73190714D02*
X260843333Y-73857380D01*
X261081428Y-72809761D02*
X261319523Y-73524047D01*
X260700476Y-73524047D01*
X282324285Y-77857380D02*
X282324285Y-76857380D01*
X281752857Y-77857380D02*
X282181428Y-77285952D01*
X281752857Y-76857380D02*
X282324285Y-77428809D01*
X280848095Y-76857380D02*
X281324285Y-76857380D01*
X281371904Y-77333571D01*
X281324285Y-77285952D01*
X281229047Y-77238333D01*
X280990952Y-77238333D01*
X280895714Y-77285952D01*
X280848095Y-77333571D01*
X280800476Y-77428809D01*
X280800476Y-77666904D01*
X280848095Y-77762142D01*
X280895714Y-77809761D01*
X280990952Y-77857380D01*
X281229047Y-77857380D01*
X281324285Y-77809761D01*
X281371904Y-77762142D01*
X279895714Y-76857380D02*
X280371904Y-76857380D01*
X280419523Y-77333571D01*
X280371904Y-77285952D01*
X280276666Y-77238333D01*
X280038571Y-77238333D01*
X279943333Y-77285952D01*
X279895714Y-77333571D01*
X279848095Y-77428809D01*
X279848095Y-77666904D01*
X279895714Y-77762142D01*
X279943333Y-77809761D01*
X280038571Y-77857380D01*
X280276666Y-77857380D01*
X280371904Y-77809761D01*
X280419523Y-77762142D01*
X187324285Y-92857380D02*
X187324285Y-91857380D01*
X186752857Y-92857380D02*
X187181428Y-92285952D01*
X186752857Y-91857380D02*
X187324285Y-92428809D01*
X185895714Y-91857380D02*
X186086190Y-91857380D01*
X186181428Y-91905000D01*
X186229047Y-91952619D01*
X186324285Y-92095476D01*
X186371904Y-92285952D01*
X186371904Y-92666904D01*
X186324285Y-92762142D01*
X186276666Y-92809761D01*
X186181428Y-92857380D01*
X185990952Y-92857380D01*
X185895714Y-92809761D01*
X185848095Y-92762142D01*
X185800476Y-92666904D01*
X185800476Y-92428809D01*
X185848095Y-92333571D01*
X185895714Y-92285952D01*
X185990952Y-92238333D01*
X186181428Y-92238333D01*
X186276666Y-92285952D01*
X186324285Y-92333571D01*
X186371904Y-92428809D01*
X185181428Y-91857380D02*
X185086190Y-91857380D01*
X184990952Y-91905000D01*
X184943333Y-91952619D01*
X184895714Y-92047857D01*
X184848095Y-92238333D01*
X184848095Y-92476428D01*
X184895714Y-92666904D01*
X184943333Y-92762142D01*
X184990952Y-92809761D01*
X185086190Y-92857380D01*
X185181428Y-92857380D01*
X185276666Y-92809761D01*
X185324285Y-92762142D01*
X185371904Y-92666904D01*
X185419523Y-92476428D01*
X185419523Y-92238333D01*
X185371904Y-92047857D01*
X185324285Y-91952619D01*
X185276666Y-91905000D01*
X185181428Y-91857380D01*
X206324285Y-88857380D02*
X206324285Y-87857380D01*
X205752857Y-88857380D02*
X206181428Y-88285952D01*
X205752857Y-87857380D02*
X206324285Y-88428809D01*
X204895714Y-87857380D02*
X205086190Y-87857380D01*
X205181428Y-87905000D01*
X205229047Y-87952619D01*
X205324285Y-88095476D01*
X205371904Y-88285952D01*
X205371904Y-88666904D01*
X205324285Y-88762142D01*
X205276666Y-88809761D01*
X205181428Y-88857380D01*
X204990952Y-88857380D01*
X204895714Y-88809761D01*
X204848095Y-88762142D01*
X204800476Y-88666904D01*
X204800476Y-88428809D01*
X204848095Y-88333571D01*
X204895714Y-88285952D01*
X204990952Y-88238333D01*
X205181428Y-88238333D01*
X205276666Y-88285952D01*
X205324285Y-88333571D01*
X205371904Y-88428809D01*
X203848095Y-88857380D02*
X204419523Y-88857380D01*
X204133809Y-88857380D02*
X204133809Y-87857380D01*
X204229047Y-88000238D01*
X204324285Y-88095476D01*
X204419523Y-88143095D01*
X225224285Y-84757380D02*
X225224285Y-83757380D01*
X224652857Y-84757380D02*
X225081428Y-84185952D01*
X224652857Y-83757380D02*
X225224285Y-84328809D01*
X223795714Y-83757380D02*
X223986190Y-83757380D01*
X224081428Y-83805000D01*
X224129047Y-83852619D01*
X224224285Y-83995476D01*
X224271904Y-84185952D01*
X224271904Y-84566904D01*
X224224285Y-84662142D01*
X224176666Y-84709761D01*
X224081428Y-84757380D01*
X223890952Y-84757380D01*
X223795714Y-84709761D01*
X223748095Y-84662142D01*
X223700476Y-84566904D01*
X223700476Y-84328809D01*
X223748095Y-84233571D01*
X223795714Y-84185952D01*
X223890952Y-84138333D01*
X224081428Y-84138333D01*
X224176666Y-84185952D01*
X224224285Y-84233571D01*
X224271904Y-84328809D01*
X223319523Y-83852619D02*
X223271904Y-83805000D01*
X223176666Y-83757380D01*
X222938571Y-83757380D01*
X222843333Y-83805000D01*
X222795714Y-83852619D01*
X222748095Y-83947857D01*
X222748095Y-84043095D01*
X222795714Y-84185952D01*
X223367142Y-84757380D01*
X222748095Y-84757380D01*
X244224285Y-88857380D02*
X244224285Y-87857380D01*
X243652857Y-88857380D02*
X244081428Y-88285952D01*
X243652857Y-87857380D02*
X244224285Y-88428809D01*
X242795714Y-87857380D02*
X242986190Y-87857380D01*
X243081428Y-87905000D01*
X243129047Y-87952619D01*
X243224285Y-88095476D01*
X243271904Y-88285952D01*
X243271904Y-88666904D01*
X243224285Y-88762142D01*
X243176666Y-88809761D01*
X243081428Y-88857380D01*
X242890952Y-88857380D01*
X242795714Y-88809761D01*
X242748095Y-88762142D01*
X242700476Y-88666904D01*
X242700476Y-88428809D01*
X242748095Y-88333571D01*
X242795714Y-88285952D01*
X242890952Y-88238333D01*
X243081428Y-88238333D01*
X243176666Y-88285952D01*
X243224285Y-88333571D01*
X243271904Y-88428809D01*
X242367142Y-87857380D02*
X241748095Y-87857380D01*
X242081428Y-88238333D01*
X241938571Y-88238333D01*
X241843333Y-88285952D01*
X241795714Y-88333571D01*
X241748095Y-88428809D01*
X241748095Y-88666904D01*
X241795714Y-88762142D01*
X241843333Y-88809761D01*
X241938571Y-88857380D01*
X242224285Y-88857380D01*
X242319523Y-88809761D01*
X242367142Y-88762142D01*
X263224285Y-92857380D02*
X263224285Y-91857380D01*
X262652857Y-92857380D02*
X263081428Y-92285952D01*
X262652857Y-91857380D02*
X263224285Y-92428809D01*
X261795714Y-91857380D02*
X261986190Y-91857380D01*
X262081428Y-91905000D01*
X262129047Y-91952619D01*
X262224285Y-92095476D01*
X262271904Y-92285952D01*
X262271904Y-92666904D01*
X262224285Y-92762142D01*
X262176666Y-92809761D01*
X262081428Y-92857380D01*
X261890952Y-92857380D01*
X261795714Y-92809761D01*
X261748095Y-92762142D01*
X261700476Y-92666904D01*
X261700476Y-92428809D01*
X261748095Y-92333571D01*
X261795714Y-92285952D01*
X261890952Y-92238333D01*
X262081428Y-92238333D01*
X262176666Y-92285952D01*
X262224285Y-92333571D01*
X262271904Y-92428809D01*
X260843333Y-92190714D02*
X260843333Y-92857380D01*
X261081428Y-91809761D02*
X261319523Y-92524047D01*
X260700476Y-92524047D01*
X282324285Y-96857380D02*
X282324285Y-95857380D01*
X281752857Y-96857380D02*
X282181428Y-96285952D01*
X281752857Y-95857380D02*
X282324285Y-96428809D01*
X280895714Y-95857380D02*
X281086190Y-95857380D01*
X281181428Y-95905000D01*
X281229047Y-95952619D01*
X281324285Y-96095476D01*
X281371904Y-96285952D01*
X281371904Y-96666904D01*
X281324285Y-96762142D01*
X281276666Y-96809761D01*
X281181428Y-96857380D01*
X280990952Y-96857380D01*
X280895714Y-96809761D01*
X280848095Y-96762142D01*
X280800476Y-96666904D01*
X280800476Y-96428809D01*
X280848095Y-96333571D01*
X280895714Y-96285952D01*
X280990952Y-96238333D01*
X281181428Y-96238333D01*
X281276666Y-96285952D01*
X281324285Y-96333571D01*
X281371904Y-96428809D01*
X279895714Y-95857380D02*
X280371904Y-95857380D01*
X280419523Y-96333571D01*
X280371904Y-96285952D01*
X280276666Y-96238333D01*
X280038571Y-96238333D01*
X279943333Y-96285952D01*
X279895714Y-96333571D01*
X279848095Y-96428809D01*
X279848095Y-96666904D01*
X279895714Y-96762142D01*
X279943333Y-96809761D01*
X280038571Y-96857380D01*
X280276666Y-96857380D01*
X280371904Y-96809761D01*
X280419523Y-96762142D01*
X172324285Y-130857380D02*
X172324285Y-129857380D01*
X171752857Y-130857380D02*
X172181428Y-130285952D01*
X171752857Y-129857380D02*
X172324285Y-130428809D01*
X171419523Y-129857380D02*
X170752857Y-129857380D01*
X171181428Y-130857380D01*
X170181428Y-129857380D02*
X170086190Y-129857380D01*
X169990952Y-129905000D01*
X169943333Y-129952619D01*
X169895714Y-130047857D01*
X169848095Y-130238333D01*
X169848095Y-130476428D01*
X169895714Y-130666904D01*
X169943333Y-130762142D01*
X169990952Y-130809761D01*
X170086190Y-130857380D01*
X170181428Y-130857380D01*
X170276666Y-130809761D01*
X170324285Y-130762142D01*
X170371904Y-130666904D01*
X170419523Y-130476428D01*
X170419523Y-130238333D01*
X170371904Y-130047857D01*
X170324285Y-129952619D01*
X170276666Y-129905000D01*
X170181428Y-129857380D01*
X187224285Y-111857380D02*
X187224285Y-110857380D01*
X186652857Y-111857380D02*
X187081428Y-111285952D01*
X186652857Y-110857380D02*
X187224285Y-111428809D01*
X186319523Y-110857380D02*
X185652857Y-110857380D01*
X186081428Y-111857380D01*
X184748095Y-111857380D02*
X185319523Y-111857380D01*
X185033809Y-111857380D02*
X185033809Y-110857380D01*
X185129047Y-111000238D01*
X185224285Y-111095476D01*
X185319523Y-111143095D01*
X206324285Y-107757380D02*
X206324285Y-106757380D01*
X205752857Y-107757380D02*
X206181428Y-107185952D01*
X205752857Y-106757380D02*
X206324285Y-107328809D01*
X205419523Y-106757380D02*
X204752857Y-106757380D01*
X205181428Y-107757380D01*
X204419523Y-106852619D02*
X204371904Y-106805000D01*
X204276666Y-106757380D01*
X204038571Y-106757380D01*
X203943333Y-106805000D01*
X203895714Y-106852619D01*
X203848095Y-106947857D01*
X203848095Y-107043095D01*
X203895714Y-107185952D01*
X204467142Y-107757380D01*
X203848095Y-107757380D01*
M02*
