G04 #@! TF.GenerationSoftware,KiCad,Pcbnew,5.1.5*
G04 #@! TF.CreationDate,2020-04-01T19:37:54+02:00*
G04 #@! TF.ProjectId,pcb,7063622e-6b69-4636-9164-5f7063625858,rev?*
G04 #@! TF.SameCoordinates,Original*
G04 #@! TF.FileFunction,Legend,Top*
G04 #@! TF.FilePolarity,Positive*
%FSLAX46Y46*%
G04 Gerber Fmt 4.6, Leading zero omitted, Abs format (unit mm)*
G04 Created by KiCad (PCBNEW 5.1.5) date 2020-04-01 19:37:54*
%MOMM*%
%LPD*%
G04 APERTURE LIST*
%ADD10C,0.150000*%
%ADD11C,0.120000*%
G04 APERTURE END LIST*
D10*
X80150000Y-92150000D02*
X80150000Y-93150000D01*
X79150000Y-106150000D02*
X80150000Y-106150000D01*
X80150000Y-92150000D02*
X79150000Y-92150000D01*
X80150000Y-105150000D02*
X80150000Y-106150000D01*
X66150000Y-106150000D02*
X66150000Y-105150000D01*
X67150000Y-92150000D02*
X66150000Y-92150000D01*
X66150000Y-106150000D02*
X67150000Y-106150000D01*
X66150000Y-93150000D02*
X66150000Y-92150000D01*
X99250000Y-77150000D02*
X99250000Y-78150000D01*
X98250000Y-91150000D02*
X99250000Y-91150000D01*
X99250000Y-77150000D02*
X98250000Y-77150000D01*
X99250000Y-90150000D02*
X99250000Y-91150000D01*
X85250000Y-91150000D02*
X85250000Y-90150000D01*
X86250000Y-77150000D02*
X85250000Y-77150000D01*
X85250000Y-91150000D02*
X86250000Y-91150000D01*
X85250000Y-78150000D02*
X85250000Y-77150000D01*
D11*
X179380000Y-103330000D02*
X175540000Y-103330000D01*
X179380000Y-105170000D02*
X175540000Y-105170000D01*
X179380000Y-99580000D02*
X175540000Y-99580000D01*
X179380000Y-101420000D02*
X175540000Y-101420000D01*
X175620000Y-97920000D02*
X179460000Y-97920000D01*
X175620000Y-96080000D02*
X179460000Y-96080000D01*
X174540000Y-90080000D02*
X176190000Y-90080000D01*
X174540000Y-54400000D02*
X174540000Y-90080000D01*
X179840000Y-54400000D02*
X174540000Y-54400000D01*
X179840000Y-90080000D02*
X179840000Y-54400000D01*
X178190000Y-90080000D02*
X179840000Y-90080000D01*
X176190000Y-90080000D02*
G75*
G02X178190000Y-90080000I1000000J0D01*
G01*
X129132000Y-69960000D02*
X114910000Y-69960000D01*
D10*
X114400000Y-69960000D02*
X114910000Y-69960000D01*
X130910000Y-68690000D02*
X130910000Y-37476000D01*
X113130000Y-37476000D02*
X113130000Y-68690000D01*
X114400000Y-36206000D02*
X129640000Y-36206000D01*
X130910000Y-37476000D02*
G75*
G03X129640000Y-36206000I-1270000J0D01*
G01*
X122750000Y-55965000D02*
G75*
G03X122750000Y-55965000I-750000J0D01*
G01*
X114400000Y-36206000D02*
G75*
G03X113130000Y-37476000I0J-1270000D01*
G01*
X129640000Y-69960000D02*
G75*
G03X130910000Y-68690000I0J1270000D01*
G01*
X113130000Y-68690000D02*
G75*
G03X114400000Y-69960000I1270000J0D01*
G01*
X129132000Y-69960000D02*
X129640000Y-69960000D01*
X28250000Y-55150000D02*
X28250000Y-54150000D01*
X28250000Y-68150000D02*
X29250000Y-68150000D01*
X29250000Y-54150000D02*
X28250000Y-54150000D01*
X28250000Y-68150000D02*
X28250000Y-67150000D01*
X42250000Y-67150000D02*
X42250000Y-68150000D01*
X42250000Y-54150000D02*
X41250000Y-54150000D01*
X41250000Y-68150000D02*
X42250000Y-68150000D01*
X42250000Y-54150000D02*
X42250000Y-55150000D01*
X4150000Y-43150000D02*
X4150000Y-44150000D01*
X3150000Y-57150000D02*
X4150000Y-57150000D01*
X4150000Y-43150000D02*
X3150000Y-43150000D01*
X4150000Y-56150000D02*
X4150000Y-57150000D01*
X-9850000Y-57150000D02*
X-9850000Y-56150000D01*
X-8850000Y-43150000D02*
X-9850000Y-43150000D01*
X-9850000Y-57150000D02*
X-8850000Y-57150000D01*
X-9850000Y-44150000D02*
X-9850000Y-43150000D01*
X23150000Y-39150000D02*
X23150000Y-40150000D01*
X22150000Y-53150000D02*
X23150000Y-53150000D01*
X23150000Y-39150000D02*
X22150000Y-39150000D01*
X23150000Y-52150000D02*
X23150000Y-53150000D01*
X9150000Y-53150000D02*
X9150000Y-52150000D01*
X10150000Y-39150000D02*
X9150000Y-39150000D01*
X9150000Y-53150000D02*
X10150000Y-53150000D01*
X9150000Y-40150000D02*
X9150000Y-39150000D01*
X28250000Y-36150000D02*
X28250000Y-35150000D01*
X28250000Y-49150000D02*
X29250000Y-49150000D01*
X29250000Y-35150000D02*
X28250000Y-35150000D01*
X28250000Y-49150000D02*
X28250000Y-48150000D01*
X42250000Y-48150000D02*
X42250000Y-49150000D01*
X42250000Y-35150000D02*
X41250000Y-35150000D01*
X41250000Y-49150000D02*
X42250000Y-49150000D01*
X42250000Y-35150000D02*
X42250000Y-36150000D01*
X61250000Y-31150000D02*
X61250000Y-32150000D01*
X60250000Y-45150000D02*
X61250000Y-45150000D01*
X61250000Y-31150000D02*
X60250000Y-31150000D01*
X61250000Y-44150000D02*
X61250000Y-45150000D01*
X47250000Y-45150000D02*
X47250000Y-44150000D01*
X48250000Y-31150000D02*
X47250000Y-31150000D01*
X47250000Y-45150000D02*
X48250000Y-45150000D01*
X47250000Y-32150000D02*
X47250000Y-31150000D01*
X66160000Y-36090000D02*
X66160000Y-35090000D01*
X66160000Y-49090000D02*
X67160000Y-49090000D01*
X67160000Y-35090000D02*
X66160000Y-35090000D01*
X66160000Y-49090000D02*
X66160000Y-48090000D01*
X80160000Y-48090000D02*
X80160000Y-49090000D01*
X80160000Y-35090000D02*
X79160000Y-35090000D01*
X79160000Y-49090000D02*
X80160000Y-49090000D01*
X80160000Y-35090000D02*
X80160000Y-36090000D01*
X85250000Y-40150000D02*
X85250000Y-39150000D01*
X85250000Y-53150000D02*
X86250000Y-53150000D01*
X86250000Y-39150000D02*
X85250000Y-39150000D01*
X85250000Y-53150000D02*
X85250000Y-52150000D01*
X99250000Y-52150000D02*
X99250000Y-53150000D01*
X99250000Y-39150000D02*
X98250000Y-39150000D01*
X98250000Y-53150000D02*
X99250000Y-53150000D01*
X99250000Y-39150000D02*
X99250000Y-40150000D01*
X4150000Y-62150000D02*
X4150000Y-63150000D01*
X3150000Y-76150000D02*
X4150000Y-76150000D01*
X4150000Y-62150000D02*
X3150000Y-62150000D01*
X4150000Y-75150000D02*
X4150000Y-76150000D01*
X-9850000Y-76150000D02*
X-9850000Y-75150000D01*
X-8850000Y-62150000D02*
X-9850000Y-62150000D01*
X-9850000Y-76150000D02*
X-8850000Y-76150000D01*
X-9850000Y-63150000D02*
X-9850000Y-62150000D01*
X23150000Y-58150000D02*
X23150000Y-59150000D01*
X22150000Y-72150000D02*
X23150000Y-72150000D01*
X23150000Y-58150000D02*
X22150000Y-58150000D01*
X23150000Y-71150000D02*
X23150000Y-72150000D01*
X9150000Y-72150000D02*
X9150000Y-71150000D01*
X10150000Y-58150000D02*
X9150000Y-58150000D01*
X9150000Y-72150000D02*
X10150000Y-72150000D01*
X9150000Y-59150000D02*
X9150000Y-58150000D01*
X61250000Y-50150000D02*
X61250000Y-51150000D01*
X60250000Y-64150000D02*
X61250000Y-64150000D01*
X61250000Y-50150000D02*
X60250000Y-50150000D01*
X61250000Y-63150000D02*
X61250000Y-64150000D01*
X47250000Y-64150000D02*
X47250000Y-63150000D01*
X48250000Y-50150000D02*
X47250000Y-50150000D01*
X47250000Y-64150000D02*
X48250000Y-64150000D01*
X47250000Y-51150000D02*
X47250000Y-50150000D01*
X66250000Y-55150000D02*
X66250000Y-54150000D01*
X66250000Y-68150000D02*
X67250000Y-68150000D01*
X67250000Y-54150000D02*
X66250000Y-54150000D01*
X66250000Y-68150000D02*
X66250000Y-67150000D01*
X80250000Y-67150000D02*
X80250000Y-68150000D01*
X80250000Y-54150000D02*
X79250000Y-54150000D01*
X79250000Y-68150000D02*
X80250000Y-68150000D01*
X80250000Y-54150000D02*
X80250000Y-55150000D01*
X99250000Y-58150000D02*
X99250000Y-59150000D01*
X98250000Y-72150000D02*
X99250000Y-72150000D01*
X99250000Y-58150000D02*
X98250000Y-58150000D01*
X99250000Y-71150000D02*
X99250000Y-72150000D01*
X85250000Y-72150000D02*
X85250000Y-71150000D01*
X86250000Y-58150000D02*
X85250000Y-58150000D01*
X85250000Y-72150000D02*
X86250000Y-72150000D01*
X85250000Y-59150000D02*
X85250000Y-58150000D01*
X-9750000Y-82150000D02*
X-9750000Y-81150000D01*
X-9750000Y-95150000D02*
X-8750000Y-95150000D01*
X-8750000Y-81150000D02*
X-9750000Y-81150000D01*
X-9750000Y-95150000D02*
X-9750000Y-94150000D01*
X4250000Y-94150000D02*
X4250000Y-95150000D01*
X4250000Y-81150000D02*
X3250000Y-81150000D01*
X3250000Y-95150000D02*
X4250000Y-95150000D01*
X4250000Y-81150000D02*
X4250000Y-82150000D01*
X23250000Y-77150000D02*
X23250000Y-78150000D01*
X22250000Y-91150000D02*
X23250000Y-91150000D01*
X23250000Y-77150000D02*
X22250000Y-77150000D01*
X23250000Y-90150000D02*
X23250000Y-91150000D01*
X9250000Y-91150000D02*
X9250000Y-90150000D01*
X10250000Y-77150000D02*
X9250000Y-77150000D01*
X9250000Y-91150000D02*
X10250000Y-91150000D01*
X9250000Y-78150000D02*
X9250000Y-77150000D01*
X28250000Y-74150000D02*
X28250000Y-73150000D01*
X28250000Y-87150000D02*
X29250000Y-87150000D01*
X29250000Y-73150000D02*
X28250000Y-73150000D01*
X28250000Y-87150000D02*
X28250000Y-86150000D01*
X42250000Y-86150000D02*
X42250000Y-87150000D01*
X42250000Y-73150000D02*
X41250000Y-73150000D01*
X41250000Y-87150000D02*
X42250000Y-87150000D01*
X42250000Y-73150000D02*
X42250000Y-74150000D01*
X47150000Y-70150000D02*
X47150000Y-69150000D01*
X47150000Y-83150000D02*
X48150000Y-83150000D01*
X48150000Y-69150000D02*
X47150000Y-69150000D01*
X47150000Y-83150000D02*
X47150000Y-82150000D01*
X61150000Y-82150000D02*
X61150000Y-83150000D01*
X61150000Y-69150000D02*
X60150000Y-69150000D01*
X60150000Y-83150000D02*
X61150000Y-83150000D01*
X61150000Y-69150000D02*
X61150000Y-70150000D01*
X66250000Y-74150000D02*
X66250000Y-73150000D01*
X66250000Y-87150000D02*
X67250000Y-87150000D01*
X67250000Y-73150000D02*
X66250000Y-73150000D01*
X66250000Y-87150000D02*
X66250000Y-86150000D01*
X80250000Y-86150000D02*
X80250000Y-87150000D01*
X80250000Y-73150000D02*
X79250000Y-73150000D01*
X79250000Y-87150000D02*
X80250000Y-87150000D01*
X80250000Y-73150000D02*
X80250000Y-74150000D01*
X85150000Y-97150000D02*
X85150000Y-96150000D01*
X85150000Y-110150000D02*
X86150000Y-110150000D01*
X86150000Y-96150000D02*
X85150000Y-96150000D01*
X85150000Y-110150000D02*
X85150000Y-109150000D01*
X99150000Y-109150000D02*
X99150000Y-110150000D01*
X99150000Y-96150000D02*
X98150000Y-96150000D01*
X98150000Y-110150000D02*
X99150000Y-110150000D01*
X99150000Y-96150000D02*
X99150000Y-97150000D01*
X114250000Y-115150000D02*
X114250000Y-116150000D01*
X113250000Y-129150000D02*
X114250000Y-129150000D01*
X114250000Y-115150000D02*
X113250000Y-115150000D01*
X114250000Y-128150000D02*
X114250000Y-129150000D01*
X100250000Y-129150000D02*
X100250000Y-128150000D01*
X101250000Y-115150000D02*
X100250000Y-115150000D01*
X100250000Y-129150000D02*
X101250000Y-129150000D01*
X100250000Y-116150000D02*
X100250000Y-115150000D01*
X209940000Y-39010000D02*
X209940000Y-40010000D01*
X208940000Y-53010000D02*
X209940000Y-53010000D01*
X209940000Y-39010000D02*
X208940000Y-39010000D01*
X209940000Y-52010000D02*
X209940000Y-53010000D01*
X195940000Y-53010000D02*
X195940000Y-52010000D01*
X196940000Y-39010000D02*
X195940000Y-39010000D01*
X195940000Y-53010000D02*
X196940000Y-53010000D01*
X195940000Y-40010000D02*
X195940000Y-39010000D01*
X214750000Y-36150000D02*
X214750000Y-35150000D01*
X214750000Y-49150000D02*
X215750000Y-49150000D01*
X215750000Y-35150000D02*
X214750000Y-35150000D01*
X214750000Y-49150000D02*
X214750000Y-48150000D01*
X228750000Y-48150000D02*
X228750000Y-49150000D01*
X228750000Y-35150000D02*
X227750000Y-35150000D01*
X227750000Y-49150000D02*
X228750000Y-49150000D01*
X228750000Y-35150000D02*
X228750000Y-36150000D01*
X247850000Y-31150000D02*
X247850000Y-32150000D01*
X246850000Y-45150000D02*
X247850000Y-45150000D01*
X247850000Y-31150000D02*
X246850000Y-31150000D01*
X247850000Y-44150000D02*
X247850000Y-45150000D01*
X233850000Y-45150000D02*
X233850000Y-44150000D01*
X234850000Y-31150000D02*
X233850000Y-31150000D01*
X233850000Y-45150000D02*
X234850000Y-45150000D01*
X233850000Y-32150000D02*
X233850000Y-31150000D01*
X252750000Y-36050000D02*
X252750000Y-35050000D01*
X252750000Y-49050000D02*
X253750000Y-49050000D01*
X253750000Y-35050000D02*
X252750000Y-35050000D01*
X252750000Y-49050000D02*
X252750000Y-48050000D01*
X266750000Y-48050000D02*
X266750000Y-49050000D01*
X266750000Y-35050000D02*
X265750000Y-35050000D01*
X265750000Y-49050000D02*
X266750000Y-49050000D01*
X266750000Y-35050000D02*
X266750000Y-36050000D01*
X285740000Y-39110000D02*
X285740000Y-40110000D01*
X284740000Y-53110000D02*
X285740000Y-53110000D01*
X285740000Y-39110000D02*
X284740000Y-39110000D01*
X285740000Y-52110000D02*
X285740000Y-53110000D01*
X271740000Y-53110000D02*
X271740000Y-52110000D01*
X272740000Y-39110000D02*
X271740000Y-39110000D01*
X271740000Y-53110000D02*
X272740000Y-53110000D01*
X271740000Y-40110000D02*
X271740000Y-39110000D01*
X290750000Y-44150000D02*
X290750000Y-43150000D01*
X290750000Y-57150000D02*
X291750000Y-57150000D01*
X291750000Y-43150000D02*
X290750000Y-43150000D01*
X290750000Y-57150000D02*
X290750000Y-56150000D01*
X304750000Y-56150000D02*
X304750000Y-57150000D01*
X304750000Y-43150000D02*
X303750000Y-43150000D01*
X303750000Y-57150000D02*
X304750000Y-57150000D01*
X304750000Y-43150000D02*
X304750000Y-44150000D01*
X209850000Y-58150000D02*
X209850000Y-59150000D01*
X208850000Y-72150000D02*
X209850000Y-72150000D01*
X209850000Y-58150000D02*
X208850000Y-58150000D01*
X209850000Y-71150000D02*
X209850000Y-72150000D01*
X195850000Y-72150000D02*
X195850000Y-71150000D01*
X196850000Y-58150000D02*
X195850000Y-58150000D01*
X195850000Y-72150000D02*
X196850000Y-72150000D01*
X195850000Y-59150000D02*
X195850000Y-58150000D01*
X214750000Y-55150000D02*
X214750000Y-54150000D01*
X214750000Y-68150000D02*
X215750000Y-68150000D01*
X215750000Y-54150000D02*
X214750000Y-54150000D01*
X214750000Y-68150000D02*
X214750000Y-67150000D01*
X228750000Y-67150000D02*
X228750000Y-68150000D01*
X228750000Y-54150000D02*
X227750000Y-54150000D01*
X227750000Y-68150000D02*
X228750000Y-68150000D01*
X228750000Y-54150000D02*
X228750000Y-55150000D01*
X247750000Y-50250000D02*
X247750000Y-51250000D01*
X246750000Y-64250000D02*
X247750000Y-64250000D01*
X247750000Y-50250000D02*
X246750000Y-50250000D01*
X247750000Y-63250000D02*
X247750000Y-64250000D01*
X233750000Y-64250000D02*
X233750000Y-63250000D01*
X234750000Y-50250000D02*
X233750000Y-50250000D01*
X233750000Y-64250000D02*
X234750000Y-64250000D01*
X233750000Y-51250000D02*
X233750000Y-50250000D01*
X252850000Y-55050000D02*
X252850000Y-54050000D01*
X252850000Y-68050000D02*
X253850000Y-68050000D01*
X253850000Y-54050000D02*
X252850000Y-54050000D01*
X252850000Y-68050000D02*
X252850000Y-67050000D01*
X266850000Y-67050000D02*
X266850000Y-68050000D01*
X266850000Y-54050000D02*
X265850000Y-54050000D01*
X265850000Y-68050000D02*
X266850000Y-68050000D01*
X266850000Y-54050000D02*
X266850000Y-55050000D01*
X285750000Y-58150000D02*
X285750000Y-59150000D01*
X284750000Y-72150000D02*
X285750000Y-72150000D01*
X285750000Y-58150000D02*
X284750000Y-58150000D01*
X285750000Y-71150000D02*
X285750000Y-72150000D01*
X271750000Y-72150000D02*
X271750000Y-71150000D01*
X272750000Y-58150000D02*
X271750000Y-58150000D01*
X271750000Y-72150000D02*
X272750000Y-72150000D01*
X271750000Y-59150000D02*
X271750000Y-58150000D01*
X290850000Y-63150000D02*
X290850000Y-62150000D01*
X290850000Y-76150000D02*
X291850000Y-76150000D01*
X291850000Y-62150000D02*
X290850000Y-62150000D01*
X290850000Y-76150000D02*
X290850000Y-75150000D01*
X304850000Y-75150000D02*
X304850000Y-76150000D01*
X304850000Y-62150000D02*
X303850000Y-62150000D01*
X303850000Y-76150000D02*
X304850000Y-76150000D01*
X304850000Y-62150000D02*
X304850000Y-63150000D01*
X209850000Y-77150000D02*
X209850000Y-78150000D01*
X208850000Y-91150000D02*
X209850000Y-91150000D01*
X209850000Y-77150000D02*
X208850000Y-77150000D01*
X209850000Y-90150000D02*
X209850000Y-91150000D01*
X195850000Y-91150000D02*
X195850000Y-90150000D01*
X196850000Y-77150000D02*
X195850000Y-77150000D01*
X195850000Y-91150000D02*
X196850000Y-91150000D01*
X195850000Y-78150000D02*
X195850000Y-77150000D01*
X214850000Y-74150000D02*
X214850000Y-73150000D01*
X214850000Y-87150000D02*
X215850000Y-87150000D01*
X215850000Y-73150000D02*
X214850000Y-73150000D01*
X214850000Y-87150000D02*
X214850000Y-86150000D01*
X228850000Y-86150000D02*
X228850000Y-87150000D01*
X228850000Y-73150000D02*
X227850000Y-73150000D01*
X227850000Y-87150000D02*
X228850000Y-87150000D01*
X228850000Y-73150000D02*
X228850000Y-74150000D01*
X247750000Y-69050000D02*
X247750000Y-70050000D01*
X246750000Y-83050000D02*
X247750000Y-83050000D01*
X247750000Y-69050000D02*
X246750000Y-69050000D01*
X247750000Y-82050000D02*
X247750000Y-83050000D01*
X233750000Y-83050000D02*
X233750000Y-82050000D01*
X234750000Y-69050000D02*
X233750000Y-69050000D01*
X233750000Y-83050000D02*
X234750000Y-83050000D01*
X233750000Y-70050000D02*
X233750000Y-69050000D01*
X252750000Y-74150000D02*
X252750000Y-73150000D01*
X252750000Y-87150000D02*
X253750000Y-87150000D01*
X253750000Y-73150000D02*
X252750000Y-73150000D01*
X252750000Y-87150000D02*
X252750000Y-86150000D01*
X266750000Y-86150000D02*
X266750000Y-87150000D01*
X266750000Y-73150000D02*
X265750000Y-73150000D01*
X265750000Y-87150000D02*
X266750000Y-87150000D01*
X266750000Y-73150000D02*
X266750000Y-74150000D01*
X285750000Y-77150000D02*
X285750000Y-78150000D01*
X284750000Y-91150000D02*
X285750000Y-91150000D01*
X285750000Y-77150000D02*
X284750000Y-77150000D01*
X285750000Y-90150000D02*
X285750000Y-91150000D01*
X271750000Y-91150000D02*
X271750000Y-90150000D01*
X272750000Y-77150000D02*
X271750000Y-77150000D01*
X271750000Y-91150000D02*
X272750000Y-91150000D01*
X271750000Y-78150000D02*
X271750000Y-77150000D01*
X290850000Y-82150000D02*
X290850000Y-81150000D01*
X290850000Y-95150000D02*
X291850000Y-95150000D01*
X291850000Y-81150000D02*
X290850000Y-81150000D01*
X290850000Y-95150000D02*
X290850000Y-94150000D01*
X304850000Y-94150000D02*
X304850000Y-95150000D01*
X304850000Y-81150000D02*
X303850000Y-81150000D01*
X303850000Y-95150000D02*
X304850000Y-95150000D01*
X304850000Y-81150000D02*
X304850000Y-82150000D01*
X180850000Y-116150000D02*
X180850000Y-115150000D01*
X180850000Y-129150000D02*
X181850000Y-129150000D01*
X181850000Y-115150000D02*
X180850000Y-115150000D01*
X180850000Y-129150000D02*
X180850000Y-128150000D01*
X194850000Y-128150000D02*
X194850000Y-129150000D01*
X194850000Y-115150000D02*
X193850000Y-115150000D01*
X193850000Y-129150000D02*
X194850000Y-129150000D01*
X194850000Y-115150000D02*
X194850000Y-116150000D01*
X209750000Y-96150000D02*
X209750000Y-97150000D01*
X208750000Y-110150000D02*
X209750000Y-110150000D01*
X209750000Y-96150000D02*
X208750000Y-96150000D01*
X209750000Y-109150000D02*
X209750000Y-110150000D01*
X195750000Y-110150000D02*
X195750000Y-109150000D01*
X196750000Y-96150000D02*
X195750000Y-96150000D01*
X195750000Y-110150000D02*
X196750000Y-110150000D01*
X195750000Y-97150000D02*
X195750000Y-96150000D01*
X214850000Y-93050000D02*
X214850000Y-92050000D01*
X214850000Y-106050000D02*
X215850000Y-106050000D01*
X215850000Y-92050000D02*
X214850000Y-92050000D01*
X214850000Y-106050000D02*
X214850000Y-105050000D01*
X228850000Y-105050000D02*
X228850000Y-106050000D01*
X228850000Y-92050000D02*
X227850000Y-92050000D01*
X227850000Y-106050000D02*
X228850000Y-106050000D01*
X228850000Y-92050000D02*
X228850000Y-93050000D01*
X71935714Y-91347380D02*
X71935714Y-90347380D01*
X72507142Y-91347380D02*
X72078571Y-90775952D01*
X72507142Y-90347380D02*
X71935714Y-90918809D01*
X72840476Y-90347380D02*
X73459523Y-90347380D01*
X73126190Y-90728333D01*
X73269047Y-90728333D01*
X73364285Y-90775952D01*
X73411904Y-90823571D01*
X73459523Y-90918809D01*
X73459523Y-91156904D01*
X73411904Y-91252142D01*
X73364285Y-91299761D01*
X73269047Y-91347380D01*
X72983333Y-91347380D01*
X72888095Y-91299761D01*
X72840476Y-91252142D01*
X73792857Y-90347380D02*
X74411904Y-90347380D01*
X74078571Y-90728333D01*
X74221428Y-90728333D01*
X74316666Y-90775952D01*
X74364285Y-90823571D01*
X74411904Y-90918809D01*
X74411904Y-91156904D01*
X74364285Y-91252142D01*
X74316666Y-91299761D01*
X74221428Y-91347380D01*
X73935714Y-91347380D01*
X73840476Y-91299761D01*
X73792857Y-91252142D01*
X91035714Y-76347380D02*
X91035714Y-75347380D01*
X91607142Y-76347380D02*
X91178571Y-75775952D01*
X91607142Y-75347380D02*
X91035714Y-75918809D01*
X91988095Y-75442619D02*
X92035714Y-75395000D01*
X92130952Y-75347380D01*
X92369047Y-75347380D01*
X92464285Y-75395000D01*
X92511904Y-75442619D01*
X92559523Y-75537857D01*
X92559523Y-75633095D01*
X92511904Y-75775952D01*
X91940476Y-76347380D01*
X92559523Y-76347380D01*
X93464285Y-75347380D02*
X92988095Y-75347380D01*
X92940476Y-75823571D01*
X92988095Y-75775952D01*
X93083333Y-75728333D01*
X93321428Y-75728333D01*
X93416666Y-75775952D01*
X93464285Y-75823571D01*
X93511904Y-75918809D01*
X93511904Y-76156904D01*
X93464285Y-76252142D01*
X93416666Y-76299761D01*
X93321428Y-76347380D01*
X93083333Y-76347380D01*
X92988095Y-76299761D01*
X92940476Y-76252142D01*
X177293333Y-106622380D02*
X176960000Y-106146190D01*
X176721904Y-106622380D02*
X176721904Y-105622380D01*
X177102857Y-105622380D01*
X177198095Y-105670000D01*
X177245714Y-105717619D01*
X177293333Y-105812857D01*
X177293333Y-105955714D01*
X177245714Y-106050952D01*
X177198095Y-106098571D01*
X177102857Y-106146190D01*
X176721904Y-106146190D01*
X178245714Y-106622380D02*
X177674285Y-106622380D01*
X177960000Y-106622380D02*
X177960000Y-105622380D01*
X177864761Y-105765238D01*
X177769523Y-105860476D01*
X177674285Y-105908095D01*
X177293333Y-102872380D02*
X176960000Y-102396190D01*
X176721904Y-102872380D02*
X176721904Y-101872380D01*
X177102857Y-101872380D01*
X177198095Y-101920000D01*
X177245714Y-101967619D01*
X177293333Y-102062857D01*
X177293333Y-102205714D01*
X177245714Y-102300952D01*
X177198095Y-102348571D01*
X177102857Y-102396190D01*
X176721904Y-102396190D01*
X177674285Y-101967619D02*
X177721904Y-101920000D01*
X177817142Y-101872380D01*
X178055238Y-101872380D01*
X178150476Y-101920000D01*
X178198095Y-101967619D01*
X178245714Y-102062857D01*
X178245714Y-102158095D01*
X178198095Y-102300952D01*
X177626666Y-102872380D01*
X178245714Y-102872380D01*
X177333333Y-99202380D02*
X177000000Y-98726190D01*
X176761904Y-99202380D02*
X176761904Y-98202380D01*
X177142857Y-98202380D01*
X177238095Y-98250000D01*
X177285714Y-98297619D01*
X177333333Y-98392857D01*
X177333333Y-98535714D01*
X177285714Y-98630952D01*
X177238095Y-98678571D01*
X177142857Y-98726190D01*
X176761904Y-98726190D01*
X177666666Y-98202380D02*
X178285714Y-98202380D01*
X177952380Y-98583333D01*
X178095238Y-98583333D01*
X178190476Y-98630952D01*
X178238095Y-98678571D01*
X178285714Y-98773809D01*
X178285714Y-99011904D01*
X178238095Y-99107142D01*
X178190476Y-99154761D01*
X178095238Y-99202380D01*
X177809523Y-99202380D01*
X177714285Y-99154761D01*
X177666666Y-99107142D01*
X174499523Y-90532380D02*
X174499523Y-91341904D01*
X174547142Y-91437142D01*
X174594761Y-91484761D01*
X174690000Y-91532380D01*
X174880476Y-91532380D01*
X174975714Y-91484761D01*
X175023333Y-91437142D01*
X175070952Y-91341904D01*
X175070952Y-90532380D01*
X176118571Y-91532380D02*
X175785238Y-91056190D01*
X175547142Y-91532380D02*
X175547142Y-90532380D01*
X175928095Y-90532380D01*
X176023333Y-90580000D01*
X176070952Y-90627619D01*
X176118571Y-90722857D01*
X176118571Y-90865714D01*
X176070952Y-90960952D01*
X176023333Y-91008571D01*
X175928095Y-91056190D01*
X175547142Y-91056190D01*
X176547142Y-91532380D02*
X176547142Y-90865714D01*
X176547142Y-90532380D02*
X176499523Y-90580000D01*
X176547142Y-90627619D01*
X176594761Y-90580000D01*
X176547142Y-90532380D01*
X176547142Y-90627619D01*
X177451904Y-90865714D02*
X177451904Y-91675238D01*
X177404285Y-91770476D01*
X177356666Y-91818095D01*
X177261428Y-91865714D01*
X177118571Y-91865714D01*
X177023333Y-91818095D01*
X177451904Y-91484761D02*
X177356666Y-91532380D01*
X177166190Y-91532380D01*
X177070952Y-91484761D01*
X177023333Y-91437142D01*
X176975714Y-91341904D01*
X176975714Y-91056190D01*
X177023333Y-90960952D01*
X177070952Y-90913333D01*
X177166190Y-90865714D01*
X177356666Y-90865714D01*
X177451904Y-90913333D01*
X177928095Y-91532380D02*
X177928095Y-90532380D01*
X178356666Y-91532380D02*
X178356666Y-91008571D01*
X178309047Y-90913333D01*
X178213809Y-90865714D01*
X178070952Y-90865714D01*
X177975714Y-90913333D01*
X177928095Y-90960952D01*
X178690000Y-90865714D02*
X179070952Y-90865714D01*
X178832857Y-90532380D02*
X178832857Y-91389523D01*
X178880476Y-91484761D01*
X178975714Y-91532380D01*
X179070952Y-91532380D01*
X179928095Y-91532380D02*
X179356666Y-91532380D01*
X179642380Y-91532380D02*
X179642380Y-90532380D01*
X179547142Y-90675238D01*
X179451904Y-90770476D01*
X179356666Y-90818095D01*
X119843333Y-58842380D02*
X119843333Y-59651904D01*
X119890952Y-59747142D01*
X119938571Y-59794761D01*
X120033809Y-59842380D01*
X120224285Y-59842380D01*
X120319523Y-59794761D01*
X120367142Y-59747142D01*
X120414761Y-59651904D01*
X120414761Y-58842380D01*
X121367142Y-59842380D02*
X120890952Y-59842380D01*
X120890952Y-58842380D01*
X122081428Y-59794761D02*
X121986190Y-59842380D01*
X121795714Y-59842380D01*
X121700476Y-59794761D01*
X121652857Y-59699523D01*
X121652857Y-59318571D01*
X121700476Y-59223333D01*
X121795714Y-59175714D01*
X121986190Y-59175714D01*
X122081428Y-59223333D01*
X122129047Y-59318571D01*
X122129047Y-59413809D01*
X121652857Y-59509047D01*
X122414761Y-59175714D02*
X122795714Y-59175714D01*
X122557619Y-59842380D02*
X122557619Y-58985238D01*
X122605238Y-58890000D01*
X122700476Y-58842380D01*
X122795714Y-58842380D01*
X122986190Y-59175714D02*
X123367142Y-59175714D01*
X123129047Y-58842380D02*
X123129047Y-59699523D01*
X123176666Y-59794761D01*
X123271904Y-59842380D01*
X123367142Y-59842380D01*
X124224285Y-59842380D02*
X123652857Y-59842380D01*
X123938571Y-59842380D02*
X123938571Y-58842380D01*
X123843333Y-58985238D01*
X123748095Y-59080476D01*
X123652857Y-59128095D01*
X118711904Y-39972380D02*
X118711904Y-39448571D01*
X118664285Y-39353333D01*
X118569047Y-39305714D01*
X118378571Y-39305714D01*
X118283333Y-39353333D01*
X118711904Y-39924761D02*
X118616666Y-39972380D01*
X118378571Y-39972380D01*
X118283333Y-39924761D01*
X118235714Y-39829523D01*
X118235714Y-39734285D01*
X118283333Y-39639047D01*
X118378571Y-39591428D01*
X118616666Y-39591428D01*
X118711904Y-39543809D01*
X119092857Y-39305714D02*
X119283333Y-39972380D01*
X119473809Y-39496190D01*
X119664285Y-39972380D01*
X119854761Y-39305714D01*
X120664285Y-39972380D02*
X120664285Y-39448571D01*
X120616666Y-39353333D01*
X120521428Y-39305714D01*
X120330952Y-39305714D01*
X120235714Y-39353333D01*
X120664285Y-39924761D02*
X120569047Y-39972380D01*
X120330952Y-39972380D01*
X120235714Y-39924761D01*
X120188095Y-39829523D01*
X120188095Y-39734285D01*
X120235714Y-39639047D01*
X120330952Y-39591428D01*
X120569047Y-39591428D01*
X120664285Y-39543809D01*
X121045238Y-39305714D02*
X121283333Y-39972380D01*
X121521428Y-39305714D02*
X121283333Y-39972380D01*
X121188095Y-40210476D01*
X121140476Y-40258095D01*
X121045238Y-40305714D01*
X122521428Y-39305714D02*
X122902380Y-39305714D01*
X122664285Y-39972380D02*
X122664285Y-39115238D01*
X122711904Y-39020000D01*
X122807142Y-38972380D01*
X122902380Y-38972380D01*
X123235714Y-39972380D02*
X123235714Y-39305714D01*
X123235714Y-39496190D02*
X123283333Y-39400952D01*
X123330952Y-39353333D01*
X123426190Y-39305714D01*
X123521428Y-39305714D01*
X123997619Y-39972380D02*
X123902380Y-39924761D01*
X123854761Y-39877142D01*
X123807142Y-39781904D01*
X123807142Y-39496190D01*
X123854761Y-39400952D01*
X123902380Y-39353333D01*
X123997619Y-39305714D01*
X124140476Y-39305714D01*
X124235714Y-39353333D01*
X124283333Y-39400952D01*
X124330952Y-39496190D01*
X124330952Y-39781904D01*
X124283333Y-39877142D01*
X124235714Y-39924761D01*
X124140476Y-39972380D01*
X123997619Y-39972380D01*
X124759523Y-39972380D02*
X124759523Y-39305714D01*
X124759523Y-39400952D02*
X124807142Y-39353333D01*
X124902380Y-39305714D01*
X125045238Y-39305714D01*
X125140476Y-39353333D01*
X125188095Y-39448571D01*
X125188095Y-39972380D01*
X125188095Y-39448571D02*
X125235714Y-39353333D01*
X125330952Y-39305714D01*
X125473809Y-39305714D01*
X125569047Y-39353333D01*
X125616666Y-39448571D01*
X125616666Y-39972380D01*
X34035714Y-53347380D02*
X34035714Y-52347380D01*
X34607142Y-53347380D02*
X34178571Y-52775952D01*
X34607142Y-52347380D02*
X34035714Y-52918809D01*
X35559523Y-53347380D02*
X34988095Y-53347380D01*
X35273809Y-53347380D02*
X35273809Y-52347380D01*
X35178571Y-52490238D01*
X35083333Y-52585476D01*
X34988095Y-52633095D01*
X35940476Y-52442619D02*
X35988095Y-52395000D01*
X36083333Y-52347380D01*
X36321428Y-52347380D01*
X36416666Y-52395000D01*
X36464285Y-52442619D01*
X36511904Y-52537857D01*
X36511904Y-52633095D01*
X36464285Y-52775952D01*
X35892857Y-53347380D01*
X36511904Y-53347380D01*
X-4064285Y-42347380D02*
X-4064285Y-41347380D01*
X-3492857Y-42347380D02*
X-3921428Y-41775952D01*
X-3492857Y-41347380D02*
X-4064285Y-41918809D01*
X-2873809Y-41347380D02*
X-2778571Y-41347380D01*
X-2683333Y-41395000D01*
X-2635714Y-41442619D01*
X-2588095Y-41537857D01*
X-2540476Y-41728333D01*
X-2540476Y-41966428D01*
X-2588095Y-42156904D01*
X-2635714Y-42252142D01*
X-2683333Y-42299761D01*
X-2778571Y-42347380D01*
X-2873809Y-42347380D01*
X-2969047Y-42299761D01*
X-3016666Y-42252142D01*
X-3064285Y-42156904D01*
X-3111904Y-41966428D01*
X-3111904Y-41728333D01*
X-3064285Y-41537857D01*
X-3016666Y-41442619D01*
X-2969047Y-41395000D01*
X-2873809Y-41347380D01*
X-1921428Y-41347380D02*
X-1826190Y-41347380D01*
X-1730952Y-41395000D01*
X-1683333Y-41442619D01*
X-1635714Y-41537857D01*
X-1588095Y-41728333D01*
X-1588095Y-41966428D01*
X-1635714Y-42156904D01*
X-1683333Y-42252142D01*
X-1730952Y-42299761D01*
X-1826190Y-42347380D01*
X-1921428Y-42347380D01*
X-2016666Y-42299761D01*
X-2064285Y-42252142D01*
X-2111904Y-42156904D01*
X-2159523Y-41966428D01*
X-2159523Y-41728333D01*
X-2111904Y-41537857D01*
X-2064285Y-41442619D01*
X-2016666Y-41395000D01*
X-1921428Y-41347380D01*
X14935714Y-38347380D02*
X14935714Y-37347380D01*
X15507142Y-38347380D02*
X15078571Y-37775952D01*
X15507142Y-37347380D02*
X14935714Y-37918809D01*
X16126190Y-37347380D02*
X16221428Y-37347380D01*
X16316666Y-37395000D01*
X16364285Y-37442619D01*
X16411904Y-37537857D01*
X16459523Y-37728333D01*
X16459523Y-37966428D01*
X16411904Y-38156904D01*
X16364285Y-38252142D01*
X16316666Y-38299761D01*
X16221428Y-38347380D01*
X16126190Y-38347380D01*
X16030952Y-38299761D01*
X15983333Y-38252142D01*
X15935714Y-38156904D01*
X15888095Y-37966428D01*
X15888095Y-37728333D01*
X15935714Y-37537857D01*
X15983333Y-37442619D01*
X16030952Y-37395000D01*
X16126190Y-37347380D01*
X17411904Y-38347380D02*
X16840476Y-38347380D01*
X17126190Y-38347380D02*
X17126190Y-37347380D01*
X17030952Y-37490238D01*
X16935714Y-37585476D01*
X16840476Y-37633095D01*
X34035714Y-34347380D02*
X34035714Y-33347380D01*
X34607142Y-34347380D02*
X34178571Y-33775952D01*
X34607142Y-33347380D02*
X34035714Y-33918809D01*
X35226190Y-33347380D02*
X35321428Y-33347380D01*
X35416666Y-33395000D01*
X35464285Y-33442619D01*
X35511904Y-33537857D01*
X35559523Y-33728333D01*
X35559523Y-33966428D01*
X35511904Y-34156904D01*
X35464285Y-34252142D01*
X35416666Y-34299761D01*
X35321428Y-34347380D01*
X35226190Y-34347380D01*
X35130952Y-34299761D01*
X35083333Y-34252142D01*
X35035714Y-34156904D01*
X34988095Y-33966428D01*
X34988095Y-33728333D01*
X35035714Y-33537857D01*
X35083333Y-33442619D01*
X35130952Y-33395000D01*
X35226190Y-33347380D01*
X35940476Y-33442619D02*
X35988095Y-33395000D01*
X36083333Y-33347380D01*
X36321428Y-33347380D01*
X36416666Y-33395000D01*
X36464285Y-33442619D01*
X36511904Y-33537857D01*
X36511904Y-33633095D01*
X36464285Y-33775952D01*
X35892857Y-34347380D01*
X36511904Y-34347380D01*
X53035714Y-30347380D02*
X53035714Y-29347380D01*
X53607142Y-30347380D02*
X53178571Y-29775952D01*
X53607142Y-29347380D02*
X53035714Y-29918809D01*
X54226190Y-29347380D02*
X54321428Y-29347380D01*
X54416666Y-29395000D01*
X54464285Y-29442619D01*
X54511904Y-29537857D01*
X54559523Y-29728333D01*
X54559523Y-29966428D01*
X54511904Y-30156904D01*
X54464285Y-30252142D01*
X54416666Y-30299761D01*
X54321428Y-30347380D01*
X54226190Y-30347380D01*
X54130952Y-30299761D01*
X54083333Y-30252142D01*
X54035714Y-30156904D01*
X53988095Y-29966428D01*
X53988095Y-29728333D01*
X54035714Y-29537857D01*
X54083333Y-29442619D01*
X54130952Y-29395000D01*
X54226190Y-29347380D01*
X54892857Y-29347380D02*
X55511904Y-29347380D01*
X55178571Y-29728333D01*
X55321428Y-29728333D01*
X55416666Y-29775952D01*
X55464285Y-29823571D01*
X55511904Y-29918809D01*
X55511904Y-30156904D01*
X55464285Y-30252142D01*
X55416666Y-30299761D01*
X55321428Y-30347380D01*
X55035714Y-30347380D01*
X54940476Y-30299761D01*
X54892857Y-30252142D01*
X71945714Y-34287380D02*
X71945714Y-33287380D01*
X72517142Y-34287380D02*
X72088571Y-33715952D01*
X72517142Y-33287380D02*
X71945714Y-33858809D01*
X73136190Y-33287380D02*
X73231428Y-33287380D01*
X73326666Y-33335000D01*
X73374285Y-33382619D01*
X73421904Y-33477857D01*
X73469523Y-33668333D01*
X73469523Y-33906428D01*
X73421904Y-34096904D01*
X73374285Y-34192142D01*
X73326666Y-34239761D01*
X73231428Y-34287380D01*
X73136190Y-34287380D01*
X73040952Y-34239761D01*
X72993333Y-34192142D01*
X72945714Y-34096904D01*
X72898095Y-33906428D01*
X72898095Y-33668333D01*
X72945714Y-33477857D01*
X72993333Y-33382619D01*
X73040952Y-33335000D01*
X73136190Y-33287380D01*
X74326666Y-33620714D02*
X74326666Y-34287380D01*
X74088571Y-33239761D02*
X73850476Y-33954047D01*
X74469523Y-33954047D01*
X91035714Y-38347380D02*
X91035714Y-37347380D01*
X91607142Y-38347380D02*
X91178571Y-37775952D01*
X91607142Y-37347380D02*
X91035714Y-37918809D01*
X92226190Y-37347380D02*
X92321428Y-37347380D01*
X92416666Y-37395000D01*
X92464285Y-37442619D01*
X92511904Y-37537857D01*
X92559523Y-37728333D01*
X92559523Y-37966428D01*
X92511904Y-38156904D01*
X92464285Y-38252142D01*
X92416666Y-38299761D01*
X92321428Y-38347380D01*
X92226190Y-38347380D01*
X92130952Y-38299761D01*
X92083333Y-38252142D01*
X92035714Y-38156904D01*
X91988095Y-37966428D01*
X91988095Y-37728333D01*
X92035714Y-37537857D01*
X92083333Y-37442619D01*
X92130952Y-37395000D01*
X92226190Y-37347380D01*
X93464285Y-37347380D02*
X92988095Y-37347380D01*
X92940476Y-37823571D01*
X92988095Y-37775952D01*
X93083333Y-37728333D01*
X93321428Y-37728333D01*
X93416666Y-37775952D01*
X93464285Y-37823571D01*
X93511904Y-37918809D01*
X93511904Y-38156904D01*
X93464285Y-38252142D01*
X93416666Y-38299761D01*
X93321428Y-38347380D01*
X93083333Y-38347380D01*
X92988095Y-38299761D01*
X92940476Y-38252142D01*
X-4064285Y-61347380D02*
X-4064285Y-60347380D01*
X-3492857Y-61347380D02*
X-3921428Y-60775952D01*
X-3492857Y-60347380D02*
X-4064285Y-60918809D01*
X-2540476Y-61347380D02*
X-3111904Y-61347380D01*
X-2826190Y-61347380D02*
X-2826190Y-60347380D01*
X-2921428Y-60490238D01*
X-3016666Y-60585476D01*
X-3111904Y-60633095D01*
X-1921428Y-60347380D02*
X-1826190Y-60347380D01*
X-1730952Y-60395000D01*
X-1683333Y-60442619D01*
X-1635714Y-60537857D01*
X-1588095Y-60728333D01*
X-1588095Y-60966428D01*
X-1635714Y-61156904D01*
X-1683333Y-61252142D01*
X-1730952Y-61299761D01*
X-1826190Y-61347380D01*
X-1921428Y-61347380D01*
X-2016666Y-61299761D01*
X-2064285Y-61252142D01*
X-2111904Y-61156904D01*
X-2159523Y-60966428D01*
X-2159523Y-60728333D01*
X-2111904Y-60537857D01*
X-2064285Y-60442619D01*
X-2016666Y-60395000D01*
X-1921428Y-60347380D01*
X14935714Y-57347380D02*
X14935714Y-56347380D01*
X15507142Y-57347380D02*
X15078571Y-56775952D01*
X15507142Y-56347380D02*
X14935714Y-56918809D01*
X16459523Y-57347380D02*
X15888095Y-57347380D01*
X16173809Y-57347380D02*
X16173809Y-56347380D01*
X16078571Y-56490238D01*
X15983333Y-56585476D01*
X15888095Y-56633095D01*
X17411904Y-57347380D02*
X16840476Y-57347380D01*
X17126190Y-57347380D02*
X17126190Y-56347380D01*
X17030952Y-56490238D01*
X16935714Y-56585476D01*
X16840476Y-56633095D01*
X53035714Y-49347380D02*
X53035714Y-48347380D01*
X53607142Y-49347380D02*
X53178571Y-48775952D01*
X53607142Y-48347380D02*
X53035714Y-48918809D01*
X54559523Y-49347380D02*
X53988095Y-49347380D01*
X54273809Y-49347380D02*
X54273809Y-48347380D01*
X54178571Y-48490238D01*
X54083333Y-48585476D01*
X53988095Y-48633095D01*
X54892857Y-48347380D02*
X55511904Y-48347380D01*
X55178571Y-48728333D01*
X55321428Y-48728333D01*
X55416666Y-48775952D01*
X55464285Y-48823571D01*
X55511904Y-48918809D01*
X55511904Y-49156904D01*
X55464285Y-49252142D01*
X55416666Y-49299761D01*
X55321428Y-49347380D01*
X55035714Y-49347380D01*
X54940476Y-49299761D01*
X54892857Y-49252142D01*
X72035714Y-53347380D02*
X72035714Y-52347380D01*
X72607142Y-53347380D02*
X72178571Y-52775952D01*
X72607142Y-52347380D02*
X72035714Y-52918809D01*
X73559523Y-53347380D02*
X72988095Y-53347380D01*
X73273809Y-53347380D02*
X73273809Y-52347380D01*
X73178571Y-52490238D01*
X73083333Y-52585476D01*
X72988095Y-52633095D01*
X74416666Y-52680714D02*
X74416666Y-53347380D01*
X74178571Y-52299761D02*
X73940476Y-53014047D01*
X74559523Y-53014047D01*
X91035714Y-57347380D02*
X91035714Y-56347380D01*
X91607142Y-57347380D02*
X91178571Y-56775952D01*
X91607142Y-56347380D02*
X91035714Y-56918809D01*
X92559523Y-57347380D02*
X91988095Y-57347380D01*
X92273809Y-57347380D02*
X92273809Y-56347380D01*
X92178571Y-56490238D01*
X92083333Y-56585476D01*
X91988095Y-56633095D01*
X93464285Y-56347380D02*
X92988095Y-56347380D01*
X92940476Y-56823571D01*
X92988095Y-56775952D01*
X93083333Y-56728333D01*
X93321428Y-56728333D01*
X93416666Y-56775952D01*
X93464285Y-56823571D01*
X93511904Y-56918809D01*
X93511904Y-57156904D01*
X93464285Y-57252142D01*
X93416666Y-57299761D01*
X93321428Y-57347380D01*
X93083333Y-57347380D01*
X92988095Y-57299761D01*
X92940476Y-57252142D01*
X-3964285Y-80347380D02*
X-3964285Y-79347380D01*
X-3392857Y-80347380D02*
X-3821428Y-79775952D01*
X-3392857Y-79347380D02*
X-3964285Y-79918809D01*
X-3011904Y-79442619D02*
X-2964285Y-79395000D01*
X-2869047Y-79347380D01*
X-2630952Y-79347380D01*
X-2535714Y-79395000D01*
X-2488095Y-79442619D01*
X-2440476Y-79537857D01*
X-2440476Y-79633095D01*
X-2488095Y-79775952D01*
X-3059523Y-80347380D01*
X-2440476Y-80347380D01*
X-1821428Y-79347380D02*
X-1726190Y-79347380D01*
X-1630952Y-79395000D01*
X-1583333Y-79442619D01*
X-1535714Y-79537857D01*
X-1488095Y-79728333D01*
X-1488095Y-79966428D01*
X-1535714Y-80156904D01*
X-1583333Y-80252142D01*
X-1630952Y-80299761D01*
X-1726190Y-80347380D01*
X-1821428Y-80347380D01*
X-1916666Y-80299761D01*
X-1964285Y-80252142D01*
X-2011904Y-80156904D01*
X-2059523Y-79966428D01*
X-2059523Y-79728333D01*
X-2011904Y-79537857D01*
X-1964285Y-79442619D01*
X-1916666Y-79395000D01*
X-1821428Y-79347380D01*
X15035714Y-76347380D02*
X15035714Y-75347380D01*
X15607142Y-76347380D02*
X15178571Y-75775952D01*
X15607142Y-75347380D02*
X15035714Y-75918809D01*
X15988095Y-75442619D02*
X16035714Y-75395000D01*
X16130952Y-75347380D01*
X16369047Y-75347380D01*
X16464285Y-75395000D01*
X16511904Y-75442619D01*
X16559523Y-75537857D01*
X16559523Y-75633095D01*
X16511904Y-75775952D01*
X15940476Y-76347380D01*
X16559523Y-76347380D01*
X17511904Y-76347380D02*
X16940476Y-76347380D01*
X17226190Y-76347380D02*
X17226190Y-75347380D01*
X17130952Y-75490238D01*
X17035714Y-75585476D01*
X16940476Y-75633095D01*
X34035714Y-72347380D02*
X34035714Y-71347380D01*
X34607142Y-72347380D02*
X34178571Y-71775952D01*
X34607142Y-71347380D02*
X34035714Y-71918809D01*
X34988095Y-71442619D02*
X35035714Y-71395000D01*
X35130952Y-71347380D01*
X35369047Y-71347380D01*
X35464285Y-71395000D01*
X35511904Y-71442619D01*
X35559523Y-71537857D01*
X35559523Y-71633095D01*
X35511904Y-71775952D01*
X34940476Y-72347380D01*
X35559523Y-72347380D01*
X35940476Y-71442619D02*
X35988095Y-71395000D01*
X36083333Y-71347380D01*
X36321428Y-71347380D01*
X36416666Y-71395000D01*
X36464285Y-71442619D01*
X36511904Y-71537857D01*
X36511904Y-71633095D01*
X36464285Y-71775952D01*
X35892857Y-72347380D01*
X36511904Y-72347380D01*
X52935714Y-68347380D02*
X52935714Y-67347380D01*
X53507142Y-68347380D02*
X53078571Y-67775952D01*
X53507142Y-67347380D02*
X52935714Y-67918809D01*
X53888095Y-67442619D02*
X53935714Y-67395000D01*
X54030952Y-67347380D01*
X54269047Y-67347380D01*
X54364285Y-67395000D01*
X54411904Y-67442619D01*
X54459523Y-67537857D01*
X54459523Y-67633095D01*
X54411904Y-67775952D01*
X53840476Y-68347380D01*
X54459523Y-68347380D01*
X54792857Y-67347380D02*
X55411904Y-67347380D01*
X55078571Y-67728333D01*
X55221428Y-67728333D01*
X55316666Y-67775952D01*
X55364285Y-67823571D01*
X55411904Y-67918809D01*
X55411904Y-68156904D01*
X55364285Y-68252142D01*
X55316666Y-68299761D01*
X55221428Y-68347380D01*
X54935714Y-68347380D01*
X54840476Y-68299761D01*
X54792857Y-68252142D01*
X72035714Y-72347380D02*
X72035714Y-71347380D01*
X72607142Y-72347380D02*
X72178571Y-71775952D01*
X72607142Y-71347380D02*
X72035714Y-71918809D01*
X72988095Y-71442619D02*
X73035714Y-71395000D01*
X73130952Y-71347380D01*
X73369047Y-71347380D01*
X73464285Y-71395000D01*
X73511904Y-71442619D01*
X73559523Y-71537857D01*
X73559523Y-71633095D01*
X73511904Y-71775952D01*
X72940476Y-72347380D01*
X73559523Y-72347380D01*
X74416666Y-71680714D02*
X74416666Y-72347380D01*
X74178571Y-71299761D02*
X73940476Y-72014047D01*
X74559523Y-72014047D01*
X90935714Y-95347380D02*
X90935714Y-94347380D01*
X91507142Y-95347380D02*
X91078571Y-94775952D01*
X91507142Y-94347380D02*
X90935714Y-94918809D01*
X91840476Y-94347380D02*
X92459523Y-94347380D01*
X92126190Y-94728333D01*
X92269047Y-94728333D01*
X92364285Y-94775952D01*
X92411904Y-94823571D01*
X92459523Y-94918809D01*
X92459523Y-95156904D01*
X92411904Y-95252142D01*
X92364285Y-95299761D01*
X92269047Y-95347380D01*
X91983333Y-95347380D01*
X91888095Y-95299761D01*
X91840476Y-95252142D01*
X93316666Y-94680714D02*
X93316666Y-95347380D01*
X93078571Y-94299761D02*
X92840476Y-95014047D01*
X93459523Y-95014047D01*
X106035714Y-114347380D02*
X106035714Y-113347380D01*
X106607142Y-114347380D02*
X106178571Y-113775952D01*
X106607142Y-113347380D02*
X106035714Y-113918809D01*
X106940476Y-113347380D02*
X107559523Y-113347380D01*
X107226190Y-113728333D01*
X107369047Y-113728333D01*
X107464285Y-113775952D01*
X107511904Y-113823571D01*
X107559523Y-113918809D01*
X107559523Y-114156904D01*
X107511904Y-114252142D01*
X107464285Y-114299761D01*
X107369047Y-114347380D01*
X107083333Y-114347380D01*
X106988095Y-114299761D01*
X106940476Y-114252142D01*
X108464285Y-113347380D02*
X107988095Y-113347380D01*
X107940476Y-113823571D01*
X107988095Y-113775952D01*
X108083333Y-113728333D01*
X108321428Y-113728333D01*
X108416666Y-113775952D01*
X108464285Y-113823571D01*
X108511904Y-113918809D01*
X108511904Y-114156904D01*
X108464285Y-114252142D01*
X108416666Y-114299761D01*
X108321428Y-114347380D01*
X108083333Y-114347380D01*
X107988095Y-114299761D01*
X107940476Y-114252142D01*
X201725714Y-38207380D02*
X201725714Y-37207380D01*
X202297142Y-38207380D02*
X201868571Y-37635952D01*
X202297142Y-37207380D02*
X201725714Y-37778809D01*
X203154285Y-37540714D02*
X203154285Y-38207380D01*
X202916190Y-37159761D02*
X202678095Y-37874047D01*
X203297142Y-37874047D01*
X203868571Y-37207380D02*
X203963809Y-37207380D01*
X204059047Y-37255000D01*
X204106666Y-37302619D01*
X204154285Y-37397857D01*
X204201904Y-37588333D01*
X204201904Y-37826428D01*
X204154285Y-38016904D01*
X204106666Y-38112142D01*
X204059047Y-38159761D01*
X203963809Y-38207380D01*
X203868571Y-38207380D01*
X203773333Y-38159761D01*
X203725714Y-38112142D01*
X203678095Y-38016904D01*
X203630476Y-37826428D01*
X203630476Y-37588333D01*
X203678095Y-37397857D01*
X203725714Y-37302619D01*
X203773333Y-37255000D01*
X203868571Y-37207380D01*
X220535714Y-34347380D02*
X220535714Y-33347380D01*
X221107142Y-34347380D02*
X220678571Y-33775952D01*
X221107142Y-33347380D02*
X220535714Y-33918809D01*
X221964285Y-33680714D02*
X221964285Y-34347380D01*
X221726190Y-33299761D02*
X221488095Y-34014047D01*
X222107142Y-34014047D01*
X223011904Y-34347380D02*
X222440476Y-34347380D01*
X222726190Y-34347380D02*
X222726190Y-33347380D01*
X222630952Y-33490238D01*
X222535714Y-33585476D01*
X222440476Y-33633095D01*
X239635714Y-30347380D02*
X239635714Y-29347380D01*
X240207142Y-30347380D02*
X239778571Y-29775952D01*
X240207142Y-29347380D02*
X239635714Y-29918809D01*
X241064285Y-29680714D02*
X241064285Y-30347380D01*
X240826190Y-29299761D02*
X240588095Y-30014047D01*
X241207142Y-30014047D01*
X241540476Y-29442619D02*
X241588095Y-29395000D01*
X241683333Y-29347380D01*
X241921428Y-29347380D01*
X242016666Y-29395000D01*
X242064285Y-29442619D01*
X242111904Y-29537857D01*
X242111904Y-29633095D01*
X242064285Y-29775952D01*
X241492857Y-30347380D01*
X242111904Y-30347380D01*
X258535714Y-34247380D02*
X258535714Y-33247380D01*
X259107142Y-34247380D02*
X258678571Y-33675952D01*
X259107142Y-33247380D02*
X258535714Y-33818809D01*
X259964285Y-33580714D02*
X259964285Y-34247380D01*
X259726190Y-33199761D02*
X259488095Y-33914047D01*
X260107142Y-33914047D01*
X260392857Y-33247380D02*
X261011904Y-33247380D01*
X260678571Y-33628333D01*
X260821428Y-33628333D01*
X260916666Y-33675952D01*
X260964285Y-33723571D01*
X261011904Y-33818809D01*
X261011904Y-34056904D01*
X260964285Y-34152142D01*
X260916666Y-34199761D01*
X260821428Y-34247380D01*
X260535714Y-34247380D01*
X260440476Y-34199761D01*
X260392857Y-34152142D01*
X277525714Y-38307380D02*
X277525714Y-37307380D01*
X278097142Y-38307380D02*
X277668571Y-37735952D01*
X278097142Y-37307380D02*
X277525714Y-37878809D01*
X278954285Y-37640714D02*
X278954285Y-38307380D01*
X278716190Y-37259761D02*
X278478095Y-37974047D01*
X279097142Y-37974047D01*
X279906666Y-37640714D02*
X279906666Y-38307380D01*
X279668571Y-37259761D02*
X279430476Y-37974047D01*
X280049523Y-37974047D01*
X296535714Y-42347380D02*
X296535714Y-41347380D01*
X297107142Y-42347380D02*
X296678571Y-41775952D01*
X297107142Y-41347380D02*
X296535714Y-41918809D01*
X297964285Y-41680714D02*
X297964285Y-42347380D01*
X297726190Y-41299761D02*
X297488095Y-42014047D01*
X298107142Y-42014047D01*
X298964285Y-41347380D02*
X298488095Y-41347380D01*
X298440476Y-41823571D01*
X298488095Y-41775952D01*
X298583333Y-41728333D01*
X298821428Y-41728333D01*
X298916666Y-41775952D01*
X298964285Y-41823571D01*
X299011904Y-41918809D01*
X299011904Y-42156904D01*
X298964285Y-42252142D01*
X298916666Y-42299761D01*
X298821428Y-42347380D01*
X298583333Y-42347380D01*
X298488095Y-42299761D01*
X298440476Y-42252142D01*
X201635714Y-57347380D02*
X201635714Y-56347380D01*
X202207142Y-57347380D02*
X201778571Y-56775952D01*
X202207142Y-56347380D02*
X201635714Y-56918809D01*
X203111904Y-56347380D02*
X202635714Y-56347380D01*
X202588095Y-56823571D01*
X202635714Y-56775952D01*
X202730952Y-56728333D01*
X202969047Y-56728333D01*
X203064285Y-56775952D01*
X203111904Y-56823571D01*
X203159523Y-56918809D01*
X203159523Y-57156904D01*
X203111904Y-57252142D01*
X203064285Y-57299761D01*
X202969047Y-57347380D01*
X202730952Y-57347380D01*
X202635714Y-57299761D01*
X202588095Y-57252142D01*
X203778571Y-56347380D02*
X203873809Y-56347380D01*
X203969047Y-56395000D01*
X204016666Y-56442619D01*
X204064285Y-56537857D01*
X204111904Y-56728333D01*
X204111904Y-56966428D01*
X204064285Y-57156904D01*
X204016666Y-57252142D01*
X203969047Y-57299761D01*
X203873809Y-57347380D01*
X203778571Y-57347380D01*
X203683333Y-57299761D01*
X203635714Y-57252142D01*
X203588095Y-57156904D01*
X203540476Y-56966428D01*
X203540476Y-56728333D01*
X203588095Y-56537857D01*
X203635714Y-56442619D01*
X203683333Y-56395000D01*
X203778571Y-56347380D01*
X220535714Y-53347380D02*
X220535714Y-52347380D01*
X221107142Y-53347380D02*
X220678571Y-52775952D01*
X221107142Y-52347380D02*
X220535714Y-52918809D01*
X222011904Y-52347380D02*
X221535714Y-52347380D01*
X221488095Y-52823571D01*
X221535714Y-52775952D01*
X221630952Y-52728333D01*
X221869047Y-52728333D01*
X221964285Y-52775952D01*
X222011904Y-52823571D01*
X222059523Y-52918809D01*
X222059523Y-53156904D01*
X222011904Y-53252142D01*
X221964285Y-53299761D01*
X221869047Y-53347380D01*
X221630952Y-53347380D01*
X221535714Y-53299761D01*
X221488095Y-53252142D01*
X223011904Y-53347380D02*
X222440476Y-53347380D01*
X222726190Y-53347380D02*
X222726190Y-52347380D01*
X222630952Y-52490238D01*
X222535714Y-52585476D01*
X222440476Y-52633095D01*
X239535714Y-49447380D02*
X239535714Y-48447380D01*
X240107142Y-49447380D02*
X239678571Y-48875952D01*
X240107142Y-48447380D02*
X239535714Y-49018809D01*
X241011904Y-48447380D02*
X240535714Y-48447380D01*
X240488095Y-48923571D01*
X240535714Y-48875952D01*
X240630952Y-48828333D01*
X240869047Y-48828333D01*
X240964285Y-48875952D01*
X241011904Y-48923571D01*
X241059523Y-49018809D01*
X241059523Y-49256904D01*
X241011904Y-49352142D01*
X240964285Y-49399761D01*
X240869047Y-49447380D01*
X240630952Y-49447380D01*
X240535714Y-49399761D01*
X240488095Y-49352142D01*
X241440476Y-48542619D02*
X241488095Y-48495000D01*
X241583333Y-48447380D01*
X241821428Y-48447380D01*
X241916666Y-48495000D01*
X241964285Y-48542619D01*
X242011904Y-48637857D01*
X242011904Y-48733095D01*
X241964285Y-48875952D01*
X241392857Y-49447380D01*
X242011904Y-49447380D01*
X258635714Y-53247380D02*
X258635714Y-52247380D01*
X259207142Y-53247380D02*
X258778571Y-52675952D01*
X259207142Y-52247380D02*
X258635714Y-52818809D01*
X260111904Y-52247380D02*
X259635714Y-52247380D01*
X259588095Y-52723571D01*
X259635714Y-52675952D01*
X259730952Y-52628333D01*
X259969047Y-52628333D01*
X260064285Y-52675952D01*
X260111904Y-52723571D01*
X260159523Y-52818809D01*
X260159523Y-53056904D01*
X260111904Y-53152142D01*
X260064285Y-53199761D01*
X259969047Y-53247380D01*
X259730952Y-53247380D01*
X259635714Y-53199761D01*
X259588095Y-53152142D01*
X260492857Y-52247380D02*
X261111904Y-52247380D01*
X260778571Y-52628333D01*
X260921428Y-52628333D01*
X261016666Y-52675952D01*
X261064285Y-52723571D01*
X261111904Y-52818809D01*
X261111904Y-53056904D01*
X261064285Y-53152142D01*
X261016666Y-53199761D01*
X260921428Y-53247380D01*
X260635714Y-53247380D01*
X260540476Y-53199761D01*
X260492857Y-53152142D01*
X277535714Y-57347380D02*
X277535714Y-56347380D01*
X278107142Y-57347380D02*
X277678571Y-56775952D01*
X278107142Y-56347380D02*
X277535714Y-56918809D01*
X279011904Y-56347380D02*
X278535714Y-56347380D01*
X278488095Y-56823571D01*
X278535714Y-56775952D01*
X278630952Y-56728333D01*
X278869047Y-56728333D01*
X278964285Y-56775952D01*
X279011904Y-56823571D01*
X279059523Y-56918809D01*
X279059523Y-57156904D01*
X279011904Y-57252142D01*
X278964285Y-57299761D01*
X278869047Y-57347380D01*
X278630952Y-57347380D01*
X278535714Y-57299761D01*
X278488095Y-57252142D01*
X279916666Y-56680714D02*
X279916666Y-57347380D01*
X279678571Y-56299761D02*
X279440476Y-57014047D01*
X280059523Y-57014047D01*
X296635714Y-61347380D02*
X296635714Y-60347380D01*
X297207142Y-61347380D02*
X296778571Y-60775952D01*
X297207142Y-60347380D02*
X296635714Y-60918809D01*
X298111904Y-60347380D02*
X297635714Y-60347380D01*
X297588095Y-60823571D01*
X297635714Y-60775952D01*
X297730952Y-60728333D01*
X297969047Y-60728333D01*
X298064285Y-60775952D01*
X298111904Y-60823571D01*
X298159523Y-60918809D01*
X298159523Y-61156904D01*
X298111904Y-61252142D01*
X298064285Y-61299761D01*
X297969047Y-61347380D01*
X297730952Y-61347380D01*
X297635714Y-61299761D01*
X297588095Y-61252142D01*
X299064285Y-60347380D02*
X298588095Y-60347380D01*
X298540476Y-60823571D01*
X298588095Y-60775952D01*
X298683333Y-60728333D01*
X298921428Y-60728333D01*
X299016666Y-60775952D01*
X299064285Y-60823571D01*
X299111904Y-60918809D01*
X299111904Y-61156904D01*
X299064285Y-61252142D01*
X299016666Y-61299761D01*
X298921428Y-61347380D01*
X298683333Y-61347380D01*
X298588095Y-61299761D01*
X298540476Y-61252142D01*
X201635714Y-76347380D02*
X201635714Y-75347380D01*
X202207142Y-76347380D02*
X201778571Y-75775952D01*
X202207142Y-75347380D02*
X201635714Y-75918809D01*
X203064285Y-75347380D02*
X202873809Y-75347380D01*
X202778571Y-75395000D01*
X202730952Y-75442619D01*
X202635714Y-75585476D01*
X202588095Y-75775952D01*
X202588095Y-76156904D01*
X202635714Y-76252142D01*
X202683333Y-76299761D01*
X202778571Y-76347380D01*
X202969047Y-76347380D01*
X203064285Y-76299761D01*
X203111904Y-76252142D01*
X203159523Y-76156904D01*
X203159523Y-75918809D01*
X203111904Y-75823571D01*
X203064285Y-75775952D01*
X202969047Y-75728333D01*
X202778571Y-75728333D01*
X202683333Y-75775952D01*
X202635714Y-75823571D01*
X202588095Y-75918809D01*
X203778571Y-75347380D02*
X203873809Y-75347380D01*
X203969047Y-75395000D01*
X204016666Y-75442619D01*
X204064285Y-75537857D01*
X204111904Y-75728333D01*
X204111904Y-75966428D01*
X204064285Y-76156904D01*
X204016666Y-76252142D01*
X203969047Y-76299761D01*
X203873809Y-76347380D01*
X203778571Y-76347380D01*
X203683333Y-76299761D01*
X203635714Y-76252142D01*
X203588095Y-76156904D01*
X203540476Y-75966428D01*
X203540476Y-75728333D01*
X203588095Y-75537857D01*
X203635714Y-75442619D01*
X203683333Y-75395000D01*
X203778571Y-75347380D01*
X220635714Y-72347380D02*
X220635714Y-71347380D01*
X221207142Y-72347380D02*
X220778571Y-71775952D01*
X221207142Y-71347380D02*
X220635714Y-71918809D01*
X222064285Y-71347380D02*
X221873809Y-71347380D01*
X221778571Y-71395000D01*
X221730952Y-71442619D01*
X221635714Y-71585476D01*
X221588095Y-71775952D01*
X221588095Y-72156904D01*
X221635714Y-72252142D01*
X221683333Y-72299761D01*
X221778571Y-72347380D01*
X221969047Y-72347380D01*
X222064285Y-72299761D01*
X222111904Y-72252142D01*
X222159523Y-72156904D01*
X222159523Y-71918809D01*
X222111904Y-71823571D01*
X222064285Y-71775952D01*
X221969047Y-71728333D01*
X221778571Y-71728333D01*
X221683333Y-71775952D01*
X221635714Y-71823571D01*
X221588095Y-71918809D01*
X223111904Y-72347380D02*
X222540476Y-72347380D01*
X222826190Y-72347380D02*
X222826190Y-71347380D01*
X222730952Y-71490238D01*
X222635714Y-71585476D01*
X222540476Y-71633095D01*
X239535714Y-68247380D02*
X239535714Y-67247380D01*
X240107142Y-68247380D02*
X239678571Y-67675952D01*
X240107142Y-67247380D02*
X239535714Y-67818809D01*
X240964285Y-67247380D02*
X240773809Y-67247380D01*
X240678571Y-67295000D01*
X240630952Y-67342619D01*
X240535714Y-67485476D01*
X240488095Y-67675952D01*
X240488095Y-68056904D01*
X240535714Y-68152142D01*
X240583333Y-68199761D01*
X240678571Y-68247380D01*
X240869047Y-68247380D01*
X240964285Y-68199761D01*
X241011904Y-68152142D01*
X241059523Y-68056904D01*
X241059523Y-67818809D01*
X241011904Y-67723571D01*
X240964285Y-67675952D01*
X240869047Y-67628333D01*
X240678571Y-67628333D01*
X240583333Y-67675952D01*
X240535714Y-67723571D01*
X240488095Y-67818809D01*
X241440476Y-67342619D02*
X241488095Y-67295000D01*
X241583333Y-67247380D01*
X241821428Y-67247380D01*
X241916666Y-67295000D01*
X241964285Y-67342619D01*
X242011904Y-67437857D01*
X242011904Y-67533095D01*
X241964285Y-67675952D01*
X241392857Y-68247380D01*
X242011904Y-68247380D01*
X258535714Y-72347380D02*
X258535714Y-71347380D01*
X259107142Y-72347380D02*
X258678571Y-71775952D01*
X259107142Y-71347380D02*
X258535714Y-71918809D01*
X259964285Y-71347380D02*
X259773809Y-71347380D01*
X259678571Y-71395000D01*
X259630952Y-71442619D01*
X259535714Y-71585476D01*
X259488095Y-71775952D01*
X259488095Y-72156904D01*
X259535714Y-72252142D01*
X259583333Y-72299761D01*
X259678571Y-72347380D01*
X259869047Y-72347380D01*
X259964285Y-72299761D01*
X260011904Y-72252142D01*
X260059523Y-72156904D01*
X260059523Y-71918809D01*
X260011904Y-71823571D01*
X259964285Y-71775952D01*
X259869047Y-71728333D01*
X259678571Y-71728333D01*
X259583333Y-71775952D01*
X259535714Y-71823571D01*
X259488095Y-71918809D01*
X260392857Y-71347380D02*
X261011904Y-71347380D01*
X260678571Y-71728333D01*
X260821428Y-71728333D01*
X260916666Y-71775952D01*
X260964285Y-71823571D01*
X261011904Y-71918809D01*
X261011904Y-72156904D01*
X260964285Y-72252142D01*
X260916666Y-72299761D01*
X260821428Y-72347380D01*
X260535714Y-72347380D01*
X260440476Y-72299761D01*
X260392857Y-72252142D01*
X277535714Y-76347380D02*
X277535714Y-75347380D01*
X278107142Y-76347380D02*
X277678571Y-75775952D01*
X278107142Y-75347380D02*
X277535714Y-75918809D01*
X278964285Y-75347380D02*
X278773809Y-75347380D01*
X278678571Y-75395000D01*
X278630952Y-75442619D01*
X278535714Y-75585476D01*
X278488095Y-75775952D01*
X278488095Y-76156904D01*
X278535714Y-76252142D01*
X278583333Y-76299761D01*
X278678571Y-76347380D01*
X278869047Y-76347380D01*
X278964285Y-76299761D01*
X279011904Y-76252142D01*
X279059523Y-76156904D01*
X279059523Y-75918809D01*
X279011904Y-75823571D01*
X278964285Y-75775952D01*
X278869047Y-75728333D01*
X278678571Y-75728333D01*
X278583333Y-75775952D01*
X278535714Y-75823571D01*
X278488095Y-75918809D01*
X279916666Y-75680714D02*
X279916666Y-76347380D01*
X279678571Y-75299761D02*
X279440476Y-76014047D01*
X280059523Y-76014047D01*
X296635714Y-80347380D02*
X296635714Y-79347380D01*
X297207142Y-80347380D02*
X296778571Y-79775952D01*
X297207142Y-79347380D02*
X296635714Y-79918809D01*
X298064285Y-79347380D02*
X297873809Y-79347380D01*
X297778571Y-79395000D01*
X297730952Y-79442619D01*
X297635714Y-79585476D01*
X297588095Y-79775952D01*
X297588095Y-80156904D01*
X297635714Y-80252142D01*
X297683333Y-80299761D01*
X297778571Y-80347380D01*
X297969047Y-80347380D01*
X298064285Y-80299761D01*
X298111904Y-80252142D01*
X298159523Y-80156904D01*
X298159523Y-79918809D01*
X298111904Y-79823571D01*
X298064285Y-79775952D01*
X297969047Y-79728333D01*
X297778571Y-79728333D01*
X297683333Y-79775952D01*
X297635714Y-79823571D01*
X297588095Y-79918809D01*
X299064285Y-79347380D02*
X298588095Y-79347380D01*
X298540476Y-79823571D01*
X298588095Y-79775952D01*
X298683333Y-79728333D01*
X298921428Y-79728333D01*
X299016666Y-79775952D01*
X299064285Y-79823571D01*
X299111904Y-79918809D01*
X299111904Y-80156904D01*
X299064285Y-80252142D01*
X299016666Y-80299761D01*
X298921428Y-80347380D01*
X298683333Y-80347380D01*
X298588095Y-80299761D01*
X298540476Y-80252142D01*
X186635714Y-114347380D02*
X186635714Y-113347380D01*
X187207142Y-114347380D02*
X186778571Y-113775952D01*
X187207142Y-113347380D02*
X186635714Y-113918809D01*
X187540476Y-113347380D02*
X188207142Y-113347380D01*
X187778571Y-114347380D01*
X188778571Y-113347380D02*
X188873809Y-113347380D01*
X188969047Y-113395000D01*
X189016666Y-113442619D01*
X189064285Y-113537857D01*
X189111904Y-113728333D01*
X189111904Y-113966428D01*
X189064285Y-114156904D01*
X189016666Y-114252142D01*
X188969047Y-114299761D01*
X188873809Y-114347380D01*
X188778571Y-114347380D01*
X188683333Y-114299761D01*
X188635714Y-114252142D01*
X188588095Y-114156904D01*
X188540476Y-113966428D01*
X188540476Y-113728333D01*
X188588095Y-113537857D01*
X188635714Y-113442619D01*
X188683333Y-113395000D01*
X188778571Y-113347380D01*
X201535714Y-95347380D02*
X201535714Y-94347380D01*
X202107142Y-95347380D02*
X201678571Y-94775952D01*
X202107142Y-94347380D02*
X201535714Y-94918809D01*
X202440476Y-94347380D02*
X203107142Y-94347380D01*
X202678571Y-95347380D01*
X204011904Y-95347380D02*
X203440476Y-95347380D01*
X203726190Y-95347380D02*
X203726190Y-94347380D01*
X203630952Y-94490238D01*
X203535714Y-94585476D01*
X203440476Y-94633095D01*
X220635714Y-91247380D02*
X220635714Y-90247380D01*
X221207142Y-91247380D02*
X220778571Y-90675952D01*
X221207142Y-90247380D02*
X220635714Y-90818809D01*
X221540476Y-90247380D02*
X222207142Y-90247380D01*
X221778571Y-91247380D01*
X222540476Y-90342619D02*
X222588095Y-90295000D01*
X222683333Y-90247380D01*
X222921428Y-90247380D01*
X223016666Y-90295000D01*
X223064285Y-90342619D01*
X223111904Y-90437857D01*
X223111904Y-90533095D01*
X223064285Y-90675952D01*
X222492857Y-91247380D01*
X223111904Y-91247380D01*
M02*
