M48
; DRILL file {KiCad 5.1.2} date Sat 08 Jun 2019 03:08:22 PM CEST
; FORMAT={-:-/ absolute / inch / decimal}
; #@! TF.CreationDate,2019-06-08T15:08:22+02:00
; #@! TF.GenerationSoftware,Kicad,Pcbnew,5.1.2
; #@! TF.FileFunction,NonPlated,1,2,NPTH
FMAT,2
INCH
T1C0.0670
T2C0.1570
%
G90
G05
T1
X9.49Y-2.48
X9.89Y-2.48
X8.75Y-2.63
X9.15Y-2.63
X0.56Y-2.95
X0.96Y-2.95
X2.05Y-2.63
X2.45Y-2.63
X11.74Y-3.7
X12.14Y-3.7
X3.55Y-2.635
X3.95Y-2.635
X2.05Y-3.38
X2.45Y-3.38
X2.8Y-3.97
X3.2Y-3.97
X9.49Y-3.97
X9.89Y-3.97
X3.545Y-3.38
X3.945Y-3.38
X8.75Y-4.88
X9.15Y-4.88
X8.0Y-3.54
X8.4Y-3.54
X10.24Y-2.64
X10.64Y-2.64
X9.49Y-3.23
X9.89Y-3.23
X10.99Y-3.54
X11.39Y-3.54
X4.3Y-4.29
X4.7Y-4.29
X1.3Y-2.79
X1.7Y-2.79
X1.3Y-3.54
X1.7Y-3.54
X1.3Y-4.29
X1.7Y-4.29
X10.99Y-2.79
X11.39Y-2.79
X8.75Y-4.13
X9.15Y-4.13
X4.3Y-5.04
X4.7Y-5.04
X8.0Y-2.79
X8.4Y-2.79
X10.99Y-4.29
X11.39Y-4.29
X2.8Y-2.48
X3.2Y-2.48
X11.73Y-2.95
X12.13Y-2.95
X4.3Y-2.79
X4.7Y-2.79
X4.89Y-5.79
X5.29Y-5.79
X11.74Y-4.45
X12.14Y-4.45
X2.8Y-3.22
X3.2Y-3.22
X3.55Y-4.13
X3.95Y-4.13
X10.24Y-4.14
X10.64Y-4.14
X8.0Y-5.04
X8.4Y-5.04
X4.3Y-3.54
X4.7Y-3.54
X2.05Y-4.13
X2.45Y-4.13
X8.75Y-3.38
X9.15Y-3.38
X10.24Y-3.39
X10.64Y-3.39
X8.0Y-4.29
X8.4Y-4.29
X3.545Y-4.88
X3.945Y-4.88
X0.56Y-3.7
X0.96Y-3.7
X0.56Y-4.44
X0.96Y-4.44
X7.4Y-5.78
X7.8Y-5.78
T2
X3.745Y-3.38
X8.95Y-4.88
X8.2Y-3.54
X10.44Y-2.64
X9.69Y-3.23
X11.19Y-3.54
X4.5Y-4.29
X1.5Y-2.79
X1.5Y-3.54
X1.5Y-4.29
X11.19Y-2.79
X8.95Y-4.13
X4.5Y-5.04
X8.2Y-2.79
X11.19Y-4.29
X3.0Y-2.48
X11.93Y-2.95
X4.5Y-2.79
X5.09Y-5.79
X11.94Y-4.45
X3.0Y-3.22
X3.75Y-4.13
X10.44Y-4.14
X8.2Y-5.04
X4.5Y-3.54
X2.25Y-4.13
X8.95Y-3.38
X10.44Y-3.39
X8.2Y-4.29
X3.745Y-4.88
X0.76Y-3.7
X0.76Y-4.44
X7.6Y-5.78
X9.69Y-2.48
X8.95Y-2.63
X0.76Y-2.95
X2.25Y-2.63
X11.94Y-3.7
X3.75Y-2.635
X2.25Y-3.38
X3.0Y-3.97
X9.69Y-3.97
T0
M30
