G04 #@! TF.GenerationSoftware,KiCad,Pcbnew,5.1.2*
G04 #@! TF.CreationDate,2019-06-06T09:12:49+02:00*
G04 #@! TF.ProjectId,pcb,7063622e-6b69-4636-9164-5f7063625858,rev?*
G04 #@! TF.SameCoordinates,Original*
G04 #@! TF.FileFunction,Legend,Bot*
G04 #@! TF.FilePolarity,Positive*
%FSLAX46Y46*%
G04 Gerber Fmt 4.6, Leading zero omitted, Abs format (unit mm)*
G04 Created by KiCad (PCBNEW 5.1.2) date 2019-06-06 09:12:49*
%MOMM*%
%LPD*%
G04 APERTURE LIST*
%ADD10C,0.120000*%
%ADD11C,0.381000*%
G04 APERTURE END LIST*
D10*
X148590000Y-111760000D02*
X148590000Y-60960000D01*
X173990000Y-111760000D02*
X148590000Y-111760000D01*
X173990000Y-60960000D02*
X173990000Y-111760000D01*
X148590000Y-60960000D02*
X173990000Y-60960000D01*
D11*
X214630000Y-66294000D02*
X214630000Y-64516000D01*
X214630000Y-77216000D02*
X214630000Y-75438000D01*
X212852000Y-77216000D02*
X214630000Y-77216000D01*
X201930000Y-77216000D02*
X203708000Y-77216000D01*
X201930000Y-75438000D02*
X201930000Y-77216000D01*
X201930000Y-64516000D02*
X201930000Y-66294000D01*
X203708000Y-64516000D02*
X201930000Y-64516000D01*
X214630000Y-64516000D02*
X212852000Y-64516000D01*
X309626000Y-108458000D02*
X309626000Y-106680000D01*
X309626000Y-119380000D02*
X309626000Y-117602000D01*
X307848000Y-119380000D02*
X309626000Y-119380000D01*
X296926000Y-119380000D02*
X298704000Y-119380000D01*
X296926000Y-117602000D02*
X296926000Y-119380000D01*
X296926000Y-106680000D02*
X296926000Y-108458000D01*
X298704000Y-106680000D02*
X296926000Y-106680000D01*
X309626000Y-106680000D02*
X307848000Y-106680000D01*
X135636000Y-142494000D02*
X135636000Y-140716000D01*
X135636000Y-153416000D02*
X135636000Y-151638000D01*
X133858000Y-153416000D02*
X135636000Y-153416000D01*
X122936000Y-153416000D02*
X124714000Y-153416000D01*
X122936000Y-151638000D02*
X122936000Y-153416000D01*
X122936000Y-140716000D02*
X122936000Y-142494000D01*
X124714000Y-140716000D02*
X122936000Y-140716000D01*
X135636000Y-140716000D02*
X133858000Y-140716000D01*
X309372000Y-70358000D02*
X309372000Y-68580000D01*
X309372000Y-81280000D02*
X309372000Y-79502000D01*
X307594000Y-81280000D02*
X309372000Y-81280000D01*
X296672000Y-81280000D02*
X298450000Y-81280000D01*
X296672000Y-79502000D02*
X296672000Y-81280000D01*
X296672000Y-68580000D02*
X296672000Y-70358000D01*
X298450000Y-68580000D02*
X296672000Y-68580000D01*
X309372000Y-68580000D02*
X307594000Y-68580000D01*
X290576000Y-66294000D02*
X290576000Y-64516000D01*
X290576000Y-77216000D02*
X290576000Y-75438000D01*
X288798000Y-77216000D02*
X290576000Y-77216000D01*
X277876000Y-77216000D02*
X279654000Y-77216000D01*
X277876000Y-75438000D02*
X277876000Y-77216000D01*
X277876000Y-64516000D02*
X277876000Y-66294000D01*
X279654000Y-64516000D02*
X277876000Y-64516000D01*
X290576000Y-64516000D02*
X288798000Y-64516000D01*
X271526000Y-62484000D02*
X271526000Y-60706000D01*
X271526000Y-73406000D02*
X271526000Y-71628000D01*
X269748000Y-73406000D02*
X271526000Y-73406000D01*
X258826000Y-73406000D02*
X260604000Y-73406000D01*
X258826000Y-71628000D02*
X258826000Y-73406000D01*
X258826000Y-60706000D02*
X258826000Y-62484000D01*
X260604000Y-60706000D02*
X258826000Y-60706000D01*
X271526000Y-60706000D02*
X269748000Y-60706000D01*
X252476000Y-58420000D02*
X252476000Y-56642000D01*
X252476000Y-69342000D02*
X252476000Y-67564000D01*
X250698000Y-69342000D02*
X252476000Y-69342000D01*
X239776000Y-69342000D02*
X241554000Y-69342000D01*
X239776000Y-67564000D02*
X239776000Y-69342000D01*
X239776000Y-56642000D02*
X239776000Y-58420000D01*
X241554000Y-56642000D02*
X239776000Y-56642000D01*
X252476000Y-56642000D02*
X250698000Y-56642000D01*
X233680000Y-62230000D02*
X233680000Y-60452000D01*
X233680000Y-73152000D02*
X233680000Y-71374000D01*
X231902000Y-73152000D02*
X233680000Y-73152000D01*
X220980000Y-73152000D02*
X222758000Y-73152000D01*
X220980000Y-71374000D02*
X220980000Y-73152000D01*
X220980000Y-60452000D02*
X220980000Y-62230000D01*
X222758000Y-60452000D02*
X220980000Y-60452000D01*
X233680000Y-60452000D02*
X231902000Y-60452000D01*
X120650000Y-66294000D02*
X120650000Y-64516000D01*
X120650000Y-77216000D02*
X120650000Y-75438000D01*
X118872000Y-77216000D02*
X120650000Y-77216000D01*
X107950000Y-77216000D02*
X109728000Y-77216000D01*
X107950000Y-75438000D02*
X107950000Y-77216000D01*
X107950000Y-64516000D02*
X107950000Y-66294000D01*
X109728000Y-64516000D02*
X107950000Y-64516000D01*
X120650000Y-64516000D02*
X118872000Y-64516000D01*
X101600000Y-62357000D02*
X101600000Y-60579000D01*
X101600000Y-73279000D02*
X101600000Y-71501000D01*
X99822000Y-73279000D02*
X101600000Y-73279000D01*
X88900000Y-73279000D02*
X90678000Y-73279000D01*
X88900000Y-71501000D02*
X88900000Y-73279000D01*
X88900000Y-60579000D02*
X88900000Y-62357000D01*
X90678000Y-60579000D02*
X88900000Y-60579000D01*
X101600000Y-60579000D02*
X99822000Y-60579000D01*
X82550000Y-58420000D02*
X82550000Y-56642000D01*
X82550000Y-69342000D02*
X82550000Y-67564000D01*
X80772000Y-69342000D02*
X82550000Y-69342000D01*
X69850000Y-69342000D02*
X71628000Y-69342000D01*
X69850000Y-67564000D02*
X69850000Y-69342000D01*
X69850000Y-56642000D02*
X69850000Y-58420000D01*
X71628000Y-56642000D02*
X69850000Y-56642000D01*
X82550000Y-56642000D02*
X80772000Y-56642000D01*
X63500000Y-62230000D02*
X63500000Y-60452000D01*
X63500000Y-73152000D02*
X63500000Y-71374000D01*
X61722000Y-73152000D02*
X63500000Y-73152000D01*
X50800000Y-73152000D02*
X52578000Y-73152000D01*
X50800000Y-71374000D02*
X50800000Y-73152000D01*
X50800000Y-60452000D02*
X50800000Y-62230000D01*
X52578000Y-60452000D02*
X50800000Y-60452000D01*
X63500000Y-60452000D02*
X61722000Y-60452000D01*
X309626000Y-89408000D02*
X309626000Y-87630000D01*
X309626000Y-100330000D02*
X309626000Y-98552000D01*
X307848000Y-100330000D02*
X309626000Y-100330000D01*
X296926000Y-100330000D02*
X298704000Y-100330000D01*
X296926000Y-98552000D02*
X296926000Y-100330000D01*
X296926000Y-87630000D02*
X296926000Y-89408000D01*
X298704000Y-87630000D02*
X296926000Y-87630000D01*
X309626000Y-87630000D02*
X307848000Y-87630000D01*
X290576000Y-85344000D02*
X290576000Y-83566000D01*
X290576000Y-96266000D02*
X290576000Y-94488000D01*
X288798000Y-96266000D02*
X290576000Y-96266000D01*
X277876000Y-96266000D02*
X279654000Y-96266000D01*
X277876000Y-94488000D02*
X277876000Y-96266000D01*
X277876000Y-83566000D02*
X277876000Y-85344000D01*
X279654000Y-83566000D02*
X277876000Y-83566000D01*
X290576000Y-83566000D02*
X288798000Y-83566000D01*
X271526000Y-81534000D02*
X271526000Y-79756000D01*
X271526000Y-92456000D02*
X271526000Y-90678000D01*
X269748000Y-92456000D02*
X271526000Y-92456000D01*
X258826000Y-92456000D02*
X260604000Y-92456000D01*
X258826000Y-90678000D02*
X258826000Y-92456000D01*
X258826000Y-79756000D02*
X258826000Y-81534000D01*
X260604000Y-79756000D02*
X258826000Y-79756000D01*
X271526000Y-79756000D02*
X269748000Y-79756000D01*
X252476000Y-77470000D02*
X252476000Y-75692000D01*
X252476000Y-88392000D02*
X252476000Y-86614000D01*
X250698000Y-88392000D02*
X252476000Y-88392000D01*
X239776000Y-88392000D02*
X241554000Y-88392000D01*
X239776000Y-86614000D02*
X239776000Y-88392000D01*
X239776000Y-75692000D02*
X239776000Y-77470000D01*
X241554000Y-75692000D02*
X239776000Y-75692000D01*
X252476000Y-75692000D02*
X250698000Y-75692000D01*
X233680000Y-81280000D02*
X233680000Y-79502000D01*
X233680000Y-92202000D02*
X233680000Y-90424000D01*
X231902000Y-92202000D02*
X233680000Y-92202000D01*
X220980000Y-92202000D02*
X222758000Y-92202000D01*
X220980000Y-90424000D02*
X220980000Y-92202000D01*
X220980000Y-79502000D02*
X220980000Y-81280000D01*
X222758000Y-79502000D02*
X220980000Y-79502000D01*
X233680000Y-79502000D02*
X231902000Y-79502000D01*
X214630000Y-85344000D02*
X214630000Y-83566000D01*
X214630000Y-96266000D02*
X214630000Y-94488000D01*
X212852000Y-96266000D02*
X214630000Y-96266000D01*
X201930000Y-96266000D02*
X203708000Y-96266000D01*
X201930000Y-94488000D02*
X201930000Y-96266000D01*
X201930000Y-83566000D02*
X201930000Y-85344000D01*
X203708000Y-83566000D02*
X201930000Y-83566000D01*
X214630000Y-83566000D02*
X212852000Y-83566000D01*
X120650000Y-85344000D02*
X120650000Y-83566000D01*
X120650000Y-96266000D02*
X120650000Y-94488000D01*
X118872000Y-96266000D02*
X120650000Y-96266000D01*
X107950000Y-96266000D02*
X109728000Y-96266000D01*
X107950000Y-94488000D02*
X107950000Y-96266000D01*
X107950000Y-83566000D02*
X107950000Y-85344000D01*
X109728000Y-83566000D02*
X107950000Y-83566000D01*
X120650000Y-83566000D02*
X118872000Y-83566000D01*
X101473000Y-81280000D02*
X101473000Y-79502000D01*
X101473000Y-92202000D02*
X101473000Y-90424000D01*
X99695000Y-92202000D02*
X101473000Y-92202000D01*
X88773000Y-92202000D02*
X90551000Y-92202000D01*
X88773000Y-90424000D02*
X88773000Y-92202000D01*
X88773000Y-79502000D02*
X88773000Y-81280000D01*
X90551000Y-79502000D02*
X88773000Y-79502000D01*
X101473000Y-79502000D02*
X99695000Y-79502000D01*
X82550000Y-77216000D02*
X82550000Y-75438000D01*
X82550000Y-88138000D02*
X82550000Y-86360000D01*
X80772000Y-88138000D02*
X82550000Y-88138000D01*
X69850000Y-88138000D02*
X71628000Y-88138000D01*
X69850000Y-86360000D02*
X69850000Y-88138000D01*
X69850000Y-75438000D02*
X69850000Y-77216000D01*
X71628000Y-75438000D02*
X69850000Y-75438000D01*
X82550000Y-75438000D02*
X80772000Y-75438000D01*
X63500000Y-81280000D02*
X63500000Y-79502000D01*
X63500000Y-92202000D02*
X63500000Y-90424000D01*
X61722000Y-92202000D02*
X63500000Y-92202000D01*
X50800000Y-92202000D02*
X52578000Y-92202000D01*
X50800000Y-90424000D02*
X50800000Y-92202000D01*
X50800000Y-79502000D02*
X50800000Y-81280000D01*
X52578000Y-79502000D02*
X50800000Y-79502000D01*
X63500000Y-79502000D02*
X61722000Y-79502000D01*
X290576000Y-104394000D02*
X290576000Y-102616000D01*
X290576000Y-115316000D02*
X290576000Y-113538000D01*
X288798000Y-115316000D02*
X290576000Y-115316000D01*
X277876000Y-115316000D02*
X279654000Y-115316000D01*
X277876000Y-113538000D02*
X277876000Y-115316000D01*
X277876000Y-102616000D02*
X277876000Y-104394000D01*
X279654000Y-102616000D02*
X277876000Y-102616000D01*
X290576000Y-102616000D02*
X288798000Y-102616000D01*
X271526000Y-100584000D02*
X271526000Y-98806000D01*
X271526000Y-111506000D02*
X271526000Y-109728000D01*
X269748000Y-111506000D02*
X271526000Y-111506000D01*
X258826000Y-111506000D02*
X260604000Y-111506000D01*
X258826000Y-109728000D02*
X258826000Y-111506000D01*
X258826000Y-98806000D02*
X258826000Y-100584000D01*
X260604000Y-98806000D02*
X258826000Y-98806000D01*
X271526000Y-98806000D02*
X269748000Y-98806000D01*
X252476000Y-96266000D02*
X252476000Y-94488000D01*
X252476000Y-107188000D02*
X252476000Y-105410000D01*
X250698000Y-107188000D02*
X252476000Y-107188000D01*
X239776000Y-107188000D02*
X241554000Y-107188000D01*
X239776000Y-105410000D02*
X239776000Y-107188000D01*
X239776000Y-94488000D02*
X239776000Y-96266000D01*
X241554000Y-94488000D02*
X239776000Y-94488000D01*
X252476000Y-94488000D02*
X250698000Y-94488000D01*
X233680000Y-100330000D02*
X233680000Y-98552000D01*
X233680000Y-111252000D02*
X233680000Y-109474000D01*
X231902000Y-111252000D02*
X233680000Y-111252000D01*
X220980000Y-111252000D02*
X222758000Y-111252000D01*
X220980000Y-109474000D02*
X220980000Y-111252000D01*
X220980000Y-98552000D02*
X220980000Y-100330000D01*
X222758000Y-98552000D02*
X220980000Y-98552000D01*
X233680000Y-98552000D02*
X231902000Y-98552000D01*
X214630000Y-104394000D02*
X214630000Y-102616000D01*
X214630000Y-115316000D02*
X214630000Y-113538000D01*
X212852000Y-115316000D02*
X214630000Y-115316000D01*
X201930000Y-115316000D02*
X203708000Y-115316000D01*
X201930000Y-113538000D02*
X201930000Y-115316000D01*
X201930000Y-102616000D02*
X201930000Y-104394000D01*
X203708000Y-102616000D02*
X201930000Y-102616000D01*
X214630000Y-102616000D02*
X212852000Y-102616000D01*
X120650000Y-104394000D02*
X120650000Y-102616000D01*
X120650000Y-115316000D02*
X120650000Y-113538000D01*
X118872000Y-115316000D02*
X120650000Y-115316000D01*
X107950000Y-115316000D02*
X109728000Y-115316000D01*
X107950000Y-113538000D02*
X107950000Y-115316000D01*
X107950000Y-102616000D02*
X107950000Y-104394000D01*
X109728000Y-102616000D02*
X107950000Y-102616000D01*
X120650000Y-102616000D02*
X118872000Y-102616000D01*
X101600000Y-100330000D02*
X101600000Y-98552000D01*
X101600000Y-111252000D02*
X101600000Y-109474000D01*
X99822000Y-111252000D02*
X101600000Y-111252000D01*
X88900000Y-111252000D02*
X90678000Y-111252000D01*
X88900000Y-109474000D02*
X88900000Y-111252000D01*
X88900000Y-98552000D02*
X88900000Y-100330000D01*
X90678000Y-98552000D02*
X88900000Y-98552000D01*
X101600000Y-98552000D02*
X99822000Y-98552000D01*
X82550000Y-96266000D02*
X82550000Y-94488000D01*
X82550000Y-107188000D02*
X82550000Y-105410000D01*
X80772000Y-107188000D02*
X82550000Y-107188000D01*
X69850000Y-107188000D02*
X71628000Y-107188000D01*
X69850000Y-105410000D02*
X69850000Y-107188000D01*
X69850000Y-94488000D02*
X69850000Y-96266000D01*
X71628000Y-94488000D02*
X69850000Y-94488000D01*
X82550000Y-94488000D02*
X80772000Y-94488000D01*
X63500000Y-100330000D02*
X63500000Y-98552000D01*
X63500000Y-111252000D02*
X63500000Y-109474000D01*
X61722000Y-111252000D02*
X63500000Y-111252000D01*
X50800000Y-111252000D02*
X52578000Y-111252000D01*
X50800000Y-109474000D02*
X50800000Y-111252000D01*
X50800000Y-98552000D02*
X50800000Y-100330000D01*
X52578000Y-98552000D02*
X50800000Y-98552000D01*
X63500000Y-98552000D02*
X61722000Y-98552000D01*
X233680000Y-119380000D02*
X233680000Y-117602000D01*
X233680000Y-130302000D02*
X233680000Y-128524000D01*
X231902000Y-130302000D02*
X233680000Y-130302000D01*
X220980000Y-130302000D02*
X222758000Y-130302000D01*
X220980000Y-128524000D02*
X220980000Y-130302000D01*
X220980000Y-117602000D02*
X220980000Y-119380000D01*
X222758000Y-117602000D02*
X220980000Y-117602000D01*
X233680000Y-117602000D02*
X231902000Y-117602000D01*
X214630000Y-123444000D02*
X214630000Y-121666000D01*
X214630000Y-134366000D02*
X214630000Y-132588000D01*
X212852000Y-134366000D02*
X214630000Y-134366000D01*
X201930000Y-134366000D02*
X203708000Y-134366000D01*
X201930000Y-132588000D02*
X201930000Y-134366000D01*
X201930000Y-121666000D02*
X201930000Y-123444000D01*
X203708000Y-121666000D02*
X201930000Y-121666000D01*
X214630000Y-121666000D02*
X212852000Y-121666000D01*
X199390000Y-142240000D02*
X199390000Y-140462000D01*
X199390000Y-153162000D02*
X199390000Y-151384000D01*
X197612000Y-153162000D02*
X199390000Y-153162000D01*
X186690000Y-153162000D02*
X188468000Y-153162000D01*
X186690000Y-151384000D02*
X186690000Y-153162000D01*
X186690000Y-140462000D02*
X186690000Y-142240000D01*
X188468000Y-140462000D02*
X186690000Y-140462000D01*
X199390000Y-140462000D02*
X197612000Y-140462000D01*
X120650000Y-123444000D02*
X120650000Y-121666000D01*
X120650000Y-134366000D02*
X120650000Y-132588000D01*
X118872000Y-134366000D02*
X120650000Y-134366000D01*
X107950000Y-134366000D02*
X109728000Y-134366000D01*
X107950000Y-132588000D02*
X107950000Y-134366000D01*
X107950000Y-121666000D02*
X107950000Y-123444000D01*
X109728000Y-121666000D02*
X107950000Y-121666000D01*
X120650000Y-121666000D02*
X118872000Y-121666000D01*
X101473000Y-119380000D02*
X101473000Y-117602000D01*
X101473000Y-130302000D02*
X101473000Y-128524000D01*
X99695000Y-130302000D02*
X101473000Y-130302000D01*
X88773000Y-130302000D02*
X90551000Y-130302000D01*
X88773000Y-128524000D02*
X88773000Y-130302000D01*
X88773000Y-117602000D02*
X88773000Y-119380000D01*
X90551000Y-117602000D02*
X88773000Y-117602000D01*
X101473000Y-117602000D02*
X99695000Y-117602000D01*
X44450000Y-66294000D02*
X44450000Y-64516000D01*
X44450000Y-77216000D02*
X44450000Y-75438000D01*
X42672000Y-77216000D02*
X44450000Y-77216000D01*
X31750000Y-77216000D02*
X33528000Y-77216000D01*
X31750000Y-75438000D02*
X31750000Y-77216000D01*
X31750000Y-64516000D02*
X31750000Y-66294000D01*
X33528000Y-64516000D02*
X31750000Y-64516000D01*
X44450000Y-64516000D02*
X42672000Y-64516000D01*
X25654000Y-70358000D02*
X25654000Y-68580000D01*
X25654000Y-81280000D02*
X25654000Y-79502000D01*
X23876000Y-81280000D02*
X25654000Y-81280000D01*
X12954000Y-81280000D02*
X14732000Y-81280000D01*
X12954000Y-79502000D02*
X12954000Y-81280000D01*
X12954000Y-68580000D02*
X12954000Y-70358000D01*
X14732000Y-68580000D02*
X12954000Y-68580000D01*
X25654000Y-68580000D02*
X23876000Y-68580000D01*
X44450000Y-85344000D02*
X44450000Y-83566000D01*
X44450000Y-96266000D02*
X44450000Y-94488000D01*
X42672000Y-96266000D02*
X44450000Y-96266000D01*
X31750000Y-96266000D02*
X33528000Y-96266000D01*
X31750000Y-94488000D02*
X31750000Y-96266000D01*
X31750000Y-83566000D02*
X31750000Y-85344000D01*
X33528000Y-83566000D02*
X31750000Y-83566000D01*
X44450000Y-83566000D02*
X42672000Y-83566000D01*
X25654000Y-89408000D02*
X25654000Y-87630000D01*
X25654000Y-100330000D02*
X25654000Y-98552000D01*
X23876000Y-100330000D02*
X25654000Y-100330000D01*
X12954000Y-100330000D02*
X14732000Y-100330000D01*
X12954000Y-98552000D02*
X12954000Y-100330000D01*
X12954000Y-87630000D02*
X12954000Y-89408000D01*
X14732000Y-87630000D02*
X12954000Y-87630000D01*
X25654000Y-87630000D02*
X23876000Y-87630000D01*
X44450000Y-104394000D02*
X44450000Y-102616000D01*
X44450000Y-115316000D02*
X44450000Y-113538000D01*
X42672000Y-115316000D02*
X44450000Y-115316000D01*
X31750000Y-115316000D02*
X33528000Y-115316000D01*
X31750000Y-113538000D02*
X31750000Y-115316000D01*
X31750000Y-102616000D02*
X31750000Y-104394000D01*
X33528000Y-102616000D02*
X31750000Y-102616000D01*
X44450000Y-102616000D02*
X42672000Y-102616000D01*
X25654000Y-108204000D02*
X25654000Y-106426000D01*
X25654000Y-119126000D02*
X25654000Y-117348000D01*
X23876000Y-119126000D02*
X25654000Y-119126000D01*
X12954000Y-119126000D02*
X14732000Y-119126000D01*
X12954000Y-117348000D02*
X12954000Y-119126000D01*
X12954000Y-106426000D02*
X12954000Y-108204000D01*
X14732000Y-106426000D02*
X12954000Y-106426000D01*
X25654000Y-106426000D02*
X23876000Y-106426000D01*
M02*
