G04 #@! TF.GenerationSoftware,KiCad,Pcbnew,5.1.10*
G04 #@! TF.CreationDate,2021-10-24T21:55:21+02:00*
G04 #@! TF.ProjectId,pcb,7063622e-6b69-4636-9164-5f7063625858,rev?*
G04 #@! TF.SameCoordinates,Original*
G04 #@! TF.FileFunction,Soldermask,Bot*
G04 #@! TF.FilePolarity,Negative*
%FSLAX46Y46*%
G04 Gerber Fmt 4.6, Leading zero omitted, Abs format (unit mm)*
G04 Created by KiCad (PCBNEW 5.1.10) date 2021-10-24 21:55:21*
%MOMM*%
%LPD*%
G01*
G04 APERTURE LIST*
%ADD10C,4.089800*%
%ADD11C,1.852000*%
%ADD12C,2.102000*%
%ADD13C,1.802000*%
%ADD14C,1.702000*%
%ADD15C,1.854600*%
G04 APERTURE END LIST*
D10*
X57150000Y-66802000D03*
D11*
X62230000Y-66802000D03*
X52070000Y-66802000D03*
D12*
X52150000Y-63002000D03*
X57150000Y-60902000D03*
D13*
X62650000Y-66802000D03*
X51650000Y-66802000D03*
G36*
G01*
X60897790Y-61634158D02*
X62106714Y-63531788D01*
G75*
G02*
X61708489Y-65328067I-1097252J-699027D01*
G01*
X61708489Y-65328067D01*
G75*
G02*
X59912210Y-64929842I-699027J1097252D01*
G01*
X58703286Y-63032212D01*
G75*
G02*
X59101511Y-61235933I1097252J699027D01*
G01*
X59101511Y-61235933D01*
G75*
G02*
X60897790Y-61634158I699027J-1097252D01*
G01*
G37*
G36*
G01*
X55908263Y-61634184D02*
X55947711Y-62212840D01*
G75*
G02*
X54738212Y-63599315I-1297987J-88488D01*
G01*
X54738212Y-63599315D01*
G75*
G02*
X53351737Y-62389816I-88488J1297987D01*
G01*
X53312289Y-61811160D01*
G75*
G02*
X54521788Y-60424685I1297987J88488D01*
G01*
X54521788Y-60424685D01*
G75*
G02*
X55908263Y-61634184I88488J-1297987D01*
G01*
G37*
D14*
X294386000Y-71030000D03*
G36*
G01*
X295186000Y-79681000D02*
X293586000Y-79681000D01*
G75*
G02*
X293535000Y-79630000I0J51000D01*
G01*
X293535000Y-78030000D01*
G75*
G02*
X293586000Y-77979000I51000J0D01*
G01*
X295186000Y-77979000D01*
G75*
G02*
X295237000Y-78030000I0J-51000D01*
G01*
X295237000Y-79630000D01*
G75*
G02*
X295186000Y-79681000I-51000J0D01*
G01*
G37*
X275590000Y-66966000D03*
G36*
G01*
X276390000Y-75617000D02*
X274790000Y-75617000D01*
G75*
G02*
X274739000Y-75566000I0J51000D01*
G01*
X274739000Y-73966000D01*
G75*
G02*
X274790000Y-73915000I51000J0D01*
G01*
X276390000Y-73915000D01*
G75*
G02*
X276441000Y-73966000I0J-51000D01*
G01*
X276441000Y-75566000D01*
G75*
G02*
X276390000Y-75617000I-51000J0D01*
G01*
G37*
X256540000Y-63156000D03*
G36*
G01*
X257340000Y-71807000D02*
X255740000Y-71807000D01*
G75*
G02*
X255689000Y-71756000I0J51000D01*
G01*
X255689000Y-70156000D01*
G75*
G02*
X255740000Y-70105000I51000J0D01*
G01*
X257340000Y-70105000D01*
G75*
G02*
X257391000Y-70156000I0J-51000D01*
G01*
X257391000Y-71756000D01*
G75*
G02*
X257340000Y-71807000I-51000J0D01*
G01*
G37*
X237490000Y-59092000D03*
G36*
G01*
X238290000Y-67743000D02*
X236690000Y-67743000D01*
G75*
G02*
X236639000Y-67692000I0J51000D01*
G01*
X236639000Y-66092000D01*
G75*
G02*
X236690000Y-66041000I51000J0D01*
G01*
X238290000Y-66041000D01*
G75*
G02*
X238341000Y-66092000I0J-51000D01*
G01*
X238341000Y-67692000D01*
G75*
G02*
X238290000Y-67743000I-51000J0D01*
G01*
G37*
X218694000Y-62902000D03*
G36*
G01*
X219494000Y-71553000D02*
X217894000Y-71553000D01*
G75*
G02*
X217843000Y-71502000I0J51000D01*
G01*
X217843000Y-69902000D01*
G75*
G02*
X217894000Y-69851000I51000J0D01*
G01*
X219494000Y-69851000D01*
G75*
G02*
X219545000Y-69902000I0J-51000D01*
G01*
X219545000Y-71502000D01*
G75*
G02*
X219494000Y-71553000I-51000J0D01*
G01*
G37*
X184404000Y-66712000D03*
G36*
G01*
X185204000Y-75363000D02*
X183604000Y-75363000D01*
G75*
G02*
X183553000Y-75312000I0J51000D01*
G01*
X183553000Y-73712000D01*
G75*
G02*
X183604000Y-73661000I51000J0D01*
G01*
X185204000Y-73661000D01*
G75*
G02*
X185255000Y-73712000I0J-51000D01*
G01*
X185255000Y-75312000D01*
G75*
G02*
X185204000Y-75363000I-51000J0D01*
G01*
G37*
X137922000Y-66966000D03*
G36*
G01*
X138722000Y-75617000D02*
X137122000Y-75617000D01*
G75*
G02*
X137071000Y-75566000I0J51000D01*
G01*
X137071000Y-73966000D01*
G75*
G02*
X137122000Y-73915000I51000J0D01*
G01*
X138722000Y-73915000D01*
G75*
G02*
X138773000Y-73966000I0J-51000D01*
G01*
X138773000Y-75566000D01*
G75*
G02*
X138722000Y-75617000I-51000J0D01*
G01*
G37*
X103886000Y-63156000D03*
G36*
G01*
X104686000Y-71807000D02*
X103086000Y-71807000D01*
G75*
G02*
X103035000Y-71756000I0J51000D01*
G01*
X103035000Y-70156000D01*
G75*
G02*
X103086000Y-70105000I51000J0D01*
G01*
X104686000Y-70105000D01*
G75*
G02*
X104737000Y-70156000I0J-51000D01*
G01*
X104737000Y-71756000D01*
G75*
G02*
X104686000Y-71807000I-51000J0D01*
G01*
G37*
X84836000Y-59092000D03*
G36*
G01*
X85636000Y-67743000D02*
X84036000Y-67743000D01*
G75*
G02*
X83985000Y-67692000I0J51000D01*
G01*
X83985000Y-66092000D01*
G75*
G02*
X84036000Y-66041000I51000J0D01*
G01*
X85636000Y-66041000D01*
G75*
G02*
X85687000Y-66092000I0J-51000D01*
G01*
X85687000Y-67692000D01*
G75*
G02*
X85636000Y-67743000I-51000J0D01*
G01*
G37*
X65786000Y-62902000D03*
G36*
G01*
X66586000Y-71553000D02*
X64986000Y-71553000D01*
G75*
G02*
X64935000Y-71502000I0J51000D01*
G01*
X64935000Y-69902000D01*
G75*
G02*
X64986000Y-69851000I51000J0D01*
G01*
X66586000Y-69851000D01*
G75*
G02*
X66637000Y-69902000I0J-51000D01*
G01*
X66637000Y-71502000D01*
G75*
G02*
X66586000Y-71553000I-51000J0D01*
G01*
G37*
X294640000Y-90080000D03*
G36*
G01*
X295440000Y-98731000D02*
X293840000Y-98731000D01*
G75*
G02*
X293789000Y-98680000I0J51000D01*
G01*
X293789000Y-97080000D01*
G75*
G02*
X293840000Y-97029000I51000J0D01*
G01*
X295440000Y-97029000D01*
G75*
G02*
X295491000Y-97080000I0J-51000D01*
G01*
X295491000Y-98680000D01*
G75*
G02*
X295440000Y-98731000I-51000J0D01*
G01*
G37*
X275590000Y-86016000D03*
G36*
G01*
X276390000Y-94667000D02*
X274790000Y-94667000D01*
G75*
G02*
X274739000Y-94616000I0J51000D01*
G01*
X274739000Y-93016000D01*
G75*
G02*
X274790000Y-92965000I51000J0D01*
G01*
X276390000Y-92965000D01*
G75*
G02*
X276441000Y-93016000I0J-51000D01*
G01*
X276441000Y-94616000D01*
G75*
G02*
X276390000Y-94667000I-51000J0D01*
G01*
G37*
X256540000Y-82206000D03*
G36*
G01*
X257340000Y-90857000D02*
X255740000Y-90857000D01*
G75*
G02*
X255689000Y-90806000I0J51000D01*
G01*
X255689000Y-89206000D01*
G75*
G02*
X255740000Y-89155000I51000J0D01*
G01*
X257340000Y-89155000D01*
G75*
G02*
X257391000Y-89206000I0J-51000D01*
G01*
X257391000Y-90806000D01*
G75*
G02*
X257340000Y-90857000I-51000J0D01*
G01*
G37*
X237490000Y-78142000D03*
G36*
G01*
X238290000Y-86793000D02*
X236690000Y-86793000D01*
G75*
G02*
X236639000Y-86742000I0J51000D01*
G01*
X236639000Y-85142000D01*
G75*
G02*
X236690000Y-85091000I51000J0D01*
G01*
X238290000Y-85091000D01*
G75*
G02*
X238341000Y-85142000I0J-51000D01*
G01*
X238341000Y-86742000D01*
G75*
G02*
X238290000Y-86793000I-51000J0D01*
G01*
G37*
X218694000Y-81952000D03*
G36*
G01*
X219494000Y-90603000D02*
X217894000Y-90603000D01*
G75*
G02*
X217843000Y-90552000I0J51000D01*
G01*
X217843000Y-88952000D01*
G75*
G02*
X217894000Y-88901000I51000J0D01*
G01*
X219494000Y-88901000D01*
G75*
G02*
X219545000Y-88952000I0J-51000D01*
G01*
X219545000Y-90552000D01*
G75*
G02*
X219494000Y-90603000I-51000J0D01*
G01*
G37*
X199644000Y-86016000D03*
G36*
G01*
X200444000Y-94667000D02*
X198844000Y-94667000D01*
G75*
G02*
X198793000Y-94616000I0J51000D01*
G01*
X198793000Y-93016000D01*
G75*
G02*
X198844000Y-92965000I51000J0D01*
G01*
X200444000Y-92965000D01*
G75*
G02*
X200495000Y-93016000I0J-51000D01*
G01*
X200495000Y-94616000D01*
G75*
G02*
X200444000Y-94667000I-51000J0D01*
G01*
G37*
X122936000Y-85762000D03*
G36*
G01*
X123736000Y-94413000D02*
X122136000Y-94413000D01*
G75*
G02*
X122085000Y-94362000I0J51000D01*
G01*
X122085000Y-92762000D01*
G75*
G02*
X122136000Y-92711000I51000J0D01*
G01*
X123736000Y-92711000D01*
G75*
G02*
X123787000Y-92762000I0J-51000D01*
G01*
X123787000Y-94362000D01*
G75*
G02*
X123736000Y-94413000I-51000J0D01*
G01*
G37*
X103886000Y-82206000D03*
G36*
G01*
X104686000Y-90857000D02*
X103086000Y-90857000D01*
G75*
G02*
X103035000Y-90806000I0J51000D01*
G01*
X103035000Y-89206000D01*
G75*
G02*
X103086000Y-89155000I51000J0D01*
G01*
X104686000Y-89155000D01*
G75*
G02*
X104737000Y-89206000I0J-51000D01*
G01*
X104737000Y-90806000D01*
G75*
G02*
X104686000Y-90857000I-51000J0D01*
G01*
G37*
X84836000Y-77888000D03*
G36*
G01*
X85636000Y-86539000D02*
X84036000Y-86539000D01*
G75*
G02*
X83985000Y-86488000I0J51000D01*
G01*
X83985000Y-84888000D01*
G75*
G02*
X84036000Y-84837000I51000J0D01*
G01*
X85636000Y-84837000D01*
G75*
G02*
X85687000Y-84888000I0J-51000D01*
G01*
X85687000Y-86488000D01*
G75*
G02*
X85636000Y-86539000I-51000J0D01*
G01*
G37*
X65786000Y-81952000D03*
G36*
G01*
X66586000Y-90603000D02*
X64986000Y-90603000D01*
G75*
G02*
X64935000Y-90552000I0J51000D01*
G01*
X64935000Y-88952000D01*
G75*
G02*
X64986000Y-88901000I51000J0D01*
G01*
X66586000Y-88901000D01*
G75*
G02*
X66637000Y-88952000I0J-51000D01*
G01*
X66637000Y-90552000D01*
G75*
G02*
X66586000Y-90603000I-51000J0D01*
G01*
G37*
X294640000Y-109130000D03*
G36*
G01*
X295440000Y-117781000D02*
X293840000Y-117781000D01*
G75*
G02*
X293789000Y-117730000I0J51000D01*
G01*
X293789000Y-116130000D01*
G75*
G02*
X293840000Y-116079000I51000J0D01*
G01*
X295440000Y-116079000D01*
G75*
G02*
X295491000Y-116130000I0J-51000D01*
G01*
X295491000Y-117730000D01*
G75*
G02*
X295440000Y-117781000I-51000J0D01*
G01*
G37*
X275590000Y-105066000D03*
G36*
G01*
X276390000Y-113717000D02*
X274790000Y-113717000D01*
G75*
G02*
X274739000Y-113666000I0J51000D01*
G01*
X274739000Y-112066000D01*
G75*
G02*
X274790000Y-112015000I51000J0D01*
G01*
X276390000Y-112015000D01*
G75*
G02*
X276441000Y-112066000I0J-51000D01*
G01*
X276441000Y-113666000D01*
G75*
G02*
X276390000Y-113717000I-51000J0D01*
G01*
G37*
X256540000Y-101256000D03*
G36*
G01*
X257340000Y-109907000D02*
X255740000Y-109907000D01*
G75*
G02*
X255689000Y-109856000I0J51000D01*
G01*
X255689000Y-108256000D01*
G75*
G02*
X255740000Y-108205000I51000J0D01*
G01*
X257340000Y-108205000D01*
G75*
G02*
X257391000Y-108256000I0J-51000D01*
G01*
X257391000Y-109856000D01*
G75*
G02*
X257340000Y-109907000I-51000J0D01*
G01*
G37*
X237490000Y-96938000D03*
G36*
G01*
X238290000Y-105589000D02*
X236690000Y-105589000D01*
G75*
G02*
X236639000Y-105538000I0J51000D01*
G01*
X236639000Y-103938000D01*
G75*
G02*
X236690000Y-103887000I51000J0D01*
G01*
X238290000Y-103887000D01*
G75*
G02*
X238341000Y-103938000I0J-51000D01*
G01*
X238341000Y-105538000D01*
G75*
G02*
X238290000Y-105589000I-51000J0D01*
G01*
G37*
X218694000Y-101002000D03*
G36*
G01*
X219494000Y-109653000D02*
X217894000Y-109653000D01*
G75*
G02*
X217843000Y-109602000I0J51000D01*
G01*
X217843000Y-108002000D01*
G75*
G02*
X217894000Y-107951000I51000J0D01*
G01*
X219494000Y-107951000D01*
G75*
G02*
X219545000Y-108002000I0J-51000D01*
G01*
X219545000Y-109602000D01*
G75*
G02*
X219494000Y-109653000I-51000J0D01*
G01*
G37*
X199644000Y-105066000D03*
G36*
G01*
X200444000Y-113717000D02*
X198844000Y-113717000D01*
G75*
G02*
X198793000Y-113666000I0J51000D01*
G01*
X198793000Y-112066000D01*
G75*
G02*
X198844000Y-112015000I51000J0D01*
G01*
X200444000Y-112015000D01*
G75*
G02*
X200495000Y-112066000I0J-51000D01*
G01*
X200495000Y-113666000D01*
G75*
G02*
X200444000Y-113717000I-51000J0D01*
G01*
G37*
X122936000Y-105066000D03*
G36*
G01*
X123736000Y-113717000D02*
X122136000Y-113717000D01*
G75*
G02*
X122085000Y-113666000I0J51000D01*
G01*
X122085000Y-112066000D01*
G75*
G02*
X122136000Y-112015000I51000J0D01*
G01*
X123736000Y-112015000D01*
G75*
G02*
X123787000Y-112066000I0J-51000D01*
G01*
X123787000Y-113666000D01*
G75*
G02*
X123736000Y-113717000I-51000J0D01*
G01*
G37*
X103886000Y-101002000D03*
G36*
G01*
X104686000Y-109653000D02*
X103086000Y-109653000D01*
G75*
G02*
X103035000Y-109602000I0J51000D01*
G01*
X103035000Y-108002000D01*
G75*
G02*
X103086000Y-107951000I51000J0D01*
G01*
X104686000Y-107951000D01*
G75*
G02*
X104737000Y-108002000I0J-51000D01*
G01*
X104737000Y-109602000D01*
G75*
G02*
X104686000Y-109653000I-51000J0D01*
G01*
G37*
X84836000Y-96938000D03*
G36*
G01*
X85636000Y-105589000D02*
X84036000Y-105589000D01*
G75*
G02*
X83985000Y-105538000I0J51000D01*
G01*
X83985000Y-103938000D01*
G75*
G02*
X84036000Y-103887000I51000J0D01*
G01*
X85636000Y-103887000D01*
G75*
G02*
X85687000Y-103938000I0J-51000D01*
G01*
X85687000Y-105538000D01*
G75*
G02*
X85636000Y-105589000I-51000J0D01*
G01*
G37*
X65786000Y-101002000D03*
G36*
G01*
X66586000Y-109653000D02*
X64986000Y-109653000D01*
G75*
G02*
X64935000Y-109602000I0J51000D01*
G01*
X64935000Y-108002000D01*
G75*
G02*
X64986000Y-107951000I51000J0D01*
G01*
X66586000Y-107951000D01*
G75*
G02*
X66637000Y-108002000I0J-51000D01*
G01*
X66637000Y-109602000D01*
G75*
G02*
X66586000Y-109653000I-51000J0D01*
G01*
G37*
X218694000Y-120052000D03*
G36*
G01*
X219494000Y-128703000D02*
X217894000Y-128703000D01*
G75*
G02*
X217843000Y-128652000I0J51000D01*
G01*
X217843000Y-127052000D01*
G75*
G02*
X217894000Y-127001000I51000J0D01*
G01*
X219494000Y-127001000D01*
G75*
G02*
X219545000Y-127052000I0J-51000D01*
G01*
X219545000Y-128652000D01*
G75*
G02*
X219494000Y-128703000I-51000J0D01*
G01*
G37*
X184404000Y-124116000D03*
G36*
G01*
X185204000Y-132767000D02*
X183604000Y-132767000D01*
G75*
G02*
X183553000Y-132716000I0J51000D01*
G01*
X183553000Y-131116000D01*
G75*
G02*
X183604000Y-131065000I51000J0D01*
G01*
X185204000Y-131065000D01*
G75*
G02*
X185255000Y-131116000I0J-51000D01*
G01*
X185255000Y-132716000D01*
G75*
G02*
X185204000Y-132767000I-51000J0D01*
G01*
G37*
X184404000Y-142912000D03*
G36*
G01*
X185204000Y-151563000D02*
X183604000Y-151563000D01*
G75*
G02*
X183553000Y-151512000I0J51000D01*
G01*
X183553000Y-149912000D01*
G75*
G02*
X183604000Y-149861000I51000J0D01*
G01*
X185204000Y-149861000D01*
G75*
G02*
X185255000Y-149912000I0J-51000D01*
G01*
X185255000Y-151512000D01*
G75*
G02*
X185204000Y-151563000I-51000J0D01*
G01*
G37*
X137922000Y-143166000D03*
G36*
G01*
X138722000Y-151817000D02*
X137122000Y-151817000D01*
G75*
G02*
X137071000Y-151766000I0J51000D01*
G01*
X137071000Y-150166000D01*
G75*
G02*
X137122000Y-150115000I51000J0D01*
G01*
X138722000Y-150115000D01*
G75*
G02*
X138773000Y-150166000I0J-51000D01*
G01*
X138773000Y-151766000D01*
G75*
G02*
X138722000Y-151817000I-51000J0D01*
G01*
G37*
X137922000Y-124116000D03*
G36*
G01*
X138722000Y-132767000D02*
X137122000Y-132767000D01*
G75*
G02*
X137071000Y-132716000I0J51000D01*
G01*
X137071000Y-131116000D01*
G75*
G02*
X137122000Y-131065000I51000J0D01*
G01*
X138722000Y-131065000D01*
G75*
G02*
X138773000Y-131116000I0J-51000D01*
G01*
X138773000Y-132716000D01*
G75*
G02*
X138722000Y-132767000I-51000J0D01*
G01*
G37*
X103886000Y-120052000D03*
G36*
G01*
X104686000Y-128703000D02*
X103086000Y-128703000D01*
G75*
G02*
X103035000Y-128652000I0J51000D01*
G01*
X103035000Y-127052000D01*
G75*
G02*
X103086000Y-127001000I51000J0D01*
G01*
X104686000Y-127001000D01*
G75*
G02*
X104737000Y-127052000I0J-51000D01*
G01*
X104737000Y-128652000D01*
G75*
G02*
X104686000Y-128703000I-51000J0D01*
G01*
G37*
X46736000Y-66966000D03*
G36*
G01*
X47536000Y-75617000D02*
X45936000Y-75617000D01*
G75*
G02*
X45885000Y-75566000I0J51000D01*
G01*
X45885000Y-73966000D01*
G75*
G02*
X45936000Y-73915000I51000J0D01*
G01*
X47536000Y-73915000D01*
G75*
G02*
X47587000Y-73966000I0J-51000D01*
G01*
X47587000Y-75566000D01*
G75*
G02*
X47536000Y-75617000I-51000J0D01*
G01*
G37*
X27940000Y-71030000D03*
G36*
G01*
X28740000Y-79681000D02*
X27140000Y-79681000D01*
G75*
G02*
X27089000Y-79630000I0J51000D01*
G01*
X27089000Y-78030000D01*
G75*
G02*
X27140000Y-77979000I51000J0D01*
G01*
X28740000Y-77979000D01*
G75*
G02*
X28791000Y-78030000I0J-51000D01*
G01*
X28791000Y-79630000D01*
G75*
G02*
X28740000Y-79681000I-51000J0D01*
G01*
G37*
X46736000Y-81698000D03*
G36*
G01*
X47536000Y-90349000D02*
X45936000Y-90349000D01*
G75*
G02*
X45885000Y-90298000I0J51000D01*
G01*
X45885000Y-88698000D01*
G75*
G02*
X45936000Y-88647000I51000J0D01*
G01*
X47536000Y-88647000D01*
G75*
G02*
X47587000Y-88698000I0J-51000D01*
G01*
X47587000Y-90298000D01*
G75*
G02*
X47536000Y-90349000I-51000J0D01*
G01*
G37*
X27940000Y-90080000D03*
G36*
G01*
X28740000Y-98731000D02*
X27140000Y-98731000D01*
G75*
G02*
X27089000Y-98680000I0J51000D01*
G01*
X27089000Y-97080000D01*
G75*
G02*
X27140000Y-97029000I51000J0D01*
G01*
X28740000Y-97029000D01*
G75*
G02*
X28791000Y-97080000I0J-51000D01*
G01*
X28791000Y-98680000D01*
G75*
G02*
X28740000Y-98731000I-51000J0D01*
G01*
G37*
X46736000Y-105066000D03*
G36*
G01*
X47536000Y-113717000D02*
X45936000Y-113717000D01*
G75*
G02*
X45885000Y-113666000I0J51000D01*
G01*
X45885000Y-112066000D01*
G75*
G02*
X45936000Y-112015000I51000J0D01*
G01*
X47536000Y-112015000D01*
G75*
G02*
X47587000Y-112066000I0J-51000D01*
G01*
X47587000Y-113666000D01*
G75*
G02*
X47536000Y-113717000I-51000J0D01*
G01*
G37*
X27940000Y-108622000D03*
G36*
G01*
X28740000Y-117273000D02*
X27140000Y-117273000D01*
G75*
G02*
X27089000Y-117222000I0J51000D01*
G01*
X27089000Y-115622000D01*
G75*
G02*
X27140000Y-115571000I51000J0D01*
G01*
X28740000Y-115571000D01*
G75*
G02*
X28791000Y-115622000I0J-51000D01*
G01*
X28791000Y-117222000D01*
G75*
G02*
X28740000Y-117273000I-51000J0D01*
G01*
G37*
G36*
G01*
X167743700Y-64602700D02*
X169496300Y-64602700D01*
G75*
G02*
X169547300Y-64653700I0J-51000D01*
G01*
X169547300Y-66406300D01*
G75*
G02*
X169496300Y-66457300I-51000J0D01*
G01*
X167743700Y-66457300D01*
G75*
G02*
X167692700Y-66406300I0J51000D01*
G01*
X167692700Y-64653700D01*
G75*
G02*
X167743700Y-64602700I51000J0D01*
G01*
G37*
D15*
X168620000Y-68070000D03*
X168620000Y-70610000D03*
X168620000Y-73150000D03*
X168620000Y-75690000D03*
X168620000Y-78230000D03*
X168620000Y-80770000D03*
X168620000Y-83310000D03*
X168620000Y-85850000D03*
X168620000Y-88390000D03*
X168620000Y-90930000D03*
X153380000Y-93470000D03*
X153380000Y-90930000D03*
X153380000Y-88390000D03*
X153380000Y-85850000D03*
X153380000Y-83310000D03*
X153380000Y-80770000D03*
X153380000Y-78230000D03*
X153380000Y-75690000D03*
X153380000Y-73150000D03*
X153380000Y-70610000D03*
X153380000Y-68070000D03*
X168391400Y-93470000D03*
X153380000Y-65530000D03*
X155920000Y-93470000D03*
X158460000Y-93470000D03*
X161000000Y-93470000D03*
X163540000Y-93470000D03*
X166080000Y-93470000D03*
G36*
G01*
X168773000Y-64479000D02*
X172023000Y-64479000D01*
G75*
G02*
X172074000Y-64530000I0J-51000D01*
G01*
X172074000Y-66530000D01*
G75*
G02*
X172023000Y-66581000I-51000J0D01*
G01*
X168773000Y-66581000D01*
G75*
G02*
X168722000Y-66530000I0J51000D01*
G01*
X168722000Y-64530000D01*
G75*
G02*
X168773000Y-64479000I51000J0D01*
G01*
G37*
G36*
G01*
X168773000Y-67019000D02*
X172023000Y-67019000D01*
G75*
G02*
X172074000Y-67070000I0J-51000D01*
G01*
X172074000Y-69070000D01*
G75*
G02*
X172023000Y-69121000I-51000J0D01*
G01*
X168773000Y-69121000D01*
G75*
G02*
X168722000Y-69070000I0J51000D01*
G01*
X168722000Y-67070000D01*
G75*
G02*
X168773000Y-67019000I51000J0D01*
G01*
G37*
G36*
G01*
X168773000Y-69559000D02*
X172023000Y-69559000D01*
G75*
G02*
X172074000Y-69610000I0J-51000D01*
G01*
X172074000Y-71610000D01*
G75*
G02*
X172023000Y-71661000I-51000J0D01*
G01*
X168773000Y-71661000D01*
G75*
G02*
X168722000Y-71610000I0J51000D01*
G01*
X168722000Y-69610000D01*
G75*
G02*
X168773000Y-69559000I51000J0D01*
G01*
G37*
G36*
G01*
X168773000Y-72099000D02*
X172023000Y-72099000D01*
G75*
G02*
X172074000Y-72150000I0J-51000D01*
G01*
X172074000Y-74150000D01*
G75*
G02*
X172023000Y-74201000I-51000J0D01*
G01*
X168773000Y-74201000D01*
G75*
G02*
X168722000Y-74150000I0J51000D01*
G01*
X168722000Y-72150000D01*
G75*
G02*
X168773000Y-72099000I51000J0D01*
G01*
G37*
G36*
G01*
X168773000Y-74639000D02*
X172023000Y-74639000D01*
G75*
G02*
X172074000Y-74690000I0J-51000D01*
G01*
X172074000Y-76690000D01*
G75*
G02*
X172023000Y-76741000I-51000J0D01*
G01*
X168773000Y-76741000D01*
G75*
G02*
X168722000Y-76690000I0J51000D01*
G01*
X168722000Y-74690000D01*
G75*
G02*
X168773000Y-74639000I51000J0D01*
G01*
G37*
G36*
G01*
X168773000Y-77179000D02*
X172023000Y-77179000D01*
G75*
G02*
X172074000Y-77230000I0J-51000D01*
G01*
X172074000Y-79230000D01*
G75*
G02*
X172023000Y-79281000I-51000J0D01*
G01*
X168773000Y-79281000D01*
G75*
G02*
X168722000Y-79230000I0J51000D01*
G01*
X168722000Y-77230000D01*
G75*
G02*
X168773000Y-77179000I51000J0D01*
G01*
G37*
G36*
G01*
X168773000Y-79719000D02*
X172023000Y-79719000D01*
G75*
G02*
X172074000Y-79770000I0J-51000D01*
G01*
X172074000Y-81770000D01*
G75*
G02*
X172023000Y-81821000I-51000J0D01*
G01*
X168773000Y-81821000D01*
G75*
G02*
X168722000Y-81770000I0J51000D01*
G01*
X168722000Y-79770000D01*
G75*
G02*
X168773000Y-79719000I51000J0D01*
G01*
G37*
G36*
G01*
X168773000Y-82259000D02*
X172023000Y-82259000D01*
G75*
G02*
X172074000Y-82310000I0J-51000D01*
G01*
X172074000Y-84310000D01*
G75*
G02*
X172023000Y-84361000I-51000J0D01*
G01*
X168773000Y-84361000D01*
G75*
G02*
X168722000Y-84310000I0J51000D01*
G01*
X168722000Y-82310000D01*
G75*
G02*
X168773000Y-82259000I51000J0D01*
G01*
G37*
G36*
G01*
X168773000Y-84799000D02*
X172023000Y-84799000D01*
G75*
G02*
X172074000Y-84850000I0J-51000D01*
G01*
X172074000Y-86850000D01*
G75*
G02*
X172023000Y-86901000I-51000J0D01*
G01*
X168773000Y-86901000D01*
G75*
G02*
X168722000Y-86850000I0J51000D01*
G01*
X168722000Y-84850000D01*
G75*
G02*
X168773000Y-84799000I51000J0D01*
G01*
G37*
G36*
G01*
X168773000Y-87339000D02*
X172023000Y-87339000D01*
G75*
G02*
X172074000Y-87390000I0J-51000D01*
G01*
X172074000Y-89390000D01*
G75*
G02*
X172023000Y-89441000I-51000J0D01*
G01*
X168773000Y-89441000D01*
G75*
G02*
X168722000Y-89390000I0J51000D01*
G01*
X168722000Y-87390000D01*
G75*
G02*
X168773000Y-87339000I51000J0D01*
G01*
G37*
G36*
G01*
X168773000Y-89879000D02*
X172023000Y-89879000D01*
G75*
G02*
X172074000Y-89930000I0J-51000D01*
G01*
X172074000Y-91930000D01*
G75*
G02*
X172023000Y-91981000I-51000J0D01*
G01*
X168773000Y-91981000D01*
G75*
G02*
X168722000Y-91930000I0J51000D01*
G01*
X168722000Y-89930000D01*
G75*
G02*
X168773000Y-89879000I51000J0D01*
G01*
G37*
G36*
G01*
X168773000Y-92419000D02*
X172023000Y-92419000D01*
G75*
G02*
X172074000Y-92470000I0J-51000D01*
G01*
X172074000Y-94470000D01*
G75*
G02*
X172023000Y-94521000I-51000J0D01*
G01*
X168773000Y-94521000D01*
G75*
G02*
X168722000Y-94470000I0J51000D01*
G01*
X168722000Y-92470000D01*
G75*
G02*
X168773000Y-92419000I51000J0D01*
G01*
G37*
G36*
G01*
X149977000Y-92419000D02*
X153227000Y-92419000D01*
G75*
G02*
X153278000Y-92470000I0J-51000D01*
G01*
X153278000Y-94470000D01*
G75*
G02*
X153227000Y-94521000I-51000J0D01*
G01*
X149977000Y-94521000D01*
G75*
G02*
X149926000Y-94470000I0J51000D01*
G01*
X149926000Y-92470000D01*
G75*
G02*
X149977000Y-92419000I51000J0D01*
G01*
G37*
G36*
G01*
X149977000Y-89879000D02*
X153227000Y-89879000D01*
G75*
G02*
X153278000Y-89930000I0J-51000D01*
G01*
X153278000Y-91930000D01*
G75*
G02*
X153227000Y-91981000I-51000J0D01*
G01*
X149977000Y-91981000D01*
G75*
G02*
X149926000Y-91930000I0J51000D01*
G01*
X149926000Y-89930000D01*
G75*
G02*
X149977000Y-89879000I51000J0D01*
G01*
G37*
G36*
G01*
X149977000Y-87339000D02*
X153227000Y-87339000D01*
G75*
G02*
X153278000Y-87390000I0J-51000D01*
G01*
X153278000Y-89390000D01*
G75*
G02*
X153227000Y-89441000I-51000J0D01*
G01*
X149977000Y-89441000D01*
G75*
G02*
X149926000Y-89390000I0J51000D01*
G01*
X149926000Y-87390000D01*
G75*
G02*
X149977000Y-87339000I51000J0D01*
G01*
G37*
G36*
G01*
X149977000Y-84799000D02*
X153227000Y-84799000D01*
G75*
G02*
X153278000Y-84850000I0J-51000D01*
G01*
X153278000Y-86850000D01*
G75*
G02*
X153227000Y-86901000I-51000J0D01*
G01*
X149977000Y-86901000D01*
G75*
G02*
X149926000Y-86850000I0J51000D01*
G01*
X149926000Y-84850000D01*
G75*
G02*
X149977000Y-84799000I51000J0D01*
G01*
G37*
G36*
G01*
X149977000Y-82259000D02*
X153227000Y-82259000D01*
G75*
G02*
X153278000Y-82310000I0J-51000D01*
G01*
X153278000Y-84310000D01*
G75*
G02*
X153227000Y-84361000I-51000J0D01*
G01*
X149977000Y-84361000D01*
G75*
G02*
X149926000Y-84310000I0J51000D01*
G01*
X149926000Y-82310000D01*
G75*
G02*
X149977000Y-82259000I51000J0D01*
G01*
G37*
G36*
G01*
X149977000Y-79719000D02*
X153227000Y-79719000D01*
G75*
G02*
X153278000Y-79770000I0J-51000D01*
G01*
X153278000Y-81770000D01*
G75*
G02*
X153227000Y-81821000I-51000J0D01*
G01*
X149977000Y-81821000D01*
G75*
G02*
X149926000Y-81770000I0J51000D01*
G01*
X149926000Y-79770000D01*
G75*
G02*
X149977000Y-79719000I51000J0D01*
G01*
G37*
G36*
G01*
X149977000Y-77179000D02*
X153227000Y-77179000D01*
G75*
G02*
X153278000Y-77230000I0J-51000D01*
G01*
X153278000Y-79230000D01*
G75*
G02*
X153227000Y-79281000I-51000J0D01*
G01*
X149977000Y-79281000D01*
G75*
G02*
X149926000Y-79230000I0J51000D01*
G01*
X149926000Y-77230000D01*
G75*
G02*
X149977000Y-77179000I51000J0D01*
G01*
G37*
G36*
G01*
X149977000Y-74639000D02*
X153227000Y-74639000D01*
G75*
G02*
X153278000Y-74690000I0J-51000D01*
G01*
X153278000Y-76690000D01*
G75*
G02*
X153227000Y-76741000I-51000J0D01*
G01*
X149977000Y-76741000D01*
G75*
G02*
X149926000Y-76690000I0J51000D01*
G01*
X149926000Y-74690000D01*
G75*
G02*
X149977000Y-74639000I51000J0D01*
G01*
G37*
G36*
G01*
X149977000Y-72099000D02*
X153227000Y-72099000D01*
G75*
G02*
X153278000Y-72150000I0J-51000D01*
G01*
X153278000Y-74150000D01*
G75*
G02*
X153227000Y-74201000I-51000J0D01*
G01*
X149977000Y-74201000D01*
G75*
G02*
X149926000Y-74150000I0J51000D01*
G01*
X149926000Y-72150000D01*
G75*
G02*
X149977000Y-72099000I51000J0D01*
G01*
G37*
G36*
G01*
X149977000Y-69559000D02*
X153227000Y-69559000D01*
G75*
G02*
X153278000Y-69610000I0J-51000D01*
G01*
X153278000Y-71610000D01*
G75*
G02*
X153227000Y-71661000I-51000J0D01*
G01*
X149977000Y-71661000D01*
G75*
G02*
X149926000Y-71610000I0J51000D01*
G01*
X149926000Y-69610000D01*
G75*
G02*
X149977000Y-69559000I51000J0D01*
G01*
G37*
G36*
G01*
X149977000Y-67019000D02*
X153227000Y-67019000D01*
G75*
G02*
X153278000Y-67070000I0J-51000D01*
G01*
X153278000Y-69070000D01*
G75*
G02*
X153227000Y-69121000I-51000J0D01*
G01*
X149977000Y-69121000D01*
G75*
G02*
X149926000Y-69070000I0J51000D01*
G01*
X149926000Y-67070000D01*
G75*
G02*
X149977000Y-67019000I51000J0D01*
G01*
G37*
G36*
G01*
X149977000Y-64479000D02*
X153227000Y-64479000D01*
G75*
G02*
X153278000Y-64530000I0J-51000D01*
G01*
X153278000Y-66530000D01*
G75*
G02*
X153227000Y-66581000I-51000J0D01*
G01*
X149977000Y-66581000D01*
G75*
G02*
X149926000Y-66530000I0J51000D01*
G01*
X149926000Y-64530000D01*
G75*
G02*
X149977000Y-64479000I51000J0D01*
G01*
G37*
G36*
G01*
X167131000Y-93750000D02*
X167131000Y-97000000D01*
G75*
G02*
X167080000Y-97051000I-51000J0D01*
G01*
X165080000Y-97051000D01*
G75*
G02*
X165029000Y-97000000I0J51000D01*
G01*
X165029000Y-93750000D01*
G75*
G02*
X165080000Y-93699000I51000J0D01*
G01*
X167080000Y-93699000D01*
G75*
G02*
X167131000Y-93750000I0J-51000D01*
G01*
G37*
G36*
G01*
X164591000Y-93750000D02*
X164591000Y-97000000D01*
G75*
G02*
X164540000Y-97051000I-51000J0D01*
G01*
X162540000Y-97051000D01*
G75*
G02*
X162489000Y-97000000I0J51000D01*
G01*
X162489000Y-93750000D01*
G75*
G02*
X162540000Y-93699000I51000J0D01*
G01*
X164540000Y-93699000D01*
G75*
G02*
X164591000Y-93750000I0J-51000D01*
G01*
G37*
G36*
G01*
X162051000Y-93750000D02*
X162051000Y-97000000D01*
G75*
G02*
X162000000Y-97051000I-51000J0D01*
G01*
X160000000Y-97051000D01*
G75*
G02*
X159949000Y-97000000I0J51000D01*
G01*
X159949000Y-93750000D01*
G75*
G02*
X160000000Y-93699000I51000J0D01*
G01*
X162000000Y-93699000D01*
G75*
G02*
X162051000Y-93750000I0J-51000D01*
G01*
G37*
G36*
G01*
X159511000Y-93750000D02*
X159511000Y-97000000D01*
G75*
G02*
X159460000Y-97051000I-51000J0D01*
G01*
X157460000Y-97051000D01*
G75*
G02*
X157409000Y-97000000I0J51000D01*
G01*
X157409000Y-93750000D01*
G75*
G02*
X157460000Y-93699000I51000J0D01*
G01*
X159460000Y-93699000D01*
G75*
G02*
X159511000Y-93750000I0J-51000D01*
G01*
G37*
G36*
G01*
X156971000Y-93750000D02*
X156971000Y-97000000D01*
G75*
G02*
X156920000Y-97051000I-51000J0D01*
G01*
X154920000Y-97051000D01*
G75*
G02*
X154869000Y-97000000I0J51000D01*
G01*
X154869000Y-93750000D01*
G75*
G02*
X154920000Y-93699000I51000J0D01*
G01*
X156920000Y-93699000D01*
G75*
G02*
X156971000Y-93750000I0J-51000D01*
G01*
G37*
G36*
G01*
X301780263Y-69762184D02*
X301819711Y-70340840D01*
G75*
G02*
X300610212Y-71727315I-1297987J-88488D01*
G01*
X300610212Y-71727315D01*
G75*
G02*
X299223737Y-70517816I-88488J1297987D01*
G01*
X299184289Y-69939160D01*
G75*
G02*
X300393788Y-68552685I1297987J88488D01*
G01*
X300393788Y-68552685D01*
G75*
G02*
X301780263Y-69762184I88488J-1297987D01*
G01*
G37*
G36*
G01*
X306769790Y-69762158D02*
X307978714Y-71659788D01*
G75*
G02*
X307580489Y-73456067I-1097252J-699027D01*
G01*
X307580489Y-73456067D01*
G75*
G02*
X305784210Y-73057842I-699027J1097252D01*
G01*
X304575286Y-71160212D01*
G75*
G02*
X304973511Y-69363933I1097252J699027D01*
G01*
X304973511Y-69363933D01*
G75*
G02*
X306769790Y-69762158I699027J-1097252D01*
G01*
G37*
D13*
X297522000Y-74930000D03*
X308522000Y-74930000D03*
D12*
X303022000Y-69030000D03*
X298022000Y-71130000D03*
D11*
X297942000Y-74930000D03*
X308102000Y-74930000D03*
D10*
X303022000Y-74930000D03*
G36*
G01*
X282984263Y-65698184D02*
X283023711Y-66276840D01*
G75*
G02*
X281814212Y-67663315I-1297987J-88488D01*
G01*
X281814212Y-67663315D01*
G75*
G02*
X280427737Y-66453816I-88488J1297987D01*
G01*
X280388289Y-65875160D01*
G75*
G02*
X281597788Y-64488685I1297987J88488D01*
G01*
X281597788Y-64488685D01*
G75*
G02*
X282984263Y-65698184I88488J-1297987D01*
G01*
G37*
G36*
G01*
X287973790Y-65698158D02*
X289182714Y-67595788D01*
G75*
G02*
X288784489Y-69392067I-1097252J-699027D01*
G01*
X288784489Y-69392067D01*
G75*
G02*
X286988210Y-68993842I-699027J1097252D01*
G01*
X285779286Y-67096212D01*
G75*
G02*
X286177511Y-65299933I1097252J699027D01*
G01*
X286177511Y-65299933D01*
G75*
G02*
X287973790Y-65698158I699027J-1097252D01*
G01*
G37*
D13*
X278726000Y-70866000D03*
X289726000Y-70866000D03*
D12*
X284226000Y-64966000D03*
X279226000Y-67066000D03*
D11*
X279146000Y-70866000D03*
X289306000Y-70866000D03*
D10*
X284226000Y-70866000D03*
X265176000Y-67056000D03*
D11*
X270256000Y-67056000D03*
X260096000Y-67056000D03*
D12*
X260176000Y-63256000D03*
X265176000Y-61156000D03*
D13*
X270676000Y-67056000D03*
X259676000Y-67056000D03*
G36*
G01*
X268923790Y-61888158D02*
X270132714Y-63785788D01*
G75*
G02*
X269734489Y-65582067I-1097252J-699027D01*
G01*
X269734489Y-65582067D01*
G75*
G02*
X267938210Y-65183842I-699027J1097252D01*
G01*
X266729286Y-63286212D01*
G75*
G02*
X267127511Y-61489933I1097252J699027D01*
G01*
X267127511Y-61489933D01*
G75*
G02*
X268923790Y-61888158I699027J-1097252D01*
G01*
G37*
G36*
G01*
X263934263Y-61888184D02*
X263973711Y-62466840D01*
G75*
G02*
X262764212Y-63853315I-1297987J-88488D01*
G01*
X262764212Y-63853315D01*
G75*
G02*
X261377737Y-62643816I-88488J1297987D01*
G01*
X261338289Y-62065160D01*
G75*
G02*
X262547788Y-60678685I1297987J88488D01*
G01*
X262547788Y-60678685D01*
G75*
G02*
X263934263Y-61888184I88488J-1297987D01*
G01*
G37*
G36*
G01*
X244884263Y-57824184D02*
X244923711Y-58402840D01*
G75*
G02*
X243714212Y-59789315I-1297987J-88488D01*
G01*
X243714212Y-59789315D01*
G75*
G02*
X242327737Y-58579816I-88488J1297987D01*
G01*
X242288289Y-58001160D01*
G75*
G02*
X243497788Y-56614685I1297987J88488D01*
G01*
X243497788Y-56614685D01*
G75*
G02*
X244884263Y-57824184I88488J-1297987D01*
G01*
G37*
G36*
G01*
X249873790Y-57824158D02*
X251082714Y-59721788D01*
G75*
G02*
X250684489Y-61518067I-1097252J-699027D01*
G01*
X250684489Y-61518067D01*
G75*
G02*
X248888210Y-61119842I-699027J1097252D01*
G01*
X247679286Y-59222212D01*
G75*
G02*
X248077511Y-57425933I1097252J699027D01*
G01*
X248077511Y-57425933D01*
G75*
G02*
X249873790Y-57824158I699027J-1097252D01*
G01*
G37*
X240626000Y-62992000D03*
X251626000Y-62992000D03*
D12*
X246126000Y-57092000D03*
X241126000Y-59192000D03*
D11*
X241046000Y-62992000D03*
X251206000Y-62992000D03*
D10*
X246126000Y-62992000D03*
X227330000Y-66802000D03*
D11*
X232410000Y-66802000D03*
X222250000Y-66802000D03*
D12*
X222330000Y-63002000D03*
X227330000Y-60902000D03*
D13*
X232830000Y-66802000D03*
X221830000Y-66802000D03*
G36*
G01*
X231077790Y-61634158D02*
X232286714Y-63531788D01*
G75*
G02*
X231888489Y-65328067I-1097252J-699027D01*
G01*
X231888489Y-65328067D01*
G75*
G02*
X230092210Y-64929842I-699027J1097252D01*
G01*
X228883286Y-63032212D01*
G75*
G02*
X229281511Y-61235933I1097252J699027D01*
G01*
X229281511Y-61235933D01*
G75*
G02*
X231077790Y-61634158I699027J-1097252D01*
G01*
G37*
G36*
G01*
X226088263Y-61634184D02*
X226127711Y-62212840D01*
G75*
G02*
X224918212Y-63599315I-1297987J-88488D01*
G01*
X224918212Y-63599315D01*
G75*
G02*
X223531737Y-62389816I-88488J1297987D01*
G01*
X223492289Y-61811160D01*
G75*
G02*
X224701788Y-60424685I1297987J88488D01*
G01*
X224701788Y-60424685D01*
G75*
G02*
X226088263Y-61634184I88488J-1297987D01*
G01*
G37*
G36*
G01*
X207038263Y-65698184D02*
X207077711Y-66276840D01*
G75*
G02*
X205868212Y-67663315I-1297987J-88488D01*
G01*
X205868212Y-67663315D01*
G75*
G02*
X204481737Y-66453816I-88488J1297987D01*
G01*
X204442289Y-65875160D01*
G75*
G02*
X205651788Y-64488685I1297987J88488D01*
G01*
X205651788Y-64488685D01*
G75*
G02*
X207038263Y-65698184I88488J-1297987D01*
G01*
G37*
G36*
G01*
X212027790Y-65698158D02*
X213236714Y-67595788D01*
G75*
G02*
X212838489Y-69392067I-1097252J-699027D01*
G01*
X212838489Y-69392067D01*
G75*
G02*
X211042210Y-68993842I-699027J1097252D01*
G01*
X209833286Y-67096212D01*
G75*
G02*
X210231511Y-65299933I1097252J699027D01*
G01*
X210231511Y-65299933D01*
G75*
G02*
X212027790Y-65698158I699027J-1097252D01*
G01*
G37*
X202780000Y-70866000D03*
X213780000Y-70866000D03*
D12*
X208280000Y-64966000D03*
X203280000Y-67066000D03*
D11*
X203200000Y-70866000D03*
X213360000Y-70866000D03*
D10*
X208280000Y-70866000D03*
X114300000Y-70866000D03*
D11*
X119380000Y-70866000D03*
X109220000Y-70866000D03*
D12*
X109300000Y-67066000D03*
X114300000Y-64966000D03*
D13*
X119800000Y-70866000D03*
X108800000Y-70866000D03*
G36*
G01*
X118047790Y-65698158D02*
X119256714Y-67595788D01*
G75*
G02*
X118858489Y-69392067I-1097252J-699027D01*
G01*
X118858489Y-69392067D01*
G75*
G02*
X117062210Y-68993842I-699027J1097252D01*
G01*
X115853286Y-67096212D01*
G75*
G02*
X116251511Y-65299933I1097252J699027D01*
G01*
X116251511Y-65299933D01*
G75*
G02*
X118047790Y-65698158I699027J-1097252D01*
G01*
G37*
G36*
G01*
X113058263Y-65698184D02*
X113097711Y-66276840D01*
G75*
G02*
X111888212Y-67663315I-1297987J-88488D01*
G01*
X111888212Y-67663315D01*
G75*
G02*
X110501737Y-66453816I-88488J1297987D01*
G01*
X110462289Y-65875160D01*
G75*
G02*
X111671788Y-64488685I1297987J88488D01*
G01*
X111671788Y-64488685D01*
G75*
G02*
X113058263Y-65698184I88488J-1297987D01*
G01*
G37*
D10*
X95250000Y-66929000D03*
D11*
X100330000Y-66929000D03*
X90170000Y-66929000D03*
D12*
X90250000Y-63129000D03*
X95250000Y-61029000D03*
D13*
X100750000Y-66929000D03*
X89750000Y-66929000D03*
G36*
G01*
X98997790Y-61761158D02*
X100206714Y-63658788D01*
G75*
G02*
X99808489Y-65455067I-1097252J-699027D01*
G01*
X99808489Y-65455067D01*
G75*
G02*
X98012210Y-65056842I-699027J1097252D01*
G01*
X96803286Y-63159212D01*
G75*
G02*
X97201511Y-61362933I1097252J699027D01*
G01*
X97201511Y-61362933D01*
G75*
G02*
X98997790Y-61761158I699027J-1097252D01*
G01*
G37*
G36*
G01*
X94008263Y-61761184D02*
X94047711Y-62339840D01*
G75*
G02*
X92838212Y-63726315I-1297987J-88488D01*
G01*
X92838212Y-63726315D01*
G75*
G02*
X91451737Y-62516816I-88488J1297987D01*
G01*
X91412289Y-61938160D01*
G75*
G02*
X92621788Y-60551685I1297987J88488D01*
G01*
X92621788Y-60551685D01*
G75*
G02*
X94008263Y-61761184I88488J-1297987D01*
G01*
G37*
G36*
G01*
X74958263Y-57824184D02*
X74997711Y-58402840D01*
G75*
G02*
X73788212Y-59789315I-1297987J-88488D01*
G01*
X73788212Y-59789315D01*
G75*
G02*
X72401737Y-58579816I-88488J1297987D01*
G01*
X72362289Y-58001160D01*
G75*
G02*
X73571788Y-56614685I1297987J88488D01*
G01*
X73571788Y-56614685D01*
G75*
G02*
X74958263Y-57824184I88488J-1297987D01*
G01*
G37*
G36*
G01*
X79947790Y-57824158D02*
X81156714Y-59721788D01*
G75*
G02*
X80758489Y-61518067I-1097252J-699027D01*
G01*
X80758489Y-61518067D01*
G75*
G02*
X78962210Y-61119842I-699027J1097252D01*
G01*
X77753286Y-59222212D01*
G75*
G02*
X78151511Y-57425933I1097252J699027D01*
G01*
X78151511Y-57425933D01*
G75*
G02*
X79947790Y-57824158I699027J-1097252D01*
G01*
G37*
X70700000Y-62992000D03*
X81700000Y-62992000D03*
D12*
X76200000Y-57092000D03*
X71200000Y-59192000D03*
D11*
X71120000Y-62992000D03*
X81280000Y-62992000D03*
D10*
X76200000Y-62992000D03*
X303276000Y-93980000D03*
D11*
X308356000Y-93980000D03*
X298196000Y-93980000D03*
D12*
X298276000Y-90180000D03*
X303276000Y-88080000D03*
D13*
X308776000Y-93980000D03*
X297776000Y-93980000D03*
G36*
G01*
X307023790Y-88812158D02*
X308232714Y-90709788D01*
G75*
G02*
X307834489Y-92506067I-1097252J-699027D01*
G01*
X307834489Y-92506067D01*
G75*
G02*
X306038210Y-92107842I-699027J1097252D01*
G01*
X304829286Y-90210212D01*
G75*
G02*
X305227511Y-88413933I1097252J699027D01*
G01*
X305227511Y-88413933D01*
G75*
G02*
X307023790Y-88812158I699027J-1097252D01*
G01*
G37*
G36*
G01*
X302034263Y-88812184D02*
X302073711Y-89390840D01*
G75*
G02*
X300864212Y-90777315I-1297987J-88488D01*
G01*
X300864212Y-90777315D01*
G75*
G02*
X299477737Y-89567816I-88488J1297987D01*
G01*
X299438289Y-88989160D01*
G75*
G02*
X300647788Y-87602685I1297987J88488D01*
G01*
X300647788Y-87602685D01*
G75*
G02*
X302034263Y-88812184I88488J-1297987D01*
G01*
G37*
G36*
G01*
X282984263Y-84748184D02*
X283023711Y-85326840D01*
G75*
G02*
X281814212Y-86713315I-1297987J-88488D01*
G01*
X281814212Y-86713315D01*
G75*
G02*
X280427737Y-85503816I-88488J1297987D01*
G01*
X280388289Y-84925160D01*
G75*
G02*
X281597788Y-83538685I1297987J88488D01*
G01*
X281597788Y-83538685D01*
G75*
G02*
X282984263Y-84748184I88488J-1297987D01*
G01*
G37*
G36*
G01*
X287973790Y-84748158D02*
X289182714Y-86645788D01*
G75*
G02*
X288784489Y-88442067I-1097252J-699027D01*
G01*
X288784489Y-88442067D01*
G75*
G02*
X286988210Y-88043842I-699027J1097252D01*
G01*
X285779286Y-86146212D01*
G75*
G02*
X286177511Y-84349933I1097252J699027D01*
G01*
X286177511Y-84349933D01*
G75*
G02*
X287973790Y-84748158I699027J-1097252D01*
G01*
G37*
X278726000Y-89916000D03*
X289726000Y-89916000D03*
D12*
X284226000Y-84016000D03*
X279226000Y-86116000D03*
D11*
X279146000Y-89916000D03*
X289306000Y-89916000D03*
D10*
X284226000Y-89916000D03*
X265176000Y-86106000D03*
D11*
X270256000Y-86106000D03*
X260096000Y-86106000D03*
D12*
X260176000Y-82306000D03*
X265176000Y-80206000D03*
D13*
X270676000Y-86106000D03*
X259676000Y-86106000D03*
G36*
G01*
X268923790Y-80938158D02*
X270132714Y-82835788D01*
G75*
G02*
X269734489Y-84632067I-1097252J-699027D01*
G01*
X269734489Y-84632067D01*
G75*
G02*
X267938210Y-84233842I-699027J1097252D01*
G01*
X266729286Y-82336212D01*
G75*
G02*
X267127511Y-80539933I1097252J699027D01*
G01*
X267127511Y-80539933D01*
G75*
G02*
X268923790Y-80938158I699027J-1097252D01*
G01*
G37*
G36*
G01*
X263934263Y-80938184D02*
X263973711Y-81516840D01*
G75*
G02*
X262764212Y-82903315I-1297987J-88488D01*
G01*
X262764212Y-82903315D01*
G75*
G02*
X261377737Y-81693816I-88488J1297987D01*
G01*
X261338289Y-81115160D01*
G75*
G02*
X262547788Y-79728685I1297987J88488D01*
G01*
X262547788Y-79728685D01*
G75*
G02*
X263934263Y-80938184I88488J-1297987D01*
G01*
G37*
G36*
G01*
X244884263Y-76874184D02*
X244923711Y-77452840D01*
G75*
G02*
X243714212Y-78839315I-1297987J-88488D01*
G01*
X243714212Y-78839315D01*
G75*
G02*
X242327737Y-77629816I-88488J1297987D01*
G01*
X242288289Y-77051160D01*
G75*
G02*
X243497788Y-75664685I1297987J88488D01*
G01*
X243497788Y-75664685D01*
G75*
G02*
X244884263Y-76874184I88488J-1297987D01*
G01*
G37*
G36*
G01*
X249873790Y-76874158D02*
X251082714Y-78771788D01*
G75*
G02*
X250684489Y-80568067I-1097252J-699027D01*
G01*
X250684489Y-80568067D01*
G75*
G02*
X248888210Y-80169842I-699027J1097252D01*
G01*
X247679286Y-78272212D01*
G75*
G02*
X248077511Y-76475933I1097252J699027D01*
G01*
X248077511Y-76475933D01*
G75*
G02*
X249873790Y-76874158I699027J-1097252D01*
G01*
G37*
X240626000Y-82042000D03*
X251626000Y-82042000D03*
D12*
X246126000Y-76142000D03*
X241126000Y-78242000D03*
D11*
X241046000Y-82042000D03*
X251206000Y-82042000D03*
D10*
X246126000Y-82042000D03*
X227330000Y-85852000D03*
D11*
X232410000Y-85852000D03*
X222250000Y-85852000D03*
D12*
X222330000Y-82052000D03*
X227330000Y-79952000D03*
D13*
X232830000Y-85852000D03*
X221830000Y-85852000D03*
G36*
G01*
X231077790Y-80684158D02*
X232286714Y-82581788D01*
G75*
G02*
X231888489Y-84378067I-1097252J-699027D01*
G01*
X231888489Y-84378067D01*
G75*
G02*
X230092210Y-83979842I-699027J1097252D01*
G01*
X228883286Y-82082212D01*
G75*
G02*
X229281511Y-80285933I1097252J699027D01*
G01*
X229281511Y-80285933D01*
G75*
G02*
X231077790Y-80684158I699027J-1097252D01*
G01*
G37*
G36*
G01*
X226088263Y-80684184D02*
X226127711Y-81262840D01*
G75*
G02*
X224918212Y-82649315I-1297987J-88488D01*
G01*
X224918212Y-82649315D01*
G75*
G02*
X223531737Y-81439816I-88488J1297987D01*
G01*
X223492289Y-80861160D01*
G75*
G02*
X224701788Y-79474685I1297987J88488D01*
G01*
X224701788Y-79474685D01*
G75*
G02*
X226088263Y-80684184I88488J-1297987D01*
G01*
G37*
G36*
G01*
X207038263Y-84748184D02*
X207077711Y-85326840D01*
G75*
G02*
X205868212Y-86713315I-1297987J-88488D01*
G01*
X205868212Y-86713315D01*
G75*
G02*
X204481737Y-85503816I-88488J1297987D01*
G01*
X204442289Y-84925160D01*
G75*
G02*
X205651788Y-83538685I1297987J88488D01*
G01*
X205651788Y-83538685D01*
G75*
G02*
X207038263Y-84748184I88488J-1297987D01*
G01*
G37*
G36*
G01*
X212027790Y-84748158D02*
X213236714Y-86645788D01*
G75*
G02*
X212838489Y-88442067I-1097252J-699027D01*
G01*
X212838489Y-88442067D01*
G75*
G02*
X211042210Y-88043842I-699027J1097252D01*
G01*
X209833286Y-86146212D01*
G75*
G02*
X210231511Y-84349933I1097252J699027D01*
G01*
X210231511Y-84349933D01*
G75*
G02*
X212027790Y-84748158I699027J-1097252D01*
G01*
G37*
X202780000Y-89916000D03*
X213780000Y-89916000D03*
D12*
X208280000Y-84016000D03*
X203280000Y-86116000D03*
D11*
X203200000Y-89916000D03*
X213360000Y-89916000D03*
D10*
X208280000Y-89916000D03*
X114300000Y-89916000D03*
D11*
X119380000Y-89916000D03*
X109220000Y-89916000D03*
D12*
X109300000Y-86116000D03*
X114300000Y-84016000D03*
D13*
X119800000Y-89916000D03*
X108800000Y-89916000D03*
G36*
G01*
X118047790Y-84748158D02*
X119256714Y-86645788D01*
G75*
G02*
X118858489Y-88442067I-1097252J-699027D01*
G01*
X118858489Y-88442067D01*
G75*
G02*
X117062210Y-88043842I-699027J1097252D01*
G01*
X115853286Y-86146212D01*
G75*
G02*
X116251511Y-84349933I1097252J699027D01*
G01*
X116251511Y-84349933D01*
G75*
G02*
X118047790Y-84748158I699027J-1097252D01*
G01*
G37*
G36*
G01*
X113058263Y-84748184D02*
X113097711Y-85326840D01*
G75*
G02*
X111888212Y-86713315I-1297987J-88488D01*
G01*
X111888212Y-86713315D01*
G75*
G02*
X110501737Y-85503816I-88488J1297987D01*
G01*
X110462289Y-84925160D01*
G75*
G02*
X111671788Y-83538685I1297987J88488D01*
G01*
X111671788Y-83538685D01*
G75*
G02*
X113058263Y-84748184I88488J-1297987D01*
G01*
G37*
G36*
G01*
X93881263Y-80684184D02*
X93920711Y-81262840D01*
G75*
G02*
X92711212Y-82649315I-1297987J-88488D01*
G01*
X92711212Y-82649315D01*
G75*
G02*
X91324737Y-81439816I-88488J1297987D01*
G01*
X91285289Y-80861160D01*
G75*
G02*
X92494788Y-79474685I1297987J88488D01*
G01*
X92494788Y-79474685D01*
G75*
G02*
X93881263Y-80684184I88488J-1297987D01*
G01*
G37*
G36*
G01*
X98870790Y-80684158D02*
X100079714Y-82581788D01*
G75*
G02*
X99681489Y-84378067I-1097252J-699027D01*
G01*
X99681489Y-84378067D01*
G75*
G02*
X97885210Y-83979842I-699027J1097252D01*
G01*
X96676286Y-82082212D01*
G75*
G02*
X97074511Y-80285933I1097252J699027D01*
G01*
X97074511Y-80285933D01*
G75*
G02*
X98870790Y-80684158I699027J-1097252D01*
G01*
G37*
X89623000Y-85852000D03*
X100623000Y-85852000D03*
D12*
X95123000Y-79952000D03*
X90123000Y-82052000D03*
D11*
X90043000Y-85852000D03*
X100203000Y-85852000D03*
D10*
X95123000Y-85852000D03*
X76200000Y-81788000D03*
D11*
X81280000Y-81788000D03*
X71120000Y-81788000D03*
D12*
X71200000Y-77988000D03*
X76200000Y-75888000D03*
D13*
X81700000Y-81788000D03*
X70700000Y-81788000D03*
G36*
G01*
X79947790Y-76620158D02*
X81156714Y-78517788D01*
G75*
G02*
X80758489Y-80314067I-1097252J-699027D01*
G01*
X80758489Y-80314067D01*
G75*
G02*
X78962210Y-79915842I-699027J1097252D01*
G01*
X77753286Y-78018212D01*
G75*
G02*
X78151511Y-76221933I1097252J699027D01*
G01*
X78151511Y-76221933D01*
G75*
G02*
X79947790Y-76620158I699027J-1097252D01*
G01*
G37*
G36*
G01*
X74958263Y-76620184D02*
X74997711Y-77198840D01*
G75*
G02*
X73788212Y-78585315I-1297987J-88488D01*
G01*
X73788212Y-78585315D01*
G75*
G02*
X72401737Y-77375816I-88488J1297987D01*
G01*
X72362289Y-76797160D01*
G75*
G02*
X73571788Y-75410685I1297987J88488D01*
G01*
X73571788Y-75410685D01*
G75*
G02*
X74958263Y-76620184I88488J-1297987D01*
G01*
G37*
G36*
G01*
X55908263Y-80684184D02*
X55947711Y-81262840D01*
G75*
G02*
X54738212Y-82649315I-1297987J-88488D01*
G01*
X54738212Y-82649315D01*
G75*
G02*
X53351737Y-81439816I-88488J1297987D01*
G01*
X53312289Y-80861160D01*
G75*
G02*
X54521788Y-79474685I1297987J88488D01*
G01*
X54521788Y-79474685D01*
G75*
G02*
X55908263Y-80684184I88488J-1297987D01*
G01*
G37*
G36*
G01*
X60897790Y-80684158D02*
X62106714Y-82581788D01*
G75*
G02*
X61708489Y-84378067I-1097252J-699027D01*
G01*
X61708489Y-84378067D01*
G75*
G02*
X59912210Y-83979842I-699027J1097252D01*
G01*
X58703286Y-82082212D01*
G75*
G02*
X59101511Y-80285933I1097252J699027D01*
G01*
X59101511Y-80285933D01*
G75*
G02*
X60897790Y-80684158I699027J-1097252D01*
G01*
G37*
X51650000Y-85852000D03*
X62650000Y-85852000D03*
D12*
X57150000Y-79952000D03*
X52150000Y-82052000D03*
D11*
X52070000Y-85852000D03*
X62230000Y-85852000D03*
D10*
X57150000Y-85852000D03*
X303276000Y-113030000D03*
D11*
X308356000Y-113030000D03*
X298196000Y-113030000D03*
D12*
X298276000Y-109230000D03*
X303276000Y-107130000D03*
D13*
X308776000Y-113030000D03*
X297776000Y-113030000D03*
G36*
G01*
X307023790Y-107862158D02*
X308232714Y-109759788D01*
G75*
G02*
X307834489Y-111556067I-1097252J-699027D01*
G01*
X307834489Y-111556067D01*
G75*
G02*
X306038210Y-111157842I-699027J1097252D01*
G01*
X304829286Y-109260212D01*
G75*
G02*
X305227511Y-107463933I1097252J699027D01*
G01*
X305227511Y-107463933D01*
G75*
G02*
X307023790Y-107862158I699027J-1097252D01*
G01*
G37*
G36*
G01*
X302034263Y-107862184D02*
X302073711Y-108440840D01*
G75*
G02*
X300864212Y-109827315I-1297987J-88488D01*
G01*
X300864212Y-109827315D01*
G75*
G02*
X299477737Y-108617816I-88488J1297987D01*
G01*
X299438289Y-108039160D01*
G75*
G02*
X300647788Y-106652685I1297987J88488D01*
G01*
X300647788Y-106652685D01*
G75*
G02*
X302034263Y-107862184I88488J-1297987D01*
G01*
G37*
G36*
G01*
X282984263Y-103798184D02*
X283023711Y-104376840D01*
G75*
G02*
X281814212Y-105763315I-1297987J-88488D01*
G01*
X281814212Y-105763315D01*
G75*
G02*
X280427737Y-104553816I-88488J1297987D01*
G01*
X280388289Y-103975160D01*
G75*
G02*
X281597788Y-102588685I1297987J88488D01*
G01*
X281597788Y-102588685D01*
G75*
G02*
X282984263Y-103798184I88488J-1297987D01*
G01*
G37*
G36*
G01*
X287973790Y-103798158D02*
X289182714Y-105695788D01*
G75*
G02*
X288784489Y-107492067I-1097252J-699027D01*
G01*
X288784489Y-107492067D01*
G75*
G02*
X286988210Y-107093842I-699027J1097252D01*
G01*
X285779286Y-105196212D01*
G75*
G02*
X286177511Y-103399933I1097252J699027D01*
G01*
X286177511Y-103399933D01*
G75*
G02*
X287973790Y-103798158I699027J-1097252D01*
G01*
G37*
X278726000Y-108966000D03*
X289726000Y-108966000D03*
D12*
X284226000Y-103066000D03*
X279226000Y-105166000D03*
D11*
X279146000Y-108966000D03*
X289306000Y-108966000D03*
D10*
X284226000Y-108966000D03*
X265176000Y-105156000D03*
D11*
X270256000Y-105156000D03*
X260096000Y-105156000D03*
D12*
X260176000Y-101356000D03*
X265176000Y-99256000D03*
D13*
X270676000Y-105156000D03*
X259676000Y-105156000D03*
G36*
G01*
X268923790Y-99988158D02*
X270132714Y-101885788D01*
G75*
G02*
X269734489Y-103682067I-1097252J-699027D01*
G01*
X269734489Y-103682067D01*
G75*
G02*
X267938210Y-103283842I-699027J1097252D01*
G01*
X266729286Y-101386212D01*
G75*
G02*
X267127511Y-99589933I1097252J699027D01*
G01*
X267127511Y-99589933D01*
G75*
G02*
X268923790Y-99988158I699027J-1097252D01*
G01*
G37*
G36*
G01*
X263934263Y-99988184D02*
X263973711Y-100566840D01*
G75*
G02*
X262764212Y-101953315I-1297987J-88488D01*
G01*
X262764212Y-101953315D01*
G75*
G02*
X261377737Y-100743816I-88488J1297987D01*
G01*
X261338289Y-100165160D01*
G75*
G02*
X262547788Y-98778685I1297987J88488D01*
G01*
X262547788Y-98778685D01*
G75*
G02*
X263934263Y-99988184I88488J-1297987D01*
G01*
G37*
G36*
G01*
X244884263Y-95670184D02*
X244923711Y-96248840D01*
G75*
G02*
X243714212Y-97635315I-1297987J-88488D01*
G01*
X243714212Y-97635315D01*
G75*
G02*
X242327737Y-96425816I-88488J1297987D01*
G01*
X242288289Y-95847160D01*
G75*
G02*
X243497788Y-94460685I1297987J88488D01*
G01*
X243497788Y-94460685D01*
G75*
G02*
X244884263Y-95670184I88488J-1297987D01*
G01*
G37*
G36*
G01*
X249873790Y-95670158D02*
X251082714Y-97567788D01*
G75*
G02*
X250684489Y-99364067I-1097252J-699027D01*
G01*
X250684489Y-99364067D01*
G75*
G02*
X248888210Y-98965842I-699027J1097252D01*
G01*
X247679286Y-97068212D01*
G75*
G02*
X248077511Y-95271933I1097252J699027D01*
G01*
X248077511Y-95271933D01*
G75*
G02*
X249873790Y-95670158I699027J-1097252D01*
G01*
G37*
X240626000Y-100838000D03*
X251626000Y-100838000D03*
D12*
X246126000Y-94938000D03*
X241126000Y-97038000D03*
D11*
X241046000Y-100838000D03*
X251206000Y-100838000D03*
D10*
X246126000Y-100838000D03*
X227330000Y-104902000D03*
D11*
X232410000Y-104902000D03*
X222250000Y-104902000D03*
D12*
X222330000Y-101102000D03*
X227330000Y-99002000D03*
D13*
X232830000Y-104902000D03*
X221830000Y-104902000D03*
G36*
G01*
X231077790Y-99734158D02*
X232286714Y-101631788D01*
G75*
G02*
X231888489Y-103428067I-1097252J-699027D01*
G01*
X231888489Y-103428067D01*
G75*
G02*
X230092210Y-103029842I-699027J1097252D01*
G01*
X228883286Y-101132212D01*
G75*
G02*
X229281511Y-99335933I1097252J699027D01*
G01*
X229281511Y-99335933D01*
G75*
G02*
X231077790Y-99734158I699027J-1097252D01*
G01*
G37*
G36*
G01*
X226088263Y-99734184D02*
X226127711Y-100312840D01*
G75*
G02*
X224918212Y-101699315I-1297987J-88488D01*
G01*
X224918212Y-101699315D01*
G75*
G02*
X223531737Y-100489816I-88488J1297987D01*
G01*
X223492289Y-99911160D01*
G75*
G02*
X224701788Y-98524685I1297987J88488D01*
G01*
X224701788Y-98524685D01*
G75*
G02*
X226088263Y-99734184I88488J-1297987D01*
G01*
G37*
G36*
G01*
X207038263Y-103798184D02*
X207077711Y-104376840D01*
G75*
G02*
X205868212Y-105763315I-1297987J-88488D01*
G01*
X205868212Y-105763315D01*
G75*
G02*
X204481737Y-104553816I-88488J1297987D01*
G01*
X204442289Y-103975160D01*
G75*
G02*
X205651788Y-102588685I1297987J88488D01*
G01*
X205651788Y-102588685D01*
G75*
G02*
X207038263Y-103798184I88488J-1297987D01*
G01*
G37*
G36*
G01*
X212027790Y-103798158D02*
X213236714Y-105695788D01*
G75*
G02*
X212838489Y-107492067I-1097252J-699027D01*
G01*
X212838489Y-107492067D01*
G75*
G02*
X211042210Y-107093842I-699027J1097252D01*
G01*
X209833286Y-105196212D01*
G75*
G02*
X210231511Y-103399933I1097252J699027D01*
G01*
X210231511Y-103399933D01*
G75*
G02*
X212027790Y-103798158I699027J-1097252D01*
G01*
G37*
X202780000Y-108966000D03*
X213780000Y-108966000D03*
D12*
X208280000Y-103066000D03*
X203280000Y-105166000D03*
D11*
X203200000Y-108966000D03*
X213360000Y-108966000D03*
D10*
X208280000Y-108966000D03*
G36*
G01*
X113058263Y-103798184D02*
X113097711Y-104376840D01*
G75*
G02*
X111888212Y-105763315I-1297987J-88488D01*
G01*
X111888212Y-105763315D01*
G75*
G02*
X110501737Y-104553816I-88488J1297987D01*
G01*
X110462289Y-103975160D01*
G75*
G02*
X111671788Y-102588685I1297987J88488D01*
G01*
X111671788Y-102588685D01*
G75*
G02*
X113058263Y-103798184I88488J-1297987D01*
G01*
G37*
G36*
G01*
X118047790Y-103798158D02*
X119256714Y-105695788D01*
G75*
G02*
X118858489Y-107492067I-1097252J-699027D01*
G01*
X118858489Y-107492067D01*
G75*
G02*
X117062210Y-107093842I-699027J1097252D01*
G01*
X115853286Y-105196212D01*
G75*
G02*
X116251511Y-103399933I1097252J699027D01*
G01*
X116251511Y-103399933D01*
G75*
G02*
X118047790Y-103798158I699027J-1097252D01*
G01*
G37*
D13*
X108800000Y-108966000D03*
X119800000Y-108966000D03*
D12*
X114300000Y-103066000D03*
X109300000Y-105166000D03*
D11*
X109220000Y-108966000D03*
X119380000Y-108966000D03*
D10*
X114300000Y-108966000D03*
G36*
G01*
X94008263Y-99734184D02*
X94047711Y-100312840D01*
G75*
G02*
X92838212Y-101699315I-1297987J-88488D01*
G01*
X92838212Y-101699315D01*
G75*
G02*
X91451737Y-100489816I-88488J1297987D01*
G01*
X91412289Y-99911160D01*
G75*
G02*
X92621788Y-98524685I1297987J88488D01*
G01*
X92621788Y-98524685D01*
G75*
G02*
X94008263Y-99734184I88488J-1297987D01*
G01*
G37*
G36*
G01*
X98997790Y-99734158D02*
X100206714Y-101631788D01*
G75*
G02*
X99808489Y-103428067I-1097252J-699027D01*
G01*
X99808489Y-103428067D01*
G75*
G02*
X98012210Y-103029842I-699027J1097252D01*
G01*
X96803286Y-101132212D01*
G75*
G02*
X97201511Y-99335933I1097252J699027D01*
G01*
X97201511Y-99335933D01*
G75*
G02*
X98997790Y-99734158I699027J-1097252D01*
G01*
G37*
D13*
X89750000Y-104902000D03*
X100750000Y-104902000D03*
D12*
X95250000Y-99002000D03*
X90250000Y-101102000D03*
D11*
X90170000Y-104902000D03*
X100330000Y-104902000D03*
D10*
X95250000Y-104902000D03*
G36*
G01*
X74958263Y-95670184D02*
X74997711Y-96248840D01*
G75*
G02*
X73788212Y-97635315I-1297987J-88488D01*
G01*
X73788212Y-97635315D01*
G75*
G02*
X72401737Y-96425816I-88488J1297987D01*
G01*
X72362289Y-95847160D01*
G75*
G02*
X73571788Y-94460685I1297987J88488D01*
G01*
X73571788Y-94460685D01*
G75*
G02*
X74958263Y-95670184I88488J-1297987D01*
G01*
G37*
G36*
G01*
X79947790Y-95670158D02*
X81156714Y-97567788D01*
G75*
G02*
X80758489Y-99364067I-1097252J-699027D01*
G01*
X80758489Y-99364067D01*
G75*
G02*
X78962210Y-98965842I-699027J1097252D01*
G01*
X77753286Y-97068212D01*
G75*
G02*
X78151511Y-95271933I1097252J699027D01*
G01*
X78151511Y-95271933D01*
G75*
G02*
X79947790Y-95670158I699027J-1097252D01*
G01*
G37*
D13*
X70700000Y-100838000D03*
X81700000Y-100838000D03*
D12*
X76200000Y-94938000D03*
X71200000Y-97038000D03*
D11*
X71120000Y-100838000D03*
X81280000Y-100838000D03*
D10*
X76200000Y-100838000D03*
X57150000Y-104902000D03*
D11*
X62230000Y-104902000D03*
X52070000Y-104902000D03*
D12*
X52150000Y-101102000D03*
X57150000Y-99002000D03*
D13*
X62650000Y-104902000D03*
X51650000Y-104902000D03*
G36*
G01*
X60897790Y-99734158D02*
X62106714Y-101631788D01*
G75*
G02*
X61708489Y-103428067I-1097252J-699027D01*
G01*
X61708489Y-103428067D01*
G75*
G02*
X59912210Y-103029842I-699027J1097252D01*
G01*
X58703286Y-101132212D01*
G75*
G02*
X59101511Y-99335933I1097252J699027D01*
G01*
X59101511Y-99335933D01*
G75*
G02*
X60897790Y-99734158I699027J-1097252D01*
G01*
G37*
G36*
G01*
X55908263Y-99734184D02*
X55947711Y-100312840D01*
G75*
G02*
X54738212Y-101699315I-1297987J-88488D01*
G01*
X54738212Y-101699315D01*
G75*
G02*
X53351737Y-100489816I-88488J1297987D01*
G01*
X53312289Y-99911160D01*
G75*
G02*
X54521788Y-98524685I1297987J88488D01*
G01*
X54521788Y-98524685D01*
G75*
G02*
X55908263Y-99734184I88488J-1297987D01*
G01*
G37*
D10*
X227330000Y-123952000D03*
D11*
X232410000Y-123952000D03*
X222250000Y-123952000D03*
D12*
X222330000Y-120152000D03*
X227330000Y-118052000D03*
D13*
X232830000Y-123952000D03*
X221830000Y-123952000D03*
G36*
G01*
X231077790Y-118784158D02*
X232286714Y-120681788D01*
G75*
G02*
X231888489Y-122478067I-1097252J-699027D01*
G01*
X231888489Y-122478067D01*
G75*
G02*
X230092210Y-122079842I-699027J1097252D01*
G01*
X228883286Y-120182212D01*
G75*
G02*
X229281511Y-118385933I1097252J699027D01*
G01*
X229281511Y-118385933D01*
G75*
G02*
X231077790Y-118784158I699027J-1097252D01*
G01*
G37*
G36*
G01*
X226088263Y-118784184D02*
X226127711Y-119362840D01*
G75*
G02*
X224918212Y-120749315I-1297987J-88488D01*
G01*
X224918212Y-120749315D01*
G75*
G02*
X223531737Y-119539816I-88488J1297987D01*
G01*
X223492289Y-118961160D01*
G75*
G02*
X224701788Y-117574685I1297987J88488D01*
G01*
X224701788Y-117574685D01*
G75*
G02*
X226088263Y-118784184I88488J-1297987D01*
G01*
G37*
G36*
G01*
X207038263Y-122848184D02*
X207077711Y-123426840D01*
G75*
G02*
X205868212Y-124813315I-1297987J-88488D01*
G01*
X205868212Y-124813315D01*
G75*
G02*
X204481737Y-123603816I-88488J1297987D01*
G01*
X204442289Y-123025160D01*
G75*
G02*
X205651788Y-121638685I1297987J88488D01*
G01*
X205651788Y-121638685D01*
G75*
G02*
X207038263Y-122848184I88488J-1297987D01*
G01*
G37*
G36*
G01*
X212027790Y-122848158D02*
X213236714Y-124745788D01*
G75*
G02*
X212838489Y-126542067I-1097252J-699027D01*
G01*
X212838489Y-126542067D01*
G75*
G02*
X211042210Y-126143842I-699027J1097252D01*
G01*
X209833286Y-124246212D01*
G75*
G02*
X210231511Y-122449933I1097252J699027D01*
G01*
X210231511Y-122449933D01*
G75*
G02*
X212027790Y-122848158I699027J-1097252D01*
G01*
G37*
X202780000Y-128016000D03*
X213780000Y-128016000D03*
D12*
X208280000Y-122116000D03*
X203280000Y-124216000D03*
D11*
X203200000Y-128016000D03*
X213360000Y-128016000D03*
D10*
X208280000Y-128016000D03*
X193040000Y-146812000D03*
D11*
X198120000Y-146812000D03*
X187960000Y-146812000D03*
D12*
X188040000Y-143012000D03*
X193040000Y-140912000D03*
D13*
X198540000Y-146812000D03*
X187540000Y-146812000D03*
G36*
G01*
X196787790Y-141644158D02*
X197996714Y-143541788D01*
G75*
G02*
X197598489Y-145338067I-1097252J-699027D01*
G01*
X197598489Y-145338067D01*
G75*
G02*
X195802210Y-144939842I-699027J1097252D01*
G01*
X194593286Y-143042212D01*
G75*
G02*
X194991511Y-141245933I1097252J699027D01*
G01*
X194991511Y-141245933D01*
G75*
G02*
X196787790Y-141644158I699027J-1097252D01*
G01*
G37*
G36*
G01*
X191798263Y-141644184D02*
X191837711Y-142222840D01*
G75*
G02*
X190628212Y-143609315I-1297987J-88488D01*
G01*
X190628212Y-143609315D01*
G75*
G02*
X189241737Y-142399816I-88488J1297987D01*
G01*
X189202289Y-141821160D01*
G75*
G02*
X190411788Y-140434685I1297987J88488D01*
G01*
X190411788Y-140434685D01*
G75*
G02*
X191798263Y-141644184I88488J-1297987D01*
G01*
G37*
G36*
G01*
X128044263Y-141898184D02*
X128083711Y-142476840D01*
G75*
G02*
X126874212Y-143863315I-1297987J-88488D01*
G01*
X126874212Y-143863315D01*
G75*
G02*
X125487737Y-142653816I-88488J1297987D01*
G01*
X125448289Y-142075160D01*
G75*
G02*
X126657788Y-140688685I1297987J88488D01*
G01*
X126657788Y-140688685D01*
G75*
G02*
X128044263Y-141898184I88488J-1297987D01*
G01*
G37*
G36*
G01*
X133033790Y-141898158D02*
X134242714Y-143795788D01*
G75*
G02*
X133844489Y-145592067I-1097252J-699027D01*
G01*
X133844489Y-145592067D01*
G75*
G02*
X132048210Y-145193842I-699027J1097252D01*
G01*
X130839286Y-143296212D01*
G75*
G02*
X131237511Y-141499933I1097252J699027D01*
G01*
X131237511Y-141499933D01*
G75*
G02*
X133033790Y-141898158I699027J-1097252D01*
G01*
G37*
X123786000Y-147066000D03*
X134786000Y-147066000D03*
D12*
X129286000Y-141166000D03*
X124286000Y-143266000D03*
D11*
X124206000Y-147066000D03*
X134366000Y-147066000D03*
D10*
X129286000Y-147066000D03*
G36*
G01*
X113058263Y-122848184D02*
X113097711Y-123426840D01*
G75*
G02*
X111888212Y-124813315I-1297987J-88488D01*
G01*
X111888212Y-124813315D01*
G75*
G02*
X110501737Y-123603816I-88488J1297987D01*
G01*
X110462289Y-123025160D01*
G75*
G02*
X111671788Y-121638685I1297987J88488D01*
G01*
X111671788Y-121638685D01*
G75*
G02*
X113058263Y-122848184I88488J-1297987D01*
G01*
G37*
G36*
G01*
X118047790Y-122848158D02*
X119256714Y-124745788D01*
G75*
G02*
X118858489Y-126542067I-1097252J-699027D01*
G01*
X118858489Y-126542067D01*
G75*
G02*
X117062210Y-126143842I-699027J1097252D01*
G01*
X115853286Y-124246212D01*
G75*
G02*
X116251511Y-122449933I1097252J699027D01*
G01*
X116251511Y-122449933D01*
G75*
G02*
X118047790Y-122848158I699027J-1097252D01*
G01*
G37*
D13*
X108800000Y-128016000D03*
X119800000Y-128016000D03*
D12*
X114300000Y-122116000D03*
X109300000Y-124216000D03*
D11*
X109220000Y-128016000D03*
X119380000Y-128016000D03*
D10*
X114300000Y-128016000D03*
G36*
G01*
X93881263Y-118784184D02*
X93920711Y-119362840D01*
G75*
G02*
X92711212Y-120749315I-1297987J-88488D01*
G01*
X92711212Y-120749315D01*
G75*
G02*
X91324737Y-119539816I-88488J1297987D01*
G01*
X91285289Y-118961160D01*
G75*
G02*
X92494788Y-117574685I1297987J88488D01*
G01*
X92494788Y-117574685D01*
G75*
G02*
X93881263Y-118784184I88488J-1297987D01*
G01*
G37*
G36*
G01*
X98870790Y-118784158D02*
X100079714Y-120681788D01*
G75*
G02*
X99681489Y-122478067I-1097252J-699027D01*
G01*
X99681489Y-122478067D01*
G75*
G02*
X97885210Y-122079842I-699027J1097252D01*
G01*
X96676286Y-120182212D01*
G75*
G02*
X97074511Y-118385933I1097252J699027D01*
G01*
X97074511Y-118385933D01*
G75*
G02*
X98870790Y-118784158I699027J-1097252D01*
G01*
G37*
D13*
X89623000Y-123952000D03*
X100623000Y-123952000D03*
D12*
X95123000Y-118052000D03*
X90123000Y-120152000D03*
D11*
X90043000Y-123952000D03*
X100203000Y-123952000D03*
D10*
X95123000Y-123952000D03*
G36*
G01*
X36858263Y-65698184D02*
X36897711Y-66276840D01*
G75*
G02*
X35688212Y-67663315I-1297987J-88488D01*
G01*
X35688212Y-67663315D01*
G75*
G02*
X34301737Y-66453816I-88488J1297987D01*
G01*
X34262289Y-65875160D01*
G75*
G02*
X35471788Y-64488685I1297987J88488D01*
G01*
X35471788Y-64488685D01*
G75*
G02*
X36858263Y-65698184I88488J-1297987D01*
G01*
G37*
G36*
G01*
X41847790Y-65698158D02*
X43056714Y-67595788D01*
G75*
G02*
X42658489Y-69392067I-1097252J-699027D01*
G01*
X42658489Y-69392067D01*
G75*
G02*
X40862210Y-68993842I-699027J1097252D01*
G01*
X39653286Y-67096212D01*
G75*
G02*
X40051511Y-65299933I1097252J699027D01*
G01*
X40051511Y-65299933D01*
G75*
G02*
X41847790Y-65698158I699027J-1097252D01*
G01*
G37*
D13*
X32600000Y-70866000D03*
X43600000Y-70866000D03*
D12*
X38100000Y-64966000D03*
X33100000Y-67066000D03*
D11*
X33020000Y-70866000D03*
X43180000Y-70866000D03*
D10*
X38100000Y-70866000D03*
X19304000Y-74930000D03*
D11*
X24384000Y-74930000D03*
X14224000Y-74930000D03*
D12*
X14304000Y-71130000D03*
X19304000Y-69030000D03*
D13*
X24804000Y-74930000D03*
X13804000Y-74930000D03*
G36*
G01*
X23051790Y-69762158D02*
X24260714Y-71659788D01*
G75*
G02*
X23862489Y-73456067I-1097252J-699027D01*
G01*
X23862489Y-73456067D01*
G75*
G02*
X22066210Y-73057842I-699027J1097252D01*
G01*
X20857286Y-71160212D01*
G75*
G02*
X21255511Y-69363933I1097252J699027D01*
G01*
X21255511Y-69363933D01*
G75*
G02*
X23051790Y-69762158I699027J-1097252D01*
G01*
G37*
G36*
G01*
X18062263Y-69762184D02*
X18101711Y-70340840D01*
G75*
G02*
X16892212Y-71727315I-1297987J-88488D01*
G01*
X16892212Y-71727315D01*
G75*
G02*
X15505737Y-70517816I-88488J1297987D01*
G01*
X15466289Y-69939160D01*
G75*
G02*
X16675788Y-68552685I1297987J88488D01*
G01*
X16675788Y-68552685D01*
G75*
G02*
X18062263Y-69762184I88488J-1297987D01*
G01*
G37*
D10*
X38100000Y-89916000D03*
D11*
X43180000Y-89916000D03*
X33020000Y-89916000D03*
D12*
X33100000Y-86116000D03*
X38100000Y-84016000D03*
D13*
X43600000Y-89916000D03*
X32600000Y-89916000D03*
G36*
G01*
X41847790Y-84748158D02*
X43056714Y-86645788D01*
G75*
G02*
X42658489Y-88442067I-1097252J-699027D01*
G01*
X42658489Y-88442067D01*
G75*
G02*
X40862210Y-88043842I-699027J1097252D01*
G01*
X39653286Y-86146212D01*
G75*
G02*
X40051511Y-84349933I1097252J699027D01*
G01*
X40051511Y-84349933D01*
G75*
G02*
X41847790Y-84748158I699027J-1097252D01*
G01*
G37*
G36*
G01*
X36858263Y-84748184D02*
X36897711Y-85326840D01*
G75*
G02*
X35688212Y-86713315I-1297987J-88488D01*
G01*
X35688212Y-86713315D01*
G75*
G02*
X34301737Y-85503816I-88488J1297987D01*
G01*
X34262289Y-84925160D01*
G75*
G02*
X35471788Y-83538685I1297987J88488D01*
G01*
X35471788Y-83538685D01*
G75*
G02*
X36858263Y-84748184I88488J-1297987D01*
G01*
G37*
D10*
X19304000Y-93980000D03*
D11*
X24384000Y-93980000D03*
X14224000Y-93980000D03*
D12*
X14304000Y-90180000D03*
X19304000Y-88080000D03*
D13*
X24804000Y-93980000D03*
X13804000Y-93980000D03*
G36*
G01*
X23051790Y-88812158D02*
X24260714Y-90709788D01*
G75*
G02*
X23862489Y-92506067I-1097252J-699027D01*
G01*
X23862489Y-92506067D01*
G75*
G02*
X22066210Y-92107842I-699027J1097252D01*
G01*
X20857286Y-90210212D01*
G75*
G02*
X21255511Y-88413933I1097252J699027D01*
G01*
X21255511Y-88413933D01*
G75*
G02*
X23051790Y-88812158I699027J-1097252D01*
G01*
G37*
G36*
G01*
X18062263Y-88812184D02*
X18101711Y-89390840D01*
G75*
G02*
X16892212Y-90777315I-1297987J-88488D01*
G01*
X16892212Y-90777315D01*
G75*
G02*
X15505737Y-89567816I-88488J1297987D01*
G01*
X15466289Y-88989160D01*
G75*
G02*
X16675788Y-87602685I1297987J88488D01*
G01*
X16675788Y-87602685D01*
G75*
G02*
X18062263Y-88812184I88488J-1297987D01*
G01*
G37*
D10*
X38100000Y-108966000D03*
D11*
X43180000Y-108966000D03*
X33020000Y-108966000D03*
D12*
X33100000Y-105166000D03*
X38100000Y-103066000D03*
D13*
X43600000Y-108966000D03*
X32600000Y-108966000D03*
G36*
G01*
X41847790Y-103798158D02*
X43056714Y-105695788D01*
G75*
G02*
X42658489Y-107492067I-1097252J-699027D01*
G01*
X42658489Y-107492067D01*
G75*
G02*
X40862210Y-107093842I-699027J1097252D01*
G01*
X39653286Y-105196212D01*
G75*
G02*
X40051511Y-103399933I1097252J699027D01*
G01*
X40051511Y-103399933D01*
G75*
G02*
X41847790Y-103798158I699027J-1097252D01*
G01*
G37*
G36*
G01*
X36858263Y-103798184D02*
X36897711Y-104376840D01*
G75*
G02*
X35688212Y-105763315I-1297987J-88488D01*
G01*
X35688212Y-105763315D01*
G75*
G02*
X34301737Y-104553816I-88488J1297987D01*
G01*
X34262289Y-103975160D01*
G75*
G02*
X35471788Y-102588685I1297987J88488D01*
G01*
X35471788Y-102588685D01*
G75*
G02*
X36858263Y-103798184I88488J-1297987D01*
G01*
G37*
D10*
X19304000Y-112776000D03*
D11*
X24384000Y-112776000D03*
X14224000Y-112776000D03*
D12*
X14304000Y-108976000D03*
X19304000Y-106876000D03*
D13*
X24804000Y-112776000D03*
X13804000Y-112776000D03*
G36*
G01*
X23051790Y-107608158D02*
X24260714Y-109505788D01*
G75*
G02*
X23862489Y-111302067I-1097252J-699027D01*
G01*
X23862489Y-111302067D01*
G75*
G02*
X22066210Y-110903842I-699027J1097252D01*
G01*
X20857286Y-109006212D01*
G75*
G02*
X21255511Y-107209933I1097252J699027D01*
G01*
X21255511Y-107209933D01*
G75*
G02*
X23051790Y-107608158I699027J-1097252D01*
G01*
G37*
G36*
G01*
X18062263Y-107608184D02*
X18101711Y-108186840D01*
G75*
G02*
X16892212Y-109573315I-1297987J-88488D01*
G01*
X16892212Y-109573315D01*
G75*
G02*
X15505737Y-108363816I-88488J1297987D01*
G01*
X15466289Y-107785160D01*
G75*
G02*
X16675788Y-106398685I1297987J88488D01*
G01*
X16675788Y-106398685D01*
G75*
G02*
X18062263Y-107608184I88488J-1297987D01*
G01*
G37*
M02*
