M48
; DRILL file {KiCad 5.1.5} date Wed 01 Apr 2020 07:38:08 PM CEST
; FORMAT={-:-/ absolute / inch / decimal}
; #@! TF.CreationDate,2020-04-01T19:38:08+02:00
; #@! TF.GenerationSoftware,Kicad,Pcbnew,5.1.5
; #@! TF.FileFunction,NonPlated,1,2,NPTH
FMAT,2
INCH
T1C0.0472
T2C0.0670
T3C0.1181
T4C0.1570
%
G90
G05
T1
X6.2693Y-3.9421
X6.2693Y-4.2421
X5.3449Y-3.9429
X5.3449Y-4.2429
T2
X11.5264Y-3.4705
X11.9264Y-3.4705
X9.2783Y-2.9941
X9.6783Y-2.9941
X8.5343Y-3.1555
X8.9343Y-3.1555
X1.9358Y-2.25
X2.3358Y-2.25
X3.4319Y-3.313
X3.8319Y-3.313
X8.5303Y-1.6594
X8.9303Y-1.6594
X7.7862Y-3.313
X8.1862Y-3.313
X4.0224Y-4.8091
X4.4224Y-4.8091
X2.6799Y-3.9035
X3.0799Y-3.9035
X10.0303Y-2.4035
X10.4303Y-2.4035
X10.0264Y-1.6555
X10.4264Y-1.6555
X1.9319Y-2.998
X2.3319Y-2.998
X7.7862Y-2.565
X8.1862Y-2.565
X3.428Y-4.061
X3.828Y-4.061
X1.9358Y-1.502
X2.3358Y-1.502
X10.7744Y-3.313
X11.1744Y-3.313
X3.4319Y-2.565
X3.8319Y-2.565
X11.5264Y-2.7224
X11.9264Y-2.7224
X-0.3122Y-2.7224
X0.0878Y-2.7224
X2.6803Y-1.6571
X3.0803Y-1.6571
X0.4358Y-1.8169
X0.8358Y-1.8169
X0.4358Y-2.565
X0.8358Y-2.565
X8.5343Y-3.8996
X8.9343Y-3.8996
X11.5224Y-1.9744
X11.9224Y-1.9744
X3.4319Y-1.8169
X3.8319Y-1.8169
X0.4398Y-3.313
X0.8398Y-3.313
X2.6839Y-3.1555
X3.0839Y-3.1555
X7.7898Y-1.8114
X8.1898Y-1.8114
X1.1878Y-1.6594
X1.5878Y-1.6594
X9.2783Y-2.2539
X9.6783Y-2.2539
X10.774Y-1.8154
X11.174Y-1.8154
X8.5303Y-2.4075
X8.9303Y-2.4075
X9.2823Y-1.502
X9.6823Y-1.502
X-0.3122Y-1.9744
X0.0878Y-1.9744
X1.1878Y-3.1555
X1.5878Y-3.1555
X7.7823Y-4.061
X8.1823Y-4.061
X10.7744Y-2.565
X11.1744Y-2.565
X10.0264Y-3.1555
X10.4264Y-3.1555
X7.1957Y-4.8091
X7.5957Y-4.8091
X1.1878Y-2.4075
X1.5878Y-2.4075
X2.6839Y-2.4075
X3.0839Y-2.4075
X-0.3083Y-3.4705
X0.0917Y-3.4705
T3
X2.0319Y-3.198
X2.2819Y-3.098
X7.8862Y-2.765
X8.1362Y-2.665
X3.528Y-4.261
X3.778Y-4.161
X2.0358Y-1.702
X2.2858Y-1.602
X10.8744Y-3.513
X11.1244Y-3.413
X3.5319Y-2.765
X3.7819Y-2.665
X11.6264Y-2.9224
X11.8764Y-2.8224
X-0.2122Y-2.9224
X0.0378Y-2.8224
X2.7803Y-1.8571
X3.0303Y-1.7571
X0.5358Y-2.0169
X0.7858Y-1.9169
X0.5358Y-2.765
X0.7858Y-2.665
X8.6343Y-4.0996
X8.8843Y-3.9996
X11.6224Y-2.1744
X11.8724Y-2.0744
X3.5319Y-2.0169
X3.7819Y-1.9169
X0.5398Y-3.513
X0.7898Y-3.413
X2.7839Y-3.3555
X3.0339Y-3.2555
X7.8898Y-2.0114
X8.1398Y-1.9114
X1.2878Y-1.8594
X1.5378Y-1.7594
X9.3783Y-2.4539
X9.6283Y-2.3539
X10.874Y-2.0154
X11.124Y-1.9154
X8.6303Y-2.6075
X8.8803Y-2.5075
X9.3823Y-1.702
X9.6323Y-1.602
X-0.2122Y-2.1744
X0.0378Y-2.0744
X1.2878Y-3.3555
X1.5378Y-3.2555
X7.8823Y-4.261
X8.1323Y-4.161
X10.8744Y-2.765
X11.1244Y-2.665
X10.1264Y-3.3555
X10.3764Y-3.2555
X7.2957Y-5.0091
X7.5457Y-4.9091
X1.2878Y-2.6075
X1.5378Y-2.5075
X2.7839Y-2.6075
X3.0339Y-2.5075
X-0.2083Y-3.6705
X0.0417Y-3.5705
X11.6264Y-3.6705
X11.8764Y-3.5705
X9.3783Y-3.1941
X9.6283Y-3.0941
X8.6343Y-3.3555
X8.8843Y-3.2555
X2.0358Y-2.45
X2.2858Y-2.35
X3.5319Y-3.513
X3.7819Y-3.413
X8.6303Y-1.8594
X8.8803Y-1.7594
X7.8862Y-3.513
X8.1362Y-3.413
X4.1224Y-5.0091
X4.3724Y-4.9091
X2.7799Y-4.1035
X3.0299Y-4.0035
X10.1303Y-2.6035
X10.3803Y-2.5035
X10.1264Y-1.8555
X10.3764Y-1.7555
T4
X9.4823Y-1.502
X-0.1122Y-1.9744
X1.3878Y-3.1555
X7.9823Y-4.061
X10.9744Y-2.565
X10.2264Y-3.1555
X7.3957Y-4.8091
X1.3878Y-2.4075
X2.8839Y-2.4075
X-0.1083Y-3.4705
X11.7264Y-3.4705
X9.4783Y-2.9941
X8.7343Y-3.1555
X2.1358Y-2.25
X3.6319Y-3.313
X8.7303Y-1.6594
X7.9862Y-3.313
X4.2224Y-4.8091
X2.8799Y-3.9035
X10.2303Y-2.4035
X10.2264Y-1.6555
X2.1319Y-2.998
X7.9862Y-2.565
X3.628Y-4.061
X2.1358Y-1.502
X10.9744Y-3.313
X3.6319Y-2.565
X11.7264Y-2.7224
X-0.1122Y-2.7224
X2.8803Y-1.6571
X0.6358Y-1.8169
X0.6358Y-2.565
X8.7343Y-3.8996
X11.7224Y-1.9744
X3.6319Y-1.8169
X0.6398Y-3.313
X2.8839Y-3.1555
X7.9898Y-1.8114
X1.3878Y-1.6594
X9.4783Y-2.2539
X10.974Y-1.8154
X8.7303Y-2.4075
T0
M30
